%TF.GenerationSoftware,KiCad,Pcbnew,9.0.9*%
%TF.CreationDate,2026-06-03T23:50:17+05:30*%
%TF.ProjectId,Open_STMPLC_Main_V0.1,4f70656e-5f53-4544-9d50-4c435f4d6169,0.1*%
%TF.SameCoordinates,PX2faf080PY8583b00*%
%TF.FileFunction,Drillmap*%
%TF.FilePolarity,Positive*%
%FSLAX45Y45*%
G04 Gerber Fmt 4.5, Leading zero omitted, Abs format (unit mm)*
G04 Created by KiCad (PCBNEW 9.0.9) date 2026-06-03 23:50:17*
%MOMM*%
%LPD*%
G01*
G04 APERTURE LIST*
%ADD10C,0.200000*%
%ADD11C,0.100000*%
%ADD12C,0.163000*%
G04 APERTURE END LIST*
D10*
X0Y9000000D02*
X16880000Y9000000D01*
X0Y0D02*
X0Y9000000D01*
X2800000Y2350000D02*
X4500000Y2350000D01*
X4500000Y900000D01*
X2800000Y900000D01*
X2800000Y2350000D01*
X16880000Y9000000D02*
X16880000Y0D01*
X16880000Y0D02*
X0Y0D01*
D11*
X375000Y6375000D02*
X405000Y6345000D01*
X405000Y6375000D02*
X375000Y6345000D01*
X385000Y5815000D02*
X415000Y5785000D01*
X415000Y5815000D02*
X385000Y5785000D01*
X385000Y5735000D02*
X415000Y5705000D01*
X415000Y5735000D02*
X385000Y5705000D01*
X385000Y5655000D02*
X415000Y5625000D01*
X415000Y5655000D02*
X385000Y5625000D01*
X385000Y5575000D02*
X415000Y5545000D01*
X415000Y5575000D02*
X385000Y5545000D01*
X385000Y5495000D02*
X415000Y5465000D01*
X415000Y5495000D02*
X385000Y5465000D01*
X385000Y5415000D02*
X415000Y5385000D01*
X415000Y5415000D02*
X385000Y5385000D01*
X385000Y3695000D02*
X415000Y3665000D01*
X415000Y3695000D02*
X385000Y3665000D01*
X385000Y3615000D02*
X415000Y3585000D01*
X415000Y3615000D02*
X385000Y3585000D01*
X385000Y3535000D02*
X415000Y3505000D01*
X415000Y3535000D02*
X385000Y3505000D01*
X385000Y3455000D02*
X415000Y3425000D01*
X415000Y3455000D02*
X385000Y3425000D01*
X395000Y6295000D02*
X425000Y6265000D01*
X425000Y6295000D02*
X395000Y6265000D01*
X395000Y6215000D02*
X425000Y6185000D01*
X425000Y6215000D02*
X395000Y6185000D01*
X395000Y6135000D02*
X425000Y6105000D01*
X425000Y6135000D02*
X395000Y6105000D01*
X395000Y6055000D02*
X425000Y6025000D01*
X425000Y6055000D02*
X395000Y6025000D01*
X395000Y5975000D02*
X425000Y5945000D01*
X425000Y5975000D02*
X395000Y5945000D01*
X395000Y5895000D02*
X425000Y5865000D01*
X425000Y5895000D02*
X395000Y5865000D01*
X395000Y5335000D02*
X425000Y5305000D01*
X425000Y5335000D02*
X395000Y5305000D01*
X400000Y3230000D02*
X430000Y3200000D01*
X430000Y3230000D02*
X400000Y3200000D01*
X405000Y3135000D02*
X435000Y3105000D01*
X435000Y3135000D02*
X405000Y3105000D01*
X405000Y3055000D02*
X435000Y3025000D01*
X435000Y3055000D02*
X405000Y3025000D01*
X405000Y2975000D02*
X435000Y2945000D01*
X435000Y2975000D02*
X405000Y2945000D01*
X405000Y2895000D02*
X435000Y2865000D01*
X435000Y2895000D02*
X405000Y2865000D01*
X405000Y2735000D02*
X435000Y2705000D01*
X435000Y2735000D02*
X405000Y2705000D01*
X405000Y2655000D02*
X435000Y2625000D01*
X435000Y2655000D02*
X405000Y2625000D01*
X405000Y2575000D02*
X435000Y2545000D01*
X435000Y2575000D02*
X405000Y2545000D01*
X405000Y2485000D02*
X435000Y2455000D01*
X435000Y2485000D02*
X405000Y2455000D01*
X437711Y6514168D02*
X467711Y6484168D01*
X467711Y6514168D02*
X437711Y6484168D01*
X439988Y6732227D02*
X469988Y6702227D01*
X469988Y6732227D02*
X439988Y6702227D01*
X456681Y6591887D02*
X486681Y6561887D01*
X486681Y6591887D02*
X456681Y6561887D01*
X485576Y6666487D02*
X515576Y6636487D01*
X515576Y6666487D02*
X485576Y6636487D01*
X490000Y3295000D02*
X520000Y3265000D01*
X520000Y3295000D02*
X490000Y3265000D01*
X815000Y2655000D02*
X845000Y2625000D01*
X845000Y2655000D02*
X815000Y2625000D01*
X815000Y2575000D02*
X845000Y2545000D01*
X845000Y2575000D02*
X815000Y2545000D01*
X825000Y5895000D02*
X855000Y5865000D01*
X855000Y5895000D02*
X825000Y5865000D01*
X835000Y2895000D02*
X865000Y2865000D01*
X865000Y2895000D02*
X835000Y2865000D01*
X840962Y4980962D02*
X870962Y4950962D01*
X870962Y4980962D02*
X840962Y4950962D01*
X845000Y6215000D02*
X875000Y6185000D01*
X875000Y6215000D02*
X845000Y6185000D01*
X845000Y6135000D02*
X875000Y6105000D01*
X875000Y6135000D02*
X845000Y6105000D01*
X845000Y3605000D02*
X875000Y3575000D01*
X875000Y3605000D02*
X845000Y3575000D01*
X845000Y2735000D02*
X875000Y2705000D01*
X875000Y2735000D02*
X845000Y2705000D01*
X875000Y3760000D02*
X905000Y3730000D01*
X905000Y3760000D02*
X875000Y3730000D01*
X895000Y5275000D02*
X925000Y5245000D01*
X925000Y5275000D02*
X895000Y5245000D01*
X919038Y5359038D02*
X949038Y5329038D01*
X949038Y5359038D02*
X919038Y5329038D01*
X995962Y2445962D02*
X1025962Y2415962D01*
X1025962Y2445962D02*
X995962Y2415962D01*
X1010000Y5360000D02*
X1040000Y5330000D01*
X1040000Y5360000D02*
X1010000Y5330000D01*
X1035000Y2945000D02*
X1065000Y2915000D01*
X1065000Y2945000D02*
X1035000Y2915000D01*
X1075000Y6375000D02*
X1105000Y6345000D01*
X1105000Y6375000D02*
X1075000Y6345000D01*
X1105962Y5355962D02*
X1135962Y5325962D01*
X1135962Y5355962D02*
X1105962Y5325962D01*
X1111277Y5442571D02*
X1141277Y5412571D01*
X1141277Y5442571D02*
X1111277Y5412571D01*
X1135000Y7115000D02*
X1165000Y7085000D01*
X1165000Y7115000D02*
X1135000Y7085000D01*
X1185000Y6385000D02*
X1215000Y6355000D01*
X1215000Y6385000D02*
X1185000Y6355000D01*
X1205000Y5445000D02*
X1235000Y5415000D01*
X1235000Y5445000D02*
X1205000Y5415000D01*
X1205962Y3055962D02*
X1235962Y3025962D01*
X1235962Y3055962D02*
X1205962Y3025962D01*
X1235000Y7115000D02*
X1265000Y7085000D01*
X1265000Y7115000D02*
X1235000Y7085000D01*
X1258078Y6153022D02*
X1288078Y6123022D01*
X1288078Y6153022D02*
X1258078Y6123022D01*
X1295000Y7745000D02*
X1325000Y7715000D01*
X1325000Y7745000D02*
X1295000Y7715000D01*
X1305962Y5435962D02*
X1335962Y5405962D01*
X1335962Y5435962D02*
X1305962Y5405962D01*
X1315000Y3275000D02*
X1345000Y3245000D01*
X1345000Y3275000D02*
X1315000Y3245000D01*
X1315000Y3045000D02*
X1345000Y3015000D01*
X1345000Y3045000D02*
X1315000Y3015000D01*
X1335000Y7115000D02*
X1365000Y7085000D01*
X1365000Y7115000D02*
X1335000Y7085000D01*
X1335000Y6175000D02*
X1365000Y6145000D01*
X1365000Y6175000D02*
X1335000Y6145000D01*
X1375000Y7745000D02*
X1405000Y7715000D01*
X1405000Y7745000D02*
X1375000Y7715000D01*
X1385000Y5485000D02*
X1415000Y5455000D01*
X1415000Y5485000D02*
X1385000Y5455000D01*
X1435000Y7115000D02*
X1465000Y7085000D01*
X1465000Y7115000D02*
X1435000Y7085000D01*
X1445000Y3335000D02*
X1475000Y3305000D01*
X1475000Y3335000D02*
X1445000Y3305000D01*
X1455000Y7745000D02*
X1485000Y7715000D01*
X1485000Y7745000D02*
X1455000Y7715000D01*
X1466250Y6356250D02*
X1496250Y6326250D01*
X1496250Y6356250D02*
X1466250Y6326250D01*
X1475000Y2975000D02*
X1505000Y2945000D01*
X1505000Y2975000D02*
X1475000Y2945000D01*
X1535000Y7115000D02*
X1565000Y7085000D01*
X1565000Y7115000D02*
X1535000Y7085000D01*
X1595000Y7715000D02*
X1625000Y7685000D01*
X1625000Y7715000D02*
X1595000Y7685000D01*
X1635000Y7115000D02*
X1665000Y7085000D01*
X1665000Y7115000D02*
X1635000Y7085000D01*
X1715000Y6345000D02*
X1745000Y6315000D01*
X1745000Y6345000D02*
X1715000Y6315000D01*
X1735000Y7115000D02*
X1765000Y7085000D01*
X1765000Y7115000D02*
X1735000Y7085000D01*
X1785000Y3615000D02*
X1815000Y3585000D01*
X1815000Y3615000D02*
X1785000Y3585000D01*
X1795000Y7705000D02*
X1825000Y7675000D01*
X1825000Y7705000D02*
X1795000Y7675000D01*
X1835000Y5635000D02*
X1865000Y5605000D01*
X1865000Y5635000D02*
X1835000Y5605000D01*
X1885000Y3615000D02*
X1915000Y3585000D01*
X1915000Y3615000D02*
X1885000Y3585000D01*
X1985000Y3615000D02*
X2015000Y3585000D01*
X2015000Y3615000D02*
X1985000Y3585000D01*
X2085000Y3615000D02*
X2115000Y3585000D01*
X2115000Y3615000D02*
X2085000Y3585000D01*
X2095962Y5315962D02*
X2125962Y5285962D01*
X2125962Y5315962D02*
X2095962Y5285962D01*
X2185000Y5265000D02*
X2215000Y5235000D01*
X2215000Y5265000D02*
X2185000Y5235000D01*
X2198227Y6027700D02*
X2228227Y5997700D01*
X2228227Y6027700D02*
X2198227Y5997700D01*
X2198227Y5942300D02*
X2228227Y5912300D01*
X2228227Y5942300D02*
X2198227Y5912300D01*
X2205000Y7125000D02*
X2235000Y7095000D01*
X2235000Y7125000D02*
X2205000Y7095000D01*
X2205000Y6845000D02*
X2235000Y6815000D01*
X2235000Y6845000D02*
X2205000Y6815000D01*
X2295000Y5165000D02*
X2325000Y5135000D01*
X2325000Y5165000D02*
X2295000Y5135000D01*
X2405000Y4625000D02*
X2435000Y4595000D01*
X2435000Y4625000D02*
X2405000Y4595000D01*
X3035000Y2515000D02*
X3065000Y2485000D01*
X3065000Y2515000D02*
X3035000Y2485000D01*
X3235000Y4635000D02*
X3265000Y4605000D01*
X3265000Y4635000D02*
X3235000Y4605000D01*
X3365000Y4755000D02*
X3395000Y4725000D01*
X3395000Y4755000D02*
X3365000Y4725000D01*
X3985000Y3615000D02*
X4015000Y3585000D01*
X4015000Y3615000D02*
X3985000Y3585000D01*
X4085000Y3615000D02*
X4115000Y3585000D01*
X4115000Y3615000D02*
X4085000Y3585000D01*
X4185000Y3615000D02*
X4215000Y3585000D01*
X4215000Y3615000D02*
X4185000Y3585000D01*
X4285000Y3615000D02*
X4315000Y3585000D01*
X4315000Y3615000D02*
X4285000Y3585000D01*
X4455000Y4775000D02*
X4485000Y4745000D01*
X4485000Y4775000D02*
X4455000Y4745000D01*
X4585000Y4775000D02*
X4615000Y4745000D01*
X4615000Y4775000D02*
X4585000Y4745000D01*
X4715000Y4775000D02*
X4745000Y4745000D01*
X4745000Y4775000D02*
X4715000Y4745000D01*
X4845000Y4775000D02*
X4875000Y4745000D01*
X4875000Y4775000D02*
X4845000Y4745000D01*
X4975000Y4775000D02*
X5005000Y4745000D01*
X5005000Y4775000D02*
X4975000Y4745000D01*
X5905000Y5965000D02*
X5935000Y5935000D01*
X5935000Y5965000D02*
X5905000Y5935000D01*
X5985000Y7225000D02*
X6015000Y7195000D01*
X6015000Y7225000D02*
X5985000Y7195000D01*
X6045000Y6485000D02*
X6075000Y6455000D01*
X6075000Y6485000D02*
X6045000Y6455000D01*
X6065000Y5945000D02*
X6095000Y5915000D01*
X6095000Y5945000D02*
X6065000Y5915000D01*
X6075000Y5545000D02*
X6105000Y5515000D01*
X6105000Y5545000D02*
X6075000Y5515000D01*
X6145000Y6485000D02*
X6175000Y6455000D01*
X6175000Y6485000D02*
X6145000Y6455000D01*
X6160000Y7140000D02*
X6190000Y7110000D01*
X6190000Y7140000D02*
X6160000Y7110000D01*
X6195000Y5465000D02*
X6225000Y5435000D01*
X6225000Y5465000D02*
X6195000Y5435000D01*
X6275000Y7155000D02*
X6305000Y7125000D01*
X6305000Y7155000D02*
X6275000Y7125000D01*
X6375000Y7385000D02*
X6405000Y7355000D01*
X6405000Y7385000D02*
X6375000Y7355000D01*
X6421250Y7155000D02*
X6451250Y7125000D01*
X6451250Y7155000D02*
X6421250Y7125000D01*
X6535000Y7155000D02*
X6565000Y7125000D01*
X6565000Y7155000D02*
X6535000Y7125000D01*
X6545000Y6705000D02*
X6575000Y6675000D01*
X6575000Y6705000D02*
X6545000Y6675000D01*
X6665000Y6695000D02*
X6695000Y6665000D01*
X6695000Y6695000D02*
X6665000Y6665000D01*
X6735000Y7155000D02*
X6765000Y7125000D01*
X6765000Y7155000D02*
X6735000Y7125000D01*
X6855000Y7031250D02*
X6885000Y7001250D01*
X6885000Y7031250D02*
X6855000Y7001250D01*
X6885000Y7155000D02*
X6915000Y7125000D01*
X6915000Y7155000D02*
X6885000Y7125000D01*
X7035000Y7155000D02*
X7065000Y7125000D01*
X7065000Y7155000D02*
X7035000Y7125000D01*
X7160000Y7165000D02*
X7190000Y7135000D01*
X7190000Y7165000D02*
X7160000Y7135000D01*
X7255000Y6845000D02*
X7285000Y6815000D01*
X7285000Y6845000D02*
X7255000Y6815000D01*
X7375000Y3990000D02*
X7405000Y3960000D01*
X7405000Y3990000D02*
X7375000Y3960000D01*
X7385000Y2345000D02*
X7415000Y2315000D01*
X7415000Y2345000D02*
X7385000Y2315000D01*
X7385000Y955000D02*
X7415000Y925000D01*
X7415000Y955000D02*
X7385000Y925000D01*
X7555000Y3625000D02*
X7585000Y3595000D01*
X7585000Y3625000D02*
X7555000Y3595000D01*
X7655000Y3625000D02*
X7685000Y3595000D01*
X7685000Y3625000D02*
X7655000Y3595000D01*
X7895000Y4235000D02*
X7925000Y4205000D01*
X7925000Y4235000D02*
X7895000Y4205000D01*
X7925000Y6935000D02*
X7955000Y6905000D01*
X7955000Y6935000D02*
X7925000Y6905000D01*
X7975000Y4305000D02*
X8005000Y4275000D01*
X8005000Y4305000D02*
X7975000Y4275000D01*
X8035031Y7107500D02*
X8065031Y7077500D01*
X8065031Y7107500D02*
X8035031Y7077500D01*
X8065000Y4370000D02*
X8095000Y4340000D01*
X8095000Y4370000D02*
X8065000Y4340000D01*
X8125000Y6935000D02*
X8155000Y6905000D01*
X8155000Y6935000D02*
X8125000Y6905000D01*
X8125000Y3625000D02*
X8155000Y3595000D01*
X8155000Y3625000D02*
X8125000Y3595000D01*
X8165000Y3990000D02*
X8195000Y3960000D01*
X8195000Y3990000D02*
X8165000Y3960000D01*
X8197500Y3230000D02*
X8227500Y3200000D01*
X8227500Y3230000D02*
X8197500Y3200000D01*
X8235031Y7107500D02*
X8265031Y7077500D01*
X8265031Y7107500D02*
X8235031Y7077500D01*
X8317022Y6932978D02*
X8347022Y6902978D01*
X8347022Y6932978D02*
X8317022Y6902978D01*
X8416002Y7107500D02*
X8446002Y7077500D01*
X8446002Y7107500D02*
X8416002Y7077500D01*
X8505000Y7325000D02*
X8535000Y7295000D01*
X8535000Y7325000D02*
X8505000Y7295000D01*
X8515000Y6935000D02*
X8545000Y6905000D01*
X8545000Y6935000D02*
X8515000Y6905000D01*
X8648750Y7145000D02*
X8678750Y7115000D01*
X8678750Y7145000D02*
X8648750Y7115000D01*
X8715000Y4760000D02*
X8745000Y4730000D01*
X8745000Y4760000D02*
X8715000Y4730000D01*
X8745000Y7415000D02*
X8775000Y7385000D01*
X8775000Y7415000D02*
X8745000Y7385000D01*
X8815000Y4405000D02*
X8845000Y4375000D01*
X8845000Y4405000D02*
X8815000Y4375000D01*
X8845000Y4685000D02*
X8875000Y4655000D01*
X8875000Y4685000D02*
X8845000Y4655000D01*
X8915000Y2860000D02*
X8945000Y2830000D01*
X8945000Y2860000D02*
X8915000Y2830000D01*
X8935000Y1015000D02*
X8965000Y985000D01*
X8965000Y1015000D02*
X8935000Y985000D01*
X8965000Y6915000D02*
X8995000Y6885000D01*
X8995000Y6915000D02*
X8965000Y6885000D01*
X8985000Y2415000D02*
X9015000Y2385000D01*
X9015000Y2415000D02*
X8985000Y2385000D01*
X8985000Y2115000D02*
X9015000Y2085000D01*
X9015000Y2115000D02*
X8985000Y2085000D01*
X8995000Y5225000D02*
X9025000Y5195000D01*
X9025000Y5225000D02*
X8995000Y5195000D01*
X8995000Y2805000D02*
X9025000Y2775000D01*
X9025000Y2805000D02*
X8995000Y2775000D01*
X9032500Y4331899D02*
X9062500Y4301899D01*
X9062500Y4331899D02*
X9032500Y4301899D01*
X9055000Y2595000D02*
X9085000Y2565000D01*
X9085000Y2595000D02*
X9055000Y2565000D01*
X9065000Y6925000D02*
X9095000Y6895000D01*
X9095000Y6925000D02*
X9065000Y6895000D01*
X9065000Y5075000D02*
X9095000Y5045000D01*
X9095000Y5075000D02*
X9065000Y5045000D01*
X9065000Y4405000D02*
X9095000Y4375000D01*
X9095000Y4405000D02*
X9065000Y4375000D01*
X9085000Y2415000D02*
X9115000Y2385000D01*
X9115000Y2415000D02*
X9085000Y2385000D01*
X9085000Y2115000D02*
X9115000Y2085000D01*
X9115000Y2115000D02*
X9085000Y2085000D01*
X9165000Y6915000D02*
X9195000Y6885000D01*
X9195000Y6915000D02*
X9165000Y6885000D01*
X9165000Y5215000D02*
X9195000Y5185000D01*
X9195000Y5215000D02*
X9165000Y5185000D01*
X9185000Y2415000D02*
X9215000Y2385000D01*
X9215000Y2415000D02*
X9185000Y2385000D01*
X9185000Y2115000D02*
X9215000Y2085000D01*
X9215000Y2115000D02*
X9185000Y2085000D01*
X9275000Y6925000D02*
X9305000Y6895000D01*
X9305000Y6925000D02*
X9275000Y6895000D01*
X9285000Y2645000D02*
X9315000Y2615000D01*
X9315000Y2645000D02*
X9285000Y2615000D01*
X9315000Y5105000D02*
X9345000Y5075000D01*
X9345000Y5105000D02*
X9315000Y5075000D01*
X9355000Y5385000D02*
X9385000Y5355000D01*
X9385000Y5385000D02*
X9355000Y5355000D01*
X9355000Y2385000D02*
X9385000Y2355000D01*
X9385000Y2385000D02*
X9355000Y2355000D01*
X9365000Y5295000D02*
X9395000Y5265000D01*
X9395000Y5295000D02*
X9365000Y5265000D01*
X9375000Y3320000D02*
X9405000Y3290000D01*
X9405000Y3320000D02*
X9375000Y3290000D01*
X9385000Y4655000D02*
X9415000Y4625000D01*
X9415000Y4655000D02*
X9385000Y4625000D01*
X9395000Y2475000D02*
X9425000Y2445000D01*
X9425000Y2475000D02*
X9395000Y2445000D01*
X9405000Y3775000D02*
X9435000Y3745000D01*
X9435000Y3775000D02*
X9405000Y3745000D01*
X9425000Y4230000D02*
X9455000Y4200000D01*
X9455000Y4230000D02*
X9425000Y4200000D01*
X9425000Y3855000D02*
X9455000Y3825000D01*
X9455000Y3855000D02*
X9425000Y3825000D01*
X9455000Y3255000D02*
X9485000Y3225000D01*
X9485000Y3255000D02*
X9455000Y3225000D01*
X9455000Y1515000D02*
X9485000Y1485000D01*
X9485000Y1515000D02*
X9455000Y1485000D01*
X9465000Y3110000D02*
X9495000Y3080000D01*
X9495000Y3110000D02*
X9465000Y3080000D01*
X9475962Y3435962D02*
X9505962Y3405962D01*
X9505962Y3435962D02*
X9475962Y3405962D01*
X9485000Y4695000D02*
X9515000Y4665000D01*
X9515000Y4695000D02*
X9485000Y4665000D01*
X9485000Y3525000D02*
X9515000Y3495000D01*
X9515000Y3525000D02*
X9485000Y3495000D01*
X9485000Y3335000D02*
X9515000Y3305000D01*
X9515000Y3335000D02*
X9485000Y3305000D01*
X9515000Y3875000D02*
X9545000Y3845000D01*
X9545000Y3875000D02*
X9515000Y3845000D01*
X9515000Y3185000D02*
X9545000Y3155000D01*
X9545000Y3185000D02*
X9515000Y3155000D01*
X9525000Y6915000D02*
X9555000Y6885000D01*
X9555000Y6915000D02*
X9525000Y6885000D01*
X9545000Y7023750D02*
X9575000Y6993750D01*
X9575000Y7023750D02*
X9545000Y6993750D01*
X9555000Y6755000D02*
X9585000Y6725000D01*
X9585000Y6755000D02*
X9555000Y6725000D01*
X9560000Y4848795D02*
X9590000Y4818795D01*
X9590000Y4848795D02*
X9560000Y4818795D01*
X9585000Y4675000D02*
X9615000Y4645000D01*
X9615000Y4675000D02*
X9585000Y4645000D01*
X9585000Y2795000D02*
X9615000Y2765000D01*
X9615000Y2795000D02*
X9585000Y2765000D01*
X9595000Y6915000D02*
X9625000Y6885000D01*
X9625000Y6915000D02*
X9595000Y6885000D01*
X9615000Y4185000D02*
X9645000Y4155000D01*
X9645000Y4185000D02*
X9615000Y4155000D01*
X9615000Y2385000D02*
X9645000Y2355000D01*
X9645000Y2385000D02*
X9615000Y2355000D01*
X9669038Y4839038D02*
X9699038Y4809038D01*
X9699038Y4839038D02*
X9669038Y4809038D01*
X9682300Y6805000D02*
X9712300Y6775000D01*
X9712300Y6805000D02*
X9682300Y6775000D01*
X9685000Y4125000D02*
X9715000Y4095000D01*
X9715000Y4125000D02*
X9685000Y4095000D01*
X9725000Y2495000D02*
X9755000Y2465000D01*
X9755000Y2495000D02*
X9725000Y2465000D01*
X9725000Y1275000D02*
X9755000Y1245000D01*
X9755000Y1275000D02*
X9725000Y1245000D01*
X9735000Y1515000D02*
X9765000Y1485000D01*
X9765000Y1515000D02*
X9735000Y1485000D01*
X9767700Y6805000D02*
X9797700Y6775000D01*
X9797700Y6805000D02*
X9767700Y6775000D01*
X9785000Y4185000D02*
X9815000Y4155000D01*
X9815000Y4185000D02*
X9785000Y4155000D01*
X9835000Y345000D02*
X9865000Y315000D01*
X9865000Y345000D02*
X9835000Y315000D01*
X9845000Y4105000D02*
X9875000Y4075000D01*
X9875000Y4105000D02*
X9845000Y4075000D01*
X9855000Y6985000D02*
X9885000Y6955000D01*
X9885000Y6985000D02*
X9855000Y6955000D01*
X9855000Y6905000D02*
X9885000Y6875000D01*
X9885000Y6905000D02*
X9855000Y6875000D01*
X9881814Y3601814D02*
X9911814Y3571814D01*
X9911814Y3601814D02*
X9881814Y3571814D01*
X9915000Y4215000D02*
X9945000Y4185000D01*
X9945000Y4215000D02*
X9915000Y4185000D01*
X9945000Y6825000D02*
X9975000Y6795000D01*
X9975000Y6825000D02*
X9945000Y6795000D01*
X9965000Y3915000D02*
X9995000Y3885000D01*
X9995000Y3915000D02*
X9965000Y3885000D01*
X9965000Y3535000D02*
X9995000Y3505000D01*
X9995000Y3535000D02*
X9965000Y3505000D01*
X9975000Y2485000D02*
X10005000Y2455000D01*
X10005000Y2485000D02*
X9975000Y2455000D01*
X10005000Y5051205D02*
X10035000Y5021205D01*
X10035000Y5051205D02*
X10005000Y5021205D01*
X10025000Y3475000D02*
X10055000Y3445000D01*
X10055000Y3475000D02*
X10025000Y3445000D01*
X10025000Y1975000D02*
X10055000Y1945000D01*
X10055000Y1975000D02*
X10025000Y1945000D01*
X10025000Y1885000D02*
X10055000Y1855000D01*
X10055000Y1885000D02*
X10025000Y1855000D01*
X10025000Y1785000D02*
X10055000Y1755000D01*
X10055000Y1785000D02*
X10025000Y1755000D01*
X10103446Y5040777D02*
X10133446Y5010777D01*
X10133446Y5040777D02*
X10103446Y5010777D01*
X10105000Y2875000D02*
X10135000Y2845000D01*
X10135000Y2875000D02*
X10105000Y2845000D01*
X10107984Y4850081D02*
X10137984Y4820081D01*
X10137984Y4850081D02*
X10107984Y4820081D01*
X10110000Y8115000D02*
X10140000Y8085000D01*
X10140000Y8115000D02*
X10110000Y8085000D01*
X10123186Y2953186D02*
X10153186Y2923186D01*
X10153186Y2953186D02*
X10123186Y2923186D01*
X10135000Y5335000D02*
X10165000Y5305000D01*
X10165000Y5335000D02*
X10135000Y5305000D01*
X10150000Y2780000D02*
X10180000Y2750000D01*
X10180000Y2780000D02*
X10150000Y2750000D01*
X10155000Y695000D02*
X10185000Y665000D01*
X10185000Y695000D02*
X10155000Y665000D01*
X10175000Y5005000D02*
X10205000Y4975000D01*
X10205000Y5005000D02*
X10175000Y4975000D01*
X10185000Y3515000D02*
X10215000Y3485000D01*
X10215000Y3515000D02*
X10185000Y3485000D01*
X10205000Y4855000D02*
X10235000Y4825000D01*
X10235000Y4855000D02*
X10205000Y4825000D01*
X10239868Y5329868D02*
X10269868Y5299868D01*
X10269868Y5329868D02*
X10239868Y5299868D01*
X10245000Y2475000D02*
X10275000Y2445000D01*
X10275000Y2475000D02*
X10245000Y2445000D01*
X10260000Y8115000D02*
X10290000Y8085000D01*
X10290000Y8115000D02*
X10260000Y8085000D01*
X10268186Y2808186D02*
X10298186Y2778186D01*
X10298186Y2808186D02*
X10268186Y2778186D01*
X10285000Y4015000D02*
X10315000Y3985000D01*
X10315000Y4015000D02*
X10285000Y3985000D01*
X10285000Y3815000D02*
X10315000Y3785000D01*
X10315000Y3815000D02*
X10285000Y3785000D01*
X10285000Y3515000D02*
X10315000Y3485000D01*
X10315000Y3515000D02*
X10285000Y3485000D01*
X10355000Y4995000D02*
X10385000Y4965000D01*
X10385000Y4995000D02*
X10355000Y4965000D01*
X10385000Y4115000D02*
X10415000Y4085000D01*
X10415000Y4115000D02*
X10385000Y4085000D01*
X10385000Y3915000D02*
X10415000Y3885000D01*
X10415000Y3915000D02*
X10385000Y3885000D01*
X10385000Y3515000D02*
X10415000Y3485000D01*
X10415000Y3515000D02*
X10385000Y3485000D01*
X10435000Y4590000D02*
X10465000Y4560000D01*
X10465000Y4590000D02*
X10435000Y4560000D01*
X10440000Y3164871D02*
X10470000Y3134871D01*
X10470000Y3164871D02*
X10440000Y3134871D01*
X10445000Y4955000D02*
X10475000Y4925000D01*
X10475000Y4955000D02*
X10445000Y4925000D01*
X10445000Y4855000D02*
X10475000Y4825000D01*
X10475000Y4855000D02*
X10445000Y4825000D01*
X10472300Y6915000D02*
X10502300Y6885000D01*
X10502300Y6915000D02*
X10472300Y6885000D01*
X10525000Y6065000D02*
X10555000Y6035000D01*
X10555000Y6065000D02*
X10525000Y6035000D01*
X10530081Y4579033D02*
X10560081Y4549033D01*
X10560081Y4579033D02*
X10530081Y4549033D01*
X10557700Y6915000D02*
X10587700Y6885000D01*
X10587700Y6915000D02*
X10557700Y6885000D01*
X10575000Y2955000D02*
X10605000Y2925000D01*
X10605000Y2955000D02*
X10575000Y2925000D01*
X10605000Y4545000D02*
X10635000Y4515000D01*
X10635000Y4545000D02*
X10605000Y4515000D01*
X10655000Y4475000D02*
X10685000Y4445000D01*
X10685000Y4475000D02*
X10655000Y4445000D01*
X10665000Y2935000D02*
X10695000Y2905000D01*
X10695000Y2935000D02*
X10665000Y2905000D01*
X10685000Y3815000D02*
X10715000Y3785000D01*
X10715000Y3815000D02*
X10685000Y3785000D01*
X10685000Y3515000D02*
X10715000Y3485000D01*
X10715000Y3515000D02*
X10685000Y3485000D01*
X10685000Y3300000D02*
X10715000Y3270000D01*
X10715000Y3300000D02*
X10685000Y3270000D01*
X10685000Y2375000D02*
X10715000Y2345000D01*
X10715000Y2375000D02*
X10685000Y2345000D01*
X10695000Y6365000D02*
X10725000Y6335000D01*
X10725000Y6365000D02*
X10695000Y6335000D01*
X10704932Y2835043D02*
X10734932Y2805043D01*
X10734932Y2835043D02*
X10704932Y2805043D01*
X10745000Y4415000D02*
X10775000Y4385000D01*
X10775000Y4415000D02*
X10745000Y4385000D01*
X10745000Y3365000D02*
X10775000Y3335000D01*
X10775000Y3365000D02*
X10745000Y3335000D01*
X10755000Y5355000D02*
X10785000Y5325000D01*
X10785000Y5355000D02*
X10755000Y5325000D01*
X10775000Y5755000D02*
X10805000Y5725000D01*
X10805000Y5755000D02*
X10775000Y5725000D01*
X10785000Y7615000D02*
X10815000Y7585000D01*
X10815000Y7615000D02*
X10785000Y7585000D01*
X10785000Y4015000D02*
X10815000Y3985000D01*
X10815000Y4015000D02*
X10785000Y3985000D01*
X10785000Y3915000D02*
X10815000Y3885000D01*
X10815000Y3915000D02*
X10785000Y3885000D01*
X10785000Y3815000D02*
X10815000Y3785000D01*
X10815000Y3815000D02*
X10785000Y3785000D01*
X10785000Y3515000D02*
X10815000Y3485000D01*
X10815000Y3515000D02*
X10785000Y3485000D01*
X10795804Y2836314D02*
X10825804Y2806314D01*
X10825804Y2836314D02*
X10795804Y2806314D01*
X10875000Y2825000D02*
X10905000Y2795000D01*
X10905000Y2825000D02*
X10875000Y2795000D01*
X10885000Y4115000D02*
X10915000Y4085000D01*
X10915000Y4115000D02*
X10885000Y4085000D01*
X10885000Y4015000D02*
X10915000Y3985000D01*
X10915000Y4015000D02*
X10885000Y3985000D01*
X10885000Y3915000D02*
X10915000Y3885000D01*
X10915000Y3915000D02*
X10885000Y3885000D01*
X10885000Y3815000D02*
X10915000Y3785000D01*
X10915000Y3815000D02*
X10885000Y3785000D01*
X10885000Y3515000D02*
X10915000Y3485000D01*
X10915000Y3515000D02*
X10885000Y3485000D01*
X10885000Y1115000D02*
X10915000Y1085000D01*
X10915000Y1115000D02*
X10885000Y1085000D01*
X10905000Y5735000D02*
X10935000Y5705000D01*
X10935000Y5735000D02*
X10905000Y5705000D01*
X10915000Y1440000D02*
X10945000Y1410000D01*
X10945000Y1440000D02*
X10915000Y1410000D01*
X10935000Y4965000D02*
X10965000Y4935000D01*
X10965000Y4965000D02*
X10935000Y4935000D01*
X10955000Y2865000D02*
X10985000Y2835000D01*
X10985000Y2865000D02*
X10955000Y2835000D01*
X10975000Y2135000D02*
X11005000Y2105000D01*
X11005000Y2135000D02*
X10975000Y2105000D01*
X10995000Y5755000D02*
X11025000Y5725000D01*
X11025000Y5755000D02*
X10995000Y5725000D01*
X10995000Y4845000D02*
X11025000Y4815000D01*
X11025000Y4845000D02*
X10995000Y4815000D01*
X11005000Y4745000D02*
X11035000Y4715000D01*
X11035000Y4745000D02*
X11005000Y4715000D01*
X11005000Y1615000D02*
X11035000Y1585000D01*
X11035000Y1615000D02*
X11005000Y1585000D01*
X11020000Y3865000D02*
X11050000Y3835000D01*
X11050000Y3865000D02*
X11020000Y3835000D01*
X11025000Y2915000D02*
X11055000Y2885000D01*
X11055000Y2915000D02*
X11025000Y2885000D01*
X11035000Y7105000D02*
X11065000Y7075000D01*
X11065000Y7105000D02*
X11035000Y7075000D01*
X11055000Y2515000D02*
X11085000Y2485000D01*
X11085000Y2515000D02*
X11055000Y2485000D01*
X11085000Y3775000D02*
X11115000Y3745000D01*
X11115000Y3775000D02*
X11085000Y3745000D01*
X11085000Y1115000D02*
X11115000Y1085000D01*
X11115000Y1115000D02*
X11085000Y1085000D01*
X11095000Y2815000D02*
X11125000Y2785000D01*
X11125000Y2815000D02*
X11095000Y2785000D01*
X11125000Y7115000D02*
X11155000Y7085000D01*
X11155000Y7115000D02*
X11125000Y7085000D01*
X11125000Y1615000D02*
X11155000Y1585000D01*
X11155000Y1615000D02*
X11125000Y1585000D01*
X11155000Y3055000D02*
X11185000Y3025000D01*
X11185000Y3055000D02*
X11155000Y3025000D01*
X11235000Y3055000D02*
X11265000Y3025000D01*
X11265000Y3055000D02*
X11235000Y3025000D01*
X11254664Y5385000D02*
X11284664Y5355000D01*
X11284664Y5385000D02*
X11254664Y5355000D01*
X11255000Y1615000D02*
X11285000Y1585000D01*
X11285000Y1615000D02*
X11255000Y1585000D01*
X11285000Y1115000D02*
X11315000Y1085000D01*
X11315000Y1115000D02*
X11285000Y1085000D01*
X11290000Y8105000D02*
X11320000Y8075000D01*
X11320000Y8105000D02*
X11290000Y8075000D01*
X11334132Y5375782D02*
X11364132Y5345782D01*
X11364132Y5375782D02*
X11334132Y5345782D01*
X11345000Y4995000D02*
X11375000Y4965000D01*
X11375000Y4995000D02*
X11345000Y4965000D01*
X11385664Y8105664D02*
X11415664Y8075664D01*
X11415664Y8105664D02*
X11385664Y8075664D01*
X11395000Y2785000D02*
X11425000Y2755000D01*
X11425000Y2785000D02*
X11395000Y2755000D01*
X11422660Y2504264D02*
X11452660Y2474264D01*
X11452660Y2504264D02*
X11422660Y2474264D01*
X11425000Y4085000D02*
X11455000Y4055000D01*
X11455000Y4085000D02*
X11425000Y4055000D01*
X11425000Y3975000D02*
X11455000Y3945000D01*
X11455000Y3975000D02*
X11425000Y3945000D01*
X11425000Y3865000D02*
X11455000Y3835000D01*
X11455000Y3865000D02*
X11425000Y3835000D01*
X11425000Y4995000D02*
X11455000Y4965000D01*
X11455000Y4995000D02*
X11425000Y4965000D01*
X11435962Y4334038D02*
X11465962Y4304038D01*
X11465962Y4334038D02*
X11435962Y4304038D01*
X11445000Y3615000D02*
X11475000Y3585000D01*
X11475000Y3615000D02*
X11445000Y3585000D01*
X11445000Y3535000D02*
X11475000Y3505000D01*
X11475000Y3535000D02*
X11445000Y3505000D01*
X11455000Y3345000D02*
X11485000Y3315000D01*
X11485000Y3345000D02*
X11455000Y3315000D01*
X11476924Y2775000D02*
X11506924Y2745000D01*
X11506924Y2775000D02*
X11476924Y2745000D01*
X11505000Y2515000D02*
X11535000Y2485000D01*
X11535000Y2515000D02*
X11505000Y2485000D01*
X11525000Y5005000D02*
X11555000Y4975000D01*
X11555000Y5005000D02*
X11525000Y4975000D01*
X11535000Y3775000D02*
X11565000Y3745000D01*
X11565000Y3775000D02*
X11535000Y3745000D01*
X11545000Y3565000D02*
X11575000Y3535000D01*
X11575000Y3565000D02*
X11545000Y3535000D01*
X11545000Y3475000D02*
X11575000Y3445000D01*
X11575000Y3475000D02*
X11545000Y3445000D01*
X11545000Y3305000D02*
X11575000Y3275000D01*
X11575000Y3305000D02*
X11545000Y3275000D01*
X11555000Y4405000D02*
X11585000Y4375000D01*
X11585000Y4405000D02*
X11555000Y4375000D01*
X11555000Y3995000D02*
X11585000Y3965000D01*
X11585000Y3995000D02*
X11555000Y3965000D01*
X11565000Y4265000D02*
X11595000Y4235000D01*
X11595000Y4265000D02*
X11565000Y4235000D01*
X11585000Y4605000D02*
X11615000Y4575000D01*
X11615000Y4605000D02*
X11585000Y4575000D01*
X11595000Y3235000D02*
X11625000Y3205000D01*
X11625000Y3235000D02*
X11595000Y3205000D01*
X11615000Y2075000D02*
X11645000Y2045000D01*
X11645000Y2075000D02*
X11615000Y2045000D01*
X11645000Y5055000D02*
X11675000Y5025000D01*
X11675000Y5055000D02*
X11645000Y5025000D01*
X11725000Y2045000D02*
X11755000Y2015000D01*
X11755000Y2045000D02*
X11725000Y2015000D01*
X11765000Y5315000D02*
X11795000Y5285000D01*
X11795000Y5315000D02*
X11765000Y5285000D01*
X11895000Y4315000D02*
X11925000Y4285000D01*
X11925000Y4315000D02*
X11895000Y4285000D01*
X11905000Y3755000D02*
X11935000Y3725000D01*
X11935000Y3755000D02*
X11905000Y3725000D01*
X11905000Y3170000D02*
X11935000Y3140000D01*
X11935000Y3170000D02*
X11905000Y3140000D01*
X11915000Y4575000D02*
X11945000Y4545000D01*
X11945000Y4575000D02*
X11915000Y4545000D01*
X12005000Y6725000D02*
X12035000Y6695000D01*
X12035000Y6725000D02*
X12005000Y6695000D01*
X12085000Y3320000D02*
X12115000Y3290000D01*
X12115000Y3320000D02*
X12085000Y3290000D01*
X12155000Y3105000D02*
X12185000Y3075000D01*
X12185000Y3105000D02*
X12155000Y3075000D01*
X12175000Y4185000D02*
X12205000Y4155000D01*
X12205000Y4185000D02*
X12175000Y4155000D01*
X12195000Y7375000D02*
X12225000Y7345000D01*
X12225000Y7375000D02*
X12195000Y7345000D01*
X12235000Y4875000D02*
X12265000Y4845000D01*
X12265000Y4875000D02*
X12235000Y4845000D01*
X12265000Y4155000D02*
X12295000Y4125000D01*
X12295000Y4155000D02*
X12265000Y4125000D01*
X12285000Y7115000D02*
X12315000Y7085000D01*
X12315000Y7115000D02*
X12285000Y7085000D01*
X12325000Y5585000D02*
X12355000Y5555000D01*
X12355000Y5585000D02*
X12325000Y5555000D01*
X12345000Y4795000D02*
X12375000Y4765000D01*
X12375000Y4795000D02*
X12345000Y4765000D01*
X12345000Y4705000D02*
X12375000Y4675000D01*
X12375000Y4705000D02*
X12345000Y4675000D01*
X12445000Y5915000D02*
X12475000Y5885000D01*
X12475000Y5915000D02*
X12445000Y5885000D01*
X12535000Y7325000D02*
X12565000Y7295000D01*
X12565000Y7325000D02*
X12535000Y7295000D01*
X12535000Y7115000D02*
X12565000Y7085000D01*
X12565000Y7115000D02*
X12535000Y7085000D01*
X12785000Y7325000D02*
X12815000Y7295000D01*
X12815000Y7325000D02*
X12785000Y7295000D01*
X12785000Y7115000D02*
X12815000Y7085000D01*
X12815000Y7115000D02*
X12785000Y7085000D01*
X12875000Y7255000D02*
X12905000Y7225000D01*
X12905000Y7255000D02*
X12875000Y7225000D01*
X12945000Y7375000D02*
X12975000Y7345000D01*
X12975000Y7375000D02*
X12945000Y7345000D01*
X13015000Y5565000D02*
X13045000Y5535000D01*
X13045000Y5565000D02*
X13015000Y5535000D01*
X13025000Y5375000D02*
X13055000Y5345000D01*
X13055000Y5375000D02*
X13025000Y5345000D01*
X13035000Y7325000D02*
X13065000Y7295000D01*
X13065000Y7325000D02*
X13035000Y7295000D01*
X13105000Y7245000D02*
X13135000Y7215000D01*
X13135000Y7245000D02*
X13105000Y7215000D01*
X13105000Y7105000D02*
X13135000Y7075000D01*
X13135000Y7105000D02*
X13105000Y7075000D01*
X13145000Y5675000D02*
X13175000Y5645000D01*
X13175000Y5675000D02*
X13145000Y5645000D01*
X13190000Y7415000D02*
X13220000Y7385000D01*
X13220000Y7415000D02*
X13190000Y7385000D01*
X13285000Y7325000D02*
X13315000Y7295000D01*
X13315000Y7325000D02*
X13285000Y7295000D01*
X13285000Y7105000D02*
X13315000Y7075000D01*
X13315000Y7105000D02*
X13285000Y7075000D01*
X13345000Y5035000D02*
X13375000Y5005000D01*
X13375000Y5035000D02*
X13345000Y5005000D01*
X13365000Y5215000D02*
X13395000Y5185000D01*
X13395000Y5215000D02*
X13365000Y5185000D01*
X13365000Y5128186D02*
X13395000Y5098186D01*
X13395000Y5128186D02*
X13365000Y5098186D01*
X13365000Y4845000D02*
X13395000Y4815000D01*
X13395000Y4845000D02*
X13365000Y4815000D01*
X13366169Y7215432D02*
X13396169Y7185432D01*
X13396169Y7215432D02*
X13366169Y7185432D01*
X13395000Y5995000D02*
X13425000Y5965000D01*
X13425000Y5995000D02*
X13395000Y5965000D01*
X13410000Y4630000D02*
X13440000Y4600000D01*
X13440000Y4630000D02*
X13410000Y4600000D01*
X13445000Y7395000D02*
X13475000Y7365000D01*
X13475000Y7395000D02*
X13445000Y7365000D01*
X13495000Y1490000D02*
X13525000Y1460000D01*
X13525000Y1490000D02*
X13495000Y1460000D01*
X13535000Y7325000D02*
X13565000Y7295000D01*
X13565000Y7325000D02*
X13535000Y7295000D01*
X13535000Y4715000D02*
X13565000Y4685000D01*
X13565000Y4715000D02*
X13535000Y4685000D01*
X13555000Y4625000D02*
X13585000Y4595000D01*
X13585000Y4625000D02*
X13555000Y4595000D01*
X13605000Y7115000D02*
X13635000Y7085000D01*
X13635000Y7115000D02*
X13605000Y7085000D01*
X13605000Y5015000D02*
X13635000Y4985000D01*
X13635000Y5015000D02*
X13605000Y4985000D01*
X13635000Y7305000D02*
X13665000Y7275000D01*
X13665000Y7305000D02*
X13635000Y7275000D01*
X13655000Y4635000D02*
X13685000Y4605000D01*
X13685000Y4635000D02*
X13655000Y4605000D01*
X13685000Y5095000D02*
X13715000Y5065000D01*
X13715000Y5095000D02*
X13685000Y5065000D01*
X13685000Y5015000D02*
X13715000Y4985000D01*
X13715000Y5015000D02*
X13685000Y4985000D01*
X13685000Y4945000D02*
X13715000Y4915000D01*
X13715000Y4945000D02*
X13685000Y4915000D01*
X13689336Y5349336D02*
X13719336Y5319336D01*
X13719336Y5349336D02*
X13689336Y5319336D01*
X13735000Y4645000D02*
X13765000Y4615000D01*
X13765000Y4645000D02*
X13735000Y4615000D01*
X13765000Y5015000D02*
X13795000Y4985000D01*
X13795000Y5015000D02*
X13765000Y4985000D01*
X13785000Y7325000D02*
X13815000Y7295000D01*
X13815000Y7325000D02*
X13785000Y7295000D01*
X13785000Y7115000D02*
X13815000Y7085000D01*
X13815000Y7115000D02*
X13785000Y7085000D01*
X13785000Y5335000D02*
X13815000Y5305000D01*
X13815000Y5335000D02*
X13785000Y5305000D01*
X13805000Y4705000D02*
X13835000Y4675000D01*
X13835000Y4705000D02*
X13805000Y4675000D01*
X13925000Y5245000D02*
X13955000Y5215000D01*
X13955000Y5245000D02*
X13925000Y5215000D01*
X13935000Y4745000D02*
X13965000Y4715000D01*
X13965000Y4745000D02*
X13935000Y4715000D01*
X13935000Y2515000D02*
X13965000Y2485000D01*
X13965000Y2515000D02*
X13935000Y2485000D01*
X13973125Y4863125D02*
X14003125Y4833125D01*
X14003125Y4863125D02*
X13973125Y4833125D01*
X14035000Y2515000D02*
X14065000Y2485000D01*
X14065000Y2515000D02*
X14035000Y2485000D01*
X14165000Y3685000D02*
X14195000Y3655000D01*
X14195000Y3685000D02*
X14165000Y3655000D01*
X14175000Y7565000D02*
X14205000Y7535000D01*
X14205000Y7565000D02*
X14175000Y7535000D01*
X14215000Y5505000D02*
X14245000Y5475000D01*
X14245000Y5505000D02*
X14215000Y5475000D01*
X14285000Y2415000D02*
X14315000Y2385000D01*
X14315000Y2415000D02*
X14285000Y2385000D01*
X14415000Y5615000D02*
X14445000Y5585000D01*
X14445000Y5615000D02*
X14415000Y5585000D01*
X14485000Y3315000D02*
X14515000Y3285000D01*
X14515000Y3315000D02*
X14485000Y3285000D01*
X14485000Y2925000D02*
X14515000Y2895000D01*
X14515000Y2925000D02*
X14485000Y2895000D01*
X14585000Y7595000D02*
X14615000Y7565000D01*
X14615000Y7595000D02*
X14585000Y7565000D01*
X14635000Y5256250D02*
X14665000Y5226250D01*
X14665000Y5256250D02*
X14635000Y5226250D01*
X14735000Y5965000D02*
X14765000Y5935000D01*
X14765000Y5965000D02*
X14735000Y5935000D01*
X14735000Y4565000D02*
X14765000Y4535000D01*
X14765000Y4565000D02*
X14735000Y4535000D01*
X14765000Y7665000D02*
X14795000Y7635000D01*
X14795000Y7665000D02*
X14765000Y7635000D01*
X14826109Y3343891D02*
X14856109Y3313891D01*
X14856109Y3343891D02*
X14826109Y3313891D01*
X14903891Y3266109D02*
X14933891Y3236109D01*
X14933891Y3266109D02*
X14903891Y3236109D01*
X14985000Y5365000D02*
X15015000Y5335000D01*
X15015000Y5365000D02*
X14985000Y5335000D01*
X14985000Y5165000D02*
X15015000Y5135000D01*
X15015000Y5165000D02*
X14985000Y5135000D01*
X14985000Y4365000D02*
X15015000Y4335000D01*
X15015000Y4365000D02*
X14985000Y4335000D01*
X15185000Y4365000D02*
X15215000Y4335000D01*
X15215000Y4365000D02*
X15185000Y4335000D01*
X15605000Y1585000D02*
X15635000Y1555000D01*
X15635000Y1585000D02*
X15605000Y1555000D01*
X15605000Y1505000D02*
X15635000Y1475000D01*
X15635000Y1505000D02*
X15605000Y1475000D01*
X15675000Y1645000D02*
X15705000Y1615000D01*
X15705000Y1645000D02*
X15675000Y1615000D01*
X15715000Y1735000D02*
X15745000Y1705000D01*
X15745000Y1735000D02*
X15715000Y1705000D01*
X15995000Y2765000D02*
X16025000Y2735000D01*
X16025000Y2765000D02*
X15995000Y2735000D01*
X16085000Y6202300D02*
X16115000Y6172300D01*
X16115000Y6202300D02*
X16085000Y6172300D01*
X16375000Y2405000D02*
X16405000Y2375000D01*
X16405000Y2405000D02*
X16375000Y2375000D01*
X16435000Y2865000D02*
X16465000Y2835000D01*
X16465000Y2865000D02*
X16435000Y2835000D01*
X16455000Y2630000D02*
X16485000Y2600000D01*
X16485000Y2630000D02*
X16455000Y2600000D01*
X16455000Y2520000D02*
X16485000Y2490000D01*
X16485000Y2520000D02*
X16455000Y2490000D01*
X16475000Y2380000D02*
X16505000Y2350000D01*
X16505000Y2380000D02*
X16475000Y2350000D01*
X16475000Y2295000D02*
X16505000Y2265000D01*
X16505000Y2295000D02*
X16475000Y2265000D01*
X16475000Y2215000D02*
X16505000Y2185000D01*
X16505000Y2215000D02*
X16475000Y2185000D01*
X16485000Y2135000D02*
X16515000Y2105000D01*
X16515000Y2135000D02*
X16485000Y2105000D01*
X16485000Y2055000D02*
X16515000Y2025000D01*
X16515000Y2055000D02*
X16485000Y2025000D01*
X16485000Y1975000D02*
X16515000Y1945000D01*
X16515000Y1975000D02*
X16485000Y1945000D01*
X16485000Y1895000D02*
X16515000Y1865000D01*
X16515000Y1895000D02*
X16485000Y1865000D01*
X16495000Y1815000D02*
X16525000Y1785000D01*
X16525000Y1815000D02*
X16495000Y1785000D01*
X16495000Y1735000D02*
X16525000Y1705000D01*
X16525000Y1735000D02*
X16495000Y1705000D01*
X16495000Y1655000D02*
X16525000Y1625000D01*
X16525000Y1655000D02*
X16495000Y1625000D01*
X16495000Y1575000D02*
X16525000Y1545000D01*
X16525000Y1575000D02*
X16495000Y1545000D01*
X16495000Y1495000D02*
X16525000Y1465000D01*
X16525000Y1495000D02*
X16495000Y1465000D01*
X16495000Y1415000D02*
X16525000Y1385000D01*
X16525000Y1415000D02*
X16495000Y1385000D01*
X16495000Y1335000D02*
X16525000Y1305000D01*
X16525000Y1335000D02*
X16495000Y1305000D01*
X16535000Y1165000D02*
X16565000Y1135000D01*
X16565000Y1165000D02*
X16535000Y1135000D01*
X16635000Y6415000D02*
X16665000Y6385000D01*
X16665000Y6415000D02*
X16635000Y6385000D01*
X16635000Y1165000D02*
X16665000Y1135000D01*
X16665000Y1165000D02*
X16635000Y1135000D01*
X16685000Y2915000D02*
X16715000Y2885000D01*
X16715000Y2915000D02*
X16685000Y2885000D01*
X440000Y2350000D02*
G75*
G02*
X400000Y2350000I-20000J0D01*
G01*
X400000Y2350000D02*
G75*
G02*
X440000Y2350000I20000J0D01*
G01*
X620000Y900000D02*
G75*
G02*
X580000Y900000I-20000J0D01*
G01*
X580000Y900000D02*
G75*
G02*
X620000Y900000I20000J0D01*
G01*
X620000Y500000D02*
G75*
G02*
X580000Y500000I-20000J0D01*
G01*
X580000Y500000D02*
G75*
G02*
X620000Y500000I20000J0D01*
G01*
X820000Y700000D02*
G75*
G02*
X780000Y700000I-20000J0D01*
G01*
X780000Y700000D02*
G75*
G02*
X820000Y700000I20000J0D01*
G01*
X920000Y1730000D02*
G75*
G02*
X880000Y1730000I-20000J0D01*
G01*
X880000Y1730000D02*
G75*
G02*
X920000Y1730000I20000J0D01*
G01*
X920000Y1500000D02*
G75*
G02*
X880000Y1500000I-20000J0D01*
G01*
X880000Y1500000D02*
G75*
G02*
X920000Y1500000I20000J0D01*
G01*
X920000Y1300000D02*
G75*
G02*
X880000Y1300000I-20000J0D01*
G01*
X880000Y1300000D02*
G75*
G02*
X920000Y1300000I20000J0D01*
G01*
X1020000Y900000D02*
G75*
G02*
X980000Y900000I-20000J0D01*
G01*
X980000Y900000D02*
G75*
G02*
X1020000Y900000I20000J0D01*
G01*
X1020000Y500000D02*
G75*
G02*
X980000Y500000I-20000J0D01*
G01*
X980000Y500000D02*
G75*
G02*
X1020000Y500000I20000J0D01*
G01*
X1080000Y7880000D02*
G75*
G02*
X1040000Y7880000I-20000J0D01*
G01*
X1040000Y7880000D02*
G75*
G02*
X1080000Y7880000I20000J0D01*
G01*
X1220000Y700000D02*
G75*
G02*
X1180000Y700000I-20000J0D01*
G01*
X1180000Y700000D02*
G75*
G02*
X1220000Y700000I20000J0D01*
G01*
X1420000Y500000D02*
G75*
G02*
X1380000Y500000I-20000J0D01*
G01*
X1380000Y500000D02*
G75*
G02*
X1420000Y500000I20000J0D01*
G01*
X2020000Y2400000D02*
G75*
G02*
X1980000Y2400000I-20000J0D01*
G01*
X1980000Y2400000D02*
G75*
G02*
X2020000Y2400000I20000J0D01*
G01*
X2220000Y2200000D02*
G75*
G02*
X2180000Y2200000I-20000J0D01*
G01*
X2180000Y2200000D02*
G75*
G02*
X2220000Y2200000I20000J0D01*
G01*
X2220000Y1800000D02*
G75*
G02*
X2180000Y1800000I-20000J0D01*
G01*
X2180000Y1800000D02*
G75*
G02*
X2220000Y1800000I20000J0D01*
G01*
X2420000Y2400000D02*
G75*
G02*
X2380000Y2400000I-20000J0D01*
G01*
X2380000Y2400000D02*
G75*
G02*
X2420000Y2400000I20000J0D01*
G01*
X2420000Y2000000D02*
G75*
G02*
X2380000Y2000000I-20000J0D01*
G01*
X2380000Y2000000D02*
G75*
G02*
X2420000Y2000000I20000J0D01*
G01*
X2520000Y8400000D02*
G75*
G02*
X2480000Y8400000I-20000J0D01*
G01*
X2480000Y8400000D02*
G75*
G02*
X2520000Y8400000I20000J0D01*
G01*
X2620000Y2200000D02*
G75*
G02*
X2580000Y2200000I-20000J0D01*
G01*
X2580000Y2200000D02*
G75*
G02*
X2620000Y2200000I20000J0D01*
G01*
X2620000Y1800000D02*
G75*
G02*
X2580000Y1800000I-20000J0D01*
G01*
X2580000Y1800000D02*
G75*
G02*
X2620000Y1800000I20000J0D01*
G01*
X2620000Y1400000D02*
G75*
G02*
X2580000Y1400000I-20000J0D01*
G01*
X2580000Y1400000D02*
G75*
G02*
X2620000Y1400000I20000J0D01*
G01*
X2720000Y8400000D02*
G75*
G02*
X2680000Y8400000I-20000J0D01*
G01*
X2680000Y8400000D02*
G75*
G02*
X2720000Y8400000I20000J0D01*
G01*
X2920000Y8400000D02*
G75*
G02*
X2880000Y8400000I-20000J0D01*
G01*
X2880000Y8400000D02*
G75*
G02*
X2920000Y8400000I20000J0D01*
G01*
X2940000Y8700000D02*
G75*
G02*
X2900000Y8700000I-20000J0D01*
G01*
X2900000Y8700000D02*
G75*
G02*
X2940000Y8700000I20000J0D01*
G01*
X3080000Y3995000D02*
G75*
G02*
X3040000Y3995000I-20000J0D01*
G01*
X3040000Y3995000D02*
G75*
G02*
X3080000Y3995000I20000J0D01*
G01*
X3520000Y8400000D02*
G75*
G02*
X3480000Y8400000I-20000J0D01*
G01*
X3480000Y8400000D02*
G75*
G02*
X3520000Y8400000I20000J0D01*
G01*
X3550000Y8700000D02*
G75*
G02*
X3510000Y8700000I-20000J0D01*
G01*
X3510000Y8700000D02*
G75*
G02*
X3550000Y8700000I20000J0D01*
G01*
X4220000Y8700000D02*
G75*
G02*
X4180000Y8700000I-20000J0D01*
G01*
X4180000Y8700000D02*
G75*
G02*
X4220000Y8700000I20000J0D01*
G01*
X5350000Y3995000D02*
G75*
G02*
X5310000Y3995000I-20000J0D01*
G01*
X5310000Y3995000D02*
G75*
G02*
X5350000Y3995000I20000J0D01*
G01*
X6420000Y5900000D02*
G75*
G02*
X6380000Y5900000I-20000J0D01*
G01*
X6380000Y5900000D02*
G75*
G02*
X6420000Y5900000I20000J0D01*
G01*
X6720000Y5900000D02*
G75*
G02*
X6680000Y5900000I-20000J0D01*
G01*
X6680000Y5900000D02*
G75*
G02*
X6720000Y5900000I20000J0D01*
G01*
X7020000Y5900000D02*
G75*
G02*
X6980000Y5900000I-20000J0D01*
G01*
X6980000Y5900000D02*
G75*
G02*
X7020000Y5900000I20000J0D01*
G01*
X7320000Y5900000D02*
G75*
G02*
X7280000Y5900000I-20000J0D01*
G01*
X7280000Y5900000D02*
G75*
G02*
X7320000Y5900000I20000J0D01*
G01*
X7590000Y6500000D02*
G75*
G02*
X7550000Y6500000I-20000J0D01*
G01*
X7550000Y6500000D02*
G75*
G02*
X7590000Y6500000I20000J0D01*
G01*
X7820000Y6500000D02*
G75*
G02*
X7780000Y6500000I-20000J0D01*
G01*
X7780000Y6500000D02*
G75*
G02*
X7820000Y6500000I20000J0D01*
G01*
X7820000Y5900000D02*
G75*
G02*
X7780000Y5900000I-20000J0D01*
G01*
X7780000Y5900000D02*
G75*
G02*
X7820000Y5900000I20000J0D01*
G01*
X7820000Y5700000D02*
G75*
G02*
X7780000Y5700000I-20000J0D01*
G01*
X7780000Y5700000D02*
G75*
G02*
X7820000Y5700000I20000J0D01*
G01*
X8020000Y6500000D02*
G75*
G02*
X7980000Y6500000I-20000J0D01*
G01*
X7980000Y6500000D02*
G75*
G02*
X8020000Y6500000I20000J0D01*
G01*
X8120000Y5900000D02*
G75*
G02*
X8080000Y5900000I-20000J0D01*
G01*
X8080000Y5900000D02*
G75*
G02*
X8120000Y5900000I20000J0D01*
G01*
X8120000Y5700000D02*
G75*
G02*
X8080000Y5700000I-20000J0D01*
G01*
X8080000Y5700000D02*
G75*
G02*
X8120000Y5700000I20000J0D01*
G01*
X9090000Y5710000D02*
G75*
G02*
X9050000Y5710000I-20000J0D01*
G01*
X9050000Y5710000D02*
G75*
G02*
X9090000Y5710000I20000J0D01*
G01*
X10610000Y3675000D02*
G75*
G02*
X10570000Y3675000I-20000J0D01*
G01*
X10570000Y3675000D02*
G75*
G02*
X10610000Y3675000I20000J0D01*
G01*
X10795000Y5605000D02*
G75*
G02*
X10755000Y5605000I-20000J0D01*
G01*
X10755000Y5605000D02*
G75*
G02*
X10795000Y5605000I20000J0D01*
G01*
X11530000Y5610000D02*
G75*
G02*
X11490000Y5610000I-20000J0D01*
G01*
X11490000Y5610000D02*
G75*
G02*
X11530000Y5610000I20000J0D01*
G01*
X12970000Y5270000D02*
G75*
G02*
X12930000Y5270000I-20000J0D01*
G01*
X12930000Y5270000D02*
G75*
G02*
X12970000Y5270000I20000J0D01*
G01*
X13330000Y6720000D02*
G75*
G02*
X13290000Y6720000I-20000J0D01*
G01*
X13290000Y6720000D02*
G75*
G02*
X13330000Y6720000I20000J0D01*
G01*
X13890000Y6970000D02*
G75*
G02*
X13850000Y6970000I-20000J0D01*
G01*
X13850000Y6970000D02*
G75*
G02*
X13890000Y6970000I20000J0D01*
G01*
X14270000Y7120000D02*
G75*
G02*
X14230000Y7120000I-20000J0D01*
G01*
X14230000Y7120000D02*
G75*
G02*
X14270000Y7120000I20000J0D01*
G01*
X14270000Y4550000D02*
G75*
G02*
X14230000Y4550000I-20000J0D01*
G01*
X14230000Y4550000D02*
G75*
G02*
X14270000Y4550000I20000J0D01*
G01*
X14270000Y4350000D02*
G75*
G02*
X14230000Y4350000I-20000J0D01*
G01*
X14230000Y4350000D02*
G75*
G02*
X14270000Y4350000I20000J0D01*
G01*
X14270000Y4150000D02*
G75*
G02*
X14230000Y4150000I-20000J0D01*
G01*
X14230000Y4150000D02*
G75*
G02*
X14270000Y4150000I20000J0D01*
G01*
X14270000Y3950000D02*
G75*
G02*
X14230000Y3950000I-20000J0D01*
G01*
X14230000Y3950000D02*
G75*
G02*
X14270000Y3950000I20000J0D01*
G01*
X14520000Y7120000D02*
G75*
G02*
X14480000Y7120000I-20000J0D01*
G01*
X14480000Y7120000D02*
G75*
G02*
X14520000Y7120000I20000J0D01*
G01*
X16020000Y5150000D02*
G75*
G02*
X15980000Y5150000I-20000J0D01*
G01*
X15980000Y5150000D02*
G75*
G02*
X16020000Y5150000I20000J0D01*
G01*
X16020000Y4950000D02*
G75*
G02*
X15980000Y4950000I-20000J0D01*
G01*
X15980000Y4950000D02*
G75*
G02*
X16020000Y4950000I20000J0D01*
G01*
X16020000Y4750000D02*
G75*
G02*
X15980000Y4750000I-20000J0D01*
G01*
X15980000Y4750000D02*
G75*
G02*
X16020000Y4750000I20000J0D01*
G01*
X16270000Y5150000D02*
G75*
G02*
X16230000Y5150000I-20000J0D01*
G01*
X16230000Y5150000D02*
G75*
G02*
X16270000Y5150000I20000J0D01*
G01*
X16270000Y4950000D02*
G75*
G02*
X16230000Y4950000I-20000J0D01*
G01*
X16230000Y4950000D02*
G75*
G02*
X16270000Y4950000I20000J0D01*
G01*
X16270000Y4750000D02*
G75*
G02*
X16230000Y4750000I-20000J0D01*
G01*
X16230000Y4750000D02*
G75*
G02*
X16270000Y4750000I20000J0D01*
G01*
X9768000Y8737500D02*
X9768000Y8677500D01*
X9738000Y8707500D02*
X9798000Y8707500D01*
X9798000Y8667500D02*
X9798000Y8747500D01*
X9738000Y8747500D02*
G75*
G02*
X9798000Y8747500I30000J0D01*
G01*
X9738000Y8747500D02*
X9738000Y8667500D01*
X9738000Y8667500D02*
G75*
G03*
X9798000Y8667500I30000J0D01*
G01*
X9768000Y8319500D02*
X9768000Y8259500D01*
X9738000Y8289500D02*
X9798000Y8289500D01*
X9798000Y8234500D02*
X9798000Y8344500D01*
X9738000Y8344500D02*
G75*
G02*
X9798000Y8344500I30000J0D01*
G01*
X9738000Y8344500D02*
X9738000Y8234500D01*
X9738000Y8234500D02*
G75*
G03*
X9798000Y8234500I30000J0D01*
G01*
X10632000Y8737500D02*
X10632000Y8677500D01*
X10602000Y8707500D02*
X10662000Y8707500D01*
X10662000Y8667500D02*
X10662000Y8747500D01*
X10602000Y8747500D02*
G75*
G02*
X10662000Y8747500I30000J0D01*
G01*
X10602000Y8747500D02*
X10602000Y8667500D01*
X10602000Y8667500D02*
G75*
G03*
X10662000Y8667500I30000J0D01*
G01*
X10632000Y8319500D02*
X10632000Y8259500D01*
X10602000Y8289500D02*
X10662000Y8289500D01*
X10662000Y8234500D02*
X10662000Y8344500D01*
X10602000Y8344500D02*
G75*
G02*
X10662000Y8344500I30000J0D01*
G01*
X10602000Y8344500D02*
X10602000Y8234500D01*
X10602000Y8234500D02*
G75*
G03*
X10662000Y8234500I30000J0D01*
G01*
X10868000Y8737500D02*
X10868000Y8677500D01*
X10838000Y8707500D02*
X10898000Y8707500D01*
X10898000Y8667500D02*
X10898000Y8747500D01*
X10838000Y8747500D02*
G75*
G02*
X10898000Y8747500I30000J0D01*
G01*
X10838000Y8747500D02*
X10838000Y8667500D01*
X10838000Y8667500D02*
G75*
G03*
X10898000Y8667500I30000J0D01*
G01*
X10868000Y8319500D02*
X10868000Y8259500D01*
X10838000Y8289500D02*
X10898000Y8289500D01*
X10898000Y8234500D02*
X10898000Y8344500D01*
X10838000Y8344500D02*
G75*
G02*
X10898000Y8344500I30000J0D01*
G01*
X10838000Y8344500D02*
X10838000Y8234500D01*
X10838000Y8234500D02*
G75*
G03*
X10898000Y8234500I30000J0D01*
G01*
X11732000Y8737500D02*
X11732000Y8677500D01*
X11702000Y8707500D02*
X11762000Y8707500D01*
X11762000Y8667500D02*
X11762000Y8747500D01*
X11702000Y8747500D02*
G75*
G02*
X11762000Y8747500I30000J0D01*
G01*
X11702000Y8747500D02*
X11702000Y8667500D01*
X11702000Y8667500D02*
G75*
G03*
X11762000Y8667500I30000J0D01*
G01*
X11732000Y8319500D02*
X11732000Y8259500D01*
X11702000Y8289500D02*
X11762000Y8289500D01*
X11762000Y8234500D02*
X11762000Y8344500D01*
X11702000Y8344500D02*
G75*
G02*
X11762000Y8344500I30000J0D01*
G01*
X11702000Y8344500D02*
X11702000Y8234500D01*
X11702000Y8234500D02*
G75*
G03*
X11762000Y8234500I30000J0D01*
G01*
X15244820Y5312130D02*
X15244820Y5375770D01*
X15181180Y5375770D01*
X15181180Y5312130D01*
X15244820Y5312130D01*
X15244820Y5058130D02*
X15244820Y5121770D01*
X15181180Y5121770D01*
X15181180Y5058130D01*
X15244820Y5058130D01*
X15244820Y4804130D02*
X15244820Y4867770D01*
X15181180Y4867770D01*
X15181180Y4804130D01*
X15244820Y4804130D01*
X15244820Y4550130D02*
X15244820Y4613770D01*
X15181180Y4613770D01*
X15181180Y4550130D01*
X15244820Y4550130D01*
X15498820Y5185130D02*
X15498820Y5248770D01*
X15435180Y5248770D01*
X15435180Y5185130D01*
X15498820Y5185130D01*
X15498820Y4931130D02*
X15498820Y4994770D01*
X15435180Y4994770D01*
X15435180Y4931130D01*
X15498820Y4931130D01*
X15498820Y4677130D02*
X15498820Y4740770D01*
X15435180Y4740770D01*
X15435180Y4677130D01*
X15498820Y4677130D01*
X15498820Y4423130D02*
X15498820Y4486770D01*
X15435180Y4486770D01*
X15435180Y4423130D01*
X15498820Y4423130D01*
X16544820Y5500630D02*
X16544820Y5564270D01*
X16481180Y5564270D01*
X16481180Y5500630D01*
X16544820Y5500630D01*
X16544820Y5246630D02*
X16544820Y5310270D01*
X16481180Y5310270D01*
X16481180Y5246630D01*
X16544820Y5246630D01*
X16544820Y4489630D02*
X16544820Y4553270D01*
X16481180Y4553270D01*
X16481180Y4489630D01*
X16544820Y4489630D01*
X16544820Y4235630D02*
X16544820Y4299270D01*
X16481180Y4299270D01*
X16481180Y4235630D01*
X16544820Y4235630D01*
X10592000Y400000D02*
X10642000Y450000D01*
X10592000Y500000D01*
X10542000Y450000D01*
X10592000Y400000D01*
X10846000Y400000D02*
X10896000Y450000D01*
X10846000Y500000D01*
X10796000Y450000D01*
X10846000Y400000D01*
X11100000Y400000D02*
X11150000Y450000D01*
X11100000Y500000D01*
X11050000Y450000D01*
X11100000Y400000D01*
X11354000Y400000D02*
X11404000Y450000D01*
X11354000Y500000D01*
X11304000Y450000D01*
X11354000Y400000D01*
X11608000Y400000D02*
X11658000Y450000D01*
X11608000Y500000D01*
X11558000Y450000D01*
X11608000Y400000D01*
X12059500Y7904000D02*
X12109500Y7954000D01*
X12059500Y8004000D01*
X12009500Y7954000D01*
X12059500Y7904000D01*
X12059500Y7650000D02*
X12109500Y7700000D01*
X12059500Y7750000D01*
X12009500Y7700000D01*
X12059500Y7650000D01*
X12313500Y7904000D02*
X12363500Y7954000D01*
X12313500Y8004000D01*
X12263500Y7954000D01*
X12313500Y7904000D01*
X12313500Y7650000D02*
X12363500Y7700000D01*
X12313500Y7750000D01*
X12263500Y7700000D01*
X12313500Y7650000D01*
X12567500Y7904000D02*
X12617500Y7954000D01*
X12567500Y8004000D01*
X12517500Y7954000D01*
X12567500Y7904000D01*
X12567500Y7650000D02*
X12617500Y7700000D01*
X12567500Y7750000D01*
X12517500Y7700000D01*
X12567500Y7650000D01*
X12821500Y7904000D02*
X12871500Y7954000D01*
X12821500Y8004000D01*
X12771500Y7954000D01*
X12821500Y7904000D01*
X12821500Y7650000D02*
X12871500Y7700000D01*
X12821500Y7750000D01*
X12771500Y7700000D01*
X12821500Y7650000D01*
X13075500Y7904000D02*
X13125500Y7954000D01*
X13075500Y8004000D01*
X13025500Y7954000D01*
X13075500Y7904000D01*
X13075500Y7650000D02*
X13125500Y7700000D01*
X13075500Y7750000D01*
X13025500Y7700000D01*
X13075500Y7650000D01*
X13329500Y7904000D02*
X13379500Y7954000D01*
X13329500Y8004000D01*
X13279500Y7954000D01*
X13329500Y7904000D01*
X13329500Y7650000D02*
X13379500Y7700000D01*
X13329500Y7750000D01*
X13279500Y7700000D01*
X13329500Y7650000D01*
X13583500Y7904000D02*
X13633500Y7954000D01*
X13583500Y8004000D01*
X13533500Y7954000D01*
X13583500Y7904000D01*
X13583500Y7650000D02*
X13633500Y7700000D01*
X13583500Y7750000D01*
X13533500Y7700000D01*
X13583500Y7650000D01*
X13837500Y7904000D02*
X13887500Y7954000D01*
X13837500Y8004000D01*
X13787500Y7954000D01*
X13837500Y7904000D01*
X13837500Y7650000D02*
X13887500Y7700000D01*
X13837500Y7750000D01*
X13787500Y7700000D01*
X13837500Y7650000D01*
X14269000Y7900000D02*
X14319000Y7950000D01*
X14269000Y8000000D01*
X14219000Y7950000D01*
X14269000Y7900000D01*
X14523000Y7900000D02*
X14573000Y7950000D01*
X14523000Y8000000D01*
X14473000Y7950000D01*
X14523000Y7900000D01*
X14777000Y7900000D02*
X14827000Y7950000D01*
X14777000Y8000000D01*
X14727000Y7950000D01*
X14777000Y7900000D01*
X15031000Y7900000D02*
X15081000Y7950000D01*
X15031000Y8000000D01*
X14981000Y7950000D01*
X15031000Y7900000D01*
D12*
X15630500Y5776450D02*
X15793500Y5613450D01*
X15793500Y5776450D02*
X15630500Y5613450D01*
X15793500Y5694950D02*
G75*
G02*
X15630500Y5694950I-81500J0D01*
G01*
X15630500Y5694950D02*
G75*
G02*
X15793500Y5694950I81500J0D01*
G01*
X15630500Y4186450D02*
X15793500Y4023450D01*
X15793500Y4186450D02*
X15630500Y4023450D01*
X15793500Y4104950D02*
G75*
G02*
X15630500Y4104950I-81500J0D01*
G01*
X15630500Y4104950D02*
G75*
G02*
X15793500Y4104950I81500J0D01*
G01*
D10*
X250777Y-321484D02*
X250777Y-121484D01*
X250777Y-121484D02*
X298396Y-121484D01*
X298396Y-121484D02*
X326967Y-131008D01*
X326967Y-131008D02*
X346015Y-150055D01*
X346015Y-150055D02*
X355539Y-169103D01*
X355539Y-169103D02*
X365062Y-207198D01*
X365062Y-207198D02*
X365062Y-235769D01*
X365062Y-235769D02*
X355539Y-273865D01*
X355539Y-273865D02*
X346015Y-292912D01*
X346015Y-292912D02*
X326967Y-311960D01*
X326967Y-311960D02*
X298396Y-321484D01*
X298396Y-321484D02*
X250777Y-321484D01*
X450777Y-321484D02*
X450777Y-188150D01*
X450777Y-226246D02*
X460301Y-207198D01*
X460301Y-207198D02*
X469824Y-197674D01*
X469824Y-197674D02*
X488872Y-188150D01*
X488872Y-188150D02*
X507920Y-188150D01*
X574586Y-321484D02*
X574586Y-188150D01*
X574586Y-121484D02*
X565063Y-131008D01*
X565063Y-131008D02*
X574586Y-140531D01*
X574586Y-140531D02*
X584110Y-131008D01*
X584110Y-131008D02*
X574586Y-121484D01*
X574586Y-121484D02*
X574586Y-140531D01*
X698396Y-321484D02*
X679348Y-311960D01*
X679348Y-311960D02*
X669824Y-292912D01*
X669824Y-292912D02*
X669824Y-121484D01*
X803158Y-321484D02*
X784110Y-311960D01*
X784110Y-311960D02*
X774586Y-292912D01*
X774586Y-292912D02*
X774586Y-121484D01*
X1031729Y-321484D02*
X1031729Y-121484D01*
X1031729Y-121484D02*
X1098396Y-264341D01*
X1098396Y-264341D02*
X1165063Y-121484D01*
X1165063Y-121484D02*
X1165063Y-321484D01*
X1346015Y-321484D02*
X1346015Y-216722D01*
X1346015Y-216722D02*
X1336491Y-197674D01*
X1336491Y-197674D02*
X1317444Y-188150D01*
X1317444Y-188150D02*
X1279348Y-188150D01*
X1279348Y-188150D02*
X1260301Y-197674D01*
X1346015Y-311960D02*
X1326967Y-321484D01*
X1326967Y-321484D02*
X1279348Y-321484D01*
X1279348Y-321484D02*
X1260301Y-311960D01*
X1260301Y-311960D02*
X1250777Y-292912D01*
X1250777Y-292912D02*
X1250777Y-273865D01*
X1250777Y-273865D02*
X1260301Y-254817D01*
X1260301Y-254817D02*
X1279348Y-245293D01*
X1279348Y-245293D02*
X1326967Y-245293D01*
X1326967Y-245293D02*
X1346015Y-235769D01*
X1441253Y-188150D02*
X1441253Y-388150D01*
X1441253Y-197674D02*
X1460301Y-188150D01*
X1460301Y-188150D02*
X1498396Y-188150D01*
X1498396Y-188150D02*
X1517443Y-197674D01*
X1517443Y-197674D02*
X1526967Y-207198D01*
X1526967Y-207198D02*
X1536491Y-226246D01*
X1536491Y-226246D02*
X1536491Y-283389D01*
X1536491Y-283389D02*
X1526967Y-302436D01*
X1526967Y-302436D02*
X1517443Y-311960D01*
X1517443Y-311960D02*
X1498396Y-321484D01*
X1498396Y-321484D02*
X1460301Y-321484D01*
X1460301Y-321484D02*
X1441253Y-311960D01*
X1622205Y-302436D02*
X1631729Y-311960D01*
X1631729Y-311960D02*
X1622205Y-321484D01*
X1622205Y-321484D02*
X1612682Y-311960D01*
X1612682Y-311960D02*
X1622205Y-302436D01*
X1622205Y-302436D02*
X1622205Y-321484D01*
X1622205Y-197674D02*
X1631729Y-207198D01*
X1631729Y-207198D02*
X1622205Y-216722D01*
X1622205Y-216722D02*
X1612682Y-207198D01*
X1612682Y-207198D02*
X1622205Y-197674D01*
X1622205Y-197674D02*
X1622205Y-216722D01*
D11*
X-40000Y-635000D02*
X-10000Y-665000D01*
X-10000Y-635000D02*
X-40000Y-665000D01*
D10*
X288872Y-541484D02*
X307920Y-541484D01*
X307920Y-541484D02*
X326967Y-551008D01*
X326967Y-551008D02*
X336491Y-560531D01*
X336491Y-560531D02*
X346015Y-579579D01*
X346015Y-579579D02*
X355539Y-617674D01*
X355539Y-617674D02*
X355539Y-665293D01*
X355539Y-665293D02*
X346015Y-703388D01*
X346015Y-703388D02*
X336491Y-722436D01*
X336491Y-722436D02*
X326967Y-731960D01*
X326967Y-731960D02*
X307920Y-741484D01*
X307920Y-741484D02*
X288872Y-741484D01*
X288872Y-741484D02*
X269824Y-731960D01*
X269824Y-731960D02*
X260301Y-722436D01*
X260301Y-722436D02*
X250777Y-703388D01*
X250777Y-703388D02*
X241253Y-665293D01*
X241253Y-665293D02*
X241253Y-617674D01*
X241253Y-617674D02*
X250777Y-579579D01*
X250777Y-579579D02*
X260301Y-560531D01*
X260301Y-560531D02*
X269824Y-551008D01*
X269824Y-551008D02*
X288872Y-541484D01*
X441253Y-722436D02*
X450777Y-731960D01*
X450777Y-731960D02*
X441253Y-741484D01*
X441253Y-741484D02*
X431729Y-731960D01*
X431729Y-731960D02*
X441253Y-722436D01*
X441253Y-722436D02*
X441253Y-741484D01*
X517443Y-541484D02*
X641253Y-541484D01*
X641253Y-541484D02*
X574586Y-617674D01*
X574586Y-617674D02*
X603158Y-617674D01*
X603158Y-617674D02*
X622205Y-627198D01*
X622205Y-627198D02*
X631729Y-636722D01*
X631729Y-636722D02*
X641253Y-655770D01*
X641253Y-655770D02*
X641253Y-703388D01*
X641253Y-703388D02*
X631729Y-722436D01*
X631729Y-722436D02*
X622205Y-731960D01*
X622205Y-731960D02*
X603158Y-741484D01*
X603158Y-741484D02*
X546015Y-741484D01*
X546015Y-741484D02*
X526967Y-731960D01*
X526967Y-731960D02*
X517443Y-722436D01*
X765062Y-541484D02*
X784110Y-541484D01*
X784110Y-541484D02*
X803158Y-551008D01*
X803158Y-551008D02*
X812682Y-560531D01*
X812682Y-560531D02*
X822205Y-579579D01*
X822205Y-579579D02*
X831729Y-617674D01*
X831729Y-617674D02*
X831729Y-665293D01*
X831729Y-665293D02*
X822205Y-703388D01*
X822205Y-703388D02*
X812682Y-722436D01*
X812682Y-722436D02*
X803158Y-731960D01*
X803158Y-731960D02*
X784110Y-741484D01*
X784110Y-741484D02*
X765062Y-741484D01*
X765062Y-741484D02*
X746015Y-731960D01*
X746015Y-731960D02*
X736491Y-722436D01*
X736491Y-722436D02*
X726967Y-703388D01*
X726967Y-703388D02*
X717443Y-665293D01*
X717443Y-665293D02*
X717443Y-617674D01*
X717443Y-617674D02*
X726967Y-579579D01*
X726967Y-579579D02*
X736491Y-560531D01*
X736491Y-560531D02*
X746015Y-551008D01*
X746015Y-551008D02*
X765062Y-541484D01*
X955539Y-541484D02*
X974586Y-541484D01*
X974586Y-541484D02*
X993634Y-551008D01*
X993634Y-551008D02*
X1003158Y-560531D01*
X1003158Y-560531D02*
X1012682Y-579579D01*
X1012682Y-579579D02*
X1022205Y-617674D01*
X1022205Y-617674D02*
X1022205Y-665293D01*
X1022205Y-665293D02*
X1012682Y-703388D01*
X1012682Y-703388D02*
X1003158Y-722436D01*
X1003158Y-722436D02*
X993634Y-731960D01*
X993634Y-731960D02*
X974586Y-741484D01*
X974586Y-741484D02*
X955539Y-741484D01*
X955539Y-741484D02*
X936491Y-731960D01*
X936491Y-731960D02*
X926967Y-722436D01*
X926967Y-722436D02*
X917443Y-703388D01*
X917443Y-703388D02*
X907920Y-665293D01*
X907920Y-665293D02*
X907920Y-617674D01*
X907920Y-617674D02*
X917443Y-579579D01*
X917443Y-579579D02*
X926967Y-560531D01*
X926967Y-560531D02*
X936491Y-551008D01*
X936491Y-551008D02*
X955539Y-541484D01*
X1107920Y-741484D02*
X1107920Y-608150D01*
X1107920Y-627198D02*
X1117444Y-617674D01*
X1117444Y-617674D02*
X1136491Y-608150D01*
X1136491Y-608150D02*
X1165063Y-608150D01*
X1165063Y-608150D02*
X1184110Y-617674D01*
X1184110Y-617674D02*
X1193634Y-636722D01*
X1193634Y-636722D02*
X1193634Y-741484D01*
X1193634Y-636722D02*
X1203158Y-617674D01*
X1203158Y-617674D02*
X1222205Y-608150D01*
X1222205Y-608150D02*
X1250777Y-608150D01*
X1250777Y-608150D02*
X1269825Y-617674D01*
X1269825Y-617674D02*
X1279348Y-636722D01*
X1279348Y-636722D02*
X1279348Y-741484D01*
X1374586Y-741484D02*
X1374586Y-608150D01*
X1374586Y-627198D02*
X1384110Y-617674D01*
X1384110Y-617674D02*
X1403158Y-608150D01*
X1403158Y-608150D02*
X1431729Y-608150D01*
X1431729Y-608150D02*
X1450777Y-617674D01*
X1450777Y-617674D02*
X1460301Y-636722D01*
X1460301Y-636722D02*
X1460301Y-741484D01*
X1460301Y-636722D02*
X1469824Y-617674D01*
X1469824Y-617674D02*
X1488872Y-608150D01*
X1488872Y-608150D02*
X1517443Y-608150D01*
X1517443Y-608150D02*
X1536491Y-617674D01*
X1536491Y-617674D02*
X1546015Y-636722D01*
X1546015Y-636722D02*
X1546015Y-741484D01*
X1936491Y-531960D02*
X1765063Y-789103D01*
X2193634Y-541484D02*
X2212682Y-541484D01*
X2212682Y-541484D02*
X2231729Y-551008D01*
X2231729Y-551008D02*
X2241253Y-560531D01*
X2241253Y-560531D02*
X2250777Y-579579D01*
X2250777Y-579579D02*
X2260301Y-617674D01*
X2260301Y-617674D02*
X2260301Y-665293D01*
X2260301Y-665293D02*
X2250777Y-703388D01*
X2250777Y-703388D02*
X2241253Y-722436D01*
X2241253Y-722436D02*
X2231729Y-731960D01*
X2231729Y-731960D02*
X2212682Y-741484D01*
X2212682Y-741484D02*
X2193634Y-741484D01*
X2193634Y-741484D02*
X2174587Y-731960D01*
X2174587Y-731960D02*
X2165063Y-722436D01*
X2165063Y-722436D02*
X2155539Y-703388D01*
X2155539Y-703388D02*
X2146015Y-665293D01*
X2146015Y-665293D02*
X2146015Y-617674D01*
X2146015Y-617674D02*
X2155539Y-579579D01*
X2155539Y-579579D02*
X2165063Y-560531D01*
X2165063Y-560531D02*
X2174587Y-551008D01*
X2174587Y-551008D02*
X2193634Y-541484D01*
X2346015Y-722436D02*
X2355539Y-731960D01*
X2355539Y-731960D02*
X2346015Y-741484D01*
X2346015Y-741484D02*
X2336491Y-731960D01*
X2336491Y-731960D02*
X2346015Y-722436D01*
X2346015Y-722436D02*
X2346015Y-741484D01*
X2479348Y-541484D02*
X2498396Y-541484D01*
X2498396Y-541484D02*
X2517444Y-551008D01*
X2517444Y-551008D02*
X2526968Y-560531D01*
X2526968Y-560531D02*
X2536491Y-579579D01*
X2536491Y-579579D02*
X2546015Y-617674D01*
X2546015Y-617674D02*
X2546015Y-665293D01*
X2546015Y-665293D02*
X2536491Y-703388D01*
X2536491Y-703388D02*
X2526968Y-722436D01*
X2526968Y-722436D02*
X2517444Y-731960D01*
X2517444Y-731960D02*
X2498396Y-741484D01*
X2498396Y-741484D02*
X2479348Y-741484D01*
X2479348Y-741484D02*
X2460301Y-731960D01*
X2460301Y-731960D02*
X2450777Y-722436D01*
X2450777Y-722436D02*
X2441253Y-703388D01*
X2441253Y-703388D02*
X2431729Y-665293D01*
X2431729Y-665293D02*
X2431729Y-617674D01*
X2431729Y-617674D02*
X2441253Y-579579D01*
X2441253Y-579579D02*
X2450777Y-560531D01*
X2450777Y-560531D02*
X2460301Y-551008D01*
X2460301Y-551008D02*
X2479348Y-541484D01*
X2736491Y-741484D02*
X2622206Y-741484D01*
X2679348Y-741484D02*
X2679348Y-541484D01*
X2679348Y-541484D02*
X2660301Y-570055D01*
X2660301Y-570055D02*
X2641253Y-589103D01*
X2641253Y-589103D02*
X2622206Y-598627D01*
X2926967Y-741484D02*
X2812682Y-741484D01*
X2869825Y-741484D02*
X2869825Y-541484D01*
X2869825Y-541484D02*
X2850777Y-570055D01*
X2850777Y-570055D02*
X2831729Y-589103D01*
X2831729Y-589103D02*
X2812682Y-598627D01*
X3041253Y-627198D02*
X3022206Y-617674D01*
X3022206Y-617674D02*
X3012682Y-608150D01*
X3012682Y-608150D02*
X3003158Y-589103D01*
X3003158Y-589103D02*
X3003158Y-579579D01*
X3003158Y-579579D02*
X3012682Y-560531D01*
X3012682Y-560531D02*
X3022206Y-551008D01*
X3022206Y-551008D02*
X3041253Y-541484D01*
X3041253Y-541484D02*
X3079348Y-541484D01*
X3079348Y-541484D02*
X3098396Y-551008D01*
X3098396Y-551008D02*
X3107920Y-560531D01*
X3107920Y-560531D02*
X3117444Y-579579D01*
X3117444Y-579579D02*
X3117444Y-589103D01*
X3117444Y-589103D02*
X3107920Y-608150D01*
X3107920Y-608150D02*
X3098396Y-617674D01*
X3098396Y-617674D02*
X3079348Y-627198D01*
X3079348Y-627198D02*
X3041253Y-627198D01*
X3041253Y-627198D02*
X3022206Y-636722D01*
X3022206Y-636722D02*
X3012682Y-646246D01*
X3012682Y-646246D02*
X3003158Y-665293D01*
X3003158Y-665293D02*
X3003158Y-703388D01*
X3003158Y-703388D02*
X3012682Y-722436D01*
X3012682Y-722436D02*
X3022206Y-731960D01*
X3022206Y-731960D02*
X3041253Y-741484D01*
X3041253Y-741484D02*
X3079348Y-741484D01*
X3079348Y-741484D02*
X3098396Y-731960D01*
X3098396Y-731960D02*
X3107920Y-722436D01*
X3107920Y-722436D02*
X3117444Y-703388D01*
X3117444Y-703388D02*
X3117444Y-665293D01*
X3117444Y-665293D02*
X3107920Y-646246D01*
X3107920Y-646246D02*
X3098396Y-636722D01*
X3098396Y-636722D02*
X3079348Y-627198D01*
X3193634Y-541484D02*
X3193634Y-579579D01*
X3269825Y-541484D02*
X3269825Y-579579D01*
X3565063Y-817674D02*
X3555539Y-808150D01*
X3555539Y-808150D02*
X3536491Y-779579D01*
X3536491Y-779579D02*
X3526968Y-760531D01*
X3526968Y-760531D02*
X3517444Y-731960D01*
X3517444Y-731960D02*
X3507920Y-684341D01*
X3507920Y-684341D02*
X3507920Y-646246D01*
X3507920Y-646246D02*
X3517444Y-598627D01*
X3517444Y-598627D02*
X3526968Y-570055D01*
X3526968Y-570055D02*
X3536491Y-551008D01*
X3536491Y-551008D02*
X3555539Y-522436D01*
X3555539Y-522436D02*
X3565063Y-512912D01*
X3726968Y-608150D02*
X3726968Y-741484D01*
X3679348Y-531960D02*
X3631729Y-674817D01*
X3631729Y-674817D02*
X3755539Y-674817D01*
X3812682Y-541484D02*
X3936491Y-541484D01*
X3936491Y-541484D02*
X3869825Y-617674D01*
X3869825Y-617674D02*
X3898396Y-617674D01*
X3898396Y-617674D02*
X3917444Y-627198D01*
X3917444Y-627198D02*
X3926968Y-636722D01*
X3926968Y-636722D02*
X3936491Y-655770D01*
X3936491Y-655770D02*
X3936491Y-703388D01*
X3936491Y-703388D02*
X3926968Y-722436D01*
X3926968Y-722436D02*
X3917444Y-731960D01*
X3917444Y-731960D02*
X3898396Y-741484D01*
X3898396Y-741484D02*
X3841253Y-741484D01*
X3841253Y-741484D02*
X3822206Y-731960D01*
X3822206Y-731960D02*
X3812682Y-722436D01*
X4003158Y-541484D02*
X4126968Y-541484D01*
X4126968Y-541484D02*
X4060301Y-617674D01*
X4060301Y-617674D02*
X4088872Y-617674D01*
X4088872Y-617674D02*
X4107920Y-627198D01*
X4107920Y-627198D02*
X4117444Y-636722D01*
X4117444Y-636722D02*
X4126968Y-655770D01*
X4126968Y-655770D02*
X4126968Y-703388D01*
X4126968Y-703388D02*
X4117444Y-722436D01*
X4117444Y-722436D02*
X4107920Y-731960D01*
X4107920Y-731960D02*
X4088872Y-741484D01*
X4088872Y-741484D02*
X4031729Y-741484D01*
X4031729Y-741484D02*
X4012682Y-731960D01*
X4012682Y-731960D02*
X4003158Y-722436D01*
X4365063Y-741484D02*
X4365063Y-541484D01*
X4450777Y-741484D02*
X4450777Y-636722D01*
X4450777Y-636722D02*
X4441253Y-617674D01*
X4441253Y-617674D02*
X4422206Y-608150D01*
X4422206Y-608150D02*
X4393634Y-608150D01*
X4393634Y-608150D02*
X4374587Y-617674D01*
X4374587Y-617674D02*
X4365063Y-627198D01*
X4574587Y-741484D02*
X4555539Y-731960D01*
X4555539Y-731960D02*
X4546015Y-722436D01*
X4546015Y-722436D02*
X4536492Y-703388D01*
X4536492Y-703388D02*
X4536492Y-646246D01*
X4536492Y-646246D02*
X4546015Y-627198D01*
X4546015Y-627198D02*
X4555539Y-617674D01*
X4555539Y-617674D02*
X4574587Y-608150D01*
X4574587Y-608150D02*
X4603158Y-608150D01*
X4603158Y-608150D02*
X4622206Y-617674D01*
X4622206Y-617674D02*
X4631730Y-627198D01*
X4631730Y-627198D02*
X4641253Y-646246D01*
X4641253Y-646246D02*
X4641253Y-703388D01*
X4641253Y-703388D02*
X4631730Y-722436D01*
X4631730Y-722436D02*
X4622206Y-731960D01*
X4622206Y-731960D02*
X4603158Y-741484D01*
X4603158Y-741484D02*
X4574587Y-741484D01*
X4755539Y-741484D02*
X4736492Y-731960D01*
X4736492Y-731960D02*
X4726968Y-712912D01*
X4726968Y-712912D02*
X4726968Y-541484D01*
X4907920Y-731960D02*
X4888873Y-741484D01*
X4888873Y-741484D02*
X4850777Y-741484D01*
X4850777Y-741484D02*
X4831730Y-731960D01*
X4831730Y-731960D02*
X4822206Y-712912D01*
X4822206Y-712912D02*
X4822206Y-636722D01*
X4822206Y-636722D02*
X4831730Y-617674D01*
X4831730Y-617674D02*
X4850777Y-608150D01*
X4850777Y-608150D02*
X4888873Y-608150D01*
X4888873Y-608150D02*
X4907920Y-617674D01*
X4907920Y-617674D02*
X4917444Y-636722D01*
X4917444Y-636722D02*
X4917444Y-655770D01*
X4917444Y-655770D02*
X4822206Y-674817D01*
X4993634Y-731960D02*
X5012682Y-741484D01*
X5012682Y-741484D02*
X5050777Y-741484D01*
X5050777Y-741484D02*
X5069825Y-731960D01*
X5069825Y-731960D02*
X5079349Y-712912D01*
X5079349Y-712912D02*
X5079349Y-703388D01*
X5079349Y-703388D02*
X5069825Y-684341D01*
X5069825Y-684341D02*
X5050777Y-674817D01*
X5050777Y-674817D02*
X5022206Y-674817D01*
X5022206Y-674817D02*
X5003158Y-665293D01*
X5003158Y-665293D02*
X4993634Y-646246D01*
X4993634Y-646246D02*
X4993634Y-636722D01*
X4993634Y-636722D02*
X5003158Y-617674D01*
X5003158Y-617674D02*
X5022206Y-608150D01*
X5022206Y-608150D02*
X5050777Y-608150D01*
X5050777Y-608150D02*
X5069825Y-617674D01*
X5146015Y-817674D02*
X5155539Y-808150D01*
X5155539Y-808150D02*
X5174587Y-779579D01*
X5174587Y-779579D02*
X5184111Y-760531D01*
X5184111Y-760531D02*
X5193634Y-731960D01*
X5193634Y-731960D02*
X5203158Y-684341D01*
X5203158Y-684341D02*
X5203158Y-646246D01*
X5203158Y-646246D02*
X5193634Y-598627D01*
X5193634Y-598627D02*
X5184111Y-570055D01*
X5184111Y-570055D02*
X5174587Y-551008D01*
X5174587Y-551008D02*
X5155539Y-522436D01*
X5155539Y-522436D02*
X5146015Y-512912D01*
D11*
X-10000Y-914000D02*
G75*
G02*
X-50000Y-914000I-20000J0D01*
G01*
X-50000Y-914000D02*
G75*
G02*
X-10000Y-914000I20000J0D01*
G01*
D10*
X288872Y-805484D02*
X307920Y-805484D01*
X307920Y-805484D02*
X326967Y-815008D01*
X326967Y-815008D02*
X336491Y-824531D01*
X336491Y-824531D02*
X346015Y-843579D01*
X346015Y-843579D02*
X355539Y-881674D01*
X355539Y-881674D02*
X355539Y-929293D01*
X355539Y-929293D02*
X346015Y-967388D01*
X346015Y-967388D02*
X336491Y-986436D01*
X336491Y-986436D02*
X326967Y-995960D01*
X326967Y-995960D02*
X307920Y-1005484D01*
X307920Y-1005484D02*
X288872Y-1005484D01*
X288872Y-1005484D02*
X269824Y-995960D01*
X269824Y-995960D02*
X260301Y-986436D01*
X260301Y-986436D02*
X250777Y-967388D01*
X250777Y-967388D02*
X241253Y-929293D01*
X241253Y-929293D02*
X241253Y-881674D01*
X241253Y-881674D02*
X250777Y-843579D01*
X250777Y-843579D02*
X260301Y-824531D01*
X260301Y-824531D02*
X269824Y-815008D01*
X269824Y-815008D02*
X288872Y-805484D01*
X441253Y-986436D02*
X450777Y-995960D01*
X450777Y-995960D02*
X441253Y-1005484D01*
X441253Y-1005484D02*
X431729Y-995960D01*
X431729Y-995960D02*
X441253Y-986436D01*
X441253Y-986436D02*
X441253Y-1005484D01*
X622205Y-872150D02*
X622205Y-1005484D01*
X574586Y-795960D02*
X526967Y-938817D01*
X526967Y-938817D02*
X650777Y-938817D01*
X765062Y-805484D02*
X784110Y-805484D01*
X784110Y-805484D02*
X803158Y-815008D01*
X803158Y-815008D02*
X812682Y-824531D01*
X812682Y-824531D02*
X822205Y-843579D01*
X822205Y-843579D02*
X831729Y-881674D01*
X831729Y-881674D02*
X831729Y-929293D01*
X831729Y-929293D02*
X822205Y-967388D01*
X822205Y-967388D02*
X812682Y-986436D01*
X812682Y-986436D02*
X803158Y-995960D01*
X803158Y-995960D02*
X784110Y-1005484D01*
X784110Y-1005484D02*
X765062Y-1005484D01*
X765062Y-1005484D02*
X746015Y-995960D01*
X746015Y-995960D02*
X736491Y-986436D01*
X736491Y-986436D02*
X726967Y-967388D01*
X726967Y-967388D02*
X717443Y-929293D01*
X717443Y-929293D02*
X717443Y-881674D01*
X717443Y-881674D02*
X726967Y-843579D01*
X726967Y-843579D02*
X736491Y-824531D01*
X736491Y-824531D02*
X746015Y-815008D01*
X746015Y-815008D02*
X765062Y-805484D01*
X955539Y-805484D02*
X974586Y-805484D01*
X974586Y-805484D02*
X993634Y-815008D01*
X993634Y-815008D02*
X1003158Y-824531D01*
X1003158Y-824531D02*
X1012682Y-843579D01*
X1012682Y-843579D02*
X1022205Y-881674D01*
X1022205Y-881674D02*
X1022205Y-929293D01*
X1022205Y-929293D02*
X1012682Y-967388D01*
X1012682Y-967388D02*
X1003158Y-986436D01*
X1003158Y-986436D02*
X993634Y-995960D01*
X993634Y-995960D02*
X974586Y-1005484D01*
X974586Y-1005484D02*
X955539Y-1005484D01*
X955539Y-1005484D02*
X936491Y-995960D01*
X936491Y-995960D02*
X926967Y-986436D01*
X926967Y-986436D02*
X917443Y-967388D01*
X917443Y-967388D02*
X907920Y-929293D01*
X907920Y-929293D02*
X907920Y-881674D01*
X907920Y-881674D02*
X917443Y-843579D01*
X917443Y-843579D02*
X926967Y-824531D01*
X926967Y-824531D02*
X936491Y-815008D01*
X936491Y-815008D02*
X955539Y-805484D01*
X1107920Y-1005484D02*
X1107920Y-872150D01*
X1107920Y-891198D02*
X1117444Y-881674D01*
X1117444Y-881674D02*
X1136491Y-872150D01*
X1136491Y-872150D02*
X1165063Y-872150D01*
X1165063Y-872150D02*
X1184110Y-881674D01*
X1184110Y-881674D02*
X1193634Y-900722D01*
X1193634Y-900722D02*
X1193634Y-1005484D01*
X1193634Y-900722D02*
X1203158Y-881674D01*
X1203158Y-881674D02*
X1222205Y-872150D01*
X1222205Y-872150D02*
X1250777Y-872150D01*
X1250777Y-872150D02*
X1269825Y-881674D01*
X1269825Y-881674D02*
X1279348Y-900722D01*
X1279348Y-900722D02*
X1279348Y-1005484D01*
X1374586Y-1005484D02*
X1374586Y-872150D01*
X1374586Y-891198D02*
X1384110Y-881674D01*
X1384110Y-881674D02*
X1403158Y-872150D01*
X1403158Y-872150D02*
X1431729Y-872150D01*
X1431729Y-872150D02*
X1450777Y-881674D01*
X1450777Y-881674D02*
X1460301Y-900722D01*
X1460301Y-900722D02*
X1460301Y-1005484D01*
X1460301Y-900722D02*
X1469824Y-881674D01*
X1469824Y-881674D02*
X1488872Y-872150D01*
X1488872Y-872150D02*
X1517443Y-872150D01*
X1517443Y-872150D02*
X1536491Y-881674D01*
X1536491Y-881674D02*
X1546015Y-900722D01*
X1546015Y-900722D02*
X1546015Y-1005484D01*
X1936491Y-795960D02*
X1765063Y-1053103D01*
X2193634Y-805484D02*
X2212682Y-805484D01*
X2212682Y-805484D02*
X2231729Y-815008D01*
X2231729Y-815008D02*
X2241253Y-824531D01*
X2241253Y-824531D02*
X2250777Y-843579D01*
X2250777Y-843579D02*
X2260301Y-881674D01*
X2260301Y-881674D02*
X2260301Y-929293D01*
X2260301Y-929293D02*
X2250777Y-967388D01*
X2250777Y-967388D02*
X2241253Y-986436D01*
X2241253Y-986436D02*
X2231729Y-995960D01*
X2231729Y-995960D02*
X2212682Y-1005484D01*
X2212682Y-1005484D02*
X2193634Y-1005484D01*
X2193634Y-1005484D02*
X2174587Y-995960D01*
X2174587Y-995960D02*
X2165063Y-986436D01*
X2165063Y-986436D02*
X2155539Y-967388D01*
X2155539Y-967388D02*
X2146015Y-929293D01*
X2146015Y-929293D02*
X2146015Y-881674D01*
X2146015Y-881674D02*
X2155539Y-843579D01*
X2155539Y-843579D02*
X2165063Y-824531D01*
X2165063Y-824531D02*
X2174587Y-815008D01*
X2174587Y-815008D02*
X2193634Y-805484D01*
X2346015Y-986436D02*
X2355539Y-995960D01*
X2355539Y-995960D02*
X2346015Y-1005484D01*
X2346015Y-1005484D02*
X2336491Y-995960D01*
X2336491Y-995960D02*
X2346015Y-986436D01*
X2346015Y-986436D02*
X2346015Y-1005484D01*
X2479348Y-805484D02*
X2498396Y-805484D01*
X2498396Y-805484D02*
X2517444Y-815008D01*
X2517444Y-815008D02*
X2526968Y-824531D01*
X2526968Y-824531D02*
X2536491Y-843579D01*
X2536491Y-843579D02*
X2546015Y-881674D01*
X2546015Y-881674D02*
X2546015Y-929293D01*
X2546015Y-929293D02*
X2536491Y-967388D01*
X2536491Y-967388D02*
X2526968Y-986436D01*
X2526968Y-986436D02*
X2517444Y-995960D01*
X2517444Y-995960D02*
X2498396Y-1005484D01*
X2498396Y-1005484D02*
X2479348Y-1005484D01*
X2479348Y-1005484D02*
X2460301Y-995960D01*
X2460301Y-995960D02*
X2450777Y-986436D01*
X2450777Y-986436D02*
X2441253Y-967388D01*
X2441253Y-967388D02*
X2431729Y-929293D01*
X2431729Y-929293D02*
X2431729Y-881674D01*
X2431729Y-881674D02*
X2441253Y-843579D01*
X2441253Y-843579D02*
X2450777Y-824531D01*
X2450777Y-824531D02*
X2460301Y-815008D01*
X2460301Y-815008D02*
X2479348Y-805484D01*
X2736491Y-1005484D02*
X2622206Y-1005484D01*
X2679348Y-1005484D02*
X2679348Y-805484D01*
X2679348Y-805484D02*
X2660301Y-834055D01*
X2660301Y-834055D02*
X2641253Y-853103D01*
X2641253Y-853103D02*
X2622206Y-862627D01*
X2917444Y-805484D02*
X2822206Y-805484D01*
X2822206Y-805484D02*
X2812682Y-900722D01*
X2812682Y-900722D02*
X2822206Y-891198D01*
X2822206Y-891198D02*
X2841253Y-881674D01*
X2841253Y-881674D02*
X2888872Y-881674D01*
X2888872Y-881674D02*
X2907920Y-891198D01*
X2907920Y-891198D02*
X2917444Y-900722D01*
X2917444Y-900722D02*
X2926967Y-919769D01*
X2926967Y-919769D02*
X2926967Y-967388D01*
X2926967Y-967388D02*
X2917444Y-986436D01*
X2917444Y-986436D02*
X2907920Y-995960D01*
X2907920Y-995960D02*
X2888872Y-1005484D01*
X2888872Y-1005484D02*
X2841253Y-1005484D01*
X2841253Y-1005484D02*
X2822206Y-995960D01*
X2822206Y-995960D02*
X2812682Y-986436D01*
X2993634Y-805484D02*
X3126967Y-805484D01*
X3126967Y-805484D02*
X3041253Y-1005484D01*
X3193634Y-805484D02*
X3193634Y-843579D01*
X3269825Y-805484D02*
X3269825Y-843579D01*
X3565063Y-1081674D02*
X3555539Y-1072150D01*
X3555539Y-1072150D02*
X3536491Y-1043579D01*
X3536491Y-1043579D02*
X3526968Y-1024531D01*
X3526968Y-1024531D02*
X3517444Y-995960D01*
X3517444Y-995960D02*
X3507920Y-948341D01*
X3507920Y-948341D02*
X3507920Y-910246D01*
X3507920Y-910246D02*
X3517444Y-862627D01*
X3517444Y-862627D02*
X3526968Y-834055D01*
X3526968Y-834055D02*
X3536491Y-815008D01*
X3536491Y-815008D02*
X3555539Y-786436D01*
X3555539Y-786436D02*
X3565063Y-776912D01*
X3736491Y-805484D02*
X3641253Y-805484D01*
X3641253Y-805484D02*
X3631729Y-900722D01*
X3631729Y-900722D02*
X3641253Y-891198D01*
X3641253Y-891198D02*
X3660301Y-881674D01*
X3660301Y-881674D02*
X3707920Y-881674D01*
X3707920Y-881674D02*
X3726968Y-891198D01*
X3726968Y-891198D02*
X3736491Y-900722D01*
X3736491Y-900722D02*
X3746015Y-919769D01*
X3746015Y-919769D02*
X3746015Y-967388D01*
X3746015Y-967388D02*
X3736491Y-986436D01*
X3736491Y-986436D02*
X3726968Y-995960D01*
X3726968Y-995960D02*
X3707920Y-1005484D01*
X3707920Y-1005484D02*
X3660301Y-1005484D01*
X3660301Y-1005484D02*
X3641253Y-995960D01*
X3641253Y-995960D02*
X3631729Y-986436D01*
X3841253Y-1005484D02*
X3879348Y-1005484D01*
X3879348Y-1005484D02*
X3898396Y-995960D01*
X3898396Y-995960D02*
X3907920Y-986436D01*
X3907920Y-986436D02*
X3926968Y-957865D01*
X3926968Y-957865D02*
X3936491Y-919769D01*
X3936491Y-919769D02*
X3936491Y-843579D01*
X3936491Y-843579D02*
X3926968Y-824531D01*
X3926968Y-824531D02*
X3917444Y-815008D01*
X3917444Y-815008D02*
X3898396Y-805484D01*
X3898396Y-805484D02*
X3860301Y-805484D01*
X3860301Y-805484D02*
X3841253Y-815008D01*
X3841253Y-815008D02*
X3831729Y-824531D01*
X3831729Y-824531D02*
X3822206Y-843579D01*
X3822206Y-843579D02*
X3822206Y-891198D01*
X3822206Y-891198D02*
X3831729Y-910246D01*
X3831729Y-910246D02*
X3841253Y-919769D01*
X3841253Y-919769D02*
X3860301Y-929293D01*
X3860301Y-929293D02*
X3898396Y-929293D01*
X3898396Y-929293D02*
X3917444Y-919769D01*
X3917444Y-919769D02*
X3926968Y-910246D01*
X3926968Y-910246D02*
X3936491Y-891198D01*
X4174587Y-1005484D02*
X4174587Y-805484D01*
X4260301Y-1005484D02*
X4260301Y-900722D01*
X4260301Y-900722D02*
X4250777Y-881674D01*
X4250777Y-881674D02*
X4231730Y-872150D01*
X4231730Y-872150D02*
X4203158Y-872150D01*
X4203158Y-872150D02*
X4184110Y-881674D01*
X4184110Y-881674D02*
X4174587Y-891198D01*
X4384111Y-1005484D02*
X4365063Y-995960D01*
X4365063Y-995960D02*
X4355539Y-986436D01*
X4355539Y-986436D02*
X4346015Y-967388D01*
X4346015Y-967388D02*
X4346015Y-910246D01*
X4346015Y-910246D02*
X4355539Y-891198D01*
X4355539Y-891198D02*
X4365063Y-881674D01*
X4365063Y-881674D02*
X4384111Y-872150D01*
X4384111Y-872150D02*
X4412682Y-872150D01*
X4412682Y-872150D02*
X4431730Y-881674D01*
X4431730Y-881674D02*
X4441253Y-891198D01*
X4441253Y-891198D02*
X4450777Y-910246D01*
X4450777Y-910246D02*
X4450777Y-967388D01*
X4450777Y-967388D02*
X4441253Y-986436D01*
X4441253Y-986436D02*
X4431730Y-995960D01*
X4431730Y-995960D02*
X4412682Y-1005484D01*
X4412682Y-1005484D02*
X4384111Y-1005484D01*
X4565063Y-1005484D02*
X4546015Y-995960D01*
X4546015Y-995960D02*
X4536492Y-976912D01*
X4536492Y-976912D02*
X4536492Y-805484D01*
X4717444Y-995960D02*
X4698396Y-1005484D01*
X4698396Y-1005484D02*
X4660301Y-1005484D01*
X4660301Y-1005484D02*
X4641253Y-995960D01*
X4641253Y-995960D02*
X4631730Y-976912D01*
X4631730Y-976912D02*
X4631730Y-900722D01*
X4631730Y-900722D02*
X4641253Y-881674D01*
X4641253Y-881674D02*
X4660301Y-872150D01*
X4660301Y-872150D02*
X4698396Y-872150D01*
X4698396Y-872150D02*
X4717444Y-881674D01*
X4717444Y-881674D02*
X4726968Y-900722D01*
X4726968Y-900722D02*
X4726968Y-919769D01*
X4726968Y-919769D02*
X4631730Y-938817D01*
X4803158Y-995960D02*
X4822206Y-1005484D01*
X4822206Y-1005484D02*
X4860301Y-1005484D01*
X4860301Y-1005484D02*
X4879349Y-995960D01*
X4879349Y-995960D02*
X4888873Y-976912D01*
X4888873Y-976912D02*
X4888873Y-967388D01*
X4888873Y-967388D02*
X4879349Y-948341D01*
X4879349Y-948341D02*
X4860301Y-938817D01*
X4860301Y-938817D02*
X4831730Y-938817D01*
X4831730Y-938817D02*
X4812682Y-929293D01*
X4812682Y-929293D02*
X4803158Y-910246D01*
X4803158Y-910246D02*
X4803158Y-900722D01*
X4803158Y-900722D02*
X4812682Y-881674D01*
X4812682Y-881674D02*
X4831730Y-872150D01*
X4831730Y-872150D02*
X4860301Y-872150D01*
X4860301Y-872150D02*
X4879349Y-881674D01*
X4955539Y-1081674D02*
X4965063Y-1072150D01*
X4965063Y-1072150D02*
X4984111Y-1043579D01*
X4984111Y-1043579D02*
X4993634Y-1024531D01*
X4993634Y-1024531D02*
X5003158Y-995960D01*
X5003158Y-995960D02*
X5012682Y-948341D01*
X5012682Y-948341D02*
X5012682Y-910246D01*
X5012682Y-910246D02*
X5003158Y-862627D01*
X5003158Y-862627D02*
X4993634Y-834055D01*
X4993634Y-834055D02*
X4984111Y-815008D01*
X4984111Y-815008D02*
X4965063Y-786436D01*
X4965063Y-786436D02*
X4955539Y-776912D01*
D11*
X-40000Y-1148000D02*
X-40000Y-1208000D01*
X-70000Y-1178000D02*
X-10000Y-1178000D01*
D10*
X288872Y-1069484D02*
X307920Y-1069484D01*
X307920Y-1069484D02*
X326967Y-1079008D01*
X326967Y-1079008D02*
X336491Y-1088531D01*
X336491Y-1088531D02*
X346015Y-1107579D01*
X346015Y-1107579D02*
X355539Y-1145674D01*
X355539Y-1145674D02*
X355539Y-1193293D01*
X355539Y-1193293D02*
X346015Y-1231389D01*
X346015Y-1231389D02*
X336491Y-1250436D01*
X336491Y-1250436D02*
X326967Y-1259960D01*
X326967Y-1259960D02*
X307920Y-1269484D01*
X307920Y-1269484D02*
X288872Y-1269484D01*
X288872Y-1269484D02*
X269824Y-1259960D01*
X269824Y-1259960D02*
X260301Y-1250436D01*
X260301Y-1250436D02*
X250777Y-1231389D01*
X250777Y-1231389D02*
X241253Y-1193293D01*
X241253Y-1193293D02*
X241253Y-1145674D01*
X241253Y-1145674D02*
X250777Y-1107579D01*
X250777Y-1107579D02*
X260301Y-1088531D01*
X260301Y-1088531D02*
X269824Y-1079008D01*
X269824Y-1079008D02*
X288872Y-1069484D01*
X441253Y-1250436D02*
X450777Y-1259960D01*
X450777Y-1259960D02*
X441253Y-1269484D01*
X441253Y-1269484D02*
X431729Y-1259960D01*
X431729Y-1259960D02*
X441253Y-1250436D01*
X441253Y-1250436D02*
X441253Y-1269484D01*
X622205Y-1069484D02*
X584110Y-1069484D01*
X584110Y-1069484D02*
X565063Y-1079008D01*
X565063Y-1079008D02*
X555539Y-1088531D01*
X555539Y-1088531D02*
X536491Y-1117103D01*
X536491Y-1117103D02*
X526967Y-1155198D01*
X526967Y-1155198D02*
X526967Y-1231389D01*
X526967Y-1231389D02*
X536491Y-1250436D01*
X536491Y-1250436D02*
X546015Y-1259960D01*
X546015Y-1259960D02*
X565063Y-1269484D01*
X565063Y-1269484D02*
X603158Y-1269484D01*
X603158Y-1269484D02*
X622205Y-1259960D01*
X622205Y-1259960D02*
X631729Y-1250436D01*
X631729Y-1250436D02*
X641253Y-1231389D01*
X641253Y-1231389D02*
X641253Y-1183770D01*
X641253Y-1183770D02*
X631729Y-1164722D01*
X631729Y-1164722D02*
X622205Y-1155198D01*
X622205Y-1155198D02*
X603158Y-1145674D01*
X603158Y-1145674D02*
X565063Y-1145674D01*
X565063Y-1145674D02*
X546015Y-1155198D01*
X546015Y-1155198D02*
X536491Y-1164722D01*
X536491Y-1164722D02*
X526967Y-1183770D01*
X765062Y-1069484D02*
X784110Y-1069484D01*
X784110Y-1069484D02*
X803158Y-1079008D01*
X803158Y-1079008D02*
X812682Y-1088531D01*
X812682Y-1088531D02*
X822205Y-1107579D01*
X822205Y-1107579D02*
X831729Y-1145674D01*
X831729Y-1145674D02*
X831729Y-1193293D01*
X831729Y-1193293D02*
X822205Y-1231389D01*
X822205Y-1231389D02*
X812682Y-1250436D01*
X812682Y-1250436D02*
X803158Y-1259960D01*
X803158Y-1259960D02*
X784110Y-1269484D01*
X784110Y-1269484D02*
X765062Y-1269484D01*
X765062Y-1269484D02*
X746015Y-1259960D01*
X746015Y-1259960D02*
X736491Y-1250436D01*
X736491Y-1250436D02*
X726967Y-1231389D01*
X726967Y-1231389D02*
X717443Y-1193293D01*
X717443Y-1193293D02*
X717443Y-1145674D01*
X717443Y-1145674D02*
X726967Y-1107579D01*
X726967Y-1107579D02*
X736491Y-1088531D01*
X736491Y-1088531D02*
X746015Y-1079008D01*
X746015Y-1079008D02*
X765062Y-1069484D01*
X955539Y-1069484D02*
X974586Y-1069484D01*
X974586Y-1069484D02*
X993634Y-1079008D01*
X993634Y-1079008D02*
X1003158Y-1088531D01*
X1003158Y-1088531D02*
X1012682Y-1107579D01*
X1012682Y-1107579D02*
X1022205Y-1145674D01*
X1022205Y-1145674D02*
X1022205Y-1193293D01*
X1022205Y-1193293D02*
X1012682Y-1231389D01*
X1012682Y-1231389D02*
X1003158Y-1250436D01*
X1003158Y-1250436D02*
X993634Y-1259960D01*
X993634Y-1259960D02*
X974586Y-1269484D01*
X974586Y-1269484D02*
X955539Y-1269484D01*
X955539Y-1269484D02*
X936491Y-1259960D01*
X936491Y-1259960D02*
X926967Y-1250436D01*
X926967Y-1250436D02*
X917443Y-1231389D01*
X917443Y-1231389D02*
X907920Y-1193293D01*
X907920Y-1193293D02*
X907920Y-1145674D01*
X907920Y-1145674D02*
X917443Y-1107579D01*
X917443Y-1107579D02*
X926967Y-1088531D01*
X926967Y-1088531D02*
X936491Y-1079008D01*
X936491Y-1079008D02*
X955539Y-1069484D01*
X1107920Y-1269484D02*
X1107920Y-1136150D01*
X1107920Y-1155198D02*
X1117444Y-1145674D01*
X1117444Y-1145674D02*
X1136491Y-1136150D01*
X1136491Y-1136150D02*
X1165063Y-1136150D01*
X1165063Y-1136150D02*
X1184110Y-1145674D01*
X1184110Y-1145674D02*
X1193634Y-1164722D01*
X1193634Y-1164722D02*
X1193634Y-1269484D01*
X1193634Y-1164722D02*
X1203158Y-1145674D01*
X1203158Y-1145674D02*
X1222205Y-1136150D01*
X1222205Y-1136150D02*
X1250777Y-1136150D01*
X1250777Y-1136150D02*
X1269825Y-1145674D01*
X1269825Y-1145674D02*
X1279348Y-1164722D01*
X1279348Y-1164722D02*
X1279348Y-1269484D01*
X1374586Y-1269484D02*
X1374586Y-1136150D01*
X1374586Y-1155198D02*
X1384110Y-1145674D01*
X1384110Y-1145674D02*
X1403158Y-1136150D01*
X1403158Y-1136150D02*
X1431729Y-1136150D01*
X1431729Y-1136150D02*
X1450777Y-1145674D01*
X1450777Y-1145674D02*
X1460301Y-1164722D01*
X1460301Y-1164722D02*
X1460301Y-1269484D01*
X1460301Y-1164722D02*
X1469824Y-1145674D01*
X1469824Y-1145674D02*
X1488872Y-1136150D01*
X1488872Y-1136150D02*
X1517443Y-1136150D01*
X1517443Y-1136150D02*
X1536491Y-1145674D01*
X1536491Y-1145674D02*
X1546015Y-1164722D01*
X1546015Y-1164722D02*
X1546015Y-1269484D01*
X1936491Y-1059960D02*
X1765063Y-1317103D01*
X2193634Y-1069484D02*
X2212682Y-1069484D01*
X2212682Y-1069484D02*
X2231729Y-1079008D01*
X2231729Y-1079008D02*
X2241253Y-1088531D01*
X2241253Y-1088531D02*
X2250777Y-1107579D01*
X2250777Y-1107579D02*
X2260301Y-1145674D01*
X2260301Y-1145674D02*
X2260301Y-1193293D01*
X2260301Y-1193293D02*
X2250777Y-1231389D01*
X2250777Y-1231389D02*
X2241253Y-1250436D01*
X2241253Y-1250436D02*
X2231729Y-1259960D01*
X2231729Y-1259960D02*
X2212682Y-1269484D01*
X2212682Y-1269484D02*
X2193634Y-1269484D01*
X2193634Y-1269484D02*
X2174587Y-1259960D01*
X2174587Y-1259960D02*
X2165063Y-1250436D01*
X2165063Y-1250436D02*
X2155539Y-1231389D01*
X2155539Y-1231389D02*
X2146015Y-1193293D01*
X2146015Y-1193293D02*
X2146015Y-1145674D01*
X2146015Y-1145674D02*
X2155539Y-1107579D01*
X2155539Y-1107579D02*
X2165063Y-1088531D01*
X2165063Y-1088531D02*
X2174587Y-1079008D01*
X2174587Y-1079008D02*
X2193634Y-1069484D01*
X2346015Y-1250436D02*
X2355539Y-1259960D01*
X2355539Y-1259960D02*
X2346015Y-1269484D01*
X2346015Y-1269484D02*
X2336491Y-1259960D01*
X2336491Y-1259960D02*
X2346015Y-1250436D01*
X2346015Y-1250436D02*
X2346015Y-1269484D01*
X2479348Y-1069484D02*
X2498396Y-1069484D01*
X2498396Y-1069484D02*
X2517444Y-1079008D01*
X2517444Y-1079008D02*
X2526968Y-1088531D01*
X2526968Y-1088531D02*
X2536491Y-1107579D01*
X2536491Y-1107579D02*
X2546015Y-1145674D01*
X2546015Y-1145674D02*
X2546015Y-1193293D01*
X2546015Y-1193293D02*
X2536491Y-1231389D01*
X2536491Y-1231389D02*
X2526968Y-1250436D01*
X2526968Y-1250436D02*
X2517444Y-1259960D01*
X2517444Y-1259960D02*
X2498396Y-1269484D01*
X2498396Y-1269484D02*
X2479348Y-1269484D01*
X2479348Y-1269484D02*
X2460301Y-1259960D01*
X2460301Y-1259960D02*
X2450777Y-1250436D01*
X2450777Y-1250436D02*
X2441253Y-1231389D01*
X2441253Y-1231389D02*
X2431729Y-1193293D01*
X2431729Y-1193293D02*
X2431729Y-1145674D01*
X2431729Y-1145674D02*
X2441253Y-1107579D01*
X2441253Y-1107579D02*
X2450777Y-1088531D01*
X2450777Y-1088531D02*
X2460301Y-1079008D01*
X2460301Y-1079008D02*
X2479348Y-1069484D01*
X2622206Y-1088531D02*
X2631729Y-1079008D01*
X2631729Y-1079008D02*
X2650777Y-1069484D01*
X2650777Y-1069484D02*
X2698396Y-1069484D01*
X2698396Y-1069484D02*
X2717444Y-1079008D01*
X2717444Y-1079008D02*
X2726968Y-1088531D01*
X2726968Y-1088531D02*
X2736491Y-1107579D01*
X2736491Y-1107579D02*
X2736491Y-1126627D01*
X2736491Y-1126627D02*
X2726968Y-1155198D01*
X2726968Y-1155198D02*
X2612682Y-1269484D01*
X2612682Y-1269484D02*
X2736491Y-1269484D01*
X2803158Y-1069484D02*
X2926967Y-1069484D01*
X2926967Y-1069484D02*
X2860301Y-1145674D01*
X2860301Y-1145674D02*
X2888872Y-1145674D01*
X2888872Y-1145674D02*
X2907920Y-1155198D01*
X2907920Y-1155198D02*
X2917444Y-1164722D01*
X2917444Y-1164722D02*
X2926967Y-1183770D01*
X2926967Y-1183770D02*
X2926967Y-1231389D01*
X2926967Y-1231389D02*
X2917444Y-1250436D01*
X2917444Y-1250436D02*
X2907920Y-1259960D01*
X2907920Y-1259960D02*
X2888872Y-1269484D01*
X2888872Y-1269484D02*
X2831729Y-1269484D01*
X2831729Y-1269484D02*
X2812682Y-1259960D01*
X2812682Y-1259960D02*
X2803158Y-1250436D01*
X3098396Y-1069484D02*
X3060301Y-1069484D01*
X3060301Y-1069484D02*
X3041253Y-1079008D01*
X3041253Y-1079008D02*
X3031729Y-1088531D01*
X3031729Y-1088531D02*
X3012682Y-1117103D01*
X3012682Y-1117103D02*
X3003158Y-1155198D01*
X3003158Y-1155198D02*
X3003158Y-1231389D01*
X3003158Y-1231389D02*
X3012682Y-1250436D01*
X3012682Y-1250436D02*
X3022206Y-1259960D01*
X3022206Y-1259960D02*
X3041253Y-1269484D01*
X3041253Y-1269484D02*
X3079348Y-1269484D01*
X3079348Y-1269484D02*
X3098396Y-1259960D01*
X3098396Y-1259960D02*
X3107920Y-1250436D01*
X3107920Y-1250436D02*
X3117444Y-1231389D01*
X3117444Y-1231389D02*
X3117444Y-1183770D01*
X3117444Y-1183770D02*
X3107920Y-1164722D01*
X3107920Y-1164722D02*
X3098396Y-1155198D01*
X3098396Y-1155198D02*
X3079348Y-1145674D01*
X3079348Y-1145674D02*
X3041253Y-1145674D01*
X3041253Y-1145674D02*
X3022206Y-1155198D01*
X3022206Y-1155198D02*
X3012682Y-1164722D01*
X3012682Y-1164722D02*
X3003158Y-1183770D01*
X3193634Y-1069484D02*
X3193634Y-1107579D01*
X3269825Y-1069484D02*
X3269825Y-1107579D01*
X3565063Y-1345674D02*
X3555539Y-1336150D01*
X3555539Y-1336150D02*
X3536491Y-1307579D01*
X3536491Y-1307579D02*
X3526968Y-1288531D01*
X3526968Y-1288531D02*
X3517444Y-1259960D01*
X3517444Y-1259960D02*
X3507920Y-1212341D01*
X3507920Y-1212341D02*
X3507920Y-1174246D01*
X3507920Y-1174246D02*
X3517444Y-1126627D01*
X3517444Y-1126627D02*
X3526968Y-1098055D01*
X3526968Y-1098055D02*
X3536491Y-1079008D01*
X3536491Y-1079008D02*
X3555539Y-1050436D01*
X3555539Y-1050436D02*
X3565063Y-1040912D01*
X3679348Y-1069484D02*
X3698396Y-1069484D01*
X3698396Y-1069484D02*
X3717444Y-1079008D01*
X3717444Y-1079008D02*
X3726968Y-1088531D01*
X3726968Y-1088531D02*
X3736491Y-1107579D01*
X3736491Y-1107579D02*
X3746015Y-1145674D01*
X3746015Y-1145674D02*
X3746015Y-1193293D01*
X3746015Y-1193293D02*
X3736491Y-1231389D01*
X3736491Y-1231389D02*
X3726968Y-1250436D01*
X3726968Y-1250436D02*
X3717444Y-1259960D01*
X3717444Y-1259960D02*
X3698396Y-1269484D01*
X3698396Y-1269484D02*
X3679348Y-1269484D01*
X3679348Y-1269484D02*
X3660301Y-1259960D01*
X3660301Y-1259960D02*
X3650777Y-1250436D01*
X3650777Y-1250436D02*
X3641253Y-1231389D01*
X3641253Y-1231389D02*
X3631729Y-1193293D01*
X3631729Y-1193293D02*
X3631729Y-1145674D01*
X3631729Y-1145674D02*
X3641253Y-1107579D01*
X3641253Y-1107579D02*
X3650777Y-1088531D01*
X3650777Y-1088531D02*
X3660301Y-1079008D01*
X3660301Y-1079008D02*
X3679348Y-1069484D01*
X3984110Y-1269484D02*
X3984110Y-1069484D01*
X4069825Y-1269484D02*
X4069825Y-1164722D01*
X4069825Y-1164722D02*
X4060301Y-1145674D01*
X4060301Y-1145674D02*
X4041253Y-1136150D01*
X4041253Y-1136150D02*
X4012682Y-1136150D01*
X4012682Y-1136150D02*
X3993634Y-1145674D01*
X3993634Y-1145674D02*
X3984110Y-1155198D01*
X4193634Y-1269484D02*
X4174587Y-1259960D01*
X4174587Y-1259960D02*
X4165063Y-1250436D01*
X4165063Y-1250436D02*
X4155539Y-1231389D01*
X4155539Y-1231389D02*
X4155539Y-1174246D01*
X4155539Y-1174246D02*
X4165063Y-1155198D01*
X4165063Y-1155198D02*
X4174587Y-1145674D01*
X4174587Y-1145674D02*
X4193634Y-1136150D01*
X4193634Y-1136150D02*
X4222206Y-1136150D01*
X4222206Y-1136150D02*
X4241253Y-1145674D01*
X4241253Y-1145674D02*
X4250777Y-1155198D01*
X4250777Y-1155198D02*
X4260301Y-1174246D01*
X4260301Y-1174246D02*
X4260301Y-1231389D01*
X4260301Y-1231389D02*
X4250777Y-1250436D01*
X4250777Y-1250436D02*
X4241253Y-1259960D01*
X4241253Y-1259960D02*
X4222206Y-1269484D01*
X4222206Y-1269484D02*
X4193634Y-1269484D01*
X4374587Y-1269484D02*
X4355539Y-1259960D01*
X4355539Y-1259960D02*
X4346015Y-1240912D01*
X4346015Y-1240912D02*
X4346015Y-1069484D01*
X4526968Y-1259960D02*
X4507920Y-1269484D01*
X4507920Y-1269484D02*
X4469825Y-1269484D01*
X4469825Y-1269484D02*
X4450777Y-1259960D01*
X4450777Y-1259960D02*
X4441253Y-1240912D01*
X4441253Y-1240912D02*
X4441253Y-1164722D01*
X4441253Y-1164722D02*
X4450777Y-1145674D01*
X4450777Y-1145674D02*
X4469825Y-1136150D01*
X4469825Y-1136150D02*
X4507920Y-1136150D01*
X4507920Y-1136150D02*
X4526968Y-1145674D01*
X4526968Y-1145674D02*
X4536492Y-1164722D01*
X4536492Y-1164722D02*
X4536492Y-1183770D01*
X4536492Y-1183770D02*
X4441253Y-1202817D01*
X4612682Y-1259960D02*
X4631730Y-1269484D01*
X4631730Y-1269484D02*
X4669825Y-1269484D01*
X4669825Y-1269484D02*
X4688873Y-1259960D01*
X4688873Y-1259960D02*
X4698396Y-1240912D01*
X4698396Y-1240912D02*
X4698396Y-1231389D01*
X4698396Y-1231389D02*
X4688873Y-1212341D01*
X4688873Y-1212341D02*
X4669825Y-1202817D01*
X4669825Y-1202817D02*
X4641253Y-1202817D01*
X4641253Y-1202817D02*
X4622206Y-1193293D01*
X4622206Y-1193293D02*
X4612682Y-1174246D01*
X4612682Y-1174246D02*
X4612682Y-1164722D01*
X4612682Y-1164722D02*
X4622206Y-1145674D01*
X4622206Y-1145674D02*
X4641253Y-1136150D01*
X4641253Y-1136150D02*
X4669825Y-1136150D01*
X4669825Y-1136150D02*
X4688873Y-1145674D01*
X4936492Y-1193293D02*
X5088873Y-1193293D01*
X5012682Y-1269484D02*
X5012682Y-1117103D01*
X5365063Y-1155198D02*
X5346015Y-1145674D01*
X5346015Y-1145674D02*
X5336492Y-1136150D01*
X5336492Y-1136150D02*
X5326968Y-1117103D01*
X5326968Y-1117103D02*
X5326968Y-1107579D01*
X5326968Y-1107579D02*
X5336492Y-1088531D01*
X5336492Y-1088531D02*
X5346015Y-1079008D01*
X5346015Y-1079008D02*
X5365063Y-1069484D01*
X5365063Y-1069484D02*
X5403158Y-1069484D01*
X5403158Y-1069484D02*
X5422206Y-1079008D01*
X5422206Y-1079008D02*
X5431730Y-1088531D01*
X5431730Y-1088531D02*
X5441254Y-1107579D01*
X5441254Y-1107579D02*
X5441254Y-1117103D01*
X5441254Y-1117103D02*
X5431730Y-1136150D01*
X5431730Y-1136150D02*
X5422206Y-1145674D01*
X5422206Y-1145674D02*
X5403158Y-1155198D01*
X5403158Y-1155198D02*
X5365063Y-1155198D01*
X5365063Y-1155198D02*
X5346015Y-1164722D01*
X5346015Y-1164722D02*
X5336492Y-1174246D01*
X5336492Y-1174246D02*
X5326968Y-1193293D01*
X5326968Y-1193293D02*
X5326968Y-1231389D01*
X5326968Y-1231389D02*
X5336492Y-1250436D01*
X5336492Y-1250436D02*
X5346015Y-1259960D01*
X5346015Y-1259960D02*
X5365063Y-1269484D01*
X5365063Y-1269484D02*
X5403158Y-1269484D01*
X5403158Y-1269484D02*
X5422206Y-1259960D01*
X5422206Y-1259960D02*
X5431730Y-1250436D01*
X5431730Y-1250436D02*
X5441254Y-1231389D01*
X5441254Y-1231389D02*
X5441254Y-1193293D01*
X5441254Y-1193293D02*
X5431730Y-1174246D01*
X5431730Y-1174246D02*
X5422206Y-1164722D01*
X5422206Y-1164722D02*
X5403158Y-1155198D01*
X5669825Y-1259960D02*
X5688873Y-1269484D01*
X5688873Y-1269484D02*
X5726968Y-1269484D01*
X5726968Y-1269484D02*
X5746015Y-1259960D01*
X5746015Y-1259960D02*
X5755539Y-1240912D01*
X5755539Y-1240912D02*
X5755539Y-1231389D01*
X5755539Y-1231389D02*
X5746015Y-1212341D01*
X5746015Y-1212341D02*
X5726968Y-1202817D01*
X5726968Y-1202817D02*
X5698396Y-1202817D01*
X5698396Y-1202817D02*
X5679349Y-1193293D01*
X5679349Y-1193293D02*
X5669825Y-1174246D01*
X5669825Y-1174246D02*
X5669825Y-1164722D01*
X5669825Y-1164722D02*
X5679349Y-1145674D01*
X5679349Y-1145674D02*
X5698396Y-1136150D01*
X5698396Y-1136150D02*
X5726968Y-1136150D01*
X5726968Y-1136150D02*
X5746015Y-1145674D01*
X5869825Y-1269484D02*
X5850777Y-1259960D01*
X5850777Y-1259960D02*
X5841254Y-1240912D01*
X5841254Y-1240912D02*
X5841254Y-1069484D01*
X5974587Y-1269484D02*
X5955539Y-1259960D01*
X5955539Y-1259960D02*
X5946015Y-1250436D01*
X5946015Y-1250436D02*
X5936492Y-1231389D01*
X5936492Y-1231389D02*
X5936492Y-1174246D01*
X5936492Y-1174246D02*
X5946015Y-1155198D01*
X5946015Y-1155198D02*
X5955539Y-1145674D01*
X5955539Y-1145674D02*
X5974587Y-1136150D01*
X5974587Y-1136150D02*
X6003158Y-1136150D01*
X6003158Y-1136150D02*
X6022206Y-1145674D01*
X6022206Y-1145674D02*
X6031730Y-1155198D01*
X6031730Y-1155198D02*
X6041254Y-1174246D01*
X6041254Y-1174246D02*
X6041254Y-1231389D01*
X6041254Y-1231389D02*
X6031730Y-1250436D01*
X6031730Y-1250436D02*
X6022206Y-1259960D01*
X6022206Y-1259960D02*
X6003158Y-1269484D01*
X6003158Y-1269484D02*
X5974587Y-1269484D01*
X6098396Y-1136150D02*
X6174587Y-1136150D01*
X6126968Y-1069484D02*
X6126968Y-1240912D01*
X6126968Y-1240912D02*
X6136492Y-1259960D01*
X6136492Y-1259960D02*
X6155539Y-1269484D01*
X6155539Y-1269484D02*
X6174587Y-1269484D01*
X6231730Y-1259960D02*
X6250777Y-1269484D01*
X6250777Y-1269484D02*
X6288873Y-1269484D01*
X6288873Y-1269484D02*
X6307920Y-1259960D01*
X6307920Y-1259960D02*
X6317444Y-1240912D01*
X6317444Y-1240912D02*
X6317444Y-1231389D01*
X6317444Y-1231389D02*
X6307920Y-1212341D01*
X6307920Y-1212341D02*
X6288873Y-1202817D01*
X6288873Y-1202817D02*
X6260301Y-1202817D01*
X6260301Y-1202817D02*
X6241254Y-1193293D01*
X6241254Y-1193293D02*
X6231730Y-1174246D01*
X6231730Y-1174246D02*
X6231730Y-1164722D01*
X6231730Y-1164722D02*
X6241254Y-1145674D01*
X6241254Y-1145674D02*
X6260301Y-1136150D01*
X6260301Y-1136150D02*
X6288873Y-1136150D01*
X6288873Y-1136150D02*
X6307920Y-1145674D01*
X6384111Y-1345674D02*
X6393635Y-1336150D01*
X6393635Y-1336150D02*
X6412682Y-1307579D01*
X6412682Y-1307579D02*
X6422206Y-1288531D01*
X6422206Y-1288531D02*
X6431730Y-1259960D01*
X6431730Y-1259960D02*
X6441254Y-1212341D01*
X6441254Y-1212341D02*
X6441254Y-1174246D01*
X6441254Y-1174246D02*
X6431730Y-1126627D01*
X6431730Y-1126627D02*
X6422206Y-1098055D01*
X6422206Y-1098055D02*
X6412682Y-1079008D01*
X6412682Y-1079008D02*
X6393635Y-1050436D01*
X6393635Y-1050436D02*
X6384111Y-1040912D01*
D11*
X-23180Y-1473820D02*
X-23180Y-1410180D01*
X-86820Y-1410180D01*
X-86820Y-1473820D01*
X-23180Y-1473820D01*
D10*
X288872Y-1333484D02*
X307920Y-1333484D01*
X307920Y-1333484D02*
X326967Y-1343008D01*
X326967Y-1343008D02*
X336491Y-1352531D01*
X336491Y-1352531D02*
X346015Y-1371579D01*
X346015Y-1371579D02*
X355539Y-1409674D01*
X355539Y-1409674D02*
X355539Y-1457293D01*
X355539Y-1457293D02*
X346015Y-1495388D01*
X346015Y-1495388D02*
X336491Y-1514436D01*
X336491Y-1514436D02*
X326967Y-1523960D01*
X326967Y-1523960D02*
X307920Y-1533484D01*
X307920Y-1533484D02*
X288872Y-1533484D01*
X288872Y-1533484D02*
X269824Y-1523960D01*
X269824Y-1523960D02*
X260301Y-1514436D01*
X260301Y-1514436D02*
X250777Y-1495388D01*
X250777Y-1495388D02*
X241253Y-1457293D01*
X241253Y-1457293D02*
X241253Y-1409674D01*
X241253Y-1409674D02*
X250777Y-1371579D01*
X250777Y-1371579D02*
X260301Y-1352531D01*
X260301Y-1352531D02*
X269824Y-1343008D01*
X269824Y-1343008D02*
X288872Y-1333484D01*
X441253Y-1514436D02*
X450777Y-1523960D01*
X450777Y-1523960D02*
X441253Y-1533484D01*
X441253Y-1533484D02*
X431729Y-1523960D01*
X431729Y-1523960D02*
X441253Y-1514436D01*
X441253Y-1514436D02*
X441253Y-1533484D01*
X546015Y-1533484D02*
X584110Y-1533484D01*
X584110Y-1533484D02*
X603158Y-1523960D01*
X603158Y-1523960D02*
X612682Y-1514436D01*
X612682Y-1514436D02*
X631729Y-1485865D01*
X631729Y-1485865D02*
X641253Y-1447769D01*
X641253Y-1447769D02*
X641253Y-1371579D01*
X641253Y-1371579D02*
X631729Y-1352531D01*
X631729Y-1352531D02*
X622205Y-1343008D01*
X622205Y-1343008D02*
X603158Y-1333484D01*
X603158Y-1333484D02*
X565063Y-1333484D01*
X565063Y-1333484D02*
X546015Y-1343008D01*
X546015Y-1343008D02*
X536491Y-1352531D01*
X536491Y-1352531D02*
X526967Y-1371579D01*
X526967Y-1371579D02*
X526967Y-1419198D01*
X526967Y-1419198D02*
X536491Y-1438246D01*
X536491Y-1438246D02*
X546015Y-1447769D01*
X546015Y-1447769D02*
X565063Y-1457293D01*
X565063Y-1457293D02*
X603158Y-1457293D01*
X603158Y-1457293D02*
X622205Y-1447769D01*
X622205Y-1447769D02*
X631729Y-1438246D01*
X631729Y-1438246D02*
X641253Y-1419198D01*
X765062Y-1333484D02*
X784110Y-1333484D01*
X784110Y-1333484D02*
X803158Y-1343008D01*
X803158Y-1343008D02*
X812682Y-1352531D01*
X812682Y-1352531D02*
X822205Y-1371579D01*
X822205Y-1371579D02*
X831729Y-1409674D01*
X831729Y-1409674D02*
X831729Y-1457293D01*
X831729Y-1457293D02*
X822205Y-1495388D01*
X822205Y-1495388D02*
X812682Y-1514436D01*
X812682Y-1514436D02*
X803158Y-1523960D01*
X803158Y-1523960D02*
X784110Y-1533484D01*
X784110Y-1533484D02*
X765062Y-1533484D01*
X765062Y-1533484D02*
X746015Y-1523960D01*
X746015Y-1523960D02*
X736491Y-1514436D01*
X736491Y-1514436D02*
X726967Y-1495388D01*
X726967Y-1495388D02*
X717443Y-1457293D01*
X717443Y-1457293D02*
X717443Y-1409674D01*
X717443Y-1409674D02*
X726967Y-1371579D01*
X726967Y-1371579D02*
X736491Y-1352531D01*
X736491Y-1352531D02*
X746015Y-1343008D01*
X746015Y-1343008D02*
X765062Y-1333484D01*
X955539Y-1333484D02*
X974586Y-1333484D01*
X974586Y-1333484D02*
X993634Y-1343008D01*
X993634Y-1343008D02*
X1003158Y-1352531D01*
X1003158Y-1352531D02*
X1012682Y-1371579D01*
X1012682Y-1371579D02*
X1022205Y-1409674D01*
X1022205Y-1409674D02*
X1022205Y-1457293D01*
X1022205Y-1457293D02*
X1012682Y-1495388D01*
X1012682Y-1495388D02*
X1003158Y-1514436D01*
X1003158Y-1514436D02*
X993634Y-1523960D01*
X993634Y-1523960D02*
X974586Y-1533484D01*
X974586Y-1533484D02*
X955539Y-1533484D01*
X955539Y-1533484D02*
X936491Y-1523960D01*
X936491Y-1523960D02*
X926967Y-1514436D01*
X926967Y-1514436D02*
X917443Y-1495388D01*
X917443Y-1495388D02*
X907920Y-1457293D01*
X907920Y-1457293D02*
X907920Y-1409674D01*
X907920Y-1409674D02*
X917443Y-1371579D01*
X917443Y-1371579D02*
X926967Y-1352531D01*
X926967Y-1352531D02*
X936491Y-1343008D01*
X936491Y-1343008D02*
X955539Y-1333484D01*
X1107920Y-1533484D02*
X1107920Y-1400150D01*
X1107920Y-1419198D02*
X1117444Y-1409674D01*
X1117444Y-1409674D02*
X1136491Y-1400150D01*
X1136491Y-1400150D02*
X1165063Y-1400150D01*
X1165063Y-1400150D02*
X1184110Y-1409674D01*
X1184110Y-1409674D02*
X1193634Y-1428722D01*
X1193634Y-1428722D02*
X1193634Y-1533484D01*
X1193634Y-1428722D02*
X1203158Y-1409674D01*
X1203158Y-1409674D02*
X1222205Y-1400150D01*
X1222205Y-1400150D02*
X1250777Y-1400150D01*
X1250777Y-1400150D02*
X1269825Y-1409674D01*
X1269825Y-1409674D02*
X1279348Y-1428722D01*
X1279348Y-1428722D02*
X1279348Y-1533484D01*
X1374586Y-1533484D02*
X1374586Y-1400150D01*
X1374586Y-1419198D02*
X1384110Y-1409674D01*
X1384110Y-1409674D02*
X1403158Y-1400150D01*
X1403158Y-1400150D02*
X1431729Y-1400150D01*
X1431729Y-1400150D02*
X1450777Y-1409674D01*
X1450777Y-1409674D02*
X1460301Y-1428722D01*
X1460301Y-1428722D02*
X1460301Y-1533484D01*
X1460301Y-1428722D02*
X1469824Y-1409674D01*
X1469824Y-1409674D02*
X1488872Y-1400150D01*
X1488872Y-1400150D02*
X1517443Y-1400150D01*
X1517443Y-1400150D02*
X1536491Y-1409674D01*
X1536491Y-1409674D02*
X1546015Y-1428722D01*
X1546015Y-1428722D02*
X1546015Y-1533484D01*
X1936491Y-1323960D02*
X1765063Y-1581103D01*
X2193634Y-1333484D02*
X2212682Y-1333484D01*
X2212682Y-1333484D02*
X2231729Y-1343008D01*
X2231729Y-1343008D02*
X2241253Y-1352531D01*
X2241253Y-1352531D02*
X2250777Y-1371579D01*
X2250777Y-1371579D02*
X2260301Y-1409674D01*
X2260301Y-1409674D02*
X2260301Y-1457293D01*
X2260301Y-1457293D02*
X2250777Y-1495388D01*
X2250777Y-1495388D02*
X2241253Y-1514436D01*
X2241253Y-1514436D02*
X2231729Y-1523960D01*
X2231729Y-1523960D02*
X2212682Y-1533484D01*
X2212682Y-1533484D02*
X2193634Y-1533484D01*
X2193634Y-1533484D02*
X2174587Y-1523960D01*
X2174587Y-1523960D02*
X2165063Y-1514436D01*
X2165063Y-1514436D02*
X2155539Y-1495388D01*
X2155539Y-1495388D02*
X2146015Y-1457293D01*
X2146015Y-1457293D02*
X2146015Y-1409674D01*
X2146015Y-1409674D02*
X2155539Y-1371579D01*
X2155539Y-1371579D02*
X2165063Y-1352531D01*
X2165063Y-1352531D02*
X2174587Y-1343008D01*
X2174587Y-1343008D02*
X2193634Y-1333484D01*
X2346015Y-1514436D02*
X2355539Y-1523960D01*
X2355539Y-1523960D02*
X2346015Y-1533484D01*
X2346015Y-1533484D02*
X2336491Y-1523960D01*
X2336491Y-1523960D02*
X2346015Y-1514436D01*
X2346015Y-1514436D02*
X2346015Y-1533484D01*
X2479348Y-1333484D02*
X2498396Y-1333484D01*
X2498396Y-1333484D02*
X2517444Y-1343008D01*
X2517444Y-1343008D02*
X2526968Y-1352531D01*
X2526968Y-1352531D02*
X2536491Y-1371579D01*
X2536491Y-1371579D02*
X2546015Y-1409674D01*
X2546015Y-1409674D02*
X2546015Y-1457293D01*
X2546015Y-1457293D02*
X2536491Y-1495388D01*
X2536491Y-1495388D02*
X2526968Y-1514436D01*
X2526968Y-1514436D02*
X2517444Y-1523960D01*
X2517444Y-1523960D02*
X2498396Y-1533484D01*
X2498396Y-1533484D02*
X2479348Y-1533484D01*
X2479348Y-1533484D02*
X2460301Y-1523960D01*
X2460301Y-1523960D02*
X2450777Y-1514436D01*
X2450777Y-1514436D02*
X2441253Y-1495388D01*
X2441253Y-1495388D02*
X2431729Y-1457293D01*
X2431729Y-1457293D02*
X2431729Y-1409674D01*
X2431729Y-1409674D02*
X2441253Y-1371579D01*
X2441253Y-1371579D02*
X2450777Y-1352531D01*
X2450777Y-1352531D02*
X2460301Y-1343008D01*
X2460301Y-1343008D02*
X2479348Y-1333484D01*
X2612682Y-1333484D02*
X2736491Y-1333484D01*
X2736491Y-1333484D02*
X2669825Y-1409674D01*
X2669825Y-1409674D02*
X2698396Y-1409674D01*
X2698396Y-1409674D02*
X2717444Y-1419198D01*
X2717444Y-1419198D02*
X2726968Y-1428722D01*
X2726968Y-1428722D02*
X2736491Y-1447769D01*
X2736491Y-1447769D02*
X2736491Y-1495388D01*
X2736491Y-1495388D02*
X2726968Y-1514436D01*
X2726968Y-1514436D02*
X2717444Y-1523960D01*
X2717444Y-1523960D02*
X2698396Y-1533484D01*
X2698396Y-1533484D02*
X2641253Y-1533484D01*
X2641253Y-1533484D02*
X2622206Y-1523960D01*
X2622206Y-1523960D02*
X2612682Y-1514436D01*
X2917444Y-1333484D02*
X2822206Y-1333484D01*
X2822206Y-1333484D02*
X2812682Y-1428722D01*
X2812682Y-1428722D02*
X2822206Y-1419198D01*
X2822206Y-1419198D02*
X2841253Y-1409674D01*
X2841253Y-1409674D02*
X2888872Y-1409674D01*
X2888872Y-1409674D02*
X2907920Y-1419198D01*
X2907920Y-1419198D02*
X2917444Y-1428722D01*
X2917444Y-1428722D02*
X2926967Y-1447769D01*
X2926967Y-1447769D02*
X2926967Y-1495388D01*
X2926967Y-1495388D02*
X2917444Y-1514436D01*
X2917444Y-1514436D02*
X2907920Y-1523960D01*
X2907920Y-1523960D02*
X2888872Y-1533484D01*
X2888872Y-1533484D02*
X2841253Y-1533484D01*
X2841253Y-1533484D02*
X2822206Y-1523960D01*
X2822206Y-1523960D02*
X2812682Y-1514436D01*
X3098396Y-1400150D02*
X3098396Y-1533484D01*
X3050777Y-1323960D02*
X3003158Y-1466817D01*
X3003158Y-1466817D02*
X3126967Y-1466817D01*
X3193634Y-1333484D02*
X3193634Y-1371579D01*
X3269825Y-1333484D02*
X3269825Y-1371579D01*
X3565063Y-1609674D02*
X3555539Y-1600150D01*
X3555539Y-1600150D02*
X3536491Y-1571579D01*
X3536491Y-1571579D02*
X3526968Y-1552531D01*
X3526968Y-1552531D02*
X3517444Y-1523960D01*
X3517444Y-1523960D02*
X3507920Y-1476341D01*
X3507920Y-1476341D02*
X3507920Y-1438246D01*
X3507920Y-1438246D02*
X3517444Y-1390627D01*
X3517444Y-1390627D02*
X3526968Y-1362055D01*
X3526968Y-1362055D02*
X3536491Y-1343008D01*
X3536491Y-1343008D02*
X3555539Y-1314436D01*
X3555539Y-1314436D02*
X3565063Y-1304912D01*
X3746015Y-1533484D02*
X3631729Y-1533484D01*
X3688872Y-1533484D02*
X3688872Y-1333484D01*
X3688872Y-1333484D02*
X3669825Y-1362055D01*
X3669825Y-1362055D02*
X3650777Y-1381103D01*
X3650777Y-1381103D02*
X3631729Y-1390627D01*
X3822206Y-1352531D02*
X3831729Y-1343008D01*
X3831729Y-1343008D02*
X3850777Y-1333484D01*
X3850777Y-1333484D02*
X3898396Y-1333484D01*
X3898396Y-1333484D02*
X3917444Y-1343008D01*
X3917444Y-1343008D02*
X3926968Y-1352531D01*
X3926968Y-1352531D02*
X3936491Y-1371579D01*
X3936491Y-1371579D02*
X3936491Y-1390627D01*
X3936491Y-1390627D02*
X3926968Y-1419198D01*
X3926968Y-1419198D02*
X3812682Y-1533484D01*
X3812682Y-1533484D02*
X3936491Y-1533484D01*
X4174587Y-1533484D02*
X4174587Y-1333484D01*
X4260301Y-1533484D02*
X4260301Y-1428722D01*
X4260301Y-1428722D02*
X4250777Y-1409674D01*
X4250777Y-1409674D02*
X4231730Y-1400150D01*
X4231730Y-1400150D02*
X4203158Y-1400150D01*
X4203158Y-1400150D02*
X4184110Y-1409674D01*
X4184110Y-1409674D02*
X4174587Y-1419198D01*
X4384111Y-1533484D02*
X4365063Y-1523960D01*
X4365063Y-1523960D02*
X4355539Y-1514436D01*
X4355539Y-1514436D02*
X4346015Y-1495388D01*
X4346015Y-1495388D02*
X4346015Y-1438246D01*
X4346015Y-1438246D02*
X4355539Y-1419198D01*
X4355539Y-1419198D02*
X4365063Y-1409674D01*
X4365063Y-1409674D02*
X4384111Y-1400150D01*
X4384111Y-1400150D02*
X4412682Y-1400150D01*
X4412682Y-1400150D02*
X4431730Y-1409674D01*
X4431730Y-1409674D02*
X4441253Y-1419198D01*
X4441253Y-1419198D02*
X4450777Y-1438246D01*
X4450777Y-1438246D02*
X4450777Y-1495388D01*
X4450777Y-1495388D02*
X4441253Y-1514436D01*
X4441253Y-1514436D02*
X4431730Y-1523960D01*
X4431730Y-1523960D02*
X4412682Y-1533484D01*
X4412682Y-1533484D02*
X4384111Y-1533484D01*
X4565063Y-1533484D02*
X4546015Y-1523960D01*
X4546015Y-1523960D02*
X4536492Y-1504912D01*
X4536492Y-1504912D02*
X4536492Y-1333484D01*
X4717444Y-1523960D02*
X4698396Y-1533484D01*
X4698396Y-1533484D02*
X4660301Y-1533484D01*
X4660301Y-1533484D02*
X4641253Y-1523960D01*
X4641253Y-1523960D02*
X4631730Y-1504912D01*
X4631730Y-1504912D02*
X4631730Y-1428722D01*
X4631730Y-1428722D02*
X4641253Y-1409674D01*
X4641253Y-1409674D02*
X4660301Y-1400150D01*
X4660301Y-1400150D02*
X4698396Y-1400150D01*
X4698396Y-1400150D02*
X4717444Y-1409674D01*
X4717444Y-1409674D02*
X4726968Y-1428722D01*
X4726968Y-1428722D02*
X4726968Y-1447769D01*
X4726968Y-1447769D02*
X4631730Y-1466817D01*
X4803158Y-1523960D02*
X4822206Y-1533484D01*
X4822206Y-1533484D02*
X4860301Y-1533484D01*
X4860301Y-1533484D02*
X4879349Y-1523960D01*
X4879349Y-1523960D02*
X4888873Y-1504912D01*
X4888873Y-1504912D02*
X4888873Y-1495388D01*
X4888873Y-1495388D02*
X4879349Y-1476341D01*
X4879349Y-1476341D02*
X4860301Y-1466817D01*
X4860301Y-1466817D02*
X4831730Y-1466817D01*
X4831730Y-1466817D02*
X4812682Y-1457293D01*
X4812682Y-1457293D02*
X4803158Y-1438246D01*
X4803158Y-1438246D02*
X4803158Y-1428722D01*
X4803158Y-1428722D02*
X4812682Y-1409674D01*
X4812682Y-1409674D02*
X4831730Y-1400150D01*
X4831730Y-1400150D02*
X4860301Y-1400150D01*
X4860301Y-1400150D02*
X4879349Y-1409674D01*
X4955539Y-1609674D02*
X4965063Y-1600150D01*
X4965063Y-1600150D02*
X4984111Y-1571579D01*
X4984111Y-1571579D02*
X4993634Y-1552531D01*
X4993634Y-1552531D02*
X5003158Y-1523960D01*
X5003158Y-1523960D02*
X5012682Y-1476341D01*
X5012682Y-1476341D02*
X5012682Y-1438246D01*
X5012682Y-1438246D02*
X5003158Y-1390627D01*
X5003158Y-1390627D02*
X4993634Y-1362055D01*
X4993634Y-1362055D02*
X4984111Y-1343008D01*
X4984111Y-1343008D02*
X4965063Y-1314436D01*
X4965063Y-1314436D02*
X4955539Y-1304912D01*
D11*
X-60000Y-1756000D02*
X-10000Y-1706000D01*
X-60000Y-1656000D01*
X-110000Y-1706000D01*
X-60000Y-1756000D01*
D10*
X355539Y-1797484D02*
X241253Y-1797484D01*
X298396Y-1797484D02*
X298396Y-1597484D01*
X298396Y-1597484D02*
X279348Y-1626055D01*
X279348Y-1626055D02*
X260301Y-1645103D01*
X260301Y-1645103D02*
X241253Y-1654627D01*
X441253Y-1778436D02*
X450777Y-1787960D01*
X450777Y-1787960D02*
X441253Y-1797484D01*
X441253Y-1797484D02*
X431729Y-1787960D01*
X431729Y-1787960D02*
X441253Y-1778436D01*
X441253Y-1778436D02*
X441253Y-1797484D01*
X574586Y-1597484D02*
X593634Y-1597484D01*
X593634Y-1597484D02*
X612682Y-1607008D01*
X612682Y-1607008D02*
X622205Y-1616531D01*
X622205Y-1616531D02*
X631729Y-1635579D01*
X631729Y-1635579D02*
X641253Y-1673674D01*
X641253Y-1673674D02*
X641253Y-1721293D01*
X641253Y-1721293D02*
X631729Y-1759388D01*
X631729Y-1759388D02*
X622205Y-1778436D01*
X622205Y-1778436D02*
X612682Y-1787960D01*
X612682Y-1787960D02*
X593634Y-1797484D01*
X593634Y-1797484D02*
X574586Y-1797484D01*
X574586Y-1797484D02*
X555539Y-1787960D01*
X555539Y-1787960D02*
X546015Y-1778436D01*
X546015Y-1778436D02*
X536491Y-1759388D01*
X536491Y-1759388D02*
X526967Y-1721293D01*
X526967Y-1721293D02*
X526967Y-1673674D01*
X526967Y-1673674D02*
X536491Y-1635579D01*
X536491Y-1635579D02*
X546015Y-1616531D01*
X546015Y-1616531D02*
X555539Y-1607008D01*
X555539Y-1607008D02*
X574586Y-1597484D01*
X765062Y-1597484D02*
X784110Y-1597484D01*
X784110Y-1597484D02*
X803158Y-1607008D01*
X803158Y-1607008D02*
X812682Y-1616531D01*
X812682Y-1616531D02*
X822205Y-1635579D01*
X822205Y-1635579D02*
X831729Y-1673674D01*
X831729Y-1673674D02*
X831729Y-1721293D01*
X831729Y-1721293D02*
X822205Y-1759388D01*
X822205Y-1759388D02*
X812682Y-1778436D01*
X812682Y-1778436D02*
X803158Y-1787960D01*
X803158Y-1787960D02*
X784110Y-1797484D01*
X784110Y-1797484D02*
X765062Y-1797484D01*
X765062Y-1797484D02*
X746015Y-1787960D01*
X746015Y-1787960D02*
X736491Y-1778436D01*
X736491Y-1778436D02*
X726967Y-1759388D01*
X726967Y-1759388D02*
X717443Y-1721293D01*
X717443Y-1721293D02*
X717443Y-1673674D01*
X717443Y-1673674D02*
X726967Y-1635579D01*
X726967Y-1635579D02*
X736491Y-1616531D01*
X736491Y-1616531D02*
X746015Y-1607008D01*
X746015Y-1607008D02*
X765062Y-1597484D01*
X955539Y-1597484D02*
X974586Y-1597484D01*
X974586Y-1597484D02*
X993634Y-1607008D01*
X993634Y-1607008D02*
X1003158Y-1616531D01*
X1003158Y-1616531D02*
X1012682Y-1635579D01*
X1012682Y-1635579D02*
X1022205Y-1673674D01*
X1022205Y-1673674D02*
X1022205Y-1721293D01*
X1022205Y-1721293D02*
X1012682Y-1759388D01*
X1012682Y-1759388D02*
X1003158Y-1778436D01*
X1003158Y-1778436D02*
X993634Y-1787960D01*
X993634Y-1787960D02*
X974586Y-1797484D01*
X974586Y-1797484D02*
X955539Y-1797484D01*
X955539Y-1797484D02*
X936491Y-1787960D01*
X936491Y-1787960D02*
X926967Y-1778436D01*
X926967Y-1778436D02*
X917443Y-1759388D01*
X917443Y-1759388D02*
X907920Y-1721293D01*
X907920Y-1721293D02*
X907920Y-1673674D01*
X907920Y-1673674D02*
X917443Y-1635579D01*
X917443Y-1635579D02*
X926967Y-1616531D01*
X926967Y-1616531D02*
X936491Y-1607008D01*
X936491Y-1607008D02*
X955539Y-1597484D01*
X1107920Y-1797484D02*
X1107920Y-1664150D01*
X1107920Y-1683198D02*
X1117444Y-1673674D01*
X1117444Y-1673674D02*
X1136491Y-1664150D01*
X1136491Y-1664150D02*
X1165063Y-1664150D01*
X1165063Y-1664150D02*
X1184110Y-1673674D01*
X1184110Y-1673674D02*
X1193634Y-1692722D01*
X1193634Y-1692722D02*
X1193634Y-1797484D01*
X1193634Y-1692722D02*
X1203158Y-1673674D01*
X1203158Y-1673674D02*
X1222205Y-1664150D01*
X1222205Y-1664150D02*
X1250777Y-1664150D01*
X1250777Y-1664150D02*
X1269825Y-1673674D01*
X1269825Y-1673674D02*
X1279348Y-1692722D01*
X1279348Y-1692722D02*
X1279348Y-1797484D01*
X1374586Y-1797484D02*
X1374586Y-1664150D01*
X1374586Y-1683198D02*
X1384110Y-1673674D01*
X1384110Y-1673674D02*
X1403158Y-1664150D01*
X1403158Y-1664150D02*
X1431729Y-1664150D01*
X1431729Y-1664150D02*
X1450777Y-1673674D01*
X1450777Y-1673674D02*
X1460301Y-1692722D01*
X1460301Y-1692722D02*
X1460301Y-1797484D01*
X1460301Y-1692722D02*
X1469824Y-1673674D01*
X1469824Y-1673674D02*
X1488872Y-1664150D01*
X1488872Y-1664150D02*
X1517443Y-1664150D01*
X1517443Y-1664150D02*
X1536491Y-1673674D01*
X1536491Y-1673674D02*
X1546015Y-1692722D01*
X1546015Y-1692722D02*
X1546015Y-1797484D01*
X1936491Y-1587960D02*
X1765063Y-1845103D01*
X2193634Y-1597484D02*
X2212682Y-1597484D01*
X2212682Y-1597484D02*
X2231729Y-1607008D01*
X2231729Y-1607008D02*
X2241253Y-1616531D01*
X2241253Y-1616531D02*
X2250777Y-1635579D01*
X2250777Y-1635579D02*
X2260301Y-1673674D01*
X2260301Y-1673674D02*
X2260301Y-1721293D01*
X2260301Y-1721293D02*
X2250777Y-1759388D01*
X2250777Y-1759388D02*
X2241253Y-1778436D01*
X2241253Y-1778436D02*
X2231729Y-1787960D01*
X2231729Y-1787960D02*
X2212682Y-1797484D01*
X2212682Y-1797484D02*
X2193634Y-1797484D01*
X2193634Y-1797484D02*
X2174587Y-1787960D01*
X2174587Y-1787960D02*
X2165063Y-1778436D01*
X2165063Y-1778436D02*
X2155539Y-1759388D01*
X2155539Y-1759388D02*
X2146015Y-1721293D01*
X2146015Y-1721293D02*
X2146015Y-1673674D01*
X2146015Y-1673674D02*
X2155539Y-1635579D01*
X2155539Y-1635579D02*
X2165063Y-1616531D01*
X2165063Y-1616531D02*
X2174587Y-1607008D01*
X2174587Y-1607008D02*
X2193634Y-1597484D01*
X2346015Y-1778436D02*
X2355539Y-1787960D01*
X2355539Y-1787960D02*
X2346015Y-1797484D01*
X2346015Y-1797484D02*
X2336491Y-1787960D01*
X2336491Y-1787960D02*
X2346015Y-1778436D01*
X2346015Y-1778436D02*
X2346015Y-1797484D01*
X2479348Y-1597484D02*
X2498396Y-1597484D01*
X2498396Y-1597484D02*
X2517444Y-1607008D01*
X2517444Y-1607008D02*
X2526968Y-1616531D01*
X2526968Y-1616531D02*
X2536491Y-1635579D01*
X2536491Y-1635579D02*
X2546015Y-1673674D01*
X2546015Y-1673674D02*
X2546015Y-1721293D01*
X2546015Y-1721293D02*
X2536491Y-1759388D01*
X2536491Y-1759388D02*
X2526968Y-1778436D01*
X2526968Y-1778436D02*
X2517444Y-1787960D01*
X2517444Y-1787960D02*
X2498396Y-1797484D01*
X2498396Y-1797484D02*
X2479348Y-1797484D01*
X2479348Y-1797484D02*
X2460301Y-1787960D01*
X2460301Y-1787960D02*
X2450777Y-1778436D01*
X2450777Y-1778436D02*
X2441253Y-1759388D01*
X2441253Y-1759388D02*
X2431729Y-1721293D01*
X2431729Y-1721293D02*
X2431729Y-1673674D01*
X2431729Y-1673674D02*
X2441253Y-1635579D01*
X2441253Y-1635579D02*
X2450777Y-1616531D01*
X2450777Y-1616531D02*
X2460301Y-1607008D01*
X2460301Y-1607008D02*
X2479348Y-1597484D01*
X2612682Y-1597484D02*
X2736491Y-1597484D01*
X2736491Y-1597484D02*
X2669825Y-1673674D01*
X2669825Y-1673674D02*
X2698396Y-1673674D01*
X2698396Y-1673674D02*
X2717444Y-1683198D01*
X2717444Y-1683198D02*
X2726968Y-1692722D01*
X2726968Y-1692722D02*
X2736491Y-1711769D01*
X2736491Y-1711769D02*
X2736491Y-1759388D01*
X2736491Y-1759388D02*
X2726968Y-1778436D01*
X2726968Y-1778436D02*
X2717444Y-1787960D01*
X2717444Y-1787960D02*
X2698396Y-1797484D01*
X2698396Y-1797484D02*
X2641253Y-1797484D01*
X2641253Y-1797484D02*
X2622206Y-1787960D01*
X2622206Y-1787960D02*
X2612682Y-1778436D01*
X2831729Y-1797484D02*
X2869825Y-1797484D01*
X2869825Y-1797484D02*
X2888872Y-1787960D01*
X2888872Y-1787960D02*
X2898396Y-1778436D01*
X2898396Y-1778436D02*
X2917444Y-1749865D01*
X2917444Y-1749865D02*
X2926967Y-1711769D01*
X2926967Y-1711769D02*
X2926967Y-1635579D01*
X2926967Y-1635579D02*
X2917444Y-1616531D01*
X2917444Y-1616531D02*
X2907920Y-1607008D01*
X2907920Y-1607008D02*
X2888872Y-1597484D01*
X2888872Y-1597484D02*
X2850777Y-1597484D01*
X2850777Y-1597484D02*
X2831729Y-1607008D01*
X2831729Y-1607008D02*
X2822206Y-1616531D01*
X2822206Y-1616531D02*
X2812682Y-1635579D01*
X2812682Y-1635579D02*
X2812682Y-1683198D01*
X2812682Y-1683198D02*
X2822206Y-1702246D01*
X2822206Y-1702246D02*
X2831729Y-1711769D01*
X2831729Y-1711769D02*
X2850777Y-1721293D01*
X2850777Y-1721293D02*
X2888872Y-1721293D01*
X2888872Y-1721293D02*
X2907920Y-1711769D01*
X2907920Y-1711769D02*
X2917444Y-1702246D01*
X2917444Y-1702246D02*
X2926967Y-1683198D01*
X3098396Y-1664150D02*
X3098396Y-1797484D01*
X3050777Y-1587960D02*
X3003158Y-1730817D01*
X3003158Y-1730817D02*
X3126967Y-1730817D01*
X3193634Y-1597484D02*
X3193634Y-1635579D01*
X3269825Y-1597484D02*
X3269825Y-1635579D01*
X3565063Y-1873674D02*
X3555539Y-1864150D01*
X3555539Y-1864150D02*
X3536491Y-1835579D01*
X3536491Y-1835579D02*
X3526968Y-1816531D01*
X3526968Y-1816531D02*
X3517444Y-1787960D01*
X3517444Y-1787960D02*
X3507920Y-1740341D01*
X3507920Y-1740341D02*
X3507920Y-1702246D01*
X3507920Y-1702246D02*
X3517444Y-1654627D01*
X3517444Y-1654627D02*
X3526968Y-1626055D01*
X3526968Y-1626055D02*
X3536491Y-1607008D01*
X3536491Y-1607008D02*
X3555539Y-1578436D01*
X3555539Y-1578436D02*
X3565063Y-1568912D01*
X3631729Y-1616531D02*
X3641253Y-1607008D01*
X3641253Y-1607008D02*
X3660301Y-1597484D01*
X3660301Y-1597484D02*
X3707920Y-1597484D01*
X3707920Y-1597484D02*
X3726968Y-1607008D01*
X3726968Y-1607008D02*
X3736491Y-1616531D01*
X3736491Y-1616531D02*
X3746015Y-1635579D01*
X3746015Y-1635579D02*
X3746015Y-1654627D01*
X3746015Y-1654627D02*
X3736491Y-1683198D01*
X3736491Y-1683198D02*
X3622206Y-1797484D01*
X3622206Y-1797484D02*
X3746015Y-1797484D01*
X3926968Y-1597484D02*
X3831729Y-1597484D01*
X3831729Y-1597484D02*
X3822206Y-1692722D01*
X3822206Y-1692722D02*
X3831729Y-1683198D01*
X3831729Y-1683198D02*
X3850777Y-1673674D01*
X3850777Y-1673674D02*
X3898396Y-1673674D01*
X3898396Y-1673674D02*
X3917444Y-1683198D01*
X3917444Y-1683198D02*
X3926968Y-1692722D01*
X3926968Y-1692722D02*
X3936491Y-1711769D01*
X3936491Y-1711769D02*
X3936491Y-1759388D01*
X3936491Y-1759388D02*
X3926968Y-1778436D01*
X3926968Y-1778436D02*
X3917444Y-1787960D01*
X3917444Y-1787960D02*
X3898396Y-1797484D01*
X3898396Y-1797484D02*
X3850777Y-1797484D01*
X3850777Y-1797484D02*
X3831729Y-1787960D01*
X3831729Y-1787960D02*
X3822206Y-1778436D01*
X4174587Y-1797484D02*
X4174587Y-1597484D01*
X4260301Y-1797484D02*
X4260301Y-1692722D01*
X4260301Y-1692722D02*
X4250777Y-1673674D01*
X4250777Y-1673674D02*
X4231730Y-1664150D01*
X4231730Y-1664150D02*
X4203158Y-1664150D01*
X4203158Y-1664150D02*
X4184110Y-1673674D01*
X4184110Y-1673674D02*
X4174587Y-1683198D01*
X4384111Y-1797484D02*
X4365063Y-1787960D01*
X4365063Y-1787960D02*
X4355539Y-1778436D01*
X4355539Y-1778436D02*
X4346015Y-1759388D01*
X4346015Y-1759388D02*
X4346015Y-1702246D01*
X4346015Y-1702246D02*
X4355539Y-1683198D01*
X4355539Y-1683198D02*
X4365063Y-1673674D01*
X4365063Y-1673674D02*
X4384111Y-1664150D01*
X4384111Y-1664150D02*
X4412682Y-1664150D01*
X4412682Y-1664150D02*
X4431730Y-1673674D01*
X4431730Y-1673674D02*
X4441253Y-1683198D01*
X4441253Y-1683198D02*
X4450777Y-1702246D01*
X4450777Y-1702246D02*
X4450777Y-1759388D01*
X4450777Y-1759388D02*
X4441253Y-1778436D01*
X4441253Y-1778436D02*
X4431730Y-1787960D01*
X4431730Y-1787960D02*
X4412682Y-1797484D01*
X4412682Y-1797484D02*
X4384111Y-1797484D01*
X4565063Y-1797484D02*
X4546015Y-1787960D01*
X4546015Y-1787960D02*
X4536492Y-1768912D01*
X4536492Y-1768912D02*
X4536492Y-1597484D01*
X4717444Y-1787960D02*
X4698396Y-1797484D01*
X4698396Y-1797484D02*
X4660301Y-1797484D01*
X4660301Y-1797484D02*
X4641253Y-1787960D01*
X4641253Y-1787960D02*
X4631730Y-1768912D01*
X4631730Y-1768912D02*
X4631730Y-1692722D01*
X4631730Y-1692722D02*
X4641253Y-1673674D01*
X4641253Y-1673674D02*
X4660301Y-1664150D01*
X4660301Y-1664150D02*
X4698396Y-1664150D01*
X4698396Y-1664150D02*
X4717444Y-1673674D01*
X4717444Y-1673674D02*
X4726968Y-1692722D01*
X4726968Y-1692722D02*
X4726968Y-1711769D01*
X4726968Y-1711769D02*
X4631730Y-1730817D01*
X4803158Y-1787960D02*
X4822206Y-1797484D01*
X4822206Y-1797484D02*
X4860301Y-1797484D01*
X4860301Y-1797484D02*
X4879349Y-1787960D01*
X4879349Y-1787960D02*
X4888873Y-1768912D01*
X4888873Y-1768912D02*
X4888873Y-1759388D01*
X4888873Y-1759388D02*
X4879349Y-1740341D01*
X4879349Y-1740341D02*
X4860301Y-1730817D01*
X4860301Y-1730817D02*
X4831730Y-1730817D01*
X4831730Y-1730817D02*
X4812682Y-1721293D01*
X4812682Y-1721293D02*
X4803158Y-1702246D01*
X4803158Y-1702246D02*
X4803158Y-1692722D01*
X4803158Y-1692722D02*
X4812682Y-1673674D01*
X4812682Y-1673674D02*
X4831730Y-1664150D01*
X4831730Y-1664150D02*
X4860301Y-1664150D01*
X4860301Y-1664150D02*
X4879349Y-1673674D01*
X4955539Y-1873674D02*
X4965063Y-1864150D01*
X4965063Y-1864150D02*
X4984111Y-1835579D01*
X4984111Y-1835579D02*
X4993634Y-1816531D01*
X4993634Y-1816531D02*
X5003158Y-1787960D01*
X5003158Y-1787960D02*
X5012682Y-1740341D01*
X5012682Y-1740341D02*
X5012682Y-1702246D01*
X5012682Y-1702246D02*
X5003158Y-1654627D01*
X5003158Y-1654627D02*
X4993634Y-1626055D01*
X4993634Y-1626055D02*
X4984111Y-1607008D01*
X4984111Y-1607008D02*
X4965063Y-1578436D01*
X4965063Y-1578436D02*
X4955539Y-1568912D01*
D12*
X-173000Y-1888500D02*
X-10000Y-2051500D01*
X-10000Y-1888500D02*
X-173000Y-2051500D01*
X-10000Y-1970000D02*
G75*
G02*
X-173000Y-1970000I-81500J0D01*
G01*
X-173000Y-1970000D02*
G75*
G02*
X-10000Y-1970000I81500J0D01*
G01*
D10*
X355539Y-2061484D02*
X241253Y-2061484D01*
X298396Y-2061484D02*
X298396Y-1861484D01*
X298396Y-1861484D02*
X279348Y-1890055D01*
X279348Y-1890055D02*
X260301Y-1909103D01*
X260301Y-1909103D02*
X241253Y-1918627D01*
X441253Y-2042436D02*
X450777Y-2051960D01*
X450777Y-2051960D02*
X441253Y-2061484D01*
X441253Y-2061484D02*
X431729Y-2051960D01*
X431729Y-2051960D02*
X441253Y-2042436D01*
X441253Y-2042436D02*
X441253Y-2061484D01*
X622205Y-1861484D02*
X584110Y-1861484D01*
X584110Y-1861484D02*
X565063Y-1871008D01*
X565063Y-1871008D02*
X555539Y-1880531D01*
X555539Y-1880531D02*
X536491Y-1909103D01*
X536491Y-1909103D02*
X526967Y-1947198D01*
X526967Y-1947198D02*
X526967Y-2023388D01*
X526967Y-2023388D02*
X536491Y-2042436D01*
X536491Y-2042436D02*
X546015Y-2051960D01*
X546015Y-2051960D02*
X565063Y-2061484D01*
X565063Y-2061484D02*
X603158Y-2061484D01*
X603158Y-2061484D02*
X622205Y-2051960D01*
X622205Y-2051960D02*
X631729Y-2042436D01*
X631729Y-2042436D02*
X641253Y-2023388D01*
X641253Y-2023388D02*
X641253Y-1975769D01*
X641253Y-1975769D02*
X631729Y-1956722D01*
X631729Y-1956722D02*
X622205Y-1947198D01*
X622205Y-1947198D02*
X603158Y-1937674D01*
X603158Y-1937674D02*
X565063Y-1937674D01*
X565063Y-1937674D02*
X546015Y-1947198D01*
X546015Y-1947198D02*
X536491Y-1956722D01*
X536491Y-1956722D02*
X526967Y-1975769D01*
X707920Y-1861484D02*
X831729Y-1861484D01*
X831729Y-1861484D02*
X765062Y-1937674D01*
X765062Y-1937674D02*
X793634Y-1937674D01*
X793634Y-1937674D02*
X812682Y-1947198D01*
X812682Y-1947198D02*
X822205Y-1956722D01*
X822205Y-1956722D02*
X831729Y-1975769D01*
X831729Y-1975769D02*
X831729Y-2023388D01*
X831729Y-2023388D02*
X822205Y-2042436D01*
X822205Y-2042436D02*
X812682Y-2051960D01*
X812682Y-2051960D02*
X793634Y-2061484D01*
X793634Y-2061484D02*
X736491Y-2061484D01*
X736491Y-2061484D02*
X717443Y-2051960D01*
X717443Y-2051960D02*
X707920Y-2042436D01*
X955539Y-1861484D02*
X974586Y-1861484D01*
X974586Y-1861484D02*
X993634Y-1871008D01*
X993634Y-1871008D02*
X1003158Y-1880531D01*
X1003158Y-1880531D02*
X1012682Y-1899579D01*
X1012682Y-1899579D02*
X1022205Y-1937674D01*
X1022205Y-1937674D02*
X1022205Y-1985293D01*
X1022205Y-1985293D02*
X1012682Y-2023388D01*
X1012682Y-2023388D02*
X1003158Y-2042436D01*
X1003158Y-2042436D02*
X993634Y-2051960D01*
X993634Y-2051960D02*
X974586Y-2061484D01*
X974586Y-2061484D02*
X955539Y-2061484D01*
X955539Y-2061484D02*
X936491Y-2051960D01*
X936491Y-2051960D02*
X926967Y-2042436D01*
X926967Y-2042436D02*
X917443Y-2023388D01*
X917443Y-2023388D02*
X907920Y-1985293D01*
X907920Y-1985293D02*
X907920Y-1937674D01*
X907920Y-1937674D02*
X917443Y-1899579D01*
X917443Y-1899579D02*
X926967Y-1880531D01*
X926967Y-1880531D02*
X936491Y-1871008D01*
X936491Y-1871008D02*
X955539Y-1861484D01*
X1107920Y-2061484D02*
X1107920Y-1928150D01*
X1107920Y-1947198D02*
X1117444Y-1937674D01*
X1117444Y-1937674D02*
X1136491Y-1928150D01*
X1136491Y-1928150D02*
X1165063Y-1928150D01*
X1165063Y-1928150D02*
X1184110Y-1937674D01*
X1184110Y-1937674D02*
X1193634Y-1956722D01*
X1193634Y-1956722D02*
X1193634Y-2061484D01*
X1193634Y-1956722D02*
X1203158Y-1937674D01*
X1203158Y-1937674D02*
X1222205Y-1928150D01*
X1222205Y-1928150D02*
X1250777Y-1928150D01*
X1250777Y-1928150D02*
X1269825Y-1937674D01*
X1269825Y-1937674D02*
X1279348Y-1956722D01*
X1279348Y-1956722D02*
X1279348Y-2061484D01*
X1374586Y-2061484D02*
X1374586Y-1928150D01*
X1374586Y-1947198D02*
X1384110Y-1937674D01*
X1384110Y-1937674D02*
X1403158Y-1928150D01*
X1403158Y-1928150D02*
X1431729Y-1928150D01*
X1431729Y-1928150D02*
X1450777Y-1937674D01*
X1450777Y-1937674D02*
X1460301Y-1956722D01*
X1460301Y-1956722D02*
X1460301Y-2061484D01*
X1460301Y-1956722D02*
X1469824Y-1937674D01*
X1469824Y-1937674D02*
X1488872Y-1928150D01*
X1488872Y-1928150D02*
X1517443Y-1928150D01*
X1517443Y-1928150D02*
X1536491Y-1937674D01*
X1536491Y-1937674D02*
X1546015Y-1956722D01*
X1546015Y-1956722D02*
X1546015Y-2061484D01*
X1936491Y-1851960D02*
X1765063Y-2109103D01*
X2193634Y-1861484D02*
X2212682Y-1861484D01*
X2212682Y-1861484D02*
X2231729Y-1871008D01*
X2231729Y-1871008D02*
X2241253Y-1880531D01*
X2241253Y-1880531D02*
X2250777Y-1899579D01*
X2250777Y-1899579D02*
X2260301Y-1937674D01*
X2260301Y-1937674D02*
X2260301Y-1985293D01*
X2260301Y-1985293D02*
X2250777Y-2023388D01*
X2250777Y-2023388D02*
X2241253Y-2042436D01*
X2241253Y-2042436D02*
X2231729Y-2051960D01*
X2231729Y-2051960D02*
X2212682Y-2061484D01*
X2212682Y-2061484D02*
X2193634Y-2061484D01*
X2193634Y-2061484D02*
X2174587Y-2051960D01*
X2174587Y-2051960D02*
X2165063Y-2042436D01*
X2165063Y-2042436D02*
X2155539Y-2023388D01*
X2155539Y-2023388D02*
X2146015Y-1985293D01*
X2146015Y-1985293D02*
X2146015Y-1937674D01*
X2146015Y-1937674D02*
X2155539Y-1899579D01*
X2155539Y-1899579D02*
X2165063Y-1880531D01*
X2165063Y-1880531D02*
X2174587Y-1871008D01*
X2174587Y-1871008D02*
X2193634Y-1861484D01*
X2346015Y-2042436D02*
X2355539Y-2051960D01*
X2355539Y-2051960D02*
X2346015Y-2061484D01*
X2346015Y-2061484D02*
X2336491Y-2051960D01*
X2336491Y-2051960D02*
X2346015Y-2042436D01*
X2346015Y-2042436D02*
X2346015Y-2061484D01*
X2479348Y-1861484D02*
X2498396Y-1861484D01*
X2498396Y-1861484D02*
X2517444Y-1871008D01*
X2517444Y-1871008D02*
X2526968Y-1880531D01*
X2526968Y-1880531D02*
X2536491Y-1899579D01*
X2536491Y-1899579D02*
X2546015Y-1937674D01*
X2546015Y-1937674D02*
X2546015Y-1985293D01*
X2546015Y-1985293D02*
X2536491Y-2023388D01*
X2536491Y-2023388D02*
X2526968Y-2042436D01*
X2526968Y-2042436D02*
X2517444Y-2051960D01*
X2517444Y-2051960D02*
X2498396Y-2061484D01*
X2498396Y-2061484D02*
X2479348Y-2061484D01*
X2479348Y-2061484D02*
X2460301Y-2051960D01*
X2460301Y-2051960D02*
X2450777Y-2042436D01*
X2450777Y-2042436D02*
X2441253Y-2023388D01*
X2441253Y-2023388D02*
X2431729Y-1985293D01*
X2431729Y-1985293D02*
X2431729Y-1937674D01*
X2431729Y-1937674D02*
X2441253Y-1899579D01*
X2441253Y-1899579D02*
X2450777Y-1880531D01*
X2450777Y-1880531D02*
X2460301Y-1871008D01*
X2460301Y-1871008D02*
X2479348Y-1861484D01*
X2717444Y-1861484D02*
X2679348Y-1861484D01*
X2679348Y-1861484D02*
X2660301Y-1871008D01*
X2660301Y-1871008D02*
X2650777Y-1880531D01*
X2650777Y-1880531D02*
X2631729Y-1909103D01*
X2631729Y-1909103D02*
X2622206Y-1947198D01*
X2622206Y-1947198D02*
X2622206Y-2023388D01*
X2622206Y-2023388D02*
X2631729Y-2042436D01*
X2631729Y-2042436D02*
X2641253Y-2051960D01*
X2641253Y-2051960D02*
X2660301Y-2061484D01*
X2660301Y-2061484D02*
X2698396Y-2061484D01*
X2698396Y-2061484D02*
X2717444Y-2051960D01*
X2717444Y-2051960D02*
X2726968Y-2042436D01*
X2726968Y-2042436D02*
X2736491Y-2023388D01*
X2736491Y-2023388D02*
X2736491Y-1975769D01*
X2736491Y-1975769D02*
X2726968Y-1956722D01*
X2726968Y-1956722D02*
X2717444Y-1947198D01*
X2717444Y-1947198D02*
X2698396Y-1937674D01*
X2698396Y-1937674D02*
X2660301Y-1937674D01*
X2660301Y-1937674D02*
X2641253Y-1947198D01*
X2641253Y-1947198D02*
X2631729Y-1956722D01*
X2631729Y-1956722D02*
X2622206Y-1975769D01*
X2907920Y-1928150D02*
X2907920Y-2061484D01*
X2860301Y-1851960D02*
X2812682Y-1994817D01*
X2812682Y-1994817D02*
X2936491Y-1994817D01*
X3003158Y-1880531D02*
X3012682Y-1871008D01*
X3012682Y-1871008D02*
X3031729Y-1861484D01*
X3031729Y-1861484D02*
X3079348Y-1861484D01*
X3079348Y-1861484D02*
X3098396Y-1871008D01*
X3098396Y-1871008D02*
X3107920Y-1880531D01*
X3107920Y-1880531D02*
X3117444Y-1899579D01*
X3117444Y-1899579D02*
X3117444Y-1918627D01*
X3117444Y-1918627D02*
X3107920Y-1947198D01*
X3107920Y-1947198D02*
X2993634Y-2061484D01*
X2993634Y-2061484D02*
X3117444Y-2061484D01*
X3193634Y-1861484D02*
X3193634Y-1899579D01*
X3269825Y-1861484D02*
X3269825Y-1899579D01*
X3565063Y-2137674D02*
X3555539Y-2128150D01*
X3555539Y-2128150D02*
X3536491Y-2099579D01*
X3536491Y-2099579D02*
X3526968Y-2080531D01*
X3526968Y-2080531D02*
X3517444Y-2051960D01*
X3517444Y-2051960D02*
X3507920Y-2004341D01*
X3507920Y-2004341D02*
X3507920Y-1966246D01*
X3507920Y-1966246D02*
X3517444Y-1918627D01*
X3517444Y-1918627D02*
X3526968Y-1890055D01*
X3526968Y-1890055D02*
X3536491Y-1871008D01*
X3536491Y-1871008D02*
X3555539Y-1842436D01*
X3555539Y-1842436D02*
X3565063Y-1832912D01*
X3631729Y-1880531D02*
X3641253Y-1871008D01*
X3641253Y-1871008D02*
X3660301Y-1861484D01*
X3660301Y-1861484D02*
X3707920Y-1861484D01*
X3707920Y-1861484D02*
X3726968Y-1871008D01*
X3726968Y-1871008D02*
X3736491Y-1880531D01*
X3736491Y-1880531D02*
X3746015Y-1899579D01*
X3746015Y-1899579D02*
X3746015Y-1918627D01*
X3746015Y-1918627D02*
X3736491Y-1947198D01*
X3736491Y-1947198D02*
X3622206Y-2061484D01*
X3622206Y-2061484D02*
X3746015Y-2061484D01*
X3984110Y-2061484D02*
X3984110Y-1861484D01*
X4069825Y-2061484D02*
X4069825Y-1956722D01*
X4069825Y-1956722D02*
X4060301Y-1937674D01*
X4060301Y-1937674D02*
X4041253Y-1928150D01*
X4041253Y-1928150D02*
X4012682Y-1928150D01*
X4012682Y-1928150D02*
X3993634Y-1937674D01*
X3993634Y-1937674D02*
X3984110Y-1947198D01*
X4193634Y-2061484D02*
X4174587Y-2051960D01*
X4174587Y-2051960D02*
X4165063Y-2042436D01*
X4165063Y-2042436D02*
X4155539Y-2023388D01*
X4155539Y-2023388D02*
X4155539Y-1966246D01*
X4155539Y-1966246D02*
X4165063Y-1947198D01*
X4165063Y-1947198D02*
X4174587Y-1937674D01*
X4174587Y-1937674D02*
X4193634Y-1928150D01*
X4193634Y-1928150D02*
X4222206Y-1928150D01*
X4222206Y-1928150D02*
X4241253Y-1937674D01*
X4241253Y-1937674D02*
X4250777Y-1947198D01*
X4250777Y-1947198D02*
X4260301Y-1966246D01*
X4260301Y-1966246D02*
X4260301Y-2023388D01*
X4260301Y-2023388D02*
X4250777Y-2042436D01*
X4250777Y-2042436D02*
X4241253Y-2051960D01*
X4241253Y-2051960D02*
X4222206Y-2061484D01*
X4222206Y-2061484D02*
X4193634Y-2061484D01*
X4374587Y-2061484D02*
X4355539Y-2051960D01*
X4355539Y-2051960D02*
X4346015Y-2032912D01*
X4346015Y-2032912D02*
X4346015Y-1861484D01*
X4526968Y-2051960D02*
X4507920Y-2061484D01*
X4507920Y-2061484D02*
X4469825Y-2061484D01*
X4469825Y-2061484D02*
X4450777Y-2051960D01*
X4450777Y-2051960D02*
X4441253Y-2032912D01*
X4441253Y-2032912D02*
X4441253Y-1956722D01*
X4441253Y-1956722D02*
X4450777Y-1937674D01*
X4450777Y-1937674D02*
X4469825Y-1928150D01*
X4469825Y-1928150D02*
X4507920Y-1928150D01*
X4507920Y-1928150D02*
X4526968Y-1937674D01*
X4526968Y-1937674D02*
X4536492Y-1956722D01*
X4536492Y-1956722D02*
X4536492Y-1975769D01*
X4536492Y-1975769D02*
X4441253Y-1994817D01*
X4612682Y-2051960D02*
X4631730Y-2061484D01*
X4631730Y-2061484D02*
X4669825Y-2061484D01*
X4669825Y-2061484D02*
X4688873Y-2051960D01*
X4688873Y-2051960D02*
X4698396Y-2032912D01*
X4698396Y-2032912D02*
X4698396Y-2023388D01*
X4698396Y-2023388D02*
X4688873Y-2004341D01*
X4688873Y-2004341D02*
X4669825Y-1994817D01*
X4669825Y-1994817D02*
X4641253Y-1994817D01*
X4641253Y-1994817D02*
X4622206Y-1985293D01*
X4622206Y-1985293D02*
X4612682Y-1966246D01*
X4612682Y-1966246D02*
X4612682Y-1956722D01*
X4612682Y-1956722D02*
X4622206Y-1937674D01*
X4622206Y-1937674D02*
X4641253Y-1928150D01*
X4641253Y-1928150D02*
X4669825Y-1928150D01*
X4669825Y-1928150D02*
X4688873Y-1937674D01*
X4765063Y-2137674D02*
X4774587Y-2128150D01*
X4774587Y-2128150D02*
X4793634Y-2099579D01*
X4793634Y-2099579D02*
X4803158Y-2080531D01*
X4803158Y-2080531D02*
X4812682Y-2051960D01*
X4812682Y-2051960D02*
X4822206Y-2004341D01*
X4822206Y-2004341D02*
X4822206Y-1966246D01*
X4822206Y-1966246D02*
X4812682Y-1918627D01*
X4812682Y-1918627D02*
X4803158Y-1890055D01*
X4803158Y-1890055D02*
X4793634Y-1871008D01*
X4793634Y-1871008D02*
X4774587Y-1842436D01*
X4774587Y-1842436D02*
X4765063Y-1832912D01*
M02*
