%TF.GenerationSoftware,KiCad,Pcbnew,9.0.9*%
%TF.CreationDate,2026-06-03T23:50:17+05:30*%
%TF.ProjectId,Open_STMPLC_Main_V0.1,4f70656e-5f53-4544-9d50-4c435f4d6169,0.1*%
%TF.SameCoordinates,PX2faf080PY8583b00*%
%TF.FileFunction,Drillmap*%
%TF.FilePolarity,Positive*%
%FSLAX45Y45*%
G04 Gerber Fmt 4.5, Leading zero omitted, Abs format (unit mm)*
G04 Created by KiCad (PCBNEW 9.0.9) date 2026-06-03 23:50:17*
%MOMM*%
%LPD*%
G01*
G04 APERTURE LIST*
%ADD10C,0.200000*%
%ADD11C,0.100000*%
%ADD12C,0.110000*%
%ADD13C,0.120000*%
%ADD14C,0.123000*%
%ADD15C,0.320000*%
G04 APERTURE END LIST*
D10*
X0Y9000000D02*
X16880000Y9000000D01*
X0Y0D02*
X0Y9000000D01*
X2800000Y2350000D02*
X4500000Y2350000D01*
X4500000Y900000D01*
X2800000Y900000D01*
X2800000Y2350000D01*
X16880000Y9000000D02*
X16880000Y0D01*
X16880000Y0D02*
X0Y0D01*
D11*
X9878500Y8372000D02*
X9943500Y8307000D01*
X9943500Y8372000D02*
X9878500Y8307000D01*
X10456500Y8372000D02*
X10521500Y8307000D01*
X10521500Y8372000D02*
X10456500Y8307000D01*
X10978500Y8372000D02*
X11043500Y8307000D01*
X11043500Y8372000D02*
X10978500Y8307000D01*
X11556500Y8372000D02*
X11621500Y8307000D01*
X11621500Y8372000D02*
X11556500Y8307000D01*
X6227500Y8725000D02*
G75*
G02*
X6152500Y8725000I-37500J0D01*
G01*
X6152500Y8725000D02*
G75*
G02*
X6227500Y8725000I37500J0D01*
G01*
X7077500Y8725000D02*
G75*
G02*
X7002500Y8725000I-37500J0D01*
G01*
X7002500Y8725000D02*
G75*
G02*
X7077500Y8725000I37500J0D01*
G01*
X450000Y5031500D02*
X450000Y4948500D01*
X408500Y4990000D02*
X491500Y4990000D01*
X450000Y2031500D02*
X450000Y1948500D01*
X408500Y1990000D02*
X491500Y1990000D01*
X16450000Y1031500D02*
X16450000Y948500D01*
X16408500Y990000D02*
X16491500Y990000D01*
D12*
X8291711Y8564169D02*
X8291711Y8641951D01*
X8213929Y8641951D01*
X8213929Y8564169D01*
X8291711Y8564169D01*
X9089271Y8564169D02*
X9089271Y8641951D01*
X9011489Y8641951D01*
X9011489Y8564169D01*
X9089271Y8564169D01*
D13*
X6400000Y8769000D02*
X6460000Y8829000D01*
X6400000Y8889000D01*
X6340000Y8829000D01*
X6400000Y8769000D01*
X6400000Y8030000D02*
X6460000Y8090000D01*
X6400000Y8150000D01*
X6340000Y8090000D01*
X6400000Y8030000D01*
X6654000Y8769000D02*
X6714000Y8829000D01*
X6654000Y8889000D01*
X6594000Y8829000D01*
X6654000Y8769000D01*
X6654000Y8030000D02*
X6714000Y8090000D01*
X6654000Y8150000D01*
X6594000Y8090000D01*
X6654000Y8030000D01*
X6908000Y8769000D02*
X6968000Y8829000D01*
X6908000Y8889000D01*
X6848000Y8829000D01*
X6908000Y8769000D01*
X6908000Y8030000D02*
X6968000Y8090000D01*
X6908000Y8150000D01*
X6848000Y8090000D01*
X6908000Y8030000D01*
D14*
X388500Y7071500D02*
X511500Y6948500D01*
X511500Y7071500D02*
X388500Y6948500D01*
X511500Y7010000D02*
G75*
G02*
X388500Y7010000I-61500J0D01*
G01*
X388500Y7010000D02*
G75*
G02*
X511500Y7010000I61500J0D01*
G01*
X388500Y4071500D02*
X511500Y3948500D01*
X511500Y4071500D02*
X388500Y3948500D01*
X511500Y4010000D02*
G75*
G02*
X388500Y4010000I-61500J0D01*
G01*
X388500Y4010000D02*
G75*
G02*
X511500Y4010000I61500J0D01*
G01*
X16388500Y3071500D02*
X16511500Y2948500D01*
X16511500Y3071500D02*
X16388500Y2948500D01*
X16511500Y3010000D02*
G75*
G02*
X16388500Y3010000I-61500J0D01*
G01*
X16388500Y3010000D02*
G75*
G02*
X16511500Y3010000I61500J0D01*
G01*
D15*
X190000Y7760000D02*
X510000Y7440000D01*
X510000Y7760000D02*
X190000Y7440000D01*
X350000Y7760000D02*
X350000Y7440000D01*
X190000Y7600000D02*
X510000Y7600000D01*
X190000Y1560000D02*
X510000Y1240000D01*
X510000Y1560000D02*
X190000Y1240000D01*
X350000Y1560000D02*
X350000Y1240000D01*
X190000Y1400000D02*
X510000Y1400000D01*
X15942000Y5631450D02*
X16262000Y5311450D01*
X16262000Y5631450D02*
X15942000Y5311450D01*
X16102000Y5631450D02*
X16102000Y5311450D01*
X15942000Y5471450D02*
X16262000Y5471450D01*
X15942000Y4488450D02*
X16262000Y4168450D01*
X16262000Y4488450D02*
X15942000Y4168450D01*
X16102000Y4488450D02*
X16102000Y4168450D01*
X15942000Y4328450D02*
X16262000Y4328450D01*
X16140000Y8960000D02*
X16460000Y8640000D01*
X16460000Y8960000D02*
X16140000Y8640000D01*
X16300000Y8960000D02*
X16300000Y8640000D01*
X16140000Y8800000D02*
X16460000Y8800000D01*
X16390000Y360000D02*
X16710000Y40000D01*
X16710000Y360000D02*
X16390000Y40000D01*
X16550000Y360000D02*
X16550000Y40000D01*
X16390000Y200000D02*
X16710000Y200000D01*
D10*
X250777Y-321484D02*
X250777Y-121484D01*
X250777Y-121484D02*
X298396Y-121484D01*
X298396Y-121484D02*
X326967Y-131008D01*
X326967Y-131008D02*
X346015Y-150055D01*
X346015Y-150055D02*
X355539Y-169103D01*
X355539Y-169103D02*
X365062Y-207198D01*
X365062Y-207198D02*
X365062Y-235769D01*
X365062Y-235769D02*
X355539Y-273865D01*
X355539Y-273865D02*
X346015Y-292912D01*
X346015Y-292912D02*
X326967Y-311960D01*
X326967Y-311960D02*
X298396Y-321484D01*
X298396Y-321484D02*
X250777Y-321484D01*
X450777Y-321484D02*
X450777Y-188150D01*
X450777Y-226246D02*
X460301Y-207198D01*
X460301Y-207198D02*
X469824Y-197674D01*
X469824Y-197674D02*
X488872Y-188150D01*
X488872Y-188150D02*
X507920Y-188150D01*
X574586Y-321484D02*
X574586Y-188150D01*
X574586Y-121484D02*
X565063Y-131008D01*
X565063Y-131008D02*
X574586Y-140531D01*
X574586Y-140531D02*
X584110Y-131008D01*
X584110Y-131008D02*
X574586Y-121484D01*
X574586Y-121484D02*
X574586Y-140531D01*
X698396Y-321484D02*
X679348Y-311960D01*
X679348Y-311960D02*
X669824Y-292912D01*
X669824Y-292912D02*
X669824Y-121484D01*
X803158Y-321484D02*
X784110Y-311960D01*
X784110Y-311960D02*
X774586Y-292912D01*
X774586Y-292912D02*
X774586Y-121484D01*
X1031729Y-321484D02*
X1031729Y-121484D01*
X1031729Y-121484D02*
X1098396Y-264341D01*
X1098396Y-264341D02*
X1165063Y-121484D01*
X1165063Y-121484D02*
X1165063Y-321484D01*
X1346015Y-321484D02*
X1346015Y-216722D01*
X1346015Y-216722D02*
X1336491Y-197674D01*
X1336491Y-197674D02*
X1317444Y-188150D01*
X1317444Y-188150D02*
X1279348Y-188150D01*
X1279348Y-188150D02*
X1260301Y-197674D01*
X1346015Y-311960D02*
X1326967Y-321484D01*
X1326967Y-321484D02*
X1279348Y-321484D01*
X1279348Y-321484D02*
X1260301Y-311960D01*
X1260301Y-311960D02*
X1250777Y-292912D01*
X1250777Y-292912D02*
X1250777Y-273865D01*
X1250777Y-273865D02*
X1260301Y-254817D01*
X1260301Y-254817D02*
X1279348Y-245293D01*
X1279348Y-245293D02*
X1326967Y-245293D01*
X1326967Y-245293D02*
X1346015Y-235769D01*
X1441253Y-188150D02*
X1441253Y-388150D01*
X1441253Y-197674D02*
X1460301Y-188150D01*
X1460301Y-188150D02*
X1498396Y-188150D01*
X1498396Y-188150D02*
X1517443Y-197674D01*
X1517443Y-197674D02*
X1526967Y-207198D01*
X1526967Y-207198D02*
X1536491Y-226246D01*
X1536491Y-226246D02*
X1536491Y-283389D01*
X1536491Y-283389D02*
X1526967Y-302436D01*
X1526967Y-302436D02*
X1517443Y-311960D01*
X1517443Y-311960D02*
X1498396Y-321484D01*
X1498396Y-321484D02*
X1460301Y-321484D01*
X1460301Y-321484D02*
X1441253Y-311960D01*
X1622205Y-302436D02*
X1631729Y-311960D01*
X1631729Y-311960D02*
X1622205Y-321484D01*
X1622205Y-321484D02*
X1612682Y-311960D01*
X1612682Y-311960D02*
X1622205Y-302436D01*
X1622205Y-302436D02*
X1622205Y-321484D01*
X1622205Y-197674D02*
X1631729Y-207198D01*
X1631729Y-207198D02*
X1622205Y-216722D01*
X1622205Y-216722D02*
X1612682Y-207198D01*
X1612682Y-207198D02*
X1622205Y-197674D01*
X1622205Y-197674D02*
X1622205Y-216722D01*
D11*
X-75000Y-617500D02*
X-10000Y-682500D01*
X-10000Y-617500D02*
X-75000Y-682500D01*
D10*
X288872Y-541484D02*
X307920Y-541484D01*
X307920Y-541484D02*
X326967Y-551008D01*
X326967Y-551008D02*
X336491Y-560531D01*
X336491Y-560531D02*
X346015Y-579579D01*
X346015Y-579579D02*
X355539Y-617674D01*
X355539Y-617674D02*
X355539Y-665293D01*
X355539Y-665293D02*
X346015Y-703388D01*
X346015Y-703388D02*
X336491Y-722436D01*
X336491Y-722436D02*
X326967Y-731960D01*
X326967Y-731960D02*
X307920Y-741484D01*
X307920Y-741484D02*
X288872Y-741484D01*
X288872Y-741484D02*
X269824Y-731960D01*
X269824Y-731960D02*
X260301Y-722436D01*
X260301Y-722436D02*
X250777Y-703388D01*
X250777Y-703388D02*
X241253Y-665293D01*
X241253Y-665293D02*
X241253Y-617674D01*
X241253Y-617674D02*
X250777Y-579579D01*
X250777Y-579579D02*
X260301Y-560531D01*
X260301Y-560531D02*
X269824Y-551008D01*
X269824Y-551008D02*
X288872Y-541484D01*
X441253Y-722436D02*
X450777Y-731960D01*
X450777Y-731960D02*
X441253Y-741484D01*
X441253Y-741484D02*
X431729Y-731960D01*
X431729Y-731960D02*
X441253Y-722436D01*
X441253Y-722436D02*
X441253Y-741484D01*
X622205Y-541484D02*
X584110Y-541484D01*
X584110Y-541484D02*
X565063Y-551008D01*
X565063Y-551008D02*
X555539Y-560531D01*
X555539Y-560531D02*
X536491Y-589103D01*
X536491Y-589103D02*
X526967Y-627198D01*
X526967Y-627198D02*
X526967Y-703388D01*
X526967Y-703388D02*
X536491Y-722436D01*
X536491Y-722436D02*
X546015Y-731960D01*
X546015Y-731960D02*
X565063Y-741484D01*
X565063Y-741484D02*
X603158Y-741484D01*
X603158Y-741484D02*
X622205Y-731960D01*
X622205Y-731960D02*
X631729Y-722436D01*
X631729Y-722436D02*
X641253Y-703388D01*
X641253Y-703388D02*
X641253Y-655770D01*
X641253Y-655770D02*
X631729Y-636722D01*
X631729Y-636722D02*
X622205Y-627198D01*
X622205Y-627198D02*
X603158Y-617674D01*
X603158Y-617674D02*
X565063Y-617674D01*
X565063Y-617674D02*
X546015Y-627198D01*
X546015Y-627198D02*
X536491Y-636722D01*
X536491Y-636722D02*
X526967Y-655770D01*
X822205Y-541484D02*
X726967Y-541484D01*
X726967Y-541484D02*
X717443Y-636722D01*
X717443Y-636722D02*
X726967Y-627198D01*
X726967Y-627198D02*
X746015Y-617674D01*
X746015Y-617674D02*
X793634Y-617674D01*
X793634Y-617674D02*
X812682Y-627198D01*
X812682Y-627198D02*
X822205Y-636722D01*
X822205Y-636722D02*
X831729Y-655770D01*
X831729Y-655770D02*
X831729Y-703388D01*
X831729Y-703388D02*
X822205Y-722436D01*
X822205Y-722436D02*
X812682Y-731960D01*
X812682Y-731960D02*
X793634Y-741484D01*
X793634Y-741484D02*
X746015Y-741484D01*
X746015Y-741484D02*
X726967Y-731960D01*
X726967Y-731960D02*
X717443Y-722436D01*
X955539Y-541484D02*
X974586Y-541484D01*
X974586Y-541484D02*
X993634Y-551008D01*
X993634Y-551008D02*
X1003158Y-560531D01*
X1003158Y-560531D02*
X1012682Y-579579D01*
X1012682Y-579579D02*
X1022205Y-617674D01*
X1022205Y-617674D02*
X1022205Y-665293D01*
X1022205Y-665293D02*
X1012682Y-703388D01*
X1012682Y-703388D02*
X1003158Y-722436D01*
X1003158Y-722436D02*
X993634Y-731960D01*
X993634Y-731960D02*
X974586Y-741484D01*
X974586Y-741484D02*
X955539Y-741484D01*
X955539Y-741484D02*
X936491Y-731960D01*
X936491Y-731960D02*
X926967Y-722436D01*
X926967Y-722436D02*
X917443Y-703388D01*
X917443Y-703388D02*
X907920Y-665293D01*
X907920Y-665293D02*
X907920Y-617674D01*
X907920Y-617674D02*
X917443Y-579579D01*
X917443Y-579579D02*
X926967Y-560531D01*
X926967Y-560531D02*
X936491Y-551008D01*
X936491Y-551008D02*
X955539Y-541484D01*
X1107920Y-741484D02*
X1107920Y-608150D01*
X1107920Y-627198D02*
X1117444Y-617674D01*
X1117444Y-617674D02*
X1136491Y-608150D01*
X1136491Y-608150D02*
X1165063Y-608150D01*
X1165063Y-608150D02*
X1184110Y-617674D01*
X1184110Y-617674D02*
X1193634Y-636722D01*
X1193634Y-636722D02*
X1193634Y-741484D01*
X1193634Y-636722D02*
X1203158Y-617674D01*
X1203158Y-617674D02*
X1222205Y-608150D01*
X1222205Y-608150D02*
X1250777Y-608150D01*
X1250777Y-608150D02*
X1269825Y-617674D01*
X1269825Y-617674D02*
X1279348Y-636722D01*
X1279348Y-636722D02*
X1279348Y-741484D01*
X1374586Y-741484D02*
X1374586Y-608150D01*
X1374586Y-627198D02*
X1384110Y-617674D01*
X1384110Y-617674D02*
X1403158Y-608150D01*
X1403158Y-608150D02*
X1431729Y-608150D01*
X1431729Y-608150D02*
X1450777Y-617674D01*
X1450777Y-617674D02*
X1460301Y-636722D01*
X1460301Y-636722D02*
X1460301Y-741484D01*
X1460301Y-636722D02*
X1469824Y-617674D01*
X1469824Y-617674D02*
X1488872Y-608150D01*
X1488872Y-608150D02*
X1517443Y-608150D01*
X1517443Y-608150D02*
X1536491Y-617674D01*
X1536491Y-617674D02*
X1546015Y-636722D01*
X1546015Y-636722D02*
X1546015Y-741484D01*
X1936491Y-531960D02*
X1765063Y-789103D01*
X2193634Y-541484D02*
X2212682Y-541484D01*
X2212682Y-541484D02*
X2231729Y-551008D01*
X2231729Y-551008D02*
X2241253Y-560531D01*
X2241253Y-560531D02*
X2250777Y-579579D01*
X2250777Y-579579D02*
X2260301Y-617674D01*
X2260301Y-617674D02*
X2260301Y-665293D01*
X2260301Y-665293D02*
X2250777Y-703388D01*
X2250777Y-703388D02*
X2241253Y-722436D01*
X2241253Y-722436D02*
X2231729Y-731960D01*
X2231729Y-731960D02*
X2212682Y-741484D01*
X2212682Y-741484D02*
X2193634Y-741484D01*
X2193634Y-741484D02*
X2174587Y-731960D01*
X2174587Y-731960D02*
X2165063Y-722436D01*
X2165063Y-722436D02*
X2155539Y-703388D01*
X2155539Y-703388D02*
X2146015Y-665293D01*
X2146015Y-665293D02*
X2146015Y-617674D01*
X2146015Y-617674D02*
X2155539Y-579579D01*
X2155539Y-579579D02*
X2165063Y-560531D01*
X2165063Y-560531D02*
X2174587Y-551008D01*
X2174587Y-551008D02*
X2193634Y-541484D01*
X2346015Y-722436D02*
X2355539Y-731960D01*
X2355539Y-731960D02*
X2346015Y-741484D01*
X2346015Y-741484D02*
X2336491Y-731960D01*
X2336491Y-731960D02*
X2346015Y-722436D01*
X2346015Y-722436D02*
X2346015Y-741484D01*
X2479348Y-541484D02*
X2498396Y-541484D01*
X2498396Y-541484D02*
X2517444Y-551008D01*
X2517444Y-551008D02*
X2526968Y-560531D01*
X2526968Y-560531D02*
X2536491Y-579579D01*
X2536491Y-579579D02*
X2546015Y-617674D01*
X2546015Y-617674D02*
X2546015Y-665293D01*
X2546015Y-665293D02*
X2536491Y-703388D01*
X2536491Y-703388D02*
X2526968Y-722436D01*
X2526968Y-722436D02*
X2517444Y-731960D01*
X2517444Y-731960D02*
X2498396Y-741484D01*
X2498396Y-741484D02*
X2479348Y-741484D01*
X2479348Y-741484D02*
X2460301Y-731960D01*
X2460301Y-731960D02*
X2450777Y-722436D01*
X2450777Y-722436D02*
X2441253Y-703388D01*
X2441253Y-703388D02*
X2431729Y-665293D01*
X2431729Y-665293D02*
X2431729Y-617674D01*
X2431729Y-617674D02*
X2441253Y-579579D01*
X2441253Y-579579D02*
X2450777Y-560531D01*
X2450777Y-560531D02*
X2460301Y-551008D01*
X2460301Y-551008D02*
X2479348Y-541484D01*
X2622206Y-560531D02*
X2631729Y-551008D01*
X2631729Y-551008D02*
X2650777Y-541484D01*
X2650777Y-541484D02*
X2698396Y-541484D01*
X2698396Y-541484D02*
X2717444Y-551008D01*
X2717444Y-551008D02*
X2726968Y-560531D01*
X2726968Y-560531D02*
X2736491Y-579579D01*
X2736491Y-579579D02*
X2736491Y-598627D01*
X2736491Y-598627D02*
X2726968Y-627198D01*
X2726968Y-627198D02*
X2612682Y-741484D01*
X2612682Y-741484D02*
X2736491Y-741484D01*
X2917444Y-541484D02*
X2822206Y-541484D01*
X2822206Y-541484D02*
X2812682Y-636722D01*
X2812682Y-636722D02*
X2822206Y-627198D01*
X2822206Y-627198D02*
X2841253Y-617674D01*
X2841253Y-617674D02*
X2888872Y-617674D01*
X2888872Y-617674D02*
X2907920Y-627198D01*
X2907920Y-627198D02*
X2917444Y-636722D01*
X2917444Y-636722D02*
X2926967Y-655770D01*
X2926967Y-655770D02*
X2926967Y-703388D01*
X2926967Y-703388D02*
X2917444Y-722436D01*
X2917444Y-722436D02*
X2907920Y-731960D01*
X2907920Y-731960D02*
X2888872Y-741484D01*
X2888872Y-741484D02*
X2841253Y-741484D01*
X2841253Y-741484D02*
X2822206Y-731960D01*
X2822206Y-731960D02*
X2812682Y-722436D01*
X3098396Y-541484D02*
X3060301Y-541484D01*
X3060301Y-541484D02*
X3041253Y-551008D01*
X3041253Y-551008D02*
X3031729Y-560531D01*
X3031729Y-560531D02*
X3012682Y-589103D01*
X3012682Y-589103D02*
X3003158Y-627198D01*
X3003158Y-627198D02*
X3003158Y-703388D01*
X3003158Y-703388D02*
X3012682Y-722436D01*
X3012682Y-722436D02*
X3022206Y-731960D01*
X3022206Y-731960D02*
X3041253Y-741484D01*
X3041253Y-741484D02*
X3079348Y-741484D01*
X3079348Y-741484D02*
X3098396Y-731960D01*
X3098396Y-731960D02*
X3107920Y-722436D01*
X3107920Y-722436D02*
X3117444Y-703388D01*
X3117444Y-703388D02*
X3117444Y-655770D01*
X3117444Y-655770D02*
X3107920Y-636722D01*
X3107920Y-636722D02*
X3098396Y-627198D01*
X3098396Y-627198D02*
X3079348Y-617674D01*
X3079348Y-617674D02*
X3041253Y-617674D01*
X3041253Y-617674D02*
X3022206Y-627198D01*
X3022206Y-627198D02*
X3012682Y-636722D01*
X3012682Y-636722D02*
X3003158Y-655770D01*
X3193634Y-541484D02*
X3193634Y-579579D01*
X3269825Y-541484D02*
X3269825Y-579579D01*
X3565063Y-817674D02*
X3555539Y-808150D01*
X3555539Y-808150D02*
X3536491Y-779579D01*
X3536491Y-779579D02*
X3526968Y-760531D01*
X3526968Y-760531D02*
X3517444Y-731960D01*
X3517444Y-731960D02*
X3507920Y-684341D01*
X3507920Y-684341D02*
X3507920Y-646246D01*
X3507920Y-646246D02*
X3517444Y-598627D01*
X3517444Y-598627D02*
X3526968Y-570055D01*
X3526968Y-570055D02*
X3536491Y-551008D01*
X3536491Y-551008D02*
X3555539Y-522436D01*
X3555539Y-522436D02*
X3565063Y-512912D01*
X3726968Y-608150D02*
X3726968Y-741484D01*
X3679348Y-531960D02*
X3631729Y-674817D01*
X3631729Y-674817D02*
X3755539Y-674817D01*
X3984110Y-741484D02*
X3984110Y-541484D01*
X4069825Y-741484D02*
X4069825Y-636722D01*
X4069825Y-636722D02*
X4060301Y-617674D01*
X4060301Y-617674D02*
X4041253Y-608150D01*
X4041253Y-608150D02*
X4012682Y-608150D01*
X4012682Y-608150D02*
X3993634Y-617674D01*
X3993634Y-617674D02*
X3984110Y-627198D01*
X4193634Y-741484D02*
X4174587Y-731960D01*
X4174587Y-731960D02*
X4165063Y-722436D01*
X4165063Y-722436D02*
X4155539Y-703388D01*
X4155539Y-703388D02*
X4155539Y-646246D01*
X4155539Y-646246D02*
X4165063Y-627198D01*
X4165063Y-627198D02*
X4174587Y-617674D01*
X4174587Y-617674D02*
X4193634Y-608150D01*
X4193634Y-608150D02*
X4222206Y-608150D01*
X4222206Y-608150D02*
X4241253Y-617674D01*
X4241253Y-617674D02*
X4250777Y-627198D01*
X4250777Y-627198D02*
X4260301Y-646246D01*
X4260301Y-646246D02*
X4260301Y-703388D01*
X4260301Y-703388D02*
X4250777Y-722436D01*
X4250777Y-722436D02*
X4241253Y-731960D01*
X4241253Y-731960D02*
X4222206Y-741484D01*
X4222206Y-741484D02*
X4193634Y-741484D01*
X4374587Y-741484D02*
X4355539Y-731960D01*
X4355539Y-731960D02*
X4346015Y-712912D01*
X4346015Y-712912D02*
X4346015Y-541484D01*
X4526968Y-731960D02*
X4507920Y-741484D01*
X4507920Y-741484D02*
X4469825Y-741484D01*
X4469825Y-741484D02*
X4450777Y-731960D01*
X4450777Y-731960D02*
X4441253Y-712912D01*
X4441253Y-712912D02*
X4441253Y-636722D01*
X4441253Y-636722D02*
X4450777Y-617674D01*
X4450777Y-617674D02*
X4469825Y-608150D01*
X4469825Y-608150D02*
X4507920Y-608150D01*
X4507920Y-608150D02*
X4526968Y-617674D01*
X4526968Y-617674D02*
X4536492Y-636722D01*
X4536492Y-636722D02*
X4536492Y-655770D01*
X4536492Y-655770D02*
X4441253Y-674817D01*
X4612682Y-731960D02*
X4631730Y-741484D01*
X4631730Y-741484D02*
X4669825Y-741484D01*
X4669825Y-741484D02*
X4688873Y-731960D01*
X4688873Y-731960D02*
X4698396Y-712912D01*
X4698396Y-712912D02*
X4698396Y-703388D01*
X4698396Y-703388D02*
X4688873Y-684341D01*
X4688873Y-684341D02*
X4669825Y-674817D01*
X4669825Y-674817D02*
X4641253Y-674817D01*
X4641253Y-674817D02*
X4622206Y-665293D01*
X4622206Y-665293D02*
X4612682Y-646246D01*
X4612682Y-646246D02*
X4612682Y-636722D01*
X4612682Y-636722D02*
X4622206Y-617674D01*
X4622206Y-617674D02*
X4641253Y-608150D01*
X4641253Y-608150D02*
X4669825Y-608150D01*
X4669825Y-608150D02*
X4688873Y-617674D01*
X4765063Y-817674D02*
X4774587Y-808150D01*
X4774587Y-808150D02*
X4793634Y-779579D01*
X4793634Y-779579D02*
X4803158Y-760531D01*
X4803158Y-760531D02*
X4812682Y-731960D01*
X4812682Y-731960D02*
X4822206Y-684341D01*
X4822206Y-684341D02*
X4822206Y-646246D01*
X4822206Y-646246D02*
X4812682Y-598627D01*
X4812682Y-598627D02*
X4803158Y-570055D01*
X4803158Y-570055D02*
X4793634Y-551008D01*
X4793634Y-551008D02*
X4774587Y-522436D01*
X4774587Y-522436D02*
X4765063Y-512912D01*
X5126968Y-817674D02*
X5117444Y-808150D01*
X5117444Y-808150D02*
X5098396Y-779579D01*
X5098396Y-779579D02*
X5088873Y-760531D01*
X5088873Y-760531D02*
X5079349Y-731960D01*
X5079349Y-731960D02*
X5069825Y-684341D01*
X5069825Y-684341D02*
X5069825Y-646246D01*
X5069825Y-646246D02*
X5079349Y-598627D01*
X5079349Y-598627D02*
X5088873Y-570055D01*
X5088873Y-570055D02*
X5098396Y-551008D01*
X5098396Y-551008D02*
X5117444Y-522436D01*
X5117444Y-522436D02*
X5126968Y-512912D01*
X5203158Y-608150D02*
X5203158Y-741484D01*
X5203158Y-627198D02*
X5212682Y-617674D01*
X5212682Y-617674D02*
X5231730Y-608150D01*
X5231730Y-608150D02*
X5260301Y-608150D01*
X5260301Y-608150D02*
X5279349Y-617674D01*
X5279349Y-617674D02*
X5288873Y-636722D01*
X5288873Y-636722D02*
X5288873Y-741484D01*
X5412682Y-741484D02*
X5393634Y-731960D01*
X5393634Y-731960D02*
X5384111Y-722436D01*
X5384111Y-722436D02*
X5374587Y-703388D01*
X5374587Y-703388D02*
X5374587Y-646246D01*
X5374587Y-646246D02*
X5384111Y-627198D01*
X5384111Y-627198D02*
X5393634Y-617674D01*
X5393634Y-617674D02*
X5412682Y-608150D01*
X5412682Y-608150D02*
X5441254Y-608150D01*
X5441254Y-608150D02*
X5460301Y-617674D01*
X5460301Y-617674D02*
X5469825Y-627198D01*
X5469825Y-627198D02*
X5479349Y-646246D01*
X5479349Y-646246D02*
X5479349Y-703388D01*
X5479349Y-703388D02*
X5469825Y-722436D01*
X5469825Y-722436D02*
X5460301Y-731960D01*
X5460301Y-731960D02*
X5441254Y-741484D01*
X5441254Y-741484D02*
X5412682Y-741484D01*
X5536492Y-608150D02*
X5612682Y-608150D01*
X5565063Y-541484D02*
X5565063Y-712912D01*
X5565063Y-712912D02*
X5574587Y-731960D01*
X5574587Y-731960D02*
X5593634Y-741484D01*
X5593634Y-741484D02*
X5612682Y-741484D01*
X5831730Y-608150D02*
X5831730Y-808150D01*
X5831730Y-617674D02*
X5850777Y-608150D01*
X5850777Y-608150D02*
X5888873Y-608150D01*
X5888873Y-608150D02*
X5907920Y-617674D01*
X5907920Y-617674D02*
X5917444Y-627198D01*
X5917444Y-627198D02*
X5926968Y-646246D01*
X5926968Y-646246D02*
X5926968Y-703388D01*
X5926968Y-703388D02*
X5917444Y-722436D01*
X5917444Y-722436D02*
X5907920Y-731960D01*
X5907920Y-731960D02*
X5888873Y-741484D01*
X5888873Y-741484D02*
X5850777Y-741484D01*
X5850777Y-741484D02*
X5831730Y-731960D01*
X6041253Y-741484D02*
X6022206Y-731960D01*
X6022206Y-731960D02*
X6012682Y-712912D01*
X6012682Y-712912D02*
X6012682Y-541484D01*
X6203158Y-741484D02*
X6203158Y-636722D01*
X6203158Y-636722D02*
X6193634Y-617674D01*
X6193634Y-617674D02*
X6174587Y-608150D01*
X6174587Y-608150D02*
X6136492Y-608150D01*
X6136492Y-608150D02*
X6117444Y-617674D01*
X6203158Y-731960D02*
X6184111Y-741484D01*
X6184111Y-741484D02*
X6136492Y-741484D01*
X6136492Y-741484D02*
X6117444Y-731960D01*
X6117444Y-731960D02*
X6107920Y-712912D01*
X6107920Y-712912D02*
X6107920Y-693865D01*
X6107920Y-693865D02*
X6117444Y-674817D01*
X6117444Y-674817D02*
X6136492Y-665293D01*
X6136492Y-665293D02*
X6184111Y-665293D01*
X6184111Y-665293D02*
X6203158Y-655770D01*
X6269825Y-608150D02*
X6346015Y-608150D01*
X6298396Y-541484D02*
X6298396Y-712912D01*
X6298396Y-712912D02*
X6307920Y-731960D01*
X6307920Y-731960D02*
X6326968Y-741484D01*
X6326968Y-741484D02*
X6346015Y-741484D01*
X6488873Y-731960D02*
X6469825Y-741484D01*
X6469825Y-741484D02*
X6431730Y-741484D01*
X6431730Y-741484D02*
X6412682Y-731960D01*
X6412682Y-731960D02*
X6403158Y-712912D01*
X6403158Y-712912D02*
X6403158Y-636722D01*
X6403158Y-636722D02*
X6412682Y-617674D01*
X6412682Y-617674D02*
X6431730Y-608150D01*
X6431730Y-608150D02*
X6469825Y-608150D01*
X6469825Y-608150D02*
X6488873Y-617674D01*
X6488873Y-617674D02*
X6498396Y-636722D01*
X6498396Y-636722D02*
X6498396Y-655770D01*
X6498396Y-655770D02*
X6403158Y-674817D01*
X6669825Y-741484D02*
X6669825Y-541484D01*
X6669825Y-731960D02*
X6650777Y-741484D01*
X6650777Y-741484D02*
X6612682Y-741484D01*
X6612682Y-741484D02*
X6593634Y-731960D01*
X6593634Y-731960D02*
X6584111Y-722436D01*
X6584111Y-722436D02*
X6574587Y-703388D01*
X6574587Y-703388D02*
X6574587Y-646246D01*
X6574587Y-646246D02*
X6584111Y-627198D01*
X6584111Y-627198D02*
X6593634Y-617674D01*
X6593634Y-617674D02*
X6612682Y-608150D01*
X6612682Y-608150D02*
X6650777Y-608150D01*
X6650777Y-608150D02*
X6669825Y-617674D01*
X6746015Y-817674D02*
X6755539Y-808150D01*
X6755539Y-808150D02*
X6774587Y-779579D01*
X6774587Y-779579D02*
X6784111Y-760531D01*
X6784111Y-760531D02*
X6793634Y-731960D01*
X6793634Y-731960D02*
X6803158Y-684341D01*
X6803158Y-684341D02*
X6803158Y-646246D01*
X6803158Y-646246D02*
X6793634Y-598627D01*
X6793634Y-598627D02*
X6784111Y-570055D01*
X6784111Y-570055D02*
X6774587Y-551008D01*
X6774587Y-551008D02*
X6755539Y-522436D01*
X6755539Y-522436D02*
X6746015Y-512912D01*
D11*
X-10000Y-914000D02*
G75*
G02*
X-85000Y-914000I-37500J0D01*
G01*
X-85000Y-914000D02*
G75*
G02*
X-10000Y-914000I37500J0D01*
G01*
D10*
X288872Y-805484D02*
X307920Y-805484D01*
X307920Y-805484D02*
X326967Y-815008D01*
X326967Y-815008D02*
X336491Y-824531D01*
X336491Y-824531D02*
X346015Y-843579D01*
X346015Y-843579D02*
X355539Y-881674D01*
X355539Y-881674D02*
X355539Y-929293D01*
X355539Y-929293D02*
X346015Y-967388D01*
X346015Y-967388D02*
X336491Y-986436D01*
X336491Y-986436D02*
X326967Y-995960D01*
X326967Y-995960D02*
X307920Y-1005484D01*
X307920Y-1005484D02*
X288872Y-1005484D01*
X288872Y-1005484D02*
X269824Y-995960D01*
X269824Y-995960D02*
X260301Y-986436D01*
X260301Y-986436D02*
X250777Y-967388D01*
X250777Y-967388D02*
X241253Y-929293D01*
X241253Y-929293D02*
X241253Y-881674D01*
X241253Y-881674D02*
X250777Y-843579D01*
X250777Y-843579D02*
X260301Y-824531D01*
X260301Y-824531D02*
X269824Y-815008D01*
X269824Y-815008D02*
X288872Y-805484D01*
X441253Y-986436D02*
X450777Y-995960D01*
X450777Y-995960D02*
X441253Y-1005484D01*
X441253Y-1005484D02*
X431729Y-995960D01*
X431729Y-995960D02*
X441253Y-986436D01*
X441253Y-986436D02*
X441253Y-1005484D01*
X517443Y-805484D02*
X650777Y-805484D01*
X650777Y-805484D02*
X565063Y-1005484D01*
X822205Y-805484D02*
X726967Y-805484D01*
X726967Y-805484D02*
X717443Y-900722D01*
X717443Y-900722D02*
X726967Y-891198D01*
X726967Y-891198D02*
X746015Y-881674D01*
X746015Y-881674D02*
X793634Y-881674D01*
X793634Y-881674D02*
X812682Y-891198D01*
X812682Y-891198D02*
X822205Y-900722D01*
X822205Y-900722D02*
X831729Y-919769D01*
X831729Y-919769D02*
X831729Y-967388D01*
X831729Y-967388D02*
X822205Y-986436D01*
X822205Y-986436D02*
X812682Y-995960D01*
X812682Y-995960D02*
X793634Y-1005484D01*
X793634Y-1005484D02*
X746015Y-1005484D01*
X746015Y-1005484D02*
X726967Y-995960D01*
X726967Y-995960D02*
X717443Y-986436D01*
X955539Y-805484D02*
X974586Y-805484D01*
X974586Y-805484D02*
X993634Y-815008D01*
X993634Y-815008D02*
X1003158Y-824531D01*
X1003158Y-824531D02*
X1012682Y-843579D01*
X1012682Y-843579D02*
X1022205Y-881674D01*
X1022205Y-881674D02*
X1022205Y-929293D01*
X1022205Y-929293D02*
X1012682Y-967388D01*
X1012682Y-967388D02*
X1003158Y-986436D01*
X1003158Y-986436D02*
X993634Y-995960D01*
X993634Y-995960D02*
X974586Y-1005484D01*
X974586Y-1005484D02*
X955539Y-1005484D01*
X955539Y-1005484D02*
X936491Y-995960D01*
X936491Y-995960D02*
X926967Y-986436D01*
X926967Y-986436D02*
X917443Y-967388D01*
X917443Y-967388D02*
X907920Y-929293D01*
X907920Y-929293D02*
X907920Y-881674D01*
X907920Y-881674D02*
X917443Y-843579D01*
X917443Y-843579D02*
X926967Y-824531D01*
X926967Y-824531D02*
X936491Y-815008D01*
X936491Y-815008D02*
X955539Y-805484D01*
X1107920Y-1005484D02*
X1107920Y-872150D01*
X1107920Y-891198D02*
X1117444Y-881674D01*
X1117444Y-881674D02*
X1136491Y-872150D01*
X1136491Y-872150D02*
X1165063Y-872150D01*
X1165063Y-872150D02*
X1184110Y-881674D01*
X1184110Y-881674D02*
X1193634Y-900722D01*
X1193634Y-900722D02*
X1193634Y-1005484D01*
X1193634Y-900722D02*
X1203158Y-881674D01*
X1203158Y-881674D02*
X1222205Y-872150D01*
X1222205Y-872150D02*
X1250777Y-872150D01*
X1250777Y-872150D02*
X1269825Y-881674D01*
X1269825Y-881674D02*
X1279348Y-900722D01*
X1279348Y-900722D02*
X1279348Y-1005484D01*
X1374586Y-1005484D02*
X1374586Y-872150D01*
X1374586Y-891198D02*
X1384110Y-881674D01*
X1384110Y-881674D02*
X1403158Y-872150D01*
X1403158Y-872150D02*
X1431729Y-872150D01*
X1431729Y-872150D02*
X1450777Y-881674D01*
X1450777Y-881674D02*
X1460301Y-900722D01*
X1460301Y-900722D02*
X1460301Y-1005484D01*
X1460301Y-900722D02*
X1469824Y-881674D01*
X1469824Y-881674D02*
X1488872Y-872150D01*
X1488872Y-872150D02*
X1517443Y-872150D01*
X1517443Y-872150D02*
X1536491Y-881674D01*
X1536491Y-881674D02*
X1546015Y-900722D01*
X1546015Y-900722D02*
X1546015Y-1005484D01*
X1936491Y-795960D02*
X1765063Y-1053103D01*
X2193634Y-805484D02*
X2212682Y-805484D01*
X2212682Y-805484D02*
X2231729Y-815008D01*
X2231729Y-815008D02*
X2241253Y-824531D01*
X2241253Y-824531D02*
X2250777Y-843579D01*
X2250777Y-843579D02*
X2260301Y-881674D01*
X2260301Y-881674D02*
X2260301Y-929293D01*
X2260301Y-929293D02*
X2250777Y-967388D01*
X2250777Y-967388D02*
X2241253Y-986436D01*
X2241253Y-986436D02*
X2231729Y-995960D01*
X2231729Y-995960D02*
X2212682Y-1005484D01*
X2212682Y-1005484D02*
X2193634Y-1005484D01*
X2193634Y-1005484D02*
X2174587Y-995960D01*
X2174587Y-995960D02*
X2165063Y-986436D01*
X2165063Y-986436D02*
X2155539Y-967388D01*
X2155539Y-967388D02*
X2146015Y-929293D01*
X2146015Y-929293D02*
X2146015Y-881674D01*
X2146015Y-881674D02*
X2155539Y-843579D01*
X2155539Y-843579D02*
X2165063Y-824531D01*
X2165063Y-824531D02*
X2174587Y-815008D01*
X2174587Y-815008D02*
X2193634Y-805484D01*
X2346015Y-986436D02*
X2355539Y-995960D01*
X2355539Y-995960D02*
X2346015Y-1005484D01*
X2346015Y-1005484D02*
X2336491Y-995960D01*
X2336491Y-995960D02*
X2346015Y-986436D01*
X2346015Y-986436D02*
X2346015Y-1005484D01*
X2479348Y-805484D02*
X2498396Y-805484D01*
X2498396Y-805484D02*
X2517444Y-815008D01*
X2517444Y-815008D02*
X2526968Y-824531D01*
X2526968Y-824531D02*
X2536491Y-843579D01*
X2536491Y-843579D02*
X2546015Y-881674D01*
X2546015Y-881674D02*
X2546015Y-929293D01*
X2546015Y-929293D02*
X2536491Y-967388D01*
X2536491Y-967388D02*
X2526968Y-986436D01*
X2526968Y-986436D02*
X2517444Y-995960D01*
X2517444Y-995960D02*
X2498396Y-1005484D01*
X2498396Y-1005484D02*
X2479348Y-1005484D01*
X2479348Y-1005484D02*
X2460301Y-995960D01*
X2460301Y-995960D02*
X2450777Y-986436D01*
X2450777Y-986436D02*
X2441253Y-967388D01*
X2441253Y-967388D02*
X2431729Y-929293D01*
X2431729Y-929293D02*
X2431729Y-881674D01*
X2431729Y-881674D02*
X2441253Y-843579D01*
X2441253Y-843579D02*
X2450777Y-824531D01*
X2450777Y-824531D02*
X2460301Y-815008D01*
X2460301Y-815008D02*
X2479348Y-805484D01*
X2622206Y-824531D02*
X2631729Y-815008D01*
X2631729Y-815008D02*
X2650777Y-805484D01*
X2650777Y-805484D02*
X2698396Y-805484D01*
X2698396Y-805484D02*
X2717444Y-815008D01*
X2717444Y-815008D02*
X2726968Y-824531D01*
X2726968Y-824531D02*
X2736491Y-843579D01*
X2736491Y-843579D02*
X2736491Y-862627D01*
X2736491Y-862627D02*
X2726968Y-891198D01*
X2726968Y-891198D02*
X2612682Y-1005484D01*
X2612682Y-1005484D02*
X2736491Y-1005484D01*
X2831729Y-1005484D02*
X2869825Y-1005484D01*
X2869825Y-1005484D02*
X2888872Y-995960D01*
X2888872Y-995960D02*
X2898396Y-986436D01*
X2898396Y-986436D02*
X2917444Y-957865D01*
X2917444Y-957865D02*
X2926967Y-919769D01*
X2926967Y-919769D02*
X2926967Y-843579D01*
X2926967Y-843579D02*
X2917444Y-824531D01*
X2917444Y-824531D02*
X2907920Y-815008D01*
X2907920Y-815008D02*
X2888872Y-805484D01*
X2888872Y-805484D02*
X2850777Y-805484D01*
X2850777Y-805484D02*
X2831729Y-815008D01*
X2831729Y-815008D02*
X2822206Y-824531D01*
X2822206Y-824531D02*
X2812682Y-843579D01*
X2812682Y-843579D02*
X2812682Y-891198D01*
X2812682Y-891198D02*
X2822206Y-910246D01*
X2822206Y-910246D02*
X2831729Y-919769D01*
X2831729Y-919769D02*
X2850777Y-929293D01*
X2850777Y-929293D02*
X2888872Y-929293D01*
X2888872Y-929293D02*
X2907920Y-919769D01*
X2907920Y-919769D02*
X2917444Y-910246D01*
X2917444Y-910246D02*
X2926967Y-891198D01*
X3107920Y-805484D02*
X3012682Y-805484D01*
X3012682Y-805484D02*
X3003158Y-900722D01*
X3003158Y-900722D02*
X3012682Y-891198D01*
X3012682Y-891198D02*
X3031729Y-881674D01*
X3031729Y-881674D02*
X3079348Y-881674D01*
X3079348Y-881674D02*
X3098396Y-891198D01*
X3098396Y-891198D02*
X3107920Y-900722D01*
X3107920Y-900722D02*
X3117444Y-919769D01*
X3117444Y-919769D02*
X3117444Y-967388D01*
X3117444Y-967388D02*
X3107920Y-986436D01*
X3107920Y-986436D02*
X3098396Y-995960D01*
X3098396Y-995960D02*
X3079348Y-1005484D01*
X3079348Y-1005484D02*
X3031729Y-1005484D01*
X3031729Y-1005484D02*
X3012682Y-995960D01*
X3012682Y-995960D02*
X3003158Y-986436D01*
X3193634Y-805484D02*
X3193634Y-843579D01*
X3269825Y-805484D02*
X3269825Y-843579D01*
X3565063Y-1081674D02*
X3555539Y-1072150D01*
X3555539Y-1072150D02*
X3536491Y-1043579D01*
X3536491Y-1043579D02*
X3526968Y-1024531D01*
X3526968Y-1024531D02*
X3517444Y-995960D01*
X3517444Y-995960D02*
X3507920Y-948341D01*
X3507920Y-948341D02*
X3507920Y-910246D01*
X3507920Y-910246D02*
X3517444Y-862627D01*
X3517444Y-862627D02*
X3526968Y-834055D01*
X3526968Y-834055D02*
X3536491Y-815008D01*
X3536491Y-815008D02*
X3555539Y-786436D01*
X3555539Y-786436D02*
X3565063Y-776912D01*
X3631729Y-824531D02*
X3641253Y-815008D01*
X3641253Y-815008D02*
X3660301Y-805484D01*
X3660301Y-805484D02*
X3707920Y-805484D01*
X3707920Y-805484D02*
X3726968Y-815008D01*
X3726968Y-815008D02*
X3736491Y-824531D01*
X3736491Y-824531D02*
X3746015Y-843579D01*
X3746015Y-843579D02*
X3746015Y-862627D01*
X3746015Y-862627D02*
X3736491Y-891198D01*
X3736491Y-891198D02*
X3622206Y-1005484D01*
X3622206Y-1005484D02*
X3746015Y-1005484D01*
X3984110Y-1005484D02*
X3984110Y-805484D01*
X4069825Y-1005484D02*
X4069825Y-900722D01*
X4069825Y-900722D02*
X4060301Y-881674D01*
X4060301Y-881674D02*
X4041253Y-872150D01*
X4041253Y-872150D02*
X4012682Y-872150D01*
X4012682Y-872150D02*
X3993634Y-881674D01*
X3993634Y-881674D02*
X3984110Y-891198D01*
X4193634Y-1005484D02*
X4174587Y-995960D01*
X4174587Y-995960D02*
X4165063Y-986436D01*
X4165063Y-986436D02*
X4155539Y-967388D01*
X4155539Y-967388D02*
X4155539Y-910246D01*
X4155539Y-910246D02*
X4165063Y-891198D01*
X4165063Y-891198D02*
X4174587Y-881674D01*
X4174587Y-881674D02*
X4193634Y-872150D01*
X4193634Y-872150D02*
X4222206Y-872150D01*
X4222206Y-872150D02*
X4241253Y-881674D01*
X4241253Y-881674D02*
X4250777Y-891198D01*
X4250777Y-891198D02*
X4260301Y-910246D01*
X4260301Y-910246D02*
X4260301Y-967388D01*
X4260301Y-967388D02*
X4250777Y-986436D01*
X4250777Y-986436D02*
X4241253Y-995960D01*
X4241253Y-995960D02*
X4222206Y-1005484D01*
X4222206Y-1005484D02*
X4193634Y-1005484D01*
X4374587Y-1005484D02*
X4355539Y-995960D01*
X4355539Y-995960D02*
X4346015Y-976912D01*
X4346015Y-976912D02*
X4346015Y-805484D01*
X4526968Y-995960D02*
X4507920Y-1005484D01*
X4507920Y-1005484D02*
X4469825Y-1005484D01*
X4469825Y-1005484D02*
X4450777Y-995960D01*
X4450777Y-995960D02*
X4441253Y-976912D01*
X4441253Y-976912D02*
X4441253Y-900722D01*
X4441253Y-900722D02*
X4450777Y-881674D01*
X4450777Y-881674D02*
X4469825Y-872150D01*
X4469825Y-872150D02*
X4507920Y-872150D01*
X4507920Y-872150D02*
X4526968Y-881674D01*
X4526968Y-881674D02*
X4536492Y-900722D01*
X4536492Y-900722D02*
X4536492Y-919769D01*
X4536492Y-919769D02*
X4441253Y-938817D01*
X4612682Y-995960D02*
X4631730Y-1005484D01*
X4631730Y-1005484D02*
X4669825Y-1005484D01*
X4669825Y-1005484D02*
X4688873Y-995960D01*
X4688873Y-995960D02*
X4698396Y-976912D01*
X4698396Y-976912D02*
X4698396Y-967388D01*
X4698396Y-967388D02*
X4688873Y-948341D01*
X4688873Y-948341D02*
X4669825Y-938817D01*
X4669825Y-938817D02*
X4641253Y-938817D01*
X4641253Y-938817D02*
X4622206Y-929293D01*
X4622206Y-929293D02*
X4612682Y-910246D01*
X4612682Y-910246D02*
X4612682Y-900722D01*
X4612682Y-900722D02*
X4622206Y-881674D01*
X4622206Y-881674D02*
X4641253Y-872150D01*
X4641253Y-872150D02*
X4669825Y-872150D01*
X4669825Y-872150D02*
X4688873Y-881674D01*
X4765063Y-1081674D02*
X4774587Y-1072150D01*
X4774587Y-1072150D02*
X4793634Y-1043579D01*
X4793634Y-1043579D02*
X4803158Y-1024531D01*
X4803158Y-1024531D02*
X4812682Y-995960D01*
X4812682Y-995960D02*
X4822206Y-948341D01*
X4822206Y-948341D02*
X4822206Y-910246D01*
X4822206Y-910246D02*
X4812682Y-862627D01*
X4812682Y-862627D02*
X4803158Y-834055D01*
X4803158Y-834055D02*
X4793634Y-815008D01*
X4793634Y-815008D02*
X4774587Y-786436D01*
X4774587Y-786436D02*
X4765063Y-776912D01*
X5126968Y-1081674D02*
X5117444Y-1072150D01*
X5117444Y-1072150D02*
X5098396Y-1043579D01*
X5098396Y-1043579D02*
X5088873Y-1024531D01*
X5088873Y-1024531D02*
X5079349Y-995960D01*
X5079349Y-995960D02*
X5069825Y-948341D01*
X5069825Y-948341D02*
X5069825Y-910246D01*
X5069825Y-910246D02*
X5079349Y-862627D01*
X5079349Y-862627D02*
X5088873Y-834055D01*
X5088873Y-834055D02*
X5098396Y-815008D01*
X5098396Y-815008D02*
X5117444Y-786436D01*
X5117444Y-786436D02*
X5126968Y-776912D01*
X5203158Y-872150D02*
X5203158Y-1005484D01*
X5203158Y-891198D02*
X5212682Y-881674D01*
X5212682Y-881674D02*
X5231730Y-872150D01*
X5231730Y-872150D02*
X5260301Y-872150D01*
X5260301Y-872150D02*
X5279349Y-881674D01*
X5279349Y-881674D02*
X5288873Y-900722D01*
X5288873Y-900722D02*
X5288873Y-1005484D01*
X5412682Y-1005484D02*
X5393634Y-995960D01*
X5393634Y-995960D02*
X5384111Y-986436D01*
X5384111Y-986436D02*
X5374587Y-967388D01*
X5374587Y-967388D02*
X5374587Y-910246D01*
X5374587Y-910246D02*
X5384111Y-891198D01*
X5384111Y-891198D02*
X5393634Y-881674D01*
X5393634Y-881674D02*
X5412682Y-872150D01*
X5412682Y-872150D02*
X5441254Y-872150D01*
X5441254Y-872150D02*
X5460301Y-881674D01*
X5460301Y-881674D02*
X5469825Y-891198D01*
X5469825Y-891198D02*
X5479349Y-910246D01*
X5479349Y-910246D02*
X5479349Y-967388D01*
X5479349Y-967388D02*
X5469825Y-986436D01*
X5469825Y-986436D02*
X5460301Y-995960D01*
X5460301Y-995960D02*
X5441254Y-1005484D01*
X5441254Y-1005484D02*
X5412682Y-1005484D01*
X5536492Y-872150D02*
X5612682Y-872150D01*
X5565063Y-805484D02*
X5565063Y-976912D01*
X5565063Y-976912D02*
X5574587Y-995960D01*
X5574587Y-995960D02*
X5593634Y-1005484D01*
X5593634Y-1005484D02*
X5612682Y-1005484D01*
X5831730Y-872150D02*
X5831730Y-1072150D01*
X5831730Y-881674D02*
X5850777Y-872150D01*
X5850777Y-872150D02*
X5888873Y-872150D01*
X5888873Y-872150D02*
X5907920Y-881674D01*
X5907920Y-881674D02*
X5917444Y-891198D01*
X5917444Y-891198D02*
X5926968Y-910246D01*
X5926968Y-910246D02*
X5926968Y-967388D01*
X5926968Y-967388D02*
X5917444Y-986436D01*
X5917444Y-986436D02*
X5907920Y-995960D01*
X5907920Y-995960D02*
X5888873Y-1005484D01*
X5888873Y-1005484D02*
X5850777Y-1005484D01*
X5850777Y-1005484D02*
X5831730Y-995960D01*
X6041253Y-1005484D02*
X6022206Y-995960D01*
X6022206Y-995960D02*
X6012682Y-976912D01*
X6012682Y-976912D02*
X6012682Y-805484D01*
X6203158Y-1005484D02*
X6203158Y-900722D01*
X6203158Y-900722D02*
X6193634Y-881674D01*
X6193634Y-881674D02*
X6174587Y-872150D01*
X6174587Y-872150D02*
X6136492Y-872150D01*
X6136492Y-872150D02*
X6117444Y-881674D01*
X6203158Y-995960D02*
X6184111Y-1005484D01*
X6184111Y-1005484D02*
X6136492Y-1005484D01*
X6136492Y-1005484D02*
X6117444Y-995960D01*
X6117444Y-995960D02*
X6107920Y-976912D01*
X6107920Y-976912D02*
X6107920Y-957865D01*
X6107920Y-957865D02*
X6117444Y-938817D01*
X6117444Y-938817D02*
X6136492Y-929293D01*
X6136492Y-929293D02*
X6184111Y-929293D01*
X6184111Y-929293D02*
X6203158Y-919769D01*
X6269825Y-872150D02*
X6346015Y-872150D01*
X6298396Y-805484D02*
X6298396Y-976912D01*
X6298396Y-976912D02*
X6307920Y-995960D01*
X6307920Y-995960D02*
X6326968Y-1005484D01*
X6326968Y-1005484D02*
X6346015Y-1005484D01*
X6488873Y-995960D02*
X6469825Y-1005484D01*
X6469825Y-1005484D02*
X6431730Y-1005484D01*
X6431730Y-1005484D02*
X6412682Y-995960D01*
X6412682Y-995960D02*
X6403158Y-976912D01*
X6403158Y-976912D02*
X6403158Y-900722D01*
X6403158Y-900722D02*
X6412682Y-881674D01*
X6412682Y-881674D02*
X6431730Y-872150D01*
X6431730Y-872150D02*
X6469825Y-872150D01*
X6469825Y-872150D02*
X6488873Y-881674D01*
X6488873Y-881674D02*
X6498396Y-900722D01*
X6498396Y-900722D02*
X6498396Y-919769D01*
X6498396Y-919769D02*
X6403158Y-938817D01*
X6669825Y-1005484D02*
X6669825Y-805484D01*
X6669825Y-995960D02*
X6650777Y-1005484D01*
X6650777Y-1005484D02*
X6612682Y-1005484D01*
X6612682Y-1005484D02*
X6593634Y-995960D01*
X6593634Y-995960D02*
X6584111Y-986436D01*
X6584111Y-986436D02*
X6574587Y-967388D01*
X6574587Y-967388D02*
X6574587Y-910246D01*
X6574587Y-910246D02*
X6584111Y-891198D01*
X6584111Y-891198D02*
X6593634Y-881674D01*
X6593634Y-881674D02*
X6612682Y-872150D01*
X6612682Y-872150D02*
X6650777Y-872150D01*
X6650777Y-872150D02*
X6669825Y-881674D01*
X6746015Y-1081674D02*
X6755539Y-1072150D01*
X6755539Y-1072150D02*
X6774587Y-1043579D01*
X6774587Y-1043579D02*
X6784111Y-1024531D01*
X6784111Y-1024531D02*
X6793634Y-995960D01*
X6793634Y-995960D02*
X6803158Y-948341D01*
X6803158Y-948341D02*
X6803158Y-910246D01*
X6803158Y-910246D02*
X6793634Y-862627D01*
X6793634Y-862627D02*
X6784111Y-834055D01*
X6784111Y-834055D02*
X6774587Y-815008D01*
X6774587Y-815008D02*
X6755539Y-786436D01*
X6755539Y-786436D02*
X6746015Y-776912D01*
D11*
X-51500Y-1136500D02*
X-51500Y-1219500D01*
X-93000Y-1178000D02*
X-10000Y-1178000D01*
D10*
X288872Y-1069484D02*
X307920Y-1069484D01*
X307920Y-1069484D02*
X326967Y-1079008D01*
X326967Y-1079008D02*
X336491Y-1088531D01*
X336491Y-1088531D02*
X346015Y-1107579D01*
X346015Y-1107579D02*
X355539Y-1145674D01*
X355539Y-1145674D02*
X355539Y-1193293D01*
X355539Y-1193293D02*
X346015Y-1231389D01*
X346015Y-1231389D02*
X336491Y-1250436D01*
X336491Y-1250436D02*
X326967Y-1259960D01*
X326967Y-1259960D02*
X307920Y-1269484D01*
X307920Y-1269484D02*
X288872Y-1269484D01*
X288872Y-1269484D02*
X269824Y-1259960D01*
X269824Y-1259960D02*
X260301Y-1250436D01*
X260301Y-1250436D02*
X250777Y-1231389D01*
X250777Y-1231389D02*
X241253Y-1193293D01*
X241253Y-1193293D02*
X241253Y-1145674D01*
X241253Y-1145674D02*
X250777Y-1107579D01*
X250777Y-1107579D02*
X260301Y-1088531D01*
X260301Y-1088531D02*
X269824Y-1079008D01*
X269824Y-1079008D02*
X288872Y-1069484D01*
X441253Y-1250436D02*
X450777Y-1259960D01*
X450777Y-1259960D02*
X441253Y-1269484D01*
X441253Y-1269484D02*
X431729Y-1259960D01*
X431729Y-1259960D02*
X441253Y-1250436D01*
X441253Y-1250436D02*
X441253Y-1269484D01*
X565063Y-1155198D02*
X546015Y-1145674D01*
X546015Y-1145674D02*
X536491Y-1136150D01*
X536491Y-1136150D02*
X526967Y-1117103D01*
X526967Y-1117103D02*
X526967Y-1107579D01*
X526967Y-1107579D02*
X536491Y-1088531D01*
X536491Y-1088531D02*
X546015Y-1079008D01*
X546015Y-1079008D02*
X565063Y-1069484D01*
X565063Y-1069484D02*
X603158Y-1069484D01*
X603158Y-1069484D02*
X622205Y-1079008D01*
X622205Y-1079008D02*
X631729Y-1088531D01*
X631729Y-1088531D02*
X641253Y-1107579D01*
X641253Y-1107579D02*
X641253Y-1117103D01*
X641253Y-1117103D02*
X631729Y-1136150D01*
X631729Y-1136150D02*
X622205Y-1145674D01*
X622205Y-1145674D02*
X603158Y-1155198D01*
X603158Y-1155198D02*
X565063Y-1155198D01*
X565063Y-1155198D02*
X546015Y-1164722D01*
X546015Y-1164722D02*
X536491Y-1174246D01*
X536491Y-1174246D02*
X526967Y-1193293D01*
X526967Y-1193293D02*
X526967Y-1231389D01*
X526967Y-1231389D02*
X536491Y-1250436D01*
X536491Y-1250436D02*
X546015Y-1259960D01*
X546015Y-1259960D02*
X565063Y-1269484D01*
X565063Y-1269484D02*
X603158Y-1269484D01*
X603158Y-1269484D02*
X622205Y-1259960D01*
X622205Y-1259960D02*
X631729Y-1250436D01*
X631729Y-1250436D02*
X641253Y-1231389D01*
X641253Y-1231389D02*
X641253Y-1193293D01*
X641253Y-1193293D02*
X631729Y-1174246D01*
X631729Y-1174246D02*
X622205Y-1164722D01*
X622205Y-1164722D02*
X603158Y-1155198D01*
X707920Y-1069484D02*
X831729Y-1069484D01*
X831729Y-1069484D02*
X765062Y-1145674D01*
X765062Y-1145674D02*
X793634Y-1145674D01*
X793634Y-1145674D02*
X812682Y-1155198D01*
X812682Y-1155198D02*
X822205Y-1164722D01*
X822205Y-1164722D02*
X831729Y-1183770D01*
X831729Y-1183770D02*
X831729Y-1231389D01*
X831729Y-1231389D02*
X822205Y-1250436D01*
X822205Y-1250436D02*
X812682Y-1259960D01*
X812682Y-1259960D02*
X793634Y-1269484D01*
X793634Y-1269484D02*
X736491Y-1269484D01*
X736491Y-1269484D02*
X717443Y-1259960D01*
X717443Y-1259960D02*
X707920Y-1250436D01*
X955539Y-1069484D02*
X974586Y-1069484D01*
X974586Y-1069484D02*
X993634Y-1079008D01*
X993634Y-1079008D02*
X1003158Y-1088531D01*
X1003158Y-1088531D02*
X1012682Y-1107579D01*
X1012682Y-1107579D02*
X1022205Y-1145674D01*
X1022205Y-1145674D02*
X1022205Y-1193293D01*
X1022205Y-1193293D02*
X1012682Y-1231389D01*
X1012682Y-1231389D02*
X1003158Y-1250436D01*
X1003158Y-1250436D02*
X993634Y-1259960D01*
X993634Y-1259960D02*
X974586Y-1269484D01*
X974586Y-1269484D02*
X955539Y-1269484D01*
X955539Y-1269484D02*
X936491Y-1259960D01*
X936491Y-1259960D02*
X926967Y-1250436D01*
X926967Y-1250436D02*
X917443Y-1231389D01*
X917443Y-1231389D02*
X907920Y-1193293D01*
X907920Y-1193293D02*
X907920Y-1145674D01*
X907920Y-1145674D02*
X917443Y-1107579D01*
X917443Y-1107579D02*
X926967Y-1088531D01*
X926967Y-1088531D02*
X936491Y-1079008D01*
X936491Y-1079008D02*
X955539Y-1069484D01*
X1107920Y-1269484D02*
X1107920Y-1136150D01*
X1107920Y-1155198D02*
X1117444Y-1145674D01*
X1117444Y-1145674D02*
X1136491Y-1136150D01*
X1136491Y-1136150D02*
X1165063Y-1136150D01*
X1165063Y-1136150D02*
X1184110Y-1145674D01*
X1184110Y-1145674D02*
X1193634Y-1164722D01*
X1193634Y-1164722D02*
X1193634Y-1269484D01*
X1193634Y-1164722D02*
X1203158Y-1145674D01*
X1203158Y-1145674D02*
X1222205Y-1136150D01*
X1222205Y-1136150D02*
X1250777Y-1136150D01*
X1250777Y-1136150D02*
X1269825Y-1145674D01*
X1269825Y-1145674D02*
X1279348Y-1164722D01*
X1279348Y-1164722D02*
X1279348Y-1269484D01*
X1374586Y-1269484D02*
X1374586Y-1136150D01*
X1374586Y-1155198D02*
X1384110Y-1145674D01*
X1384110Y-1145674D02*
X1403158Y-1136150D01*
X1403158Y-1136150D02*
X1431729Y-1136150D01*
X1431729Y-1136150D02*
X1450777Y-1145674D01*
X1450777Y-1145674D02*
X1460301Y-1164722D01*
X1460301Y-1164722D02*
X1460301Y-1269484D01*
X1460301Y-1164722D02*
X1469824Y-1145674D01*
X1469824Y-1145674D02*
X1488872Y-1136150D01*
X1488872Y-1136150D02*
X1517443Y-1136150D01*
X1517443Y-1136150D02*
X1536491Y-1145674D01*
X1536491Y-1145674D02*
X1546015Y-1164722D01*
X1546015Y-1164722D02*
X1546015Y-1269484D01*
X1936491Y-1059960D02*
X1765063Y-1317103D01*
X2193634Y-1069484D02*
X2212682Y-1069484D01*
X2212682Y-1069484D02*
X2231729Y-1079008D01*
X2231729Y-1079008D02*
X2241253Y-1088531D01*
X2241253Y-1088531D02*
X2250777Y-1107579D01*
X2250777Y-1107579D02*
X2260301Y-1145674D01*
X2260301Y-1145674D02*
X2260301Y-1193293D01*
X2260301Y-1193293D02*
X2250777Y-1231389D01*
X2250777Y-1231389D02*
X2241253Y-1250436D01*
X2241253Y-1250436D02*
X2231729Y-1259960D01*
X2231729Y-1259960D02*
X2212682Y-1269484D01*
X2212682Y-1269484D02*
X2193634Y-1269484D01*
X2193634Y-1269484D02*
X2174587Y-1259960D01*
X2174587Y-1259960D02*
X2165063Y-1250436D01*
X2165063Y-1250436D02*
X2155539Y-1231389D01*
X2155539Y-1231389D02*
X2146015Y-1193293D01*
X2146015Y-1193293D02*
X2146015Y-1145674D01*
X2146015Y-1145674D02*
X2155539Y-1107579D01*
X2155539Y-1107579D02*
X2165063Y-1088531D01*
X2165063Y-1088531D02*
X2174587Y-1079008D01*
X2174587Y-1079008D02*
X2193634Y-1069484D01*
X2346015Y-1250436D02*
X2355539Y-1259960D01*
X2355539Y-1259960D02*
X2346015Y-1269484D01*
X2346015Y-1269484D02*
X2336491Y-1259960D01*
X2336491Y-1259960D02*
X2346015Y-1250436D01*
X2346015Y-1250436D02*
X2346015Y-1269484D01*
X2479348Y-1069484D02*
X2498396Y-1069484D01*
X2498396Y-1069484D02*
X2517444Y-1079008D01*
X2517444Y-1079008D02*
X2526968Y-1088531D01*
X2526968Y-1088531D02*
X2536491Y-1107579D01*
X2536491Y-1107579D02*
X2546015Y-1145674D01*
X2546015Y-1145674D02*
X2546015Y-1193293D01*
X2546015Y-1193293D02*
X2536491Y-1231389D01*
X2536491Y-1231389D02*
X2526968Y-1250436D01*
X2526968Y-1250436D02*
X2517444Y-1259960D01*
X2517444Y-1259960D02*
X2498396Y-1269484D01*
X2498396Y-1269484D02*
X2479348Y-1269484D01*
X2479348Y-1269484D02*
X2460301Y-1259960D01*
X2460301Y-1259960D02*
X2450777Y-1250436D01*
X2450777Y-1250436D02*
X2441253Y-1231389D01*
X2441253Y-1231389D02*
X2431729Y-1193293D01*
X2431729Y-1193293D02*
X2431729Y-1145674D01*
X2431729Y-1145674D02*
X2441253Y-1107579D01*
X2441253Y-1107579D02*
X2450777Y-1088531D01*
X2450777Y-1088531D02*
X2460301Y-1079008D01*
X2460301Y-1079008D02*
X2479348Y-1069484D01*
X2612682Y-1069484D02*
X2736491Y-1069484D01*
X2736491Y-1069484D02*
X2669825Y-1145674D01*
X2669825Y-1145674D02*
X2698396Y-1145674D01*
X2698396Y-1145674D02*
X2717444Y-1155198D01*
X2717444Y-1155198D02*
X2726968Y-1164722D01*
X2726968Y-1164722D02*
X2736491Y-1183770D01*
X2736491Y-1183770D02*
X2736491Y-1231389D01*
X2736491Y-1231389D02*
X2726968Y-1250436D01*
X2726968Y-1250436D02*
X2717444Y-1259960D01*
X2717444Y-1259960D02*
X2698396Y-1269484D01*
X2698396Y-1269484D02*
X2641253Y-1269484D01*
X2641253Y-1269484D02*
X2622206Y-1259960D01*
X2622206Y-1259960D02*
X2612682Y-1250436D01*
X2812682Y-1088531D02*
X2822206Y-1079008D01*
X2822206Y-1079008D02*
X2841253Y-1069484D01*
X2841253Y-1069484D02*
X2888872Y-1069484D01*
X2888872Y-1069484D02*
X2907920Y-1079008D01*
X2907920Y-1079008D02*
X2917444Y-1088531D01*
X2917444Y-1088531D02*
X2926967Y-1107579D01*
X2926967Y-1107579D02*
X2926967Y-1126627D01*
X2926967Y-1126627D02*
X2917444Y-1155198D01*
X2917444Y-1155198D02*
X2803158Y-1269484D01*
X2803158Y-1269484D02*
X2926967Y-1269484D01*
X2993634Y-1069484D02*
X3126967Y-1069484D01*
X3126967Y-1069484D02*
X3041253Y-1269484D01*
X3193634Y-1069484D02*
X3193634Y-1107579D01*
X3269825Y-1069484D02*
X3269825Y-1107579D01*
X3565063Y-1345674D02*
X3555539Y-1336150D01*
X3555539Y-1336150D02*
X3536491Y-1307579D01*
X3536491Y-1307579D02*
X3526968Y-1288531D01*
X3526968Y-1288531D02*
X3517444Y-1259960D01*
X3517444Y-1259960D02*
X3507920Y-1212341D01*
X3507920Y-1212341D02*
X3507920Y-1174246D01*
X3507920Y-1174246D02*
X3517444Y-1126627D01*
X3517444Y-1126627D02*
X3526968Y-1098055D01*
X3526968Y-1098055D02*
X3536491Y-1079008D01*
X3536491Y-1079008D02*
X3555539Y-1050436D01*
X3555539Y-1050436D02*
X3565063Y-1040912D01*
X3622206Y-1069484D02*
X3746015Y-1069484D01*
X3746015Y-1069484D02*
X3679348Y-1145674D01*
X3679348Y-1145674D02*
X3707920Y-1145674D01*
X3707920Y-1145674D02*
X3726968Y-1155198D01*
X3726968Y-1155198D02*
X3736491Y-1164722D01*
X3736491Y-1164722D02*
X3746015Y-1183770D01*
X3746015Y-1183770D02*
X3746015Y-1231389D01*
X3746015Y-1231389D02*
X3736491Y-1250436D01*
X3736491Y-1250436D02*
X3726968Y-1259960D01*
X3726968Y-1259960D02*
X3707920Y-1269484D01*
X3707920Y-1269484D02*
X3650777Y-1269484D01*
X3650777Y-1269484D02*
X3631729Y-1259960D01*
X3631729Y-1259960D02*
X3622206Y-1250436D01*
X3984110Y-1269484D02*
X3984110Y-1069484D01*
X4069825Y-1269484D02*
X4069825Y-1164722D01*
X4069825Y-1164722D02*
X4060301Y-1145674D01*
X4060301Y-1145674D02*
X4041253Y-1136150D01*
X4041253Y-1136150D02*
X4012682Y-1136150D01*
X4012682Y-1136150D02*
X3993634Y-1145674D01*
X3993634Y-1145674D02*
X3984110Y-1155198D01*
X4193634Y-1269484D02*
X4174587Y-1259960D01*
X4174587Y-1259960D02*
X4165063Y-1250436D01*
X4165063Y-1250436D02*
X4155539Y-1231389D01*
X4155539Y-1231389D02*
X4155539Y-1174246D01*
X4155539Y-1174246D02*
X4165063Y-1155198D01*
X4165063Y-1155198D02*
X4174587Y-1145674D01*
X4174587Y-1145674D02*
X4193634Y-1136150D01*
X4193634Y-1136150D02*
X4222206Y-1136150D01*
X4222206Y-1136150D02*
X4241253Y-1145674D01*
X4241253Y-1145674D02*
X4250777Y-1155198D01*
X4250777Y-1155198D02*
X4260301Y-1174246D01*
X4260301Y-1174246D02*
X4260301Y-1231389D01*
X4260301Y-1231389D02*
X4250777Y-1250436D01*
X4250777Y-1250436D02*
X4241253Y-1259960D01*
X4241253Y-1259960D02*
X4222206Y-1269484D01*
X4222206Y-1269484D02*
X4193634Y-1269484D01*
X4374587Y-1269484D02*
X4355539Y-1259960D01*
X4355539Y-1259960D02*
X4346015Y-1240912D01*
X4346015Y-1240912D02*
X4346015Y-1069484D01*
X4526968Y-1259960D02*
X4507920Y-1269484D01*
X4507920Y-1269484D02*
X4469825Y-1269484D01*
X4469825Y-1269484D02*
X4450777Y-1259960D01*
X4450777Y-1259960D02*
X4441253Y-1240912D01*
X4441253Y-1240912D02*
X4441253Y-1164722D01*
X4441253Y-1164722D02*
X4450777Y-1145674D01*
X4450777Y-1145674D02*
X4469825Y-1136150D01*
X4469825Y-1136150D02*
X4507920Y-1136150D01*
X4507920Y-1136150D02*
X4526968Y-1145674D01*
X4526968Y-1145674D02*
X4536492Y-1164722D01*
X4536492Y-1164722D02*
X4536492Y-1183770D01*
X4536492Y-1183770D02*
X4441253Y-1202817D01*
X4612682Y-1259960D02*
X4631730Y-1269484D01*
X4631730Y-1269484D02*
X4669825Y-1269484D01*
X4669825Y-1269484D02*
X4688873Y-1259960D01*
X4688873Y-1259960D02*
X4698396Y-1240912D01*
X4698396Y-1240912D02*
X4698396Y-1231389D01*
X4698396Y-1231389D02*
X4688873Y-1212341D01*
X4688873Y-1212341D02*
X4669825Y-1202817D01*
X4669825Y-1202817D02*
X4641253Y-1202817D01*
X4641253Y-1202817D02*
X4622206Y-1193293D01*
X4622206Y-1193293D02*
X4612682Y-1174246D01*
X4612682Y-1174246D02*
X4612682Y-1164722D01*
X4612682Y-1164722D02*
X4622206Y-1145674D01*
X4622206Y-1145674D02*
X4641253Y-1136150D01*
X4641253Y-1136150D02*
X4669825Y-1136150D01*
X4669825Y-1136150D02*
X4688873Y-1145674D01*
X4765063Y-1345674D02*
X4774587Y-1336150D01*
X4774587Y-1336150D02*
X4793634Y-1307579D01*
X4793634Y-1307579D02*
X4803158Y-1288531D01*
X4803158Y-1288531D02*
X4812682Y-1259960D01*
X4812682Y-1259960D02*
X4822206Y-1212341D01*
X4822206Y-1212341D02*
X4822206Y-1174246D01*
X4822206Y-1174246D02*
X4812682Y-1126627D01*
X4812682Y-1126627D02*
X4803158Y-1098055D01*
X4803158Y-1098055D02*
X4793634Y-1079008D01*
X4793634Y-1079008D02*
X4774587Y-1050436D01*
X4774587Y-1050436D02*
X4765063Y-1040912D01*
X5126968Y-1345674D02*
X5117444Y-1336150D01*
X5117444Y-1336150D02*
X5098396Y-1307579D01*
X5098396Y-1307579D02*
X5088873Y-1288531D01*
X5088873Y-1288531D02*
X5079349Y-1259960D01*
X5079349Y-1259960D02*
X5069825Y-1212341D01*
X5069825Y-1212341D02*
X5069825Y-1174246D01*
X5069825Y-1174246D02*
X5079349Y-1126627D01*
X5079349Y-1126627D02*
X5088873Y-1098055D01*
X5088873Y-1098055D02*
X5098396Y-1079008D01*
X5098396Y-1079008D02*
X5117444Y-1050436D01*
X5117444Y-1050436D02*
X5126968Y-1040912D01*
X5203158Y-1136150D02*
X5203158Y-1269484D01*
X5203158Y-1155198D02*
X5212682Y-1145674D01*
X5212682Y-1145674D02*
X5231730Y-1136150D01*
X5231730Y-1136150D02*
X5260301Y-1136150D01*
X5260301Y-1136150D02*
X5279349Y-1145674D01*
X5279349Y-1145674D02*
X5288873Y-1164722D01*
X5288873Y-1164722D02*
X5288873Y-1269484D01*
X5412682Y-1269484D02*
X5393634Y-1259960D01*
X5393634Y-1259960D02*
X5384111Y-1250436D01*
X5384111Y-1250436D02*
X5374587Y-1231389D01*
X5374587Y-1231389D02*
X5374587Y-1174246D01*
X5374587Y-1174246D02*
X5384111Y-1155198D01*
X5384111Y-1155198D02*
X5393634Y-1145674D01*
X5393634Y-1145674D02*
X5412682Y-1136150D01*
X5412682Y-1136150D02*
X5441254Y-1136150D01*
X5441254Y-1136150D02*
X5460301Y-1145674D01*
X5460301Y-1145674D02*
X5469825Y-1155198D01*
X5469825Y-1155198D02*
X5479349Y-1174246D01*
X5479349Y-1174246D02*
X5479349Y-1231389D01*
X5479349Y-1231389D02*
X5469825Y-1250436D01*
X5469825Y-1250436D02*
X5460301Y-1259960D01*
X5460301Y-1259960D02*
X5441254Y-1269484D01*
X5441254Y-1269484D02*
X5412682Y-1269484D01*
X5536492Y-1136150D02*
X5612682Y-1136150D01*
X5565063Y-1069484D02*
X5565063Y-1240912D01*
X5565063Y-1240912D02*
X5574587Y-1259960D01*
X5574587Y-1259960D02*
X5593634Y-1269484D01*
X5593634Y-1269484D02*
X5612682Y-1269484D01*
X5831730Y-1136150D02*
X5831730Y-1336150D01*
X5831730Y-1145674D02*
X5850777Y-1136150D01*
X5850777Y-1136150D02*
X5888873Y-1136150D01*
X5888873Y-1136150D02*
X5907920Y-1145674D01*
X5907920Y-1145674D02*
X5917444Y-1155198D01*
X5917444Y-1155198D02*
X5926968Y-1174246D01*
X5926968Y-1174246D02*
X5926968Y-1231389D01*
X5926968Y-1231389D02*
X5917444Y-1250436D01*
X5917444Y-1250436D02*
X5907920Y-1259960D01*
X5907920Y-1259960D02*
X5888873Y-1269484D01*
X5888873Y-1269484D02*
X5850777Y-1269484D01*
X5850777Y-1269484D02*
X5831730Y-1259960D01*
X6041253Y-1269484D02*
X6022206Y-1259960D01*
X6022206Y-1259960D02*
X6012682Y-1240912D01*
X6012682Y-1240912D02*
X6012682Y-1069484D01*
X6203158Y-1269484D02*
X6203158Y-1164722D01*
X6203158Y-1164722D02*
X6193634Y-1145674D01*
X6193634Y-1145674D02*
X6174587Y-1136150D01*
X6174587Y-1136150D02*
X6136492Y-1136150D01*
X6136492Y-1136150D02*
X6117444Y-1145674D01*
X6203158Y-1259960D02*
X6184111Y-1269484D01*
X6184111Y-1269484D02*
X6136492Y-1269484D01*
X6136492Y-1269484D02*
X6117444Y-1259960D01*
X6117444Y-1259960D02*
X6107920Y-1240912D01*
X6107920Y-1240912D02*
X6107920Y-1221865D01*
X6107920Y-1221865D02*
X6117444Y-1202817D01*
X6117444Y-1202817D02*
X6136492Y-1193293D01*
X6136492Y-1193293D02*
X6184111Y-1193293D01*
X6184111Y-1193293D02*
X6203158Y-1183770D01*
X6269825Y-1136150D02*
X6346015Y-1136150D01*
X6298396Y-1069484D02*
X6298396Y-1240912D01*
X6298396Y-1240912D02*
X6307920Y-1259960D01*
X6307920Y-1259960D02*
X6326968Y-1269484D01*
X6326968Y-1269484D02*
X6346015Y-1269484D01*
X6488873Y-1259960D02*
X6469825Y-1269484D01*
X6469825Y-1269484D02*
X6431730Y-1269484D01*
X6431730Y-1269484D02*
X6412682Y-1259960D01*
X6412682Y-1259960D02*
X6403158Y-1240912D01*
X6403158Y-1240912D02*
X6403158Y-1164722D01*
X6403158Y-1164722D02*
X6412682Y-1145674D01*
X6412682Y-1145674D02*
X6431730Y-1136150D01*
X6431730Y-1136150D02*
X6469825Y-1136150D01*
X6469825Y-1136150D02*
X6488873Y-1145674D01*
X6488873Y-1145674D02*
X6498396Y-1164722D01*
X6498396Y-1164722D02*
X6498396Y-1183770D01*
X6498396Y-1183770D02*
X6403158Y-1202817D01*
X6669825Y-1269484D02*
X6669825Y-1069484D01*
X6669825Y-1259960D02*
X6650777Y-1269484D01*
X6650777Y-1269484D02*
X6612682Y-1269484D01*
X6612682Y-1269484D02*
X6593634Y-1259960D01*
X6593634Y-1259960D02*
X6584111Y-1250436D01*
X6584111Y-1250436D02*
X6574587Y-1231389D01*
X6574587Y-1231389D02*
X6574587Y-1174246D01*
X6574587Y-1174246D02*
X6584111Y-1155198D01*
X6584111Y-1155198D02*
X6593634Y-1145674D01*
X6593634Y-1145674D02*
X6612682Y-1136150D01*
X6612682Y-1136150D02*
X6650777Y-1136150D01*
X6650777Y-1136150D02*
X6669825Y-1145674D01*
X6746015Y-1345674D02*
X6755539Y-1336150D01*
X6755539Y-1336150D02*
X6774587Y-1307579D01*
X6774587Y-1307579D02*
X6784111Y-1288531D01*
X6784111Y-1288531D02*
X6793634Y-1259960D01*
X6793634Y-1259960D02*
X6803158Y-1212341D01*
X6803158Y-1212341D02*
X6803158Y-1174246D01*
X6803158Y-1174246D02*
X6793634Y-1126627D01*
X6793634Y-1126627D02*
X6784111Y-1098055D01*
X6784111Y-1098055D02*
X6774587Y-1079008D01*
X6774587Y-1079008D02*
X6755539Y-1050436D01*
X6755539Y-1050436D02*
X6746015Y-1040912D01*
D12*
X-26109Y-1480891D02*
X-26109Y-1403109D01*
X-103891Y-1403109D01*
X-103891Y-1480891D01*
X-26109Y-1480891D01*
D10*
X355539Y-1533484D02*
X241253Y-1533484D01*
X298396Y-1533484D02*
X298396Y-1333484D01*
X298396Y-1333484D02*
X279348Y-1362055D01*
X279348Y-1362055D02*
X260301Y-1381103D01*
X260301Y-1381103D02*
X241253Y-1390627D01*
X441253Y-1514436D02*
X450777Y-1523960D01*
X450777Y-1523960D02*
X441253Y-1533484D01*
X441253Y-1533484D02*
X431729Y-1523960D01*
X431729Y-1523960D02*
X441253Y-1514436D01*
X441253Y-1514436D02*
X441253Y-1533484D01*
X641253Y-1533484D02*
X526967Y-1533484D01*
X584110Y-1533484D02*
X584110Y-1333484D01*
X584110Y-1333484D02*
X565063Y-1362055D01*
X565063Y-1362055D02*
X546015Y-1381103D01*
X546015Y-1381103D02*
X526967Y-1390627D01*
X765062Y-1333484D02*
X784110Y-1333484D01*
X784110Y-1333484D02*
X803158Y-1343008D01*
X803158Y-1343008D02*
X812682Y-1352531D01*
X812682Y-1352531D02*
X822205Y-1371579D01*
X822205Y-1371579D02*
X831729Y-1409674D01*
X831729Y-1409674D02*
X831729Y-1457293D01*
X831729Y-1457293D02*
X822205Y-1495388D01*
X822205Y-1495388D02*
X812682Y-1514436D01*
X812682Y-1514436D02*
X803158Y-1523960D01*
X803158Y-1523960D02*
X784110Y-1533484D01*
X784110Y-1533484D02*
X765062Y-1533484D01*
X765062Y-1533484D02*
X746015Y-1523960D01*
X746015Y-1523960D02*
X736491Y-1514436D01*
X736491Y-1514436D02*
X726967Y-1495388D01*
X726967Y-1495388D02*
X717443Y-1457293D01*
X717443Y-1457293D02*
X717443Y-1409674D01*
X717443Y-1409674D02*
X726967Y-1371579D01*
X726967Y-1371579D02*
X736491Y-1352531D01*
X736491Y-1352531D02*
X746015Y-1343008D01*
X746015Y-1343008D02*
X765062Y-1333484D01*
X955539Y-1333484D02*
X974586Y-1333484D01*
X974586Y-1333484D02*
X993634Y-1343008D01*
X993634Y-1343008D02*
X1003158Y-1352531D01*
X1003158Y-1352531D02*
X1012682Y-1371579D01*
X1012682Y-1371579D02*
X1022205Y-1409674D01*
X1022205Y-1409674D02*
X1022205Y-1457293D01*
X1022205Y-1457293D02*
X1012682Y-1495388D01*
X1012682Y-1495388D02*
X1003158Y-1514436D01*
X1003158Y-1514436D02*
X993634Y-1523960D01*
X993634Y-1523960D02*
X974586Y-1533484D01*
X974586Y-1533484D02*
X955539Y-1533484D01*
X955539Y-1533484D02*
X936491Y-1523960D01*
X936491Y-1523960D02*
X926967Y-1514436D01*
X926967Y-1514436D02*
X917443Y-1495388D01*
X917443Y-1495388D02*
X907920Y-1457293D01*
X907920Y-1457293D02*
X907920Y-1409674D01*
X907920Y-1409674D02*
X917443Y-1371579D01*
X917443Y-1371579D02*
X926967Y-1352531D01*
X926967Y-1352531D02*
X936491Y-1343008D01*
X936491Y-1343008D02*
X955539Y-1333484D01*
X1107920Y-1533484D02*
X1107920Y-1400150D01*
X1107920Y-1419198D02*
X1117444Y-1409674D01*
X1117444Y-1409674D02*
X1136491Y-1400150D01*
X1136491Y-1400150D02*
X1165063Y-1400150D01*
X1165063Y-1400150D02*
X1184110Y-1409674D01*
X1184110Y-1409674D02*
X1193634Y-1428722D01*
X1193634Y-1428722D02*
X1193634Y-1533484D01*
X1193634Y-1428722D02*
X1203158Y-1409674D01*
X1203158Y-1409674D02*
X1222205Y-1400150D01*
X1222205Y-1400150D02*
X1250777Y-1400150D01*
X1250777Y-1400150D02*
X1269825Y-1409674D01*
X1269825Y-1409674D02*
X1279348Y-1428722D01*
X1279348Y-1428722D02*
X1279348Y-1533484D01*
X1374586Y-1533484D02*
X1374586Y-1400150D01*
X1374586Y-1419198D02*
X1384110Y-1409674D01*
X1384110Y-1409674D02*
X1403158Y-1400150D01*
X1403158Y-1400150D02*
X1431729Y-1400150D01*
X1431729Y-1400150D02*
X1450777Y-1409674D01*
X1450777Y-1409674D02*
X1460301Y-1428722D01*
X1460301Y-1428722D02*
X1460301Y-1533484D01*
X1460301Y-1428722D02*
X1469824Y-1409674D01*
X1469824Y-1409674D02*
X1488872Y-1400150D01*
X1488872Y-1400150D02*
X1517443Y-1400150D01*
X1517443Y-1400150D02*
X1536491Y-1409674D01*
X1536491Y-1409674D02*
X1546015Y-1428722D01*
X1546015Y-1428722D02*
X1546015Y-1533484D01*
X1936491Y-1323960D02*
X1765063Y-1581103D01*
X2193634Y-1333484D02*
X2212682Y-1333484D01*
X2212682Y-1333484D02*
X2231729Y-1343008D01*
X2231729Y-1343008D02*
X2241253Y-1352531D01*
X2241253Y-1352531D02*
X2250777Y-1371579D01*
X2250777Y-1371579D02*
X2260301Y-1409674D01*
X2260301Y-1409674D02*
X2260301Y-1457293D01*
X2260301Y-1457293D02*
X2250777Y-1495388D01*
X2250777Y-1495388D02*
X2241253Y-1514436D01*
X2241253Y-1514436D02*
X2231729Y-1523960D01*
X2231729Y-1523960D02*
X2212682Y-1533484D01*
X2212682Y-1533484D02*
X2193634Y-1533484D01*
X2193634Y-1533484D02*
X2174587Y-1523960D01*
X2174587Y-1523960D02*
X2165063Y-1514436D01*
X2165063Y-1514436D02*
X2155539Y-1495388D01*
X2155539Y-1495388D02*
X2146015Y-1457293D01*
X2146015Y-1457293D02*
X2146015Y-1409674D01*
X2146015Y-1409674D02*
X2155539Y-1371579D01*
X2155539Y-1371579D02*
X2165063Y-1352531D01*
X2165063Y-1352531D02*
X2174587Y-1343008D01*
X2174587Y-1343008D02*
X2193634Y-1333484D01*
X2346015Y-1514436D02*
X2355539Y-1523960D01*
X2355539Y-1523960D02*
X2346015Y-1533484D01*
X2346015Y-1533484D02*
X2336491Y-1523960D01*
X2336491Y-1523960D02*
X2346015Y-1514436D01*
X2346015Y-1514436D02*
X2346015Y-1533484D01*
X2479348Y-1333484D02*
X2498396Y-1333484D01*
X2498396Y-1333484D02*
X2517444Y-1343008D01*
X2517444Y-1343008D02*
X2526968Y-1352531D01*
X2526968Y-1352531D02*
X2536491Y-1371579D01*
X2536491Y-1371579D02*
X2546015Y-1409674D01*
X2546015Y-1409674D02*
X2546015Y-1457293D01*
X2546015Y-1457293D02*
X2536491Y-1495388D01*
X2536491Y-1495388D02*
X2526968Y-1514436D01*
X2526968Y-1514436D02*
X2517444Y-1523960D01*
X2517444Y-1523960D02*
X2498396Y-1533484D01*
X2498396Y-1533484D02*
X2479348Y-1533484D01*
X2479348Y-1533484D02*
X2460301Y-1523960D01*
X2460301Y-1523960D02*
X2450777Y-1514436D01*
X2450777Y-1514436D02*
X2441253Y-1495388D01*
X2441253Y-1495388D02*
X2431729Y-1457293D01*
X2431729Y-1457293D02*
X2431729Y-1409674D01*
X2431729Y-1409674D02*
X2441253Y-1371579D01*
X2441253Y-1371579D02*
X2450777Y-1352531D01*
X2450777Y-1352531D02*
X2460301Y-1343008D01*
X2460301Y-1343008D02*
X2479348Y-1333484D01*
X2717444Y-1400150D02*
X2717444Y-1533484D01*
X2669825Y-1323960D02*
X2622206Y-1466817D01*
X2622206Y-1466817D02*
X2746015Y-1466817D01*
X2803158Y-1333484D02*
X2926967Y-1333484D01*
X2926967Y-1333484D02*
X2860301Y-1409674D01*
X2860301Y-1409674D02*
X2888872Y-1409674D01*
X2888872Y-1409674D02*
X2907920Y-1419198D01*
X2907920Y-1419198D02*
X2917444Y-1428722D01*
X2917444Y-1428722D02*
X2926967Y-1447769D01*
X2926967Y-1447769D02*
X2926967Y-1495388D01*
X2926967Y-1495388D02*
X2917444Y-1514436D01*
X2917444Y-1514436D02*
X2907920Y-1523960D01*
X2907920Y-1523960D02*
X2888872Y-1533484D01*
X2888872Y-1533484D02*
X2831729Y-1533484D01*
X2831729Y-1533484D02*
X2812682Y-1523960D01*
X2812682Y-1523960D02*
X2803158Y-1514436D01*
X2993634Y-1333484D02*
X3117444Y-1333484D01*
X3117444Y-1333484D02*
X3050777Y-1409674D01*
X3050777Y-1409674D02*
X3079348Y-1409674D01*
X3079348Y-1409674D02*
X3098396Y-1419198D01*
X3098396Y-1419198D02*
X3107920Y-1428722D01*
X3107920Y-1428722D02*
X3117444Y-1447769D01*
X3117444Y-1447769D02*
X3117444Y-1495388D01*
X3117444Y-1495388D02*
X3107920Y-1514436D01*
X3107920Y-1514436D02*
X3098396Y-1523960D01*
X3098396Y-1523960D02*
X3079348Y-1533484D01*
X3079348Y-1533484D02*
X3022206Y-1533484D01*
X3022206Y-1533484D02*
X3003158Y-1523960D01*
X3003158Y-1523960D02*
X2993634Y-1514436D01*
X3193634Y-1333484D02*
X3193634Y-1371579D01*
X3269825Y-1333484D02*
X3269825Y-1371579D01*
X3565063Y-1609674D02*
X3555539Y-1600150D01*
X3555539Y-1600150D02*
X3536491Y-1571579D01*
X3536491Y-1571579D02*
X3526968Y-1552531D01*
X3526968Y-1552531D02*
X3517444Y-1523960D01*
X3517444Y-1523960D02*
X3507920Y-1476341D01*
X3507920Y-1476341D02*
X3507920Y-1438246D01*
X3507920Y-1438246D02*
X3517444Y-1390627D01*
X3517444Y-1390627D02*
X3526968Y-1362055D01*
X3526968Y-1362055D02*
X3536491Y-1343008D01*
X3536491Y-1343008D02*
X3555539Y-1314436D01*
X3555539Y-1314436D02*
X3565063Y-1304912D01*
X3631729Y-1352531D02*
X3641253Y-1343008D01*
X3641253Y-1343008D02*
X3660301Y-1333484D01*
X3660301Y-1333484D02*
X3707920Y-1333484D01*
X3707920Y-1333484D02*
X3726968Y-1343008D01*
X3726968Y-1343008D02*
X3736491Y-1352531D01*
X3736491Y-1352531D02*
X3746015Y-1371579D01*
X3746015Y-1371579D02*
X3746015Y-1390627D01*
X3746015Y-1390627D02*
X3736491Y-1419198D01*
X3736491Y-1419198D02*
X3622206Y-1533484D01*
X3622206Y-1533484D02*
X3746015Y-1533484D01*
X3984110Y-1533484D02*
X3984110Y-1333484D01*
X4069825Y-1533484D02*
X4069825Y-1428722D01*
X4069825Y-1428722D02*
X4060301Y-1409674D01*
X4060301Y-1409674D02*
X4041253Y-1400150D01*
X4041253Y-1400150D02*
X4012682Y-1400150D01*
X4012682Y-1400150D02*
X3993634Y-1409674D01*
X3993634Y-1409674D02*
X3984110Y-1419198D01*
X4193634Y-1533484D02*
X4174587Y-1523960D01*
X4174587Y-1523960D02*
X4165063Y-1514436D01*
X4165063Y-1514436D02*
X4155539Y-1495388D01*
X4155539Y-1495388D02*
X4155539Y-1438246D01*
X4155539Y-1438246D02*
X4165063Y-1419198D01*
X4165063Y-1419198D02*
X4174587Y-1409674D01*
X4174587Y-1409674D02*
X4193634Y-1400150D01*
X4193634Y-1400150D02*
X4222206Y-1400150D01*
X4222206Y-1400150D02*
X4241253Y-1409674D01*
X4241253Y-1409674D02*
X4250777Y-1419198D01*
X4250777Y-1419198D02*
X4260301Y-1438246D01*
X4260301Y-1438246D02*
X4260301Y-1495388D01*
X4260301Y-1495388D02*
X4250777Y-1514436D01*
X4250777Y-1514436D02*
X4241253Y-1523960D01*
X4241253Y-1523960D02*
X4222206Y-1533484D01*
X4222206Y-1533484D02*
X4193634Y-1533484D01*
X4374587Y-1533484D02*
X4355539Y-1523960D01*
X4355539Y-1523960D02*
X4346015Y-1504912D01*
X4346015Y-1504912D02*
X4346015Y-1333484D01*
X4526968Y-1523960D02*
X4507920Y-1533484D01*
X4507920Y-1533484D02*
X4469825Y-1533484D01*
X4469825Y-1533484D02*
X4450777Y-1523960D01*
X4450777Y-1523960D02*
X4441253Y-1504912D01*
X4441253Y-1504912D02*
X4441253Y-1428722D01*
X4441253Y-1428722D02*
X4450777Y-1409674D01*
X4450777Y-1409674D02*
X4469825Y-1400150D01*
X4469825Y-1400150D02*
X4507920Y-1400150D01*
X4507920Y-1400150D02*
X4526968Y-1409674D01*
X4526968Y-1409674D02*
X4536492Y-1428722D01*
X4536492Y-1428722D02*
X4536492Y-1447769D01*
X4536492Y-1447769D02*
X4441253Y-1466817D01*
X4612682Y-1523960D02*
X4631730Y-1533484D01*
X4631730Y-1533484D02*
X4669825Y-1533484D01*
X4669825Y-1533484D02*
X4688873Y-1523960D01*
X4688873Y-1523960D02*
X4698396Y-1504912D01*
X4698396Y-1504912D02*
X4698396Y-1495388D01*
X4698396Y-1495388D02*
X4688873Y-1476341D01*
X4688873Y-1476341D02*
X4669825Y-1466817D01*
X4669825Y-1466817D02*
X4641253Y-1466817D01*
X4641253Y-1466817D02*
X4622206Y-1457293D01*
X4622206Y-1457293D02*
X4612682Y-1438246D01*
X4612682Y-1438246D02*
X4612682Y-1428722D01*
X4612682Y-1428722D02*
X4622206Y-1409674D01*
X4622206Y-1409674D02*
X4641253Y-1400150D01*
X4641253Y-1400150D02*
X4669825Y-1400150D01*
X4669825Y-1400150D02*
X4688873Y-1409674D01*
X4765063Y-1609674D02*
X4774587Y-1600150D01*
X4774587Y-1600150D02*
X4793634Y-1571579D01*
X4793634Y-1571579D02*
X4803158Y-1552531D01*
X4803158Y-1552531D02*
X4812682Y-1523960D01*
X4812682Y-1523960D02*
X4822206Y-1476341D01*
X4822206Y-1476341D02*
X4822206Y-1438246D01*
X4822206Y-1438246D02*
X4812682Y-1390627D01*
X4812682Y-1390627D02*
X4803158Y-1362055D01*
X4803158Y-1362055D02*
X4793634Y-1343008D01*
X4793634Y-1343008D02*
X4774587Y-1314436D01*
X4774587Y-1314436D02*
X4765063Y-1304912D01*
X5126968Y-1609674D02*
X5117444Y-1600150D01*
X5117444Y-1600150D02*
X5098396Y-1571579D01*
X5098396Y-1571579D02*
X5088873Y-1552531D01*
X5088873Y-1552531D02*
X5079349Y-1523960D01*
X5079349Y-1523960D02*
X5069825Y-1476341D01*
X5069825Y-1476341D02*
X5069825Y-1438246D01*
X5069825Y-1438246D02*
X5079349Y-1390627D01*
X5079349Y-1390627D02*
X5088873Y-1362055D01*
X5088873Y-1362055D02*
X5098396Y-1343008D01*
X5098396Y-1343008D02*
X5117444Y-1314436D01*
X5117444Y-1314436D02*
X5126968Y-1304912D01*
X5203158Y-1400150D02*
X5203158Y-1533484D01*
X5203158Y-1419198D02*
X5212682Y-1409674D01*
X5212682Y-1409674D02*
X5231730Y-1400150D01*
X5231730Y-1400150D02*
X5260301Y-1400150D01*
X5260301Y-1400150D02*
X5279349Y-1409674D01*
X5279349Y-1409674D02*
X5288873Y-1428722D01*
X5288873Y-1428722D02*
X5288873Y-1533484D01*
X5412682Y-1533484D02*
X5393634Y-1523960D01*
X5393634Y-1523960D02*
X5384111Y-1514436D01*
X5384111Y-1514436D02*
X5374587Y-1495388D01*
X5374587Y-1495388D02*
X5374587Y-1438246D01*
X5374587Y-1438246D02*
X5384111Y-1419198D01*
X5384111Y-1419198D02*
X5393634Y-1409674D01*
X5393634Y-1409674D02*
X5412682Y-1400150D01*
X5412682Y-1400150D02*
X5441254Y-1400150D01*
X5441254Y-1400150D02*
X5460301Y-1409674D01*
X5460301Y-1409674D02*
X5469825Y-1419198D01*
X5469825Y-1419198D02*
X5479349Y-1438246D01*
X5479349Y-1438246D02*
X5479349Y-1495388D01*
X5479349Y-1495388D02*
X5469825Y-1514436D01*
X5469825Y-1514436D02*
X5460301Y-1523960D01*
X5460301Y-1523960D02*
X5441254Y-1533484D01*
X5441254Y-1533484D02*
X5412682Y-1533484D01*
X5536492Y-1400150D02*
X5612682Y-1400150D01*
X5565063Y-1333484D02*
X5565063Y-1504912D01*
X5565063Y-1504912D02*
X5574587Y-1523960D01*
X5574587Y-1523960D02*
X5593634Y-1533484D01*
X5593634Y-1533484D02*
X5612682Y-1533484D01*
X5831730Y-1400150D02*
X5831730Y-1600150D01*
X5831730Y-1409674D02*
X5850777Y-1400150D01*
X5850777Y-1400150D02*
X5888873Y-1400150D01*
X5888873Y-1400150D02*
X5907920Y-1409674D01*
X5907920Y-1409674D02*
X5917444Y-1419198D01*
X5917444Y-1419198D02*
X5926968Y-1438246D01*
X5926968Y-1438246D02*
X5926968Y-1495388D01*
X5926968Y-1495388D02*
X5917444Y-1514436D01*
X5917444Y-1514436D02*
X5907920Y-1523960D01*
X5907920Y-1523960D02*
X5888873Y-1533484D01*
X5888873Y-1533484D02*
X5850777Y-1533484D01*
X5850777Y-1533484D02*
X5831730Y-1523960D01*
X6041253Y-1533484D02*
X6022206Y-1523960D01*
X6022206Y-1523960D02*
X6012682Y-1504912D01*
X6012682Y-1504912D02*
X6012682Y-1333484D01*
X6203158Y-1533484D02*
X6203158Y-1428722D01*
X6203158Y-1428722D02*
X6193634Y-1409674D01*
X6193634Y-1409674D02*
X6174587Y-1400150D01*
X6174587Y-1400150D02*
X6136492Y-1400150D01*
X6136492Y-1400150D02*
X6117444Y-1409674D01*
X6203158Y-1523960D02*
X6184111Y-1533484D01*
X6184111Y-1533484D02*
X6136492Y-1533484D01*
X6136492Y-1533484D02*
X6117444Y-1523960D01*
X6117444Y-1523960D02*
X6107920Y-1504912D01*
X6107920Y-1504912D02*
X6107920Y-1485865D01*
X6107920Y-1485865D02*
X6117444Y-1466817D01*
X6117444Y-1466817D02*
X6136492Y-1457293D01*
X6136492Y-1457293D02*
X6184111Y-1457293D01*
X6184111Y-1457293D02*
X6203158Y-1447769D01*
X6269825Y-1400150D02*
X6346015Y-1400150D01*
X6298396Y-1333484D02*
X6298396Y-1504912D01*
X6298396Y-1504912D02*
X6307920Y-1523960D01*
X6307920Y-1523960D02*
X6326968Y-1533484D01*
X6326968Y-1533484D02*
X6346015Y-1533484D01*
X6488873Y-1523960D02*
X6469825Y-1533484D01*
X6469825Y-1533484D02*
X6431730Y-1533484D01*
X6431730Y-1533484D02*
X6412682Y-1523960D01*
X6412682Y-1523960D02*
X6403158Y-1504912D01*
X6403158Y-1504912D02*
X6403158Y-1428722D01*
X6403158Y-1428722D02*
X6412682Y-1409674D01*
X6412682Y-1409674D02*
X6431730Y-1400150D01*
X6431730Y-1400150D02*
X6469825Y-1400150D01*
X6469825Y-1400150D02*
X6488873Y-1409674D01*
X6488873Y-1409674D02*
X6498396Y-1428722D01*
X6498396Y-1428722D02*
X6498396Y-1447769D01*
X6498396Y-1447769D02*
X6403158Y-1466817D01*
X6669825Y-1533484D02*
X6669825Y-1333484D01*
X6669825Y-1523960D02*
X6650777Y-1533484D01*
X6650777Y-1533484D02*
X6612682Y-1533484D01*
X6612682Y-1533484D02*
X6593634Y-1523960D01*
X6593634Y-1523960D02*
X6584111Y-1514436D01*
X6584111Y-1514436D02*
X6574587Y-1495388D01*
X6574587Y-1495388D02*
X6574587Y-1438246D01*
X6574587Y-1438246D02*
X6584111Y-1419198D01*
X6584111Y-1419198D02*
X6593634Y-1409674D01*
X6593634Y-1409674D02*
X6612682Y-1400150D01*
X6612682Y-1400150D02*
X6650777Y-1400150D01*
X6650777Y-1400150D02*
X6669825Y-1409674D01*
X6746015Y-1609674D02*
X6755539Y-1600150D01*
X6755539Y-1600150D02*
X6774587Y-1571579D01*
X6774587Y-1571579D02*
X6784111Y-1552531D01*
X6784111Y-1552531D02*
X6793634Y-1523960D01*
X6793634Y-1523960D02*
X6803158Y-1476341D01*
X6803158Y-1476341D02*
X6803158Y-1438246D01*
X6803158Y-1438246D02*
X6793634Y-1390627D01*
X6793634Y-1390627D02*
X6784111Y-1362055D01*
X6784111Y-1362055D02*
X6774587Y-1343008D01*
X6774587Y-1343008D02*
X6755539Y-1314436D01*
X6755539Y-1314436D02*
X6746015Y-1304912D01*
D13*
X-70000Y-1766000D02*
X-10000Y-1706000D01*
X-70000Y-1646000D01*
X-130000Y-1706000D01*
X-70000Y-1766000D01*
D10*
X355539Y-1797484D02*
X241253Y-1797484D01*
X298396Y-1797484D02*
X298396Y-1597484D01*
X298396Y-1597484D02*
X279348Y-1626055D01*
X279348Y-1626055D02*
X260301Y-1645103D01*
X260301Y-1645103D02*
X241253Y-1654627D01*
X441253Y-1778436D02*
X450777Y-1787960D01*
X450777Y-1787960D02*
X441253Y-1797484D01*
X441253Y-1797484D02*
X431729Y-1787960D01*
X431729Y-1787960D02*
X441253Y-1778436D01*
X441253Y-1778436D02*
X441253Y-1797484D01*
X526967Y-1616531D02*
X536491Y-1607008D01*
X536491Y-1607008D02*
X555539Y-1597484D01*
X555539Y-1597484D02*
X603158Y-1597484D01*
X603158Y-1597484D02*
X622205Y-1607008D01*
X622205Y-1607008D02*
X631729Y-1616531D01*
X631729Y-1616531D02*
X641253Y-1635579D01*
X641253Y-1635579D02*
X641253Y-1654627D01*
X641253Y-1654627D02*
X631729Y-1683198D01*
X631729Y-1683198D02*
X517443Y-1797484D01*
X517443Y-1797484D02*
X641253Y-1797484D01*
X765062Y-1597484D02*
X784110Y-1597484D01*
X784110Y-1597484D02*
X803158Y-1607008D01*
X803158Y-1607008D02*
X812682Y-1616531D01*
X812682Y-1616531D02*
X822205Y-1635579D01*
X822205Y-1635579D02*
X831729Y-1673674D01*
X831729Y-1673674D02*
X831729Y-1721293D01*
X831729Y-1721293D02*
X822205Y-1759388D01*
X822205Y-1759388D02*
X812682Y-1778436D01*
X812682Y-1778436D02*
X803158Y-1787960D01*
X803158Y-1787960D02*
X784110Y-1797484D01*
X784110Y-1797484D02*
X765062Y-1797484D01*
X765062Y-1797484D02*
X746015Y-1787960D01*
X746015Y-1787960D02*
X736491Y-1778436D01*
X736491Y-1778436D02*
X726967Y-1759388D01*
X726967Y-1759388D02*
X717443Y-1721293D01*
X717443Y-1721293D02*
X717443Y-1673674D01*
X717443Y-1673674D02*
X726967Y-1635579D01*
X726967Y-1635579D02*
X736491Y-1616531D01*
X736491Y-1616531D02*
X746015Y-1607008D01*
X746015Y-1607008D02*
X765062Y-1597484D01*
X955539Y-1597484D02*
X974586Y-1597484D01*
X974586Y-1597484D02*
X993634Y-1607008D01*
X993634Y-1607008D02*
X1003158Y-1616531D01*
X1003158Y-1616531D02*
X1012682Y-1635579D01*
X1012682Y-1635579D02*
X1022205Y-1673674D01*
X1022205Y-1673674D02*
X1022205Y-1721293D01*
X1022205Y-1721293D02*
X1012682Y-1759388D01*
X1012682Y-1759388D02*
X1003158Y-1778436D01*
X1003158Y-1778436D02*
X993634Y-1787960D01*
X993634Y-1787960D02*
X974586Y-1797484D01*
X974586Y-1797484D02*
X955539Y-1797484D01*
X955539Y-1797484D02*
X936491Y-1787960D01*
X936491Y-1787960D02*
X926967Y-1778436D01*
X926967Y-1778436D02*
X917443Y-1759388D01*
X917443Y-1759388D02*
X907920Y-1721293D01*
X907920Y-1721293D02*
X907920Y-1673674D01*
X907920Y-1673674D02*
X917443Y-1635579D01*
X917443Y-1635579D02*
X926967Y-1616531D01*
X926967Y-1616531D02*
X936491Y-1607008D01*
X936491Y-1607008D02*
X955539Y-1597484D01*
X1107920Y-1797484D02*
X1107920Y-1664150D01*
X1107920Y-1683198D02*
X1117444Y-1673674D01*
X1117444Y-1673674D02*
X1136491Y-1664150D01*
X1136491Y-1664150D02*
X1165063Y-1664150D01*
X1165063Y-1664150D02*
X1184110Y-1673674D01*
X1184110Y-1673674D02*
X1193634Y-1692722D01*
X1193634Y-1692722D02*
X1193634Y-1797484D01*
X1193634Y-1692722D02*
X1203158Y-1673674D01*
X1203158Y-1673674D02*
X1222205Y-1664150D01*
X1222205Y-1664150D02*
X1250777Y-1664150D01*
X1250777Y-1664150D02*
X1269825Y-1673674D01*
X1269825Y-1673674D02*
X1279348Y-1692722D01*
X1279348Y-1692722D02*
X1279348Y-1797484D01*
X1374586Y-1797484D02*
X1374586Y-1664150D01*
X1374586Y-1683198D02*
X1384110Y-1673674D01*
X1384110Y-1673674D02*
X1403158Y-1664150D01*
X1403158Y-1664150D02*
X1431729Y-1664150D01*
X1431729Y-1664150D02*
X1450777Y-1673674D01*
X1450777Y-1673674D02*
X1460301Y-1692722D01*
X1460301Y-1692722D02*
X1460301Y-1797484D01*
X1460301Y-1692722D02*
X1469824Y-1673674D01*
X1469824Y-1673674D02*
X1488872Y-1664150D01*
X1488872Y-1664150D02*
X1517443Y-1664150D01*
X1517443Y-1664150D02*
X1536491Y-1673674D01*
X1536491Y-1673674D02*
X1546015Y-1692722D01*
X1546015Y-1692722D02*
X1546015Y-1797484D01*
X1936491Y-1587960D02*
X1765063Y-1845103D01*
X2193634Y-1597484D02*
X2212682Y-1597484D01*
X2212682Y-1597484D02*
X2231729Y-1607008D01*
X2231729Y-1607008D02*
X2241253Y-1616531D01*
X2241253Y-1616531D02*
X2250777Y-1635579D01*
X2250777Y-1635579D02*
X2260301Y-1673674D01*
X2260301Y-1673674D02*
X2260301Y-1721293D01*
X2260301Y-1721293D02*
X2250777Y-1759388D01*
X2250777Y-1759388D02*
X2241253Y-1778436D01*
X2241253Y-1778436D02*
X2231729Y-1787960D01*
X2231729Y-1787960D02*
X2212682Y-1797484D01*
X2212682Y-1797484D02*
X2193634Y-1797484D01*
X2193634Y-1797484D02*
X2174587Y-1787960D01*
X2174587Y-1787960D02*
X2165063Y-1778436D01*
X2165063Y-1778436D02*
X2155539Y-1759388D01*
X2155539Y-1759388D02*
X2146015Y-1721293D01*
X2146015Y-1721293D02*
X2146015Y-1673674D01*
X2146015Y-1673674D02*
X2155539Y-1635579D01*
X2155539Y-1635579D02*
X2165063Y-1616531D01*
X2165063Y-1616531D02*
X2174587Y-1607008D01*
X2174587Y-1607008D02*
X2193634Y-1597484D01*
X2346015Y-1778436D02*
X2355539Y-1787960D01*
X2355539Y-1787960D02*
X2346015Y-1797484D01*
X2346015Y-1797484D02*
X2336491Y-1787960D01*
X2336491Y-1787960D02*
X2346015Y-1778436D01*
X2346015Y-1778436D02*
X2346015Y-1797484D01*
X2479348Y-1597484D02*
X2498396Y-1597484D01*
X2498396Y-1597484D02*
X2517444Y-1607008D01*
X2517444Y-1607008D02*
X2526968Y-1616531D01*
X2526968Y-1616531D02*
X2536491Y-1635579D01*
X2536491Y-1635579D02*
X2546015Y-1673674D01*
X2546015Y-1673674D02*
X2546015Y-1721293D01*
X2546015Y-1721293D02*
X2536491Y-1759388D01*
X2536491Y-1759388D02*
X2526968Y-1778436D01*
X2526968Y-1778436D02*
X2517444Y-1787960D01*
X2517444Y-1787960D02*
X2498396Y-1797484D01*
X2498396Y-1797484D02*
X2479348Y-1797484D01*
X2479348Y-1797484D02*
X2460301Y-1787960D01*
X2460301Y-1787960D02*
X2450777Y-1778436D01*
X2450777Y-1778436D02*
X2441253Y-1759388D01*
X2441253Y-1759388D02*
X2431729Y-1721293D01*
X2431729Y-1721293D02*
X2431729Y-1673674D01*
X2431729Y-1673674D02*
X2441253Y-1635579D01*
X2441253Y-1635579D02*
X2450777Y-1616531D01*
X2450777Y-1616531D02*
X2460301Y-1607008D01*
X2460301Y-1607008D02*
X2479348Y-1597484D01*
X2717444Y-1664150D02*
X2717444Y-1797484D01*
X2669825Y-1587960D02*
X2622206Y-1730817D01*
X2622206Y-1730817D02*
X2746015Y-1730817D01*
X2803158Y-1597484D02*
X2936491Y-1597484D01*
X2936491Y-1597484D02*
X2850777Y-1797484D01*
X3003158Y-1616531D02*
X3012682Y-1607008D01*
X3012682Y-1607008D02*
X3031729Y-1597484D01*
X3031729Y-1597484D02*
X3079348Y-1597484D01*
X3079348Y-1597484D02*
X3098396Y-1607008D01*
X3098396Y-1607008D02*
X3107920Y-1616531D01*
X3107920Y-1616531D02*
X3117444Y-1635579D01*
X3117444Y-1635579D02*
X3117444Y-1654627D01*
X3117444Y-1654627D02*
X3107920Y-1683198D01*
X3107920Y-1683198D02*
X2993634Y-1797484D01*
X2993634Y-1797484D02*
X3117444Y-1797484D01*
X3193634Y-1597484D02*
X3193634Y-1635579D01*
X3269825Y-1597484D02*
X3269825Y-1635579D01*
X3565063Y-1873674D02*
X3555539Y-1864150D01*
X3555539Y-1864150D02*
X3536491Y-1835579D01*
X3536491Y-1835579D02*
X3526968Y-1816531D01*
X3526968Y-1816531D02*
X3517444Y-1787960D01*
X3517444Y-1787960D02*
X3507920Y-1740341D01*
X3507920Y-1740341D02*
X3507920Y-1702246D01*
X3507920Y-1702246D02*
X3517444Y-1654627D01*
X3517444Y-1654627D02*
X3526968Y-1626055D01*
X3526968Y-1626055D02*
X3536491Y-1607008D01*
X3536491Y-1607008D02*
X3555539Y-1578436D01*
X3555539Y-1578436D02*
X3565063Y-1568912D01*
X3726968Y-1597484D02*
X3688872Y-1597484D01*
X3688872Y-1597484D02*
X3669825Y-1607008D01*
X3669825Y-1607008D02*
X3660301Y-1616531D01*
X3660301Y-1616531D02*
X3641253Y-1645103D01*
X3641253Y-1645103D02*
X3631729Y-1683198D01*
X3631729Y-1683198D02*
X3631729Y-1759388D01*
X3631729Y-1759388D02*
X3641253Y-1778436D01*
X3641253Y-1778436D02*
X3650777Y-1787960D01*
X3650777Y-1787960D02*
X3669825Y-1797484D01*
X3669825Y-1797484D02*
X3707920Y-1797484D01*
X3707920Y-1797484D02*
X3726968Y-1787960D01*
X3726968Y-1787960D02*
X3736491Y-1778436D01*
X3736491Y-1778436D02*
X3746015Y-1759388D01*
X3746015Y-1759388D02*
X3746015Y-1711769D01*
X3746015Y-1711769D02*
X3736491Y-1692722D01*
X3736491Y-1692722D02*
X3726968Y-1683198D01*
X3726968Y-1683198D02*
X3707920Y-1673674D01*
X3707920Y-1673674D02*
X3669825Y-1673674D01*
X3669825Y-1673674D02*
X3650777Y-1683198D01*
X3650777Y-1683198D02*
X3641253Y-1692722D01*
X3641253Y-1692722D02*
X3631729Y-1711769D01*
X3984110Y-1797484D02*
X3984110Y-1597484D01*
X4069825Y-1797484D02*
X4069825Y-1692722D01*
X4069825Y-1692722D02*
X4060301Y-1673674D01*
X4060301Y-1673674D02*
X4041253Y-1664150D01*
X4041253Y-1664150D02*
X4012682Y-1664150D01*
X4012682Y-1664150D02*
X3993634Y-1673674D01*
X3993634Y-1673674D02*
X3984110Y-1683198D01*
X4193634Y-1797484D02*
X4174587Y-1787960D01*
X4174587Y-1787960D02*
X4165063Y-1778436D01*
X4165063Y-1778436D02*
X4155539Y-1759388D01*
X4155539Y-1759388D02*
X4155539Y-1702246D01*
X4155539Y-1702246D02*
X4165063Y-1683198D01*
X4165063Y-1683198D02*
X4174587Y-1673674D01*
X4174587Y-1673674D02*
X4193634Y-1664150D01*
X4193634Y-1664150D02*
X4222206Y-1664150D01*
X4222206Y-1664150D02*
X4241253Y-1673674D01*
X4241253Y-1673674D02*
X4250777Y-1683198D01*
X4250777Y-1683198D02*
X4260301Y-1702246D01*
X4260301Y-1702246D02*
X4260301Y-1759388D01*
X4260301Y-1759388D02*
X4250777Y-1778436D01*
X4250777Y-1778436D02*
X4241253Y-1787960D01*
X4241253Y-1787960D02*
X4222206Y-1797484D01*
X4222206Y-1797484D02*
X4193634Y-1797484D01*
X4374587Y-1797484D02*
X4355539Y-1787960D01*
X4355539Y-1787960D02*
X4346015Y-1768912D01*
X4346015Y-1768912D02*
X4346015Y-1597484D01*
X4526968Y-1787960D02*
X4507920Y-1797484D01*
X4507920Y-1797484D02*
X4469825Y-1797484D01*
X4469825Y-1797484D02*
X4450777Y-1787960D01*
X4450777Y-1787960D02*
X4441253Y-1768912D01*
X4441253Y-1768912D02*
X4441253Y-1692722D01*
X4441253Y-1692722D02*
X4450777Y-1673674D01*
X4450777Y-1673674D02*
X4469825Y-1664150D01*
X4469825Y-1664150D02*
X4507920Y-1664150D01*
X4507920Y-1664150D02*
X4526968Y-1673674D01*
X4526968Y-1673674D02*
X4536492Y-1692722D01*
X4536492Y-1692722D02*
X4536492Y-1711769D01*
X4536492Y-1711769D02*
X4441253Y-1730817D01*
X4612682Y-1787960D02*
X4631730Y-1797484D01*
X4631730Y-1797484D02*
X4669825Y-1797484D01*
X4669825Y-1797484D02*
X4688873Y-1787960D01*
X4688873Y-1787960D02*
X4698396Y-1768912D01*
X4698396Y-1768912D02*
X4698396Y-1759388D01*
X4698396Y-1759388D02*
X4688873Y-1740341D01*
X4688873Y-1740341D02*
X4669825Y-1730817D01*
X4669825Y-1730817D02*
X4641253Y-1730817D01*
X4641253Y-1730817D02*
X4622206Y-1721293D01*
X4622206Y-1721293D02*
X4612682Y-1702246D01*
X4612682Y-1702246D02*
X4612682Y-1692722D01*
X4612682Y-1692722D02*
X4622206Y-1673674D01*
X4622206Y-1673674D02*
X4641253Y-1664150D01*
X4641253Y-1664150D02*
X4669825Y-1664150D01*
X4669825Y-1664150D02*
X4688873Y-1673674D01*
X4765063Y-1873674D02*
X4774587Y-1864150D01*
X4774587Y-1864150D02*
X4793634Y-1835579D01*
X4793634Y-1835579D02*
X4803158Y-1816531D01*
X4803158Y-1816531D02*
X4812682Y-1787960D01*
X4812682Y-1787960D02*
X4822206Y-1740341D01*
X4822206Y-1740341D02*
X4822206Y-1702246D01*
X4822206Y-1702246D02*
X4812682Y-1654627D01*
X4812682Y-1654627D02*
X4803158Y-1626055D01*
X4803158Y-1626055D02*
X4793634Y-1607008D01*
X4793634Y-1607008D02*
X4774587Y-1578436D01*
X4774587Y-1578436D02*
X4765063Y-1568912D01*
X5126968Y-1873674D02*
X5117444Y-1864150D01*
X5117444Y-1864150D02*
X5098396Y-1835579D01*
X5098396Y-1835579D02*
X5088873Y-1816531D01*
X5088873Y-1816531D02*
X5079349Y-1787960D01*
X5079349Y-1787960D02*
X5069825Y-1740341D01*
X5069825Y-1740341D02*
X5069825Y-1702246D01*
X5069825Y-1702246D02*
X5079349Y-1654627D01*
X5079349Y-1654627D02*
X5088873Y-1626055D01*
X5088873Y-1626055D02*
X5098396Y-1607008D01*
X5098396Y-1607008D02*
X5117444Y-1578436D01*
X5117444Y-1578436D02*
X5126968Y-1568912D01*
X5203158Y-1664150D02*
X5203158Y-1797484D01*
X5203158Y-1683198D02*
X5212682Y-1673674D01*
X5212682Y-1673674D02*
X5231730Y-1664150D01*
X5231730Y-1664150D02*
X5260301Y-1664150D01*
X5260301Y-1664150D02*
X5279349Y-1673674D01*
X5279349Y-1673674D02*
X5288873Y-1692722D01*
X5288873Y-1692722D02*
X5288873Y-1797484D01*
X5412682Y-1797484D02*
X5393634Y-1787960D01*
X5393634Y-1787960D02*
X5384111Y-1778436D01*
X5384111Y-1778436D02*
X5374587Y-1759388D01*
X5374587Y-1759388D02*
X5374587Y-1702246D01*
X5374587Y-1702246D02*
X5384111Y-1683198D01*
X5384111Y-1683198D02*
X5393634Y-1673674D01*
X5393634Y-1673674D02*
X5412682Y-1664150D01*
X5412682Y-1664150D02*
X5441254Y-1664150D01*
X5441254Y-1664150D02*
X5460301Y-1673674D01*
X5460301Y-1673674D02*
X5469825Y-1683198D01*
X5469825Y-1683198D02*
X5479349Y-1702246D01*
X5479349Y-1702246D02*
X5479349Y-1759388D01*
X5479349Y-1759388D02*
X5469825Y-1778436D01*
X5469825Y-1778436D02*
X5460301Y-1787960D01*
X5460301Y-1787960D02*
X5441254Y-1797484D01*
X5441254Y-1797484D02*
X5412682Y-1797484D01*
X5536492Y-1664150D02*
X5612682Y-1664150D01*
X5565063Y-1597484D02*
X5565063Y-1768912D01*
X5565063Y-1768912D02*
X5574587Y-1787960D01*
X5574587Y-1787960D02*
X5593634Y-1797484D01*
X5593634Y-1797484D02*
X5612682Y-1797484D01*
X5831730Y-1664150D02*
X5831730Y-1864150D01*
X5831730Y-1673674D02*
X5850777Y-1664150D01*
X5850777Y-1664150D02*
X5888873Y-1664150D01*
X5888873Y-1664150D02*
X5907920Y-1673674D01*
X5907920Y-1673674D02*
X5917444Y-1683198D01*
X5917444Y-1683198D02*
X5926968Y-1702246D01*
X5926968Y-1702246D02*
X5926968Y-1759388D01*
X5926968Y-1759388D02*
X5917444Y-1778436D01*
X5917444Y-1778436D02*
X5907920Y-1787960D01*
X5907920Y-1787960D02*
X5888873Y-1797484D01*
X5888873Y-1797484D02*
X5850777Y-1797484D01*
X5850777Y-1797484D02*
X5831730Y-1787960D01*
X6041253Y-1797484D02*
X6022206Y-1787960D01*
X6022206Y-1787960D02*
X6012682Y-1768912D01*
X6012682Y-1768912D02*
X6012682Y-1597484D01*
X6203158Y-1797484D02*
X6203158Y-1692722D01*
X6203158Y-1692722D02*
X6193634Y-1673674D01*
X6193634Y-1673674D02*
X6174587Y-1664150D01*
X6174587Y-1664150D02*
X6136492Y-1664150D01*
X6136492Y-1664150D02*
X6117444Y-1673674D01*
X6203158Y-1787960D02*
X6184111Y-1797484D01*
X6184111Y-1797484D02*
X6136492Y-1797484D01*
X6136492Y-1797484D02*
X6117444Y-1787960D01*
X6117444Y-1787960D02*
X6107920Y-1768912D01*
X6107920Y-1768912D02*
X6107920Y-1749865D01*
X6107920Y-1749865D02*
X6117444Y-1730817D01*
X6117444Y-1730817D02*
X6136492Y-1721293D01*
X6136492Y-1721293D02*
X6184111Y-1721293D01*
X6184111Y-1721293D02*
X6203158Y-1711769D01*
X6269825Y-1664150D02*
X6346015Y-1664150D01*
X6298396Y-1597484D02*
X6298396Y-1768912D01*
X6298396Y-1768912D02*
X6307920Y-1787960D01*
X6307920Y-1787960D02*
X6326968Y-1797484D01*
X6326968Y-1797484D02*
X6346015Y-1797484D01*
X6488873Y-1787960D02*
X6469825Y-1797484D01*
X6469825Y-1797484D02*
X6431730Y-1797484D01*
X6431730Y-1797484D02*
X6412682Y-1787960D01*
X6412682Y-1787960D02*
X6403158Y-1768912D01*
X6403158Y-1768912D02*
X6403158Y-1692722D01*
X6403158Y-1692722D02*
X6412682Y-1673674D01*
X6412682Y-1673674D02*
X6431730Y-1664150D01*
X6431730Y-1664150D02*
X6469825Y-1664150D01*
X6469825Y-1664150D02*
X6488873Y-1673674D01*
X6488873Y-1673674D02*
X6498396Y-1692722D01*
X6498396Y-1692722D02*
X6498396Y-1711769D01*
X6498396Y-1711769D02*
X6403158Y-1730817D01*
X6669825Y-1797484D02*
X6669825Y-1597484D01*
X6669825Y-1787960D02*
X6650777Y-1797484D01*
X6650777Y-1797484D02*
X6612682Y-1797484D01*
X6612682Y-1797484D02*
X6593634Y-1787960D01*
X6593634Y-1787960D02*
X6584111Y-1778436D01*
X6584111Y-1778436D02*
X6574587Y-1759388D01*
X6574587Y-1759388D02*
X6574587Y-1702246D01*
X6574587Y-1702246D02*
X6584111Y-1683198D01*
X6584111Y-1683198D02*
X6593634Y-1673674D01*
X6593634Y-1673674D02*
X6612682Y-1664150D01*
X6612682Y-1664150D02*
X6650777Y-1664150D01*
X6650777Y-1664150D02*
X6669825Y-1673674D01*
X6746015Y-1873674D02*
X6755539Y-1864150D01*
X6755539Y-1864150D02*
X6774587Y-1835579D01*
X6774587Y-1835579D02*
X6784111Y-1816531D01*
X6784111Y-1816531D02*
X6793634Y-1787960D01*
X6793634Y-1787960D02*
X6803158Y-1740341D01*
X6803158Y-1740341D02*
X6803158Y-1702246D01*
X6803158Y-1702246D02*
X6793634Y-1654627D01*
X6793634Y-1654627D02*
X6784111Y-1626055D01*
X6784111Y-1626055D02*
X6774587Y-1607008D01*
X6774587Y-1607008D02*
X6755539Y-1578436D01*
X6755539Y-1578436D02*
X6746015Y-1568912D01*
D14*
X-133000Y-1908500D02*
X-10000Y-2031500D01*
X-10000Y-1908500D02*
X-133000Y-2031500D01*
X-10000Y-1970000D02*
G75*
G02*
X-133000Y-1970000I-61500J0D01*
G01*
X-133000Y-1970000D02*
G75*
G02*
X-10000Y-1970000I61500J0D01*
G01*
D10*
X355539Y-2061484D02*
X241253Y-2061484D01*
X298396Y-2061484D02*
X298396Y-1861484D01*
X298396Y-1861484D02*
X279348Y-1890055D01*
X279348Y-1890055D02*
X260301Y-1909103D01*
X260301Y-1909103D02*
X241253Y-1918627D01*
X441253Y-2042436D02*
X450777Y-2051960D01*
X450777Y-2051960D02*
X441253Y-2061484D01*
X441253Y-2061484D02*
X431729Y-2051960D01*
X431729Y-2051960D02*
X441253Y-2042436D01*
X441253Y-2042436D02*
X441253Y-2061484D01*
X526967Y-1880531D02*
X536491Y-1871008D01*
X536491Y-1871008D02*
X555539Y-1861484D01*
X555539Y-1861484D02*
X603158Y-1861484D01*
X603158Y-1861484D02*
X622205Y-1871008D01*
X622205Y-1871008D02*
X631729Y-1880531D01*
X631729Y-1880531D02*
X641253Y-1899579D01*
X641253Y-1899579D02*
X641253Y-1918627D01*
X641253Y-1918627D02*
X631729Y-1947198D01*
X631729Y-1947198D02*
X517443Y-2061484D01*
X517443Y-2061484D02*
X641253Y-2061484D01*
X707920Y-1861484D02*
X831729Y-1861484D01*
X831729Y-1861484D02*
X765062Y-1937674D01*
X765062Y-1937674D02*
X793634Y-1937674D01*
X793634Y-1937674D02*
X812682Y-1947198D01*
X812682Y-1947198D02*
X822205Y-1956722D01*
X822205Y-1956722D02*
X831729Y-1975769D01*
X831729Y-1975769D02*
X831729Y-2023388D01*
X831729Y-2023388D02*
X822205Y-2042436D01*
X822205Y-2042436D02*
X812682Y-2051960D01*
X812682Y-2051960D02*
X793634Y-2061484D01*
X793634Y-2061484D02*
X736491Y-2061484D01*
X736491Y-2061484D02*
X717443Y-2051960D01*
X717443Y-2051960D02*
X707920Y-2042436D01*
X955539Y-1861484D02*
X974586Y-1861484D01*
X974586Y-1861484D02*
X993634Y-1871008D01*
X993634Y-1871008D02*
X1003158Y-1880531D01*
X1003158Y-1880531D02*
X1012682Y-1899579D01*
X1012682Y-1899579D02*
X1022205Y-1937674D01*
X1022205Y-1937674D02*
X1022205Y-1985293D01*
X1022205Y-1985293D02*
X1012682Y-2023388D01*
X1012682Y-2023388D02*
X1003158Y-2042436D01*
X1003158Y-2042436D02*
X993634Y-2051960D01*
X993634Y-2051960D02*
X974586Y-2061484D01*
X974586Y-2061484D02*
X955539Y-2061484D01*
X955539Y-2061484D02*
X936491Y-2051960D01*
X936491Y-2051960D02*
X926967Y-2042436D01*
X926967Y-2042436D02*
X917443Y-2023388D01*
X917443Y-2023388D02*
X907920Y-1985293D01*
X907920Y-1985293D02*
X907920Y-1937674D01*
X907920Y-1937674D02*
X917443Y-1899579D01*
X917443Y-1899579D02*
X926967Y-1880531D01*
X926967Y-1880531D02*
X936491Y-1871008D01*
X936491Y-1871008D02*
X955539Y-1861484D01*
X1107920Y-2061484D02*
X1107920Y-1928150D01*
X1107920Y-1947198D02*
X1117444Y-1937674D01*
X1117444Y-1937674D02*
X1136491Y-1928150D01*
X1136491Y-1928150D02*
X1165063Y-1928150D01*
X1165063Y-1928150D02*
X1184110Y-1937674D01*
X1184110Y-1937674D02*
X1193634Y-1956722D01*
X1193634Y-1956722D02*
X1193634Y-2061484D01*
X1193634Y-1956722D02*
X1203158Y-1937674D01*
X1203158Y-1937674D02*
X1222205Y-1928150D01*
X1222205Y-1928150D02*
X1250777Y-1928150D01*
X1250777Y-1928150D02*
X1269825Y-1937674D01*
X1269825Y-1937674D02*
X1279348Y-1956722D01*
X1279348Y-1956722D02*
X1279348Y-2061484D01*
X1374586Y-2061484D02*
X1374586Y-1928150D01*
X1374586Y-1947198D02*
X1384110Y-1937674D01*
X1384110Y-1937674D02*
X1403158Y-1928150D01*
X1403158Y-1928150D02*
X1431729Y-1928150D01*
X1431729Y-1928150D02*
X1450777Y-1937674D01*
X1450777Y-1937674D02*
X1460301Y-1956722D01*
X1460301Y-1956722D02*
X1460301Y-2061484D01*
X1460301Y-1956722D02*
X1469824Y-1937674D01*
X1469824Y-1937674D02*
X1488872Y-1928150D01*
X1488872Y-1928150D02*
X1517443Y-1928150D01*
X1517443Y-1928150D02*
X1536491Y-1937674D01*
X1536491Y-1937674D02*
X1546015Y-1956722D01*
X1546015Y-1956722D02*
X1546015Y-2061484D01*
X1936491Y-1851960D02*
X1765063Y-2109103D01*
X2193634Y-1861484D02*
X2212682Y-1861484D01*
X2212682Y-1861484D02*
X2231729Y-1871008D01*
X2231729Y-1871008D02*
X2241253Y-1880531D01*
X2241253Y-1880531D02*
X2250777Y-1899579D01*
X2250777Y-1899579D02*
X2260301Y-1937674D01*
X2260301Y-1937674D02*
X2260301Y-1985293D01*
X2260301Y-1985293D02*
X2250777Y-2023388D01*
X2250777Y-2023388D02*
X2241253Y-2042436D01*
X2241253Y-2042436D02*
X2231729Y-2051960D01*
X2231729Y-2051960D02*
X2212682Y-2061484D01*
X2212682Y-2061484D02*
X2193634Y-2061484D01*
X2193634Y-2061484D02*
X2174587Y-2051960D01*
X2174587Y-2051960D02*
X2165063Y-2042436D01*
X2165063Y-2042436D02*
X2155539Y-2023388D01*
X2155539Y-2023388D02*
X2146015Y-1985293D01*
X2146015Y-1985293D02*
X2146015Y-1937674D01*
X2146015Y-1937674D02*
X2155539Y-1899579D01*
X2155539Y-1899579D02*
X2165063Y-1880531D01*
X2165063Y-1880531D02*
X2174587Y-1871008D01*
X2174587Y-1871008D02*
X2193634Y-1861484D01*
X2346015Y-2042436D02*
X2355539Y-2051960D01*
X2355539Y-2051960D02*
X2346015Y-2061484D01*
X2346015Y-2061484D02*
X2336491Y-2051960D01*
X2336491Y-2051960D02*
X2346015Y-2042436D01*
X2346015Y-2042436D02*
X2346015Y-2061484D01*
X2479348Y-1861484D02*
X2498396Y-1861484D01*
X2498396Y-1861484D02*
X2517444Y-1871008D01*
X2517444Y-1871008D02*
X2526968Y-1880531D01*
X2526968Y-1880531D02*
X2536491Y-1899579D01*
X2536491Y-1899579D02*
X2546015Y-1937674D01*
X2546015Y-1937674D02*
X2546015Y-1985293D01*
X2546015Y-1985293D02*
X2536491Y-2023388D01*
X2536491Y-2023388D02*
X2526968Y-2042436D01*
X2526968Y-2042436D02*
X2517444Y-2051960D01*
X2517444Y-2051960D02*
X2498396Y-2061484D01*
X2498396Y-2061484D02*
X2479348Y-2061484D01*
X2479348Y-2061484D02*
X2460301Y-2051960D01*
X2460301Y-2051960D02*
X2450777Y-2042436D01*
X2450777Y-2042436D02*
X2441253Y-2023388D01*
X2441253Y-2023388D02*
X2431729Y-1985293D01*
X2431729Y-1985293D02*
X2431729Y-1937674D01*
X2431729Y-1937674D02*
X2441253Y-1899579D01*
X2441253Y-1899579D02*
X2450777Y-1880531D01*
X2450777Y-1880531D02*
X2460301Y-1871008D01*
X2460301Y-1871008D02*
X2479348Y-1861484D01*
X2717444Y-1928150D02*
X2717444Y-2061484D01*
X2669825Y-1851960D02*
X2622206Y-1994817D01*
X2622206Y-1994817D02*
X2746015Y-1994817D01*
X2850777Y-1947198D02*
X2831729Y-1937674D01*
X2831729Y-1937674D02*
X2822206Y-1928150D01*
X2822206Y-1928150D02*
X2812682Y-1909103D01*
X2812682Y-1909103D02*
X2812682Y-1899579D01*
X2812682Y-1899579D02*
X2822206Y-1880531D01*
X2822206Y-1880531D02*
X2831729Y-1871008D01*
X2831729Y-1871008D02*
X2850777Y-1861484D01*
X2850777Y-1861484D02*
X2888872Y-1861484D01*
X2888872Y-1861484D02*
X2907920Y-1871008D01*
X2907920Y-1871008D02*
X2917444Y-1880531D01*
X2917444Y-1880531D02*
X2926967Y-1899579D01*
X2926967Y-1899579D02*
X2926967Y-1909103D01*
X2926967Y-1909103D02*
X2917444Y-1928150D01*
X2917444Y-1928150D02*
X2907920Y-1937674D01*
X2907920Y-1937674D02*
X2888872Y-1947198D01*
X2888872Y-1947198D02*
X2850777Y-1947198D01*
X2850777Y-1947198D02*
X2831729Y-1956722D01*
X2831729Y-1956722D02*
X2822206Y-1966246D01*
X2822206Y-1966246D02*
X2812682Y-1985293D01*
X2812682Y-1985293D02*
X2812682Y-2023388D01*
X2812682Y-2023388D02*
X2822206Y-2042436D01*
X2822206Y-2042436D02*
X2831729Y-2051960D01*
X2831729Y-2051960D02*
X2850777Y-2061484D01*
X2850777Y-2061484D02*
X2888872Y-2061484D01*
X2888872Y-2061484D02*
X2907920Y-2051960D01*
X2907920Y-2051960D02*
X2917444Y-2042436D01*
X2917444Y-2042436D02*
X2926967Y-2023388D01*
X2926967Y-2023388D02*
X2926967Y-1985293D01*
X2926967Y-1985293D02*
X2917444Y-1966246D01*
X2917444Y-1966246D02*
X2907920Y-1956722D01*
X2907920Y-1956722D02*
X2888872Y-1947198D01*
X3098396Y-1928150D02*
X3098396Y-2061484D01*
X3050777Y-1851960D02*
X3003158Y-1994817D01*
X3003158Y-1994817D02*
X3126967Y-1994817D01*
X3193634Y-1861484D02*
X3193634Y-1899579D01*
X3269825Y-1861484D02*
X3269825Y-1899579D01*
X3565063Y-2137674D02*
X3555539Y-2128150D01*
X3555539Y-2128150D02*
X3536491Y-2099579D01*
X3536491Y-2099579D02*
X3526968Y-2080531D01*
X3526968Y-2080531D02*
X3517444Y-2051960D01*
X3517444Y-2051960D02*
X3507920Y-2004341D01*
X3507920Y-2004341D02*
X3507920Y-1966246D01*
X3507920Y-1966246D02*
X3517444Y-1918627D01*
X3517444Y-1918627D02*
X3526968Y-1890055D01*
X3526968Y-1890055D02*
X3536491Y-1871008D01*
X3536491Y-1871008D02*
X3555539Y-1842436D01*
X3555539Y-1842436D02*
X3565063Y-1832912D01*
X3622206Y-1861484D02*
X3746015Y-1861484D01*
X3746015Y-1861484D02*
X3679348Y-1937674D01*
X3679348Y-1937674D02*
X3707920Y-1937674D01*
X3707920Y-1937674D02*
X3726968Y-1947198D01*
X3726968Y-1947198D02*
X3736491Y-1956722D01*
X3736491Y-1956722D02*
X3746015Y-1975769D01*
X3746015Y-1975769D02*
X3746015Y-2023388D01*
X3746015Y-2023388D02*
X3736491Y-2042436D01*
X3736491Y-2042436D02*
X3726968Y-2051960D01*
X3726968Y-2051960D02*
X3707920Y-2061484D01*
X3707920Y-2061484D02*
X3650777Y-2061484D01*
X3650777Y-2061484D02*
X3631729Y-2051960D01*
X3631729Y-2051960D02*
X3622206Y-2042436D01*
X3984110Y-2061484D02*
X3984110Y-1861484D01*
X4069825Y-2061484D02*
X4069825Y-1956722D01*
X4069825Y-1956722D02*
X4060301Y-1937674D01*
X4060301Y-1937674D02*
X4041253Y-1928150D01*
X4041253Y-1928150D02*
X4012682Y-1928150D01*
X4012682Y-1928150D02*
X3993634Y-1937674D01*
X3993634Y-1937674D02*
X3984110Y-1947198D01*
X4193634Y-2061484D02*
X4174587Y-2051960D01*
X4174587Y-2051960D02*
X4165063Y-2042436D01*
X4165063Y-2042436D02*
X4155539Y-2023388D01*
X4155539Y-2023388D02*
X4155539Y-1966246D01*
X4155539Y-1966246D02*
X4165063Y-1947198D01*
X4165063Y-1947198D02*
X4174587Y-1937674D01*
X4174587Y-1937674D02*
X4193634Y-1928150D01*
X4193634Y-1928150D02*
X4222206Y-1928150D01*
X4222206Y-1928150D02*
X4241253Y-1937674D01*
X4241253Y-1937674D02*
X4250777Y-1947198D01*
X4250777Y-1947198D02*
X4260301Y-1966246D01*
X4260301Y-1966246D02*
X4260301Y-2023388D01*
X4260301Y-2023388D02*
X4250777Y-2042436D01*
X4250777Y-2042436D02*
X4241253Y-2051960D01*
X4241253Y-2051960D02*
X4222206Y-2061484D01*
X4222206Y-2061484D02*
X4193634Y-2061484D01*
X4374587Y-2061484D02*
X4355539Y-2051960D01*
X4355539Y-2051960D02*
X4346015Y-2032912D01*
X4346015Y-2032912D02*
X4346015Y-1861484D01*
X4526968Y-2051960D02*
X4507920Y-2061484D01*
X4507920Y-2061484D02*
X4469825Y-2061484D01*
X4469825Y-2061484D02*
X4450777Y-2051960D01*
X4450777Y-2051960D02*
X4441253Y-2032912D01*
X4441253Y-2032912D02*
X4441253Y-1956722D01*
X4441253Y-1956722D02*
X4450777Y-1937674D01*
X4450777Y-1937674D02*
X4469825Y-1928150D01*
X4469825Y-1928150D02*
X4507920Y-1928150D01*
X4507920Y-1928150D02*
X4526968Y-1937674D01*
X4526968Y-1937674D02*
X4536492Y-1956722D01*
X4536492Y-1956722D02*
X4536492Y-1975769D01*
X4536492Y-1975769D02*
X4441253Y-1994817D01*
X4612682Y-2051960D02*
X4631730Y-2061484D01*
X4631730Y-2061484D02*
X4669825Y-2061484D01*
X4669825Y-2061484D02*
X4688873Y-2051960D01*
X4688873Y-2051960D02*
X4698396Y-2032912D01*
X4698396Y-2032912D02*
X4698396Y-2023388D01*
X4698396Y-2023388D02*
X4688873Y-2004341D01*
X4688873Y-2004341D02*
X4669825Y-1994817D01*
X4669825Y-1994817D02*
X4641253Y-1994817D01*
X4641253Y-1994817D02*
X4622206Y-1985293D01*
X4622206Y-1985293D02*
X4612682Y-1966246D01*
X4612682Y-1966246D02*
X4612682Y-1956722D01*
X4612682Y-1956722D02*
X4622206Y-1937674D01*
X4622206Y-1937674D02*
X4641253Y-1928150D01*
X4641253Y-1928150D02*
X4669825Y-1928150D01*
X4669825Y-1928150D02*
X4688873Y-1937674D01*
X4765063Y-2137674D02*
X4774587Y-2128150D01*
X4774587Y-2128150D02*
X4793634Y-2099579D01*
X4793634Y-2099579D02*
X4803158Y-2080531D01*
X4803158Y-2080531D02*
X4812682Y-2051960D01*
X4812682Y-2051960D02*
X4822206Y-2004341D01*
X4822206Y-2004341D02*
X4822206Y-1966246D01*
X4822206Y-1966246D02*
X4812682Y-1918627D01*
X4812682Y-1918627D02*
X4803158Y-1890055D01*
X4803158Y-1890055D02*
X4793634Y-1871008D01*
X4793634Y-1871008D02*
X4774587Y-1842436D01*
X4774587Y-1842436D02*
X4765063Y-1832912D01*
X5126968Y-2137674D02*
X5117444Y-2128150D01*
X5117444Y-2128150D02*
X5098396Y-2099579D01*
X5098396Y-2099579D02*
X5088873Y-2080531D01*
X5088873Y-2080531D02*
X5079349Y-2051960D01*
X5079349Y-2051960D02*
X5069825Y-2004341D01*
X5069825Y-2004341D02*
X5069825Y-1966246D01*
X5069825Y-1966246D02*
X5079349Y-1918627D01*
X5079349Y-1918627D02*
X5088873Y-1890055D01*
X5088873Y-1890055D02*
X5098396Y-1871008D01*
X5098396Y-1871008D02*
X5117444Y-1842436D01*
X5117444Y-1842436D02*
X5126968Y-1832912D01*
X5203158Y-1928150D02*
X5203158Y-2061484D01*
X5203158Y-1947198D02*
X5212682Y-1937674D01*
X5212682Y-1937674D02*
X5231730Y-1928150D01*
X5231730Y-1928150D02*
X5260301Y-1928150D01*
X5260301Y-1928150D02*
X5279349Y-1937674D01*
X5279349Y-1937674D02*
X5288873Y-1956722D01*
X5288873Y-1956722D02*
X5288873Y-2061484D01*
X5412682Y-2061484D02*
X5393634Y-2051960D01*
X5393634Y-2051960D02*
X5384111Y-2042436D01*
X5384111Y-2042436D02*
X5374587Y-2023388D01*
X5374587Y-2023388D02*
X5374587Y-1966246D01*
X5374587Y-1966246D02*
X5384111Y-1947198D01*
X5384111Y-1947198D02*
X5393634Y-1937674D01*
X5393634Y-1937674D02*
X5412682Y-1928150D01*
X5412682Y-1928150D02*
X5441254Y-1928150D01*
X5441254Y-1928150D02*
X5460301Y-1937674D01*
X5460301Y-1937674D02*
X5469825Y-1947198D01*
X5469825Y-1947198D02*
X5479349Y-1966246D01*
X5479349Y-1966246D02*
X5479349Y-2023388D01*
X5479349Y-2023388D02*
X5469825Y-2042436D01*
X5469825Y-2042436D02*
X5460301Y-2051960D01*
X5460301Y-2051960D02*
X5441254Y-2061484D01*
X5441254Y-2061484D02*
X5412682Y-2061484D01*
X5536492Y-1928150D02*
X5612682Y-1928150D01*
X5565063Y-1861484D02*
X5565063Y-2032912D01*
X5565063Y-2032912D02*
X5574587Y-2051960D01*
X5574587Y-2051960D02*
X5593634Y-2061484D01*
X5593634Y-2061484D02*
X5612682Y-2061484D01*
X5831730Y-1928150D02*
X5831730Y-2128150D01*
X5831730Y-1937674D02*
X5850777Y-1928150D01*
X5850777Y-1928150D02*
X5888873Y-1928150D01*
X5888873Y-1928150D02*
X5907920Y-1937674D01*
X5907920Y-1937674D02*
X5917444Y-1947198D01*
X5917444Y-1947198D02*
X5926968Y-1966246D01*
X5926968Y-1966246D02*
X5926968Y-2023388D01*
X5926968Y-2023388D02*
X5917444Y-2042436D01*
X5917444Y-2042436D02*
X5907920Y-2051960D01*
X5907920Y-2051960D02*
X5888873Y-2061484D01*
X5888873Y-2061484D02*
X5850777Y-2061484D01*
X5850777Y-2061484D02*
X5831730Y-2051960D01*
X6041253Y-2061484D02*
X6022206Y-2051960D01*
X6022206Y-2051960D02*
X6012682Y-2032912D01*
X6012682Y-2032912D02*
X6012682Y-1861484D01*
X6203158Y-2061484D02*
X6203158Y-1956722D01*
X6203158Y-1956722D02*
X6193634Y-1937674D01*
X6193634Y-1937674D02*
X6174587Y-1928150D01*
X6174587Y-1928150D02*
X6136492Y-1928150D01*
X6136492Y-1928150D02*
X6117444Y-1937674D01*
X6203158Y-2051960D02*
X6184111Y-2061484D01*
X6184111Y-2061484D02*
X6136492Y-2061484D01*
X6136492Y-2061484D02*
X6117444Y-2051960D01*
X6117444Y-2051960D02*
X6107920Y-2032912D01*
X6107920Y-2032912D02*
X6107920Y-2013865D01*
X6107920Y-2013865D02*
X6117444Y-1994817D01*
X6117444Y-1994817D02*
X6136492Y-1985293D01*
X6136492Y-1985293D02*
X6184111Y-1985293D01*
X6184111Y-1985293D02*
X6203158Y-1975769D01*
X6269825Y-1928150D02*
X6346015Y-1928150D01*
X6298396Y-1861484D02*
X6298396Y-2032912D01*
X6298396Y-2032912D02*
X6307920Y-2051960D01*
X6307920Y-2051960D02*
X6326968Y-2061484D01*
X6326968Y-2061484D02*
X6346015Y-2061484D01*
X6488873Y-2051960D02*
X6469825Y-2061484D01*
X6469825Y-2061484D02*
X6431730Y-2061484D01*
X6431730Y-2061484D02*
X6412682Y-2051960D01*
X6412682Y-2051960D02*
X6403158Y-2032912D01*
X6403158Y-2032912D02*
X6403158Y-1956722D01*
X6403158Y-1956722D02*
X6412682Y-1937674D01*
X6412682Y-1937674D02*
X6431730Y-1928150D01*
X6431730Y-1928150D02*
X6469825Y-1928150D01*
X6469825Y-1928150D02*
X6488873Y-1937674D01*
X6488873Y-1937674D02*
X6498396Y-1956722D01*
X6498396Y-1956722D02*
X6498396Y-1975769D01*
X6498396Y-1975769D02*
X6403158Y-1994817D01*
X6669825Y-2061484D02*
X6669825Y-1861484D01*
X6669825Y-2051960D02*
X6650777Y-2061484D01*
X6650777Y-2061484D02*
X6612682Y-2061484D01*
X6612682Y-2061484D02*
X6593634Y-2051960D01*
X6593634Y-2051960D02*
X6584111Y-2042436D01*
X6584111Y-2042436D02*
X6574587Y-2023388D01*
X6574587Y-2023388D02*
X6574587Y-1966246D01*
X6574587Y-1966246D02*
X6584111Y-1947198D01*
X6584111Y-1947198D02*
X6593634Y-1937674D01*
X6593634Y-1937674D02*
X6612682Y-1928150D01*
X6612682Y-1928150D02*
X6650777Y-1928150D01*
X6650777Y-1928150D02*
X6669825Y-1937674D01*
X6746015Y-2137674D02*
X6755539Y-2128150D01*
X6755539Y-2128150D02*
X6774587Y-2099579D01*
X6774587Y-2099579D02*
X6784111Y-2080531D01*
X6784111Y-2080531D02*
X6793634Y-2051960D01*
X6793634Y-2051960D02*
X6803158Y-2004341D01*
X6803158Y-2004341D02*
X6803158Y-1966246D01*
X6803158Y-1966246D02*
X6793634Y-1918627D01*
X6793634Y-1918627D02*
X6784111Y-1890055D01*
X6784111Y-1890055D02*
X6774587Y-1871008D01*
X6774587Y-1871008D02*
X6755539Y-1842436D01*
X6755539Y-1842436D02*
X6746015Y-1832912D01*
X-210000Y-2134000D02*
X-10000Y-2334000D01*
X-10000Y-2134000D02*
X-210000Y-2334000D01*
X-110000Y-2134000D02*
X-110000Y-2334000D01*
X-210000Y-2234000D02*
X-10000Y-2234000D01*
X231729Y-2125484D02*
X355539Y-2125484D01*
X355539Y-2125484D02*
X288872Y-2201674D01*
X288872Y-2201674D02*
X317444Y-2201674D01*
X317444Y-2201674D02*
X336491Y-2211198D01*
X336491Y-2211198D02*
X346015Y-2220722D01*
X346015Y-2220722D02*
X355539Y-2239770D01*
X355539Y-2239770D02*
X355539Y-2287389D01*
X355539Y-2287389D02*
X346015Y-2306436D01*
X346015Y-2306436D02*
X336491Y-2315960D01*
X336491Y-2315960D02*
X317444Y-2325484D01*
X317444Y-2325484D02*
X260301Y-2325484D01*
X260301Y-2325484D02*
X241253Y-2315960D01*
X241253Y-2315960D02*
X231729Y-2306436D01*
X441253Y-2306436D02*
X450777Y-2315960D01*
X450777Y-2315960D02*
X441253Y-2325484D01*
X441253Y-2325484D02*
X431729Y-2315960D01*
X431729Y-2315960D02*
X441253Y-2306436D01*
X441253Y-2306436D02*
X441253Y-2325484D01*
X526967Y-2144531D02*
X536491Y-2135008D01*
X536491Y-2135008D02*
X555539Y-2125484D01*
X555539Y-2125484D02*
X603158Y-2125484D01*
X603158Y-2125484D02*
X622205Y-2135008D01*
X622205Y-2135008D02*
X631729Y-2144531D01*
X631729Y-2144531D02*
X641253Y-2163579D01*
X641253Y-2163579D02*
X641253Y-2182627D01*
X641253Y-2182627D02*
X631729Y-2211198D01*
X631729Y-2211198D02*
X517443Y-2325484D01*
X517443Y-2325484D02*
X641253Y-2325484D01*
X765062Y-2125484D02*
X784110Y-2125484D01*
X784110Y-2125484D02*
X803158Y-2135008D01*
X803158Y-2135008D02*
X812682Y-2144531D01*
X812682Y-2144531D02*
X822205Y-2163579D01*
X822205Y-2163579D02*
X831729Y-2201674D01*
X831729Y-2201674D02*
X831729Y-2249293D01*
X831729Y-2249293D02*
X822205Y-2287389D01*
X822205Y-2287389D02*
X812682Y-2306436D01*
X812682Y-2306436D02*
X803158Y-2315960D01*
X803158Y-2315960D02*
X784110Y-2325484D01*
X784110Y-2325484D02*
X765062Y-2325484D01*
X765062Y-2325484D02*
X746015Y-2315960D01*
X746015Y-2315960D02*
X736491Y-2306436D01*
X736491Y-2306436D02*
X726967Y-2287389D01*
X726967Y-2287389D02*
X717443Y-2249293D01*
X717443Y-2249293D02*
X717443Y-2201674D01*
X717443Y-2201674D02*
X726967Y-2163579D01*
X726967Y-2163579D02*
X736491Y-2144531D01*
X736491Y-2144531D02*
X746015Y-2135008D01*
X746015Y-2135008D02*
X765062Y-2125484D01*
X955539Y-2125484D02*
X974586Y-2125484D01*
X974586Y-2125484D02*
X993634Y-2135008D01*
X993634Y-2135008D02*
X1003158Y-2144531D01*
X1003158Y-2144531D02*
X1012682Y-2163579D01*
X1012682Y-2163579D02*
X1022205Y-2201674D01*
X1022205Y-2201674D02*
X1022205Y-2249293D01*
X1022205Y-2249293D02*
X1012682Y-2287389D01*
X1012682Y-2287389D02*
X1003158Y-2306436D01*
X1003158Y-2306436D02*
X993634Y-2315960D01*
X993634Y-2315960D02*
X974586Y-2325484D01*
X974586Y-2325484D02*
X955539Y-2325484D01*
X955539Y-2325484D02*
X936491Y-2315960D01*
X936491Y-2315960D02*
X926967Y-2306436D01*
X926967Y-2306436D02*
X917443Y-2287389D01*
X917443Y-2287389D02*
X907920Y-2249293D01*
X907920Y-2249293D02*
X907920Y-2201674D01*
X907920Y-2201674D02*
X917443Y-2163579D01*
X917443Y-2163579D02*
X926967Y-2144531D01*
X926967Y-2144531D02*
X936491Y-2135008D01*
X936491Y-2135008D02*
X955539Y-2125484D01*
X1107920Y-2325484D02*
X1107920Y-2192150D01*
X1107920Y-2211198D02*
X1117444Y-2201674D01*
X1117444Y-2201674D02*
X1136491Y-2192150D01*
X1136491Y-2192150D02*
X1165063Y-2192150D01*
X1165063Y-2192150D02*
X1184110Y-2201674D01*
X1184110Y-2201674D02*
X1193634Y-2220722D01*
X1193634Y-2220722D02*
X1193634Y-2325484D01*
X1193634Y-2220722D02*
X1203158Y-2201674D01*
X1203158Y-2201674D02*
X1222205Y-2192150D01*
X1222205Y-2192150D02*
X1250777Y-2192150D01*
X1250777Y-2192150D02*
X1269825Y-2201674D01*
X1269825Y-2201674D02*
X1279348Y-2220722D01*
X1279348Y-2220722D02*
X1279348Y-2325484D01*
X1374586Y-2325484D02*
X1374586Y-2192150D01*
X1374586Y-2211198D02*
X1384110Y-2201674D01*
X1384110Y-2201674D02*
X1403158Y-2192150D01*
X1403158Y-2192150D02*
X1431729Y-2192150D01*
X1431729Y-2192150D02*
X1450777Y-2201674D01*
X1450777Y-2201674D02*
X1460301Y-2220722D01*
X1460301Y-2220722D02*
X1460301Y-2325484D01*
X1460301Y-2220722D02*
X1469824Y-2201674D01*
X1469824Y-2201674D02*
X1488872Y-2192150D01*
X1488872Y-2192150D02*
X1517443Y-2192150D01*
X1517443Y-2192150D02*
X1536491Y-2201674D01*
X1536491Y-2201674D02*
X1546015Y-2220722D01*
X1546015Y-2220722D02*
X1546015Y-2325484D01*
X1936491Y-2115960D02*
X1765063Y-2373103D01*
X2193634Y-2125484D02*
X2212682Y-2125484D01*
X2212682Y-2125484D02*
X2231729Y-2135008D01*
X2231729Y-2135008D02*
X2241253Y-2144531D01*
X2241253Y-2144531D02*
X2250777Y-2163579D01*
X2250777Y-2163579D02*
X2260301Y-2201674D01*
X2260301Y-2201674D02*
X2260301Y-2249293D01*
X2260301Y-2249293D02*
X2250777Y-2287389D01*
X2250777Y-2287389D02*
X2241253Y-2306436D01*
X2241253Y-2306436D02*
X2231729Y-2315960D01*
X2231729Y-2315960D02*
X2212682Y-2325484D01*
X2212682Y-2325484D02*
X2193634Y-2325484D01*
X2193634Y-2325484D02*
X2174587Y-2315960D01*
X2174587Y-2315960D02*
X2165063Y-2306436D01*
X2165063Y-2306436D02*
X2155539Y-2287389D01*
X2155539Y-2287389D02*
X2146015Y-2249293D01*
X2146015Y-2249293D02*
X2146015Y-2201674D01*
X2146015Y-2201674D02*
X2155539Y-2163579D01*
X2155539Y-2163579D02*
X2165063Y-2144531D01*
X2165063Y-2144531D02*
X2174587Y-2135008D01*
X2174587Y-2135008D02*
X2193634Y-2125484D01*
X2346015Y-2306436D02*
X2355539Y-2315960D01*
X2355539Y-2315960D02*
X2346015Y-2325484D01*
X2346015Y-2325484D02*
X2336491Y-2315960D01*
X2336491Y-2315960D02*
X2346015Y-2306436D01*
X2346015Y-2306436D02*
X2346015Y-2325484D01*
X2546015Y-2325484D02*
X2431729Y-2325484D01*
X2488872Y-2325484D02*
X2488872Y-2125484D01*
X2488872Y-2125484D02*
X2469825Y-2154055D01*
X2469825Y-2154055D02*
X2450777Y-2173103D01*
X2450777Y-2173103D02*
X2431729Y-2182627D01*
X2622206Y-2144531D02*
X2631729Y-2135008D01*
X2631729Y-2135008D02*
X2650777Y-2125484D01*
X2650777Y-2125484D02*
X2698396Y-2125484D01*
X2698396Y-2125484D02*
X2717444Y-2135008D01*
X2717444Y-2135008D02*
X2726968Y-2144531D01*
X2726968Y-2144531D02*
X2736491Y-2163579D01*
X2736491Y-2163579D02*
X2736491Y-2182627D01*
X2736491Y-2182627D02*
X2726968Y-2211198D01*
X2726968Y-2211198D02*
X2612682Y-2325484D01*
X2612682Y-2325484D02*
X2736491Y-2325484D01*
X2907920Y-2125484D02*
X2869825Y-2125484D01*
X2869825Y-2125484D02*
X2850777Y-2135008D01*
X2850777Y-2135008D02*
X2841253Y-2144531D01*
X2841253Y-2144531D02*
X2822206Y-2173103D01*
X2822206Y-2173103D02*
X2812682Y-2211198D01*
X2812682Y-2211198D02*
X2812682Y-2287389D01*
X2812682Y-2287389D02*
X2822206Y-2306436D01*
X2822206Y-2306436D02*
X2831729Y-2315960D01*
X2831729Y-2315960D02*
X2850777Y-2325484D01*
X2850777Y-2325484D02*
X2888872Y-2325484D01*
X2888872Y-2325484D02*
X2907920Y-2315960D01*
X2907920Y-2315960D02*
X2917444Y-2306436D01*
X2917444Y-2306436D02*
X2926967Y-2287389D01*
X2926967Y-2287389D02*
X2926967Y-2239770D01*
X2926967Y-2239770D02*
X2917444Y-2220722D01*
X2917444Y-2220722D02*
X2907920Y-2211198D01*
X2907920Y-2211198D02*
X2888872Y-2201674D01*
X2888872Y-2201674D02*
X2850777Y-2201674D01*
X2850777Y-2201674D02*
X2831729Y-2211198D01*
X2831729Y-2211198D02*
X2822206Y-2220722D01*
X2822206Y-2220722D02*
X2812682Y-2239770D01*
X3050777Y-2125484D02*
X3069825Y-2125484D01*
X3069825Y-2125484D02*
X3088872Y-2135008D01*
X3088872Y-2135008D02*
X3098396Y-2144531D01*
X3098396Y-2144531D02*
X3107920Y-2163579D01*
X3107920Y-2163579D02*
X3117444Y-2201674D01*
X3117444Y-2201674D02*
X3117444Y-2249293D01*
X3117444Y-2249293D02*
X3107920Y-2287389D01*
X3107920Y-2287389D02*
X3098396Y-2306436D01*
X3098396Y-2306436D02*
X3088872Y-2315960D01*
X3088872Y-2315960D02*
X3069825Y-2325484D01*
X3069825Y-2325484D02*
X3050777Y-2325484D01*
X3050777Y-2325484D02*
X3031729Y-2315960D01*
X3031729Y-2315960D02*
X3022206Y-2306436D01*
X3022206Y-2306436D02*
X3012682Y-2287389D01*
X3012682Y-2287389D02*
X3003158Y-2249293D01*
X3003158Y-2249293D02*
X3003158Y-2201674D01*
X3003158Y-2201674D02*
X3012682Y-2163579D01*
X3012682Y-2163579D02*
X3022206Y-2144531D01*
X3022206Y-2144531D02*
X3031729Y-2135008D01*
X3031729Y-2135008D02*
X3050777Y-2125484D01*
X3193634Y-2125484D02*
X3193634Y-2163579D01*
X3269825Y-2125484D02*
X3269825Y-2163579D01*
X3565063Y-2401674D02*
X3555539Y-2392150D01*
X3555539Y-2392150D02*
X3536491Y-2363579D01*
X3536491Y-2363579D02*
X3526968Y-2344531D01*
X3526968Y-2344531D02*
X3517444Y-2315960D01*
X3517444Y-2315960D02*
X3507920Y-2268341D01*
X3507920Y-2268341D02*
X3507920Y-2230246D01*
X3507920Y-2230246D02*
X3517444Y-2182627D01*
X3517444Y-2182627D02*
X3526968Y-2154055D01*
X3526968Y-2154055D02*
X3536491Y-2135008D01*
X3536491Y-2135008D02*
X3555539Y-2106436D01*
X3555539Y-2106436D02*
X3565063Y-2096912D01*
X3726968Y-2125484D02*
X3688872Y-2125484D01*
X3688872Y-2125484D02*
X3669825Y-2135008D01*
X3669825Y-2135008D02*
X3660301Y-2144531D01*
X3660301Y-2144531D02*
X3641253Y-2173103D01*
X3641253Y-2173103D02*
X3631729Y-2211198D01*
X3631729Y-2211198D02*
X3631729Y-2287389D01*
X3631729Y-2287389D02*
X3641253Y-2306436D01*
X3641253Y-2306436D02*
X3650777Y-2315960D01*
X3650777Y-2315960D02*
X3669825Y-2325484D01*
X3669825Y-2325484D02*
X3707920Y-2325484D01*
X3707920Y-2325484D02*
X3726968Y-2315960D01*
X3726968Y-2315960D02*
X3736491Y-2306436D01*
X3736491Y-2306436D02*
X3746015Y-2287389D01*
X3746015Y-2287389D02*
X3746015Y-2239770D01*
X3746015Y-2239770D02*
X3736491Y-2220722D01*
X3736491Y-2220722D02*
X3726968Y-2211198D01*
X3726968Y-2211198D02*
X3707920Y-2201674D01*
X3707920Y-2201674D02*
X3669825Y-2201674D01*
X3669825Y-2201674D02*
X3650777Y-2211198D01*
X3650777Y-2211198D02*
X3641253Y-2220722D01*
X3641253Y-2220722D02*
X3631729Y-2239770D01*
X3984110Y-2325484D02*
X3984110Y-2125484D01*
X4069825Y-2325484D02*
X4069825Y-2220722D01*
X4069825Y-2220722D02*
X4060301Y-2201674D01*
X4060301Y-2201674D02*
X4041253Y-2192150D01*
X4041253Y-2192150D02*
X4012682Y-2192150D01*
X4012682Y-2192150D02*
X3993634Y-2201674D01*
X3993634Y-2201674D02*
X3984110Y-2211198D01*
X4193634Y-2325484D02*
X4174587Y-2315960D01*
X4174587Y-2315960D02*
X4165063Y-2306436D01*
X4165063Y-2306436D02*
X4155539Y-2287389D01*
X4155539Y-2287389D02*
X4155539Y-2230246D01*
X4155539Y-2230246D02*
X4165063Y-2211198D01*
X4165063Y-2211198D02*
X4174587Y-2201674D01*
X4174587Y-2201674D02*
X4193634Y-2192150D01*
X4193634Y-2192150D02*
X4222206Y-2192150D01*
X4222206Y-2192150D02*
X4241253Y-2201674D01*
X4241253Y-2201674D02*
X4250777Y-2211198D01*
X4250777Y-2211198D02*
X4260301Y-2230246D01*
X4260301Y-2230246D02*
X4260301Y-2287389D01*
X4260301Y-2287389D02*
X4250777Y-2306436D01*
X4250777Y-2306436D02*
X4241253Y-2315960D01*
X4241253Y-2315960D02*
X4222206Y-2325484D01*
X4222206Y-2325484D02*
X4193634Y-2325484D01*
X4374587Y-2325484D02*
X4355539Y-2315960D01*
X4355539Y-2315960D02*
X4346015Y-2296912D01*
X4346015Y-2296912D02*
X4346015Y-2125484D01*
X4526968Y-2315960D02*
X4507920Y-2325484D01*
X4507920Y-2325484D02*
X4469825Y-2325484D01*
X4469825Y-2325484D02*
X4450777Y-2315960D01*
X4450777Y-2315960D02*
X4441253Y-2296912D01*
X4441253Y-2296912D02*
X4441253Y-2220722D01*
X4441253Y-2220722D02*
X4450777Y-2201674D01*
X4450777Y-2201674D02*
X4469825Y-2192150D01*
X4469825Y-2192150D02*
X4507920Y-2192150D01*
X4507920Y-2192150D02*
X4526968Y-2201674D01*
X4526968Y-2201674D02*
X4536492Y-2220722D01*
X4536492Y-2220722D02*
X4536492Y-2239770D01*
X4536492Y-2239770D02*
X4441253Y-2258817D01*
X4612682Y-2315960D02*
X4631730Y-2325484D01*
X4631730Y-2325484D02*
X4669825Y-2325484D01*
X4669825Y-2325484D02*
X4688873Y-2315960D01*
X4688873Y-2315960D02*
X4698396Y-2296912D01*
X4698396Y-2296912D02*
X4698396Y-2287389D01*
X4698396Y-2287389D02*
X4688873Y-2268341D01*
X4688873Y-2268341D02*
X4669825Y-2258817D01*
X4669825Y-2258817D02*
X4641253Y-2258817D01*
X4641253Y-2258817D02*
X4622206Y-2249293D01*
X4622206Y-2249293D02*
X4612682Y-2230246D01*
X4612682Y-2230246D02*
X4612682Y-2220722D01*
X4612682Y-2220722D02*
X4622206Y-2201674D01*
X4622206Y-2201674D02*
X4641253Y-2192150D01*
X4641253Y-2192150D02*
X4669825Y-2192150D01*
X4669825Y-2192150D02*
X4688873Y-2201674D01*
X4765063Y-2401674D02*
X4774587Y-2392150D01*
X4774587Y-2392150D02*
X4793634Y-2363579D01*
X4793634Y-2363579D02*
X4803158Y-2344531D01*
X4803158Y-2344531D02*
X4812682Y-2315960D01*
X4812682Y-2315960D02*
X4822206Y-2268341D01*
X4822206Y-2268341D02*
X4822206Y-2230246D01*
X4822206Y-2230246D02*
X4812682Y-2182627D01*
X4812682Y-2182627D02*
X4803158Y-2154055D01*
X4803158Y-2154055D02*
X4793634Y-2135008D01*
X4793634Y-2135008D02*
X4774587Y-2106436D01*
X4774587Y-2106436D02*
X4765063Y-2096912D01*
X5126968Y-2401674D02*
X5117444Y-2392150D01*
X5117444Y-2392150D02*
X5098396Y-2363579D01*
X5098396Y-2363579D02*
X5088873Y-2344531D01*
X5088873Y-2344531D02*
X5079349Y-2315960D01*
X5079349Y-2315960D02*
X5069825Y-2268341D01*
X5069825Y-2268341D02*
X5069825Y-2230246D01*
X5069825Y-2230246D02*
X5079349Y-2182627D01*
X5079349Y-2182627D02*
X5088873Y-2154055D01*
X5088873Y-2154055D02*
X5098396Y-2135008D01*
X5098396Y-2135008D02*
X5117444Y-2106436D01*
X5117444Y-2106436D02*
X5126968Y-2096912D01*
X5203158Y-2192150D02*
X5203158Y-2325484D01*
X5203158Y-2211198D02*
X5212682Y-2201674D01*
X5212682Y-2201674D02*
X5231730Y-2192150D01*
X5231730Y-2192150D02*
X5260301Y-2192150D01*
X5260301Y-2192150D02*
X5279349Y-2201674D01*
X5279349Y-2201674D02*
X5288873Y-2220722D01*
X5288873Y-2220722D02*
X5288873Y-2325484D01*
X5412682Y-2325484D02*
X5393634Y-2315960D01*
X5393634Y-2315960D02*
X5384111Y-2306436D01*
X5384111Y-2306436D02*
X5374587Y-2287389D01*
X5374587Y-2287389D02*
X5374587Y-2230246D01*
X5374587Y-2230246D02*
X5384111Y-2211198D01*
X5384111Y-2211198D02*
X5393634Y-2201674D01*
X5393634Y-2201674D02*
X5412682Y-2192150D01*
X5412682Y-2192150D02*
X5441254Y-2192150D01*
X5441254Y-2192150D02*
X5460301Y-2201674D01*
X5460301Y-2201674D02*
X5469825Y-2211198D01*
X5469825Y-2211198D02*
X5479349Y-2230246D01*
X5479349Y-2230246D02*
X5479349Y-2287389D01*
X5479349Y-2287389D02*
X5469825Y-2306436D01*
X5469825Y-2306436D02*
X5460301Y-2315960D01*
X5460301Y-2315960D02*
X5441254Y-2325484D01*
X5441254Y-2325484D02*
X5412682Y-2325484D01*
X5536492Y-2192150D02*
X5612682Y-2192150D01*
X5565063Y-2125484D02*
X5565063Y-2296912D01*
X5565063Y-2296912D02*
X5574587Y-2315960D01*
X5574587Y-2315960D02*
X5593634Y-2325484D01*
X5593634Y-2325484D02*
X5612682Y-2325484D01*
X5831730Y-2192150D02*
X5831730Y-2392150D01*
X5831730Y-2201674D02*
X5850777Y-2192150D01*
X5850777Y-2192150D02*
X5888873Y-2192150D01*
X5888873Y-2192150D02*
X5907920Y-2201674D01*
X5907920Y-2201674D02*
X5917444Y-2211198D01*
X5917444Y-2211198D02*
X5926968Y-2230246D01*
X5926968Y-2230246D02*
X5926968Y-2287389D01*
X5926968Y-2287389D02*
X5917444Y-2306436D01*
X5917444Y-2306436D02*
X5907920Y-2315960D01*
X5907920Y-2315960D02*
X5888873Y-2325484D01*
X5888873Y-2325484D02*
X5850777Y-2325484D01*
X5850777Y-2325484D02*
X5831730Y-2315960D01*
X6041253Y-2325484D02*
X6022206Y-2315960D01*
X6022206Y-2315960D02*
X6012682Y-2296912D01*
X6012682Y-2296912D02*
X6012682Y-2125484D01*
X6203158Y-2325484D02*
X6203158Y-2220722D01*
X6203158Y-2220722D02*
X6193634Y-2201674D01*
X6193634Y-2201674D02*
X6174587Y-2192150D01*
X6174587Y-2192150D02*
X6136492Y-2192150D01*
X6136492Y-2192150D02*
X6117444Y-2201674D01*
X6203158Y-2315960D02*
X6184111Y-2325484D01*
X6184111Y-2325484D02*
X6136492Y-2325484D01*
X6136492Y-2325484D02*
X6117444Y-2315960D01*
X6117444Y-2315960D02*
X6107920Y-2296912D01*
X6107920Y-2296912D02*
X6107920Y-2277865D01*
X6107920Y-2277865D02*
X6117444Y-2258817D01*
X6117444Y-2258817D02*
X6136492Y-2249293D01*
X6136492Y-2249293D02*
X6184111Y-2249293D01*
X6184111Y-2249293D02*
X6203158Y-2239770D01*
X6269825Y-2192150D02*
X6346015Y-2192150D01*
X6298396Y-2125484D02*
X6298396Y-2296912D01*
X6298396Y-2296912D02*
X6307920Y-2315960D01*
X6307920Y-2315960D02*
X6326968Y-2325484D01*
X6326968Y-2325484D02*
X6346015Y-2325484D01*
X6488873Y-2315960D02*
X6469825Y-2325484D01*
X6469825Y-2325484D02*
X6431730Y-2325484D01*
X6431730Y-2325484D02*
X6412682Y-2315960D01*
X6412682Y-2315960D02*
X6403158Y-2296912D01*
X6403158Y-2296912D02*
X6403158Y-2220722D01*
X6403158Y-2220722D02*
X6412682Y-2201674D01*
X6412682Y-2201674D02*
X6431730Y-2192150D01*
X6431730Y-2192150D02*
X6469825Y-2192150D01*
X6469825Y-2192150D02*
X6488873Y-2201674D01*
X6488873Y-2201674D02*
X6498396Y-2220722D01*
X6498396Y-2220722D02*
X6498396Y-2239770D01*
X6498396Y-2239770D02*
X6403158Y-2258817D01*
X6669825Y-2325484D02*
X6669825Y-2125484D01*
X6669825Y-2315960D02*
X6650777Y-2325484D01*
X6650777Y-2325484D02*
X6612682Y-2325484D01*
X6612682Y-2325484D02*
X6593634Y-2315960D01*
X6593634Y-2315960D02*
X6584111Y-2306436D01*
X6584111Y-2306436D02*
X6574587Y-2287389D01*
X6574587Y-2287389D02*
X6574587Y-2230246D01*
X6574587Y-2230246D02*
X6584111Y-2211198D01*
X6584111Y-2211198D02*
X6593634Y-2201674D01*
X6593634Y-2201674D02*
X6612682Y-2192150D01*
X6612682Y-2192150D02*
X6650777Y-2192150D01*
X6650777Y-2192150D02*
X6669825Y-2201674D01*
X6746015Y-2401674D02*
X6755539Y-2392150D01*
X6755539Y-2392150D02*
X6774587Y-2363579D01*
X6774587Y-2363579D02*
X6784111Y-2344531D01*
X6784111Y-2344531D02*
X6793634Y-2315960D01*
X6793634Y-2315960D02*
X6803158Y-2268341D01*
X6803158Y-2268341D02*
X6803158Y-2230246D01*
X6803158Y-2230246D02*
X6793634Y-2182627D01*
X6793634Y-2182627D02*
X6784111Y-2154055D01*
X6784111Y-2154055D02*
X6774587Y-2135008D01*
X6774587Y-2135008D02*
X6755539Y-2106436D01*
X6755539Y-2106436D02*
X6746015Y-2096912D01*
M02*
