%TF.GenerationSoftware,KiCad,Pcbnew,9.0.9*%
%TF.CreationDate,2026-06-03T23:50:24+05:30*%
%TF.ProjectId,Open_STMPLC_Main_V0.1,4f70656e-5f53-4544-9d50-4c435f4d6169,0.1*%
%TF.SameCoordinates,PX2faf080PY8583b00*%
%TF.FileFunction,Soldermask,Top*%
%TF.FilePolarity,Negative*%
%FSLAX46Y46*%
G04 Gerber Fmt 4.6, Leading zero omitted, Abs format (unit mm)*
G04 Created by KiCad (PCBNEW 9.0.9) date 2026-06-03 23:50:24*
%MOMM*%
%LPD*%
G01*
G04 APERTURE LIST*
G04 Aperture macros list*
%AMRoundRect*
0 Rectangle with rounded corners*
0 $1 Rounding radius*
0 $2 $3 $4 $5 $6 $7 $8 $9 X,Y pos of 4 corners*
0 Add a 4 corners polygon primitive as box body*
4,1,4,$2,$3,$4,$5,$6,$7,$8,$9,$2,$3,0*
0 Add four circle primitives for the rounded corners*
1,1,$1+$1,$2,$3*
1,1,$1+$1,$4,$5*
1,1,$1+$1,$6,$7*
1,1,$1+$1,$8,$9*
0 Add four rect primitives between the rounded corners*
20,1,$1+$1,$2,$3,$4,$5,0*
20,1,$1+$1,$4,$5,$6,$7,0*
20,1,$1+$1,$6,$7,$8,$9,0*
20,1,$1+$1,$8,$9,$2,$3,0*%
G04 Aperture macros list end*
%ADD10C,0.010000*%
%ADD11C,0.650000*%
%ADD12RoundRect,0.150000X0.150000X0.425000X-0.150000X0.425000X-0.150000X-0.425000X0.150000X-0.425000X0*%
%ADD13RoundRect,0.075000X0.075000X0.500000X-0.075000X0.500000X-0.075000X-0.500000X0.075000X-0.500000X0*%
%ADD14O,1.000000X2.100000*%
%ADD15O,1.000000X1.800000*%
%ADD16C,3.200000*%
%ADD17R,1.600000X1.600000*%
%ADD18C,1.600000*%
%ADD19C,2.445000*%
%ADD20RoundRect,0.237500X0.237500X-0.250000X0.237500X0.250000X-0.237500X0.250000X-0.237500X-0.250000X0*%
%ADD21C,0.830000*%
%ADD22C,1.230000*%
%ADD23RoundRect,0.102000X1.000000X-0.250000X1.000000X0.250000X-1.000000X0.250000X-1.000000X-0.250000X0*%
%ADD24RoundRect,0.250000X0.475000X-0.337500X0.475000X0.337500X-0.475000X0.337500X-0.475000X-0.337500X0*%
%ADD25RoundRect,0.237500X-0.237500X0.300000X-0.237500X-0.300000X0.237500X-0.300000X0.237500X0.300000X0*%
%ADD26RoundRect,0.237500X-0.300000X-0.237500X0.300000X-0.237500X0.300000X0.237500X-0.300000X0.237500X0*%
%ADD27C,3.000000*%
%ADD28RoundRect,0.237500X-0.250000X-0.237500X0.250000X-0.237500X0.250000X0.237500X-0.250000X0.237500X0*%
%ADD29RoundRect,0.237500X0.250000X0.237500X-0.250000X0.237500X-0.250000X-0.237500X0.250000X-0.237500X0*%
%ADD30RoundRect,0.075000X0.075000X-0.675000X0.075000X0.675000X-0.075000X0.675000X-0.075000X-0.675000X0*%
%ADD31RoundRect,0.075000X0.675000X-0.075000X0.675000X0.075000X-0.675000X0.075000X-0.675000X-0.075000X0*%
%ADD32RoundRect,0.237500X-0.237500X0.250000X-0.237500X-0.250000X0.237500X-0.250000X0.237500X0.250000X0*%
%ADD33C,1.500000*%
%ADD34RoundRect,0.050000X0.300000X-0.150000X0.300000X0.150000X-0.300000X0.150000X-0.300000X-0.150000X0*%
%ADD35R,1.700000X1.700000*%
%ADD36C,1.700000*%
%ADD37RoundRect,0.150000X-0.875000X-0.150000X0.875000X-0.150000X0.875000X0.150000X-0.875000X0.150000X0*%
%ADD38RoundRect,0.237500X0.237500X-0.300000X0.237500X0.300000X-0.237500X0.300000X-0.237500X-0.300000X0*%
%ADD39RoundRect,0.150000X-0.150000X0.512500X-0.150000X-0.512500X0.150000X-0.512500X0.150000X0.512500X0*%
%ADD40C,0.750000*%
%ADD41C,1.200000*%
%ADD42R,0.800000X1.140000*%
%ADD43R,0.700000X1.140000*%
%ADD44R,0.700000X2.100000*%
%ADD45RoundRect,0.250000X0.337500X0.475000X-0.337500X0.475000X-0.337500X-0.475000X0.337500X-0.475000X0*%
%ADD46RoundRect,0.062500X-0.062500X0.375000X-0.062500X-0.375000X0.062500X-0.375000X0.062500X0.375000X0*%
%ADD47RoundRect,0.062500X-0.375000X0.062500X-0.375000X-0.062500X0.375000X-0.062500X0.375000X0.062500X0*%
%ADD48R,2.500000X2.500000*%
%ADD49RoundRect,0.237500X0.300000X0.237500X-0.300000X0.237500X-0.300000X-0.237500X0.300000X-0.237500X0*%
%ADD50RoundRect,0.125000X0.125000X-0.125000X0.125000X0.125000X-0.125000X0.125000X-0.125000X-0.125000X0*%
%ADD51R,5.000000X5.000000*%
%ADD52R,4.000000X4.000000*%
%ADD53RoundRect,0.162500X-0.650000X-0.162500X0.650000X-0.162500X0.650000X0.162500X-0.650000X0.162500X0*%
%ADD54R,1.000000X1.800000*%
%ADD55RoundRect,0.250000X0.550000X0.400000X-0.550000X0.400000X-0.550000X-0.400000X0.550000X-0.400000X0*%
%ADD56RoundRect,0.235000X1.465000X-0.940000X1.465000X0.940000X-1.465000X0.940000X-1.465000X-0.940000X0*%
%ADD57RoundRect,0.250000X-0.337500X-0.475000X0.337500X-0.475000X0.337500X0.475000X-0.337500X0.475000X0*%
%ADD58RoundRect,0.150000X-0.512500X-0.150000X0.512500X-0.150000X0.512500X0.150000X-0.512500X0.150000X0*%
%ADD59RoundRect,0.250000X-0.350000X0.275000X-0.350000X-0.275000X0.350000X-0.275000X0.350000X0.275000X0*%
%ADD60RoundRect,0.250000X0.800000X0.450000X-0.800000X0.450000X-0.800000X-0.450000X0.800000X-0.450000X0*%
%ADD61RoundRect,0.150000X0.512500X0.150000X-0.512500X0.150000X-0.512500X-0.150000X0.512500X-0.150000X0*%
%ADD62RoundRect,0.250000X0.412500X0.650000X-0.412500X0.650000X-0.412500X-0.650000X0.412500X-0.650000X0*%
%ADD63RoundRect,0.050000X-0.150000X-0.300000X0.150000X-0.300000X0.150000X0.300000X-0.150000X0.300000X0*%
%ADD64RoundRect,0.250000X0.945000X-0.420000X0.945000X0.420000X-0.945000X0.420000X-0.945000X-0.420000X0*%
%ADD65RoundRect,0.250000X0.250000X-0.275000X0.250000X0.275000X-0.250000X0.275000X-0.250000X-0.275000X0*%
%ADD66RoundRect,0.250000X0.275000X-0.850000X0.275000X0.850000X-0.275000X0.850000X-0.275000X-0.850000X0*%
%ADD67RoundRect,0.375000X-0.375000X0.625000X-0.375000X-0.625000X0.375000X-0.625000X0.375000X0.625000X0*%
%ADD68RoundRect,0.500000X-1.400000X0.500000X-1.400000X-0.500000X1.400000X-0.500000X1.400000X0.500000X0*%
%ADD69O,1.004000X2.704000*%
%ADD70O,2.704000X1.004000*%
%ADD71RoundRect,0.102000X0.550000X-0.550000X0.550000X0.550000X-0.550000X0.550000X-0.550000X-0.550000X0*%
%ADD72RoundRect,0.102000X1.500000X-1.000000X1.500000X1.000000X-1.500000X1.000000X-1.500000X-1.000000X0*%
%ADD73RoundRect,0.250000X0.350000X-0.275000X0.350000X0.275000X-0.350000X0.275000X-0.350000X-0.275000X0*%
%ADD74RoundRect,0.250000X-0.450000X0.400000X-0.450000X-0.400000X0.450000X-0.400000X0.450000X0.400000X0*%
%ADD75RoundRect,0.250000X-0.400000X-0.625000X0.400000X-0.625000X0.400000X0.625000X-0.400000X0.625000X0*%
%ADD76RoundRect,0.150000X0.150000X-0.825000X0.150000X0.825000X-0.150000X0.825000X-0.150000X-0.825000X0*%
%ADD77RoundRect,0.250000X-0.945000X0.420000X-0.945000X-0.420000X0.945000X-0.420000X0.945000X0.420000X0*%
%ADD78RoundRect,0.070000X-0.355000X-0.070000X0.355000X-0.070000X0.355000X0.070000X-0.355000X0.070000X0*%
%ADD79R,0.280000X0.700000*%
%ADD80R,1.650000X2.400000*%
%ADD81C,1.100000*%
%ADD82R,0.700000X1.300000*%
%ADD83R,1.447800X1.651000*%
%ADD84R,1.447800X2.438400*%
%ADD85R,1.854200X1.651000*%
%ADD86RoundRect,0.250000X-0.475000X0.337500X-0.475000X-0.337500X0.475000X-0.337500X0.475000X0.337500X0*%
%ADD87RoundRect,0.250000X0.830000X0.310000X-0.830000X0.310000X-0.830000X-0.310000X0.830000X-0.310000X0*%
G04 APERTURE END LIST*
%TO.C,J5*%
G36*
X37560000Y85985000D02*
G01*
X39440000Y85985000D01*
X39440000Y88075000D01*
X37560000Y88075000D01*
X37560000Y85985000D01*
G37*
D10*
%TO.C,U8*%
X30600000Y56700000D02*
X28250000Y56700000D01*
X27400000Y57550000D01*
X27400000Y58900000D01*
X30600000Y58900000D01*
X30600000Y56700000D01*
G36*
X30600000Y56700000D02*
G01*
X28250000Y56700000D01*
X27400000Y57550000D01*
X27400000Y58900000D01*
X30600000Y58900000D01*
X30600000Y56700000D01*
G37*
%TO.C,J6*%
G36*
X31160000Y85985000D02*
G01*
X33040000Y85985000D01*
X33040000Y88075000D01*
X31160000Y88075000D01*
X31160000Y85985000D01*
G37*
%TD*%
D11*
%TO.C,J12*%
X115890000Y83395000D03*
X110110000Y83395000D03*
D12*
X116200000Y82320000D03*
X115400000Y82320000D03*
D13*
X114250000Y82320000D03*
X113250000Y82320000D03*
X112750000Y82320000D03*
X111750000Y82320000D03*
D12*
X110600000Y82320000D03*
X109800000Y82320000D03*
X109800000Y82320000D03*
X110600000Y82320000D03*
D13*
X111250000Y82320000D03*
X112250000Y82320000D03*
X113750000Y82320000D03*
X114750000Y82320000D03*
D12*
X115400000Y82320000D03*
X116200000Y82320000D03*
D14*
X117320000Y82895000D03*
D15*
X117320000Y87075000D03*
D14*
X108680000Y82895000D03*
D15*
X108680000Y87075000D03*
%TD*%
D11*
%TO.C,J2*%
X104890000Y83395000D03*
X99110000Y83395000D03*
D12*
X105200000Y82320000D03*
X104400000Y82320000D03*
D13*
X103250000Y82320000D03*
X102250000Y82320000D03*
X101750000Y82320000D03*
X100750000Y82320000D03*
D12*
X99600000Y82320000D03*
X98800000Y82320000D03*
X98800000Y82320000D03*
X99600000Y82320000D03*
D13*
X100250000Y82320000D03*
X101250000Y82320000D03*
X102750000Y82320000D03*
X103750000Y82320000D03*
D12*
X104400000Y82320000D03*
X105200000Y82320000D03*
D14*
X106320000Y82895000D03*
D15*
X106320000Y87075000D03*
D14*
X97680000Y82895000D03*
D15*
X97680000Y87075000D03*
%TD*%
D16*
%TO.C,J14*%
X161020000Y54714500D03*
X161020000Y43284500D03*
D17*
X154670000Y44549500D03*
D18*
X152130000Y45819500D03*
X154670000Y47089500D03*
X152130000Y48359500D03*
X154670000Y49629500D03*
X152130000Y50899500D03*
X154670000Y52169500D03*
X152130000Y53439500D03*
X165130000Y42674500D03*
X165130000Y45214500D03*
X165130000Y52784500D03*
X165130000Y55324500D03*
D19*
X157120000Y56949500D03*
X157120000Y41049500D03*
%TD*%
D20*
%TO.C,R17*%
X162500000Y62412500D03*
X162500000Y60587500D03*
%TD*%
%TO.C,R27*%
X166500000Y62412500D03*
X166500000Y60587500D03*
%TD*%
%TO.C,R28*%
X164500000Y62412500D03*
X164500000Y60587500D03*
%TD*%
D16*
%TO.C,H2*%
X3500000Y14000000D03*
%TD*%
D21*
%TO.C,J10*%
X164500000Y9900000D03*
D22*
X164500000Y30100000D03*
D23*
X162300000Y12400000D03*
X166700000Y12400000D03*
X162300000Y13200000D03*
X166700000Y13200000D03*
X162300000Y14000000D03*
X166700000Y14000000D03*
X162300000Y14800000D03*
X166700000Y14800000D03*
X162300000Y15600000D03*
X166700000Y15600000D03*
X162300000Y16400000D03*
X166700000Y16400000D03*
X162300000Y17200000D03*
X166700000Y17200000D03*
X162300000Y18000000D03*
X166700000Y18000000D03*
X162300000Y18800000D03*
X166700000Y18800000D03*
X162300000Y19600000D03*
X166700000Y19600000D03*
X162300000Y20400000D03*
X166700000Y20400000D03*
X162300000Y21200000D03*
X166700000Y21200000D03*
X162300000Y22000000D03*
X166700000Y22000000D03*
X162300000Y22800000D03*
X166700000Y22800000D03*
X162300000Y23600000D03*
X166700000Y23600000D03*
X162300000Y24400000D03*
X166700000Y24400000D03*
X162300000Y25200000D03*
X166700000Y25200000D03*
X162300000Y26000000D03*
X166700000Y26000000D03*
X162300000Y26800000D03*
X166700000Y26800000D03*
X162300000Y27600000D03*
X166700000Y27600000D03*
%TD*%
D24*
%TO.C,C4*%
X138000000Y35462500D03*
X138000000Y37537500D03*
%TD*%
D25*
%TO.C,C12*%
X120500000Y37362500D03*
X120500000Y35637500D03*
%TD*%
%TO.C,C11*%
X120500000Y31862500D03*
X120500000Y30137500D03*
%TD*%
D26*
%TO.C,C62*%
X120637500Y45500000D03*
X122362500Y45500000D03*
%TD*%
D27*
%TO.C,FID2*%
X163000000Y82000000D03*
%TD*%
D20*
%TO.C,R69*%
X90500000Y70087500D03*
X90500000Y71912500D03*
%TD*%
D28*
%TO.C,R43*%
X107087500Y60500000D03*
X108912500Y60500000D03*
%TD*%
D26*
%TO.C,C21*%
X103137500Y54500000D03*
X104862500Y54500000D03*
%TD*%
D29*
%TO.C,R44*%
X123412500Y57000000D03*
X121587500Y57000000D03*
%TD*%
D30*
%TO.C,U1*%
X94250000Y26325000D03*
X94750000Y26325000D03*
X95250000Y26325000D03*
X95750000Y26325000D03*
X96250000Y26325000D03*
X96750000Y26325000D03*
X97250000Y26325000D03*
X97750000Y26325000D03*
X98250000Y26325000D03*
X98750000Y26325000D03*
X99250000Y26325000D03*
X99750000Y26325000D03*
X100250000Y26325000D03*
X100750000Y26325000D03*
X101250000Y26325000D03*
X101750000Y26325000D03*
X102250000Y26325000D03*
X102750000Y26325000D03*
X103250000Y26325000D03*
X103750000Y26325000D03*
X104250000Y26325000D03*
X104750000Y26325000D03*
X105250000Y26325000D03*
X105750000Y26325000D03*
X106250000Y26325000D03*
X106750000Y26325000D03*
X107250000Y26325000D03*
X107750000Y26325000D03*
X108250000Y26325000D03*
X108750000Y26325000D03*
X109250000Y26325000D03*
X109750000Y26325000D03*
X110250000Y26325000D03*
X110750000Y26325000D03*
X111250000Y26325000D03*
X111750000Y26325000D03*
X112250000Y26325000D03*
X112750000Y26325000D03*
X113250000Y26325000D03*
X113750000Y26325000D03*
X114250000Y26325000D03*
X114750000Y26325000D03*
X115250000Y26325000D03*
X115750000Y26325000D03*
D31*
X117675000Y28250000D03*
X117675000Y28750000D03*
X117675000Y29250000D03*
X117675000Y29750000D03*
X117675000Y30250000D03*
X117675000Y30750000D03*
X117675000Y31250000D03*
X117675000Y31750000D03*
X117675000Y32250000D03*
X117675000Y32750000D03*
X117675000Y33250000D03*
X117675000Y33750000D03*
X117675000Y34250000D03*
X117675000Y34750000D03*
X117675000Y35250000D03*
X117675000Y35750000D03*
X117675000Y36250000D03*
X117675000Y36750000D03*
X117675000Y37250000D03*
X117675000Y37750000D03*
X117675000Y38250000D03*
X117675000Y38750000D03*
X117675000Y39250000D03*
X117675000Y39750000D03*
X117675000Y40250000D03*
X117675000Y40750000D03*
X117675000Y41250000D03*
X117675000Y41750000D03*
X117675000Y42250000D03*
X117675000Y42750000D03*
X117675000Y43250000D03*
X117675000Y43750000D03*
X117675000Y44250000D03*
X117675000Y44750000D03*
X117675000Y45250000D03*
X117675000Y45750000D03*
X117675000Y46250000D03*
X117675000Y46750000D03*
X117675000Y47250000D03*
X117675000Y47750000D03*
X117675000Y48250000D03*
X117675000Y48750000D03*
X117675000Y49250000D03*
X117675000Y49750000D03*
D30*
X115750000Y51675000D03*
X115250000Y51675000D03*
X114750000Y51675000D03*
X114250000Y51675000D03*
X113750000Y51675000D03*
X113250000Y51675000D03*
X112750000Y51675000D03*
X112250000Y51675000D03*
X111750000Y51675000D03*
X111250000Y51675000D03*
X110750000Y51675000D03*
X110250000Y51675000D03*
X109750000Y51675000D03*
X109250000Y51675000D03*
X108750000Y51675000D03*
X108250000Y51675000D03*
X107750000Y51675000D03*
X107250000Y51675000D03*
X106750000Y51675000D03*
X106250000Y51675000D03*
X105750000Y51675000D03*
X105250000Y51675000D03*
X104750000Y51675000D03*
X104250000Y51675000D03*
X103750000Y51675000D03*
X103250000Y51675000D03*
X102750000Y51675000D03*
X102250000Y51675000D03*
X101750000Y51675000D03*
X101250000Y51675000D03*
X100750000Y51675000D03*
X100250000Y51675000D03*
X99750000Y51675000D03*
X99250000Y51675000D03*
X98750000Y51675000D03*
X98250000Y51675000D03*
X97750000Y51675000D03*
X97250000Y51675000D03*
X96750000Y51675000D03*
X96250000Y51675000D03*
X95750000Y51675000D03*
X95250000Y51675000D03*
X94750000Y51675000D03*
X94250000Y51675000D03*
D31*
X92325000Y49750000D03*
X92325000Y49250000D03*
X92325000Y48750000D03*
X92325000Y48250000D03*
X92325000Y47750000D03*
X92325000Y47250000D03*
X92325000Y46750000D03*
X92325000Y46250000D03*
X92325000Y45750000D03*
X92325000Y45250000D03*
X92325000Y44750000D03*
X92325000Y44250000D03*
X92325000Y43750000D03*
X92325000Y43250000D03*
X92325000Y42750000D03*
X92325000Y42250000D03*
X92325000Y41750000D03*
X92325000Y41250000D03*
X92325000Y40750000D03*
X92325000Y40250000D03*
X92325000Y39750000D03*
X92325000Y39250000D03*
X92325000Y38750000D03*
X92325000Y38250000D03*
X92325000Y37750000D03*
X92325000Y37250000D03*
X92325000Y36750000D03*
X92325000Y36250000D03*
X92325000Y35750000D03*
X92325000Y35250000D03*
X92325000Y34750000D03*
X92325000Y34250000D03*
X92325000Y33750000D03*
X92325000Y33250000D03*
X92325000Y32750000D03*
X92325000Y32250000D03*
X92325000Y31750000D03*
X92325000Y31250000D03*
X92325000Y30750000D03*
X92325000Y30250000D03*
X92325000Y29750000D03*
X92325000Y29250000D03*
X92325000Y28750000D03*
X92325000Y28250000D03*
%TD*%
D25*
%TO.C,C19*%
X95500000Y17862500D03*
X95500000Y16137500D03*
%TD*%
D32*
%TO.C,R21*%
X141000000Y54412500D03*
X141000000Y52587500D03*
%TD*%
D29*
%TO.C,R18*%
X108912500Y58500000D03*
X107087500Y58500000D03*
%TD*%
D33*
%TO.C,TP1*%
X19500000Y43000000D03*
%TD*%
D34*
%TO.C,D5*%
X90500000Y67650000D03*
X90500000Y68350000D03*
%TD*%
D25*
%TO.C,C58*%
X142000000Y59862500D03*
X142000000Y58137500D03*
%TD*%
D20*
%TO.C,R29*%
X56500000Y51587500D03*
X56500000Y53412500D03*
%TD*%
D26*
%TO.C,C63*%
X114137500Y23500000D03*
X115862500Y23500000D03*
%TD*%
D34*
%TO.C,D6*%
X82500000Y67650000D03*
X82500000Y68350000D03*
%TD*%
D35*
%TO.C,J3*%
X142690000Y79500000D03*
D36*
X145230000Y79500000D03*
X147770000Y79500000D03*
X150310000Y79500000D03*
%TD*%
D37*
%TO.C,U2*%
X143350000Y36715000D03*
X143350000Y35445000D03*
X143350000Y34175000D03*
X143350000Y32905000D03*
X143350000Y31635000D03*
X143350000Y30365000D03*
X143350000Y29095000D03*
X143350000Y27825000D03*
X143350000Y26555000D03*
X143350000Y25285000D03*
X152650000Y25285000D03*
X152650000Y26555000D03*
X152650000Y27825000D03*
X152650000Y29095000D03*
X152650000Y30365000D03*
X152650000Y31635000D03*
X152650000Y32905000D03*
X152650000Y34175000D03*
X152650000Y35445000D03*
X152650000Y36715000D03*
%TD*%
D27*
%TO.C,FID4*%
X3000000Y7000000D03*
%TD*%
D20*
%TO.C,R72*%
X80500000Y70087500D03*
X80500000Y71912500D03*
%TD*%
D38*
%TO.C,C57*%
X133000000Y58137500D03*
X133000000Y59862500D03*
%TD*%
D39*
%TO.C,U11*%
X102950000Y79637500D03*
X102000000Y79637500D03*
X101050000Y79637500D03*
X101050000Y77362500D03*
X102000000Y77362500D03*
X102950000Y77362500D03*
%TD*%
D20*
%TO.C,R67*%
X94500000Y70087500D03*
X94500000Y71912500D03*
%TD*%
D25*
%TO.C,C44*%
X19100000Y76862500D03*
X19100000Y75137500D03*
%TD*%
D40*
%TO.C,J7*%
X70400000Y87250000D03*
D41*
X69080000Y80900000D03*
X69080000Y88290000D03*
X66540000Y80900000D03*
X66540000Y88290000D03*
X64000000Y80900000D03*
X64000000Y88290000D03*
D40*
X61900000Y87250000D03*
D42*
X65150000Y75020000D03*
X67690000Y75020000D03*
X70230000Y75020000D03*
X63880000Y75020000D03*
X66420000Y75020000D03*
X68960000Y75020000D03*
D43*
X62930000Y75020000D03*
D44*
X71900000Y76500000D03*
X71900000Y88500000D03*
X58900000Y76500000D03*
X58900000Y88500000D03*
%TD*%
D20*
%TO.C,R12*%
X100110000Y61587500D03*
X100110000Y63412500D03*
%TD*%
D25*
%TO.C,C41*%
X145500000Y58362500D03*
X145500000Y56637500D03*
%TD*%
D26*
%TO.C,C70*%
X148137500Y74500000D03*
X149862500Y74500000D03*
%TD*%
D20*
%TO.C,R73*%
X78500000Y70087500D03*
X78500000Y71912500D03*
%TD*%
D38*
%TO.C,C26*%
X89500000Y41637500D03*
X89500000Y43362500D03*
%TD*%
%TO.C,C2*%
X104500000Y17637500D03*
X104500000Y19362500D03*
%TD*%
D45*
%TO.C,C32*%
X51537500Y40000000D03*
X49462500Y40000000D03*
%TD*%
D46*
%TO.C,U7*%
X138250000Y51937500D03*
X137750000Y51937500D03*
X137250000Y51937500D03*
X136750000Y51937500D03*
X136250000Y51937500D03*
X135750000Y51937500D03*
D47*
X135062500Y51250000D03*
X135062500Y50750000D03*
X135062500Y50250000D03*
X135062500Y49750000D03*
X135062500Y49250000D03*
X135062500Y48750000D03*
D46*
X135750000Y48062500D03*
X136250000Y48062500D03*
X136750000Y48062500D03*
X137250000Y48062500D03*
X137750000Y48062500D03*
X138250000Y48062500D03*
D47*
X138937500Y48750000D03*
X138937500Y49250000D03*
X138937500Y49750000D03*
X138937500Y50250000D03*
X138937500Y50750000D03*
X138937500Y51250000D03*
D48*
X137000000Y50000000D03*
%TD*%
D20*
%TO.C,R35*%
X16100000Y61587500D03*
X16100000Y63412500D03*
%TD*%
D38*
%TO.C,C17*%
X158500000Y34637500D03*
X158500000Y36362500D03*
%TD*%
D27*
%TO.C,FID1*%
X3000000Y82000000D03*
%TD*%
D34*
%TO.C,D15*%
X135500000Y73650000D03*
X135500000Y74350000D03*
%TD*%
D49*
%TO.C,C37*%
X133362500Y53500000D03*
X131637500Y53500000D03*
%TD*%
D21*
%TO.C,J8*%
X4500000Y49900000D03*
D22*
X4500000Y70100000D03*
D23*
X2300000Y52400000D03*
X6700000Y52400000D03*
X2300000Y53200000D03*
X6700000Y53200000D03*
X2300000Y54000000D03*
X6700000Y54000000D03*
X2300000Y54800000D03*
X6700000Y54800000D03*
X2300000Y55600000D03*
X6700000Y55600000D03*
X2300000Y56400000D03*
X6700000Y56400000D03*
X2300000Y57200000D03*
X6700000Y57200000D03*
X2300000Y58000000D03*
X6700000Y58000000D03*
X2300000Y58800000D03*
X6700000Y58800000D03*
X2300000Y59600000D03*
X6700000Y59600000D03*
X2300000Y60400000D03*
X6700000Y60400000D03*
X2300000Y61200000D03*
X6700000Y61200000D03*
X2300000Y62000000D03*
X6700000Y62000000D03*
X2300000Y62800000D03*
X6700000Y62800000D03*
X2300000Y63600000D03*
X6700000Y63600000D03*
X2300000Y64400000D03*
X6700000Y64400000D03*
X2300000Y65200000D03*
X6700000Y65200000D03*
X2300000Y66000000D03*
X6700000Y66000000D03*
X2300000Y66800000D03*
X6700000Y66800000D03*
X2300000Y67600000D03*
X6700000Y67600000D03*
%TD*%
D34*
%TO.C,D11*%
X86500000Y67650000D03*
X86500000Y68350000D03*
%TD*%
D50*
%TO.C,D1*%
X78500000Y28400000D03*
X78500000Y30600000D03*
%TD*%
D34*
%TO.C,D7*%
X66000000Y72150000D03*
X66000000Y72850000D03*
%TD*%
D28*
%TO.C,R45*%
X83087500Y39500000D03*
X84912500Y39500000D03*
%TD*%
D38*
%TO.C,C49*%
X65750000Y68387500D03*
X65750000Y70112500D03*
%TD*%
D39*
%TO.C,U12*%
X114950000Y79637500D03*
X114000000Y79637500D03*
X113050000Y79637500D03*
X113050000Y77362500D03*
X114000000Y77362500D03*
X114950000Y77362500D03*
%TD*%
D51*
%TO.C,BT1*%
X74000000Y3550000D03*
X74000000Y29450000D03*
D52*
X74000000Y16500000D03*
%TD*%
D20*
%TO.C,R14*%
X32000000Y37087500D03*
X32000000Y38912500D03*
%TD*%
D49*
%TO.C,C36*%
X133362500Y55500000D03*
X131637500Y55500000D03*
%TD*%
D32*
%TO.C,R51*%
X145000000Y74412500D03*
X145000000Y72587500D03*
%TD*%
D53*
%TO.C,U6*%
X111412500Y61905000D03*
X111412500Y60635000D03*
X111412500Y59365000D03*
X111412500Y58095000D03*
X118587500Y58095000D03*
X118587500Y59365000D03*
X118587500Y60635000D03*
X118587500Y61905000D03*
%TD*%
D54*
%TO.C,Y2*%
X97750000Y21000000D03*
X95250000Y21000000D03*
%TD*%
D49*
%TO.C,C53*%
X58862500Y66500000D03*
X57137500Y66500000D03*
%TD*%
D20*
%TO.C,R25*%
X147500000Y56587500D03*
X147500000Y58412500D03*
%TD*%
D49*
%TO.C,C9*%
X105862500Y23500000D03*
X104137500Y23500000D03*
%TD*%
D26*
%TO.C,C10*%
X110637500Y23500000D03*
X112362500Y23500000D03*
%TD*%
D32*
%TO.C,R52*%
X134500000Y69912500D03*
X134500000Y68087500D03*
%TD*%
D38*
%TO.C,C59*%
X89500000Y36637500D03*
X89500000Y38362500D03*
%TD*%
D25*
%TO.C,C3*%
X112500000Y19362500D03*
X112500000Y17637500D03*
%TD*%
D28*
%TO.C,R16*%
X83087500Y37500000D03*
X84912500Y37500000D03*
%TD*%
D55*
%TO.C,Y3*%
X139150000Y59500000D03*
X135850000Y59500000D03*
X135850000Y57500000D03*
X139150000Y57500000D03*
%TD*%
D20*
%TO.C,R11*%
X105000000Y77587500D03*
X105000000Y79412500D03*
%TD*%
D56*
%TO.C,L1*%
X19000000Y32475000D03*
X19000000Y38525000D03*
%TD*%
D28*
%TO.C,R38*%
X83087500Y29500000D03*
X84912500Y29500000D03*
%TD*%
D39*
%TO.C,Q8*%
X60950000Y53637500D03*
X59050000Y53637500D03*
X60000000Y51362500D03*
%TD*%
D57*
%TO.C,C68*%
X22462500Y41500000D03*
X24537500Y41500000D03*
%TD*%
D20*
%TO.C,R37*%
X117000000Y77587500D03*
X117000000Y79412500D03*
%TD*%
D28*
%TO.C,R47*%
X83087500Y31500000D03*
X84912500Y31500000D03*
%TD*%
D25*
%TO.C,C6*%
X140500000Y28362500D03*
X140500000Y26637500D03*
%TD*%
D34*
%TO.C,D3*%
X61000000Y72150000D03*
X61000000Y72850000D03*
%TD*%
D38*
%TO.C,C31*%
X97635000Y70137500D03*
X97635000Y71862500D03*
%TD*%
D45*
%TO.C,C35*%
X118950000Y67135000D03*
X116875000Y67135000D03*
%TD*%
D35*
%TO.C,J1*%
X138375000Y77000000D03*
D36*
X138375000Y79540000D03*
X135835000Y77000000D03*
X135835000Y79540000D03*
X133295000Y77000000D03*
X133295000Y79540000D03*
X130755000Y77000000D03*
X130755000Y79540000D03*
X128215000Y77000000D03*
X128215000Y79540000D03*
X125675000Y77000000D03*
X125675000Y79540000D03*
X123135000Y77000000D03*
X123135000Y79540000D03*
X120595000Y77000000D03*
X120595000Y79540000D03*
%TD*%
D25*
%TO.C,C69*%
X34000000Y38862500D03*
X34000000Y37137500D03*
%TD*%
D45*
%TO.C,C66*%
X29037500Y40000000D03*
X26962500Y40000000D03*
%TD*%
D58*
%TO.C,Q6*%
X18462500Y63450000D03*
X18462500Y61550000D03*
X20737500Y62500000D03*
%TD*%
D16*
%TO.C,H3*%
X163000000Y88000000D03*
%TD*%
D20*
%TO.C,R70*%
X84500000Y70087500D03*
X84500000Y71912500D03*
%TD*%
D25*
%TO.C,C22*%
X156000000Y28362500D03*
X156000000Y26637500D03*
%TD*%
%TO.C,C46*%
X17100000Y76862500D03*
X17100000Y75137500D03*
%TD*%
D26*
%TO.C,C64*%
X114137500Y21500000D03*
X115862500Y21500000D03*
%TD*%
D27*
%TO.C,FID3*%
X156000000Y3000000D03*
%TD*%
D26*
%TO.C,C16*%
X114637500Y54500000D03*
X116362500Y54500000D03*
%TD*%
D34*
%TO.C,D27*%
X135500000Y71650000D03*
X135500000Y72350000D03*
%TD*%
D59*
%TO.C,FB2*%
X102000000Y18150000D03*
X102000000Y15850000D03*
%TD*%
D16*
%TO.C,H1*%
X3500000Y76000000D03*
%TD*%
D60*
%TO.C,SW3*%
X71550000Y56750000D03*
X62450000Y56750000D03*
X71550000Y61250000D03*
X62450000Y61250000D03*
%TD*%
D25*
%TO.C,C20*%
X97500000Y17862500D03*
X97500000Y16137500D03*
%TD*%
D38*
%TO.C,C43*%
X21100000Y71137500D03*
X21100000Y72862500D03*
%TD*%
D32*
%TO.C,R34*%
X62250000Y70162500D03*
X62250000Y68337500D03*
%TD*%
D29*
%TO.C,R42*%
X123412500Y59000000D03*
X121587500Y59000000D03*
%TD*%
D49*
%TO.C,C28*%
X92200000Y3940000D03*
X90475000Y3940000D03*
%TD*%
D34*
%TO.C,D2*%
X69000000Y72150000D03*
X69000000Y72850000D03*
%TD*%
D28*
%TO.C,R46*%
X83087500Y35500000D03*
X84912500Y35500000D03*
%TD*%
D61*
%TO.C,Q4*%
X59137500Y62550000D03*
X59137500Y64450000D03*
X56862500Y63500000D03*
%TD*%
D62*
%TO.C,C73*%
X147562500Y44000000D03*
X144437500Y44000000D03*
%TD*%
D20*
%TO.C,R13*%
X102000000Y61587500D03*
X102000000Y63412500D03*
%TD*%
D57*
%TO.C,C67*%
X22462500Y44000000D03*
X24537500Y44000000D03*
%TD*%
D32*
%TO.C,R4*%
X100337500Y6352500D03*
X100337500Y4527500D03*
%TD*%
D49*
%TO.C,C61*%
X96862500Y56500000D03*
X95137500Y56500000D03*
%TD*%
D34*
%TO.C,D23*%
X125500000Y71650000D03*
X125500000Y72350000D03*
%TD*%
D38*
%TO.C,C45*%
X19100000Y71137500D03*
X19100000Y72862500D03*
%TD*%
D34*
%TO.C,D8*%
X70500000Y72150000D03*
X70500000Y72850000D03*
%TD*%
D21*
%TO.C,J9*%
X4500000Y19900000D03*
D22*
X4500000Y40100000D03*
D23*
X2300000Y22400000D03*
X6700000Y22400000D03*
X2300000Y23200000D03*
X6700000Y23200000D03*
X2300000Y24000000D03*
X6700000Y24000000D03*
X2300000Y24800000D03*
X6700000Y24800000D03*
X2300000Y25600000D03*
X6700000Y25600000D03*
X2300000Y26400000D03*
X6700000Y26400000D03*
X2300000Y27200000D03*
X6700000Y27200000D03*
X2300000Y28000000D03*
X6700000Y28000000D03*
X2300000Y28800000D03*
X6700000Y28800000D03*
X2300000Y29600000D03*
X6700000Y29600000D03*
X2300000Y30400000D03*
X6700000Y30400000D03*
X2300000Y31200000D03*
X6700000Y31200000D03*
X2300000Y32000000D03*
X6700000Y32000000D03*
X2300000Y32800000D03*
X6700000Y32800000D03*
X2300000Y33600000D03*
X6700000Y33600000D03*
X2300000Y34400000D03*
X6700000Y34400000D03*
X2300000Y35200000D03*
X6700000Y35200000D03*
X2300000Y36000000D03*
X6700000Y36000000D03*
X2300000Y36800000D03*
X6700000Y36800000D03*
X2300000Y37600000D03*
X6700000Y37600000D03*
%TD*%
D38*
%TO.C,C50*%
X71750000Y68387500D03*
X71750000Y70112500D03*
%TD*%
D63*
%TO.C,D29*%
X148650000Y76500000D03*
X149350000Y76500000D03*
%TD*%
D34*
%TO.C,D16*%
X133000000Y73650000D03*
X133000000Y74350000D03*
%TD*%
%TO.C,D28*%
X138000000Y71650000D03*
X138000000Y72350000D03*
%TD*%
%TO.C,D22*%
X123000000Y71500000D03*
X123000000Y72200000D03*
%TD*%
D29*
%TO.C,R15*%
X33912500Y35000000D03*
X32087500Y35000000D03*
%TD*%
D33*
%TO.C,TP5*%
X42500000Y43000000D03*
%TD*%
D34*
%TO.C,D12*%
X84500000Y67650000D03*
X84500000Y68350000D03*
%TD*%
%TO.C,D25*%
X130500000Y71650000D03*
X130500000Y72350000D03*
%TD*%
D64*
%TO.C,C47*%
X14100000Y75460000D03*
X14100000Y78540000D03*
%TD*%
D20*
%TO.C,R10*%
X99000000Y77587500D03*
X99000000Y79412500D03*
%TD*%
%TO.C,R33*%
X111000000Y77587500D03*
X111000000Y79412500D03*
%TD*%
D29*
%TO.C,R5*%
X92250000Y7940000D03*
X90425000Y7940000D03*
%TD*%
D34*
%TO.C,D19*%
X92500000Y67650000D03*
X92500000Y68350000D03*
%TD*%
%TO.C,D17*%
X130500000Y73650000D03*
X130500000Y74350000D03*
%TD*%
D61*
%TO.C,U10*%
X51637500Y35550000D03*
X51637500Y36500000D03*
X51637500Y37450000D03*
X49362500Y37450000D03*
X49362500Y36500000D03*
X49362500Y35550000D03*
%TD*%
%TO.C,Q3*%
X18637500Y53050000D03*
X18637500Y54950000D03*
X16362500Y54000000D03*
%TD*%
D20*
%TO.C,R40*%
X123000000Y68087500D03*
X123000000Y69912500D03*
%TD*%
D61*
%TO.C,Q2*%
X59137500Y56550000D03*
X59137500Y58450000D03*
X56862500Y57500000D03*
%TD*%
D20*
%TO.C,R36*%
X16100000Y57587500D03*
X16100000Y59412500D03*
%TD*%
D26*
%TO.C,C18*%
X108137500Y54500000D03*
X109862500Y54500000D03*
%TD*%
D25*
%TO.C,C42*%
X21100000Y76862500D03*
X21100000Y75137500D03*
%TD*%
D55*
%TO.C,Y1*%
X110150000Y19500000D03*
X106850000Y19500000D03*
X106850000Y17500000D03*
X110150000Y17500000D03*
%TD*%
D65*
%TO.C,J5*%
X38500000Y85450000D03*
D66*
X37025000Y86975000D03*
X39975000Y86975000D03*
%TD*%
D32*
%TO.C,R26*%
X147500000Y53912500D03*
X147500000Y52087500D03*
%TD*%
D67*
%TO.C,U5*%
X64800000Y38650000D03*
X62500000Y38650000D03*
D68*
X62500000Y32350000D03*
D67*
X60200000Y38650000D03*
%TD*%
D28*
%TO.C,R22*%
X83087500Y33500000D03*
X84912500Y33500000D03*
%TD*%
D20*
%TO.C,R71*%
X82500000Y70087500D03*
X82500000Y71912500D03*
%TD*%
D26*
%TO.C,C14*%
X120637500Y47500000D03*
X122362500Y47500000D03*
%TD*%
D32*
%TO.C,R53*%
X137000000Y69912500D03*
X137000000Y68087500D03*
%TD*%
D69*
%TO.C,U8*%
X26000000Y50250000D03*
X27300000Y50250000D03*
X28600000Y50250000D03*
X29900000Y50250000D03*
X31200000Y50250000D03*
X32500000Y50250000D03*
X33800000Y50250000D03*
X38200000Y50250000D03*
X39500000Y50250000D03*
X40800000Y50250000D03*
X42100000Y50250000D03*
X43400000Y50250000D03*
X44700000Y50250000D03*
X46000000Y50250000D03*
X47300000Y50250000D03*
X48600000Y50250000D03*
X49900000Y50250000D03*
X51200000Y50250000D03*
D70*
X52850000Y56450000D03*
X52850000Y57750000D03*
X52850000Y59050000D03*
X52850000Y60350000D03*
X52850000Y61650000D03*
X52850000Y62950000D03*
X52850000Y64250000D03*
X52850000Y65550000D03*
X52850000Y66850000D03*
X52850000Y68150000D03*
X52850000Y69450000D03*
X52850000Y70750000D03*
X52850000Y72050000D03*
X52850000Y73350000D03*
X52850000Y74650000D03*
X52850000Y75950000D03*
X52850000Y77250000D03*
X52850000Y78550000D03*
D69*
X51200000Y81750000D03*
X49900000Y81750000D03*
X48600000Y81750000D03*
X47300000Y81750000D03*
X46000000Y81750000D03*
X44700000Y81750000D03*
X43400000Y81750000D03*
X42100000Y81750000D03*
X40800000Y81750000D03*
X39500000Y81750000D03*
X38200000Y81750000D03*
X33800000Y81750000D03*
X32500000Y81750000D03*
X31200000Y81750000D03*
X29900000Y81750000D03*
X28600000Y81750000D03*
X27300000Y81750000D03*
X26000000Y81750000D03*
D70*
X24350000Y78550000D03*
X24350000Y77250000D03*
X24350000Y75950000D03*
X24350000Y74650000D03*
X24350000Y73350000D03*
X24350000Y72050000D03*
X24350000Y70750000D03*
X24350000Y69450000D03*
X24350000Y68150000D03*
X24350000Y66850000D03*
X24350000Y65550000D03*
X24350000Y64250000D03*
X24350000Y62950000D03*
X24350000Y61650000D03*
X24350000Y60350000D03*
X24350000Y59050000D03*
X24350000Y57750000D03*
X24350000Y56450000D03*
D71*
X37000000Y68400000D03*
X38600000Y68400000D03*
X40200000Y68400000D03*
X37000000Y66800000D03*
X38600000Y66800000D03*
X40200000Y66800000D03*
X37000000Y65200000D03*
X38600000Y65200000D03*
X40200000Y65200000D03*
X37000000Y63600000D03*
X38600000Y63600000D03*
X40200000Y63600000D03*
D72*
X29000000Y74200000D03*
X33800000Y74200000D03*
X38600000Y74200000D03*
X43400000Y74200000D03*
X48200000Y74200000D03*
X29000000Y71000000D03*
X33800000Y71000000D03*
X38600000Y71000000D03*
X43400000Y71000000D03*
X48200000Y71000000D03*
X29000000Y67600000D03*
X33800000Y67600000D03*
X43400000Y67600000D03*
X48200000Y67600000D03*
X29000000Y64400000D03*
X33800000Y64400000D03*
X43400000Y64400000D03*
X48200000Y64400000D03*
X29000000Y61000000D03*
X33800000Y61000000D03*
X38600000Y61000000D03*
X43400000Y61000000D03*
X48200000Y61000000D03*
X33800000Y57800000D03*
X38600000Y57800000D03*
X43400000Y57800000D03*
X48200000Y57800000D03*
D70*
X24350000Y55150000D03*
X24350000Y53850000D03*
X52850000Y55150000D03*
X52850000Y53850000D03*
D71*
X27600000Y54800000D03*
X29600000Y54800000D03*
X31600000Y54800000D03*
X33600000Y54800000D03*
X35600000Y54800000D03*
X37600000Y54800000D03*
X39600000Y54800000D03*
X41600000Y54800000D03*
X43600000Y54800000D03*
X45600000Y54800000D03*
X47600000Y54800000D03*
X49600000Y54800000D03*
X27600000Y52800000D03*
X29600000Y52800000D03*
X31600000Y52800000D03*
X33600000Y52800000D03*
X35600000Y52800000D03*
X37600000Y52800000D03*
X39600000Y52800000D03*
X41600000Y52800000D03*
X43600000Y52800000D03*
X45600000Y52800000D03*
X47600000Y52800000D03*
X49600000Y52800000D03*
D69*
X35600000Y50250000D03*
X36900000Y50250000D03*
X36900000Y81750000D03*
X35600000Y81750000D03*
%TD*%
D60*
%TO.C,SW1*%
X115550000Y9750000D03*
X106450000Y9750000D03*
X115550000Y14250000D03*
X106450000Y14250000D03*
%TD*%
D34*
%TO.C,D26*%
X133000000Y71650000D03*
X133000000Y72350000D03*
%TD*%
D25*
%TO.C,C65*%
X24000000Y36862500D03*
X24000000Y35137500D03*
%TD*%
D34*
%TO.C,D31*%
X145000000Y76150000D03*
X145000000Y76850000D03*
%TD*%
D73*
%TO.C,FB3*%
X129500000Y48850000D03*
X129500000Y51150000D03*
%TD*%
D29*
%TO.C,R19*%
X108912500Y62500000D03*
X107087500Y62500000D03*
%TD*%
D20*
%TO.C,R8*%
X100337500Y8527500D03*
X100337500Y10352500D03*
%TD*%
D38*
%TO.C,C52*%
X67750000Y68387500D03*
X67750000Y70112500D03*
%TD*%
%TO.C,C24*%
X89500000Y47637500D03*
X89500000Y49362500D03*
%TD*%
%TO.C,C60*%
X89500000Y29637500D03*
X89500000Y31362500D03*
%TD*%
D58*
%TO.C,Q5*%
X18462500Y67450000D03*
X18462500Y65550000D03*
X20737500Y66500000D03*
%TD*%
D49*
%TO.C,C39*%
X138862500Y54500000D03*
X137137500Y54500000D03*
%TD*%
D34*
%TO.C,D30*%
X142500000Y76150000D03*
X142500000Y76850000D03*
%TD*%
D32*
%TO.C,R31*%
X69750000Y70162500D03*
X69750000Y68337500D03*
%TD*%
D74*
%TO.C,D92*%
X12100000Y72450000D03*
X12100000Y69550000D03*
%TD*%
D34*
%TO.C,D20*%
X125500000Y73650000D03*
X125500000Y74350000D03*
%TD*%
D65*
%TO.C,J6*%
X32100000Y85450000D03*
D66*
X30625000Y86975000D03*
X33575000Y86975000D03*
%TD*%
D34*
%TO.C,D21*%
X123000000Y73650000D03*
X123000000Y74350000D03*
%TD*%
D75*
%TO.C,R30*%
X144450000Y41000000D03*
X147550000Y41000000D03*
%TD*%
D76*
%TO.C,U4*%
X99555000Y66525000D03*
X100825000Y66525000D03*
X102095000Y66525000D03*
X103365000Y66525000D03*
X104635000Y66525000D03*
X105905000Y66525000D03*
X107175000Y66525000D03*
X108445000Y66525000D03*
X108445000Y71475000D03*
X107175000Y71475000D03*
X105905000Y71475000D03*
X104635000Y71475000D03*
X103365000Y71475000D03*
X102095000Y71475000D03*
X100825000Y71475000D03*
X99555000Y71475000D03*
%TD*%
D29*
%TO.C,R48*%
X131912500Y44500000D03*
X130087500Y44500000D03*
%TD*%
D49*
%TO.C,C8*%
X101862500Y23500000D03*
X100137500Y23500000D03*
%TD*%
D28*
%TO.C,R2*%
X87587500Y33500000D03*
X89412500Y33500000D03*
%TD*%
D77*
%TO.C,C48*%
X15600000Y72540000D03*
X15600000Y69460000D03*
%TD*%
D29*
%TO.C,R7*%
X92250000Y11940000D03*
X90425000Y11940000D03*
%TD*%
D26*
%TO.C,C23*%
X95137500Y54500000D03*
X96862500Y54500000D03*
%TD*%
D20*
%TO.C,R39*%
X125500000Y68087500D03*
X125500000Y69912500D03*
%TD*%
D26*
%TO.C,C1*%
X114637500Y17000000D03*
X116362500Y17000000D03*
%TD*%
D34*
%TO.C,D14*%
X138000000Y73650000D03*
X138000000Y74350000D03*
%TD*%
D78*
%TO.C,U3*%
X95025000Y9000000D03*
X95025000Y8500000D03*
X95025000Y8000000D03*
X95025000Y7500000D03*
X95025000Y7000000D03*
X97975000Y7000000D03*
X97975000Y7500000D03*
X97975000Y8000000D03*
X97975000Y8500000D03*
X97975000Y9000000D03*
D79*
X96250000Y9550000D03*
X96250000Y6450000D03*
D80*
X96500000Y8000000D03*
D79*
X96750000Y9550000D03*
X96750000Y6450000D03*
%TD*%
D29*
%TO.C,R1*%
X116412500Y19000000D03*
X114587500Y19000000D03*
%TD*%
D32*
%TO.C,R24*%
X147500000Y48412500D03*
X147500000Y46587500D03*
%TD*%
D38*
%TO.C,C15*%
X156000000Y34637500D03*
X156000000Y36362500D03*
%TD*%
D26*
%TO.C,C54*%
X62637500Y72500000D03*
X64362500Y72500000D03*
%TD*%
D34*
%TO.C,D13*%
X94500000Y67650000D03*
X94500000Y68350000D03*
%TD*%
%TO.C,D9*%
X80500000Y67650000D03*
X80500000Y68350000D03*
%TD*%
D38*
%TO.C,C5*%
X140500000Y35637500D03*
X140500000Y37362500D03*
%TD*%
D20*
%TO.C,R20*%
X121412500Y60722500D03*
X121412500Y62547500D03*
%TD*%
D26*
%TO.C,C30*%
X95637500Y11500000D03*
X97362500Y11500000D03*
%TD*%
D57*
%TO.C,C56*%
X44962500Y44000000D03*
X47037500Y44000000D03*
%TD*%
D28*
%TO.C,R49*%
X130087500Y46500000D03*
X131912500Y46500000D03*
%TD*%
D81*
%TO.C,J4*%
X90503800Y86030600D03*
X82528200Y86030600D03*
D82*
X83270200Y75326200D03*
X84370200Y75326200D03*
X85470200Y75326200D03*
X86570200Y75326200D03*
X87670200Y75326200D03*
X88770200Y75326200D03*
X89870200Y75326200D03*
X90970200Y75326200D03*
X92070200Y75326200D03*
D83*
X93488600Y76100000D03*
D84*
X93488600Y85800000D03*
D85*
X78438800Y76100000D03*
D84*
X77663800Y85800000D03*
%TD*%
D25*
%TO.C,C33*%
X46500000Y36862500D03*
X46500000Y35137500D03*
%TD*%
D20*
%TO.C,R41*%
X128000000Y68087500D03*
X128000000Y69912500D03*
%TD*%
D26*
%TO.C,C80*%
X86637500Y72500000D03*
X88362500Y72500000D03*
%TD*%
D34*
%TO.C,D18*%
X128000000Y73650000D03*
X128000000Y74350000D03*
%TD*%
D61*
%TO.C,Q1*%
X18637500Y49050000D03*
X18637500Y50950000D03*
X16362500Y50000000D03*
%TD*%
D34*
%TO.C,D4*%
X67500000Y72150000D03*
X67500000Y72850000D03*
%TD*%
D59*
%TO.C,FB1*%
X10600000Y77150000D03*
X10600000Y74850000D03*
%TD*%
D56*
%TO.C,L2*%
X41500000Y32475000D03*
X41500000Y38525000D03*
%TD*%
D20*
%TO.C,R3*%
X102412500Y8527500D03*
X102412500Y10352500D03*
%TD*%
D57*
%TO.C,C71*%
X62962500Y41500000D03*
X65037500Y41500000D03*
%TD*%
D49*
%TO.C,C51*%
X58862500Y60500000D03*
X57137500Y60500000D03*
%TD*%
D20*
%TO.C,R23*%
X145500000Y50587500D03*
X145500000Y52412500D03*
%TD*%
D38*
%TO.C,C38*%
X132000000Y49137500D03*
X132000000Y50862500D03*
%TD*%
D86*
%TO.C,C25*%
X158500000Y28537500D03*
X158500000Y26462500D03*
%TD*%
D49*
%TO.C,C29*%
X92200000Y9940000D03*
X90475000Y9940000D03*
%TD*%
D29*
%TO.C,R6*%
X92250000Y5940000D03*
X90425000Y5940000D03*
%TD*%
D57*
%TO.C,C55*%
X44962500Y41500000D03*
X47037500Y41500000D03*
%TD*%
D20*
%TO.C,R68*%
X92500000Y70087500D03*
X92500000Y71912500D03*
%TD*%
D25*
%TO.C,C7*%
X138500000Y28362500D03*
X138500000Y26637500D03*
%TD*%
D32*
%TO.C,R9*%
X107000000Y79412500D03*
X107000000Y77587500D03*
%TD*%
D45*
%TO.C,C27*%
X102037500Y21000000D03*
X99962500Y21000000D03*
%TD*%
D86*
%TO.C,C72*%
X56500000Y39037500D03*
X56500000Y36962500D03*
%TD*%
D25*
%TO.C,C40*%
X141000000Y47362500D03*
X141000000Y45637500D03*
%TD*%
D35*
%TO.C,J11*%
X105920000Y4500000D03*
D36*
X108460000Y4500000D03*
X111000000Y4500000D03*
X113540000Y4500000D03*
X116080000Y4500000D03*
%TD*%
D34*
%TO.C,D24*%
X128000000Y71650000D03*
X128000000Y72350000D03*
%TD*%
D57*
%TO.C,C79*%
X86462500Y70000000D03*
X88537500Y70000000D03*
%TD*%
D61*
%TO.C,U9*%
X29137500Y35550000D03*
X29137500Y36500000D03*
X29137500Y37450000D03*
X26862500Y37450000D03*
X26862500Y36500000D03*
X26862500Y35550000D03*
%TD*%
D25*
%TO.C,C13*%
X120500000Y42862500D03*
X120500000Y41137500D03*
%TD*%
D32*
%TO.C,R50*%
X142500000Y74412500D03*
X142500000Y72587500D03*
%TD*%
D87*
%TO.C,SW2*%
X70365000Y52500000D03*
X63635000Y52500000D03*
%TD*%
D32*
%TO.C,R32*%
X109000000Y79412500D03*
X109000000Y77587500D03*
%TD*%
D16*
%TO.C,H4*%
X165500000Y2000000D03*
%TD*%
D49*
%TO.C,C34*%
X118775000Y64635000D03*
X117050000Y64635000D03*
%TD*%
D58*
%TO.C,Q7*%
X18462500Y59450000D03*
X18462500Y57550000D03*
X20737500Y58500000D03*
%TD*%
D34*
%TO.C,D10*%
X78500000Y67650000D03*
X78500000Y68350000D03*
%TD*%
M02*
