G04*
G04 #@! TF.GenerationSoftware,Altium Limited,Altium Designer,22.5.1 (42)*
G04*
G04 Layer_Color=16711935*
%FSLAX44Y44*%
%MOMM*%
G71*
G04*
G04 #@! TF.SameCoordinates,7A6E188A-B59B-493B-9E93-54DEAC03D458*
G04*
G04*
G04 #@! TF.FilePolarity,Positive*
G04*
G01*
G75*
%ADD10C,0.2000*%
D10*
X518500Y413172D02*
Y435294D01*
X507500D02*
X518500D01*
X507500Y413172D02*
Y435294D01*
Y413172D02*
X518500D01*
X1380700Y938700D02*
X1453300D01*
X1380700Y897300D02*
Y938700D01*
Y897300D02*
X1453300D01*
Y938700D01*
X1153200Y939700D02*
X1225800D01*
X1153200Y898300D02*
Y939700D01*
Y898300D02*
X1225800D01*
Y939700D01*
X1044200D02*
X1116800D01*
X1044200Y898300D02*
Y939700D01*
Y898300D02*
X1116800D01*
Y939700D01*
X939650D02*
X1012250D01*
X939650Y898300D02*
Y939700D01*
Y898300D02*
X1012250D01*
Y939700D01*
X823200D02*
X895800D01*
X823200Y898300D02*
Y939700D01*
Y898300D02*
X895800D01*
Y939700D01*
X718700Y938700D02*
X791300D01*
X718700Y897300D02*
Y938700D01*
Y897300D02*
X791300D01*
Y938700D01*
X491200Y939700D02*
X563800D01*
X491200Y898300D02*
Y939700D01*
Y898300D02*
X563800D01*
Y939700D01*
X382200D02*
X454800D01*
X382200Y898300D02*
Y939700D01*
Y898300D02*
X454800D01*
Y939700D01*
X277650D02*
X350250D01*
X277650Y898300D02*
Y939700D01*
Y898300D02*
X350250D01*
Y939700D01*
X161200D02*
X233800D01*
X161200Y898300D02*
Y939700D01*
Y898300D02*
X233800D01*
Y939700D01*
X1545781Y156919D02*
Y191081D01*
X1526219D02*
X1545781D01*
X1526219Y156919D02*
Y191081D01*
Y156919D02*
X1545781D01*
X997500Y424939D02*
X1008500D01*
X997500D02*
Y447061D01*
X1008500D01*
Y424939D02*
Y447061D01*
X963689Y419171D02*
X984311D01*
X963689D02*
Y456829D01*
X984311D01*
Y419171D02*
Y456829D01*
X1012689Y217171D02*
X1033311D01*
X1012689D02*
Y254829D01*
X1033311D01*
Y217171D02*
Y254829D01*
X894500Y423172D02*
X905500D01*
X894500D02*
Y445294D01*
X905500D01*
Y423172D02*
Y445294D01*
X865689Y417171D02*
X886311D01*
X865689D02*
Y454829D01*
X886311D01*
Y417171D02*
Y454829D01*
X915689Y226171D02*
X936311D01*
X915689D02*
Y263829D01*
X936311D01*
Y226171D02*
Y263829D01*
X798500Y419939D02*
X809500D01*
X798500D02*
Y442061D01*
X809500D01*
Y419939D02*
Y442061D01*
X764689Y413171D02*
X785311D01*
X764689D02*
Y450829D01*
X785311D01*
Y413171D02*
Y450829D01*
X818689Y223171D02*
X839311D01*
X818689D02*
Y260829D01*
X839311D01*
Y223171D02*
Y260829D01*
X701500Y420939D02*
X712500D01*
X701500D02*
Y443061D01*
X712500D01*
Y420939D02*
Y443061D01*
X671689Y415017D02*
X692310D01*
X671689D02*
Y452675D01*
X692310D01*
Y415017D02*
Y452675D01*
X722689Y219171D02*
X743311D01*
X722689D02*
Y256829D01*
X743311D01*
Y219171D02*
Y256829D01*
X604500Y401939D02*
X615500D01*
X604500D02*
Y424061D01*
X615500D01*
Y401939D02*
Y424061D01*
X573689Y396171D02*
X594311D01*
X573689D02*
Y433829D01*
X594311D01*
Y396171D02*
Y433829D01*
X624689Y220171D02*
X645310D01*
X624689D02*
Y257829D01*
X645310D01*
Y220171D02*
Y257829D01*
X470689Y407171D02*
X491311D01*
X470689D02*
Y444829D01*
X491311D01*
Y407171D02*
Y444829D01*
X527690Y225171D02*
X548311D01*
X527690D02*
Y262829D01*
X548311D01*
Y225171D02*
Y262829D01*
X1334800Y897300D02*
Y938700D01*
X1262200Y897300D02*
X1334800D01*
X1262200D02*
Y938700D01*
X1334800D01*
X672800Y897300D02*
Y938700D01*
X600200Y897300D02*
X672800D01*
X600200D02*
Y938700D01*
X672800D01*
M02*
