G04*
G04 #@! TF.GenerationSoftware,Altium Limited,Altium Designer,22.5.1 (42)*
G04*
G04 Layer_Color=16711935*
%FSLAX44Y44*%
%MOMM*%
G71*
G04*
G04 #@! TF.SameCoordinates,7A6E188A-B59B-493B-9E93-54DEAC03D458*
G04*
G04*
G04 #@! TF.FilePolarity,Positive*
G04*
G01*
G75*
%ADD10C,0.2000*%
%ADD13C,0.1270*%
%ADD95C,0.1000*%
D10*
X420850Y671418D02*
G03*
X420850Y671418I-1000J0D01*
G01*
X643050D02*
G03*
X643050Y671418I-1000J0D01*
G01*
X1299100Y671700D02*
G03*
X1299100Y671700I-1000J0D01*
G01*
X1978500Y979000D02*
G03*
X1978500Y979000I-1000J0D01*
G01*
X1852700D02*
G03*
X1852700Y979000I-1000J0D01*
G01*
X1728700Y978000D02*
G03*
X1728700Y978000I-1000J0D01*
G01*
X1605600Y979000D02*
G03*
X1605600Y979000I-1000J0D01*
G01*
X531950Y671418D02*
G03*
X531950Y671418I-1000J0D01*
G01*
X309750D02*
G03*
X309750Y671418I-1000J0D01*
G01*
X198650D02*
G03*
X198650Y671418I-1000J0D01*
G01*
X854700Y671700D02*
G03*
X854700Y671700I-1000J0D01*
G01*
X1188000D02*
G03*
X1188000Y671700I-1000J0D01*
G01*
X965800D02*
G03*
X965800Y671700I-1000J0D01*
G01*
X1410200D02*
G03*
X1410200Y671700I-1000J0D01*
G01*
X1076900D02*
G03*
X1076900Y671700I-1000J0D01*
G01*
X754149Y671418D02*
G03*
X754149Y671418I-1000J0D01*
G01*
X1650400Y70000D02*
G03*
X1650400Y70000I-1000J0D01*
G01*
X1944600Y71000D02*
G03*
X1944600Y71000I-1000J0D01*
G01*
D13*
X414400Y763218D02*
X460400D01*
X414400Y698218D02*
X460400D01*
Y763218D01*
X414400Y698218D02*
Y763218D01*
X636600D02*
X682600D01*
X636600Y698218D02*
X682600D01*
Y763218D01*
X636600Y698218D02*
Y763218D01*
X1292650Y763500D02*
X1338650D01*
X1292650Y698500D02*
X1338650D01*
Y763500D01*
X1292650Y698500D02*
Y763500D01*
X1856800Y1015000D02*
X1971000D01*
X1856800Y942000D02*
Y1015000D01*
Y942000D02*
X1971000D01*
Y1015000D01*
X1731000D02*
X1845200D01*
X1731000Y942000D02*
Y1015000D01*
Y942000D02*
X1845200D01*
Y1015000D01*
X1607000Y1014000D02*
X1721200D01*
X1607000Y941000D02*
Y1014000D01*
Y941000D02*
X1721200D01*
Y1014000D01*
X1483900Y1015000D02*
X1598100D01*
X1483900Y942000D02*
Y1015000D01*
Y942000D02*
X1598100D01*
Y1015000D01*
X525500Y763218D02*
X571500D01*
X525500Y698218D02*
X571500D01*
Y763218D01*
X525500Y698218D02*
Y763218D01*
X303300D02*
X349300D01*
X303300Y698218D02*
X349300D01*
Y763218D01*
X303300Y698218D02*
Y763218D01*
X192200D02*
X238200D01*
X192200Y698218D02*
X238200D01*
Y763218D01*
X192200Y698218D02*
Y763218D01*
X848250Y698500D02*
Y763500D01*
X894251Y698500D02*
Y763500D01*
X848250Y698500D02*
X894251D01*
X848250Y763500D02*
X894251D01*
X1181550Y698500D02*
Y763500D01*
X1227550Y698500D02*
Y763500D01*
X1181550Y698500D02*
X1227550D01*
X1181550Y763500D02*
X1227550D01*
X959350Y698500D02*
Y763500D01*
X1005350Y698500D02*
Y763500D01*
X959350Y698500D02*
X1005350D01*
X959350Y763500D02*
X1005350D01*
X1403750Y698500D02*
Y763500D01*
X1449750Y698500D02*
Y763500D01*
X1403750Y698500D02*
X1449750D01*
X1403750Y763500D02*
X1449750D01*
X1070451Y698500D02*
Y763500D01*
X1116450Y698500D02*
Y763500D01*
X1070451Y698500D02*
X1116450D01*
X1070451Y763500D02*
X1116450D01*
X747700Y698218D02*
Y763218D01*
X793700Y698218D02*
Y763218D01*
X747700Y698218D02*
X793700D01*
X747700Y763218D02*
X793700D01*
X1655900Y34000D02*
Y107000D01*
X1770100D01*
Y34000D02*
Y107000D01*
X1655900Y34000D02*
X1770100D01*
X1937100D02*
Y107000D01*
X1822900Y34000D02*
X1937100D01*
X1822900D02*
Y107000D01*
X1937100D01*
D95*
X1504500Y174250D02*
G03*
X1504500Y174250I-5000J0D01*
G01*
X1836750Y397000D02*
G03*
X1836750Y397000I-5000J0D01*
G01*
X1624250D02*
G03*
X1624250Y397000I-5000J0D01*
G01*
X1621250Y63250D02*
Y80750D01*
X1630750Y63250D02*
Y80750D01*
X1621250D02*
X1630750D01*
X1621250Y63250D02*
X1630750D01*
X1584250Y74250D02*
X1601750D01*
X1584250Y83750D02*
X1601750D01*
X1584250Y74250D02*
Y83750D01*
X1601750Y74250D02*
Y83750D01*
X1552250Y63250D02*
Y80750D01*
X1561750Y63250D02*
Y80750D01*
X1552250D02*
X1561750D01*
X1552250Y63250D02*
X1561750D01*
X1523250Y59250D02*
Y76750D01*
X1532750Y59250D02*
Y76750D01*
X1523250D02*
X1532750D01*
X1523250Y59250D02*
X1532750D01*
X1486250Y70250D02*
X1503750D01*
X1486250Y79750D02*
X1503750D01*
X1486250Y70250D02*
Y79750D01*
X1503750Y70250D02*
Y79750D01*
X1457250Y59359D02*
Y76859D01*
X1466750Y59359D02*
Y76859D01*
X1457250D02*
X1466750D01*
X1457250Y59359D02*
X1466750D01*
X814250Y202250D02*
Y211750D01*
X831750Y202250D02*
Y211750D01*
X814250Y202250D02*
X831750D01*
X814250Y211750D02*
X831750D01*
X355750Y199096D02*
Y208596D01*
X338250Y199096D02*
Y208596D01*
Y199096D02*
X355750D01*
X338250Y208596D02*
X355750D01*
X1411250Y647250D02*
X1420750D01*
X1411250Y664750D02*
X1420750D01*
X1411250Y647250D02*
Y664750D01*
X1420750Y647250D02*
Y664750D01*
X854250Y649250D02*
X863750D01*
X854250Y666750D02*
X863750D01*
X854250Y649250D02*
Y666750D01*
X863750Y649250D02*
Y666750D01*
X642250Y648250D02*
X651750D01*
X642250Y665750D02*
X651750D01*
X642250Y648250D02*
Y665750D01*
X651750Y648250D02*
Y665750D01*
X531250Y647250D02*
X540750D01*
X531250Y664750D02*
X540750D01*
X531250Y647250D02*
Y664750D01*
X540750Y647250D02*
Y664750D01*
X420250Y648250D02*
X429750D01*
X420250Y665750D02*
X429750D01*
X420250Y648250D02*
Y665750D01*
X429750Y648250D02*
Y665750D01*
X308250Y648250D02*
X317750D01*
X308250Y665750D02*
X317750D01*
X308250Y648250D02*
Y665750D01*
X317750Y648250D02*
Y665750D01*
X826614Y808750D02*
X847614D01*
X826614Y822250D02*
X847614D01*
Y808750D02*
Y822250D01*
X826614Y808750D02*
Y822250D01*
X938141Y808750D02*
X959141D01*
X938141Y822250D02*
X959141D01*
Y808750D02*
Y822250D01*
X938141Y808750D02*
Y822250D01*
X1049668Y808750D02*
X1070668D01*
X1049668Y822250D02*
X1070668D01*
Y808750D02*
Y822250D01*
X1049668Y808750D02*
Y822250D01*
X1161196Y808750D02*
X1182195D01*
X1161196Y822250D02*
X1182195D01*
Y808750D02*
Y822250D01*
X1161196Y808750D02*
Y822250D01*
X1199877Y824250D02*
X1221877D01*
X1199877Y809750D02*
X1221877D01*
X1199877D02*
Y824250D01*
X1221877Y809750D02*
Y824250D01*
X1272723Y808750D02*
X1293723D01*
X1272723Y822250D02*
X1293723D01*
Y808750D02*
Y822250D01*
X1272723Y808750D02*
Y822250D01*
X502582Y808468D02*
X523581D01*
X502582Y821968D02*
X523581D01*
Y808468D02*
Y821968D01*
X502582Y808468D02*
Y821968D01*
X207500Y823968D02*
X229500D01*
X207500Y809469D02*
X229500D01*
X207500D02*
Y823968D01*
X229500Y809469D02*
Y823968D01*
X168000Y808468D02*
X189000D01*
X168000Y821968D02*
X189000D01*
Y808468D02*
Y821968D01*
X168000Y808468D02*
Y821968D01*
X1477500Y165250D02*
X1508500D01*
X1477500Y196250D02*
X1508500D01*
Y165250D02*
Y196250D01*
X1477500Y165250D02*
Y196250D01*
X1085750Y643250D02*
Y660750D01*
X1076250Y643250D02*
Y660750D01*
X1085750D01*
X1076250Y643250D02*
X1085750D01*
X1196750D02*
Y660750D01*
X1187250Y643250D02*
Y660750D01*
X1196750D01*
X1187250Y643250D02*
X1196750D01*
X206750Y647250D02*
Y664750D01*
X197250Y647250D02*
Y664750D01*
X206750D01*
X197250Y647250D02*
X206750D01*
X1307750D02*
Y664750D01*
X1298250Y647250D02*
Y664750D01*
X1307750D01*
X1298250Y647250D02*
X1307750D01*
X974750D02*
Y664750D01*
X965250Y647250D02*
Y664750D01*
X974750D01*
X965250Y647250D02*
X974750D01*
X762750Y648250D02*
Y665750D01*
X753250Y648250D02*
Y665750D01*
X762750D01*
X753250Y648250D02*
X762750D01*
X1753250Y366000D02*
Y406000D01*
X1840750Y366000D02*
Y406000D01*
X1753250Y366000D02*
X1840750D01*
X1753250Y406000D02*
X1840750D01*
X1540750Y366000D02*
Y406000D01*
X1628250Y366000D02*
Y406000D01*
X1540750Y366000D02*
X1628250D01*
X1540750Y406000D02*
X1628250D01*
X1932750Y381000D02*
X1947250D01*
X1932750Y359000D02*
X1947250D01*
Y381000D01*
X1932750Y359000D02*
Y381000D01*
X1942000Y324750D02*
Y339250D01*
X1920000Y324750D02*
Y339250D01*
Y324750D02*
X1942000D01*
X1920000Y339250D02*
X1942000D01*
X1862750Y381250D02*
X1877250D01*
X1862750Y359250D02*
X1877250D01*
Y381250D01*
X1862750Y359250D02*
Y381250D01*
X1792250Y270250D02*
X1801750D01*
X1792250Y253750D02*
X1801750D01*
Y270250D01*
X1792250Y253750D02*
Y270250D01*
X1727250Y268250D02*
X1736750D01*
X1727250Y251750D02*
X1736750D01*
Y268250D01*
X1727250Y251750D02*
Y268250D01*
X1747250D02*
X1756750D01*
X1747250Y251750D02*
X1756750D01*
Y268250D01*
X1747250Y251750D02*
Y268250D01*
X1792250Y219750D02*
X1801750D01*
X1792250Y236250D02*
X1801750D01*
X1792250Y219750D02*
Y236250D01*
X1801750Y219750D02*
Y236250D01*
X1886250Y270250D02*
X1895750D01*
X1886250Y253750D02*
X1895750D01*
Y270250D01*
X1886250Y253750D02*
Y270250D01*
X1816250D02*
X1825750D01*
X1816250Y253750D02*
X1825750D01*
Y270250D01*
X1816250Y253750D02*
Y270250D01*
X1835250D02*
X1844750D01*
X1835250Y253750D02*
X1844750D01*
Y270250D01*
X1835250Y253750D02*
Y270250D01*
X1886290Y220072D02*
X1895790D01*
X1886290Y236572D02*
X1895790D01*
X1886290Y220072D02*
Y236572D01*
X1895790Y220072D02*
Y236572D01*
X1712750Y400000D02*
X1727250D01*
X1712750Y378000D02*
X1727250D01*
Y400000D01*
X1712750Y378000D02*
Y400000D01*
X1696000Y342750D02*
Y357250D01*
X1674000Y342750D02*
Y357250D01*
Y342750D02*
X1696000D01*
X1674000Y357250D02*
X1696000D01*
X1641750Y400000D02*
X1656250D01*
X1641750Y378000D02*
X1656250D01*
Y400000D01*
X1641750Y378000D02*
Y400000D01*
X887569Y809750D02*
Y824250D01*
X865568Y809750D02*
Y824250D01*
Y809750D02*
X887569D01*
X865568Y824250D02*
X887569D01*
X1333314Y809750D02*
Y824250D01*
X1311314Y809750D02*
Y824250D01*
Y809750D02*
X1333314D01*
X1311314Y824250D02*
X1333314D01*
X999005Y809750D02*
Y824250D01*
X977005Y809750D02*
Y824250D01*
Y809750D02*
X999005D01*
X977005Y824250D02*
X999005D01*
X1444750Y809750D02*
Y824250D01*
X1422750Y809750D02*
Y824250D01*
Y809750D02*
X1444750D01*
X1422750Y824250D02*
X1444750D01*
X1110441Y809750D02*
Y824250D01*
X1088441Y809750D02*
Y824250D01*
Y809750D02*
X1110441D01*
X1088441Y824250D02*
X1110441D01*
X1384250Y808750D02*
Y822250D01*
X1405250Y808750D02*
Y822250D01*
X1384250D02*
X1405250D01*
X1384250Y808750D02*
X1405250D01*
X563809Y809469D02*
Y823968D01*
X541809Y809469D02*
Y823968D01*
Y809469D02*
X563809D01*
X541809Y823968D02*
X563809D01*
X675245Y809469D02*
Y823968D01*
X653245Y809469D02*
Y823968D01*
Y809469D02*
X675245D01*
X653245Y823968D02*
X675245D01*
X340936Y809469D02*
Y823968D01*
X318936Y809469D02*
Y823968D01*
Y809469D02*
X340936D01*
X318936Y823968D02*
X340936D01*
X614109Y808468D02*
Y821968D01*
X635109Y808468D02*
Y821968D01*
X614109D02*
X635109D01*
X614109Y808468D02*
X635109D01*
X279527D02*
Y821968D01*
X300527Y808468D02*
Y821968D01*
X279527D02*
X300527D01*
X279527Y808468D02*
X300527D01*
X786681Y809469D02*
Y823968D01*
X764681Y809469D02*
Y823968D01*
Y809469D02*
X786681D01*
X764681Y823968D02*
X786681D01*
X452373Y809469D02*
Y823968D01*
X430373Y809469D02*
Y823968D01*
Y809469D02*
X452373D01*
X430373Y823968D02*
X452373D01*
X725636Y808468D02*
Y821968D01*
X746636Y808468D02*
Y821968D01*
X725636D02*
X746636D01*
X725636Y808468D02*
X746636D01*
X391054D02*
Y821968D01*
X412054Y808468D02*
Y821968D01*
X391054D02*
X412054D01*
X391054Y808468D02*
X412054D01*
X1402900Y169500D02*
X1411900D01*
X1402900Y186500D02*
X1411900D01*
X1402900Y169500D02*
Y186500D01*
X1411900Y169500D02*
Y186500D01*
X1307900Y170500D02*
X1316900D01*
X1307900Y187500D02*
X1316900D01*
X1307900Y170500D02*
Y187500D01*
X1316900Y170500D02*
Y187500D01*
X1210900Y175500D02*
X1219900D01*
X1210900Y192500D02*
X1219900D01*
X1210900Y175500D02*
Y192500D01*
X1219900Y175500D02*
Y192500D01*
X1112900Y178500D02*
X1121900D01*
X1112900Y195500D02*
X1121900D01*
X1112900Y178500D02*
Y195500D01*
X1121900Y178500D02*
Y195500D01*
X1016900Y177500D02*
X1025900D01*
X1016900Y194500D02*
X1025900D01*
X1016900Y177500D02*
Y194500D01*
X1025900Y177500D02*
Y194500D01*
X918900Y173500D02*
X927900D01*
X918900Y190500D02*
X927900D01*
X918900Y173500D02*
Y190500D01*
X927900Y173500D02*
Y190500D01*
X1018500Y169500D02*
X1027500D01*
X1018500Y186500D02*
X1027500D01*
Y169500D02*
Y186500D01*
X1018500Y169500D02*
Y186500D01*
X921500Y170500D02*
X930500D01*
X921500Y187500D02*
X930500D01*
Y170500D02*
Y187500D01*
X921500Y170500D02*
Y187500D01*
X825500Y177500D02*
X834500D01*
X825500Y194500D02*
X834500D01*
Y177500D02*
Y194500D01*
X825500Y177500D02*
Y194500D01*
X728500Y176500D02*
X737500D01*
X728500Y193500D02*
X737500D01*
Y176500D02*
Y193500D01*
X728500Y176500D02*
Y193500D01*
X630500Y175500D02*
X639500D01*
X630500Y192500D02*
X639500D01*
Y175500D02*
Y192500D01*
X630500Y175500D02*
Y192500D01*
X533500Y176500D02*
X542500D01*
X533500Y193500D02*
X542500D01*
Y176500D02*
Y193500D01*
X533500Y176500D02*
Y193500D01*
X527500Y168346D02*
X536500D01*
X527500Y185346D02*
X536500D01*
X527500Y168346D02*
Y185346D01*
X536500Y168346D02*
Y185346D01*
X432500Y169346D02*
X441500D01*
X432500Y186346D02*
X441500D01*
X432500Y169346D02*
Y186346D01*
X441500Y169346D02*
Y186346D01*
X335500Y174346D02*
X344500D01*
X335500Y191346D02*
X344500D01*
X335500Y174346D02*
Y191346D01*
X344500Y174346D02*
Y191346D01*
X237500Y177346D02*
X246500D01*
X237500Y194346D02*
X246500D01*
X237500Y177346D02*
Y194346D01*
X246500Y177346D02*
Y194346D01*
X141500Y176346D02*
X150500D01*
X141500Y193346D02*
X150500D01*
X141500Y176346D02*
Y193346D01*
X150500Y176346D02*
Y193346D01*
X43500Y172346D02*
X52500D01*
X43500Y189346D02*
X52500D01*
X43500Y172346D02*
Y189346D01*
X52500Y172346D02*
Y189346D01*
X1511500Y191400D02*
Y220600D01*
X1498500Y191400D02*
Y220600D01*
Y191400D02*
X1511500D01*
X1498500Y220600D02*
X1511500D01*
X1663500Y177400D02*
Y206600D01*
X1650500Y177400D02*
Y206600D01*
Y177400D02*
X1663500D01*
X1650500Y206600D02*
X1663500D01*
X910562Y1010424D02*
X912345Y1011923D01*
X909275Y1010424D02*
X910562D01*
X912347Y1011923D02*
X914975D01*
X807675Y936655D02*
X909275D01*
X807675Y1017654D02*
X909275D01*
Y936655D02*
Y1017654D01*
X807675Y936655D02*
Y1017654D01*
X914975Y1004786D02*
Y1011923D01*
X914974Y1004785D02*
X914975Y1004786D01*
X912346Y1004785D02*
X914976D01*
X909275Y1006284D02*
X910562D01*
X912345Y1004783D01*
X1240577Y1010424D02*
X1242360Y1011923D01*
X1239291Y1010424D02*
X1240577D01*
X1242362Y1011923D02*
X1244990D01*
X1137691Y936655D02*
X1239291D01*
X1137691Y1017654D02*
X1239291D01*
Y936655D02*
Y1017654D01*
X1137691Y936655D02*
Y1017654D01*
X1244990Y1004786D02*
Y1011923D01*
X1244989Y1004785D02*
X1244990Y1004786D01*
X1242361Y1004785D02*
X1244991D01*
X1239291Y1006284D02*
X1240577D01*
X1242360Y1004783D01*
X1350582Y1010424D02*
X1352365Y1011923D01*
X1349296Y1010424D02*
X1350582D01*
X1352367Y1011923D02*
X1354995D01*
X1247696Y936655D02*
X1349296D01*
X1247696Y1017654D02*
X1349296D01*
Y936655D02*
Y1017654D01*
X1247696Y936655D02*
Y1017654D01*
X1354995Y1004786D02*
Y1011923D01*
X1354995Y1004785D02*
X1354995Y1004786D01*
X1352367Y1004785D02*
X1354996D01*
X1349296Y1006284D02*
X1350582D01*
X1352365Y1004783D01*
X1020567Y1010424D02*
X1022350Y1011923D01*
X1019281Y1010424D02*
X1020567D01*
X1022352Y1011923D02*
X1024980D01*
X917681Y936655D02*
X1019281D01*
X917681Y1017654D02*
X1019281D01*
Y936655D02*
Y1017654D01*
X917681Y936655D02*
Y1017654D01*
X1024980Y1004786D02*
Y1011923D01*
X1024979Y1004785D02*
X1024980Y1004786D01*
X1022352Y1004785D02*
X1024981D01*
X1019281Y1006284D02*
X1020567D01*
X1022350Y1004783D01*
X1460587Y1010424D02*
X1462370Y1011923D01*
X1459301Y1010424D02*
X1460587D01*
X1462372Y1011923D02*
X1465000D01*
X1357701Y936655D02*
X1459301D01*
X1357701Y1017654D02*
X1459301D01*
Y936655D02*
Y1017654D01*
X1357701Y936655D02*
Y1017654D01*
X1465000Y1004786D02*
Y1011923D01*
X1464999Y1004785D02*
X1465000Y1004786D01*
X1462372Y1004785D02*
X1465001D01*
X1459301Y1006284D02*
X1460587D01*
X1462370Y1004783D01*
X1130572Y1010424D02*
X1132355Y1011923D01*
X1129286Y1010424D02*
X1130572D01*
X1132357Y1011923D02*
X1134985D01*
X1027685Y936655D02*
X1129286D01*
X1027685Y1017654D02*
X1129286D01*
Y936655D02*
Y1017654D01*
X1027685Y936655D02*
Y1017654D01*
X1134985Y1004786D02*
Y1011923D01*
X1134984Y1004785D02*
X1134985Y1004786D01*
X1132356Y1004785D02*
X1134986D01*
X1129286Y1006284D02*
X1130572D01*
X1132355Y1004783D01*
X138557Y1010424D02*
X140340Y1011923D01*
X137270Y1010424D02*
X138557D01*
X140342Y1011923D02*
X142970D01*
X35670Y936655D02*
X137270D01*
X35670Y1017654D02*
X137270D01*
Y936655D02*
Y1017654D01*
X35670Y936655D02*
Y1017654D01*
X142970Y1004786D02*
Y1011923D01*
X142969Y1004785D02*
X142970Y1004786D01*
X140341Y1004785D02*
X142971D01*
X137270Y1006284D02*
X138557D01*
X140340Y1004783D01*
X248562Y1010424D02*
X250345Y1011923D01*
X247276Y1010424D02*
X248562D01*
X250347Y1011923D02*
X252975D01*
X145676Y936655D02*
X247276D01*
X145676Y1017654D02*
X247276D01*
Y936655D02*
Y1017654D01*
X145676Y936655D02*
Y1017654D01*
X252975Y1004786D02*
Y1011923D01*
X252974Y1004785D02*
X252975Y1004786D01*
X250347Y1004785D02*
X252976D01*
X247276Y1006284D02*
X248562D01*
X250345Y1004783D01*
X578577Y1010424D02*
X580360Y1011923D01*
X577291Y1010424D02*
X578577D01*
X580362Y1011923D02*
X582990D01*
X475691Y936655D02*
X577291D01*
X475691Y1017654D02*
X577291D01*
Y936655D02*
Y1017654D01*
X475691Y936655D02*
Y1017654D01*
X582990Y1004786D02*
Y1011923D01*
X582989Y1004785D02*
X582990Y1004786D01*
X580362Y1004785D02*
X582991D01*
X577291Y1006284D02*
X578577D01*
X580360Y1004783D01*
X688582Y1010424D02*
X690365Y1011923D01*
X687296Y1010424D02*
X688582D01*
X690367Y1011923D02*
X692995D01*
X585696Y936655D02*
X687296D01*
X585696Y1017654D02*
X687296D01*
Y936655D02*
Y1017654D01*
X585696Y936655D02*
Y1017654D01*
X692995Y1004786D02*
Y1011923D01*
X692994Y1004785D02*
X692995Y1004786D01*
X690366Y1004785D02*
X692996D01*
X687296Y1006284D02*
X688582D01*
X690365Y1004783D01*
X358567Y1010424D02*
X360350Y1011923D01*
X357281Y1010424D02*
X358567D01*
X360352Y1011923D02*
X362980D01*
X255681Y936655D02*
X357281D01*
X255681Y1017654D02*
X357281D01*
Y936655D02*
Y1017654D01*
X255681Y936655D02*
Y1017654D01*
X362980Y1004786D02*
Y1011923D01*
X362979Y1004785D02*
X362980Y1004786D01*
X360351Y1004785D02*
X362981D01*
X357281Y1006284D02*
X358567D01*
X360350Y1004783D01*
X798588Y1010424D02*
X800370Y1011923D01*
X797301Y1010424D02*
X798588D01*
X800372Y1011923D02*
X803000D01*
X695701Y936655D02*
X797301D01*
X695701Y1017654D02*
X797301D01*
Y936655D02*
Y1017654D01*
X695701Y936655D02*
Y1017654D01*
X803000Y1004786D02*
Y1011923D01*
X802999Y1004785D02*
X803000Y1004786D01*
X800372Y1004785D02*
X803001D01*
X797301Y1006284D02*
X798588D01*
X800370Y1004783D01*
X468572Y1010424D02*
X470355Y1011923D01*
X467286Y1010424D02*
X468572D01*
X470357Y1011923D02*
X472985D01*
X365686Y936655D02*
X467286D01*
X365686Y1017654D02*
X467286D01*
Y936655D02*
Y1017654D01*
X365686Y936655D02*
Y1017654D01*
X472985Y1004786D02*
Y1011923D01*
X472984Y1004785D02*
X472985Y1004786D01*
X470356Y1004785D02*
X472986D01*
X467286Y1006284D02*
X468572D01*
X470355Y1004783D01*
X1332530Y34230D02*
X1334312Y35729D01*
X1335599D01*
X1329900Y34230D02*
X1332528D01*
X1335599Y109498D02*
X1437199D01*
X1335599Y28499D02*
X1437199D01*
X1335599D02*
Y109498D01*
X1437199Y28499D02*
Y109498D01*
X1329900Y34230D02*
Y41368D01*
X1329901Y41368D01*
X1329899D02*
X1332528D01*
X1334312Y39868D02*
X1335599D01*
X1332530Y41370D02*
X1334312Y39868D01*
X1222490Y34230D02*
X1224272Y35729D01*
X1225559D01*
X1219860Y34230D02*
X1222488D01*
X1225559Y109498D02*
X1327159D01*
X1225559Y28499D02*
X1327159D01*
X1225559D02*
Y109498D01*
X1327159Y28499D02*
Y109498D01*
X1219860Y34230D02*
Y41368D01*
X1219860Y41368D01*
X1219859D02*
X1222488D01*
X1224272Y39868D02*
X1225559D01*
X1222490Y41370D02*
X1224272Y39868D01*
X1112450Y34230D02*
X1114232Y35729D01*
X1115519D01*
X1109820Y34230D02*
X1112448D01*
X1115519Y109498D02*
X1217119D01*
X1115519Y28499D02*
X1217119D01*
X1115519D02*
Y109498D01*
X1217119Y28499D02*
Y109498D01*
X1109820Y34230D02*
Y41368D01*
X1109820Y41368D01*
X1109819D02*
X1112448D01*
X1114232Y39868D02*
X1115519D01*
X1112450Y41370D02*
X1114232Y39868D01*
X1002410Y34460D02*
X1004193Y35959D01*
X1005479D01*
X999780Y34460D02*
X1002407D01*
X1005479Y109728D02*
X1107079D01*
X1005479Y28729D02*
X1107079D01*
X1005479D02*
Y109728D01*
X1107079Y28729D02*
Y109728D01*
X999780Y34460D02*
Y41597D01*
X999781Y41598D01*
X999779D02*
X1002409D01*
X1004193Y40099D02*
X1005479D01*
X1002410Y41600D02*
X1004193Y40099D01*
X896130Y34230D02*
X897912Y35729D01*
X899199D01*
X893500Y34230D02*
X896128D01*
X899199Y109498D02*
X1000799D01*
X899199Y28499D02*
X1000799D01*
X899199D02*
Y109498D01*
X1000799Y28499D02*
Y109498D01*
X893500Y34230D02*
Y41368D01*
X893500Y41368D01*
X893499D02*
X896128D01*
X897912Y39868D02*
X899199D01*
X896130Y41370D02*
X897912Y39868D01*
X786090Y34230D02*
X787872Y35729D01*
X789159D01*
X783460Y34230D02*
X786087D01*
X789159Y109498D02*
X890759D01*
X789159Y28499D02*
X890759D01*
X789159D02*
Y109498D01*
X890759Y28499D02*
Y109498D01*
X783460Y34230D02*
Y41368D01*
X783460Y41368D01*
X783459D02*
X786088D01*
X787872Y39868D02*
X789159D01*
X786090Y41370D02*
X787872Y39868D01*
X676050Y34230D02*
X677832Y35729D01*
X679119D01*
X673419Y34230D02*
X676047D01*
X679119Y109498D02*
X780719D01*
X679119Y28499D02*
X780719D01*
X679119D02*
Y109498D01*
X780719Y28499D02*
Y109498D01*
X673419Y34230D02*
Y41368D01*
X673420Y41368D01*
X673419D02*
X676048D01*
X677832Y39868D02*
X679119D01*
X676050Y41370D02*
X677832Y39868D01*
X566010Y34460D02*
X567793Y35959D01*
X569079D01*
X563380Y34460D02*
X566007D01*
X569079Y109728D02*
X670679D01*
X569079Y28729D02*
X670679D01*
X569079D02*
Y109728D01*
X670679Y28729D02*
Y109728D01*
X563380Y34460D02*
Y41597D01*
X563381Y41598D01*
X563379D02*
X566008D01*
X567793Y40099D02*
X569079D01*
X566010Y41600D02*
X567793Y40099D01*
X457130Y33076D02*
X458913Y34575D01*
X460199D01*
X454500Y33076D02*
X457128D01*
X460199Y108345D02*
X561799D01*
X460199Y27345D02*
X561799D01*
X460199D02*
Y108345D01*
X561799Y27345D02*
Y108345D01*
X454500Y33076D02*
Y40213D01*
X454501Y40214D01*
X454499D02*
X457128D01*
X458913Y38715D02*
X460199D01*
X457130Y40216D02*
X458913Y38715D01*
X347090Y33076D02*
X348873Y34575D01*
X350159D01*
X344460Y33076D02*
X347087D01*
X350159Y108345D02*
X451759D01*
X350159Y27345D02*
X451759D01*
X350159D02*
Y108345D01*
X451759Y27345D02*
Y108345D01*
X344460Y33076D02*
Y40213D01*
X344461Y40214D01*
X344459D02*
X347089D01*
X348873Y38715D02*
X350159D01*
X347090Y40216D02*
X348873Y38715D01*
X237050Y33076D02*
X238833Y34575D01*
X240119D01*
X234420Y33076D02*
X237048D01*
X240119Y108345D02*
X341719D01*
X240119Y27345D02*
X341719D01*
X240119D02*
Y108345D01*
X341719Y27345D02*
Y108345D01*
X234420Y33076D02*
Y40213D01*
X234421Y40214D01*
X234419D02*
X237048D01*
X238833Y38715D02*
X240119D01*
X237050Y40216D02*
X238833Y38715D01*
X127010Y33306D02*
X128793Y34805D01*
X130079D01*
X124380Y33306D02*
X127008D01*
X130079Y108575D02*
X231679D01*
X130079Y27575D02*
X231679D01*
X130079D02*
Y108575D01*
X231679Y27575D02*
Y108575D01*
X124380Y33306D02*
Y40443D01*
X124381Y40444D01*
X124379D02*
X127009D01*
X128793Y38944D02*
X130079D01*
X127010Y40446D02*
X128793Y38944D01*
X1538250Y277500D02*
X1551750D01*
X1538250Y256500D02*
X1551750D01*
Y277500D01*
X1538250Y256500D02*
Y277500D01*
X1631250Y252500D02*
X1644750D01*
X1631250Y231500D02*
X1644750D01*
Y252500D01*
X1631250Y231500D02*
Y252500D01*
X1684500Y730500D02*
X1693500D01*
X1684500Y747500D02*
X1693500D01*
X1684500Y730500D02*
Y747500D01*
X1693500Y730500D02*
Y747500D01*
X1929945Y729250D02*
X1938946D01*
X1929945Y746250D02*
X1938946D01*
X1929945Y729250D02*
Y746250D01*
X1938946Y729250D02*
Y746250D01*
X1627500Y826500D02*
X1636500D01*
X1627500Y843500D02*
X1636500D01*
X1627500Y826500D02*
Y843500D01*
X1636500Y826500D02*
Y843500D01*
X1879500Y830500D02*
X1888500D01*
X1879500Y847500D02*
X1888500D01*
X1879500Y830500D02*
Y847500D01*
X1888500Y830500D02*
Y847500D01*
X1799500Y730500D02*
X1808500D01*
X1799500Y747500D02*
X1808500D01*
X1799500Y730500D02*
Y747500D01*
X1808500Y730500D02*
Y747500D01*
X1566250Y730250D02*
X1575250D01*
X1566250Y747250D02*
X1575250D01*
X1566250Y730250D02*
Y747250D01*
X1575250Y730250D02*
Y747250D01*
X1746500Y831500D02*
X1755500D01*
X1746500Y848500D02*
X1755500D01*
X1746500Y831500D02*
Y848500D01*
X1755500Y831500D02*
Y848500D01*
X1512250Y828250D02*
X1521250D01*
X1512250Y845250D02*
X1521250D01*
X1512250Y828250D02*
Y845250D01*
X1521250Y828250D02*
Y845250D01*
X1406650Y203750D02*
X1424150D01*
X1406650Y194250D02*
X1424150D01*
X1406650D02*
Y203750D01*
X1424150Y194250D02*
Y203750D01*
X1310650Y214750D02*
X1328150D01*
X1310650Y205250D02*
X1328150D01*
X1310650D02*
Y214750D01*
X1328150Y205250D02*
Y214750D01*
X1213650Y209750D02*
X1231150D01*
X1213650Y200250D02*
X1231150D01*
X1213650D02*
Y209750D01*
X1231150Y200250D02*
Y209750D01*
X1115650Y212750D02*
X1133150D01*
X1115650Y203250D02*
X1133150D01*
X1115650D02*
Y212750D01*
X1133150Y203250D02*
Y212750D01*
X1019650Y214750D02*
X1037150D01*
X1019650Y205250D02*
X1037150D01*
X1019650D02*
Y214750D01*
X1037150Y205250D02*
Y214750D01*
X921650Y210750D02*
X939150D01*
X921650Y201250D02*
X939150D01*
X921650D02*
Y210750D01*
X939150Y201250D02*
Y210750D01*
X1007250Y207750D02*
X1024750D01*
X1007250Y198250D02*
X1024750D01*
Y207750D01*
X1007250Y198250D02*
Y207750D01*
X910250Y213750D02*
X927750D01*
X910250Y204250D02*
X927750D01*
Y213750D01*
X910250Y204250D02*
Y213750D01*
X717250Y210750D02*
X734750D01*
X717250Y201250D02*
X734750D01*
Y210750D01*
X717250Y201250D02*
Y210750D01*
X620250Y212750D02*
X637750D01*
X620250Y203250D02*
X637750D01*
Y212750D01*
X620250Y203250D02*
Y212750D01*
X522250Y210750D02*
X539750D01*
X522250Y201250D02*
X539750D01*
Y210750D01*
X522250Y201250D02*
Y210750D01*
X531250Y202596D02*
X548750D01*
X531250Y193096D02*
X548750D01*
X531250D02*
Y202596D01*
X548750Y193096D02*
Y202596D01*
X435250Y213596D02*
X452750D01*
X435250Y204096D02*
X452750D01*
X435250D02*
Y213596D01*
X452750Y204096D02*
Y213596D01*
X240250Y211596D02*
X257750D01*
X240250Y202096D02*
X257750D01*
X240250D02*
Y211596D01*
X257750Y202096D02*
Y211596D01*
X144250Y213596D02*
X161750D01*
X144250Y204096D02*
X161750D01*
X144250D02*
Y213596D01*
X161750Y204096D02*
Y213596D01*
X46250Y209596D02*
X63750D01*
X46250Y200096D02*
X63750D01*
X46250D02*
Y209596D01*
X63750Y200096D02*
Y209596D01*
M02*
