G04*
G04 #@! TF.GenerationSoftware,Altium Limited,Altium Designer,22.5.1 (42)*
G04*
G04 Layer_Color=32896*
%FSLAX44Y44*%
%MOMM*%
G71*
G04*
G04 #@! TF.SameCoordinates,7A6E188A-B59B-493B-9E93-54DEAC03D458*
G04*
G04*
G04 #@! TF.FilePolarity,Positive*
G04*
G01*
G75*
G36*
X1595843Y81066D02*
X1595937Y81054D01*
X1596054Y81043D01*
X1596183Y81019D01*
X1596313Y80996D01*
X1596618Y80914D01*
X1596923Y80796D01*
X1597075Y80726D01*
X1597228Y80644D01*
X1597369Y80538D01*
X1597498Y80421D01*
X1597509Y80409D01*
X1597533Y80397D01*
X1597556Y80350D01*
X1597603Y80303D01*
X1597662Y80245D01*
X1597721Y80162D01*
X1597779Y80080D01*
X1597850Y79975D01*
X1597967Y79752D01*
X1598085Y79470D01*
X1598131Y79329D01*
X1598155Y79165D01*
X1598178Y79001D01*
X1598190Y78825D01*
Y78801D01*
Y78743D01*
X1598178Y78649D01*
X1598167Y78520D01*
X1598143Y78379D01*
X1598096Y78215D01*
X1598049Y78039D01*
X1597979Y77863D01*
X1597967Y77839D01*
X1597944Y77780D01*
X1597897Y77687D01*
X1597826Y77557D01*
X1597732Y77417D01*
X1597615Y77241D01*
X1597474Y77064D01*
X1597310Y76865D01*
X1597287Y76842D01*
X1597228Y76771D01*
X1597169Y76712D01*
X1597110Y76654D01*
X1597040Y76583D01*
X1596946Y76490D01*
X1596852Y76396D01*
X1596735Y76290D01*
X1596618Y76173D01*
X1596477Y76044D01*
X1596324Y75915D01*
X1596160Y75762D01*
X1595972Y75609D01*
X1595784Y75445D01*
X1595773Y75433D01*
X1595749Y75410D01*
X1595702Y75375D01*
X1595644Y75328D01*
X1595573Y75257D01*
X1595491Y75187D01*
X1595303Y75034D01*
X1595104Y74858D01*
X1594916Y74682D01*
X1594752Y74530D01*
X1594681Y74471D01*
X1594623Y74412D01*
X1594611Y74401D01*
X1594576Y74366D01*
X1594529Y74319D01*
X1594470Y74248D01*
X1594411Y74166D01*
X1594341Y74084D01*
X1594200Y73884D01*
X1598202D01*
Y72922D01*
X1592816D01*
Y72934D01*
Y72981D01*
Y73051D01*
X1592827Y73145D01*
X1592839Y73251D01*
X1592863Y73368D01*
X1592886Y73485D01*
X1592933Y73615D01*
Y73626D01*
X1592945Y73638D01*
X1592968Y73708D01*
X1593015Y73814D01*
X1593085Y73955D01*
X1593179Y74119D01*
X1593297Y74307D01*
X1593426Y74495D01*
X1593590Y74694D01*
Y74706D01*
X1593613Y74718D01*
X1593672Y74788D01*
X1593778Y74894D01*
X1593930Y75046D01*
X1594106Y75222D01*
X1594329Y75433D01*
X1594599Y75668D01*
X1594893Y75915D01*
X1594904Y75926D01*
X1594951Y75961D01*
X1595022Y76020D01*
X1595104Y76091D01*
X1595210Y76184D01*
X1595338Y76290D01*
X1595468Y76407D01*
X1595620Y76536D01*
X1595914Y76818D01*
X1596207Y77100D01*
X1596348Y77241D01*
X1596477Y77381D01*
X1596594Y77510D01*
X1596688Y77639D01*
Y77651D01*
X1596711Y77663D01*
X1596735Y77698D01*
X1596759Y77745D01*
X1596841Y77874D01*
X1596935Y78027D01*
X1597017Y78215D01*
X1597099Y78414D01*
X1597146Y78637D01*
X1597169Y78848D01*
Y78860D01*
Y78872D01*
X1597157Y78942D01*
X1597146Y79060D01*
X1597110Y79188D01*
X1597064Y79353D01*
X1596981Y79517D01*
X1596876Y79681D01*
X1596735Y79846D01*
X1596711Y79869D01*
X1596653Y79916D01*
X1596571Y79975D01*
X1596442Y80057D01*
X1596277Y80127D01*
X1596090Y80198D01*
X1595867Y80245D01*
X1595620Y80256D01*
X1595550D01*
X1595503Y80245D01*
X1595362Y80233D01*
X1595198Y80198D01*
X1595022Y80151D01*
X1594822Y80069D01*
X1594635Y79963D01*
X1594458Y79822D01*
X1594435Y79799D01*
X1594388Y79740D01*
X1594318Y79646D01*
X1594247Y79505D01*
X1594165Y79341D01*
X1594095Y79130D01*
X1594048Y78895D01*
X1594024Y78625D01*
X1593003Y78731D01*
Y78743D01*
X1593015Y78778D01*
Y78836D01*
X1593027Y78919D01*
X1593050Y79012D01*
X1593074Y79118D01*
X1593109Y79247D01*
X1593144Y79376D01*
X1593238Y79658D01*
X1593379Y79940D01*
X1593461Y80080D01*
X1593567Y80221D01*
X1593672Y80350D01*
X1593790Y80468D01*
X1593801Y80479D01*
X1593825Y80491D01*
X1593860Y80526D01*
X1593919Y80562D01*
X1593989Y80608D01*
X1594071Y80655D01*
X1594165Y80714D01*
X1594282Y80773D01*
X1594411Y80831D01*
X1594552Y80890D01*
X1594705Y80937D01*
X1594869Y80984D01*
X1595045Y81019D01*
X1595233Y81054D01*
X1595432Y81066D01*
X1595644Y81078D01*
X1595761D01*
X1595843Y81066D01*
D02*
G37*
G36*
X1589307Y81031D02*
X1589506Y81019D01*
X1589718Y81007D01*
X1589917Y80984D01*
X1590093Y80961D01*
X1590117D01*
X1590199Y80937D01*
X1590304Y80914D01*
X1590445Y80878D01*
X1590598Y80820D01*
X1590762Y80749D01*
X1590938Y80667D01*
X1591091Y80573D01*
X1591114Y80562D01*
X1591161Y80526D01*
X1591231Y80456D01*
X1591325Y80374D01*
X1591431Y80268D01*
X1591537Y80127D01*
X1591654Y79975D01*
X1591748Y79799D01*
X1591759Y79775D01*
X1591783Y79717D01*
X1591830Y79611D01*
X1591877Y79470D01*
X1591912Y79306D01*
X1591959Y79118D01*
X1591982Y78907D01*
X1591994Y78684D01*
Y78672D01*
Y78637D01*
Y78590D01*
X1591982Y78508D01*
X1591971Y78426D01*
X1591959Y78320D01*
X1591935Y78203D01*
X1591912Y78074D01*
X1591830Y77804D01*
X1591783Y77663D01*
X1591712Y77510D01*
X1591630Y77358D01*
X1591548Y77217D01*
X1591443Y77076D01*
X1591325Y76936D01*
X1591313Y76924D01*
X1591290Y76900D01*
X1591255Y76865D01*
X1591196Y76830D01*
X1591126Y76771D01*
X1591032Y76712D01*
X1590914Y76642D01*
X1590785Y76583D01*
X1590633Y76513D01*
X1590457Y76443D01*
X1590269Y76384D01*
X1590046Y76337D01*
X1589812Y76290D01*
X1589553Y76255D01*
X1589260Y76231D01*
X1588955Y76220D01*
X1586878D01*
Y72922D01*
X1585798D01*
Y81043D01*
X1589131D01*
X1589307Y81031D01*
D02*
G37*
G36*
X1499797Y72027D02*
X1498799D01*
Y78375D01*
X1498787Y78363D01*
X1498729Y78316D01*
X1498658Y78246D01*
X1498541Y78164D01*
X1498412Y78058D01*
X1498248Y77941D01*
X1498060Y77812D01*
X1497849Y77683D01*
X1497837D01*
X1497825Y77671D01*
X1497755Y77624D01*
X1497637Y77565D01*
X1497497Y77495D01*
X1497332Y77413D01*
X1497156Y77331D01*
X1496980Y77249D01*
X1496804Y77178D01*
Y78140D01*
X1496816D01*
X1496839Y78164D01*
X1496886Y78176D01*
X1496945Y78211D01*
X1497015Y78246D01*
X1497098Y78293D01*
X1497297Y78410D01*
X1497532Y78539D01*
X1497767Y78704D01*
X1498013Y78891D01*
X1498259Y79091D01*
X1498271Y79103D01*
X1498283Y79114D01*
X1498318Y79149D01*
X1498365Y79185D01*
X1498471Y79302D01*
X1498611Y79443D01*
X1498752Y79607D01*
X1498905Y79795D01*
X1499034Y79983D01*
X1499151Y80182D01*
X1499797D01*
Y72027D01*
D02*
G37*
G36*
X1492392Y80135D02*
X1492591Y80124D01*
X1492803Y80112D01*
X1493002Y80088D01*
X1493178Y80065D01*
X1493202D01*
X1493284Y80041D01*
X1493389Y80018D01*
X1493530Y79983D01*
X1493683Y79924D01*
X1493847Y79854D01*
X1494023Y79771D01*
X1494176Y79678D01*
X1494199Y79666D01*
X1494246Y79631D01*
X1494316Y79560D01*
X1494410Y79478D01*
X1494516Y79373D01*
X1494621Y79232D01*
X1494739Y79079D01*
X1494833Y78903D01*
X1494845Y78880D01*
X1494868Y78821D01*
X1494915Y78715D01*
X1494962Y78575D01*
X1494997Y78410D01*
X1495044Y78222D01*
X1495067Y78011D01*
X1495079Y77788D01*
Y77776D01*
Y77741D01*
Y77694D01*
X1495067Y77612D01*
X1495056Y77530D01*
X1495044Y77425D01*
X1495020Y77307D01*
X1494997Y77178D01*
X1494915Y76908D01*
X1494868Y76767D01*
X1494798Y76615D01*
X1494715Y76462D01*
X1494633Y76321D01*
X1494528Y76181D01*
X1494410Y76040D01*
X1494399Y76028D01*
X1494375Y76005D01*
X1494340Y75969D01*
X1494281Y75934D01*
X1494211Y75876D01*
X1494117Y75817D01*
X1494000Y75746D01*
X1493871Y75688D01*
X1493718Y75617D01*
X1493542Y75547D01*
X1493354Y75488D01*
X1493131Y75441D01*
X1492897Y75394D01*
X1492638Y75359D01*
X1492345Y75336D01*
X1492040Y75324D01*
X1489963D01*
Y72027D01*
X1488883D01*
Y80147D01*
X1492216D01*
X1492392Y80135D01*
D02*
G37*
%LPC*%
G36*
X1589201Y80080D02*
X1586878D01*
Y77182D01*
X1589060D01*
X1589143Y77194D01*
X1589225D01*
X1589319Y77205D01*
X1589542Y77229D01*
X1589788Y77276D01*
X1590034Y77346D01*
X1590257Y77440D01*
X1590363Y77499D01*
X1590445Y77569D01*
X1590469Y77593D01*
X1590515Y77639D01*
X1590586Y77733D01*
X1590668Y77851D01*
X1590750Y78003D01*
X1590821Y78191D01*
X1590868Y78402D01*
X1590891Y78649D01*
Y78660D01*
Y78672D01*
Y78731D01*
X1590879Y78836D01*
X1590856Y78954D01*
X1590832Y79083D01*
X1590785Y79236D01*
X1590715Y79376D01*
X1590633Y79517D01*
X1590621Y79529D01*
X1590586Y79576D01*
X1590527Y79634D01*
X1590457Y79717D01*
X1590351Y79799D01*
X1590234Y79869D01*
X1590105Y79940D01*
X1589952Y79998D01*
X1589940D01*
X1589894Y80010D01*
X1589823Y80022D01*
X1589729Y80045D01*
X1589588Y80057D01*
X1589413Y80069D01*
X1589201Y80080D01*
D02*
G37*
G36*
X1492286Y79185D02*
X1489963D01*
Y76286D01*
X1492146D01*
X1492228Y76298D01*
X1492310D01*
X1492404Y76310D01*
X1492627Y76333D01*
X1492873Y76380D01*
X1493120Y76451D01*
X1493342Y76544D01*
X1493448Y76603D01*
X1493530Y76673D01*
X1493554Y76697D01*
X1493601Y76744D01*
X1493671Y76838D01*
X1493753Y76955D01*
X1493835Y77108D01*
X1493906Y77295D01*
X1493953Y77507D01*
X1493976Y77753D01*
Y77765D01*
Y77776D01*
Y77835D01*
X1493964Y77941D01*
X1493941Y78058D01*
X1493918Y78187D01*
X1493871Y78340D01*
X1493800Y78481D01*
X1493718Y78621D01*
X1493706Y78633D01*
X1493671Y78680D01*
X1493612Y78739D01*
X1493542Y78821D01*
X1493436Y78903D01*
X1493319Y78973D01*
X1493190Y79044D01*
X1493037Y79103D01*
X1493026D01*
X1492979Y79114D01*
X1492908Y79126D01*
X1492814Y79149D01*
X1492674Y79161D01*
X1492498Y79173D01*
X1492286Y79185D01*
D02*
G37*
%LPD*%
M02*
