M48
;Layer_Color=9474304
;FILE_FORMAT=4:4
METRIC,LZ
;TYPE=PLATED
T1F00S00C0.4500
T2F00S00C0.7000
T3F00S00C0.7112
T4F00S00C0.9000
T5F00S00C1.1000
T6F00S00C1.3000
T7F00S00C1.4000
%
T01
X00521Y00141
X01422Y00144
X01731386Y00127276
X01739Y00205
X01827
X01781Y00268
X01809841Y00332147
X01835Y00431
X0194Y00397
X0191Y00268
X01945Y00205
X01686Y00258
X01578Y00226
X01545Y00294
X01598Y00337
X01623Y00442
X01697
X01685Y00421
X01697Y00485
X01501368Y00485189
X01458Y00486
X0146Y00362
X014845Y0018075
X01493Y001755
Y00186
X015015Y0018075
X01449Y00155
X01342657Y00210005
X01245Y00205
X01146Y00208
X01049Y0021
X00953Y00206
X00932Y00434
X00846Y0043
X00751Y0044
X00661Y00442
X00535Y00458
X00481Y00452
X00468752Y00208865
X00368618Y00204088
X00273Y00207
X00175Y00209
X00076Y00205
X00251Y00688
X00254Y00774
X00363Y00773
X00367Y00688
X00472
X00473Y00773
X00583Y00774
X00586Y00688
X00694855Y00688511
X00692981Y00773262
X00808Y00773
X00809Y00688
X00907
X00906Y00774
X01017Y00773
Y00689
X01133Y0069
X01131Y00774
X01237
X01241Y00689
X01349Y00688
X01348Y00774
X01458
X01496902Y00829995
X01517Y00857
X01546Y00809
X01632Y00811
X01663213Y00804117
X01632Y00869
X01689Y00716
X01571
X0144Y00664
X01804Y00713
X01779Y00815
X01751Y00817
Y00869
X01883453Y00869441
X0191Y00811
X01915Y0073
X01985Y00603
T02
X0159935Y0066235
X0162475Y0068775
Y0063695
X01719Y006636
X017444Y00689
Y006382
X0183335Y00664
X0185875Y006894
Y006386
X0193435Y00665
X0195975Y006904
Y006396
T03
X01362Y00404
X01266Y00403
X01169Y00405
X01072
X00975231Y0040261
X00585Y00354
X00488Y004
X0039Y00406
X00293257Y00399727
X00196196Y00402132
X001Y00401
X01885Y00815
T04
X01735Y005196
X017604
X017858
X018112
X017096
X016842
X016588
X016334
X01608
X015826
X009728Y00531
X009474
X00922
X008966
X008712
X008458
X008204
X00795
X007696
X007442
X007188
X006934
X00668
X006426
X006172
X005918
X005664
X00541
X005156
X004902
Y00569795
X005156
X00541
X005664
X005918
X006172
X006426
X00668
X006934
X007188
X007442
X007696
X00795
X008204
X015826Y00545
X01608
X016334
X016588
X016842
X017096
X01735
X017604
X017858
X018112
T05
X016749Y0007
X01713
X017511
X018419Y00071
X0188
X019181
X019139Y00979
X01952
X018758
X018262
X017881
X0175
X017022Y00978
X016641
X01626
X015791Y00979
X01541
X015029
T06
X0015548Y00068076
X0020628
X0026552Y00067846
X0031632
X0037556
X0042636
X004856
X005364
X0059448Y0006923
X0064528
X0070452Y00069
X0075532
X0081456
X0086536
X009246
X009754
X0103088Y0006923
X0108168
X0114092Y00069
X0119172
X0125096
X0130176
X01361
X014118
X014339Y00977153
X013831
X01323895
X01273095
X0121389
X0116309
X01103885
X01053085
X0099388
X0094308
X00883875
X00833075
X007719
X007211
X00661895
X00611095
X0055189
X0050109
X00441885
X00391085
X0033188
X0028108
X00221875
X00171075
X0011187
X0006107
T07
X0147529Y00110104
X0151339
X0157295Y00111
X0161105
M30
