G04*
G04 #@! TF.GenerationSoftware,Altium Limited,Altium Designer,22.5.1 (42)*
G04*
G04 Layer_Color=8388736*
%FSLAX44Y44*%
%MOMM*%
G71*
G04*
G04 #@! TF.SameCoordinates,7A6E188A-B59B-493B-9E93-54DEAC03D458*
G04*
G04*
G04 #@! TF.FilePolarity,Positive*
G04*
G01*
G75*
%ADD10C,0.2000*%
%ADD95C,0.1000*%
D10*
X1863000Y914750D02*
X1879000D01*
X1863000D02*
Y923250D01*
X1879000D01*
Y914750D02*
Y923250D01*
X1899250D02*
X1914750D01*
Y914750D02*
Y923250D01*
X1899250Y914750D02*
X1914750D01*
X1899250D02*
Y923250D01*
X1919250Y897250D02*
X1934750D01*
Y888750D02*
Y897250D01*
X1919250Y888750D02*
X1934750D01*
X1919250D02*
Y897250D01*
X1887900Y363354D02*
X1917100D01*
Y376353D01*
X1887900D02*
X1917100D01*
X1887900Y363354D02*
Y376353D01*
X1733450Y214900D02*
X1783450D01*
X1733450Y175100D02*
Y214900D01*
Y175100D02*
X1783450D01*
Y214900D01*
X1822000D02*
X1872000D01*
X1822000Y175100D02*
Y214900D01*
Y175100D02*
X1872000D01*
Y214900D01*
X1670619Y382387D02*
X1699819D01*
Y395387D01*
X1670619D02*
X1699819D01*
X1670619Y382387D02*
Y395387D01*
X1591900Y182000D02*
Y232000D01*
X1552100D02*
X1591900D01*
X1552100Y182000D02*
Y232000D01*
Y182000D02*
X1591900D01*
X1657000Y834900D02*
X1707000D01*
X1657000Y795100D02*
Y834900D01*
Y795100D02*
X1707000D01*
Y834900D01*
X1903629Y839900D02*
X1953629D01*
X1903629Y800100D02*
Y839900D01*
Y800100D02*
X1953629D01*
Y839900D01*
X1773000Y839900D02*
X1823000D01*
X1773000Y800100D02*
Y839900D01*
Y800100D02*
X1823000D01*
Y839900D01*
X1539750Y836650D02*
X1589750D01*
X1539750Y796850D02*
Y836650D01*
Y796850D02*
X1589750D01*
Y836650D01*
X1506250Y283500D02*
X1523750D01*
X1506250Y250500D02*
Y283500D01*
Y250500D02*
X1523750D01*
Y283500D01*
X1658250Y260000D02*
X1675750D01*
X1658250Y227000D02*
Y260000D01*
Y227000D02*
X1675750D01*
Y260000D01*
X1637000Y918750D02*
Y927250D01*
X1621000D02*
X1637000D01*
X1621000Y918750D02*
Y927250D01*
Y918750D02*
X1637000D01*
X1706850Y614700D02*
Y712500D01*
Y614700D02*
X1756450D01*
Y712500D01*
X1706850D02*
X1756450D01*
X1656250Y918750D02*
Y927250D01*
Y918750D02*
X1671750D01*
Y927250D01*
X1656250D02*
X1671750D01*
X1922200Y616100D02*
Y713900D01*
Y616100D02*
X1971800D01*
Y713900D01*
X1922200D02*
X1971800D01*
X1714500Y746250D02*
X1723500D01*
X1714500Y729250D02*
Y746250D01*
Y729250D02*
X1723500D01*
Y746250D01*
X1962414Y746395D02*
X1971414D01*
X1962414Y729395D02*
Y746395D01*
Y729395D02*
X1971414D01*
Y746395D01*
X1672250Y889750D02*
Y898250D01*
Y889750D02*
X1687750D01*
Y898250D01*
X1672250D02*
X1687750D01*
X1707500Y919500D02*
Y928500D01*
X1690500D02*
X1707500D01*
X1690500Y919500D02*
Y928500D01*
Y919500D02*
X1707500D01*
X1952500Y916500D02*
Y925500D01*
X1935500D02*
X1952500D01*
X1935500Y916500D02*
Y925500D01*
Y916500D02*
X1952500D01*
X1751000Y918750D02*
Y927250D01*
X1735000D02*
X1751000D01*
X1735000Y918750D02*
Y927250D01*
Y918750D02*
X1751000D01*
X1520000Y920750D02*
Y929250D01*
X1504000D02*
X1520000D01*
X1504000Y920750D02*
Y929250D01*
Y920750D02*
X1520000D01*
X1821200Y615100D02*
Y712900D01*
Y615100D02*
X1870800D01*
Y712900D01*
X1821200D02*
X1870800D01*
X1587200Y613450D02*
Y711250D01*
Y613450D02*
X1636800D01*
Y711250D01*
X1587200D02*
X1636800D01*
X1772250Y918750D02*
Y927250D01*
Y918750D02*
X1787750D01*
Y927250D01*
X1772250D02*
X1787750D01*
X1540250Y920750D02*
Y929250D01*
Y920750D02*
X1555750D01*
Y929250D01*
X1540250D02*
X1555750D01*
X1831500Y745500D02*
X1840500D01*
X1831500Y728500D02*
Y745500D01*
Y728500D02*
X1840500D01*
Y745500D01*
X1595250Y745000D02*
X1604250D01*
X1595250Y728000D02*
Y745000D01*
Y728000D02*
X1604250D01*
Y745000D01*
X1788250Y886750D02*
Y895250D01*
Y886750D02*
X1803750D01*
Y895250D01*
X1788250D02*
X1803750D01*
X1555250Y887750D02*
Y896250D01*
Y887750D02*
X1570750D01*
Y896250D01*
X1555250D02*
X1570750D01*
X1824500Y918500D02*
Y927500D01*
X1807500D02*
X1824500D01*
X1807500Y918500D02*
Y927500D01*
Y918500D02*
X1824500D01*
X1593500Y921500D02*
Y930500D01*
X1576500D02*
X1593500D01*
X1576500Y921500D02*
Y930500D01*
Y921500D02*
X1593500D01*
X824864Y850532D02*
X833364D01*
Y866032D01*
X824864D02*
X833364D01*
X824864Y850532D02*
Y866032D01*
X881250Y883750D02*
Y892250D01*
X865750D02*
X881250D01*
X865750Y883750D02*
Y892250D01*
Y883750D02*
X881250D01*
X1159445Y850532D02*
X1167945D01*
Y866032D01*
X1159445D02*
X1167945D01*
X1159445Y850532D02*
Y866032D01*
X1216500Y885750D02*
Y894250D01*
X1201000D02*
X1216500D01*
X1201000Y885750D02*
Y894250D01*
Y885750D02*
X1216500D01*
X1270973Y850532D02*
X1279473D01*
Y866032D01*
X1270973D02*
X1279473D01*
X1270973Y850532D02*
Y866032D01*
X1324500Y878750D02*
Y887250D01*
X1309000D02*
X1324500D01*
X1309000Y878750D02*
Y887250D01*
Y878750D02*
X1324500D01*
X936391Y850532D02*
X944891D01*
Y866032D01*
X936391D02*
X944891D01*
X936391Y850532D02*
Y866032D01*
X994500Y887750D02*
Y896250D01*
X979000D02*
X994500D01*
X979000Y887750D02*
Y896250D01*
Y887750D02*
X994500D01*
X1382500Y850532D02*
X1391000D01*
Y866032D01*
X1382500D02*
X1391000D01*
X1382500Y850532D02*
Y866032D01*
X1436250Y883750D02*
Y892250D01*
X1420750D02*
X1436250D01*
X1420750Y883750D02*
Y892250D01*
Y883750D02*
X1436250D01*
X1047918Y850532D02*
X1056419D01*
Y866032D01*
X1047918D02*
X1056419D01*
X1047918Y850532D02*
Y866032D01*
X1105654Y885750D02*
Y894250D01*
X1090154D02*
X1105654D01*
X1090154Y885750D02*
Y894250D01*
Y885750D02*
X1105654D01*
X166250Y850250D02*
X174750D01*
Y865750D01*
X166250D02*
X174750D01*
X166250Y850250D02*
Y865750D01*
X500832Y850250D02*
X509332D01*
Y865750D01*
X500832D02*
X509332D01*
X500832Y850250D02*
Y865750D01*
X219250Y883750D02*
Y892250D01*
X203750D02*
X219250D01*
X203750Y883750D02*
Y892250D01*
Y883750D02*
X219250D01*
X553250Y888750D02*
Y897250D01*
X537750D02*
X553250D01*
X537750Y888750D02*
Y897250D01*
Y888750D02*
X553250D01*
X612358Y850250D02*
X620859D01*
Y865750D01*
X612358D02*
X620859D01*
X612358Y850250D02*
Y865750D01*
X663404Y878750D02*
Y887250D01*
X647904D02*
X663404D01*
X647904Y878750D02*
Y887250D01*
Y878750D02*
X663404D01*
X277777Y850250D02*
X286277D01*
Y865750D01*
X277777D02*
X286277D01*
X277777Y850250D02*
Y865750D01*
X333250Y884750D02*
Y893250D01*
X317750D02*
X333250D01*
X317750Y884750D02*
Y893250D01*
Y884750D02*
X333250D01*
X723886Y850250D02*
X732386D01*
Y865750D01*
X723886D02*
X732386D01*
X723886Y850250D02*
Y865750D01*
X389304Y850250D02*
X397804D01*
Y865750D01*
X389304D02*
X397804D01*
X389304Y850250D02*
Y865750D01*
X774250Y883750D02*
Y892250D01*
X758750D02*
X774250D01*
X758750Y883750D02*
Y892250D01*
Y883750D02*
X774250D01*
X443250Y882750D02*
Y891250D01*
X427750D02*
X443250D01*
X427750Y882750D02*
Y891250D01*
Y882750D02*
X443250D01*
X1435400Y428000D02*
X1443400D01*
Y444000D01*
X1435400D02*
X1443400D01*
X1435400Y428000D02*
Y444000D01*
X1406150Y430250D02*
X1414650D01*
Y445750D01*
X1406150D02*
X1414650D01*
X1406150Y430250D02*
Y445750D01*
X1404150Y225250D02*
X1412650D01*
Y240750D01*
X1404150D02*
X1412650D01*
X1404150Y225250D02*
Y240750D01*
X1332400Y426233D02*
X1340400D01*
Y442233D01*
X1332400D02*
X1340400D01*
X1332400Y426233D02*
Y442233D01*
X1308150Y428250D02*
X1316650D01*
Y443750D01*
X1308150D02*
X1316650D01*
X1308150Y428250D02*
Y443750D01*
Y237250D02*
X1316650D01*
Y252750D01*
X1308150D02*
X1316650D01*
X1308150Y237250D02*
Y252750D01*
X1236400Y423000D02*
X1244400D01*
Y439000D01*
X1236400D02*
X1244400D01*
X1236400Y423000D02*
Y439000D01*
X1207150Y424250D02*
X1215650D01*
Y439750D01*
X1207150D02*
X1215650D01*
X1207150Y424250D02*
Y439750D01*
X1211150Y234250D02*
X1219650D01*
Y249750D01*
X1211150D02*
X1219650D01*
X1211150Y234250D02*
Y249750D01*
X1139400Y424000D02*
X1147400D01*
Y440000D01*
X1139400D02*
X1147400D01*
X1139400Y424000D02*
Y440000D01*
X1114150Y426096D02*
X1122650D01*
Y441596D01*
X1114150D02*
X1122650D01*
X1114150Y426096D02*
Y441596D01*
X1113150Y232250D02*
X1121650D01*
Y247750D01*
X1113150D02*
X1121650D01*
X1113150Y232250D02*
Y247750D01*
X1042400Y405000D02*
X1050400D01*
Y421000D01*
X1042400D02*
X1050400D01*
X1042400Y405000D02*
Y421000D01*
X1016150Y407250D02*
X1024650D01*
Y422750D01*
X1016150D02*
X1024650D01*
X1016150Y407250D02*
Y422750D01*
X1017150Y233250D02*
X1025650D01*
Y248750D01*
X1017150D02*
X1025650D01*
X1017150Y233250D02*
Y248750D01*
X945400Y416233D02*
X953400D01*
Y432233D01*
X945400D02*
X953400D01*
X945400Y416233D02*
Y432233D01*
X913150Y418250D02*
X921650D01*
Y433750D01*
X913150D02*
X921650D01*
X913150Y418250D02*
Y433750D01*
X919150Y233250D02*
X927650D01*
Y248750D01*
X919150D02*
X927650D01*
X919150Y233250D02*
Y248750D01*
X560000Y426846D02*
X568000D01*
Y442846D01*
X560000D02*
X568000D01*
X560000Y426846D02*
Y442846D01*
X530750Y429096D02*
X539250D01*
Y444596D01*
X530750D02*
X539250D01*
X530750Y429096D02*
Y444596D01*
X528750Y224096D02*
X537250D01*
Y239596D01*
X528750D02*
X537250D01*
X528750Y224096D02*
Y239596D01*
X457000Y425079D02*
X465000D01*
Y441079D01*
X457000D02*
X465000D01*
X457000Y425079D02*
Y441079D01*
X432750Y427096D02*
X441250D01*
Y442596D01*
X432750D02*
X441250D01*
X432750Y427096D02*
Y442596D01*
Y236096D02*
X441250D01*
Y251596D01*
X432750D02*
X441250D01*
X432750Y236096D02*
Y251596D01*
X361000Y421846D02*
X369000D01*
Y437846D01*
X361000D02*
X369000D01*
X361000Y421846D02*
Y437846D01*
X331750Y423096D02*
X340250D01*
Y438596D01*
X331750D02*
X340250D01*
X331750Y423096D02*
Y438596D01*
X335750Y233096D02*
X344250D01*
Y248596D01*
X335750D02*
X344250D01*
X335750Y233096D02*
Y248596D01*
X264000Y422846D02*
X272000D01*
Y438846D01*
X264000D02*
X272000D01*
X264000Y422846D02*
Y438846D01*
X238750Y424942D02*
X247250D01*
Y440442D01*
X238750D02*
X247250D01*
X238750Y424942D02*
Y440442D01*
X237750Y231096D02*
X246250D01*
Y246596D01*
X237750D02*
X246250D01*
X237750Y231096D02*
Y246596D01*
X167000Y403846D02*
X175000D01*
Y419846D01*
X167000D02*
X175000D01*
X167000Y403846D02*
Y419846D01*
X140750Y406096D02*
X149250D01*
Y421596D01*
X140750D02*
X149250D01*
X140750Y406096D02*
Y421596D01*
X141750Y232096D02*
X150250D01*
Y247596D01*
X141750D02*
X150250D01*
X141750Y232096D02*
Y247596D01*
X70000Y415079D02*
X78000D01*
Y431079D01*
X70000D02*
X78000D01*
X70000Y415079D02*
Y431079D01*
X37750Y417096D02*
X46250D01*
Y432596D01*
X37750D02*
X46250D01*
X37750Y417096D02*
Y432596D01*
X43750Y232096D02*
X52250D01*
Y247596D01*
X43750D02*
X52250D01*
X43750Y232096D02*
Y247596D01*
X859614Y844000D02*
X890614D01*
Y862000D01*
X859614D02*
X890614D01*
X859614Y844000D02*
Y862000D01*
X1194196Y844000D02*
X1225195D01*
Y862000D01*
X1194196D02*
X1225195D01*
X1194196Y844000D02*
Y862000D01*
X1305723Y844000D02*
X1336723D01*
Y862000D01*
X1305723D02*
X1336723D01*
X1305723Y844000D02*
Y862000D01*
X971141Y844000D02*
X1002141D01*
Y862000D01*
X971141D02*
X1002141D01*
X971141Y844000D02*
Y862000D01*
X1417250Y844000D02*
X1448250D01*
Y862000D01*
X1417250D02*
X1448250D01*
X1417250Y844000D02*
Y862000D01*
X1082668Y844000D02*
X1113668D01*
Y862000D01*
X1082668D02*
X1113668D01*
X1082668Y844000D02*
Y862000D01*
X201000Y843718D02*
X232000D01*
Y861718D01*
X201000D02*
X232000D01*
X201000Y843718D02*
Y861718D01*
X535581Y843718D02*
X566581D01*
Y861718D01*
X535581D02*
X566581D01*
X535581Y843718D02*
Y861718D01*
X647109Y843718D02*
X678109D01*
Y861718D01*
X647109D02*
X678109D01*
X647109Y843718D02*
Y861718D01*
X312527Y843718D02*
X343527D01*
Y861718D01*
X312527D02*
X343527D01*
X312527Y843718D02*
Y861718D01*
X758636Y843718D02*
X789636D01*
Y861718D01*
X758636D02*
X789636D01*
X758636Y843718D02*
Y861718D01*
X424054Y843718D02*
X455054D01*
Y861718D01*
X424054D02*
X455054D01*
X424054Y843718D02*
Y861718D01*
X851250Y908250D02*
Y923750D01*
Y908250D02*
X877750D01*
Y923750D01*
X851250D02*
X877750D01*
X1183250Y912250D02*
Y927750D01*
Y912250D02*
X1209750D01*
Y927750D01*
X1183250D02*
X1209750D01*
X1293250Y911250D02*
Y926750D01*
Y911250D02*
X1319750D01*
Y926750D01*
X1293250D02*
X1319750D01*
X963250Y911250D02*
Y926750D01*
Y911250D02*
X989750D01*
Y926750D01*
X963250D02*
X989750D01*
X1404250Y910250D02*
Y925750D01*
Y910250D02*
X1430750D01*
Y925750D01*
X1404250D02*
X1430750D01*
X1074250Y909250D02*
Y924750D01*
Y909250D02*
X1100750D01*
Y924750D01*
X1074250D02*
X1100750D01*
X189250Y908250D02*
Y923750D01*
Y908250D02*
X215750D01*
Y923750D01*
X189250D02*
X215750D01*
X521250Y912250D02*
Y927750D01*
Y912250D02*
X547750D01*
Y927750D01*
X521250D02*
X547750D01*
X631250Y911250D02*
Y926750D01*
Y911250D02*
X657750D01*
Y926750D01*
X631250D02*
X657750D01*
X301250Y911250D02*
Y926750D01*
Y911250D02*
X327750D01*
Y926750D01*
X301250D02*
X327750D01*
X742250Y910250D02*
Y925750D01*
Y910250D02*
X768750D01*
Y925750D01*
X742250D02*
X768750D01*
X412250Y909250D02*
Y924750D01*
Y909250D02*
X438750D01*
Y924750D01*
X412250D02*
X438750D01*
D95*
X1637050Y31000D02*
Y123000D01*
X1546950D02*
X1637050D01*
X1546950Y31000D02*
Y123000D01*
Y31000D02*
X1637050D01*
X1539390Y30105D02*
Y122104D01*
X1449290D02*
X1539390D01*
X1449290Y30105D02*
Y122104D01*
Y30105D02*
X1539390D01*
M02*
