G04*
G04 #@! TF.GenerationSoftware,Altium Limited,Altium Designer,22.5.1 (42)*
G04*
G04 Layer_Color=255*
%FSLAX44Y44*%
%MOMM*%
G71*
G04*
G04 #@! TF.SameCoordinates,7A6E188A-B59B-493B-9E93-54DEAC03D458*
G04*
G04*
G04 #@! TF.FilePolarity,Positive*
G04*
G01*
G75*
%ADD14R,0.9000X1.0000*%
%ADD15R,1.4500X1.7000*%
%ADD16R,0.8500X0.7500*%
G04:AMPARAMS|DCode=17|XSize=2.15mm|YSize=1.48mm|CornerRadius=0.185mm|HoleSize=0mm|Usage=FLASHONLY|Rotation=90.000|XOffset=0mm|YOffset=0mm|HoleType=Round|Shape=RoundedRectangle|*
%AMROUNDEDRECTD17*
21,1,2.1500,1.1100,0,0,90.0*
21,1,1.7800,1.4800,0,0,90.0*
1,1,0.3700,0.5550,0.8900*
1,1,0.3700,0.5550,-0.8900*
1,1,0.3700,-0.5550,-0.8900*
1,1,0.3700,-0.5550,0.8900*
%
%ADD17ROUNDEDRECTD17*%
%ADD18R,0.8000X1.2500*%
%ADD19R,1.2500X1.5500*%
%ADD20R,0.9581X0.9621*%
%ADD21R,0.9350X0.9621*%
%ADD22R,1.1350X1.0621*%
G04:AMPARAMS|DCode=23|XSize=1.5739mm|YSize=0.5721mm|CornerRadius=0.2861mm|HoleSize=0mm|Usage=FLASHONLY|Rotation=90.000|XOffset=0mm|YOffset=0mm|HoleType=Round|Shape=RoundedRectangle|*
%AMROUNDEDRECTD23*
21,1,1.5739,0.0000,0,0,90.0*
21,1,1.0018,0.5721,0,0,90.0*
1,1,0.5721,0.0000,0.5009*
1,1,0.5721,0.0000,-0.5009*
1,1,0.5721,0.0000,-0.5009*
1,1,0.5721,0.0000,0.5009*
%
%ADD23ROUNDEDRECTD23*%
%ADD24R,0.5721X1.5739*%
G04:AMPARAMS|DCode=25|XSize=1.55mm|YSize=0.6mm|CornerRadius=0.051mm|HoleSize=0mm|Usage=FLASHONLY|Rotation=270.000|XOffset=0mm|YOffset=0mm|HoleType=Round|Shape=RoundedRectangle|*
%AMROUNDEDRECTD25*
21,1,1.5500,0.4980,0,0,270.0*
21,1,1.4480,0.6000,0,0,270.0*
1,1,0.1020,-0.2490,-0.7240*
1,1,0.1020,-0.2490,0.7240*
1,1,0.1020,0.2490,0.7240*
1,1,0.1020,0.2490,-0.7240*
%
%ADD25ROUNDEDRECTD25*%
%ADD26O,0.7000X2.5000*%
G04:AMPARAMS|DCode=27|XSize=1.55mm|YSize=0.6mm|CornerRadius=0.051mm|HoleSize=0mm|Usage=FLASHONLY|Rotation=180.000|XOffset=0mm|YOffset=0mm|HoleType=Round|Shape=RoundedRectangle|*
%AMROUNDEDRECTD27*
21,1,1.5500,0.4980,0,0,180.0*
21,1,1.4480,0.6000,0,0,180.0*
1,1,0.1020,-0.7240,0.2490*
1,1,0.1020,0.7240,0.2490*
1,1,0.1020,0.7240,-0.2490*
1,1,0.1020,-0.7240,-0.2490*
%
%ADD27ROUNDEDRECTD27*%
%ADD28R,1.4500X1.0500*%
%ADD29R,1.0500X1.4500*%
%ADD30R,0.9500X0.8000*%
%ADD31R,1.7000X0.9000*%
%ADD32R,0.8000X0.9000*%
%ADD33R,0.9000X0.8000*%
%ADD34R,0.8621X0.7350*%
%ADD35R,0.7350X0.8621*%
%ADD36R,0.8121X0.6587*%
%ADD37R,1.0621X1.1350*%
%ADD38R,0.8000X0.6000*%
%ADD39R,0.9000X0.8000*%
%ADD40R,0.8000X0.8000*%
G04:AMPARAMS|DCode=41|XSize=1.5575mm|YSize=0.7425mm|CornerRadius=0.3712mm|HoleSize=0mm|Usage=FLASHONLY|Rotation=0.000|XOffset=0mm|YOffset=0mm|HoleType=Round|Shape=RoundedRectangle|*
%AMROUNDEDRECTD41*
21,1,1.5575,0.0000,0,0,0.0*
21,1,0.8150,0.7425,0,0,0.0*
1,1,0.7425,0.4075,0.0000*
1,1,0.7425,-0.4075,0.0000*
1,1,0.7425,-0.4075,0.0000*
1,1,0.7425,0.4075,0.0000*
%
%ADD41ROUNDEDRECTD41*%
%ADD42R,1.5575X0.7425*%
%ADD43R,1.5000X1.4000*%
%ADD44R,1.0500X0.9500*%
%ADD61C,1.2000*%
%ADD62R,1.2000X1.2000*%
%ADD74C,1.6500*%
%ADD75R,1.6500X1.6500*%
%ADD76C,1.5000*%
%ADD77R,1.5000X1.5000*%
G04:AMPARAMS|DCode=78|XSize=2.1mm|YSize=2.1mm|CornerRadius=0.525mm|HoleSize=0mm|Usage=FLASHONLY|Rotation=0.000|XOffset=0mm|YOffset=0mm|HoleType=Round|Shape=RoundedRectangle|*
%AMROUNDEDRECTD78*
21,1,2.1000,1.0500,0,0,0.0*
21,1,1.0500,2.1000,0,0,0.0*
1,1,1.0500,0.5250,-0.5250*
1,1,1.0500,-0.5250,-0.5250*
1,1,1.0500,-0.5250,0.5250*
1,1,1.0500,0.5250,0.5250*
%
%ADD78ROUNDEDRECTD78*%
%ADD79C,2.1000*%
%ADD80C,1.8000*%
%ADD81R,1.8000X1.8000*%
D14*
X353750Y203846D02*
D03*
X340250D02*
D03*
X1408650Y199000D02*
D03*
X1422150D02*
D03*
X1312650Y210000D02*
D03*
X1326150D02*
D03*
X1215650Y205000D02*
D03*
X1229150D02*
D03*
X1117650Y208000D02*
D03*
X1131150D02*
D03*
X1021650Y210000D02*
D03*
X1035150D02*
D03*
X923650Y206000D02*
D03*
X937150D02*
D03*
X533250Y197846D02*
D03*
X546750D02*
D03*
X437250Y208846D02*
D03*
X450750D02*
D03*
X242250Y206846D02*
D03*
X255750D02*
D03*
X146250Y208846D02*
D03*
X159750D02*
D03*
X48250Y204846D02*
D03*
X61750D02*
D03*
D15*
X145600Y376846D02*
D03*
X171000D02*
D03*
X196400D02*
D03*
Y282846D02*
D03*
X171000D02*
D03*
X145600D02*
D03*
X1409000Y284000D02*
D03*
X1434400D02*
D03*
X1459800D02*
D03*
Y378000D02*
D03*
X1434400D02*
D03*
X1409000D02*
D03*
X1312000Y284000D02*
D03*
X1337400D02*
D03*
X1362800D02*
D03*
Y378000D02*
D03*
X1337400D02*
D03*
X1312000D02*
D03*
X1215000Y284000D02*
D03*
X1240400D02*
D03*
X1265800D02*
D03*
Y378000D02*
D03*
X1240400D02*
D03*
X1215000D02*
D03*
X1118000Y284000D02*
D03*
X1143400D02*
D03*
X1168800D02*
D03*
Y378000D02*
D03*
X1143400D02*
D03*
X1118000D02*
D03*
X1021000Y284000D02*
D03*
X1046400D02*
D03*
X1071800D02*
D03*
Y378000D02*
D03*
X1046400D02*
D03*
X1021000D02*
D03*
X924000Y284000D02*
D03*
X949400D02*
D03*
X974800D02*
D03*
Y378000D02*
D03*
X949400D02*
D03*
X924000D02*
D03*
X533600Y282846D02*
D03*
X559000D02*
D03*
X584400D02*
D03*
Y376846D02*
D03*
X559000D02*
D03*
X533600D02*
D03*
X436600Y284000D02*
D03*
X462000D02*
D03*
X487400D02*
D03*
Y378000D02*
D03*
X462000D02*
D03*
X436600D02*
D03*
X339600Y282846D02*
D03*
X365000D02*
D03*
X390400D02*
D03*
Y376846D02*
D03*
X365000D02*
D03*
X339600D02*
D03*
X242600Y282846D02*
D03*
X268000D02*
D03*
X293400D02*
D03*
Y376846D02*
D03*
X268000D02*
D03*
X242600D02*
D03*
X48600Y282846D02*
D03*
X74000D02*
D03*
X99400D02*
D03*
Y376846D02*
D03*
X74000D02*
D03*
X48600D02*
D03*
D16*
X1416000Y649500D02*
D03*
Y662500D02*
D03*
X859000Y651500D02*
D03*
Y664500D02*
D03*
X647000Y650500D02*
D03*
Y663500D02*
D03*
X536000Y649500D02*
D03*
Y662500D02*
D03*
X425000Y650500D02*
D03*
Y663500D02*
D03*
X313000Y650500D02*
D03*
Y663500D02*
D03*
X1081000Y658500D02*
D03*
Y645500D02*
D03*
X1192000Y658500D02*
D03*
Y645500D02*
D03*
X202000Y662500D02*
D03*
Y649500D02*
D03*
X1303000Y662500D02*
D03*
Y649500D02*
D03*
X970000Y662500D02*
D03*
Y649500D02*
D03*
X758000Y663500D02*
D03*
Y650500D02*
D03*
D17*
X424700Y773518D02*
D03*
X450100D02*
D03*
Y687918D02*
D03*
X424700D02*
D03*
X646900Y773518D02*
D03*
X672300D02*
D03*
Y687918D02*
D03*
X646900D02*
D03*
X1302950Y773800D02*
D03*
X1328350D02*
D03*
Y688200D02*
D03*
X1302950D02*
D03*
X535800Y773518D02*
D03*
X561200D02*
D03*
Y687918D02*
D03*
X535800D02*
D03*
X313600Y773518D02*
D03*
X339000D02*
D03*
Y687918D02*
D03*
X313600D02*
D03*
X202500Y773518D02*
D03*
X227900D02*
D03*
Y687918D02*
D03*
X202500D02*
D03*
X858550Y688200D02*
D03*
X883951D02*
D03*
Y773800D02*
D03*
X858550D02*
D03*
X1191850Y688200D02*
D03*
X1217250D02*
D03*
Y773800D02*
D03*
X1191850D02*
D03*
X969651Y688200D02*
D03*
X995051D02*
D03*
Y773800D02*
D03*
X969651D02*
D03*
X1414050Y688200D02*
D03*
X1439450D02*
D03*
Y773800D02*
D03*
X1414050D02*
D03*
X1080750Y688200D02*
D03*
X1106150D02*
D03*
Y773800D02*
D03*
X1080750D02*
D03*
X757999Y687918D02*
D03*
X783400D02*
D03*
Y773518D02*
D03*
X757999D02*
D03*
D18*
X845114Y815500D02*
D03*
X829114D02*
D03*
X956641D02*
D03*
X940641D02*
D03*
X1068169D02*
D03*
X1052168D02*
D03*
X1179695D02*
D03*
X1163695D02*
D03*
X1291223D02*
D03*
X1275223D02*
D03*
X521082Y815218D02*
D03*
X505081D02*
D03*
X186500D02*
D03*
X170500D02*
D03*
X1386750Y815500D02*
D03*
X1402749D02*
D03*
X616609Y815218D02*
D03*
X632609D02*
D03*
X282027D02*
D03*
X298027D02*
D03*
X728136D02*
D03*
X744136D02*
D03*
X393554D02*
D03*
X409554D02*
D03*
D19*
X1200628Y817000D02*
D03*
X1221127D02*
D03*
X208250Y816718D02*
D03*
X228750D02*
D03*
X886819Y817000D02*
D03*
X866318D02*
D03*
X1332564D02*
D03*
X1312063D02*
D03*
X998255D02*
D03*
X977755D02*
D03*
X1444000D02*
D03*
X1423500D02*
D03*
X1109691D02*
D03*
X1089191D02*
D03*
X563059Y816718D02*
D03*
X542559D02*
D03*
X674495D02*
D03*
X653995D02*
D03*
X340186D02*
D03*
X319686D02*
D03*
X785931D02*
D03*
X765431D02*
D03*
X451623D02*
D03*
X431122D02*
D03*
D20*
X1878270Y919000D02*
D03*
X1863730D02*
D03*
X1621730Y923000D02*
D03*
X1636270D02*
D03*
X1735730D02*
D03*
X1750270D02*
D03*
X1504730Y925000D02*
D03*
X1519270D02*
D03*
D21*
X1899846Y919000D02*
D03*
X1914154D02*
D03*
X1671154Y923000D02*
D03*
X1656846D02*
D03*
X1787154D02*
D03*
X1772846D02*
D03*
X1555154Y925000D02*
D03*
X1540846D02*
D03*
D22*
X1918846Y893000D02*
D03*
X1935154D02*
D03*
X1688154Y894000D02*
D03*
X1671846D02*
D03*
X1804154Y891000D02*
D03*
X1787846D02*
D03*
X1571154Y892000D02*
D03*
X1554846D02*
D03*
D23*
X1902500Y378707D02*
D03*
X1912000Y361000D02*
D03*
X1685219Y397740D02*
D03*
X1694719Y380033D02*
D03*
D24*
X1893000Y361000D02*
D03*
X1675719Y380033D02*
D03*
D25*
X1777500Y168000D02*
D03*
X1764800D02*
D03*
X1752100D02*
D03*
X1739400D02*
D03*
Y222000D02*
D03*
X1752100D02*
D03*
X1764800D02*
D03*
X1777500D02*
D03*
X1866050Y168000D02*
D03*
X1853350D02*
D03*
X1840650D02*
D03*
X1827950D02*
D03*
Y222000D02*
D03*
X1840650D02*
D03*
X1853350D02*
D03*
X1866050D02*
D03*
X1701050Y788000D02*
D03*
X1688350D02*
D03*
X1675650D02*
D03*
X1662950D02*
D03*
Y842000D02*
D03*
X1675650D02*
D03*
X1688350D02*
D03*
X1701050D02*
D03*
X1947679Y793000D02*
D03*
X1934979D02*
D03*
X1922279D02*
D03*
X1909579D02*
D03*
Y847000D02*
D03*
X1922279D02*
D03*
X1934979D02*
D03*
X1947679D02*
D03*
X1817050Y793000D02*
D03*
X1804350D02*
D03*
X1791650D02*
D03*
X1778950D02*
D03*
Y847000D02*
D03*
X1791650D02*
D03*
X1804350D02*
D03*
X1817050D02*
D03*
X1583800Y789750D02*
D03*
X1571100D02*
D03*
X1558400D02*
D03*
X1545700D02*
D03*
Y843750D02*
D03*
X1558400D02*
D03*
X1571100D02*
D03*
X1583800D02*
D03*
D26*
X1758900Y361500D02*
D03*
X1771600D02*
D03*
X1784300D02*
D03*
X1797000D02*
D03*
X1809700D02*
D03*
X1822400D02*
D03*
X1835100D02*
D03*
X1758900Y410500D02*
D03*
X1771600D02*
D03*
X1784300D02*
D03*
X1797000D02*
D03*
X1809700D02*
D03*
X1822400D02*
D03*
X1835100D02*
D03*
X1546400Y361500D02*
D03*
X1559100D02*
D03*
X1571800D02*
D03*
X1584500D02*
D03*
X1597200D02*
D03*
X1609900D02*
D03*
X1622600D02*
D03*
X1546400Y410500D02*
D03*
X1559100D02*
D03*
X1571800D02*
D03*
X1584500D02*
D03*
X1597200D02*
D03*
X1609900D02*
D03*
X1622600D02*
D03*
D27*
X1545000Y187950D02*
D03*
Y200650D02*
D03*
Y213350D02*
D03*
Y226050D02*
D03*
X1599000D02*
D03*
Y213350D02*
D03*
Y200650D02*
D03*
Y187950D02*
D03*
D28*
X1940000Y379250D02*
D03*
Y360750D02*
D03*
X1870000Y379500D02*
D03*
Y361000D02*
D03*
X1720000Y398250D02*
D03*
Y379750D02*
D03*
X1649000Y398250D02*
D03*
Y379750D02*
D03*
D29*
X1940250Y332000D02*
D03*
X1921750D02*
D03*
X1694250Y350000D02*
D03*
X1675750D02*
D03*
D30*
X1797000Y268500D02*
D03*
Y255500D02*
D03*
X1732000Y266500D02*
D03*
Y253500D02*
D03*
X1752000Y266500D02*
D03*
Y253500D02*
D03*
X1797000Y221500D02*
D03*
Y234500D02*
D03*
X1891000Y268500D02*
D03*
Y255500D02*
D03*
X1821000Y268500D02*
D03*
Y255500D02*
D03*
X1840000Y268500D02*
D03*
Y255500D02*
D03*
X1891040Y221822D02*
D03*
Y234823D02*
D03*
D31*
X1515000Y252500D02*
D03*
Y281500D02*
D03*
X1667000Y229000D02*
D03*
Y258000D02*
D03*
D32*
X1719000Y729250D02*
D03*
Y746250D02*
D03*
X1966914Y729395D02*
D03*
Y746395D02*
D03*
X1836000Y728500D02*
D03*
Y745500D02*
D03*
X1599750Y728000D02*
D03*
Y745000D02*
D03*
D33*
X1690500Y924000D02*
D03*
X1707500D02*
D03*
X1935500Y921000D02*
D03*
X1952500D02*
D03*
X1807500Y923000D02*
D03*
X1824500D02*
D03*
X1576500Y926000D02*
D03*
X1593500D02*
D03*
D34*
X829114Y864436D02*
D03*
Y852128D02*
D03*
X1163695Y864436D02*
D03*
Y852128D02*
D03*
X1275223Y864436D02*
D03*
Y852128D02*
D03*
X940641Y864436D02*
D03*
Y852128D02*
D03*
X1386750Y864436D02*
D03*
Y852128D02*
D03*
X1052168Y864436D02*
D03*
Y852128D02*
D03*
X170500Y864154D02*
D03*
Y851846D02*
D03*
X505081Y864154D02*
D03*
Y851846D02*
D03*
X616609Y864154D02*
D03*
Y851846D02*
D03*
X282027Y864154D02*
D03*
Y851846D02*
D03*
X728136Y864154D02*
D03*
Y851846D02*
D03*
X393554Y864154D02*
D03*
Y851846D02*
D03*
D35*
X867346Y888000D02*
D03*
X879654D02*
D03*
X1202596Y890000D02*
D03*
X1214904D02*
D03*
X1310596Y883000D02*
D03*
X1322904D02*
D03*
X980596Y892000D02*
D03*
X992904D02*
D03*
X1422346Y888000D02*
D03*
X1434654D02*
D03*
X1091750Y890000D02*
D03*
X1104058D02*
D03*
X205346Y888000D02*
D03*
X217654D02*
D03*
X539346Y893000D02*
D03*
X551654D02*
D03*
X649500Y883000D02*
D03*
X661808D02*
D03*
X319346Y889000D02*
D03*
X331654D02*
D03*
X760346Y888000D02*
D03*
X772654D02*
D03*
X429346Y887000D02*
D03*
X441654D02*
D03*
D36*
X1439400Y442767D02*
D03*
Y429233D02*
D03*
X1336400Y441000D02*
D03*
Y427466D02*
D03*
X1240400Y437767D02*
D03*
Y424233D02*
D03*
X1143400Y438767D02*
D03*
Y425233D02*
D03*
X1046400Y419767D02*
D03*
Y406233D02*
D03*
X949400Y431000D02*
D03*
Y417466D02*
D03*
X564000Y441613D02*
D03*
Y428079D02*
D03*
X461000Y439846D02*
D03*
Y426312D02*
D03*
X365000Y436613D02*
D03*
Y423079D02*
D03*
X268000Y437613D02*
D03*
Y424079D02*
D03*
X171000Y418613D02*
D03*
Y405079D02*
D03*
X74000Y429846D02*
D03*
Y416312D02*
D03*
D37*
X1410400Y446154D02*
D03*
Y429846D02*
D03*
X1408400Y241154D02*
D03*
Y224846D02*
D03*
X1312400Y444154D02*
D03*
Y427846D02*
D03*
Y253154D02*
D03*
Y236846D02*
D03*
X1211400Y440154D02*
D03*
Y423846D02*
D03*
X1215400Y250154D02*
D03*
Y233846D02*
D03*
X1118400Y442000D02*
D03*
Y425692D02*
D03*
X1117400Y248154D02*
D03*
Y231846D02*
D03*
X1020400Y423154D02*
D03*
Y406846D02*
D03*
X1021400Y249154D02*
D03*
Y232846D02*
D03*
X917400Y434154D02*
D03*
Y417846D02*
D03*
X923400Y249154D02*
D03*
Y232846D02*
D03*
X535000Y445000D02*
D03*
Y428692D02*
D03*
X533000Y240000D02*
D03*
Y223692D02*
D03*
X437000Y443000D02*
D03*
Y426692D02*
D03*
Y252000D02*
D03*
Y235692D02*
D03*
X336000Y439000D02*
D03*
Y422692D02*
D03*
X340000Y249000D02*
D03*
Y232692D02*
D03*
X243000Y440846D02*
D03*
Y424538D02*
D03*
X242000Y247000D02*
D03*
Y230692D02*
D03*
X145000Y422000D02*
D03*
Y405692D02*
D03*
X146000Y248000D02*
D03*
Y231692D02*
D03*
X42000Y433000D02*
D03*
Y416692D02*
D03*
X48000Y248000D02*
D03*
Y231692D02*
D03*
D38*
X1407400Y171500D02*
D03*
Y184500D02*
D03*
X1312400Y172500D02*
D03*
Y185500D02*
D03*
X1215400Y177500D02*
D03*
Y190500D02*
D03*
X1117400Y180500D02*
D03*
Y193500D02*
D03*
X1021400Y179500D02*
D03*
Y192500D02*
D03*
X923400Y175500D02*
D03*
Y188500D02*
D03*
X532000Y170346D02*
D03*
Y183346D02*
D03*
X437000Y171346D02*
D03*
Y184346D02*
D03*
X340000Y176346D02*
D03*
Y189346D02*
D03*
X242000Y179346D02*
D03*
Y192346D02*
D03*
X146000Y178346D02*
D03*
Y191346D02*
D03*
X48000Y174346D02*
D03*
Y187346D02*
D03*
D39*
X1515000Y196500D02*
D03*
Y215500D02*
D03*
X1495000Y206000D02*
D03*
X1667000Y182500D02*
D03*
Y201500D02*
D03*
X1647000Y192000D02*
D03*
D40*
X875114Y865000D02*
D03*
X884614Y841000D02*
D03*
X865614D02*
D03*
X1209695Y865000D02*
D03*
X1219195Y841000D02*
D03*
X1200196D02*
D03*
X1321223Y865000D02*
D03*
X1330723Y841000D02*
D03*
X1311723D02*
D03*
X986641Y865000D02*
D03*
X996141Y841000D02*
D03*
X977141D02*
D03*
X1432750Y865000D02*
D03*
X1442250Y841000D02*
D03*
X1423250D02*
D03*
X1098168Y865000D02*
D03*
X1107668Y841000D02*
D03*
X1088668D02*
D03*
X216500Y864718D02*
D03*
X226000Y840718D02*
D03*
X207000D02*
D03*
X551081Y864718D02*
D03*
X560582Y840718D02*
D03*
X541581D02*
D03*
X662609Y864718D02*
D03*
X672109Y840718D02*
D03*
X653109D02*
D03*
X328027Y864718D02*
D03*
X337527Y840718D02*
D03*
X318527D02*
D03*
X774136Y864718D02*
D03*
X783636Y840718D02*
D03*
X764636D02*
D03*
X439554Y864718D02*
D03*
X449054Y840718D02*
D03*
X430055D02*
D03*
D41*
X881504Y916000D02*
D03*
X1213504Y920000D02*
D03*
X1323504Y919000D02*
D03*
X993504D02*
D03*
X1434504Y918000D02*
D03*
X1104504Y917000D02*
D03*
X219504Y916000D02*
D03*
X551504Y920000D02*
D03*
X661504Y919000D02*
D03*
X331503D02*
D03*
X772504Y918000D02*
D03*
X442504Y917000D02*
D03*
D42*
X847496Y916000D02*
D03*
X1179496Y920000D02*
D03*
X1289496Y919000D02*
D03*
X959496D02*
D03*
X1400497Y918000D02*
D03*
X1070496Y917000D02*
D03*
X185496Y916000D02*
D03*
X517497Y920000D02*
D03*
X627496Y919000D02*
D03*
X297496D02*
D03*
X738496Y918000D02*
D03*
X408497Y917000D02*
D03*
D43*
X1545000Y276500D02*
D03*
Y257500D02*
D03*
X1638000Y251500D02*
D03*
Y232500D02*
D03*
D44*
X1689000Y731750D02*
D03*
Y746250D02*
D03*
X1934446Y730500D02*
D03*
Y745000D02*
D03*
X1632000Y827750D02*
D03*
Y842250D02*
D03*
X1884000Y831750D02*
D03*
Y846250D02*
D03*
X1804000Y731750D02*
D03*
Y746250D02*
D03*
X1570750Y731500D02*
D03*
Y746000D02*
D03*
X1751000Y832750D02*
D03*
Y847250D02*
D03*
X1516750Y829500D02*
D03*
Y844000D02*
D03*
D61*
X1744400Y689000D02*
D03*
X1719000Y663600D02*
D03*
X1959750Y690400D02*
D03*
X1934350Y665000D02*
D03*
X1858750Y689400D02*
D03*
X1833350Y664000D02*
D03*
X1624750Y687750D02*
D03*
X1599350Y662350D02*
D03*
D62*
X1744400Y638200D02*
D03*
X1959750Y639600D02*
D03*
X1858750Y638600D02*
D03*
X1624750Y636950D02*
D03*
D74*
X1875800Y979000D02*
D03*
X1913900D02*
D03*
X1750000D02*
D03*
X1788100D02*
D03*
X1626000Y978000D02*
D03*
X1664100D02*
D03*
X1502900Y979000D02*
D03*
X1541000D02*
D03*
X1713000Y70000D02*
D03*
X1751100D02*
D03*
X1880000Y71000D02*
D03*
X1841900D02*
D03*
D75*
X1952000Y979000D02*
D03*
X1826200D02*
D03*
X1702200Y978000D02*
D03*
X1579100Y979000D02*
D03*
X1674900Y70000D02*
D03*
X1918100Y71000D02*
D03*
D76*
X820400Y569795D02*
D03*
X795000D02*
D03*
X769600D02*
D03*
X744200D02*
D03*
X718800D02*
D03*
X693400D02*
D03*
X668000D02*
D03*
X642600D02*
D03*
X617200D02*
D03*
X591800D02*
D03*
X566400D02*
D03*
X541000D02*
D03*
X515600D02*
D03*
Y531000D02*
D03*
X541000D02*
D03*
X566400D02*
D03*
X591800D02*
D03*
X617200D02*
D03*
X642600D02*
D03*
X668000D02*
D03*
X693400D02*
D03*
X718800D02*
D03*
X744200D02*
D03*
X769600D02*
D03*
X795000D02*
D03*
X820400D02*
D03*
X845800D02*
D03*
X871200D02*
D03*
X896600D02*
D03*
X922000D02*
D03*
X947400D02*
D03*
X972800D02*
D03*
X1582600Y545000D02*
D03*
X1608000Y519600D02*
D03*
Y545000D02*
D03*
X1633400Y519600D02*
D03*
Y545000D02*
D03*
X1658800Y519600D02*
D03*
Y545000D02*
D03*
X1684200Y519600D02*
D03*
Y545000D02*
D03*
X1709600Y519600D02*
D03*
Y545000D02*
D03*
X1735000Y519600D02*
D03*
Y545000D02*
D03*
X1760400Y519600D02*
D03*
Y545000D02*
D03*
X1785800Y519600D02*
D03*
Y545000D02*
D03*
X1811200Y519600D02*
D03*
Y545000D02*
D03*
D77*
X490200Y569795D02*
D03*
Y531000D02*
D03*
X1582600Y519600D02*
D03*
D78*
X1572950Y111000D02*
D03*
X1475290Y110104D02*
D03*
D79*
X1611050Y111000D02*
D03*
X1513390Y110104D02*
D03*
D80*
X833075Y977153D02*
D03*
X1163090D02*
D03*
X1273095D02*
D03*
X943080D02*
D03*
X1383100D02*
D03*
X1053085D02*
D03*
X61070D02*
D03*
X171075D02*
D03*
X501090D02*
D03*
X611095D02*
D03*
X281080D02*
D03*
X721100D02*
D03*
X391085D02*
D03*
X1411800Y69000D02*
D03*
X1301760D02*
D03*
X1191720D02*
D03*
X1081680Y69230D02*
D03*
X975400Y69000D02*
D03*
X865360D02*
D03*
X755320D02*
D03*
X645280Y69230D02*
D03*
X536400Y67846D02*
D03*
X426360D02*
D03*
X316320D02*
D03*
X206280Y68076D02*
D03*
D81*
X883875Y977153D02*
D03*
X1213890D02*
D03*
X1323895D02*
D03*
X993880D02*
D03*
X1433900D02*
D03*
X1103885D02*
D03*
X111870D02*
D03*
X221875D02*
D03*
X551890D02*
D03*
X661895D02*
D03*
X331880D02*
D03*
X771900D02*
D03*
X441885D02*
D03*
X1361000Y69000D02*
D03*
X1250960D02*
D03*
X1140920D02*
D03*
X1030880Y69230D02*
D03*
X924600Y69000D02*
D03*
X814560D02*
D03*
X704520D02*
D03*
X594480Y69230D02*
D03*
X485600Y67846D02*
D03*
X375560D02*
D03*
X265520D02*
D03*
X155480Y68076D02*
D03*
M02*
