G04*
G04 #@! TF.GenerationSoftware,Altium Limited,Altium Designer,22.5.1 (42)*
G04*
G04 Layer_Color=32896*
%FSLAX44Y44*%
%MOMM*%
G71*
G04*
G04 #@! TF.SameCoordinates,7A6E188A-B59B-493B-9E93-54DEAC03D458*
G04*
G04*
G04 #@! TF.FilePolarity,Positive*
G04*
G01*
G75*
%ADD95C,0.1000*%
D95*
X513000Y419233D02*
Y429233D01*
X508000Y424233D02*
X518000D01*
X1412000Y918000D02*
X1422000D01*
X1417000Y913000D02*
Y923000D01*
X1184500Y919000D02*
X1194500D01*
X1189500Y914000D02*
Y924000D01*
X1075500Y919000D02*
X1085500D01*
X1080500Y914000D02*
Y924000D01*
X970950Y919000D02*
X980950D01*
X975950Y914000D02*
Y924000D01*
X854500Y919000D02*
X864500D01*
X859500Y914000D02*
Y924000D01*
X750000Y918000D02*
X760000D01*
X755000Y913000D02*
Y923000D01*
X522500Y919000D02*
X532500D01*
X527500Y914000D02*
Y924000D01*
X413500Y919000D02*
X423500D01*
X418500Y914000D02*
Y924000D01*
X308950Y919000D02*
X318950D01*
X313950Y914000D02*
Y924000D01*
X192500Y919000D02*
X202500D01*
X197500Y914000D02*
Y924000D01*
X1536000Y169000D02*
Y179000D01*
X1531000Y174000D02*
X1541000D01*
X998000Y436000D02*
X1008000D01*
X1003000Y431000D02*
Y441000D01*
X969000Y438000D02*
X979000D01*
X974000Y433000D02*
Y443000D01*
X1018000Y236000D02*
X1028000D01*
X1023000Y231000D02*
Y241000D01*
X895000Y434233D02*
X905000D01*
X900000Y429233D02*
Y439233D01*
X871000Y436000D02*
X881000D01*
X876000Y431000D02*
Y441000D01*
X921000Y245000D02*
X931000D01*
X926000Y240000D02*
Y250000D01*
X799000Y431000D02*
X809000D01*
X804000Y426000D02*
Y436000D01*
X770000Y432000D02*
X780000D01*
X775000Y427000D02*
Y437000D01*
X824000Y242000D02*
X834000D01*
X829000Y237000D02*
Y247000D01*
X702000Y432000D02*
X712000D01*
X707000Y427000D02*
Y437000D01*
X677000Y433846D02*
X687000D01*
X682000Y428846D02*
Y438846D01*
X728000Y238000D02*
X738000D01*
X733000Y233000D02*
Y243000D01*
X605000Y413000D02*
X615000D01*
X610000Y408000D02*
Y418000D01*
X579000Y415000D02*
X589000D01*
X584000Y410000D02*
Y420000D01*
X630000Y239000D02*
X640000D01*
X635000Y234000D02*
Y244000D01*
X476000Y426000D02*
X486000D01*
X481000Y421000D02*
Y431000D01*
X533000Y244000D02*
X543000D01*
X538000Y239000D02*
Y249000D01*
X1298500Y913000D02*
Y923000D01*
X1293500Y918000D02*
X1303500D01*
X636500Y913000D02*
Y923000D01*
X631500Y918000D02*
X641500D01*
M02*
