G04*
G04 #@! TF.GenerationSoftware,Altium Limited,Altium Designer,22.5.1 (42)*
G04*
G04 Layer_Color=0*
%FSLAX44Y44*%
%MOMM*%
G71*
G04*
G04 #@! TF.SameCoordinates,7A6E188A-B59B-493B-9E93-54DEAC03D458*
G04*
G04*
G04 #@! TF.FilePolarity,Positive*
G04*
G01*
G75*
%ADD95C,0.1000*%
%ADD96C,0.0500*%
D95*
X1866000Y919000D02*
X1876000D01*
X1871000Y914000D02*
Y924000D01*
X1902000Y919000D02*
X1912000D01*
X1907000Y914000D02*
Y924000D01*
X1922000Y893000D02*
X1932000D01*
X1927000Y888000D02*
Y898000D01*
X1897500Y369854D02*
X1907500D01*
X1902500Y364854D02*
Y374854D01*
X1753450Y195000D02*
X1763450D01*
X1758450Y190000D02*
Y200000D01*
X1842000Y195000D02*
X1852000D01*
X1847000Y190000D02*
Y200000D01*
X1680219Y388887D02*
X1690219D01*
X1685219Y383887D02*
Y393887D01*
X1572000Y202000D02*
Y212000D01*
X1567000Y207000D02*
X1577000D01*
X1677000Y815000D02*
X1687000D01*
X1682000Y810000D02*
Y820000D01*
X1923629D02*
X1933629D01*
X1928629Y815000D02*
Y825000D01*
X1793000Y820000D02*
X1803000D01*
X1798000Y815000D02*
Y825000D01*
X1559750Y816750D02*
X1569750D01*
X1564750Y811750D02*
Y821750D01*
X1510000Y267000D02*
X1520000D01*
X1515000Y262000D02*
Y272000D01*
X1662000Y243500D02*
X1672000D01*
X1667000Y238500D02*
Y248500D01*
X1629000Y918000D02*
Y928000D01*
X1624000Y923000D02*
X1634000D01*
X1731650Y655860D02*
Y671340D01*
X1723910Y663600D02*
X1739390D01*
X1664000Y918000D02*
Y928000D01*
X1659000Y923000D02*
X1669000D01*
X1947000Y657260D02*
Y672740D01*
X1939260Y665000D02*
X1954740D01*
X1714000Y737750D02*
X1724000D01*
X1719000Y732750D02*
Y742750D01*
X1961914Y737894D02*
X1971914D01*
X1966914Y732895D02*
Y742895D01*
X1680000Y889000D02*
Y899000D01*
X1675000Y894000D02*
X1685000D01*
X1699000Y919000D02*
Y929000D01*
X1694000Y924000D02*
X1704000D01*
X1944000Y916000D02*
Y926000D01*
X1939000Y921000D02*
X1949000D01*
X1743000Y918000D02*
Y928000D01*
X1738000Y923000D02*
X1748000D01*
X1512000Y920000D02*
Y930000D01*
X1507000Y925000D02*
X1517000D01*
X1846000Y656260D02*
Y671740D01*
X1838260Y664000D02*
X1853740D01*
X1612000Y654610D02*
Y670090D01*
X1604260Y662350D02*
X1619740D01*
X1780000Y918000D02*
Y928000D01*
X1775000Y923000D02*
X1785000D01*
X1548000Y920000D02*
Y930000D01*
X1543000Y925000D02*
X1553000D01*
X1831000Y737000D02*
X1841000D01*
X1836000Y732000D02*
Y742000D01*
X1594750Y736500D02*
X1604750D01*
X1599750Y731500D02*
Y741500D01*
X1796000Y886000D02*
Y896000D01*
X1791000Y891000D02*
X1801000D01*
X1563000Y887000D02*
Y897000D01*
X1558000Y892000D02*
X1568000D01*
X1816000Y918000D02*
Y928000D01*
X1811000Y923000D02*
X1821000D01*
X1585000Y921000D02*
Y931000D01*
X1580000Y926000D02*
X1590000D01*
X824114Y858282D02*
X834114D01*
X829114Y853281D02*
Y863281D01*
X873500Y883000D02*
Y893000D01*
X868500Y888000D02*
X878500D01*
X1158696Y858282D02*
X1168696D01*
X1163695Y853281D02*
Y863281D01*
X1208750Y885000D02*
Y895000D01*
X1203750Y890000D02*
X1213750D01*
X1270222Y858282D02*
X1280222D01*
X1275223Y853281D02*
Y863281D01*
X1316750Y878000D02*
Y888000D01*
X1311750Y883000D02*
X1321750D01*
X935641Y858282D02*
X945641D01*
X940641Y853281D02*
Y863281D01*
X986750Y887000D02*
Y897000D01*
X981750Y892000D02*
X991750D01*
X1381750Y858282D02*
X1391750D01*
X1386750Y853281D02*
Y863281D01*
X1428500Y883000D02*
Y893000D01*
X1423500Y888000D02*
X1433500D01*
X1047168Y858282D02*
X1057168D01*
X1052168Y853281D02*
Y863281D01*
X1097904Y885000D02*
Y895000D01*
X1092904Y890000D02*
X1102904D01*
X165500Y858000D02*
X175500D01*
X170500Y853000D02*
Y863000D01*
X500081Y858000D02*
X510081D01*
X505081Y853000D02*
Y863000D01*
X211500Y883000D02*
Y893000D01*
X206500Y888000D02*
X216500D01*
X545500D02*
Y898000D01*
X540500Y893000D02*
X550500D01*
X611609Y858000D02*
X621609D01*
X616609Y853000D02*
Y863000D01*
X655654Y878000D02*
Y888000D01*
X650654Y883000D02*
X660654D01*
X277027Y858000D02*
X287027D01*
X282027Y853000D02*
Y863000D01*
X325500Y884000D02*
Y894000D01*
X320500Y889000D02*
X330500D01*
X723136Y858000D02*
X733136D01*
X728136Y853000D02*
Y863000D01*
X388554Y858000D02*
X398554D01*
X393554Y853000D02*
Y863000D01*
X766500Y883000D02*
Y893000D01*
X761500Y888000D02*
X771500D01*
X435500Y882000D02*
Y892000D01*
X430500Y887000D02*
X440500D01*
X1434400Y436000D02*
X1444400D01*
X1439400Y431000D02*
Y441000D01*
X1405400Y438000D02*
X1415400D01*
X1410400Y433000D02*
Y443000D01*
X1403400Y233000D02*
X1413400D01*
X1408400Y228000D02*
Y238000D01*
X1331400Y434233D02*
X1341400D01*
X1336400Y429233D02*
Y439233D01*
X1307400Y436000D02*
X1317400D01*
X1312400Y431000D02*
Y441000D01*
X1307400Y245000D02*
X1317400D01*
X1312400Y240000D02*
Y250000D01*
X1235400Y431000D02*
X1245400D01*
X1240400Y426000D02*
Y436000D01*
X1206400Y432000D02*
X1216400D01*
X1211400Y427000D02*
Y437000D01*
X1210400Y242000D02*
X1220400D01*
X1215400Y237000D02*
Y247000D01*
X1138400Y432000D02*
X1148400D01*
X1143400Y427000D02*
Y437000D01*
X1113400Y433846D02*
X1123400D01*
X1118400Y428846D02*
Y438846D01*
X1112400Y240000D02*
X1122400D01*
X1117400Y235000D02*
Y245000D01*
X1041400Y413000D02*
X1051400D01*
X1046400Y408000D02*
Y418000D01*
X1015400Y415000D02*
X1025400D01*
X1020400Y410000D02*
Y420000D01*
X1016400Y241000D02*
X1026400D01*
X1021400Y236000D02*
Y246000D01*
X944400Y424233D02*
X954400D01*
X949400Y419233D02*
Y429233D01*
X912400Y426000D02*
X922400D01*
X917400Y421000D02*
Y431000D01*
X918400Y241000D02*
X928400D01*
X923400Y236000D02*
Y246000D01*
X559000Y434846D02*
X569000D01*
X564000Y429846D02*
Y439846D01*
X530000Y436846D02*
X540000D01*
X535000Y431846D02*
Y441846D01*
X528000Y231846D02*
X538000D01*
X533000Y226846D02*
Y236846D01*
X456000Y433079D02*
X466000D01*
X461000Y428079D02*
Y438079D01*
X432000Y434846D02*
X442000D01*
X437000Y429846D02*
Y439846D01*
X432000Y243846D02*
X442000D01*
X437000Y238846D02*
Y248846D01*
X360000Y429846D02*
X370000D01*
X365000Y424846D02*
Y434846D01*
X331000Y430846D02*
X341000D01*
X336000Y425846D02*
Y435846D01*
X335000Y240846D02*
X345000D01*
X340000Y235846D02*
Y245846D01*
X263000Y430846D02*
X273000D01*
X268000Y425846D02*
Y435846D01*
X238000Y432692D02*
X248000D01*
X243000Y427692D02*
Y437692D01*
X237000Y238846D02*
X247000D01*
X242000Y233846D02*
Y243846D01*
X166000Y411846D02*
X176000D01*
X171000Y406846D02*
Y416846D01*
X140000Y413846D02*
X150000D01*
X145000Y408846D02*
Y418846D01*
X141000Y239846D02*
X151000D01*
X146000Y234846D02*
Y244846D01*
X69000Y423079D02*
X79000D01*
X74000Y418079D02*
Y428079D01*
X37000Y424846D02*
X47000D01*
X42000Y419846D02*
Y429846D01*
X43000Y239846D02*
X53000D01*
X48000Y234846D02*
Y244846D01*
X870114Y853000D02*
X880114D01*
X875114Y848000D02*
Y858000D01*
X1204696Y853000D02*
X1214696D01*
X1209695Y848000D02*
Y858000D01*
X1316222Y853000D02*
X1326222D01*
X1321223Y848000D02*
Y858000D01*
X981641Y853000D02*
X991641D01*
X986641Y848000D02*
Y858000D01*
X1427750Y853000D02*
X1437750D01*
X1432750Y848000D02*
Y858000D01*
X1093168Y853000D02*
X1103168D01*
X1098168Y848000D02*
Y858000D01*
X211500Y852718D02*
X221500D01*
X216500Y847718D02*
Y857718D01*
X546082Y852718D02*
X556082D01*
X551081Y847718D02*
Y857718D01*
X657608Y852718D02*
X667608D01*
X662609Y847718D02*
Y857718D01*
X323027Y852718D02*
X333027D01*
X328027Y847718D02*
Y857718D01*
X769136Y852718D02*
X779136D01*
X774136Y847718D02*
Y857718D01*
X434554Y852718D02*
X444554D01*
X439554Y847718D02*
Y857718D01*
X864500Y911000D02*
Y921000D01*
X859500Y916000D02*
X869500D01*
X1196500Y915000D02*
Y925000D01*
X1191500Y920000D02*
X1201500D01*
X1306500Y914000D02*
Y924000D01*
X1301500Y919000D02*
X1311500D01*
X976500Y914000D02*
Y924000D01*
X971500Y919000D02*
X981500D01*
X1417500Y913000D02*
Y923000D01*
X1412500Y918000D02*
X1422500D01*
X1087500Y912000D02*
Y922000D01*
X1082500Y917000D02*
X1092500D01*
X202500Y911000D02*
Y921000D01*
X197500Y916000D02*
X207500D01*
X534500Y915000D02*
Y925000D01*
X529500Y920000D02*
X539500D01*
X644500Y914000D02*
Y924000D01*
X639500Y919000D02*
X649500D01*
X314500Y914000D02*
Y924000D01*
X309500Y919000D02*
X319500D01*
X755500Y913000D02*
Y923000D01*
X750500Y918000D02*
X760500D01*
X425500Y912000D02*
Y922000D01*
X420500Y917000D02*
X430500D01*
D96*
X1587000Y77000D02*
X1597000D01*
X1592000Y72000D02*
Y82000D01*
X1489340Y76104D02*
X1499340D01*
X1494340Y71104D02*
Y81104D01*
M02*
