G04*
G04 #@! TF.GenerationSoftware,Altium Limited,Altium Designer,22.5.1 (42)*
G04*
G04 Layer_Physical_Order=2*
G04 Layer_Color=16711680*
%FSLAX44Y44*%
%MOMM*%
G71*
G04*
G04 #@! TF.SameCoordinates,7A6E188A-B59B-493B-9E93-54DEAC03D458*
G04*
G04*
G04 #@! TF.FilePolarity,Positive*
G04*
G01*
G75*
%ADD14R,0.9000X1.0000*%
%ADD15R,1.4500X1.7000*%
%ADD36R,0.8121X0.6587*%
%ADD37R,1.0621X1.1350*%
%ADD38R,0.8000X0.6000*%
%ADD61C,1.2000*%
%ADD62R,1.2000X1.2000*%
%ADD71C,0.2540*%
%ADD72C,0.2540*%
%ADD73C,0.5080*%
%ADD74C,1.6500*%
%ADD75R,1.6500X1.6500*%
%ADD76C,1.5000*%
%ADD77R,1.5000X1.5000*%
G04:AMPARAMS|DCode=78|XSize=2.1mm|YSize=2.1mm|CornerRadius=0.525mm|HoleSize=0mm|Usage=FLASHONLY|Rotation=0.000|XOffset=0mm|YOffset=0mm|HoleType=Round|Shape=RoundedRectangle|*
%AMROUNDEDRECTD78*
21,1,2.1000,1.0500,0,0,0.0*
21,1,1.0500,2.1000,0,0,0.0*
1,1,1.0500,0.5250,-0.5250*
1,1,1.0500,-0.5250,-0.5250*
1,1,1.0500,-0.5250,0.5250*
1,1,1.0500,0.5250,0.5250*
%
%ADD78ROUNDEDRECTD78*%
%ADD79C,2.1000*%
%ADD80C,1.8000*%
%ADD81R,1.8000X1.8000*%
%ADD82C,1.2700*%
%ADD83C,0.8000*%
%ADD84C,0.2032*%
%ADD85R,1.1000X0.9500*%
%ADD86R,0.9500X1.1000*%
%ADD87R,2.1600X2.2600*%
%ADD88R,1.4562X1.3046*%
%ADD89R,0.3000X0.7000*%
%ADD90R,2.3500X1.5800*%
G36*
X1952009Y1019024D02*
X1956631Y1017109D01*
X1960791Y1014329D01*
X1964329Y1010791D01*
X1967109Y1006631D01*
X1969024Y1002009D01*
X1970000Y997102D01*
Y994600D01*
Y874180D01*
X1887964D01*
X1887469Y874674D01*
X1885978Y875535D01*
X1884314Y875981D01*
X1882592D01*
X1880929Y875535D01*
X1879438Y874674D01*
X1878943Y874180D01*
X1755069D01*
X1755016Y874233D01*
X1753524Y875094D01*
X1751861Y875540D01*
X1750139D01*
X1748476Y875094D01*
X1746984Y874233D01*
X1746931Y874180D01*
X1636069D01*
X1636016Y874233D01*
X1634524Y875094D01*
X1632861Y875540D01*
X1631139D01*
X1629476Y875094D01*
X1627984Y874233D01*
X1627931Y874180D01*
X1523000D01*
X1522942Y874168D01*
X1520108Y873795D01*
X1517412Y872678D01*
X1515098Y870902D01*
X1513322Y868588D01*
X1512205Y865892D01*
X1511832Y863058D01*
X1511821Y863000D01*
Y861069D01*
X1511767Y861016D01*
X1510906Y859524D01*
X1510460Y857861D01*
Y856139D01*
X1510906Y854476D01*
X1511767Y852984D01*
X1512984Y851767D01*
X1514476Y850906D01*
X1516139Y850460D01*
X1517861D01*
X1519524Y850906D01*
X1521016Y851767D01*
X1522233Y852984D01*
X1523094Y854476D01*
X1523540Y856139D01*
Y857861D01*
X1523094Y859524D01*
X1522233Y861016D01*
X1522180Y861069D01*
Y862929D01*
X1522607Y863393D01*
X1523071Y863820D01*
X1627931D01*
X1627984Y863767D01*
X1629476Y862906D01*
X1631139Y862460D01*
X1632861D01*
X1634524Y862906D01*
X1636016Y863767D01*
X1636069Y863820D01*
X1746931D01*
X1746984Y863767D01*
X1748476Y862906D01*
X1750139Y862460D01*
X1751861D01*
X1753524Y862906D01*
X1755016Y863767D01*
X1755069Y863820D01*
X1880108D01*
X1880929Y863347D01*
X1882592Y862901D01*
X1884314D01*
X1885978Y863347D01*
X1886798Y863820D01*
X1970000D01*
Y55400D01*
Y52898D01*
X1969024Y47991D01*
X1967109Y43369D01*
X1964329Y39208D01*
X1960791Y35670D01*
X1956631Y32891D01*
X1952009Y30976D01*
X1947102Y30000D01*
X48030D01*
X44166Y30769D01*
X40526Y32276D01*
X37251Y34465D01*
X34465Y37251D01*
X32276Y40526D01*
X30769Y44166D01*
X30000Y48030D01*
Y50000D01*
Y997000D01*
Y999265D01*
X30884Y1003709D01*
X32618Y1007895D01*
X35135Y1011662D01*
X38338Y1014865D01*
X42105Y1017382D01*
X46291Y1019116D01*
X50735Y1020000D01*
X1947102D01*
X1952009Y1019024D01*
D02*
G37*
%LPC*%
G36*
X1504321Y989790D02*
X1504170D01*
Y980270D01*
X1513690D01*
Y980420D01*
X1512955Y983165D01*
X1511534Y985625D01*
X1509525Y987634D01*
X1507065Y989054D01*
X1504321Y989790D01*
D02*
G37*
G36*
X1751421D02*
X1751270D01*
Y980270D01*
X1760790D01*
Y980420D01*
X1760055Y983165D01*
X1758634Y985625D01*
X1756625Y987634D01*
X1754165Y989054D01*
X1751421Y989790D01*
D02*
G37*
G36*
X1877221D02*
X1877070D01*
Y980270D01*
X1886590D01*
Y980420D01*
X1885855Y983165D01*
X1884434Y985625D01*
X1882425Y987634D01*
X1879965Y989054D01*
X1877221Y989790D01*
D02*
G37*
G36*
X1748730D02*
X1748580D01*
X1745835Y989054D01*
X1743375Y987634D01*
X1741366Y985625D01*
X1739945Y983165D01*
X1739210Y980420D01*
Y980270D01*
X1748730D01*
Y989790D01*
D02*
G37*
G36*
X1874530D02*
X1874380D01*
X1871635Y989054D01*
X1869175Y987634D01*
X1867166Y985625D01*
X1865746Y983165D01*
X1865010Y980420D01*
Y980270D01*
X1874530D01*
Y989790D01*
D02*
G37*
G36*
X1501630D02*
X1501480D01*
X1498735Y989054D01*
X1496275Y987634D01*
X1494266Y985625D01*
X1492845Y983165D01*
X1492110Y980420D01*
Y980270D01*
X1501630D01*
Y989790D01*
D02*
G37*
G36*
X1627420Y988790D02*
X1627270D01*
Y979270D01*
X1636790D01*
Y979421D01*
X1636055Y982165D01*
X1634634Y984625D01*
X1632625Y986634D01*
X1630165Y988055D01*
X1627420Y988790D01*
D02*
G37*
G36*
X1624730D02*
X1624579D01*
X1621835Y988055D01*
X1619375Y986634D01*
X1617366Y984625D01*
X1615945Y982165D01*
X1615210Y979421D01*
Y979270D01*
X1624730D01*
Y988790D01*
D02*
G37*
G36*
X123410Y988693D02*
X113140D01*
Y978423D01*
X123410D01*
Y988693D01*
D02*
G37*
G36*
X110600D02*
X100330D01*
Y978423D01*
X110600D01*
Y988693D01*
D02*
G37*
G36*
X1962790Y989790D02*
X1941210D01*
Y968210D01*
X1962790D01*
Y989790D01*
D02*
G37*
G36*
X1915321D02*
X1912480D01*
X1909735Y989054D01*
X1907275Y987634D01*
X1905266Y985625D01*
X1903846Y983165D01*
X1903110Y980420D01*
Y977579D01*
X1903846Y974835D01*
X1905266Y972375D01*
X1907275Y970366D01*
X1909735Y968945D01*
X1912480Y968210D01*
X1915321D01*
X1918065Y968945D01*
X1920525Y970366D01*
X1922534Y972375D01*
X1923955Y974835D01*
X1924690Y977579D01*
Y980420D01*
X1923955Y983165D01*
X1922534Y985625D01*
X1920525Y987634D01*
X1918065Y989054D01*
X1915321Y989790D01*
D02*
G37*
G36*
X1886590Y977730D02*
X1877070D01*
Y968210D01*
X1877221D01*
X1879965Y968945D01*
X1882425Y970366D01*
X1884434Y972375D01*
X1885855Y974835D01*
X1886590Y977579D01*
Y977730D01*
D02*
G37*
G36*
X1874530D02*
X1865010D01*
Y977579D01*
X1865746Y974835D01*
X1867166Y972375D01*
X1869175Y970366D01*
X1871635Y968945D01*
X1874380Y968210D01*
X1874530D01*
Y977730D01*
D02*
G37*
G36*
X1836990Y989790D02*
X1815410D01*
Y968210D01*
X1836990D01*
Y989790D01*
D02*
G37*
G36*
X1789521D02*
X1786680D01*
X1783935Y989054D01*
X1781475Y987634D01*
X1779466Y985625D01*
X1778045Y983165D01*
X1777310Y980420D01*
Y977579D01*
X1778045Y974835D01*
X1779466Y972375D01*
X1781475Y970366D01*
X1783935Y968945D01*
X1786680Y968210D01*
X1789521D01*
X1792265Y968945D01*
X1794725Y970366D01*
X1796734Y972375D01*
X1798155Y974835D01*
X1798890Y977579D01*
Y980420D01*
X1798155Y983165D01*
X1796734Y985625D01*
X1794725Y987634D01*
X1792265Y989054D01*
X1789521Y989790D01*
D02*
G37*
G36*
X1760790Y977730D02*
X1751270D01*
Y968210D01*
X1751421D01*
X1754165Y968945D01*
X1756625Y970366D01*
X1758634Y972375D01*
X1760055Y974835D01*
X1760790Y977579D01*
Y977730D01*
D02*
G37*
G36*
X1748730D02*
X1739210D01*
Y977579D01*
X1739945Y974835D01*
X1741366Y972375D01*
X1743375Y970366D01*
X1745835Y968945D01*
X1748580Y968210D01*
X1748730D01*
Y977730D01*
D02*
G37*
G36*
X1589890Y989790D02*
X1568310D01*
Y968210D01*
X1589890D01*
Y989790D01*
D02*
G37*
G36*
X1542421D02*
X1539580D01*
X1536835Y989054D01*
X1534375Y987634D01*
X1532366Y985625D01*
X1530945Y983165D01*
X1530210Y980420D01*
Y977579D01*
X1530945Y974835D01*
X1532366Y972375D01*
X1534375Y970366D01*
X1536835Y968945D01*
X1539580Y968210D01*
X1542421D01*
X1545165Y968945D01*
X1547625Y970366D01*
X1549634Y972375D01*
X1551055Y974835D01*
X1551790Y977579D01*
Y980420D01*
X1551055Y983165D01*
X1549634Y985625D01*
X1547625Y987634D01*
X1545165Y989054D01*
X1542421Y989790D01*
D02*
G37*
G36*
X1513690Y977730D02*
X1504170D01*
Y968210D01*
X1504321D01*
X1507065Y968945D01*
X1509525Y970366D01*
X1511534Y972375D01*
X1512955Y974835D01*
X1513690Y977579D01*
Y977730D01*
D02*
G37*
G36*
X1501630D02*
X1492110D01*
Y977579D01*
X1492845Y974835D01*
X1494266Y972375D01*
X1496275Y970366D01*
X1498735Y968945D01*
X1501480Y968210D01*
X1501630D01*
Y977730D01*
D02*
G37*
G36*
X1712990Y988790D02*
X1691410D01*
Y967210D01*
X1712990D01*
Y988790D01*
D02*
G37*
G36*
X1665520D02*
X1662679D01*
X1659935Y988055D01*
X1657475Y986634D01*
X1655466Y984625D01*
X1654045Y982165D01*
X1653310Y979421D01*
Y976580D01*
X1654045Y973835D01*
X1655466Y971375D01*
X1657475Y969366D01*
X1659935Y967945D01*
X1662679Y967210D01*
X1665520D01*
X1668265Y967945D01*
X1670725Y969366D01*
X1672734Y971375D01*
X1674155Y973835D01*
X1674890Y976580D01*
Y979421D01*
X1674155Y982165D01*
X1672734Y984625D01*
X1670725Y986634D01*
X1668265Y988055D01*
X1665520Y988790D01*
D02*
G37*
G36*
X1636790Y976730D02*
X1627270D01*
Y967210D01*
X1627420D01*
X1630165Y967945D01*
X1632625Y969366D01*
X1634634Y971375D01*
X1636055Y973835D01*
X1636790Y976580D01*
Y976730D01*
D02*
G37*
G36*
X1624730D02*
X1615210D01*
Y976580D01*
X1615945Y973835D01*
X1617366Y971375D01*
X1619375Y969366D01*
X1621835Y967945D01*
X1624579Y967210D01*
X1624730D01*
Y976730D01*
D02*
G37*
G36*
X1384619Y988693D02*
X1381581D01*
X1378646Y987907D01*
X1376014Y986387D01*
X1373866Y984239D01*
X1372347Y981608D01*
X1371560Y978672D01*
Y975634D01*
X1372347Y972699D01*
X1373866Y970068D01*
X1376014Y967919D01*
X1378646Y966400D01*
X1381581Y965613D01*
X1384619D01*
X1387554Y966400D01*
X1390186Y967919D01*
X1392334Y970068D01*
X1393854Y972699D01*
X1394640Y975634D01*
Y978672D01*
X1393854Y981608D01*
X1392334Y984239D01*
X1390186Y986387D01*
X1387554Y987907D01*
X1384619Y988693D01*
D02*
G37*
G36*
X1274614D02*
X1271575D01*
X1268641Y987907D01*
X1266009Y986387D01*
X1263860Y984239D01*
X1262341Y981608D01*
X1261555Y978672D01*
Y975634D01*
X1262341Y972699D01*
X1263860Y970068D01*
X1266009Y967919D01*
X1268641Y966400D01*
X1271575Y965613D01*
X1274614D01*
X1277549Y966400D01*
X1280180Y967919D01*
X1282329Y970068D01*
X1283848Y972699D01*
X1284635Y975634D01*
Y978672D01*
X1283848Y981608D01*
X1282329Y984239D01*
X1280180Y986387D01*
X1277549Y987907D01*
X1274614Y988693D01*
D02*
G37*
G36*
X1164609D02*
X1161571D01*
X1158636Y987907D01*
X1156004Y986387D01*
X1153856Y984239D01*
X1152336Y981608D01*
X1151550Y978672D01*
Y975634D01*
X1152336Y972699D01*
X1153856Y970068D01*
X1156004Y967919D01*
X1158636Y966400D01*
X1161571Y965613D01*
X1164609D01*
X1167544Y966400D01*
X1170176Y967919D01*
X1172324Y970068D01*
X1173843Y972699D01*
X1174630Y975634D01*
Y978672D01*
X1173843Y981608D01*
X1172324Y984239D01*
X1170176Y986387D01*
X1167544Y987907D01*
X1164609Y988693D01*
D02*
G37*
G36*
X1054604D02*
X1051566D01*
X1048631Y987907D01*
X1045999Y986387D01*
X1043851Y984239D01*
X1042331Y981608D01*
X1041545Y978672D01*
Y975634D01*
X1042331Y972699D01*
X1043851Y970068D01*
X1045999Y967919D01*
X1048631Y966400D01*
X1051566Y965613D01*
X1054604D01*
X1057539Y966400D01*
X1060171Y967919D01*
X1062319Y970068D01*
X1063839Y972699D01*
X1064625Y975634D01*
Y978672D01*
X1063839Y981608D01*
X1062319Y984239D01*
X1060171Y986387D01*
X1057539Y987907D01*
X1054604Y988693D01*
D02*
G37*
G36*
X944599D02*
X941560D01*
X938625Y987907D01*
X935994Y986387D01*
X933845Y984239D01*
X932326Y981608D01*
X931540Y978672D01*
Y975634D01*
X932326Y972699D01*
X933845Y970068D01*
X935994Y967919D01*
X938625Y966400D01*
X941560Y965613D01*
X944599D01*
X947534Y966400D01*
X950165Y967919D01*
X952314Y970068D01*
X953833Y972699D01*
X954620Y975634D01*
Y978672D01*
X953833Y981608D01*
X952314Y984239D01*
X950165Y986387D01*
X947534Y987907D01*
X944599Y988693D01*
D02*
G37*
G36*
X834594D02*
X831555D01*
X828621Y987907D01*
X825989Y986387D01*
X823840Y984239D01*
X822321Y981608D01*
X821535Y978672D01*
Y975634D01*
X822321Y972699D01*
X823840Y970068D01*
X825989Y967919D01*
X828621Y966400D01*
X831555Y965613D01*
X834594D01*
X837529Y966400D01*
X840161Y967919D01*
X842309Y970068D01*
X843828Y972699D01*
X844615Y975634D01*
Y978672D01*
X843828Y981608D01*
X842309Y984239D01*
X840161Y986387D01*
X837529Y987907D01*
X834594Y988693D01*
D02*
G37*
G36*
X722619D02*
X719581D01*
X716646Y987907D01*
X714014Y986387D01*
X711866Y984239D01*
X710346Y981608D01*
X709560Y978672D01*
Y975634D01*
X710346Y972699D01*
X711866Y970068D01*
X714014Y967919D01*
X716646Y966400D01*
X719581Y965613D01*
X722619D01*
X725554Y966400D01*
X728186Y967919D01*
X730334Y970068D01*
X731853Y972699D01*
X732640Y975634D01*
Y978672D01*
X731853Y981608D01*
X730334Y984239D01*
X728186Y986387D01*
X725554Y987907D01*
X722619Y988693D01*
D02*
G37*
G36*
X612614D02*
X609576D01*
X606641Y987907D01*
X604009Y986387D01*
X601861Y984239D01*
X600341Y981608D01*
X599555Y978672D01*
Y975634D01*
X600341Y972699D01*
X601861Y970068D01*
X604009Y967919D01*
X606641Y966400D01*
X609576Y965613D01*
X612614D01*
X615549Y966400D01*
X618181Y967919D01*
X620329Y970068D01*
X621849Y972699D01*
X622635Y975634D01*
Y978672D01*
X621849Y981608D01*
X620329Y984239D01*
X618181Y986387D01*
X615549Y987907D01*
X612614Y988693D01*
D02*
G37*
G36*
X502609D02*
X499570D01*
X496635Y987907D01*
X494004Y986387D01*
X491855Y984239D01*
X490336Y981608D01*
X489550Y978672D01*
Y975634D01*
X490336Y972699D01*
X491855Y970068D01*
X494004Y967919D01*
X496635Y966400D01*
X499570Y965613D01*
X502609D01*
X505544Y966400D01*
X508175Y967919D01*
X510324Y970068D01*
X511843Y972699D01*
X512630Y975634D01*
Y978672D01*
X511843Y981608D01*
X510324Y984239D01*
X508175Y986387D01*
X505544Y987907D01*
X502609Y988693D01*
D02*
G37*
G36*
X392604D02*
X389566D01*
X386631Y987907D01*
X383999Y986387D01*
X381851Y984239D01*
X380331Y981608D01*
X379545Y978672D01*
Y975634D01*
X380331Y972699D01*
X381851Y970068D01*
X383999Y967919D01*
X386631Y966400D01*
X389566Y965613D01*
X392604D01*
X395539Y966400D01*
X398171Y967919D01*
X400319Y970068D01*
X401838Y972699D01*
X402625Y975634D01*
Y978672D01*
X401838Y981608D01*
X400319Y984239D01*
X398171Y986387D01*
X395539Y987907D01*
X392604Y988693D01*
D02*
G37*
G36*
X282599D02*
X279561D01*
X276626Y987907D01*
X273994Y986387D01*
X271846Y984239D01*
X270326Y981608D01*
X269540Y978672D01*
Y975634D01*
X270326Y972699D01*
X271846Y970068D01*
X273994Y967919D01*
X276626Y966400D01*
X279561Y965613D01*
X282599D01*
X285534Y966400D01*
X288166Y967919D01*
X290314Y970068D01*
X291833Y972699D01*
X292620Y975634D01*
Y978672D01*
X291833Y981608D01*
X290314Y984239D01*
X288166Y986387D01*
X285534Y987907D01*
X282599Y988693D01*
D02*
G37*
G36*
X172594D02*
X169555D01*
X166620Y987907D01*
X163989Y986387D01*
X161840Y984239D01*
X160321Y981608D01*
X159535Y978672D01*
Y975634D01*
X160321Y972699D01*
X161840Y970068D01*
X163989Y967919D01*
X166620Y966400D01*
X169555Y965613D01*
X172594D01*
X175529Y966400D01*
X178160Y967919D01*
X180309Y970068D01*
X181828Y972699D01*
X182615Y975634D01*
Y978672D01*
X181828Y981608D01*
X180309Y984239D01*
X178160Y986387D01*
X175529Y987907D01*
X172594Y988693D01*
D02*
G37*
G36*
X123410Y975883D02*
X113140D01*
Y965613D01*
X123410D01*
Y975883D01*
D02*
G37*
G36*
X110600D02*
X100330D01*
Y965613D01*
X110600D01*
Y975883D01*
D02*
G37*
G36*
X62589Y988693D02*
X59550D01*
X56616Y987907D01*
X53984Y986387D01*
X51835Y984239D01*
X50316Y981608D01*
X49530Y978672D01*
Y975634D01*
X50316Y972699D01*
X51835Y970068D01*
X53984Y967919D01*
X56616Y966400D01*
X59550Y965613D01*
X62589D01*
X65524Y966400D01*
X68155Y967919D01*
X70304Y970068D01*
X71823Y972699D01*
X72610Y975634D01*
Y978672D01*
X71823Y981608D01*
X70304Y984239D01*
X68155Y986387D01*
X65524Y987907D01*
X62589Y988693D01*
D02*
G37*
G36*
X1069340Y932840D02*
X1057270D01*
Y920270D01*
X1069340D01*
Y932840D01*
D02*
G37*
G36*
X964790D02*
X952720D01*
Y920270D01*
X964790D01*
Y932840D01*
D02*
G37*
G36*
X848340D02*
X836270D01*
Y920270D01*
X848340D01*
Y932840D01*
D02*
G37*
G36*
X516340D02*
X504270D01*
Y920270D01*
X516340D01*
Y932840D01*
D02*
G37*
G36*
X407340D02*
X395270D01*
Y920270D01*
X407340D01*
Y932840D01*
D02*
G37*
G36*
X302790D02*
X290720D01*
Y920270D01*
X302790D01*
Y932840D01*
D02*
G37*
G36*
X1178340D02*
X1166270D01*
Y920270D01*
X1178340D01*
Y932840D01*
D02*
G37*
G36*
X186340D02*
X174270D01*
Y920270D01*
X186340D01*
Y932840D01*
D02*
G37*
G36*
X1054730D02*
X1042660D01*
Y920270D01*
X1054730D01*
Y932840D01*
D02*
G37*
G36*
X950180D02*
X938110D01*
Y920270D01*
X950180D01*
Y932840D01*
D02*
G37*
G36*
X501730D02*
X489660D01*
Y920270D01*
X501730D01*
Y932840D01*
D02*
G37*
G36*
X392730D02*
X380660D01*
Y920270D01*
X392730D01*
Y932840D01*
D02*
G37*
G36*
X288180D02*
X276110D01*
Y920270D01*
X288180D01*
Y932840D01*
D02*
G37*
G36*
X1163730D02*
X1151660D01*
Y920270D01*
X1163730D01*
Y932840D01*
D02*
G37*
G36*
X833730D02*
X821660D01*
Y920270D01*
X833730D01*
Y932840D01*
D02*
G37*
G36*
X171730D02*
X159660D01*
Y920270D01*
X171730D01*
Y932840D01*
D02*
G37*
G36*
X1287340Y931840D02*
X1275270D01*
Y919270D01*
X1287340D01*
Y931840D01*
D02*
G37*
G36*
X1405840D02*
X1393770D01*
Y919270D01*
X1405840D01*
Y931840D01*
D02*
G37*
G36*
X743840D02*
X731770D01*
Y919270D01*
X743840D01*
Y931840D01*
D02*
G37*
G36*
X625340D02*
X613270D01*
Y919270D01*
X625340D01*
Y931840D01*
D02*
G37*
G36*
X1272730D02*
X1260660D01*
Y919270D01*
X1272730D01*
Y931840D01*
D02*
G37*
G36*
X1391230D02*
X1379160D01*
Y919270D01*
X1391230D01*
Y931840D01*
D02*
G37*
G36*
X729230D02*
X717160D01*
Y919270D01*
X729230D01*
Y931840D01*
D02*
G37*
G36*
X610730D02*
X598660D01*
Y919270D01*
X610730D01*
Y931840D01*
D02*
G37*
G36*
X1225430Y988693D02*
X1202350D01*
Y965613D01*
X1210116D01*
Y932840D01*
X1200660D01*
Y905160D01*
X1227340D01*
Y932840D01*
X1217885D01*
Y965613D01*
X1225430D01*
Y988693D01*
D02*
G37*
G36*
X1178340Y917730D02*
X1166270D01*
Y905160D01*
X1178340D01*
Y917730D01*
D02*
G37*
G36*
X1163730D02*
X1151660D01*
Y905160D01*
X1163730D01*
Y917730D01*
D02*
G37*
G36*
X1115425Y988693D02*
X1092345D01*
Y965613D01*
X1101115D01*
Y932840D01*
X1091660D01*
Y905160D01*
X1118340D01*
Y932840D01*
X1108885D01*
Y965613D01*
X1115425D01*
Y988693D01*
D02*
G37*
G36*
X1069340Y917730D02*
X1057270D01*
Y905160D01*
X1069340D01*
Y917730D01*
D02*
G37*
G36*
X1054730D02*
X1042660D01*
Y905160D01*
X1054730D01*
Y917730D01*
D02*
G37*
G36*
X1005420Y988693D02*
X982340D01*
Y965613D01*
X989995D01*
Y932840D01*
X987110D01*
Y905160D01*
X1013790D01*
Y932840D01*
X997764D01*
Y965613D01*
X1005420D01*
Y988693D01*
D02*
G37*
G36*
X964790Y917730D02*
X952720D01*
Y905160D01*
X964790D01*
Y917730D01*
D02*
G37*
G36*
X950180D02*
X938110D01*
Y905160D01*
X950180D01*
Y917730D01*
D02*
G37*
G36*
X895415Y988693D02*
X872335D01*
Y965613D01*
X880116D01*
Y932840D01*
X870660D01*
Y905160D01*
X897340D01*
Y932840D01*
X887885D01*
Y965613D01*
X895415D01*
Y988693D01*
D02*
G37*
G36*
X848340Y917730D02*
X836270D01*
Y905160D01*
X848340D01*
Y917730D01*
D02*
G37*
G36*
X833730D02*
X821660D01*
Y905160D01*
X833730D01*
Y917730D01*
D02*
G37*
G36*
X563430Y988693D02*
X540350D01*
Y965613D01*
X548005D01*
Y932840D01*
X538660D01*
Y905160D01*
X565340D01*
Y932840D01*
X555774D01*
Y965613D01*
X563430D01*
Y988693D01*
D02*
G37*
G36*
X516340Y917730D02*
X504270D01*
Y905160D01*
X516340D01*
Y917730D01*
D02*
G37*
G36*
X501730D02*
X489660D01*
Y905160D01*
X501730D01*
Y917730D01*
D02*
G37*
G36*
X453425Y988693D02*
X430345D01*
Y965613D01*
X438000D01*
Y932840D01*
X429660D01*
Y905160D01*
X456340D01*
Y932840D01*
X445770D01*
Y965613D01*
X453425D01*
Y988693D01*
D02*
G37*
G36*
X407340Y917730D02*
X395270D01*
Y905160D01*
X407340D01*
Y917730D01*
D02*
G37*
G36*
X392730D02*
X380660D01*
Y905160D01*
X392730D01*
Y917730D01*
D02*
G37*
G36*
X343420Y988693D02*
X320340D01*
Y965613D01*
X327995D01*
Y932840D01*
X325110D01*
Y905160D01*
X351790D01*
Y932840D01*
X335765D01*
Y965613D01*
X343420D01*
Y988693D01*
D02*
G37*
G36*
X302790Y917730D02*
X290720D01*
Y905160D01*
X302790D01*
Y917730D01*
D02*
G37*
G36*
X288180D02*
X276110D01*
Y905160D01*
X288180D01*
Y917730D01*
D02*
G37*
G36*
X233415Y988693D02*
X210335D01*
Y965613D01*
X218115D01*
Y932840D01*
X208660D01*
Y905160D01*
X235340D01*
Y932840D01*
X225885D01*
Y965613D01*
X233415D01*
Y988693D01*
D02*
G37*
G36*
X186340Y917730D02*
X174270D01*
Y905160D01*
X186340D01*
Y917730D01*
D02*
G37*
G36*
X171730D02*
X159660D01*
Y905160D01*
X171730D01*
Y917730D01*
D02*
G37*
G36*
X1445440Y988693D02*
X1422360D01*
Y965613D01*
X1430016D01*
Y931840D01*
X1428160D01*
Y904160D01*
X1454840D01*
Y931840D01*
X1437785D01*
Y965613D01*
X1445440D01*
Y988693D01*
D02*
G37*
G36*
X1405840Y916730D02*
X1393770D01*
Y904160D01*
X1405840D01*
Y916730D01*
D02*
G37*
G36*
X1391230D02*
X1379160D01*
Y904160D01*
X1391230D01*
Y916730D01*
D02*
G37*
G36*
X1335435Y988693D02*
X1312355D01*
Y965613D01*
X1319115D01*
Y931840D01*
X1309660D01*
Y904160D01*
X1336340D01*
Y931840D01*
X1326885D01*
Y965613D01*
X1335435D01*
Y988693D01*
D02*
G37*
G36*
X1287340Y916730D02*
X1275270D01*
Y904160D01*
X1287340D01*
Y916730D01*
D02*
G37*
G36*
X1272730D02*
X1260660D01*
Y904160D01*
X1272730D01*
Y916730D01*
D02*
G37*
G36*
X783440Y988693D02*
X760360D01*
Y965613D01*
X768015D01*
Y931840D01*
X766160D01*
Y904160D01*
X792840D01*
Y931840D01*
X775785D01*
Y965613D01*
X783440D01*
Y988693D01*
D02*
G37*
G36*
X743840Y916730D02*
X731770D01*
Y904160D01*
X743840D01*
Y916730D01*
D02*
G37*
G36*
X729230D02*
X717160D01*
Y904160D01*
X729230D01*
Y916730D01*
D02*
G37*
G36*
X673435Y988693D02*
X650355D01*
Y965613D01*
X658010D01*
Y931840D01*
X647660D01*
Y904160D01*
X674340D01*
Y931840D01*
X665780D01*
Y965613D01*
X673435D01*
Y988693D01*
D02*
G37*
G36*
X625340Y916730D02*
X613270D01*
Y904160D01*
X625340D01*
Y916730D01*
D02*
G37*
G36*
X610730D02*
X598660D01*
Y904160D01*
X610730D01*
Y916730D01*
D02*
G37*
G36*
X1498172Y836425D02*
Y831265D01*
X1503332D01*
X1502996Y832519D01*
X1502135Y834011D01*
X1500917Y835228D01*
X1499426Y836089D01*
X1498172Y836425D01*
D02*
G37*
G36*
X1495632D02*
X1494377Y836089D01*
X1492886Y835228D01*
X1491668Y834011D01*
X1490807Y832519D01*
X1490471Y831265D01*
X1495632D01*
Y836425D01*
D02*
G37*
G36*
X1503332Y828725D02*
X1498172D01*
Y823565D01*
X1499426Y823901D01*
X1500917Y824762D01*
X1502135Y825979D01*
X1502996Y827471D01*
X1503332Y828725D01*
D02*
G37*
G36*
X1495632D02*
X1490471D01*
X1490807Y827471D01*
X1491668Y825979D01*
X1492886Y824762D01*
X1494377Y823901D01*
X1495632Y823565D01*
Y828725D01*
D02*
G37*
G36*
X1752270Y823430D02*
Y818270D01*
X1757430D01*
X1757094Y819524D01*
X1756233Y821016D01*
X1755016Y822233D01*
X1753524Y823094D01*
X1752270Y823430D01*
D02*
G37*
G36*
X1749730D02*
X1748476Y823094D01*
X1746984Y822233D01*
X1745767Y821016D01*
X1744906Y819524D01*
X1744570Y818270D01*
X1749730D01*
Y823430D01*
D02*
G37*
G36*
X1886270Y823863D02*
Y816270D01*
X1893863D01*
X1893284Y818431D01*
X1892114Y820459D01*
X1890459Y822114D01*
X1888431Y823284D01*
X1886270Y823863D01*
D02*
G37*
G36*
X1883730D02*
X1881569Y823284D01*
X1879541Y822114D01*
X1877886Y820459D01*
X1876716Y818431D01*
X1876137Y816270D01*
X1883730D01*
Y823863D01*
D02*
G37*
G36*
X1633270Y817430D02*
Y812270D01*
X1638430D01*
X1638094Y813524D01*
X1637233Y815016D01*
X1636016Y816233D01*
X1634524Y817094D01*
X1633270Y817430D01*
D02*
G37*
G36*
X1630730D02*
X1629476Y817094D01*
X1627984Y816233D01*
X1626767Y815016D01*
X1625906Y813524D01*
X1625570Y812270D01*
X1630730D01*
Y817430D01*
D02*
G37*
G36*
X1757430Y815730D02*
X1752270D01*
Y810570D01*
X1753524Y810906D01*
X1755016Y811767D01*
X1756233Y812984D01*
X1757094Y814476D01*
X1757430Y815730D01*
D02*
G37*
G36*
X1749730D02*
X1744570D01*
X1744906Y814476D01*
X1745767Y812984D01*
X1746984Y811767D01*
X1748476Y810906D01*
X1749730Y810570D01*
Y815730D01*
D02*
G37*
G36*
X1893863Y813730D02*
X1886270D01*
Y806137D01*
X1888431Y806716D01*
X1890459Y807886D01*
X1892114Y809541D01*
X1893284Y811569D01*
X1893863Y813730D01*
D02*
G37*
G36*
X1883730D02*
X1876137D01*
X1876716Y811569D01*
X1877886Y809541D01*
X1879541Y807886D01*
X1881569Y806716D01*
X1883730Y806137D01*
Y813730D01*
D02*
G37*
G36*
X1638430Y809730D02*
X1633270D01*
Y804570D01*
X1634524Y804906D01*
X1636016Y805767D01*
X1637233Y806984D01*
X1638094Y808476D01*
X1638430Y809730D01*
D02*
G37*
G36*
X1630730D02*
X1625570D01*
X1625906Y808476D01*
X1626767Y806984D01*
X1627984Y805767D01*
X1629476Y804906D01*
X1630730Y804570D01*
Y809730D01*
D02*
G37*
G36*
X1779861Y821540D02*
X1778139D01*
X1776476Y821094D01*
X1774984Y820233D01*
X1773767Y819016D01*
X1772906Y817524D01*
X1772460Y815861D01*
Y814139D01*
X1772906Y812476D01*
X1773767Y810984D01*
X1774984Y809767D01*
X1775115Y809691D01*
Y793885D01*
X1667098D01*
Y798808D01*
X1667229Y798884D01*
X1668446Y800101D01*
X1669307Y801592D01*
X1669753Y803256D01*
Y804978D01*
X1669307Y806641D01*
X1668446Y808132D01*
X1667229Y809350D01*
X1665737Y810211D01*
X1664074Y810657D01*
X1662352D01*
X1660689Y810211D01*
X1659198Y809350D01*
X1657980Y808132D01*
X1657119Y806641D01*
X1656673Y804978D01*
Y803256D01*
X1657119Y801592D01*
X1657980Y800101D01*
X1659198Y798884D01*
X1659328Y798808D01*
Y793885D01*
X1550000D01*
Y793932D01*
X1549952Y793952D01*
X1549932Y794000D01*
X1549885D01*
Y803691D01*
X1550016Y803767D01*
X1551233Y804984D01*
X1552094Y806476D01*
X1552540Y808139D01*
Y809861D01*
X1552094Y811524D01*
X1551233Y813016D01*
X1550016Y814233D01*
X1548524Y815094D01*
X1546861Y815540D01*
X1545139D01*
X1543476Y815094D01*
X1541984Y814233D01*
X1540767Y813016D01*
X1539906Y811524D01*
X1539460Y809861D01*
Y808139D01*
X1539906Y806476D01*
X1540767Y804984D01*
X1541984Y803767D01*
X1542115Y803691D01*
Y794000D01*
X1542137Y793892D01*
X1542391Y791961D01*
X1543178Y790061D01*
X1544430Y788430D01*
X1546061Y787178D01*
X1547961Y786391D01*
X1549892Y786137D01*
X1550000Y786115D01*
X1663000D01*
Y786111D01*
X1663021Y786115D01*
X1778000D01*
Y786096D01*
X1778098Y786115D01*
X1906000D01*
X1906108Y786137D01*
X1908039Y786391D01*
X1909939Y787178D01*
X1911570Y788430D01*
X1912822Y790061D01*
X1913609Y791961D01*
X1913863Y793892D01*
X1913885Y794000D01*
Y805691D01*
X1914016Y805767D01*
X1915233Y806984D01*
X1916094Y808476D01*
X1916540Y810139D01*
Y811861D01*
X1916094Y813524D01*
X1915233Y815016D01*
X1914016Y816233D01*
X1912524Y817094D01*
X1910861Y817540D01*
X1909139D01*
X1907476Y817094D01*
X1905984Y816233D01*
X1904767Y815016D01*
X1903906Y813524D01*
X1903460Y811861D01*
Y810139D01*
X1903906Y808476D01*
X1904767Y806984D01*
X1905984Y805767D01*
X1906115Y805691D01*
Y794000D01*
X1906068D01*
X1906048Y793952D01*
X1906000Y793932D01*
Y793885D01*
X1782885D01*
Y809691D01*
X1783016Y809767D01*
X1784233Y810984D01*
X1785094Y812476D01*
X1785540Y814139D01*
Y815861D01*
X1785094Y817524D01*
X1784233Y819016D01*
X1783016Y820233D01*
X1781524Y821094D01*
X1779861Y821540D01*
D02*
G37*
G36*
X1459270Y780430D02*
Y775270D01*
X1464430D01*
X1464094Y776524D01*
X1463233Y778016D01*
X1462016Y779233D01*
X1460524Y780094D01*
X1459270Y780430D01*
D02*
G37*
G36*
X1456730D02*
X1455476Y780094D01*
X1453984Y779233D01*
X1452767Y778016D01*
X1451906Y776524D01*
X1451570Y775270D01*
X1456730D01*
Y780430D01*
D02*
G37*
G36*
X1349270D02*
Y775270D01*
X1354430D01*
X1354094Y776524D01*
X1353233Y778016D01*
X1352016Y779233D01*
X1350524Y780094D01*
X1349270Y780430D01*
D02*
G37*
G36*
X1346730D02*
X1345476Y780094D01*
X1343984Y779233D01*
X1342767Y778016D01*
X1341906Y776524D01*
X1341570Y775270D01*
X1346730D01*
Y780430D01*
D02*
G37*
G36*
X1238270D02*
Y775270D01*
X1243430D01*
X1243094Y776524D01*
X1242233Y778016D01*
X1241016Y779233D01*
X1239524Y780094D01*
X1238270Y780430D01*
D02*
G37*
G36*
X1235730D02*
X1234476Y780094D01*
X1232984Y779233D01*
X1231767Y778016D01*
X1230906Y776524D01*
X1230570Y775270D01*
X1235730D01*
Y780430D01*
D02*
G37*
G36*
X1132270D02*
Y775270D01*
X1137430D01*
X1137094Y776524D01*
X1136233Y778016D01*
X1135016Y779233D01*
X1133524Y780094D01*
X1132270Y780430D01*
D02*
G37*
G36*
X1129730D02*
X1128476Y780094D01*
X1126984Y779233D01*
X1125767Y778016D01*
X1124906Y776524D01*
X1124570Y775270D01*
X1129730D01*
Y780430D01*
D02*
G37*
G36*
X907270D02*
Y775270D01*
X912430D01*
X912094Y776524D01*
X911233Y778016D01*
X910016Y779233D01*
X908524Y780094D01*
X907270Y780430D01*
D02*
G37*
G36*
X904730D02*
X903476Y780094D01*
X901984Y779233D01*
X900767Y778016D01*
X899906Y776524D01*
X899570Y775270D01*
X904730D01*
Y780430D01*
D02*
G37*
G36*
X584270D02*
Y775270D01*
X589430D01*
X589094Y776524D01*
X588233Y778016D01*
X587016Y779233D01*
X585524Y780094D01*
X584270Y780430D01*
D02*
G37*
G36*
X581730D02*
X580476Y780094D01*
X578984Y779233D01*
X577767Y778016D01*
X576906Y776524D01*
X576570Y775270D01*
X581730D01*
Y780430D01*
D02*
G37*
G36*
X255270D02*
Y775270D01*
X260430D01*
X260094Y776524D01*
X259233Y778016D01*
X258016Y779233D01*
X256524Y780094D01*
X255270Y780430D01*
D02*
G37*
G36*
X252730D02*
X251476Y780094D01*
X249984Y779233D01*
X248767Y778016D01*
X247906Y776524D01*
X247570Y775270D01*
X252730D01*
Y780430D01*
D02*
G37*
G36*
X694251Y779692D02*
Y774532D01*
X699411D01*
X699075Y775786D01*
X698214Y777278D01*
X696997Y778495D01*
X695505Y779356D01*
X694251Y779692D01*
D02*
G37*
G36*
X691711D02*
X690456Y779356D01*
X688965Y778495D01*
X687748Y777278D01*
X686887Y775786D01*
X686551Y774532D01*
X691711D01*
Y779692D01*
D02*
G37*
G36*
X1018270Y779430D02*
Y774270D01*
X1023430D01*
X1023094Y775524D01*
X1022233Y777016D01*
X1021016Y778233D01*
X1019524Y779094D01*
X1018270Y779430D01*
D02*
G37*
G36*
X1015730D02*
X1014476Y779094D01*
X1012984Y778233D01*
X1011767Y777016D01*
X1010906Y775524D01*
X1010570Y774270D01*
X1015730D01*
Y779430D01*
D02*
G37*
G36*
X809270D02*
Y774270D01*
X814430D01*
X814094Y775524D01*
X813233Y777016D01*
X812016Y778233D01*
X810524Y779094D01*
X809270Y779430D01*
D02*
G37*
G36*
X806730D02*
X805476Y779094D01*
X803984Y778233D01*
X802767Y777016D01*
X801906Y775524D01*
X801570Y774270D01*
X806730D01*
Y779430D01*
D02*
G37*
G36*
X474270D02*
Y774270D01*
X479430D01*
X479094Y775524D01*
X478233Y777016D01*
X477016Y778233D01*
X475524Y779094D01*
X474270Y779430D01*
D02*
G37*
G36*
X471730D02*
X470476Y779094D01*
X468984Y778233D01*
X467767Y777016D01*
X466906Y775524D01*
X466570Y774270D01*
X471730D01*
Y779430D01*
D02*
G37*
G36*
X364270D02*
Y774270D01*
X369430D01*
X369094Y775524D01*
X368233Y777016D01*
X367016Y778233D01*
X365524Y779094D01*
X364270Y779430D01*
D02*
G37*
G36*
X361730D02*
X360476Y779094D01*
X358984Y778233D01*
X357767Y777016D01*
X356906Y775524D01*
X356570Y774270D01*
X361730D01*
Y779430D01*
D02*
G37*
G36*
X1464430Y772730D02*
X1459270D01*
Y767570D01*
X1460524Y767906D01*
X1462016Y768767D01*
X1463233Y769984D01*
X1464094Y771476D01*
X1464430Y772730D01*
D02*
G37*
G36*
X1456730D02*
X1451570D01*
X1451906Y771476D01*
X1452767Y769984D01*
X1453984Y768767D01*
X1455476Y767906D01*
X1456730Y767570D01*
Y772730D01*
D02*
G37*
G36*
X1354430D02*
X1349270D01*
Y767570D01*
X1350524Y767906D01*
X1352016Y768767D01*
X1353233Y769984D01*
X1354094Y771476D01*
X1354430Y772730D01*
D02*
G37*
G36*
X1346730D02*
X1341570D01*
X1341906Y771476D01*
X1342767Y769984D01*
X1343984Y768767D01*
X1345476Y767906D01*
X1346730Y767570D01*
Y772730D01*
D02*
G37*
G36*
X1243430D02*
X1238270D01*
Y767570D01*
X1239524Y767906D01*
X1241016Y768767D01*
X1242233Y769984D01*
X1243094Y771476D01*
X1243430Y772730D01*
D02*
G37*
G36*
X1235730D02*
X1230570D01*
X1230906Y771476D01*
X1231767Y769984D01*
X1232984Y768767D01*
X1234476Y767906D01*
X1235730Y767570D01*
Y772730D01*
D02*
G37*
G36*
X1137430D02*
X1132270D01*
Y767570D01*
X1133524Y767906D01*
X1135016Y768767D01*
X1136233Y769984D01*
X1137094Y771476D01*
X1137430Y772730D01*
D02*
G37*
G36*
X1129730D02*
X1124570D01*
X1124906Y771476D01*
X1125767Y769984D01*
X1126984Y768767D01*
X1128476Y767906D01*
X1129730Y767570D01*
Y772730D01*
D02*
G37*
G36*
X912430D02*
X907270D01*
Y767570D01*
X908524Y767906D01*
X910016Y768767D01*
X911233Y769984D01*
X912094Y771476D01*
X912430Y772730D01*
D02*
G37*
G36*
X904730D02*
X899570D01*
X899906Y771476D01*
X900767Y769984D01*
X901984Y768767D01*
X903476Y767906D01*
X904730Y767570D01*
Y772730D01*
D02*
G37*
G36*
X589430D02*
X584270D01*
Y767570D01*
X585524Y767906D01*
X587016Y768767D01*
X588233Y769984D01*
X589094Y771476D01*
X589430Y772730D01*
D02*
G37*
G36*
X581730D02*
X576570D01*
X576906Y771476D01*
X577767Y769984D01*
X578984Y768767D01*
X580476Y767906D01*
X581730Y767570D01*
Y772730D01*
D02*
G37*
G36*
X260430D02*
X255270D01*
Y767570D01*
X256524Y767906D01*
X258016Y768767D01*
X259233Y769984D01*
X260094Y771476D01*
X260430Y772730D01*
D02*
G37*
G36*
X252730D02*
X247570D01*
X247906Y771476D01*
X248767Y769984D01*
X249984Y768767D01*
X251476Y767906D01*
X252730Y767570D01*
Y772730D01*
D02*
G37*
G36*
X699411Y771992D02*
X694251D01*
Y766832D01*
X695505Y767168D01*
X696997Y768029D01*
X698214Y769246D01*
X699075Y770738D01*
X699411Y771992D01*
D02*
G37*
G36*
X691711D02*
X686551D01*
X686887Y770738D01*
X687748Y769246D01*
X688965Y768029D01*
X690456Y767168D01*
X691711Y766832D01*
Y771992D01*
D02*
G37*
G36*
X1023430Y771730D02*
X1018270D01*
Y766570D01*
X1019524Y766906D01*
X1021016Y767767D01*
X1022233Y768984D01*
X1023094Y770476D01*
X1023430Y771730D01*
D02*
G37*
G36*
X1015730D02*
X1010570D01*
X1010906Y770476D01*
X1011767Y768984D01*
X1012984Y767767D01*
X1014476Y766906D01*
X1015730Y766570D01*
Y771730D01*
D02*
G37*
G36*
X814430D02*
X809270D01*
Y766570D01*
X810524Y766906D01*
X812016Y767767D01*
X813233Y768984D01*
X814094Y770476D01*
X814430Y771730D01*
D02*
G37*
G36*
X806730D02*
X801570D01*
X801906Y770476D01*
X802767Y768984D01*
X803984Y767767D01*
X805476Y766906D01*
X806730Y766570D01*
Y771730D01*
D02*
G37*
G36*
X479430D02*
X474270D01*
Y766570D01*
X475524Y766906D01*
X477016Y767767D01*
X478233Y768984D01*
X479094Y770476D01*
X479430Y771730D01*
D02*
G37*
G36*
X471730D02*
X466570D01*
X466906Y770476D01*
X467767Y768984D01*
X468984Y767767D01*
X470476Y766906D01*
X471730Y766570D01*
Y771730D01*
D02*
G37*
G36*
X369430D02*
X364270D01*
Y766570D01*
X365524Y766906D01*
X367016Y767767D01*
X368233Y768984D01*
X369094Y770476D01*
X369430Y771730D01*
D02*
G37*
G36*
X361730D02*
X356570D01*
X356906Y770476D01*
X357767Y768984D01*
X358984Y767767D01*
X360476Y766906D01*
X361730Y766570D01*
Y771730D01*
D02*
G37*
G36*
X1916270Y736430D02*
Y731270D01*
X1921430D01*
X1921094Y732524D01*
X1920233Y734016D01*
X1919016Y735233D01*
X1917524Y736094D01*
X1916270Y736430D01*
D02*
G37*
G36*
X1913730D02*
X1912476Y736094D01*
X1910984Y735233D01*
X1909767Y734016D01*
X1908906Y732524D01*
X1908570Y731270D01*
X1913730D01*
Y736430D01*
D02*
G37*
G36*
X1921430Y728730D02*
X1916270D01*
Y723570D01*
X1917524Y723906D01*
X1919016Y724767D01*
X1920233Y725984D01*
X1921094Y727476D01*
X1921430Y728730D01*
D02*
G37*
G36*
X1913730D02*
X1908570D01*
X1908906Y727476D01*
X1909767Y725984D01*
X1910984Y724767D01*
X1912476Y723906D01*
X1913730Y723570D01*
Y728730D01*
D02*
G37*
G36*
X1690270Y722430D02*
Y717270D01*
X1695430D01*
X1695094Y718524D01*
X1694233Y720016D01*
X1693016Y721233D01*
X1691524Y722094D01*
X1690270Y722430D01*
D02*
G37*
G36*
X1687730D02*
X1686476Y722094D01*
X1684984Y721233D01*
X1683767Y720016D01*
X1682906Y718524D01*
X1682570Y717270D01*
X1687730D01*
Y722430D01*
D02*
G37*
G36*
X1572270D02*
Y717270D01*
X1577430D01*
X1577094Y718524D01*
X1576233Y720016D01*
X1575016Y721233D01*
X1573524Y722094D01*
X1572270Y722430D01*
D02*
G37*
G36*
X1569730D02*
X1568476Y722094D01*
X1566984Y721233D01*
X1565767Y720016D01*
X1564906Y718524D01*
X1564570Y717270D01*
X1569730D01*
Y722430D01*
D02*
G37*
G36*
X1805270Y719430D02*
Y714270D01*
X1810430D01*
X1810094Y715524D01*
X1809233Y717016D01*
X1808016Y718233D01*
X1806524Y719094D01*
X1805270Y719430D01*
D02*
G37*
G36*
X1802730D02*
X1801476Y719094D01*
X1799984Y718233D01*
X1798767Y717016D01*
X1797906Y715524D01*
X1797570Y714270D01*
X1802730D01*
Y719430D01*
D02*
G37*
G36*
X1695430Y714730D02*
X1690270D01*
Y709570D01*
X1691524Y709906D01*
X1693016Y710767D01*
X1694233Y711984D01*
X1695094Y713476D01*
X1695430Y714730D01*
D02*
G37*
G36*
X1687730D02*
X1682570D01*
X1682906Y713476D01*
X1683767Y711984D01*
X1684984Y710767D01*
X1686476Y709906D01*
X1687730Y709570D01*
Y714730D01*
D02*
G37*
G36*
X1577430D02*
X1572270D01*
Y709570D01*
X1573524Y709906D01*
X1575016Y710767D01*
X1576233Y711984D01*
X1577094Y713476D01*
X1577430Y714730D01*
D02*
G37*
G36*
X1569730D02*
X1564570D01*
X1564906Y713476D01*
X1565767Y711984D01*
X1566984Y710767D01*
X1568476Y709906D01*
X1569730Y709570D01*
Y714730D01*
D02*
G37*
G36*
X1810430Y711730D02*
X1805270D01*
Y706570D01*
X1806524Y706906D01*
X1808016Y707767D01*
X1809233Y708984D01*
X1810094Y710476D01*
X1810430Y711730D01*
D02*
G37*
G36*
X1802730D02*
X1797570D01*
X1797906Y710476D01*
X1798767Y708984D01*
X1799984Y707767D01*
X1801476Y706906D01*
X1802730Y706570D01*
Y711730D01*
D02*
G37*
G36*
X1134270Y696430D02*
Y691270D01*
X1139430D01*
X1139094Y692524D01*
X1138233Y694016D01*
X1137016Y695233D01*
X1135524Y696094D01*
X1134270Y696430D01*
D02*
G37*
G36*
X1131730D02*
X1130476Y696094D01*
X1128984Y695233D01*
X1127767Y694016D01*
X1126906Y692524D01*
X1126570Y691270D01*
X1131730D01*
Y696430D01*
D02*
G37*
G36*
X1242270Y695430D02*
Y690270D01*
X1247430D01*
X1247094Y691524D01*
X1246233Y693016D01*
X1245016Y694233D01*
X1243524Y695094D01*
X1242270Y695430D01*
D02*
G37*
G36*
X1239730D02*
X1238476Y695094D01*
X1236984Y694233D01*
X1235767Y693016D01*
X1234906Y691524D01*
X1234570Y690270D01*
X1239730D01*
Y695430D01*
D02*
G37*
G36*
X1018270D02*
Y690270D01*
X1023430D01*
X1023094Y691524D01*
X1022233Y693016D01*
X1021016Y694233D01*
X1019524Y695094D01*
X1018270Y695430D01*
D02*
G37*
G36*
X1015730D02*
X1014476Y695094D01*
X1012984Y694233D01*
X1011767Y693016D01*
X1010906Y691524D01*
X1010570Y690270D01*
X1015730D01*
Y695430D01*
D02*
G37*
G36*
X696125Y694941D02*
Y689781D01*
X701285D01*
X700949Y691035D01*
X700088Y692526D01*
X698871Y693744D01*
X697379Y694605D01*
X696125Y694941D01*
D02*
G37*
G36*
X693585D02*
X692331Y694605D01*
X690839Y693744D01*
X689622Y692526D01*
X688761Y691035D01*
X688425Y689781D01*
X693585D01*
Y694941D01*
D02*
G37*
G36*
X1350270Y694430D02*
Y689270D01*
X1355430D01*
X1355094Y690524D01*
X1354233Y692016D01*
X1353016Y693233D01*
X1351524Y694094D01*
X1350270Y694430D01*
D02*
G37*
G36*
X1347730D02*
X1346476Y694094D01*
X1344984Y693233D01*
X1343767Y692016D01*
X1342906Y690524D01*
X1342570Y689270D01*
X1347730D01*
Y694430D01*
D02*
G37*
G36*
X908270D02*
Y689270D01*
X913430D01*
X913094Y690524D01*
X912233Y692016D01*
X911016Y693233D01*
X909524Y694094D01*
X908270Y694430D01*
D02*
G37*
G36*
X905730D02*
X904476Y694094D01*
X902984Y693233D01*
X901767Y692016D01*
X900906Y690524D01*
X900570Y689270D01*
X905730D01*
Y694430D01*
D02*
G37*
G36*
X810270D02*
Y689270D01*
X815430D01*
X815094Y690524D01*
X814233Y692016D01*
X813016Y693233D01*
X811524Y694094D01*
X810270Y694430D01*
D02*
G37*
G36*
X807730D02*
X806476Y694094D01*
X804984Y693233D01*
X803767Y692016D01*
X802906Y690524D01*
X802570Y689270D01*
X807730D01*
Y694430D01*
D02*
G37*
G36*
X587270D02*
Y689270D01*
X592430D01*
X592094Y690524D01*
X591233Y692016D01*
X590016Y693233D01*
X588524Y694094D01*
X587270Y694430D01*
D02*
G37*
G36*
X584730D02*
X583476Y694094D01*
X581984Y693233D01*
X580767Y692016D01*
X579906Y690524D01*
X579570Y689270D01*
X584730D01*
Y694430D01*
D02*
G37*
G36*
X473270D02*
Y689270D01*
X478430D01*
X478094Y690524D01*
X477233Y692016D01*
X476016Y693233D01*
X474524Y694094D01*
X473270Y694430D01*
D02*
G37*
G36*
X470730D02*
X469476Y694094D01*
X467984Y693233D01*
X466767Y692016D01*
X465906Y690524D01*
X465570Y689270D01*
X470730D01*
Y694430D01*
D02*
G37*
G36*
X368270D02*
Y689270D01*
X373430D01*
X373094Y690524D01*
X372233Y692016D01*
X371016Y693233D01*
X369524Y694094D01*
X368270Y694430D01*
D02*
G37*
G36*
X365730D02*
X364476Y694094D01*
X362984Y693233D01*
X361767Y692016D01*
X360906Y690524D01*
X360570Y689270D01*
X365730D01*
Y694430D01*
D02*
G37*
G36*
X252270D02*
Y689270D01*
X257430D01*
X257094Y690524D01*
X256233Y692016D01*
X255016Y693233D01*
X253524Y694094D01*
X252270Y694430D01*
D02*
G37*
G36*
X249730D02*
X248476Y694094D01*
X246984Y693233D01*
X245767Y692016D01*
X244906Y690524D01*
X244570Y689270D01*
X249730D01*
Y694430D01*
D02*
G37*
G36*
X1139430Y688730D02*
X1134270D01*
Y683570D01*
X1135524Y683906D01*
X1137016Y684767D01*
X1138233Y685984D01*
X1139094Y687476D01*
X1139430Y688730D01*
D02*
G37*
G36*
X1131730D02*
X1126570D01*
X1126906Y687476D01*
X1127767Y685984D01*
X1128984Y684767D01*
X1130476Y683906D01*
X1131730Y683570D01*
Y688730D01*
D02*
G37*
G36*
X1247430Y687730D02*
X1242270D01*
Y682570D01*
X1243524Y682906D01*
X1245016Y683767D01*
X1246233Y684984D01*
X1247094Y686476D01*
X1247430Y687730D01*
D02*
G37*
G36*
X1239730D02*
X1234570D01*
X1234906Y686476D01*
X1235767Y684984D01*
X1236984Y683767D01*
X1238476Y682906D01*
X1239730Y682570D01*
Y687730D01*
D02*
G37*
G36*
X1023430D02*
X1018270D01*
Y682570D01*
X1019524Y682906D01*
X1021016Y683767D01*
X1022233Y684984D01*
X1023094Y686476D01*
X1023430Y687730D01*
D02*
G37*
G36*
X1015730D02*
X1010570D01*
X1010906Y686476D01*
X1011767Y684984D01*
X1012984Y683767D01*
X1014476Y682906D01*
X1015730Y682570D01*
Y687730D01*
D02*
G37*
G36*
X701285Y687241D02*
X696125D01*
Y682080D01*
X697379Y682416D01*
X698871Y683277D01*
X700088Y684495D01*
X700949Y685986D01*
X701285Y687241D01*
D02*
G37*
G36*
X693585D02*
X688425D01*
X688761Y685986D01*
X689622Y684495D01*
X690839Y683277D01*
X692331Y682416D01*
X693585Y682080D01*
Y687241D01*
D02*
G37*
G36*
X1960874Y698940D02*
X1958626D01*
X1956454Y698358D01*
X1954507Y697234D01*
X1952917Y695644D01*
X1951792Y693696D01*
X1951210Y691524D01*
Y689276D01*
X1951792Y687104D01*
X1952917Y685156D01*
X1954507Y683566D01*
X1956454Y682442D01*
X1958626Y681860D01*
X1960874D01*
X1963047Y682442D01*
X1964994Y683566D01*
X1966584Y685156D01*
X1967708Y687104D01*
X1968290Y689276D01*
Y691524D01*
X1967708Y693696D01*
X1966584Y695644D01*
X1964994Y697234D01*
X1963047Y698358D01*
X1960874Y698940D01*
D02*
G37*
G36*
X1355430Y686730D02*
X1350270D01*
Y681570D01*
X1351524Y681906D01*
X1353016Y682767D01*
X1354233Y683984D01*
X1355094Y685476D01*
X1355430Y686730D01*
D02*
G37*
G36*
X1347730D02*
X1342570D01*
X1342906Y685476D01*
X1343767Y683984D01*
X1344984Y682767D01*
X1346476Y681906D01*
X1347730Y681570D01*
Y686730D01*
D02*
G37*
G36*
X913430D02*
X908270D01*
Y681570D01*
X909524Y681906D01*
X911016Y682767D01*
X912233Y683984D01*
X913094Y685476D01*
X913430Y686730D01*
D02*
G37*
G36*
X905730D02*
X900570D01*
X900906Y685476D01*
X901767Y683984D01*
X902984Y682767D01*
X904476Y681906D01*
X905730Y681570D01*
Y686730D01*
D02*
G37*
G36*
X815430D02*
X810270D01*
Y681570D01*
X811524Y681906D01*
X813016Y682767D01*
X814233Y683984D01*
X815094Y685476D01*
X815430Y686730D01*
D02*
G37*
G36*
X807730D02*
X802570D01*
X802906Y685476D01*
X803767Y683984D01*
X804984Y682767D01*
X806476Y681906D01*
X807730Y681570D01*
Y686730D01*
D02*
G37*
G36*
X592430D02*
X587270D01*
Y681570D01*
X588524Y681906D01*
X590016Y682767D01*
X591233Y683984D01*
X592094Y685476D01*
X592430Y686730D01*
D02*
G37*
G36*
X584730D02*
X579570D01*
X579906Y685476D01*
X580767Y683984D01*
X581984Y682767D01*
X583476Y681906D01*
X584730Y681570D01*
Y686730D01*
D02*
G37*
G36*
X478430D02*
X473270D01*
Y681570D01*
X474524Y681906D01*
X476016Y682767D01*
X477233Y683984D01*
X478094Y685476D01*
X478430Y686730D01*
D02*
G37*
G36*
X470730D02*
X465570D01*
X465906Y685476D01*
X466767Y683984D01*
X467984Y682767D01*
X469476Y681906D01*
X470730Y681570D01*
Y686730D01*
D02*
G37*
G36*
X373430D02*
X368270D01*
Y681570D01*
X369524Y681906D01*
X371016Y682767D01*
X372233Y683984D01*
X373094Y685476D01*
X373430Y686730D01*
D02*
G37*
G36*
X365730D02*
X360570D01*
X360906Y685476D01*
X361767Y683984D01*
X362984Y682767D01*
X364476Y681906D01*
X365730Y681570D01*
Y686730D01*
D02*
G37*
G36*
X257430D02*
X252270D01*
Y681570D01*
X253524Y681906D01*
X255016Y682767D01*
X256233Y683984D01*
X257094Y685476D01*
X257430Y686730D01*
D02*
G37*
G36*
X249730D02*
X244570D01*
X244906Y685476D01*
X245767Y683984D01*
X246984Y682767D01*
X248476Y681906D01*
X249730Y681570D01*
Y686730D01*
D02*
G37*
G36*
X1859875Y697940D02*
X1857626D01*
X1855454Y697358D01*
X1853506Y696234D01*
X1851917Y694644D01*
X1850792Y692697D01*
X1850210Y690525D01*
Y688276D01*
X1850792Y686104D01*
X1851917Y684156D01*
X1853506Y682567D01*
X1855454Y681442D01*
X1857626Y680860D01*
X1859875D01*
X1862047Y681442D01*
X1863994Y682567D01*
X1865584Y684156D01*
X1866708Y686104D01*
X1867290Y688276D01*
Y690525D01*
X1866708Y692697D01*
X1865584Y694644D01*
X1863994Y696234D01*
X1862047Y697358D01*
X1859875Y697940D01*
D02*
G37*
G36*
X1745524Y697540D02*
X1743276D01*
X1741104Y696958D01*
X1739156Y695834D01*
X1737566Y694244D01*
X1736442Y692296D01*
X1735860Y690124D01*
Y687876D01*
X1736442Y685704D01*
X1737566Y683756D01*
X1739156Y682166D01*
X1741104Y681042D01*
X1743276Y680460D01*
X1745524D01*
X1747696Y681042D01*
X1749644Y682166D01*
X1751234Y683756D01*
X1752358Y685704D01*
X1752940Y687876D01*
Y690124D01*
X1752358Y692296D01*
X1751234Y694244D01*
X1749644Y695834D01*
X1747696Y696958D01*
X1745524Y697540D01*
D02*
G37*
G36*
X1625874Y696290D02*
X1623626D01*
X1621454Y695708D01*
X1619506Y694584D01*
X1617916Y692994D01*
X1616792Y691047D01*
X1616210Y688875D01*
Y686626D01*
X1616792Y684454D01*
X1617916Y682506D01*
X1619506Y680917D01*
X1621454Y679792D01*
X1623626Y679210D01*
X1625874D01*
X1628046Y679792D01*
X1629994Y680917D01*
X1631584Y682506D01*
X1632708Y684454D01*
X1633290Y686626D01*
Y688875D01*
X1632708Y691047D01*
X1631584Y692994D01*
X1629994Y694584D01*
X1628046Y695708D01*
X1625874Y696290D01*
D02*
G37*
G36*
X1441270Y670430D02*
Y665270D01*
X1446430D01*
X1446094Y666524D01*
X1445233Y668016D01*
X1444016Y669233D01*
X1442524Y670094D01*
X1441270Y670430D01*
D02*
G37*
G36*
X1438730D02*
X1437476Y670094D01*
X1435984Y669233D01*
X1434767Y668016D01*
X1433906Y666524D01*
X1433570Y665270D01*
X1438730D01*
Y670430D01*
D02*
G37*
G36*
X1446430Y662730D02*
X1441270D01*
Y657570D01*
X1442524Y657906D01*
X1444016Y658767D01*
X1445233Y659984D01*
X1446094Y661476D01*
X1446430Y662730D01*
D02*
G37*
G36*
X1438730D02*
X1433570D01*
X1433906Y661476D01*
X1434767Y659984D01*
X1435984Y658767D01*
X1437476Y657906D01*
X1438730Y657570D01*
Y662730D01*
D02*
G37*
G36*
X1935475Y673540D02*
X1933226D01*
X1931054Y672958D01*
X1929106Y671834D01*
X1927516Y670244D01*
X1926392Y668296D01*
X1925810Y666124D01*
Y663876D01*
X1926392Y661704D01*
X1927516Y659756D01*
X1929106Y658166D01*
X1931054Y657042D01*
X1933226Y656460D01*
X1935475D01*
X1937646Y657042D01*
X1939594Y658166D01*
X1941184Y659756D01*
X1942308Y661704D01*
X1942890Y663876D01*
Y666124D01*
X1942308Y668296D01*
X1941184Y670244D01*
X1939594Y671834D01*
X1937646Y672958D01*
X1935475Y673540D01*
D02*
G37*
G36*
X1834474Y672540D02*
X1832226D01*
X1830054Y671958D01*
X1828107Y670834D01*
X1826517Y669244D01*
X1825392Y667297D01*
X1824810Y665125D01*
Y662876D01*
X1825392Y660704D01*
X1826517Y658756D01*
X1828107Y657167D01*
X1830054Y656042D01*
X1832226Y655460D01*
X1834474D01*
X1836647Y656042D01*
X1838594Y657167D01*
X1840184Y658756D01*
X1841308Y660704D01*
X1841890Y662876D01*
Y665125D01*
X1841308Y667297D01*
X1840184Y669244D01*
X1838594Y670834D01*
X1836647Y671958D01*
X1834474Y672540D01*
D02*
G37*
G36*
X1720124Y672140D02*
X1717876D01*
X1715704Y671558D01*
X1713756Y670434D01*
X1712166Y668844D01*
X1711042Y666896D01*
X1710460Y664724D01*
Y662476D01*
X1711042Y660304D01*
X1712166Y658356D01*
X1713756Y656766D01*
X1715704Y655642D01*
X1717876Y655060D01*
X1720124D01*
X1722296Y655642D01*
X1724243Y656766D01*
X1725834Y658356D01*
X1726958Y660304D01*
X1727540Y662476D01*
Y664724D01*
X1726958Y666896D01*
X1725834Y668844D01*
X1724243Y670434D01*
X1722296Y671558D01*
X1720124Y672140D01*
D02*
G37*
G36*
X1600474Y670890D02*
X1598226D01*
X1596054Y670308D01*
X1594106Y669184D01*
X1592516Y667594D01*
X1591392Y665647D01*
X1590810Y663475D01*
Y661226D01*
X1591392Y659054D01*
X1592516Y657106D01*
X1594106Y655517D01*
X1596054Y654392D01*
X1598226Y653810D01*
X1600474D01*
X1602646Y654392D01*
X1604594Y655517D01*
X1606184Y657106D01*
X1607308Y659054D01*
X1607890Y661226D01*
Y663475D01*
X1607308Y665647D01*
X1606184Y667594D01*
X1604594Y669184D01*
X1602646Y670308D01*
X1600474Y670890D01*
D02*
G37*
G36*
X1968290Y648140D02*
X1951210D01*
Y631060D01*
X1968290D01*
Y648140D01*
D02*
G37*
G36*
X1867290Y647140D02*
X1850210D01*
Y630060D01*
X1867290D01*
Y647140D01*
D02*
G37*
G36*
X1752940Y646740D02*
X1735860D01*
Y629660D01*
X1752940D01*
Y646740D01*
D02*
G37*
G36*
X1633290Y645490D02*
X1616210D01*
Y628410D01*
X1633290D01*
Y645490D01*
D02*
G37*
G36*
X821722Y579835D02*
X821670D01*
Y571065D01*
X830440D01*
Y571116D01*
X829756Y573670D01*
X828434Y575959D01*
X826565Y577829D01*
X824276Y579150D01*
X821722Y579835D01*
D02*
G37*
G36*
X819130D02*
X819078D01*
X816525Y579150D01*
X814236Y577829D01*
X812366Y575959D01*
X811044Y573670D01*
X810360Y571116D01*
Y571065D01*
X819130D01*
Y579835D01*
D02*
G37*
G36*
X830440Y568525D02*
X821670D01*
Y559755D01*
X821722D01*
X824276Y560439D01*
X826565Y561761D01*
X828434Y563630D01*
X829756Y565919D01*
X830440Y568473D01*
Y568525D01*
D02*
G37*
G36*
X819130D02*
X810360D01*
Y568473D01*
X811044Y565919D01*
X812366Y563630D01*
X814236Y561761D01*
X816525Y560439D01*
X819078Y559755D01*
X819130D01*
Y568525D01*
D02*
G37*
G36*
X796322Y579835D02*
X793678D01*
X791125Y579150D01*
X788836Y577829D01*
X786966Y575959D01*
X785644Y573670D01*
X784960Y571116D01*
Y568473D01*
X785644Y565919D01*
X786966Y563630D01*
X788836Y561761D01*
X791125Y560439D01*
X793678Y559755D01*
X796322D01*
X798876Y560439D01*
X801165Y561761D01*
X803034Y563630D01*
X804356Y565919D01*
X805040Y568473D01*
Y571116D01*
X804356Y573670D01*
X803034Y575959D01*
X801165Y577829D01*
X798876Y579150D01*
X796322Y579835D01*
D02*
G37*
G36*
X770922D02*
X768278D01*
X765725Y579150D01*
X763436Y577829D01*
X761566Y575959D01*
X760244Y573670D01*
X759560Y571116D01*
Y568473D01*
X760244Y565919D01*
X761566Y563630D01*
X763436Y561761D01*
X765725Y560439D01*
X768278Y559755D01*
X770922D01*
X773475Y560439D01*
X775765Y561761D01*
X777634Y563630D01*
X778956Y565919D01*
X779640Y568473D01*
Y571116D01*
X778956Y573670D01*
X777634Y575959D01*
X775765Y577829D01*
X773475Y579150D01*
X770922Y579835D01*
D02*
G37*
G36*
X745522D02*
X742878D01*
X740325Y579150D01*
X738036Y577829D01*
X736166Y575959D01*
X734844Y573670D01*
X734160Y571116D01*
Y568473D01*
X734844Y565919D01*
X736166Y563630D01*
X738036Y561761D01*
X740325Y560439D01*
X742878Y559755D01*
X745522D01*
X748075Y560439D01*
X750365Y561761D01*
X752234Y563630D01*
X753556Y565919D01*
X754240Y568473D01*
Y571116D01*
X753556Y573670D01*
X752234Y575959D01*
X750365Y577829D01*
X748075Y579150D01*
X745522Y579835D01*
D02*
G37*
G36*
X720122D02*
X717478D01*
X714925Y579150D01*
X712635Y577829D01*
X710766Y575959D01*
X709444Y573670D01*
X708760Y571116D01*
Y568473D01*
X709444Y565919D01*
X710766Y563630D01*
X712635Y561761D01*
X714925Y560439D01*
X717478Y559755D01*
X720122D01*
X722675Y560439D01*
X724965Y561761D01*
X726834Y563630D01*
X728156Y565919D01*
X728840Y568473D01*
Y571116D01*
X728156Y573670D01*
X726834Y575959D01*
X724965Y577829D01*
X722675Y579150D01*
X720122Y579835D01*
D02*
G37*
G36*
X694722D02*
X692078D01*
X689525Y579150D01*
X687235Y577829D01*
X685366Y575959D01*
X684044Y573670D01*
X683360Y571116D01*
Y568473D01*
X684044Y565919D01*
X685366Y563630D01*
X687235Y561761D01*
X689525Y560439D01*
X692078Y559755D01*
X694722D01*
X697275Y560439D01*
X699565Y561761D01*
X701434Y563630D01*
X702756Y565919D01*
X703440Y568473D01*
Y571116D01*
X702756Y573670D01*
X701434Y575959D01*
X699565Y577829D01*
X697275Y579150D01*
X694722Y579835D01*
D02*
G37*
G36*
X669322D02*
X666678D01*
X664125Y579150D01*
X661835Y577829D01*
X659966Y575959D01*
X658644Y573670D01*
X657960Y571116D01*
Y568473D01*
X658644Y565919D01*
X659966Y563630D01*
X661835Y561761D01*
X664125Y560439D01*
X666678Y559755D01*
X669322D01*
X671876Y560439D01*
X674165Y561761D01*
X676034Y563630D01*
X677356Y565919D01*
X678040Y568473D01*
Y571116D01*
X677356Y573670D01*
X676034Y575959D01*
X674165Y577829D01*
X671876Y579150D01*
X669322Y579835D01*
D02*
G37*
G36*
X643922D02*
X641278D01*
X638725Y579150D01*
X636436Y577829D01*
X634566Y575959D01*
X633244Y573670D01*
X632560Y571116D01*
Y568473D01*
X633244Y565919D01*
X634566Y563630D01*
X636436Y561761D01*
X638725Y560439D01*
X641278Y559755D01*
X643922D01*
X646476Y560439D01*
X648765Y561761D01*
X650634Y563630D01*
X651956Y565919D01*
X652640Y568473D01*
Y571116D01*
X651956Y573670D01*
X650634Y575959D01*
X648765Y577829D01*
X646476Y579150D01*
X643922Y579835D01*
D02*
G37*
G36*
X618522D02*
X615878D01*
X613325Y579150D01*
X611035Y577829D01*
X609166Y575959D01*
X607844Y573670D01*
X607160Y571116D01*
Y568473D01*
X607844Y565919D01*
X609166Y563630D01*
X611035Y561761D01*
X613325Y560439D01*
X615878Y559755D01*
X618522D01*
X621076Y560439D01*
X623365Y561761D01*
X625234Y563630D01*
X626556Y565919D01*
X627240Y568473D01*
Y571116D01*
X626556Y573670D01*
X625234Y575959D01*
X623365Y577829D01*
X621076Y579150D01*
X618522Y579835D01*
D02*
G37*
G36*
X593122D02*
X590478D01*
X587925Y579150D01*
X585635Y577829D01*
X583766Y575959D01*
X582444Y573670D01*
X581760Y571116D01*
Y568473D01*
X582444Y565919D01*
X583766Y563630D01*
X585635Y561761D01*
X587925Y560439D01*
X590478Y559755D01*
X593122D01*
X595676Y560439D01*
X597965Y561761D01*
X599834Y563630D01*
X601156Y565919D01*
X601840Y568473D01*
Y571116D01*
X601156Y573670D01*
X599834Y575959D01*
X597965Y577829D01*
X595676Y579150D01*
X593122Y579835D01*
D02*
G37*
G36*
X567722D02*
X565078D01*
X562525Y579150D01*
X560235Y577829D01*
X558366Y575959D01*
X557044Y573670D01*
X556360Y571116D01*
Y568473D01*
X557044Y565919D01*
X558366Y563630D01*
X560235Y561761D01*
X562525Y560439D01*
X565078Y559755D01*
X567722D01*
X570275Y560439D01*
X572565Y561761D01*
X574434Y563630D01*
X575756Y565919D01*
X576440Y568473D01*
Y571116D01*
X575756Y573670D01*
X574434Y575959D01*
X572565Y577829D01*
X570275Y579150D01*
X567722Y579835D01*
D02*
G37*
G36*
X542322D02*
X539678D01*
X537125Y579150D01*
X534836Y577829D01*
X532966Y575959D01*
X531644Y573670D01*
X530960Y571116D01*
Y568473D01*
X531644Y565919D01*
X532966Y563630D01*
X534836Y561761D01*
X537125Y560439D01*
X539678Y559755D01*
X542322D01*
X544875Y560439D01*
X547165Y561761D01*
X549034Y563630D01*
X550356Y565919D01*
X551040Y568473D01*
Y571116D01*
X550356Y573670D01*
X549034Y575959D01*
X547165Y577829D01*
X544875Y579150D01*
X542322Y579835D01*
D02*
G37*
G36*
X516922D02*
X514278D01*
X511725Y579150D01*
X509436Y577829D01*
X507566Y575959D01*
X506244Y573670D01*
X505560Y571116D01*
Y568473D01*
X506244Y565919D01*
X507566Y563630D01*
X509436Y561761D01*
X511725Y560439D01*
X514278Y559755D01*
X516922D01*
X519476Y560439D01*
X521765Y561761D01*
X523634Y563630D01*
X524956Y565919D01*
X525640Y568473D01*
Y571116D01*
X524956Y573670D01*
X523634Y575959D01*
X521765Y577829D01*
X519476Y579150D01*
X516922Y579835D01*
D02*
G37*
G36*
X500240D02*
X480160D01*
Y559755D01*
X500240D01*
Y579835D01*
D02*
G37*
G36*
X1513400Y602645D02*
X1508856Y602288D01*
X1504424Y601224D01*
X1500214Y599480D01*
X1496328Y597098D01*
X1492862Y594138D01*
X1489902Y590672D01*
X1487520Y586786D01*
X1485776Y582576D01*
X1484712Y578144D01*
X1484355Y573600D01*
X1484374D01*
Y201540D01*
X1483960D01*
Y195500D01*
X1483000D01*
Y194230D01*
X1478960D01*
Y191190D01*
X1478710D01*
Y183801D01*
X1478406Y183274D01*
X1478070Y182020D01*
X1484500D01*
Y179480D01*
X1478070D01*
X1478406Y178226D01*
X1478710Y177699D01*
Y170310D01*
X1477616Y169885D01*
X1457000D01*
Y169912D01*
X1453917Y169506D01*
X1451044Y168316D01*
X1448577Y166423D01*
X1446684Y163956D01*
X1445494Y161083D01*
X1445415Y160482D01*
X1444984Y160233D01*
X1443767Y159016D01*
X1442906Y157524D01*
X1442460Y155861D01*
Y154139D01*
X1442906Y152476D01*
X1443767Y150984D01*
X1444984Y149767D01*
X1446476Y148906D01*
X1448139Y148460D01*
X1449861D01*
X1451524Y148906D01*
X1453016Y149767D01*
X1454233Y150984D01*
X1455094Y152476D01*
X1455540Y154139D01*
Y155861D01*
X1455094Y157524D01*
X1454233Y159016D01*
X1453369Y159880D01*
X1454071Y160930D01*
X1455415Y161828D01*
X1456931Y162129D01*
X1457000Y162115D01*
X1478960D01*
Y159960D01*
X1484374D01*
Y150626D01*
X1480302D01*
X1479000Y150885D01*
Y150875D01*
X1477037Y150617D01*
X1475208Y149859D01*
X1473637Y148653D01*
X1472431Y147082D01*
X1471673Y145253D01*
X1471434Y143435D01*
X1471405Y143290D01*
Y123212D01*
X1470040D01*
X1468006Y122944D01*
X1466111Y122159D01*
X1464484Y120910D01*
X1463235Y119283D01*
X1462450Y117388D01*
X1462183Y115354D01*
Y104854D01*
X1462450Y102821D01*
X1463235Y100926D01*
X1464484Y99298D01*
X1466111Y98050D01*
X1468006Y97265D01*
X1470040Y96997D01*
X1480540D01*
X1482574Y97265D01*
X1483242Y97542D01*
X1484512Y96693D01*
Y83040D01*
X1480460D01*
Y78984D01*
X1470040D01*
Y82649D01*
X1453960D01*
Y68069D01*
Y62129D01*
X1470040D01*
Y68069D01*
Y71733D01*
X1480460D01*
Y66960D01*
X1509540D01*
Y71365D01*
X1519960D01*
Y67960D01*
Y62020D01*
X1536040D01*
Y67960D01*
Y82540D01*
X1519960D01*
Y79135D01*
X1509540D01*
Y83040D01*
X1505885D01*
Y97914D01*
X1507155Y98647D01*
X1508357Y97953D01*
X1511673Y97064D01*
X1515107D01*
X1518423Y97953D01*
X1521397Y99670D01*
X1523824Y102098D01*
X1525541Y105071D01*
X1526430Y108388D01*
Y111821D01*
X1525541Y115138D01*
X1523824Y118111D01*
X1521397Y120539D01*
X1518423Y122256D01*
X1515107Y123144D01*
X1511673D01*
X1508357Y122256D01*
X1505383Y120539D01*
X1502955Y118111D01*
X1501239Y115138D01*
X1500350Y111821D01*
Y108388D01*
X1500637Y107315D01*
X1499259Y104735D01*
X1498406Y101924D01*
X1498120Y99025D01*
X1498115Y99000D01*
Y83040D01*
X1492282D01*
Y104854D01*
X1492285D01*
X1491974Y107220D01*
X1491061Y109424D01*
X1489609Y111316D01*
X1488397Y112246D01*
Y115354D01*
X1488129Y117388D01*
X1487344Y119283D01*
X1486096Y120910D01*
X1484469Y122159D01*
X1482574Y122944D01*
X1480540Y123212D01*
X1479175D01*
Y143118D01*
X1479189Y143153D01*
X1480302Y143374D01*
X1485000D01*
X1485195Y143413D01*
X1486711Y143613D01*
X1488306Y144273D01*
X1488439Y144375D01*
X1489806Y143823D01*
X1490273Y142694D01*
X1491324Y141324D01*
X1492694Y140273D01*
X1494289Y139613D01*
X1495805Y139413D01*
X1496000Y139374D01*
X1497698D01*
X1499000Y139115D01*
X1564000D01*
X1564118Y139139D01*
X1565975Y138769D01*
X1567650Y137650D01*
X1568769Y135976D01*
X1568925Y135191D01*
X1569115Y134000D01*
X1569115Y133999D01*
Y124107D01*
X1567700D01*
X1565666Y123840D01*
X1563771Y123055D01*
X1562144Y121806D01*
X1560895Y120179D01*
X1560110Y118284D01*
X1559843Y116250D01*
Y105750D01*
X1560110Y103716D01*
X1560895Y101821D01*
X1562144Y100194D01*
X1563771Y98946D01*
X1565666Y98160D01*
X1567700Y97893D01*
X1569374D01*
Y82876D01*
X1565040D01*
Y86540D01*
X1548960D01*
Y71960D01*
Y66020D01*
X1565040D01*
Y71960D01*
Y75624D01*
X1578460D01*
Y70960D01*
X1607540D01*
Y75115D01*
X1617960D01*
Y71960D01*
Y66020D01*
X1634040D01*
Y71960D01*
Y86540D01*
X1617960D01*
Y82885D01*
X1614885D01*
Y98527D01*
X1616083Y98849D01*
X1619057Y100565D01*
X1621485Y102993D01*
X1623201Y105967D01*
X1624090Y109283D01*
Y112717D01*
X1623201Y116033D01*
X1621485Y119007D01*
X1619057Y121435D01*
X1616083Y123151D01*
X1614885Y123472D01*
Y140000D01*
X1614921D01*
X1614480Y143344D01*
X1613190Y146460D01*
X1611136Y149136D01*
X1608460Y151189D01*
X1605344Y152480D01*
X1602000Y152921D01*
Y152885D01*
X1507000D01*
X1505698Y152626D01*
X1501626D01*
Y159960D01*
X1507040D01*
Y162115D01*
X1526179D01*
Y156879D01*
X1545821D01*
Y162058D01*
X1552942D01*
Y162039D01*
X1555779Y162412D01*
X1558423Y163507D01*
X1560693Y165249D01*
X1562435Y167519D01*
X1563530Y170163D01*
X1563904Y173000D01*
X1563885D01*
Y393000D01*
X1563848Y393183D01*
X1564273Y396410D01*
X1565589Y399588D01*
X1567683Y402317D01*
X1570412Y404411D01*
X1573590Y405727D01*
X1576817Y406152D01*
X1577000Y406115D01*
X1619000D01*
X1619108Y406137D01*
X1621039Y406391D01*
X1622939Y407178D01*
X1624570Y408430D01*
X1625822Y410061D01*
X1626609Y411961D01*
X1626863Y413892D01*
X1626885Y414000D01*
Y436691D01*
X1627016Y436767D01*
X1628233Y437984D01*
X1628309Y438115D01*
X1691691D01*
X1691767Y437984D01*
X1692984Y436767D01*
X1694476Y435906D01*
X1696139Y435460D01*
X1697861D01*
X1699524Y435906D01*
X1701016Y436767D01*
X1702233Y437984D01*
X1702309Y438115D01*
X1831115D01*
Y436309D01*
X1830984Y436233D01*
X1829767Y435016D01*
X1828906Y433524D01*
X1828460Y431861D01*
Y430139D01*
X1828906Y428476D01*
X1829767Y426984D01*
X1830984Y425767D01*
X1832476Y424906D01*
X1834139Y424460D01*
X1835861D01*
X1837524Y424906D01*
X1839016Y425767D01*
X1840233Y426984D01*
X1841094Y428476D01*
X1841540Y430139D01*
Y431861D01*
X1841094Y433524D01*
X1840233Y435016D01*
X1839016Y436233D01*
X1838885Y436309D01*
Y439000D01*
X1838838Y439236D01*
X1838635Y440778D01*
X1837948Y442434D01*
X1836857Y443857D01*
X1835434Y444949D01*
X1833778Y445635D01*
X1832236Y445838D01*
X1832000Y445885D01*
X1702309D01*
X1702233Y446016D01*
X1701016Y447233D01*
X1699524Y448094D01*
X1697861Y448540D01*
X1696139D01*
X1694476Y448094D01*
X1692984Y447233D01*
X1691767Y446016D01*
X1691691Y445885D01*
X1628309D01*
X1628233Y446016D01*
X1627016Y447233D01*
X1625524Y448094D01*
X1623861Y448540D01*
X1622139D01*
X1620476Y448094D01*
X1618984Y447233D01*
X1617767Y446016D01*
X1616906Y444524D01*
X1616460Y442861D01*
Y441139D01*
X1616906Y439476D01*
X1617767Y437984D01*
X1618984Y436767D01*
X1619115Y436691D01*
Y414000D01*
X1619068D01*
X1619048Y413952D01*
X1619000Y413932D01*
Y413885D01*
X1577000D01*
Y413911D01*
X1572921Y413509D01*
X1568998Y412319D01*
X1565383Y410387D01*
X1562214Y407786D01*
X1559613Y404617D01*
X1557681Y401002D01*
X1556491Y397080D01*
X1556089Y393000D01*
X1556115D01*
Y173000D01*
X1556120Y172978D01*
X1555882Y171782D01*
X1555192Y170750D01*
X1554160Y170061D01*
X1552964Y169823D01*
X1552942Y169827D01*
X1545821D01*
Y172994D01*
Y180788D01*
X1536000D01*
X1526179D01*
Y172994D01*
Y169885D01*
X1508384D01*
X1507290Y170310D01*
Y177698D01*
X1507594Y178226D01*
X1507931Y179480D01*
X1501500D01*
Y182020D01*
X1507931D01*
X1507594Y183274D01*
X1507290Y183802D01*
Y191190D01*
X1507040D01*
Y201540D01*
X1506626D01*
Y444000D01*
X1506606Y444096D01*
X1506948Y446693D01*
X1507988Y449203D01*
X1509642Y451358D01*
X1511797Y453012D01*
X1514307Y454051D01*
X1516904Y454393D01*
X1517000Y454374D01*
X1782000D01*
Y454344D01*
X1786030Y454741D01*
X1789904Y455917D01*
X1793476Y457826D01*
X1796606Y460394D01*
X1799174Y463524D01*
X1801083Y467095D01*
X1802259Y470970D01*
X1802655Y475000D01*
X1802626D01*
Y512180D01*
X1803896Y512706D01*
X1805035Y511566D01*
X1807325Y510244D01*
X1809878Y509560D01*
X1812522D01*
X1815075Y510244D01*
X1817365Y511566D01*
X1819234Y513436D01*
X1820556Y515725D01*
X1821240Y518278D01*
Y520922D01*
X1820556Y523475D01*
X1819234Y525765D01*
X1817365Y527634D01*
X1815075Y528956D01*
X1812522Y529640D01*
X1809878D01*
X1807325Y528956D01*
X1805035Y527634D01*
X1803896Y526495D01*
X1802626Y527021D01*
Y537580D01*
X1803896Y538106D01*
X1805035Y536966D01*
X1807325Y535644D01*
X1809878Y534960D01*
X1812522D01*
X1815075Y535644D01*
X1817365Y536966D01*
X1819234Y538835D01*
X1820556Y541125D01*
X1821240Y543678D01*
Y546322D01*
X1820556Y548876D01*
X1819234Y551165D01*
X1817365Y553034D01*
X1815075Y554356D01*
X1812522Y555040D01*
X1809878D01*
X1807325Y554356D01*
X1805035Y553034D01*
X1803166Y551165D01*
X1801844Y548876D01*
X1801777Y548626D01*
X1800190D01*
X1798803Y548350D01*
X1797627Y547564D01*
X1797626Y547564D01*
X1796992Y546929D01*
X1795575Y547309D01*
X1795156Y548876D01*
X1793834Y551165D01*
X1791965Y553034D01*
X1789675Y554356D01*
X1787122Y555040D01*
X1784478D01*
X1781924Y554356D01*
X1779635Y553034D01*
X1777766Y551165D01*
X1776444Y548876D01*
X1776350Y548526D01*
X1775088Y548360D01*
X1773230Y547590D01*
X1771678Y546399D01*
X1771521Y546389D01*
X1770326Y546747D01*
X1769756Y548876D01*
X1768434Y551165D01*
X1766564Y553034D01*
X1764275Y554356D01*
X1764026Y554423D01*
Y594600D01*
X1764023Y594615D01*
X1763751Y596677D01*
X1762949Y598612D01*
X1761674Y600274D01*
X1760012Y601550D01*
X1758077Y602351D01*
X1756015Y602623D01*
X1756000Y602626D01*
X1513400D01*
Y602645D01*
D02*
G37*
G36*
X974122Y541040D02*
X974070D01*
Y532270D01*
X982840D01*
Y532322D01*
X982156Y534875D01*
X980834Y537165D01*
X978965Y539034D01*
X976675Y540356D01*
X974122Y541040D01*
D02*
G37*
G36*
X971530D02*
X971478D01*
X968925Y540356D01*
X966636Y539034D01*
X964766Y537165D01*
X963444Y534875D01*
X962760Y532322D01*
Y532270D01*
X971530D01*
Y541040D01*
D02*
G37*
G36*
X982840Y529730D02*
X974070D01*
Y520960D01*
X974122D01*
X976675Y521644D01*
X978965Y522966D01*
X980834Y524836D01*
X982156Y527125D01*
X982840Y529678D01*
Y529730D01*
D02*
G37*
G36*
X971530D02*
X962760D01*
Y529678D01*
X963444Y527125D01*
X964766Y524836D01*
X966636Y522966D01*
X968925Y521644D01*
X971478Y520960D01*
X971530D01*
Y529730D01*
D02*
G37*
G36*
X948722Y541040D02*
X946078D01*
X943525Y540356D01*
X941236Y539034D01*
X939366Y537165D01*
X938044Y534875D01*
X937360Y532322D01*
Y529678D01*
X938044Y527125D01*
X939366Y524836D01*
X941236Y522966D01*
X943525Y521644D01*
X946078Y520960D01*
X948722D01*
X951275Y521644D01*
X953565Y522966D01*
X955434Y524836D01*
X956756Y527125D01*
X957440Y529678D01*
Y532322D01*
X956756Y534875D01*
X955434Y537165D01*
X953565Y539034D01*
X951275Y540356D01*
X948722Y541040D01*
D02*
G37*
G36*
X923322D02*
X920678D01*
X918125Y540356D01*
X915835Y539034D01*
X913966Y537165D01*
X912644Y534875D01*
X911960Y532322D01*
Y529678D01*
X912644Y527125D01*
X913966Y524836D01*
X915835Y522966D01*
X918125Y521644D01*
X920678Y520960D01*
X923322D01*
X925875Y521644D01*
X928165Y522966D01*
X930034Y524836D01*
X931356Y527125D01*
X932040Y529678D01*
Y532322D01*
X931356Y534875D01*
X930034Y537165D01*
X928165Y539034D01*
X925875Y540356D01*
X923322Y541040D01*
D02*
G37*
G36*
X897922D02*
X895278D01*
X892725Y540356D01*
X890435Y539034D01*
X888566Y537165D01*
X887244Y534875D01*
X886560Y532322D01*
Y529678D01*
X887244Y527125D01*
X888566Y524836D01*
X890435Y522966D01*
X892725Y521644D01*
X895278Y520960D01*
X897922D01*
X900475Y521644D01*
X902765Y522966D01*
X904634Y524836D01*
X905956Y527125D01*
X906640Y529678D01*
Y532322D01*
X905956Y534875D01*
X904634Y537165D01*
X902765Y539034D01*
X900475Y540356D01*
X897922Y541040D01*
D02*
G37*
G36*
X872522D02*
X869878D01*
X867325Y540356D01*
X865035Y539034D01*
X863166Y537165D01*
X861844Y534875D01*
X861160Y532322D01*
Y529678D01*
X861844Y527125D01*
X863166Y524836D01*
X865035Y522966D01*
X867325Y521644D01*
X869878Y520960D01*
X872522D01*
X875076Y521644D01*
X877365Y522966D01*
X879234Y524836D01*
X880556Y527125D01*
X881240Y529678D01*
Y532322D01*
X880556Y534875D01*
X879234Y537165D01*
X877365Y539034D01*
X875076Y540356D01*
X872522Y541040D01*
D02*
G37*
G36*
X847122D02*
X844478D01*
X841925Y540356D01*
X839635Y539034D01*
X837766Y537165D01*
X836444Y534875D01*
X835760Y532322D01*
Y529678D01*
X836444Y527125D01*
X837766Y524836D01*
X839635Y522966D01*
X841925Y521644D01*
X844478Y520960D01*
X847122D01*
X849676Y521644D01*
X851965Y522966D01*
X853834Y524836D01*
X855156Y527125D01*
X855840Y529678D01*
Y532322D01*
X855156Y534875D01*
X853834Y537165D01*
X851965Y539034D01*
X849676Y540356D01*
X847122Y541040D01*
D02*
G37*
G36*
X821722D02*
X819078D01*
X816525Y540356D01*
X814236Y539034D01*
X812366Y537165D01*
X811044Y534875D01*
X810360Y532322D01*
Y529678D01*
X811044Y527125D01*
X812366Y524836D01*
X814236Y522966D01*
X816525Y521644D01*
X819078Y520960D01*
X821722D01*
X824276Y521644D01*
X826565Y522966D01*
X828434Y524836D01*
X829756Y527125D01*
X830440Y529678D01*
Y532322D01*
X829756Y534875D01*
X828434Y537165D01*
X826565Y539034D01*
X824276Y540356D01*
X821722Y541040D01*
D02*
G37*
G36*
X796322D02*
X793678D01*
X791125Y540356D01*
X788836Y539034D01*
X786966Y537165D01*
X785644Y534875D01*
X784960Y532322D01*
Y529678D01*
X785644Y527125D01*
X786966Y524836D01*
X788836Y522966D01*
X791125Y521644D01*
X793678Y520960D01*
X796322D01*
X798876Y521644D01*
X801165Y522966D01*
X803034Y524836D01*
X804356Y527125D01*
X805040Y529678D01*
Y532322D01*
X804356Y534875D01*
X803034Y537165D01*
X801165Y539034D01*
X798876Y540356D01*
X796322Y541040D01*
D02*
G37*
G36*
X618522D02*
X615878D01*
X613325Y540356D01*
X611035Y539034D01*
X609166Y537165D01*
X607844Y534875D01*
X607160Y532322D01*
Y529678D01*
X607844Y527125D01*
X609166Y524836D01*
X611035Y522966D01*
X613325Y521644D01*
X615878Y520960D01*
X618522D01*
X621076Y521644D01*
X623365Y522966D01*
X625234Y524836D01*
X626556Y527125D01*
X627240Y529678D01*
Y532322D01*
X626556Y534875D01*
X625234Y537165D01*
X623365Y539034D01*
X621076Y540356D01*
X618522Y541040D01*
D02*
G37*
G36*
X593122D02*
X590478D01*
X587925Y540356D01*
X585635Y539034D01*
X583766Y537165D01*
X582444Y534875D01*
X581760Y532322D01*
Y529678D01*
X582444Y527125D01*
X583766Y524836D01*
X585635Y522966D01*
X587925Y521644D01*
X590478Y520960D01*
X593122D01*
X595676Y521644D01*
X597965Y522966D01*
X599834Y524836D01*
X601156Y527125D01*
X601840Y529678D01*
Y532322D01*
X601156Y534875D01*
X599834Y537165D01*
X597965Y539034D01*
X595676Y540356D01*
X593122Y541040D01*
D02*
G37*
G36*
X567722D02*
X565078D01*
X562525Y540356D01*
X560235Y539034D01*
X558366Y537165D01*
X557044Y534875D01*
X556360Y532322D01*
Y529678D01*
X557044Y527125D01*
X558366Y524836D01*
X560235Y522966D01*
X562525Y521644D01*
X565078Y520960D01*
X567722D01*
X570275Y521644D01*
X572565Y522966D01*
X574434Y524836D01*
X575756Y527125D01*
X576440Y529678D01*
Y532322D01*
X575756Y534875D01*
X574434Y537165D01*
X572565Y539034D01*
X570275Y540356D01*
X567722Y541040D01*
D02*
G37*
G36*
X542322D02*
X539678D01*
X537125Y540356D01*
X534836Y539034D01*
X532966Y537165D01*
X531644Y534875D01*
X530960Y532322D01*
Y529678D01*
X531644Y527125D01*
X532966Y524836D01*
X534836Y522966D01*
X537125Y521644D01*
X539678Y520960D01*
X542322D01*
X544875Y521644D01*
X547165Y522966D01*
X549034Y524836D01*
X550356Y527125D01*
X551040Y529678D01*
Y532322D01*
X550356Y534875D01*
X549034Y537165D01*
X547165Y539034D01*
X544875Y540356D01*
X542322Y541040D01*
D02*
G37*
G36*
X516922D02*
X514278D01*
X511725Y540356D01*
X509436Y539034D01*
X507566Y537165D01*
X506244Y534875D01*
X505560Y532322D01*
Y529678D01*
X506244Y527125D01*
X507566Y524836D01*
X509436Y522966D01*
X511725Y521644D01*
X514278Y520960D01*
X516922D01*
X519476Y521644D01*
X521765Y522966D01*
X523634Y524836D01*
X524956Y527125D01*
X525640Y529678D01*
Y532322D01*
X524956Y534875D01*
X523634Y537165D01*
X521765Y539034D01*
X519476Y540356D01*
X516922Y541040D01*
D02*
G37*
G36*
X500240D02*
X480160D01*
Y520960D01*
X500240D01*
Y541040D01*
D02*
G37*
G36*
X669322D02*
X666678D01*
X664125Y540356D01*
X661835Y539034D01*
X659966Y537165D01*
X658644Y534875D01*
X657960Y532322D01*
Y529678D01*
X658644Y527125D01*
X659966Y524836D01*
X661835Y522966D01*
X664116Y521650D01*
Y491270D01*
X664115Y490000D01*
X663989Y488782D01*
X663804Y487373D01*
X662790Y484925D01*
X661177Y482823D01*
X659075Y481210D01*
X656627Y480196D01*
X654105Y479864D01*
X654000Y479885D01*
X623874D01*
X623812Y481155D01*
X627668Y481535D01*
X632156Y482896D01*
X636292Y485107D01*
X639918Y488082D01*
X642893Y491708D01*
X645104Y495844D01*
X646466Y500332D01*
X646925Y505000D01*
X646885Y505000D01*
Y521881D01*
X648765Y522966D01*
X650634Y524836D01*
X651956Y527125D01*
X652640Y529678D01*
Y532322D01*
X651956Y534875D01*
X650634Y537165D01*
X648765Y539034D01*
X646476Y540356D01*
X643922Y541040D01*
X641278D01*
X638725Y540356D01*
X636436Y539034D01*
X634566Y537165D01*
X633244Y534875D01*
X632560Y532322D01*
Y529678D01*
X633244Y527125D01*
X634566Y524836D01*
X636436Y522966D01*
X638725Y521644D01*
X639115Y521540D01*
Y506260D01*
X639115Y506249D01*
X639115Y505000D01*
X639115Y505000D01*
X639020Y503770D01*
X638831Y501851D01*
X637912Y498823D01*
X636421Y496033D01*
X634413Y493587D01*
X631967Y491580D01*
X629177Y490088D01*
X626149Y489169D01*
X624230Y488980D01*
X623000Y488885D01*
X622999Y488884D01*
X525001D01*
X525000Y488885D01*
Y488886D01*
X521901Y488581D01*
X518921Y487677D01*
X516174Y486209D01*
X513767Y484233D01*
X511791Y481826D01*
X510323Y479080D01*
X509419Y476099D01*
X509113Y473000D01*
X509115D01*
X509115Y473000D01*
Y436833D01*
X506399D01*
Y425166D01*
X519600D01*
Y436833D01*
X516884D01*
Y472999D01*
X516885Y473000D01*
X516885D01*
X517027Y474211D01*
X517145Y475105D01*
X517957Y477066D01*
X519249Y478751D01*
X520934Y480043D01*
X522895Y480855D01*
X524947Y481126D01*
X525000Y481115D01*
X615541D01*
X615624Y479845D01*
X613439Y479557D01*
X611053Y478569D01*
X609003Y476997D01*
X607431Y474947D01*
X606442Y472561D01*
X606105Y470000D01*
X606115D01*
Y425601D01*
X603399D01*
Y413933D01*
X616600D01*
Y425601D01*
X613884D01*
Y469999D01*
X613885Y470000D01*
X613897D01*
X614057Y470805D01*
X614513Y471487D01*
X615195Y471943D01*
X616000Y472103D01*
Y472115D01*
X616000Y472115D01*
X654000D01*
X654000Y472115D01*
Y472104D01*
X657491Y472448D01*
X660849Y473466D01*
X663943Y475120D01*
X666655Y477346D01*
X668880Y480057D01*
X670534Y483151D01*
X671552Y486509D01*
X671896Y490000D01*
X671885D01*
X671885Y490000D01*
Y521650D01*
X674165Y522966D01*
X676034Y524836D01*
X677356Y527125D01*
X678040Y529678D01*
Y532322D01*
X677356Y534875D01*
X676034Y537165D01*
X674165Y539034D01*
X671876Y540356D01*
X669322Y541040D01*
D02*
G37*
G36*
X1458861Y492540D02*
X1457139D01*
X1455476Y492094D01*
X1453984Y491233D01*
X1452767Y490016D01*
X1451906Y488524D01*
X1451460Y486861D01*
Y485139D01*
X1451906Y483476D01*
X1452767Y481984D01*
X1453984Y480767D01*
X1455476Y479906D01*
X1457139Y479460D01*
X1458861D01*
X1460524Y479906D01*
X1462016Y480767D01*
X1463233Y481984D01*
X1464094Y483476D01*
X1464540Y485139D01*
Y486861D01*
X1464094Y488524D01*
X1463233Y490016D01*
X1462016Y491233D01*
X1460524Y492094D01*
X1458861Y492540D01*
D02*
G37*
G36*
X770922Y541040D02*
X768278D01*
X765725Y540356D01*
X763436Y539034D01*
X761566Y537165D01*
X760244Y534875D01*
X759560Y532322D01*
Y529678D01*
X760244Y527125D01*
X761566Y524836D01*
X763436Y522966D01*
X765715Y521650D01*
Y494401D01*
X765715Y494400D01*
X765687D01*
X766097Y490242D01*
X767310Y486244D01*
X769279Y482559D01*
X771930Y479330D01*
X775159Y476679D01*
X778844Y474710D01*
X780674Y474155D01*
X780486Y472884D01*
X755269D01*
X754000Y472885D01*
X752803Y473060D01*
X751712Y473277D01*
X749773Y474573D01*
X748477Y476512D01*
X748054Y478643D01*
X748085Y478800D01*
Y521650D01*
X750365Y522966D01*
X752234Y524836D01*
X753556Y527125D01*
X754240Y529678D01*
Y532322D01*
X753556Y534875D01*
X752234Y537165D01*
X750365Y539034D01*
X748075Y540356D01*
X745522Y541040D01*
X742878D01*
X740325Y540356D01*
X738036Y539034D01*
X736166Y537165D01*
X734844Y534875D01*
X734160Y532322D01*
Y529678D01*
X734844Y527125D01*
X736166Y524836D01*
X738036Y522966D01*
X740315Y521650D01*
Y478801D01*
X740315Y478800D01*
X740273D01*
X740740Y475247D01*
X742112Y471936D01*
X744293Y469093D01*
X747136Y466912D01*
X750447Y465540D01*
X753376Y465155D01*
X753292Y463885D01*
X725000D01*
Y463893D01*
X724117Y464068D01*
X723369Y464568D01*
X722868Y465317D01*
X722693Y466200D01*
X722685D01*
X722685Y466200D01*
Y521650D01*
X724965Y522966D01*
X726834Y524836D01*
X728156Y527125D01*
X728840Y529678D01*
Y532322D01*
X728156Y534875D01*
X726834Y537165D01*
X724965Y539034D01*
X722675Y540356D01*
X720122Y541040D01*
X717478D01*
X714925Y540356D01*
X712635Y539034D01*
X710766Y537165D01*
X709444Y534875D01*
X708760Y532322D01*
Y529678D01*
X709444Y527125D01*
X710766Y524836D01*
X712635Y522966D01*
X714915Y521650D01*
Y466201D01*
X714915Y466200D01*
X714904D01*
X715248Y463587D01*
X716256Y461152D01*
X717861Y459061D01*
X719952Y457456D01*
X722387Y456448D01*
X725000Y456104D01*
Y456115D01*
X725001Y456115D01*
X792733D01*
X794000Y456115D01*
X795199Y455943D01*
X796366Y455711D01*
X798371Y454371D01*
X799711Y452366D01*
X800148Y450167D01*
X800115Y450000D01*
Y443601D01*
X797399D01*
Y431933D01*
X810601D01*
Y443601D01*
X807885D01*
Y450000D01*
X807885Y450000D01*
X807929D01*
X807455Y453605D01*
X806063Y456965D01*
X803849Y459849D01*
X800965Y462063D01*
X797605Y463455D01*
X794638Y463845D01*
X794721Y465115D01*
X888000D01*
X888053Y465126D01*
X890105Y464855D01*
X892066Y464043D01*
X893751Y462751D01*
X895043Y461066D01*
X895855Y459105D01*
X895973Y458211D01*
X896115Y457000D01*
X896115D01*
X896116Y456999D01*
Y446833D01*
X893399D01*
Y435166D01*
X906600D01*
Y446833D01*
X903885D01*
Y457000D01*
X903885Y457000D01*
X903886D01*
X903581Y460099D01*
X902677Y463079D01*
X901209Y465826D01*
X899233Y468233D01*
X896826Y470209D01*
X894080Y471677D01*
X893526Y471845D01*
X893714Y473115D01*
X981000D01*
X981118Y473139D01*
X984541Y472802D01*
X987946Y471769D01*
X991084Y470092D01*
X993834Y467834D01*
X996092Y465084D01*
X997769Y461946D01*
X998802Y458541D01*
X999139Y455118D01*
X999115Y455000D01*
Y448601D01*
X996399D01*
Y436934D01*
X1009600D01*
Y448601D01*
X1006884D01*
Y454999D01*
X1006885Y455000D01*
X1006935D01*
X1006437Y460060D01*
X1004961Y464925D01*
X1002564Y469409D01*
X999339Y473339D01*
X995409Y476564D01*
X990925Y478961D01*
X986060Y480437D01*
X981000Y480935D01*
Y480885D01*
X980999Y480885D01*
X787001D01*
X787000Y480885D01*
Y480885D01*
X785771Y480983D01*
X783485Y481283D01*
X780210Y482640D01*
X777398Y484798D01*
X775240Y487610D01*
X773884Y490886D01*
X773446Y494206D01*
X773485Y494400D01*
Y521650D01*
X775765Y522966D01*
X777634Y524836D01*
X778956Y527125D01*
X779640Y529678D01*
Y532322D01*
X778956Y534875D01*
X777634Y537165D01*
X775765Y539034D01*
X773475Y540356D01*
X770922Y541040D01*
D02*
G37*
G36*
X883850Y452369D02*
X868149D01*
Y448039D01*
X851154D01*
Y448041D01*
X848814Y447733D01*
X846633Y446830D01*
X844761Y445393D01*
X843324Y443521D01*
X842421Y441340D01*
X842113Y439000D01*
X842115D01*
Y435309D01*
X841984Y435233D01*
X840767Y434016D01*
X839906Y432524D01*
X839460Y430861D01*
Y429139D01*
X839906Y427476D01*
X840767Y425984D01*
X841984Y424767D01*
X843476Y423906D01*
X845139Y423460D01*
X846861D01*
X848524Y423906D01*
X850016Y424767D01*
X851233Y425984D01*
X852094Y427476D01*
X852540Y429139D01*
Y430861D01*
X852094Y432524D01*
X851233Y434016D01*
X850016Y435233D01*
X849885Y435309D01*
Y439000D01*
X849869Y439078D01*
X850223Y439931D01*
X851076Y440285D01*
X851154Y440269D01*
X868149D01*
Y435939D01*
Y419631D01*
X883850D01*
Y423962D01*
X893399D01*
Y421632D01*
X897115D01*
Y389040D01*
X891210D01*
Y366960D01*
X910790D01*
Y389040D01*
X904885D01*
Y421632D01*
X906600D01*
Y433299D01*
X893399D01*
Y431731D01*
X883850D01*
Y435939D01*
Y452369D01*
D02*
G37*
G36*
X689851Y450215D02*
X674149D01*
Y445885D01*
X666309D01*
X666233Y446016D01*
X665016Y447233D01*
X663524Y448094D01*
X661861Y448540D01*
X660139D01*
X658476Y448094D01*
X656984Y447233D01*
X655767Y446016D01*
X654906Y444524D01*
X654460Y442861D01*
Y441139D01*
X654906Y439476D01*
X655767Y437984D01*
X656984Y436767D01*
X658476Y435906D01*
X660139Y435460D01*
X661861D01*
X663524Y435906D01*
X665016Y436767D01*
X666233Y437984D01*
X666309Y438116D01*
X674149D01*
Y433785D01*
Y417477D01*
X689851D01*
Y421348D01*
X700399D01*
Y419399D01*
X703115D01*
Y389040D01*
X697210D01*
Y366960D01*
X716790D01*
Y389040D01*
X710884D01*
Y419399D01*
X713600D01*
Y431067D01*
X700399D01*
Y429118D01*
X689851D01*
Y433785D01*
Y450215D01*
D02*
G37*
G36*
X782851Y448369D02*
X767150D01*
Y444039D01*
X756210D01*
X755016Y445233D01*
X753524Y446094D01*
X751861Y446540D01*
X750139D01*
X748476Y446094D01*
X746984Y445233D01*
X745767Y444016D01*
X744906Y442524D01*
X744460Y440861D01*
Y439139D01*
X744906Y437476D01*
X745767Y435984D01*
X746984Y434767D01*
X748476Y433906D01*
X750139Y433460D01*
X751861D01*
X753524Y433906D01*
X755016Y434767D01*
X756233Y435984D01*
X756398Y436269D01*
X767150D01*
Y431939D01*
Y415631D01*
X782851D01*
Y420348D01*
X797399D01*
Y418399D01*
X800115D01*
Y389040D01*
X794210D01*
Y366960D01*
X813790D01*
Y389040D01*
X807885D01*
Y418399D01*
X810601D01*
Y430066D01*
X797399D01*
Y428117D01*
X782851D01*
Y431939D01*
Y448369D01*
D02*
G37*
G36*
X694722Y541040D02*
X692078D01*
X689525Y540356D01*
X687235Y539034D01*
X685366Y537165D01*
X684044Y534875D01*
X683360Y532322D01*
Y529678D01*
X684044Y527125D01*
X685366Y524836D01*
X687235Y522966D01*
X689516Y521650D01*
Y483601D01*
X689515Y483600D01*
X689483D01*
X689909Y480360D01*
X691160Y477341D01*
X693149Y474749D01*
X695742Y472760D01*
X698760Y471509D01*
X702000Y471083D01*
X702986Y470397D01*
X703127Y470058D01*
X703115Y470000D01*
Y444601D01*
X700399D01*
Y432934D01*
X713600D01*
Y444601D01*
X710884D01*
Y469999D01*
X710885Y470000D01*
X710886D01*
X710583Y472300D01*
X709696Y474443D01*
X708283Y476283D01*
X706443Y477696D01*
X704300Y478583D01*
X702000Y478886D01*
Y478886D01*
X700811Y479082D01*
X700181Y479207D01*
X698638Y480238D01*
X697607Y481781D01*
X697265Y483501D01*
X697285Y483600D01*
Y521650D01*
X699565Y522966D01*
X701434Y524836D01*
X702756Y527125D01*
X703440Y529678D01*
Y532322D01*
X702756Y534875D01*
X701434Y537165D01*
X699565Y539034D01*
X697275Y540356D01*
X694722Y541040D01*
D02*
G37*
G36*
X1686270Y427430D02*
Y422270D01*
X1691430D01*
X1691094Y423524D01*
X1690233Y425016D01*
X1689016Y426233D01*
X1687524Y427094D01*
X1686270Y427430D01*
D02*
G37*
G36*
X1683730D02*
X1682476Y427094D01*
X1680984Y426233D01*
X1679767Y425016D01*
X1678906Y423524D01*
X1678570Y422270D01*
X1683730D01*
Y427430D01*
D02*
G37*
G36*
X1691430Y419730D02*
X1686270D01*
Y414570D01*
X1687524Y414906D01*
X1689016Y415767D01*
X1690233Y416984D01*
X1691094Y418476D01*
X1691430Y419730D01*
D02*
G37*
G36*
X1683730D02*
X1678570D01*
X1678906Y418476D01*
X1679767Y416984D01*
X1680984Y415767D01*
X1682476Y414906D01*
X1683730Y414570D01*
Y419730D01*
D02*
G37*
G36*
X391270Y414863D02*
Y407270D01*
X398863D01*
X398284Y409431D01*
X397114Y411459D01*
X395459Y413114D01*
X393431Y414284D01*
X391270Y414863D01*
D02*
G37*
G36*
X388730D02*
X386569Y414284D01*
X384541Y413114D01*
X382886Y411459D01*
X381716Y409431D01*
X381137Y407270D01*
X388730D01*
Y414863D01*
D02*
G37*
G36*
X1170270Y413863D02*
Y406270D01*
X1177863D01*
X1177284Y408431D01*
X1176114Y410459D01*
X1174459Y412114D01*
X1172431Y413284D01*
X1170270Y413863D01*
D02*
G37*
G36*
X1167730D02*
X1165569Y413284D01*
X1163541Y412114D01*
X1161886Y410459D01*
X1160716Y408431D01*
X1160137Y406270D01*
X1167730D01*
Y413863D01*
D02*
G37*
G36*
X1073270D02*
Y406270D01*
X1080863D01*
X1080284Y408431D01*
X1079114Y410459D01*
X1077459Y412114D01*
X1075431Y413284D01*
X1073270Y413863D01*
D02*
G37*
G36*
X1070730D02*
X1068569Y413284D01*
X1066541Y412114D01*
X1064886Y410459D01*
X1063716Y408431D01*
X1063137Y406270D01*
X1070730D01*
Y413863D01*
D02*
G37*
G36*
X1363270Y412863D02*
Y405270D01*
X1370863D01*
X1370284Y407431D01*
X1369114Y409459D01*
X1367459Y411114D01*
X1365431Y412284D01*
X1363270Y412863D01*
D02*
G37*
G36*
X1360730D02*
X1358569Y412284D01*
X1356541Y411114D01*
X1354886Y409459D01*
X1353716Y407431D01*
X1353137Y405270D01*
X1360730D01*
Y412863D01*
D02*
G37*
G36*
X1267270Y411863D02*
Y404270D01*
X1274863D01*
X1274284Y406431D01*
X1273114Y408459D01*
X1271459Y410114D01*
X1269431Y411284D01*
X1267270Y411863D01*
D02*
G37*
G36*
X1264730D02*
X1262569Y411284D01*
X1260541Y410114D01*
X1258886Y408459D01*
X1257716Y406431D01*
X1257137Y404270D01*
X1264730D01*
Y411863D01*
D02*
G37*
G36*
X976501Y411474D02*
Y403880D01*
X984094D01*
X983515Y406042D01*
X982345Y408069D01*
X980689Y409724D01*
X978662Y410895D01*
X976501Y411474D01*
D02*
G37*
G36*
X973961D02*
X971799Y410895D01*
X969772Y409724D01*
X968117Y408069D01*
X966947Y406042D01*
X966368Y403880D01*
X973961D01*
Y411474D01*
D02*
G37*
G36*
X197466Y410995D02*
Y403402D01*
X205060D01*
X204481Y405563D01*
X203310Y407591D01*
X201655Y409246D01*
X199628Y410416D01*
X197466Y410995D01*
D02*
G37*
G36*
X194926D02*
X192765Y410416D01*
X190738Y409246D01*
X189083Y407591D01*
X187912Y405563D01*
X187333Y403402D01*
X194926D01*
Y410995D01*
D02*
G37*
G36*
X101270Y409863D02*
Y402270D01*
X108863D01*
X108284Y404431D01*
X107114Y406459D01*
X105459Y408114D01*
X103431Y409284D01*
X101270Y409863D01*
D02*
G37*
G36*
X98730D02*
X96569Y409284D01*
X94541Y408114D01*
X92886Y406459D01*
X91716Y404431D01*
X91137Y402270D01*
X98730D01*
Y409863D01*
D02*
G37*
G36*
X294527Y408590D02*
Y400997D01*
X302120D01*
X301541Y403158D01*
X300371Y405185D01*
X298715Y406841D01*
X296688Y408011D01*
X294527Y408590D01*
D02*
G37*
G36*
X291987D02*
X289825Y408011D01*
X287798Y406841D01*
X286143Y405185D01*
X284973Y403158D01*
X284394Y400997D01*
X291987D01*
Y408590D01*
D02*
G37*
G36*
X1941270Y403430D02*
Y398270D01*
X1946430D01*
X1946094Y399524D01*
X1945233Y401016D01*
X1944016Y402233D01*
X1942524Y403094D01*
X1941270Y403430D01*
D02*
G37*
G36*
X1938730D02*
X1937476Y403094D01*
X1935984Y402233D01*
X1934767Y401016D01*
X1933906Y399524D01*
X1933570Y398270D01*
X1938730D01*
Y403430D01*
D02*
G37*
G36*
X398863Y404730D02*
X391270D01*
Y397137D01*
X393431Y397716D01*
X395459Y398886D01*
X397114Y400541D01*
X398284Y402569D01*
X398863Y404730D01*
D02*
G37*
G36*
X388730D02*
X381137D01*
X381716Y402569D01*
X382886Y400541D01*
X384541Y398886D01*
X386569Y397716D01*
X388730Y397137D01*
Y404730D01*
D02*
G37*
G36*
X1177863Y403730D02*
X1170270D01*
Y396137D01*
X1172431Y396716D01*
X1174459Y397886D01*
X1176114Y399541D01*
X1177284Y401569D01*
X1177863Y403730D01*
D02*
G37*
G36*
X1167730D02*
X1160137D01*
X1160716Y401569D01*
X1161886Y399541D01*
X1163541Y397886D01*
X1165569Y396716D01*
X1167730Y396137D01*
Y403730D01*
D02*
G37*
G36*
X1080863D02*
X1073270D01*
Y396137D01*
X1075431Y396716D01*
X1077459Y397886D01*
X1079114Y399541D01*
X1080284Y401569D01*
X1080863Y403730D01*
D02*
G37*
G36*
X1070730D02*
X1063137D01*
X1063716Y401569D01*
X1064886Y399541D01*
X1066541Y397886D01*
X1068569Y396716D01*
X1070730Y396137D01*
Y403730D01*
D02*
G37*
G36*
X1370863Y402730D02*
X1363270D01*
Y395137D01*
X1365431Y395716D01*
X1367459Y396886D01*
X1369114Y398541D01*
X1370284Y400569D01*
X1370863Y402730D01*
D02*
G37*
G36*
X1360730D02*
X1353137D01*
X1353716Y400569D01*
X1354886Y398541D01*
X1356541Y396886D01*
X1358569Y395716D01*
X1360730Y395137D01*
Y402730D01*
D02*
G37*
G36*
X1274863Y401730D02*
X1267270D01*
Y394137D01*
X1269431Y394716D01*
X1271459Y395886D01*
X1273114Y397541D01*
X1274284Y399569D01*
X1274863Y401730D01*
D02*
G37*
G36*
X1264730D02*
X1257137D01*
X1257716Y399569D01*
X1258886Y397541D01*
X1260541Y395886D01*
X1262569Y394716D01*
X1264730Y394137D01*
Y401730D01*
D02*
G37*
G36*
X984094Y401340D02*
X976501D01*
Y393747D01*
X978662Y394326D01*
X980689Y395497D01*
X982345Y397152D01*
X983515Y399179D01*
X984094Y401340D01*
D02*
G37*
G36*
X973961D02*
X966368D01*
X966947Y399179D01*
X968117Y397152D01*
X969772Y395497D01*
X971799Y394326D01*
X973961Y393747D01*
Y401340D01*
D02*
G37*
G36*
X205060Y400862D02*
X197466D01*
Y393269D01*
X199628Y393848D01*
X201655Y395018D01*
X203310Y396673D01*
X204481Y398701D01*
X205060Y400862D01*
D02*
G37*
G36*
X194926D02*
X187333D01*
X187912Y398701D01*
X189083Y396673D01*
X190738Y395018D01*
X192765Y393848D01*
X194926Y393269D01*
Y400862D01*
D02*
G37*
G36*
X108863Y399730D02*
X101270D01*
Y392137D01*
X103431Y392716D01*
X105459Y393886D01*
X107114Y395541D01*
X108284Y397569D01*
X108863Y399730D01*
D02*
G37*
G36*
X98730D02*
X91137D01*
X91716Y397569D01*
X92886Y395541D01*
X94541Y393886D01*
X96569Y392716D01*
X98730Y392137D01*
Y399730D01*
D02*
G37*
G36*
X496863Y398730D02*
X489270D01*
Y391137D01*
X491431Y391716D01*
X493459Y392886D01*
X495114Y394541D01*
X496284Y396569D01*
X496863Y398730D01*
D02*
G37*
G36*
X486730D02*
X479137D01*
X479716Y396569D01*
X480886Y394541D01*
X482541Y392886D01*
X484569Y391716D01*
X486730Y391137D01*
Y398730D01*
D02*
G37*
G36*
X302120Y398457D02*
X294527D01*
Y390863D01*
X296688Y391443D01*
X298715Y392613D01*
X300371Y394268D01*
X301541Y396295D01*
X302120Y398457D01*
D02*
G37*
G36*
X291987D02*
X284394D01*
X284973Y396295D01*
X286143Y394268D01*
X287798Y392613D01*
X289825Y391443D01*
X291987Y390863D01*
Y398457D01*
D02*
G37*
G36*
X1946430Y395730D02*
X1941270D01*
Y390570D01*
X1942524Y390906D01*
X1944016Y391767D01*
X1945233Y392984D01*
X1946094Y394476D01*
X1946430Y395730D01*
D02*
G37*
G36*
X1938730D02*
X1933570D01*
X1933906Y394476D01*
X1934767Y392984D01*
X1935984Y391767D01*
X1937476Y390906D01*
X1938730Y390570D01*
Y395730D01*
D02*
G37*
G36*
X982390Y389040D02*
X973870D01*
Y379270D01*
X982390D01*
Y389040D01*
D02*
G37*
G36*
X885390D02*
X876870D01*
Y379270D01*
X885390D01*
Y389040D01*
D02*
G37*
G36*
X788390D02*
X779870D01*
Y379270D01*
X788390D01*
Y389040D01*
D02*
G37*
G36*
X691390D02*
X682870D01*
Y379270D01*
X691390D01*
Y389040D01*
D02*
G37*
G36*
X594390D02*
X585870D01*
Y379270D01*
X594390D01*
Y389040D01*
D02*
G37*
G36*
X497390D02*
X488870D01*
Y379270D01*
X497390D01*
Y389040D01*
D02*
G37*
G36*
X971330D02*
X962810D01*
Y379270D01*
X971330D01*
Y389040D01*
D02*
G37*
G36*
X874330D02*
X865810D01*
Y379270D01*
X874330D01*
Y389040D01*
D02*
G37*
G36*
X777330D02*
X768810D01*
Y379270D01*
X777330D01*
Y389040D01*
D02*
G37*
G36*
X680330D02*
X671810D01*
Y379270D01*
X680330D01*
Y389040D01*
D02*
G37*
G36*
X583330D02*
X574810D01*
Y379270D01*
X583330D01*
Y389040D01*
D02*
G37*
G36*
X486330D02*
X477810D01*
Y379270D01*
X486330D01*
Y389040D01*
D02*
G37*
G36*
X1033190D02*
X1013610D01*
Y366960D01*
X1033190D01*
Y389040D01*
D02*
G37*
G36*
X981851Y454369D02*
X966149D01*
Y450039D01*
X959154D01*
X958938Y449996D01*
X957336Y449785D01*
X955642Y449083D01*
X954187Y447967D01*
X953071Y446512D01*
X952369Y444818D01*
X952158Y443216D01*
X952115Y443000D01*
X952139Y442882D01*
X951769Y441025D01*
X950650Y439350D01*
X948976Y438231D01*
X947118Y437861D01*
X947000Y437885D01*
X937309D01*
X937233Y438016D01*
X936016Y439233D01*
X934524Y440094D01*
X932861Y440540D01*
X931139D01*
X929476Y440094D01*
X927984Y439233D01*
X926767Y438016D01*
X925906Y436524D01*
X925460Y434861D01*
Y433139D01*
X925906Y431476D01*
X926767Y429984D01*
X927984Y428767D01*
X929476Y427906D01*
X931139Y427460D01*
X932861D01*
X934524Y427906D01*
X936016Y428767D01*
X937233Y429984D01*
X937309Y430115D01*
X947000D01*
Y430079D01*
X950344Y430520D01*
X953460Y431810D01*
X956136Y433864D01*
X958189Y436540D01*
X959480Y439656D01*
X959824Y442269D01*
X966149D01*
Y437939D01*
Y421631D01*
X981851D01*
Y425348D01*
X996399D01*
Y423400D01*
X999115D01*
Y406769D01*
X997662Y406480D01*
X995779Y405221D01*
X994520Y403338D01*
X994078Y401116D01*
X994115D01*
X994115Y401115D01*
Y389040D01*
X988210D01*
Y366960D01*
X1007790D01*
Y389040D01*
X1001885D01*
Y399252D01*
X1003267Y399527D01*
X1005189Y400811D01*
X1006473Y402733D01*
X1006924Y405000D01*
X1006885D01*
X1006884Y405001D01*
Y423400D01*
X1009600D01*
Y435067D01*
X996399D01*
Y433118D01*
X981851D01*
Y437939D01*
Y454369D01*
D02*
G37*
G36*
X982390Y376730D02*
X973870D01*
Y366960D01*
X982390D01*
Y376730D01*
D02*
G37*
G36*
X971330D02*
X962810D01*
Y366960D01*
X971330D01*
Y376730D01*
D02*
G37*
G36*
X936190Y389040D02*
X916610D01*
Y366960D01*
X936190D01*
Y389040D01*
D02*
G37*
G36*
X885390Y376730D02*
X876870D01*
Y366960D01*
X885390D01*
Y376730D01*
D02*
G37*
G36*
X874330D02*
X865810D01*
Y366960D01*
X874330D01*
Y376730D01*
D02*
G37*
G36*
X839190Y389040D02*
X819610D01*
Y366960D01*
X839190D01*
Y389040D01*
D02*
G37*
G36*
X788390Y376730D02*
X779870D01*
Y366960D01*
X788390D01*
Y376730D01*
D02*
G37*
G36*
X777330D02*
X768810D01*
Y366960D01*
X777330D01*
Y376730D01*
D02*
G37*
G36*
X742190Y389040D02*
X722610D01*
Y366960D01*
X742190D01*
Y389040D01*
D02*
G37*
G36*
X691390Y376730D02*
X682870D01*
Y366960D01*
X691390D01*
Y376730D01*
D02*
G37*
G36*
X680330D02*
X671810D01*
Y366960D01*
X680330D01*
Y376730D01*
D02*
G37*
G36*
X645190Y389040D02*
X625610D01*
Y366960D01*
X645190D01*
Y389040D01*
D02*
G37*
G36*
X580000Y468885D02*
X538000D01*
X537764Y468838D01*
X536222Y468635D01*
X534566Y467948D01*
X533143Y466857D01*
X532052Y465434D01*
X531365Y463778D01*
X531319Y463427D01*
X530984Y463233D01*
X529767Y462016D01*
X528906Y460524D01*
X528460Y458861D01*
Y457139D01*
X528906Y455476D01*
X529767Y453984D01*
X530984Y452767D01*
X532476Y451906D01*
X534139Y451460D01*
X535861D01*
X537524Y451906D01*
X539016Y452767D01*
X540233Y453984D01*
X541094Y455476D01*
X541540Y457139D01*
Y458861D01*
X541276Y459845D01*
X542120Y461115D01*
X580000D01*
Y461068D01*
X580048Y461048D01*
X580068Y461000D01*
X580115D01*
Y431369D01*
X576149D01*
Y414939D01*
Y398631D01*
X591851D01*
Y402348D01*
X603399D01*
Y400399D01*
X606115D01*
Y389040D01*
X600210D01*
Y366960D01*
X619790D01*
Y389040D01*
X613884D01*
Y400399D01*
X616600D01*
Y412066D01*
X603399D01*
Y410117D01*
X591851D01*
Y414939D01*
Y431369D01*
X587884D01*
Y461000D01*
X587863Y461108D01*
X587609Y463039D01*
X586822Y464939D01*
X585570Y466570D01*
X583939Y467822D01*
X582039Y468609D01*
X580108Y468863D01*
X580000Y468885D01*
D02*
G37*
G36*
X594390Y376730D02*
X585870D01*
Y366960D01*
X594390D01*
Y376730D01*
D02*
G37*
G36*
X583330D02*
X574810D01*
Y366960D01*
X583330D01*
Y376730D01*
D02*
G37*
G36*
X548190Y389040D02*
X528610D01*
Y366960D01*
X548190D01*
Y389040D01*
D02*
G37*
G36*
X481861Y458540D02*
X480139D01*
X478476Y458094D01*
X476984Y457233D01*
X475767Y456016D01*
X474906Y454524D01*
X474460Y452861D01*
Y451139D01*
X474906Y449476D01*
X475767Y447984D01*
X476984Y446767D01*
X477115Y446691D01*
Y442369D01*
X473149D01*
Y425939D01*
Y409631D01*
X484688D01*
X484856Y408361D01*
X484569Y408284D01*
X482541Y407114D01*
X480886Y405459D01*
X479716Y403431D01*
X479137Y401270D01*
X496863D01*
X496284Y403431D01*
X495114Y405459D01*
X493459Y407114D01*
X491431Y408284D01*
X489749Y408735D01*
X489006Y409476D01*
X488851Y410031D01*
Y413581D01*
X506399D01*
Y411632D01*
X509115D01*
Y389040D01*
X503210D01*
Y366960D01*
X522790D01*
Y389040D01*
X516884D01*
Y411632D01*
X519600D01*
Y423299D01*
X506399D01*
Y421350D01*
X488851D01*
Y425939D01*
Y442369D01*
X484884D01*
Y446691D01*
X485016Y446767D01*
X486233Y447984D01*
X487094Y449476D01*
X487540Y451139D01*
Y452861D01*
X487094Y454524D01*
X486233Y456016D01*
X485016Y457233D01*
X483524Y458094D01*
X481861Y458540D01*
D02*
G37*
G36*
X497390Y376730D02*
X488870D01*
Y366960D01*
X497390D01*
Y376730D01*
D02*
G37*
G36*
X486330D02*
X477810D01*
Y366960D01*
X486330D01*
Y376730D01*
D02*
G37*
G36*
X1461270Y368430D02*
Y363270D01*
X1466430D01*
X1466094Y364524D01*
X1465233Y366016D01*
X1464016Y367233D01*
X1462524Y368094D01*
X1461270Y368430D01*
D02*
G37*
G36*
X1458730D02*
X1457476Y368094D01*
X1455984Y367233D01*
X1454767Y366016D01*
X1453906Y364524D01*
X1453570Y363270D01*
X1458730D01*
Y368430D01*
D02*
G37*
G36*
X1466430Y360730D02*
X1461270D01*
Y355570D01*
X1462524Y355906D01*
X1464016Y356767D01*
X1465233Y357984D01*
X1466094Y359476D01*
X1466430Y360730D01*
D02*
G37*
G36*
X1458730D02*
X1453570D01*
X1453906Y359476D01*
X1454767Y357984D01*
X1455984Y356767D01*
X1457476Y355906D01*
X1458730Y355570D01*
Y360730D01*
D02*
G37*
G36*
X586270Y362863D02*
Y355270D01*
X593863D01*
X593284Y357431D01*
X592114Y359459D01*
X590459Y361114D01*
X588431Y362284D01*
X586270Y362863D01*
D02*
G37*
G36*
X583730D02*
X581569Y362284D01*
X579541Y361114D01*
X577886Y359459D01*
X576716Y357431D01*
X576137Y355270D01*
X583730D01*
Y362863D01*
D02*
G37*
G36*
X593863Y352730D02*
X586270D01*
Y345137D01*
X588431Y345716D01*
X590459Y346886D01*
X592114Y348541D01*
X593284Y350569D01*
X593863Y352730D01*
D02*
G37*
G36*
X583730D02*
X576137D01*
X576716Y350569D01*
X577886Y348541D01*
X579541Y346886D01*
X581569Y345716D01*
X583730Y345137D01*
Y352730D01*
D02*
G37*
G36*
X1599270Y343430D02*
Y338270D01*
X1604430D01*
X1604094Y339524D01*
X1603233Y341016D01*
X1602016Y342233D01*
X1600524Y343094D01*
X1599270Y343430D01*
D02*
G37*
G36*
X1596730D02*
X1595476Y343094D01*
X1593984Y342233D01*
X1592767Y341016D01*
X1591906Y339524D01*
X1591570Y338270D01*
X1596730D01*
Y343430D01*
D02*
G37*
G36*
X1811111Y338577D02*
Y333417D01*
X1816271D01*
X1815935Y334671D01*
X1815074Y336163D01*
X1813857Y337380D01*
X1812365Y338241D01*
X1811111Y338577D01*
D02*
G37*
G36*
X1808571D02*
X1807316Y338241D01*
X1805825Y337380D01*
X1804608Y336163D01*
X1803746Y334671D01*
X1803410Y333417D01*
X1808571D01*
Y338577D01*
D02*
G37*
G36*
X1604430Y335730D02*
X1599270D01*
Y330570D01*
X1600524Y330906D01*
X1602016Y331767D01*
X1603233Y332984D01*
X1604094Y334476D01*
X1604430Y335730D01*
D02*
G37*
G36*
X1596730D02*
X1591570D01*
X1591906Y334476D01*
X1592767Y332984D01*
X1593984Y331767D01*
X1595476Y330906D01*
X1596730Y330570D01*
Y335730D01*
D02*
G37*
G36*
X1816271Y330877D02*
X1811111D01*
Y325717D01*
X1812365Y326053D01*
X1813857Y326914D01*
X1815074Y328131D01*
X1815935Y329623D01*
X1816271Y330877D01*
D02*
G37*
G36*
X1808571D02*
X1803410D01*
X1803746Y329623D01*
X1804608Y328131D01*
X1805825Y326914D01*
X1807316Y326053D01*
X1808571Y325717D01*
Y330877D01*
D02*
G37*
G36*
X1043000Y319935D02*
Y319885D01*
X1042999Y319884D01*
X520001D01*
X520000Y319885D01*
Y319903D01*
X517178Y319532D01*
X514548Y318442D01*
X512290Y316710D01*
X510558Y314452D01*
X509468Y311822D01*
X509097Y309000D01*
X509115D01*
X509116Y308999D01*
Y295040D01*
X503210D01*
Y272960D01*
X522790D01*
Y295040D01*
X516885D01*
Y309000D01*
X516881Y309020D01*
X517115Y310195D01*
X517792Y311208D01*
X518805Y311885D01*
X519980Y312119D01*
X520000Y312115D01*
X606115D01*
Y295040D01*
X600210D01*
Y272960D01*
X619790D01*
Y295040D01*
X613884D01*
Y312115D01*
X703115D01*
Y295040D01*
X697210D01*
Y272960D01*
X716790D01*
Y295040D01*
X710884D01*
Y312115D01*
X801115D01*
Y295040D01*
X794210D01*
Y272960D01*
X813790D01*
Y295040D01*
X808885D01*
Y312115D01*
X896116D01*
Y295040D01*
X891210D01*
Y272960D01*
X910790D01*
Y295040D01*
X903885D01*
Y312115D01*
X993115D01*
Y295040D01*
X988210D01*
Y272960D01*
X1007790D01*
Y295040D01*
X1000884D01*
Y312115D01*
X1043000D01*
X1043118Y312139D01*
X1046541Y311802D01*
X1049946Y310769D01*
X1053084Y309091D01*
X1055834Y306834D01*
X1058092Y304084D01*
X1059769Y300946D01*
X1060802Y297541D01*
X1061029Y295234D01*
X1061115Y294000D01*
X1061115D01*
X1061115Y293999D01*
Y118270D01*
X1061115Y117000D01*
X1060981Y115786D01*
X1060830Y114634D01*
X1059917Y112429D01*
X1058464Y110536D01*
X1056571Y109083D01*
X1054366Y108170D01*
X1053214Y108019D01*
X1052000Y107885D01*
X1050745Y107884D01*
X1005001D01*
X1005000Y107885D01*
Y107903D01*
X1002178Y107532D01*
X999548Y106442D01*
X997290Y104710D01*
X995557Y102452D01*
X994468Y99822D01*
X994097Y97000D01*
X994115D01*
X994115Y96999D01*
Y78269D01*
X994115Y77000D01*
X993907Y75816D01*
X993827Y75415D01*
X992929Y74071D01*
X991585Y73173D01*
X990069Y72871D01*
X990000Y72885D01*
X986306D01*
X986154Y73454D01*
X984634Y76086D01*
X982486Y78234D01*
X979854Y79754D01*
X976919Y80540D01*
X973881D01*
X970946Y79754D01*
X968314Y78234D01*
X966166Y76086D01*
X964647Y73454D01*
X964494Y72885D01*
X936140D01*
Y80540D01*
X913060D01*
Y57460D01*
X936140D01*
Y65115D01*
X964494D01*
X964647Y64546D01*
X966166Y61914D01*
X968314Y59766D01*
X970946Y58247D01*
X973881Y57460D01*
X976919D01*
X979854Y58247D01*
X982486Y59766D01*
X984634Y61914D01*
X986154Y64546D01*
X986306Y65115D01*
X989999D01*
X990000Y65115D01*
Y65088D01*
X993083Y65494D01*
X995956Y66684D01*
X998423Y68577D01*
X1000316Y71044D01*
X1001506Y73917D01*
X1001912Y77000D01*
X1001885D01*
X1001885Y77000D01*
Y97000D01*
X1001881Y97020D01*
X1002115Y98195D01*
X1002792Y99208D01*
X1003805Y99885D01*
X1004980Y100119D01*
X1005000Y100115D01*
X1052000D01*
X1052000Y100115D01*
Y100109D01*
X1055295Y100433D01*
X1058464Y101394D01*
X1061384Y102955D01*
X1063944Y105056D01*
X1066045Y107616D01*
X1067606Y110536D01*
X1068567Y113705D01*
X1068891Y117000D01*
X1068885D01*
X1068885Y117000D01*
Y294000D01*
X1068885Y294000D01*
X1068935D01*
X1068437Y299060D01*
X1066961Y303925D01*
X1064564Y308409D01*
X1061339Y312339D01*
X1057409Y315564D01*
X1052925Y317961D01*
X1048060Y319437D01*
X1043000Y319935D01*
D02*
G37*
G36*
X1546270Y300430D02*
Y295270D01*
X1551430D01*
X1551094Y296524D01*
X1550233Y298016D01*
X1549016Y299233D01*
X1547524Y300094D01*
X1546270Y300430D01*
D02*
G37*
G36*
X1543730D02*
X1542476Y300094D01*
X1540984Y299233D01*
X1539767Y298016D01*
X1538906Y296524D01*
X1538570Y295270D01*
X1543730D01*
Y300430D01*
D02*
G37*
G36*
X1551430Y292730D02*
X1546270D01*
Y287570D01*
X1547524Y287906D01*
X1549016Y288767D01*
X1550233Y289984D01*
X1551094Y291476D01*
X1551430Y292730D01*
D02*
G37*
G36*
X1543730D02*
X1538570D01*
X1538906Y291476D01*
X1539767Y289984D01*
X1540984Y288767D01*
X1542476Y287906D01*
X1543730Y287570D01*
Y292730D01*
D02*
G37*
G36*
X982390Y295040D02*
X962810D01*
Y272960D01*
X982390D01*
Y295040D01*
D02*
G37*
G36*
X885390D02*
X865810D01*
Y272960D01*
X885390D01*
Y295040D01*
D02*
G37*
G36*
X788390D02*
X768810D01*
Y272960D01*
X788390D01*
Y295040D01*
D02*
G37*
G36*
X691390D02*
X671810D01*
Y272960D01*
X691390D01*
Y295040D01*
D02*
G37*
G36*
X594390D02*
X574810D01*
Y272960D01*
X594390D01*
Y295040D01*
D02*
G37*
G36*
X497390D02*
X477810D01*
Y272960D01*
X497390D01*
Y295040D01*
D02*
G37*
G36*
X1911270Y274430D02*
Y269270D01*
X1916430D01*
X1916094Y270524D01*
X1915233Y272016D01*
X1914016Y273233D01*
X1912524Y274094D01*
X1911270Y274430D01*
D02*
G37*
G36*
X1908730D02*
X1907476Y274094D01*
X1905984Y273233D01*
X1904767Y272016D01*
X1903906Y270524D01*
X1903570Y269270D01*
X1908730D01*
Y274430D01*
D02*
G37*
G36*
X1782270D02*
Y269270D01*
X1787430D01*
X1787094Y270524D01*
X1786233Y272016D01*
X1785016Y273233D01*
X1783524Y274094D01*
X1782270Y274430D01*
D02*
G37*
G36*
X1779730D02*
X1778476Y274094D01*
X1776984Y273233D01*
X1775767Y272016D01*
X1774906Y270524D01*
X1774570Y269270D01*
X1779730D01*
Y274430D01*
D02*
G37*
G36*
X1916430Y266730D02*
X1911270D01*
Y261570D01*
X1912524Y261906D01*
X1914016Y262767D01*
X1915233Y263984D01*
X1916094Y265476D01*
X1916430Y266730D01*
D02*
G37*
G36*
X1908730D02*
X1903570D01*
X1903906Y265476D01*
X1904767Y263984D01*
X1905984Y262767D01*
X1907476Y261906D01*
X1908730Y261570D01*
Y266730D01*
D02*
G37*
G36*
X1787430D02*
X1782270D01*
Y261570D01*
X1783524Y261906D01*
X1785016Y262767D01*
X1786233Y263984D01*
X1787094Y265476D01*
X1787430Y266730D01*
D02*
G37*
G36*
X1779730D02*
X1774570D01*
X1774906Y265476D01*
X1775767Y263984D01*
X1776984Y262767D01*
X1778476Y261906D01*
X1779730Y261570D01*
Y266730D01*
D02*
G37*
G36*
X1687270Y264430D02*
Y259270D01*
X1692430D01*
X1692094Y260524D01*
X1691233Y262016D01*
X1690016Y263233D01*
X1688524Y264094D01*
X1687270Y264430D01*
D02*
G37*
G36*
X1684730D02*
X1683476Y264094D01*
X1681984Y263233D01*
X1680767Y262016D01*
X1679906Y260524D01*
X1679570Y259270D01*
X1684730D01*
Y264430D01*
D02*
G37*
G36*
X1692430Y256730D02*
X1687270D01*
Y251570D01*
X1688524Y251906D01*
X1690016Y252767D01*
X1691233Y253984D01*
X1692094Y255476D01*
X1692430Y256730D01*
D02*
G37*
G36*
X1684730D02*
X1679570D01*
X1679906Y255476D01*
X1680767Y253984D01*
X1681984Y252767D01*
X1683476Y251906D01*
X1684730Y251570D01*
Y256730D01*
D02*
G37*
G36*
X1343927Y216435D02*
Y211275D01*
X1349088D01*
X1348752Y212529D01*
X1347891Y214020D01*
X1346673Y215238D01*
X1345182Y216099D01*
X1343927Y216435D01*
D02*
G37*
G36*
X1341387D02*
X1340133Y216099D01*
X1338642Y215238D01*
X1337424Y214020D01*
X1336563Y212529D01*
X1336227Y211275D01*
X1341387D01*
Y216435D01*
D02*
G37*
G36*
X1050270Y216430D02*
Y211270D01*
X1055430D01*
X1055094Y212524D01*
X1054233Y214016D01*
X1053016Y215233D01*
X1051524Y216094D01*
X1050270Y216430D01*
D02*
G37*
G36*
X1047730D02*
X1046476Y216094D01*
X1044984Y215233D01*
X1043767Y214016D01*
X1042906Y212524D01*
X1042570Y211270D01*
X1047730D01*
Y216430D01*
D02*
G37*
G36*
X176270Y215430D02*
Y210270D01*
X181430D01*
X181094Y211524D01*
X180233Y213016D01*
X179016Y214233D01*
X177524Y215094D01*
X176270Y215430D01*
D02*
G37*
G36*
X173730D02*
X172476Y215094D01*
X170984Y214233D01*
X169767Y213016D01*
X168906Y211524D01*
X168570Y210270D01*
X173730D01*
Y215430D01*
D02*
G37*
G36*
X910980Y216540D02*
X905210D01*
Y210270D01*
X910980D01*
Y216540D01*
D02*
G37*
G36*
X470022Y215296D02*
Y210135D01*
X475182D01*
X474846Y211390D01*
X473985Y212881D01*
X472767Y214099D01*
X471276Y214960D01*
X470022Y215296D01*
D02*
G37*
G36*
X467482D02*
X466227Y214960D01*
X464736Y214099D01*
X463518Y212881D01*
X462658Y211390D01*
X462321Y210135D01*
X467482D01*
Y215296D01*
D02*
G37*
G36*
X620980Y215540D02*
X615210D01*
Y209270D01*
X620980D01*
Y215540D01*
D02*
G37*
G36*
X1147270Y214430D02*
Y209270D01*
X1152430D01*
X1152094Y210524D01*
X1151233Y212016D01*
X1150016Y213233D01*
X1148524Y214094D01*
X1147270Y214430D01*
D02*
G37*
G36*
X1144730D02*
X1143476Y214094D01*
X1141984Y213233D01*
X1140767Y212016D01*
X1139906Y210524D01*
X1139570Y209270D01*
X1144730D01*
Y214430D01*
D02*
G37*
G36*
X274270Y213430D02*
Y208270D01*
X279430D01*
X279094Y209524D01*
X278233Y211016D01*
X277016Y212233D01*
X275524Y213094D01*
X274270Y213430D01*
D02*
G37*
G36*
X271730D02*
X270476Y213094D01*
X268984Y212233D01*
X267767Y211016D01*
X266906Y209524D01*
X266570Y208270D01*
X271730D01*
Y213430D01*
D02*
G37*
G36*
X814980Y214540D02*
X809210D01*
Y208270D01*
X814980D01*
Y214540D01*
D02*
G37*
G36*
X522980Y213540D02*
X517210D01*
Y207270D01*
X522980D01*
Y213540D01*
D02*
G37*
G36*
X717980D02*
X712210D01*
Y207270D01*
X717980D01*
Y213540D01*
D02*
G37*
G36*
X954270Y212430D02*
Y207270D01*
X959430D01*
X959094Y208524D01*
X958233Y210016D01*
X957016Y211233D01*
X955524Y212094D01*
X954270Y212430D01*
D02*
G37*
G36*
X951730D02*
X950476Y212094D01*
X948984Y211233D01*
X947767Y210016D01*
X946906Y208524D01*
X946570Y207270D01*
X951730D01*
Y212430D01*
D02*
G37*
G36*
X1246270Y211430D02*
Y206270D01*
X1251430D01*
X1251094Y207524D01*
X1250233Y209016D01*
X1249016Y210233D01*
X1247524Y211094D01*
X1246270Y211430D01*
D02*
G37*
G36*
X1243730D02*
X1242476Y211094D01*
X1240984Y210233D01*
X1239767Y209016D01*
X1238906Y207524D01*
X1238570Y206270D01*
X1243730D01*
Y211430D01*
D02*
G37*
G36*
X77270D02*
Y206270D01*
X82430D01*
X82094Y207524D01*
X81233Y209016D01*
X80016Y210233D01*
X78524Y211094D01*
X77270Y211430D01*
D02*
G37*
G36*
X74730D02*
X73476Y211094D01*
X71984Y210233D01*
X70767Y209016D01*
X69906Y207524D01*
X69570Y206270D01*
X74730D01*
Y211430D01*
D02*
G37*
G36*
X369888Y210518D02*
Y205358D01*
X375048D01*
X374712Y206612D01*
X373851Y208103D01*
X372634Y209321D01*
X371142Y210182D01*
X369888Y210518D01*
D02*
G37*
G36*
X367348D02*
X366094Y210182D01*
X364602Y209321D01*
X363385Y208103D01*
X362524Y206612D01*
X362188Y205358D01*
X367348D01*
Y210518D01*
D02*
G37*
G36*
X1007980Y210540D02*
X1002210D01*
Y204270D01*
X1007980D01*
Y210540D01*
D02*
G37*
G36*
X1349088Y208735D02*
X1343927D01*
Y203574D01*
X1345182Y203910D01*
X1346673Y204771D01*
X1347891Y205989D01*
X1348752Y207480D01*
X1349088Y208735D01*
D02*
G37*
G36*
X1341387D02*
X1336227D01*
X1336563Y207480D01*
X1337424Y205989D01*
X1338642Y204771D01*
X1340133Y203910D01*
X1341387Y203574D01*
Y208735D01*
D02*
G37*
G36*
X1055430Y208730D02*
X1050270D01*
Y203570D01*
X1051524Y203906D01*
X1053016Y204767D01*
X1054233Y205984D01*
X1055094Y207476D01*
X1055430Y208730D01*
D02*
G37*
G36*
X1047730D02*
X1042570D01*
X1042906Y207476D01*
X1043767Y205984D01*
X1044984Y204767D01*
X1046476Y203906D01*
X1047730Y203570D01*
Y208730D01*
D02*
G37*
G36*
X181430Y207730D02*
X176270D01*
Y202570D01*
X177524Y202906D01*
X179016Y203767D01*
X180233Y204984D01*
X181094Y206476D01*
X181430Y207730D01*
D02*
G37*
G36*
X173730D02*
X168570D01*
X168906Y206476D01*
X169767Y204984D01*
X170984Y203767D01*
X172476Y202906D01*
X173730Y202570D01*
Y207730D01*
D02*
G37*
G36*
X475182Y207595D02*
X470022D01*
Y202435D01*
X471276Y202771D01*
X472767Y203632D01*
X473985Y204850D01*
X474846Y206341D01*
X475182Y207595D01*
D02*
G37*
G36*
X467482D02*
X462321D01*
X462658Y206341D01*
X463518Y204850D01*
X464736Y203632D01*
X466227Y202771D01*
X467482Y202435D01*
Y207595D01*
D02*
G37*
G36*
X1152430Y206730D02*
X1147270D01*
Y201570D01*
X1148524Y201906D01*
X1150016Y202767D01*
X1151233Y203984D01*
X1152094Y205476D01*
X1152430Y206730D01*
D02*
G37*
G36*
X1144730D02*
X1139570D01*
X1139906Y205476D01*
X1140767Y203984D01*
X1141984Y202767D01*
X1143476Y201906D01*
X1144730Y201570D01*
Y206730D01*
D02*
G37*
G36*
X910980Y207730D02*
X905210D01*
Y201460D01*
X910980D01*
Y207730D01*
D02*
G37*
G36*
X279430Y205730D02*
X274270D01*
Y200570D01*
X275524Y200906D01*
X277016Y201767D01*
X278233Y202984D01*
X279094Y204476D01*
X279430Y205730D01*
D02*
G37*
G36*
X271730D02*
X266570D01*
X266906Y204476D01*
X267767Y202984D01*
X268984Y201767D01*
X270476Y200906D01*
X271730Y200570D01*
Y205730D01*
D02*
G37*
G36*
X620980Y206730D02*
X615210D01*
Y200460D01*
X620980D01*
Y206730D01*
D02*
G37*
G36*
X959430Y204730D02*
X954270D01*
Y199570D01*
X955524Y199906D01*
X957016Y200767D01*
X958233Y201984D01*
X959094Y203476D01*
X959430Y204730D01*
D02*
G37*
G36*
X951730D02*
X946570D01*
X946906Y203476D01*
X947767Y201984D01*
X948984Y200767D01*
X950476Y199906D01*
X951730Y199570D01*
Y204730D01*
D02*
G37*
G36*
X814980Y205730D02*
X809210D01*
Y199460D01*
X814980D01*
Y205730D01*
D02*
G37*
G36*
X1251430Y203730D02*
X1246270D01*
Y198570D01*
X1247524Y198906D01*
X1249016Y199767D01*
X1250233Y200984D01*
X1251094Y202476D01*
X1251430Y203730D01*
D02*
G37*
G36*
X1243730D02*
X1238570D01*
X1238906Y202476D01*
X1239767Y200984D01*
X1240984Y199767D01*
X1242476Y198906D01*
X1243730Y198570D01*
Y203730D01*
D02*
G37*
G36*
X82430D02*
X77270D01*
Y198570D01*
X78524Y198906D01*
X80016Y199767D01*
X81233Y200984D01*
X82094Y202476D01*
X82430Y203730D01*
D02*
G37*
G36*
X74730D02*
X69570D01*
X69906Y202476D01*
X70767Y200984D01*
X71984Y199767D01*
X73476Y198906D01*
X74730Y198570D01*
Y203730D01*
D02*
G37*
G36*
X717980Y204730D02*
X712210D01*
Y198460D01*
X717980D01*
Y204730D01*
D02*
G37*
G36*
X522980D02*
X517210D01*
Y198460D01*
X522980D01*
Y204730D01*
D02*
G37*
G36*
X1578861Y232540D02*
X1577139D01*
X1575476Y232094D01*
X1573984Y231233D01*
X1572767Y230016D01*
X1571906Y228524D01*
X1571460Y226861D01*
Y225139D01*
X1571906Y223476D01*
X1572767Y221984D01*
X1572820Y221931D01*
Y213000D01*
X1572807D01*
X1573257Y209585D01*
X1574575Y206404D01*
X1576671Y203671D01*
X1579404Y201575D01*
X1582585Y200257D01*
X1586000Y199807D01*
Y199820D01*
X1734931D01*
X1734984Y199767D01*
X1736476Y198906D01*
X1738139Y198460D01*
X1739861D01*
X1741524Y198906D01*
X1743016Y199767D01*
X1743069Y199820D01*
X1822931D01*
X1822984Y199767D01*
X1824476Y198906D01*
X1826139Y198460D01*
X1827861D01*
X1829524Y198906D01*
X1831016Y199767D01*
X1831069Y199820D01*
X1940931D01*
X1940984Y199767D01*
X1942476Y198906D01*
X1944139Y198460D01*
X1945861D01*
X1947524Y198906D01*
X1949016Y199767D01*
X1950233Y200984D01*
X1951094Y202476D01*
X1951540Y204139D01*
Y205861D01*
X1951094Y207524D01*
X1950233Y209016D01*
X1949016Y210233D01*
X1947524Y211094D01*
X1945861Y211540D01*
X1944139D01*
X1942476Y211094D01*
X1940984Y210233D01*
X1940931Y210180D01*
X1831069D01*
X1831016Y210233D01*
X1829524Y211094D01*
X1827861Y211540D01*
X1826139D01*
X1824476Y211094D01*
X1822984Y210233D01*
X1822931Y210180D01*
X1743069D01*
X1743016Y210233D01*
X1741524Y211094D01*
X1739861Y211540D01*
X1738139D01*
X1736476Y211094D01*
X1734984Y210233D01*
X1734931Y210180D01*
X1586000D01*
X1585932Y210166D01*
X1584910Y210369D01*
X1583986Y210986D01*
X1583369Y211910D01*
X1583166Y212932D01*
X1583179Y213000D01*
Y221931D01*
X1583233Y221984D01*
X1584094Y223476D01*
X1584540Y225139D01*
Y226861D01*
X1584094Y228524D01*
X1583233Y230016D01*
X1582016Y231233D01*
X1580524Y232094D01*
X1578861Y232540D01*
D02*
G37*
G36*
X375048Y202818D02*
X369888D01*
Y197657D01*
X371142Y197993D01*
X372634Y198854D01*
X373851Y200072D01*
X374712Y201563D01*
X375048Y202818D01*
D02*
G37*
G36*
X367348D02*
X362188D01*
X362524Y201563D01*
X363385Y200072D01*
X364602Y198854D01*
X366094Y197993D01*
X367348Y197657D01*
Y202818D01*
D02*
G37*
G36*
X1481730Y201540D02*
X1478960D01*
Y196770D01*
X1481730D01*
Y201540D01*
D02*
G37*
G36*
X1007980Y201730D02*
X1002210D01*
Y195460D01*
X1007980D01*
Y201730D01*
D02*
G37*
G36*
X839190Y295040D02*
X819610D01*
Y272960D01*
X825515D01*
Y258369D01*
X821150D01*
Y241939D01*
Y225631D01*
X825116D01*
Y214540D01*
X817520D01*
Y207000D01*
Y199460D01*
X825865D01*
Y198040D01*
X823460D01*
Y186960D01*
X836540D01*
Y198040D01*
X833635D01*
Y199460D01*
X836790D01*
Y214540D01*
X832885D01*
Y225631D01*
X836851D01*
Y241939D01*
Y258369D01*
X833285D01*
Y272960D01*
X839190D01*
Y295040D01*
D02*
G37*
G36*
X742190D02*
X722610D01*
Y272960D01*
X729115D01*
Y254369D01*
X725149D01*
Y237939D01*
Y221631D01*
X729115D01*
Y213540D01*
X720520D01*
Y206000D01*
Y198460D01*
X728865D01*
Y197040D01*
X726460D01*
Y185960D01*
X739540D01*
Y197040D01*
X736635D01*
Y198460D01*
X739790D01*
Y213540D01*
X736885D01*
Y221631D01*
X740851D01*
Y237939D01*
Y254369D01*
X736885D01*
Y272960D01*
X742190D01*
Y295040D01*
D02*
G37*
G36*
X548190D02*
X528610D01*
Y272960D01*
X534515D01*
Y260369D01*
X530149D01*
Y243939D01*
Y227631D01*
X534115D01*
Y213540D01*
X525520D01*
Y206000D01*
Y198460D01*
X533865D01*
Y197040D01*
X531460D01*
Y185960D01*
X544540D01*
Y197040D01*
X541635D01*
Y198460D01*
X544790D01*
Y213540D01*
X541885D01*
Y227631D01*
X545851D01*
Y243939D01*
Y260369D01*
X542284D01*
Y272960D01*
X548190D01*
Y295040D01*
D02*
G37*
G36*
X645190D02*
X625610D01*
Y272960D01*
X631115D01*
Y255369D01*
X627149D01*
Y238939D01*
Y222631D01*
X631115D01*
Y215540D01*
X623520D01*
Y208000D01*
Y200460D01*
X631865D01*
Y196040D01*
X628460D01*
Y184960D01*
X641540D01*
Y196040D01*
X639635D01*
Y200460D01*
X642790D01*
Y215540D01*
X638885D01*
Y222631D01*
X642851D01*
Y238939D01*
Y255369D01*
X638885D01*
Y272960D01*
X645190D01*
Y295040D01*
D02*
G37*
G36*
X1545821Y191121D02*
X1537270D01*
Y183328D01*
X1545821D01*
Y191121D01*
D02*
G37*
G36*
X1534730D02*
X1526179D01*
Y183328D01*
X1534730D01*
Y191121D01*
D02*
G37*
G36*
X936190Y295040D02*
X916610D01*
Y272960D01*
X922515D01*
Y261369D01*
X918149D01*
Y244939D01*
Y228631D01*
X922115D01*
Y216540D01*
X913520D01*
Y209000D01*
Y201460D01*
X921866D01*
Y191040D01*
X919460D01*
Y179960D01*
X932540D01*
Y191040D01*
X929635D01*
Y201460D01*
X932790D01*
Y216540D01*
X929885D01*
Y228631D01*
X933851D01*
Y244939D01*
Y261369D01*
X930285D01*
Y272960D01*
X936190D01*
Y295040D01*
D02*
G37*
G36*
X1033190D02*
X1013610D01*
Y272960D01*
X1019116D01*
Y252369D01*
X1015150D01*
Y235939D01*
Y219631D01*
X1019116D01*
Y210540D01*
X1010520D01*
Y203000D01*
Y195460D01*
X1018865D01*
Y190040D01*
X1016460D01*
Y178960D01*
X1029540D01*
Y190040D01*
X1026634D01*
Y195460D01*
X1029790D01*
Y210540D01*
X1026885D01*
Y219631D01*
X1030851D01*
Y235939D01*
Y252369D01*
X1026885D01*
Y272960D01*
X1033190D01*
Y295040D01*
D02*
G37*
G36*
X836540Y185040D02*
X823460D01*
Y173960D01*
X826115D01*
Y156000D01*
X826127Y155942D01*
X825979Y155587D01*
X825000Y154885D01*
X825000Y154885D01*
X768000D01*
X768000Y154885D01*
Y154891D01*
X764705Y154567D01*
X761536Y153606D01*
X758616Y152045D01*
X756056Y149944D01*
X753955Y147384D01*
X752394Y144464D01*
X751433Y141295D01*
X751229Y139223D01*
X751229Y139223D01*
X751109Y138000D01*
Y138000D01*
X751115D01*
Y79820D01*
X750865Y79754D01*
X748234Y78234D01*
X746086Y76086D01*
X744566Y73454D01*
X743780Y70519D01*
Y67481D01*
X744566Y64546D01*
X746086Y61914D01*
X748234Y59766D01*
X750865Y58247D01*
X753801Y57460D01*
X756839D01*
X759774Y58247D01*
X762405Y59766D01*
X764554Y61914D01*
X766073Y64546D01*
X766860Y67481D01*
Y70519D01*
X766073Y73454D01*
X764554Y76086D01*
X762405Y78234D01*
X759774Y79754D01*
X758884Y79992D01*
Y137999D01*
X758885Y138000D01*
X759019Y139215D01*
X759170Y140366D01*
X760083Y142571D01*
X761536Y144464D01*
X763429Y145917D01*
X765634Y146830D01*
X767922Y147131D01*
X768000Y147115D01*
X825000D01*
Y147114D01*
X825000D01*
X827300Y147417D01*
X829443Y148305D01*
X831283Y149717D01*
X832695Y151557D01*
X833583Y153700D01*
X833886Y156000D01*
X833885D01*
X833885Y156001D01*
Y173960D01*
X836540D01*
Y185040D01*
D02*
G37*
G36*
X1423270Y150430D02*
Y145270D01*
X1428430D01*
X1428094Y146524D01*
X1427233Y148016D01*
X1426016Y149233D01*
X1424524Y150094D01*
X1423270Y150430D01*
D02*
G37*
G36*
X1420730D02*
X1419476Y150094D01*
X1417984Y149233D01*
X1416767Y148016D01*
X1415906Y146524D01*
X1415570Y145270D01*
X1420730D01*
Y150430D01*
D02*
G37*
G36*
X522270Y147430D02*
Y142270D01*
X527430D01*
X527094Y143524D01*
X526233Y145016D01*
X525016Y146233D01*
X523524Y147094D01*
X522270Y147430D01*
D02*
G37*
G36*
X519730D02*
X518476Y147094D01*
X516984Y146233D01*
X515767Y145016D01*
X514906Y143524D01*
X514570Y142270D01*
X519730D01*
Y147430D01*
D02*
G37*
G36*
X932540Y178040D02*
X919460D01*
Y166960D01*
X922115D01*
Y143001D01*
X922115Y143000D01*
X922115D01*
X921413Y142021D01*
X921058Y141873D01*
X921000Y141885D01*
X833000D01*
X833000Y141885D01*
Y141920D01*
X828529Y141480D01*
X824229Y140176D01*
X820266Y138058D01*
X816793Y135207D01*
X813942Y131734D01*
X811824Y127771D01*
X810520Y123471D01*
X810080Y119000D01*
X810115D01*
Y80540D01*
X803020D01*
Y57460D01*
X826100D01*
Y80540D01*
X817885D01*
Y119000D01*
X817885Y119000D01*
X817985Y120228D01*
X818155Y121953D01*
X819016Y124792D01*
X820415Y127409D01*
X822297Y129703D01*
X824591Y131585D01*
X827208Y132984D01*
X830047Y133845D01*
X831772Y134015D01*
X833000Y134115D01*
Y134115D01*
X833001Y134116D01*
X920999D01*
X921000Y134115D01*
Y134114D01*
X923300Y134417D01*
X925443Y135304D01*
X927283Y136717D01*
X928696Y138557D01*
X929583Y140700D01*
X929886Y143000D01*
X929885D01*
X929885Y143000D01*
Y166960D01*
X932540D01*
Y178040D01*
D02*
G37*
G36*
X1428430Y142730D02*
X1423270D01*
Y137570D01*
X1424524Y137906D01*
X1426016Y138767D01*
X1427233Y139984D01*
X1428094Y141476D01*
X1428430Y142730D01*
D02*
G37*
G36*
X1420730D02*
X1415570D01*
X1415906Y141476D01*
X1416767Y139984D01*
X1417984Y138767D01*
X1419476Y137906D01*
X1420730Y137570D01*
Y142730D01*
D02*
G37*
G36*
X527430Y139730D02*
X522270D01*
Y134570D01*
X523524Y134906D01*
X525016Y135767D01*
X526233Y136984D01*
X527094Y138476D01*
X527430Y139730D01*
D02*
G37*
G36*
X519730D02*
X514570D01*
X514906Y138476D01*
X515767Y136984D01*
X516984Y135767D01*
X518476Y134906D01*
X519730Y134570D01*
Y139730D01*
D02*
G37*
G36*
X1029540Y177040D02*
X1016460D01*
Y165960D01*
X1019116D01*
Y128001D01*
X1019115Y128000D01*
X1019115D01*
X1018989Y126782D01*
X1018804Y125373D01*
X1017790Y122925D01*
X1016177Y120823D01*
X1014075Y119210D01*
X1011627Y118196D01*
X1010218Y118011D01*
X1009000Y117885D01*
Y117885D01*
X1008999Y117884D01*
X878980D01*
X878979Y117885D01*
Y117894D01*
X875562Y117558D01*
X872277Y116561D01*
X869249Y114943D01*
X866595Y112765D01*
X864417Y110111D01*
X862799Y107083D01*
X861802Y103798D01*
X861466Y100381D01*
X861475D01*
Y79906D01*
X860905Y79754D01*
X858274Y78234D01*
X856125Y76086D01*
X854606Y73454D01*
X853820Y70519D01*
Y67481D01*
X854606Y64546D01*
X856125Y61914D01*
X858274Y59766D01*
X860905Y58247D01*
X863840Y57460D01*
X866879D01*
X869814Y58247D01*
X872445Y59766D01*
X874594Y61914D01*
X876113Y64546D01*
X876900Y67481D01*
Y70519D01*
X876113Y73454D01*
X874594Y76086D01*
X872445Y78234D01*
X869814Y79754D01*
X869244Y79906D01*
Y100380D01*
X869245Y100381D01*
X869245D01*
X869373Y101597D01*
X869546Y102908D01*
X870522Y105264D01*
X872074Y107286D01*
X874096Y108838D01*
X876452Y109814D01*
X878884Y110134D01*
X878979Y110115D01*
X1009000D01*
X1009000Y110115D01*
Y110104D01*
X1012491Y110448D01*
X1015849Y111466D01*
X1018943Y113120D01*
X1021655Y115345D01*
X1023880Y118057D01*
X1025534Y121151D01*
X1026552Y124509D01*
X1026896Y128000D01*
X1026885D01*
X1026885Y128000D01*
Y165960D01*
X1029540D01*
Y177040D01*
D02*
G37*
G36*
X739540Y184040D02*
X726460D01*
Y172960D01*
X729115D01*
Y75000D01*
X729115Y75000D01*
X729103D01*
X728943Y74195D01*
X728487Y73513D01*
X727805Y73057D01*
X727000Y72897D01*
Y72885D01*
X727000Y72885D01*
X716060D01*
Y80540D01*
X692980D01*
Y57460D01*
X716060D01*
Y65115D01*
X726999D01*
X727000Y65115D01*
Y65105D01*
X729561Y65443D01*
X731947Y66431D01*
X733997Y68003D01*
X735569Y70053D01*
X736557Y72439D01*
X736895Y75000D01*
X736885D01*
X736885Y75001D01*
Y172960D01*
X739540D01*
Y184040D01*
D02*
G37*
G36*
X1928890Y81790D02*
X1919370D01*
Y72270D01*
X1928890D01*
Y81790D01*
D02*
G37*
G36*
X1916830D02*
X1907310D01*
Y72270D01*
X1916830D01*
Y81790D01*
D02*
G37*
G36*
X1685690Y80790D02*
X1676170D01*
Y71270D01*
X1685690D01*
Y80790D01*
D02*
G37*
G36*
X1673630D02*
X1664110D01*
Y71270D01*
X1673630D01*
Y80790D01*
D02*
G37*
G36*
X1928890Y69730D02*
X1919370D01*
Y60210D01*
X1928890D01*
Y69730D01*
D02*
G37*
G36*
X1916830D02*
X1907310D01*
Y60210D01*
X1916830D01*
Y69730D01*
D02*
G37*
G36*
X1732247Y133816D02*
X1730525D01*
X1728862Y133371D01*
X1727370Y132510D01*
X1726153Y131292D01*
X1725292Y129801D01*
X1724846Y128137D01*
Y126415D01*
X1725292Y124752D01*
X1726153Y123261D01*
X1727370Y122043D01*
X1728862Y121182D01*
X1730525Y120736D01*
X1732247D01*
X1733911Y121182D01*
X1735402Y122043D01*
X1736619Y123261D01*
X1736695Y123392D01*
X1866724D01*
X1866809Y123409D01*
X1869162Y123099D01*
X1871434Y122158D01*
X1873385Y120661D01*
X1874881Y118710D01*
X1875823Y116438D01*
X1876132Y114085D01*
X1876115Y114000D01*
Y81130D01*
X1875835Y81055D01*
X1873375Y79634D01*
X1871366Y77625D01*
X1869945Y75165D01*
X1869210Y72421D01*
Y69580D01*
X1869945Y66835D01*
X1871366Y64375D01*
X1873375Y62366D01*
X1875835Y60945D01*
X1878579Y60210D01*
X1881420D01*
X1884165Y60945D01*
X1886625Y62366D01*
X1888634Y64375D01*
X1890054Y66835D01*
X1890790Y69580D01*
Y72421D01*
X1890054Y75165D01*
X1888634Y77625D01*
X1886625Y79634D01*
X1884165Y81055D01*
X1883885Y81130D01*
Y114000D01*
X1883893D01*
X1883563Y117350D01*
X1882586Y120570D01*
X1880999Y123539D01*
X1878864Y126140D01*
X1876262Y128276D01*
X1873294Y129862D01*
X1870073Y130839D01*
X1866724Y131169D01*
Y131161D01*
X1736695D01*
X1736619Y131292D01*
X1735402Y132510D01*
X1733911Y133371D01*
X1732247Y133816D01*
D02*
G37*
G36*
X1843320Y81790D02*
X1840479D01*
X1837735Y81055D01*
X1835275Y79634D01*
X1833266Y77625D01*
X1831845Y75165D01*
X1831110Y72421D01*
Y69580D01*
X1831845Y66835D01*
X1833266Y64375D01*
X1835275Y62366D01*
X1837735Y60945D01*
X1840479Y60210D01*
X1843320D01*
X1846065Y60945D01*
X1848525Y62366D01*
X1850534Y64375D01*
X1851954Y66835D01*
X1852690Y69580D01*
Y72421D01*
X1851954Y75165D01*
X1850534Y77625D01*
X1848525Y79634D01*
X1846065Y81055D01*
X1843320Y81790D01*
D02*
G37*
G36*
X1752520Y80790D02*
X1749679D01*
X1746935Y80055D01*
X1744475Y78634D01*
X1742466Y76625D01*
X1741045Y74165D01*
X1740310Y71420D01*
Y68579D01*
X1741045Y65835D01*
X1742466Y63375D01*
X1744475Y61366D01*
X1746935Y59945D01*
X1749679Y59210D01*
X1752520D01*
X1755265Y59945D01*
X1757725Y61366D01*
X1759734Y63375D01*
X1761155Y65835D01*
X1761890Y68579D01*
Y71420D01*
X1761155Y74165D01*
X1759734Y76625D01*
X1757725Y78634D01*
X1755265Y80055D01*
X1752520Y80790D01*
D02*
G37*
G36*
X1714420D02*
X1711579D01*
X1708835Y80055D01*
X1706375Y78634D01*
X1704366Y76625D01*
X1702945Y74165D01*
X1702210Y71420D01*
Y68579D01*
X1702945Y65835D01*
X1704366Y63375D01*
X1706375Y61366D01*
X1708835Y59945D01*
X1711579Y59210D01*
X1714420D01*
X1717165Y59945D01*
X1719625Y61366D01*
X1721634Y63375D01*
X1723055Y65835D01*
X1723790Y68579D01*
Y71420D01*
X1723055Y74165D01*
X1721634Y76625D01*
X1719625Y78634D01*
X1717165Y80055D01*
X1714420Y80790D01*
D02*
G37*
G36*
X1685690Y68730D02*
X1676170D01*
Y59210D01*
X1685690D01*
Y68730D01*
D02*
G37*
G36*
X1673630D02*
X1664110D01*
Y59210D01*
X1673630D01*
Y68730D01*
D02*
G37*
G36*
X1083199Y80770D02*
X1080161D01*
X1077226Y79984D01*
X1074594Y78464D01*
X1072446Y76316D01*
X1070926Y73685D01*
X1070140Y70750D01*
Y67711D01*
X1070926Y64776D01*
X1072446Y62144D01*
X1074594Y59996D01*
X1077226Y58477D01*
X1080161Y57690D01*
X1083199D01*
X1086134Y58477D01*
X1088765Y59996D01*
X1090914Y62144D01*
X1092433Y64776D01*
X1093220Y67711D01*
Y70750D01*
X1092433Y73685D01*
X1090914Y76316D01*
X1088765Y78464D01*
X1086134Y79984D01*
X1083199Y80770D01*
D02*
G37*
G36*
X1042420D02*
X1019340D01*
Y57690D01*
X1042420D01*
Y80770D01*
D02*
G37*
G36*
X641540Y183040D02*
X628460D01*
Y171960D01*
X631115D01*
Y124890D01*
X631115Y124890D01*
X631115D01*
Y124890D01*
X631132Y124807D01*
X631396Y122800D01*
X632203Y120852D01*
X633487Y119179D01*
X635159Y117895D01*
X635899Y117589D01*
X636211Y117381D01*
X636578Y117308D01*
X636910Y117170D01*
X637107Y117088D01*
X638120Y116920D01*
X639212Y116408D01*
X639929Y115929D01*
X640827Y114585D01*
X641129Y113069D01*
X641115Y113000D01*
Y80061D01*
X640826Y79984D01*
X638194Y78464D01*
X636046Y76316D01*
X634526Y73685D01*
X633740Y70750D01*
Y67711D01*
X634526Y64776D01*
X636046Y62144D01*
X638194Y59996D01*
X640826Y58477D01*
X643761Y57690D01*
X646799D01*
X649734Y58477D01*
X652366Y59996D01*
X654514Y62144D01*
X656033Y64776D01*
X656820Y67711D01*
Y70750D01*
X656033Y73685D01*
X654514Y76316D01*
X652366Y78464D01*
X649734Y79984D01*
X648885Y80211D01*
Y113000D01*
X648885Y113000D01*
X648912D01*
X648506Y116083D01*
X647316Y118956D01*
X645423Y121423D01*
X642956Y123316D01*
X641417Y123953D01*
X640780Y124218D01*
X640684Y124281D01*
X640266Y124430D01*
X639031Y124677D01*
X638998Y124690D01*
X638915Y124890D01*
X638885D01*
Y171960D01*
X641540D01*
Y183040D01*
D02*
G37*
G36*
X544540Y184040D02*
X531460D01*
Y172960D01*
X534115D01*
Y117000D01*
X534105D01*
X534442Y114439D01*
X535431Y112053D01*
X537003Y110003D01*
X539053Y108431D01*
X541439Y107443D01*
X544000Y107105D01*
Y107115D01*
X544000Y107115D01*
X586743D01*
X588000Y107115D01*
X589176Y106889D01*
X589195Y106885D01*
X590208Y106208D01*
X590885Y105195D01*
X590889Y105176D01*
X591115Y104000D01*
X591115Y104000D01*
X591115Y102742D01*
Y80770D01*
X582940D01*
Y57690D01*
X606020D01*
Y80770D01*
X598885D01*
Y104000D01*
X598885Y104000D01*
X598903D01*
X598532Y106822D01*
X597443Y109452D01*
X595710Y111710D01*
X593452Y113442D01*
X590822Y114532D01*
X588000Y114903D01*
Y114885D01*
X588000Y114885D01*
X544000D01*
Y114897D01*
X543195Y115057D01*
X542513Y115513D01*
X542057Y116195D01*
X541897Y117000D01*
X541885D01*
Y172960D01*
X544540D01*
Y184040D01*
D02*
G37*
G36*
X1634040Y63480D02*
X1627270D01*
Y57460D01*
X1634040D01*
Y63480D01*
D02*
G37*
G36*
X1624730D02*
X1617960D01*
Y57460D01*
X1624730D01*
Y63480D01*
D02*
G37*
G36*
X1565040D02*
X1558270D01*
Y57460D01*
X1565040D01*
Y63480D01*
D02*
G37*
G36*
X1555730D02*
X1548960D01*
Y57460D01*
X1555730D01*
Y63480D01*
D02*
G37*
G36*
X1413319Y80540D02*
X1410281D01*
X1407346Y79754D01*
X1404714Y78234D01*
X1402566Y76086D01*
X1401046Y73454D01*
X1400260Y70519D01*
Y67481D01*
X1401046Y64546D01*
X1402566Y61914D01*
X1404714Y59766D01*
X1407346Y58247D01*
X1410281Y57460D01*
X1413319D01*
X1416254Y58247D01*
X1418886Y59766D01*
X1421034Y61914D01*
X1422554Y64546D01*
X1423340Y67481D01*
Y70519D01*
X1422554Y73454D01*
X1421034Y76086D01*
X1418886Y78234D01*
X1416254Y79754D01*
X1413319Y80540D01*
D02*
G37*
G36*
X1372540D02*
X1349460D01*
Y57460D01*
X1372540D01*
Y80540D01*
D02*
G37*
G36*
X1303279D02*
X1300241D01*
X1297306Y79754D01*
X1294674Y78234D01*
X1292526Y76086D01*
X1291007Y73454D01*
X1290220Y70519D01*
Y67481D01*
X1291007Y64546D01*
X1292526Y61914D01*
X1294674Y59766D01*
X1297306Y58247D01*
X1300241Y57460D01*
X1303279D01*
X1306214Y58247D01*
X1308846Y59766D01*
X1310994Y61914D01*
X1312514Y64546D01*
X1313300Y67481D01*
Y70519D01*
X1312514Y73454D01*
X1310994Y76086D01*
X1308846Y78234D01*
X1306214Y79754D01*
X1303279Y80540D01*
D02*
G37*
G36*
X1262500D02*
X1239420D01*
Y57460D01*
X1262500D01*
Y80540D01*
D02*
G37*
G36*
X1193240D02*
X1190201D01*
X1187266Y79754D01*
X1184634Y78234D01*
X1182486Y76086D01*
X1180967Y73454D01*
X1180180Y70519D01*
Y67481D01*
X1180967Y64546D01*
X1182486Y61914D01*
X1184634Y59766D01*
X1187266Y58247D01*
X1190201Y57460D01*
X1193240D01*
X1196174Y58247D01*
X1198806Y59766D01*
X1200955Y61914D01*
X1202474Y64546D01*
X1203260Y67481D01*
Y70519D01*
X1202474Y73454D01*
X1200955Y76086D01*
X1198806Y78234D01*
X1196174Y79754D01*
X1193240Y80540D01*
D02*
G37*
G36*
X1152460D02*
X1129380D01*
Y57460D01*
X1152460D01*
Y80540D01*
D02*
G37*
G36*
X207799Y79616D02*
X204761D01*
X201826Y78830D01*
X199194Y77310D01*
X197046Y75162D01*
X195527Y72530D01*
X194740Y69595D01*
Y66557D01*
X195527Y63622D01*
X197046Y60990D01*
X199194Y58842D01*
X201826Y57323D01*
X204761Y56536D01*
X207799D01*
X210734Y57323D01*
X213366Y58842D01*
X215514Y60990D01*
X217034Y63622D01*
X217820Y66557D01*
Y69595D01*
X217034Y72530D01*
X215514Y75162D01*
X213366Y77310D01*
X210734Y78830D01*
X207799Y79616D01*
D02*
G37*
G36*
X167020D02*
X143940D01*
Y56536D01*
X167020D01*
Y79616D01*
D02*
G37*
G36*
X537920Y79386D02*
X534881D01*
X531946Y78600D01*
X529314Y77080D01*
X527166Y74932D01*
X525647Y72300D01*
X524860Y69365D01*
Y66327D01*
X525647Y63392D01*
X527166Y60760D01*
X529314Y58612D01*
X531946Y57092D01*
X534881Y56306D01*
X537920D01*
X540854Y57092D01*
X543486Y58612D01*
X545634Y60760D01*
X547154Y63392D01*
X547940Y66327D01*
Y69365D01*
X547154Y72300D01*
X545634Y74932D01*
X543486Y77080D01*
X540854Y78600D01*
X537920Y79386D01*
D02*
G37*
G36*
X497140D02*
X474060D01*
Y56306D01*
X497140D01*
Y79386D01*
D02*
G37*
G36*
X427879D02*
X424841D01*
X421906Y78600D01*
X419274Y77080D01*
X417126Y74932D01*
X415606Y72300D01*
X414820Y69365D01*
Y66327D01*
X415606Y63392D01*
X417126Y60760D01*
X419274Y58612D01*
X421906Y57092D01*
X424841Y56306D01*
X427879D01*
X430814Y57092D01*
X433446Y58612D01*
X435594Y60760D01*
X437113Y63392D01*
X437900Y66327D01*
Y69365D01*
X437113Y72300D01*
X435594Y74932D01*
X433446Y77080D01*
X430814Y78600D01*
X427879Y79386D01*
D02*
G37*
G36*
X387100D02*
X364020D01*
Y56306D01*
X387100D01*
Y79386D01*
D02*
G37*
G36*
X317839D02*
X314801D01*
X311866Y78600D01*
X309234Y77080D01*
X307086Y74932D01*
X305566Y72300D01*
X304780Y69365D01*
Y66327D01*
X305566Y63392D01*
X307086Y60760D01*
X309234Y58612D01*
X311866Y57092D01*
X314801Y56306D01*
X317839D01*
X320774Y57092D01*
X323406Y58612D01*
X325554Y60760D01*
X327074Y63392D01*
X327860Y66327D01*
Y69365D01*
X327074Y72300D01*
X325554Y74932D01*
X323406Y77080D01*
X320774Y78600D01*
X317839Y79386D01*
D02*
G37*
G36*
X277060D02*
X253980D01*
Y56306D01*
X277060D01*
Y79386D01*
D02*
G37*
G36*
X1470040Y59589D02*
X1463270D01*
Y53569D01*
X1470040D01*
Y59589D01*
D02*
G37*
G36*
X1460730D02*
X1453960D01*
Y53569D01*
X1460730D01*
Y59589D01*
D02*
G37*
G36*
X1536040Y59480D02*
X1529270D01*
Y53460D01*
X1536040D01*
Y59480D01*
D02*
G37*
G36*
X1526730D02*
X1519960D01*
Y53460D01*
X1526730D01*
Y59480D01*
D02*
G37*
%LPD*%
G36*
X1513400Y595374D02*
X1755879D01*
X1756359Y594959D01*
X1756774Y594479D01*
Y554423D01*
X1756525Y554356D01*
X1754235Y553034D01*
X1752366Y551165D01*
X1751044Y548876D01*
X1750360Y546322D01*
Y543678D01*
X1751044Y541125D01*
X1752366Y538835D01*
X1754235Y536966D01*
X1756525Y535644D01*
X1759078Y534960D01*
X1761722D01*
X1764275Y535644D01*
X1766564Y536966D01*
X1768104Y538506D01*
X1769374Y538040D01*
Y526560D01*
X1768104Y526094D01*
X1766564Y527634D01*
X1764275Y528956D01*
X1761722Y529640D01*
X1759078D01*
X1756525Y528956D01*
X1754235Y527634D01*
X1752366Y525765D01*
X1751044Y523475D01*
X1750360Y520922D01*
Y518278D01*
X1751044Y515725D01*
X1752366Y513436D01*
X1754235Y511566D01*
X1756525Y510244D01*
X1759078Y509560D01*
X1761722D01*
X1764275Y510244D01*
X1766564Y511566D01*
X1768104Y513106D01*
X1769374Y512640D01*
Y486616D01*
X1769412Y486426D01*
X1768958Y482979D01*
X1767554Y479589D01*
X1765321Y476679D01*
X1762411Y474446D01*
X1759021Y473042D01*
X1755574Y472588D01*
X1755384Y472626D01*
X1510000D01*
Y472631D01*
X1506951Y472331D01*
X1504018Y471441D01*
X1501316Y469997D01*
X1498947Y468053D01*
X1497896Y466772D01*
X1496626Y467226D01*
Y478976D01*
X1497896Y479642D01*
X1498844Y479095D01*
X1500507Y478649D01*
X1502229D01*
X1503892Y479095D01*
X1505384Y479956D01*
X1506543Y481115D01*
X1691691D01*
X1691767Y480984D01*
X1692984Y479767D01*
X1694476Y478906D01*
X1696139Y478460D01*
X1697861D01*
X1699524Y478906D01*
X1701016Y479767D01*
X1702233Y480984D01*
X1703094Y482476D01*
X1703540Y484139D01*
Y485861D01*
X1703094Y487524D01*
X1702233Y489016D01*
X1701016Y490233D01*
X1699524Y491094D01*
X1697861Y491540D01*
X1696139D01*
X1694476Y491094D01*
X1692984Y490233D01*
X1691767Y489016D01*
X1691691Y488885D01*
X1506786D01*
X1506601Y489205D01*
X1505384Y490423D01*
X1503892Y491284D01*
X1502229Y491729D01*
X1500507D01*
X1498844Y491284D01*
X1497896Y490736D01*
X1496626Y491403D01*
Y562600D01*
X1496594Y562761D01*
X1496997Y566857D01*
X1498239Y570951D01*
X1500255Y574724D01*
X1502969Y578031D01*
X1506276Y580744D01*
X1510049Y582761D01*
X1514142Y584003D01*
X1518239Y584406D01*
X1518400Y584374D01*
X1727000D01*
X1727068Y584388D01*
X1728684Y584067D01*
X1730112Y583112D01*
X1731066Y581684D01*
X1731388Y580069D01*
X1731374Y580000D01*
Y554423D01*
X1731125Y554356D01*
X1728835Y553034D01*
X1726966Y551165D01*
X1725644Y548876D01*
X1724960Y546322D01*
Y543678D01*
X1725644Y541125D01*
X1726966Y538835D01*
X1728835Y536966D01*
X1731125Y535644D01*
X1733678Y534960D01*
X1736322D01*
X1738875Y535644D01*
X1741165Y536966D01*
X1743034Y538835D01*
X1744356Y541125D01*
X1745040Y543678D01*
Y546322D01*
X1744356Y548876D01*
X1743034Y551165D01*
X1741165Y553034D01*
X1738875Y554356D01*
X1738626Y554423D01*
Y580000D01*
X1738656D01*
X1738259Y583017D01*
X1737094Y585828D01*
X1735242Y588242D01*
X1732828Y590094D01*
X1730017Y591259D01*
X1727000Y591656D01*
Y591626D01*
X1518400D01*
Y591646D01*
X1513856Y591288D01*
X1509424Y590224D01*
X1505213Y588480D01*
X1501327Y586098D01*
X1497861Y583138D01*
X1494901Y579673D01*
X1493175Y576855D01*
X1491939Y577270D01*
X1491997Y577857D01*
X1493239Y581951D01*
X1495256Y585724D01*
X1497970Y589030D01*
X1501276Y591744D01*
X1505049Y593761D01*
X1509143Y595003D01*
X1513239Y595406D01*
X1513400Y595374D01*
D02*
G37*
G36*
X1795374Y513564D02*
Y475000D01*
X1795409Y474826D01*
X1794974Y471524D01*
X1793632Y468284D01*
X1791498Y465502D01*
X1788716Y463368D01*
X1785476Y462026D01*
X1782174Y461591D01*
X1782000Y461626D01*
X1517000D01*
Y461641D01*
X1513558Y461302D01*
X1510249Y460298D01*
X1507199Y458668D01*
X1504526Y456474D01*
X1502896Y454488D01*
X1501626Y454942D01*
Y457000D01*
X1501617Y457044D01*
X1501897Y459171D01*
X1502735Y461194D01*
X1504068Y462932D01*
X1505806Y464265D01*
X1507829Y465103D01*
X1509956Y465383D01*
X1510000Y465374D01*
X1755384D01*
Y465342D01*
X1759534Y465750D01*
X1763525Y466961D01*
X1767204Y468927D01*
X1770427Y471573D01*
X1773073Y474796D01*
X1775039Y478475D01*
X1776250Y482466D01*
X1776658Y486616D01*
X1776626D01*
Y513122D01*
X1777896Y513306D01*
X1779635Y511566D01*
X1781924Y510244D01*
X1784478Y509560D01*
X1787122D01*
X1789675Y510244D01*
X1791965Y511566D01*
X1793834Y513436D01*
X1794104Y513904D01*
X1795374Y513564D01*
D02*
G37*
G36*
X1603976Y144769D02*
X1605650Y143650D01*
X1606769Y141976D01*
X1607139Y140118D01*
X1607115Y140000D01*
Y123446D01*
X1606017Y123151D01*
X1603043Y121435D01*
X1600615Y119007D01*
X1598898Y116033D01*
X1598010Y112717D01*
Y109283D01*
X1598898Y105967D01*
X1600615Y102993D01*
X1603043Y100565D01*
X1606017Y98849D01*
X1607115Y98554D01*
Y87040D01*
X1578460D01*
Y82876D01*
X1576626D01*
Y97893D01*
X1578200D01*
X1580233Y98160D01*
X1582128Y98946D01*
X1583756Y100194D01*
X1585004Y101821D01*
X1585789Y103716D01*
X1586057Y105750D01*
Y116250D01*
X1585789Y118284D01*
X1585004Y120179D01*
X1583756Y121806D01*
X1582128Y123055D01*
X1580233Y123840D01*
X1578200Y124107D01*
X1576885D01*
Y134000D01*
X1576920D01*
X1576480Y137344D01*
X1575190Y140460D01*
X1573136Y143136D01*
X1572124Y143913D01*
X1572533Y145115D01*
X1602000D01*
X1602118Y145139D01*
X1603976Y144769D01*
D02*
G37*
%LPC*%
G36*
X1710922Y555040D02*
X1708278D01*
X1705724Y554356D01*
X1703435Y553034D01*
X1701566Y551165D01*
X1700244Y548876D01*
X1699560Y546322D01*
Y543678D01*
X1700244Y541125D01*
X1701566Y538835D01*
X1703435Y536966D01*
X1705724Y535644D01*
X1708278Y534960D01*
X1710922D01*
X1713475Y535644D01*
X1715764Y536966D01*
X1717634Y538835D01*
X1718956Y541125D01*
X1719640Y543678D01*
Y546322D01*
X1718956Y548876D01*
X1717634Y551165D01*
X1715764Y553034D01*
X1713475Y554356D01*
X1710922Y555040D01*
D02*
G37*
G36*
X1685522D02*
X1682878D01*
X1680325Y554356D01*
X1678035Y553034D01*
X1676166Y551165D01*
X1674844Y548876D01*
X1674160Y546322D01*
Y543678D01*
X1674844Y541125D01*
X1676166Y538835D01*
X1678035Y536966D01*
X1680325Y535644D01*
X1682878Y534960D01*
X1685522D01*
X1688075Y535644D01*
X1690365Y536966D01*
X1692234Y538835D01*
X1693556Y541125D01*
X1694240Y543678D01*
Y546322D01*
X1693556Y548876D01*
X1692234Y551165D01*
X1690365Y553034D01*
X1688075Y554356D01*
X1685522Y555040D01*
D02*
G37*
G36*
X1660122D02*
X1657478D01*
X1654924Y554356D01*
X1652635Y553034D01*
X1650766Y551165D01*
X1649444Y548876D01*
X1648760Y546322D01*
Y543678D01*
X1649444Y541125D01*
X1650766Y538835D01*
X1652635Y536966D01*
X1654924Y535644D01*
X1657478Y534960D01*
X1660122D01*
X1662675Y535644D01*
X1664964Y536966D01*
X1666834Y538835D01*
X1668156Y541125D01*
X1668840Y543678D01*
Y546322D01*
X1668156Y548876D01*
X1666834Y551165D01*
X1664964Y553034D01*
X1662675Y554356D01*
X1660122Y555040D01*
D02*
G37*
G36*
X1634722D02*
X1632078D01*
X1629525Y554356D01*
X1627235Y553034D01*
X1625366Y551165D01*
X1624044Y548876D01*
X1623360Y546322D01*
Y543678D01*
X1624044Y541125D01*
X1625366Y538835D01*
X1627235Y536966D01*
X1629525Y535644D01*
X1632078Y534960D01*
X1634722D01*
X1637275Y535644D01*
X1639565Y536966D01*
X1641434Y538835D01*
X1642756Y541125D01*
X1643440Y543678D01*
Y546322D01*
X1642756Y548876D01*
X1641434Y551165D01*
X1639565Y553034D01*
X1637275Y554356D01*
X1634722Y555040D01*
D02*
G37*
G36*
X1609322D02*
X1606678D01*
X1604124Y554356D01*
X1601835Y553034D01*
X1599966Y551165D01*
X1598644Y548876D01*
X1597960Y546322D01*
Y543678D01*
X1598644Y541125D01*
X1599966Y538835D01*
X1601835Y536966D01*
X1604124Y535644D01*
X1606678Y534960D01*
X1609322D01*
X1611875Y535644D01*
X1614164Y536966D01*
X1616034Y538835D01*
X1617356Y541125D01*
X1618040Y543678D01*
Y546322D01*
X1617356Y548876D01*
X1616034Y551165D01*
X1614164Y553034D01*
X1611875Y554356D01*
X1609322Y555040D01*
D02*
G37*
G36*
X1583922D02*
X1581278D01*
X1578725Y554356D01*
X1576435Y553034D01*
X1574566Y551165D01*
X1573244Y548876D01*
X1572560Y546322D01*
Y543678D01*
X1573244Y541125D01*
X1574566Y538835D01*
X1576435Y536966D01*
X1578725Y535644D01*
X1581278Y534960D01*
X1583922D01*
X1586475Y535644D01*
X1588764Y536966D01*
X1590634Y538835D01*
X1591956Y541125D01*
X1592640Y543678D01*
Y546322D01*
X1591956Y548876D01*
X1590634Y551165D01*
X1588764Y553034D01*
X1586475Y554356D01*
X1583922Y555040D01*
D02*
G37*
G36*
X1736322Y529640D02*
X1733678D01*
X1731125Y528956D01*
X1728835Y527634D01*
X1726966Y525765D01*
X1725644Y523475D01*
X1724960Y520922D01*
Y518278D01*
X1725644Y515725D01*
X1726966Y513436D01*
X1728835Y511566D01*
X1731125Y510244D01*
X1733678Y509560D01*
X1736322D01*
X1738875Y510244D01*
X1741165Y511566D01*
X1743034Y513436D01*
X1744356Y515725D01*
X1745040Y518278D01*
Y520922D01*
X1744356Y523475D01*
X1743034Y525765D01*
X1741165Y527634D01*
X1738875Y528956D01*
X1736322Y529640D01*
D02*
G37*
G36*
X1710922D02*
X1708278D01*
X1705724Y528956D01*
X1703435Y527634D01*
X1701566Y525765D01*
X1700244Y523475D01*
X1699560Y520922D01*
Y518278D01*
X1700244Y515725D01*
X1701566Y513436D01*
X1703435Y511566D01*
X1705724Y510244D01*
X1708278Y509560D01*
X1710922D01*
X1713475Y510244D01*
X1715764Y511566D01*
X1717634Y513436D01*
X1718956Y515725D01*
X1719640Y518278D01*
Y520922D01*
X1718956Y523475D01*
X1717634Y525765D01*
X1715764Y527634D01*
X1713475Y528956D01*
X1710922Y529640D01*
D02*
G37*
G36*
X1685522D02*
X1682878D01*
X1680325Y528956D01*
X1678035Y527634D01*
X1676166Y525765D01*
X1674844Y523475D01*
X1674160Y520922D01*
Y518278D01*
X1674844Y515725D01*
X1676166Y513436D01*
X1678035Y511566D01*
X1680325Y510244D01*
X1682878Y509560D01*
X1685522D01*
X1688075Y510244D01*
X1690365Y511566D01*
X1692234Y513436D01*
X1693556Y515725D01*
X1694240Y518278D01*
Y520922D01*
X1693556Y523475D01*
X1692234Y525765D01*
X1690365Y527634D01*
X1688075Y528956D01*
X1685522Y529640D01*
D02*
G37*
G36*
X1660122D02*
X1657478D01*
X1654924Y528956D01*
X1652635Y527634D01*
X1650766Y525765D01*
X1649444Y523475D01*
X1648760Y520922D01*
Y518278D01*
X1649444Y515725D01*
X1650766Y513436D01*
X1652635Y511566D01*
X1654924Y510244D01*
X1657478Y509560D01*
X1660122D01*
X1662675Y510244D01*
X1664964Y511566D01*
X1666834Y513436D01*
X1668156Y515725D01*
X1668840Y518278D01*
Y520922D01*
X1668156Y523475D01*
X1666834Y525765D01*
X1664964Y527634D01*
X1662675Y528956D01*
X1660122Y529640D01*
D02*
G37*
G36*
X1634722D02*
X1632078D01*
X1629525Y528956D01*
X1627235Y527634D01*
X1625366Y525765D01*
X1624044Y523475D01*
X1623360Y520922D01*
Y518278D01*
X1624044Y515725D01*
X1625366Y513436D01*
X1627235Y511566D01*
X1629525Y510244D01*
X1632078Y509560D01*
X1634722D01*
X1637275Y510244D01*
X1639565Y511566D01*
X1641434Y513436D01*
X1642756Y515725D01*
X1643440Y518278D01*
Y520922D01*
X1642756Y523475D01*
X1641434Y525765D01*
X1639565Y527634D01*
X1637275Y528956D01*
X1634722Y529640D01*
D02*
G37*
G36*
X1609322D02*
X1606678D01*
X1604124Y528956D01*
X1601835Y527634D01*
X1599966Y525765D01*
X1598644Y523475D01*
X1597960Y520922D01*
Y518278D01*
X1598644Y515725D01*
X1599966Y513436D01*
X1601835Y511566D01*
X1604124Y510244D01*
X1606678Y509560D01*
X1609322D01*
X1611875Y510244D01*
X1614164Y511566D01*
X1616034Y513436D01*
X1617356Y515725D01*
X1618040Y518278D01*
Y520922D01*
X1617356Y523475D01*
X1616034Y525765D01*
X1614164Y527634D01*
X1611875Y528956D01*
X1609322Y529640D01*
D02*
G37*
G36*
X1592640D02*
X1572560D01*
Y509560D01*
X1592640D01*
Y529640D01*
D02*
G37*
%LPD*%
D14*
X816250Y207000D02*
D03*
X829750D02*
D03*
X1022750Y203000D02*
D03*
X1009250D02*
D03*
X925750Y209000D02*
D03*
X912250D02*
D03*
X732750Y206000D02*
D03*
X719250D02*
D03*
X635750Y208000D02*
D03*
X622250D02*
D03*
X537750Y206000D02*
D03*
X524250D02*
D03*
D15*
X1023400Y378000D02*
D03*
X998000D02*
D03*
X972600D02*
D03*
Y284000D02*
D03*
X998000D02*
D03*
X1023400D02*
D03*
X926400Y378000D02*
D03*
X901000D02*
D03*
X875600D02*
D03*
Y284000D02*
D03*
X901000D02*
D03*
X926400D02*
D03*
X829400Y378000D02*
D03*
X804000D02*
D03*
X778600D02*
D03*
Y284000D02*
D03*
X804000D02*
D03*
X829400D02*
D03*
X732400Y378000D02*
D03*
X707000D02*
D03*
X681600D02*
D03*
Y284000D02*
D03*
X707000D02*
D03*
X732400D02*
D03*
X635400D02*
D03*
X610000D02*
D03*
X584600D02*
D03*
Y378000D02*
D03*
X610000D02*
D03*
X635400D02*
D03*
X538400Y284000D02*
D03*
X513000D02*
D03*
X487600D02*
D03*
Y378000D02*
D03*
X513000D02*
D03*
X538400D02*
D03*
D36*
X513000Y417466D02*
D03*
Y431000D02*
D03*
X1003000Y442767D02*
D03*
Y429233D02*
D03*
X900000Y441000D02*
D03*
Y427466D02*
D03*
X804000Y437767D02*
D03*
Y424233D02*
D03*
X707000Y438767D02*
D03*
Y425233D02*
D03*
X610000Y419767D02*
D03*
Y406233D02*
D03*
D37*
X974000Y446154D02*
D03*
Y429846D02*
D03*
X1023000Y244154D02*
D03*
Y227846D02*
D03*
X876000Y444154D02*
D03*
Y427846D02*
D03*
X926000Y253154D02*
D03*
Y236846D02*
D03*
X775000Y440154D02*
D03*
Y423846D02*
D03*
X829000Y250154D02*
D03*
Y233846D02*
D03*
X682000Y442000D02*
D03*
Y425692D02*
D03*
X733000Y246154D02*
D03*
Y229846D02*
D03*
X584000Y423154D02*
D03*
Y406846D02*
D03*
X635000Y247154D02*
D03*
Y230846D02*
D03*
X481000Y434154D02*
D03*
Y417846D02*
D03*
X538000Y252154D02*
D03*
Y235846D02*
D03*
D38*
X1023000Y171500D02*
D03*
Y184500D02*
D03*
X926000Y172500D02*
D03*
Y185500D02*
D03*
X830000Y179500D02*
D03*
Y192500D02*
D03*
X733000Y178500D02*
D03*
Y191500D02*
D03*
X635000Y177500D02*
D03*
Y190500D02*
D03*
X538000Y178500D02*
D03*
Y191500D02*
D03*
D61*
X1744400Y689000D02*
D03*
X1719000Y663600D02*
D03*
X1959750Y690400D02*
D03*
X1934350Y665000D02*
D03*
X1858750Y689400D02*
D03*
X1833350Y664000D02*
D03*
X1624750Y687750D02*
D03*
X1599350Y662350D02*
D03*
D62*
X1744400Y638200D02*
D03*
X1959750Y639600D02*
D03*
X1858750Y638600D02*
D03*
X1624750Y636950D02*
D03*
D71*
X331880Y925570D02*
G03*
X338450Y919000I6570J0D01*
G01*
X441885Y920115D02*
G03*
X443000Y919000I1115J0D01*
G01*
X661000Y918000D02*
G03*
X661895Y918895I0J895D01*
G01*
X771900Y925600D02*
G03*
X779500Y918000I7600J0D01*
G01*
X993880Y925570D02*
G03*
X1000450Y919000I6571J0D01*
G01*
X1105000Y976038D02*
G03*
X1103885Y977153I-1115J0D01*
G01*
X1323895D02*
G03*
X1323000Y976259I0J-895D01*
G01*
X1433900Y925600D02*
G03*
X1441500Y918000I7600J0D01*
G01*
X1501368Y485189D02*
G03*
X1501557Y485000I189J0D01*
G01*
X1835000Y439000D02*
G03*
X1832000Y442000I-3000J0D01*
G01*
X1619000Y410000D02*
G03*
X1623000Y414000I0J4000D01*
G01*
X1577000Y410000D02*
G03*
X1560000Y393000I0J-17000D01*
G01*
X1552942Y165942D02*
G03*
X1560000Y173000I0J7058D01*
G01*
X538000Y117000D02*
G03*
X544000Y111000I6000J0D01*
G01*
X538000Y117000D02*
G03*
X544000Y111000I6000J0D01*
G01*
X594480Y69230D02*
G03*
X595000Y69750I0J520D01*
G01*
X538000Y117000D02*
G03*
X544000Y111000I6000J0D01*
G01*
X594480Y69230D02*
G03*
X595000Y69750I0J520D01*
G01*
Y104000D02*
G03*
X588000Y111000I-7000J0D01*
G01*
X594480Y69230D02*
G03*
X595000Y69750I0J520D01*
G01*
X538000Y465000D02*
G03*
X535000Y462000I0J-3000D01*
G01*
X584000Y461000D02*
G03*
X580000Y465000I-4000J0D01*
G01*
X851154Y444154D02*
G03*
X846000Y439000I0J-5154D01*
G01*
X901000Y426466D02*
G03*
X899620Y427846I-1380J0D01*
G01*
X901000Y426466D02*
G03*
X899620Y427846I-1380J-0D01*
G01*
X901000Y426466D02*
G03*
X899620Y427846I-1380J-0D01*
G01*
X947000Y434000D02*
G03*
X956000Y443000I0J9000D01*
G01*
X959154Y446154D02*
G03*
X956000Y443000I0J-3154D01*
G01*
X769600Y494400D02*
G03*
X787000Y477000I17400J0D01*
G01*
X769600Y494400D02*
G03*
X787000Y477000I17400J0D01*
G01*
X769600Y494400D02*
G03*
X787000Y477000I17400J0D01*
G01*
X1003000Y455000D02*
G03*
X981000Y477000I-22000J0D01*
G01*
X1778000Y790000D02*
G03*
X1779000Y791000I0J1000D01*
G01*
X1663000Y790000D02*
G03*
X1663213Y790213I0J213D01*
G01*
X1546000Y794000D02*
G03*
X1550000Y790000I4000J0D01*
G01*
X1906000D02*
G03*
X1910000Y794000I0J4000D01*
G01*
X1502000Y75750D02*
G03*
X1502500Y75250I500J0D01*
G01*
X1513104Y110104D02*
G03*
X1502000Y99000I0J-11104D01*
G01*
X1457000Y166000D02*
G03*
X1449000Y158000I0J-8000D01*
G01*
X1488397Y104854D02*
G03*
X1483147Y110104I-5250J0D01*
G01*
X1487750Y75000D02*
G03*
X1488397Y75647I0J647D01*
G01*
X1611000Y140000D02*
G03*
X1602000Y149000I-9000J0D01*
G01*
X1625750Y79000D02*
G03*
X1626000Y79250I0J250D01*
G01*
X1880000Y114000D02*
G03*
X1866724Y127276I-13276J0D01*
G01*
X829000Y250154D02*
G03*
X829400Y250554I0J400D01*
G01*
X584000Y406846D02*
G03*
X584613Y406233I613J0D01*
G01*
X1052000Y104000D02*
G03*
X1065000Y117000I0J13000D01*
G01*
X997000Y285000D02*
G03*
X998000Y284000I1000J0D01*
G01*
X878979Y114000D02*
G03*
X865360Y100381I0J-13619D01*
G01*
X1009000Y114000D02*
G03*
X1023000Y128000I0J14000D01*
G01*
X833000Y138000D02*
G03*
X814000Y119000I0J-19000D01*
G01*
X768000Y151000D02*
G03*
X755000Y138000I0J-13000D01*
G01*
X825000Y151000D02*
G03*
X830000Y156000I0J5000D01*
G01*
X704520Y69000D02*
G03*
X703520Y70000I-1000J0D01*
G01*
X637697Y120970D02*
G03*
X639198Y120692I1501J3920D01*
G01*
X645000Y113000D02*
G03*
X639198Y120692I-8000J0D01*
G01*
X1573000Y134000D02*
G03*
X1564000Y143000I-9000J0D01*
G01*
X1479000Y147000D02*
G03*
X1475290Y143290I0J-3710D01*
G01*
X1022750Y184750D02*
G03*
X1023000Y184500I250J0D01*
G01*
X1022750Y203000D02*
G03*
X1023000Y203250I0J250D01*
G01*
X925750Y209000D02*
G03*
X926000Y209250I0J250D01*
G01*
X829750Y192750D02*
G03*
X830000Y192500I250J0D01*
G01*
X829000Y207750D02*
G03*
X829750Y207000I750J0D01*
G01*
X732750Y191750D02*
G03*
X733000Y191500I250J0D01*
G01*
X635000Y208750D02*
G03*
X635750Y208000I750J0D01*
G01*
X537750Y191750D02*
G03*
X538000Y191500I250J0D01*
G01*
X537750Y206000D02*
G03*
X538000Y206250I0J250D01*
G01*
X744200Y478800D02*
G03*
X754000Y469000I9800J0D01*
G01*
X804000Y450000D02*
G03*
X794000Y460000I-10000J0D01*
G01*
X693400Y483600D02*
G03*
X702000Y475000I8600J0D01*
G01*
X707000Y470000D02*
G03*
X702000Y475000I-5000J0D01*
G01*
X616000Y476000D02*
G03*
X610000Y470000I0J-6000D01*
G01*
X525000Y485000D02*
G03*
X513000Y473000I0J-12000D01*
G01*
X623000Y485000D02*
G03*
X643000Y505000I0J20000D01*
G01*
X829000Y250154D02*
G03*
X829400Y250554I0J400D01*
G01*
X584000Y406846D02*
G03*
X584613Y406233I613J0D01*
G01*
X997000Y285000D02*
G03*
X998000Y284000I1000J0D01*
G01*
X1052000Y104000D02*
G03*
X1065000Y117000I0J13000D01*
G01*
X878979Y114000D02*
G03*
X865360Y100381I0J-13619D01*
G01*
X1009000Y114000D02*
G03*
X1023000Y128000I0J14000D01*
G01*
X833000Y138000D02*
G03*
X814000Y119000I0J-19000D01*
G01*
X768000Y151000D02*
G03*
X755000Y138000I0J-13000D01*
G01*
X825000Y151000D02*
G03*
X830000Y156000I-0J5000D01*
G01*
X704520Y69000D02*
G03*
X703520Y70000I-1000J-0D01*
G01*
X637697Y120970D02*
G03*
X639198Y120692I1501J3920D01*
G01*
X645000Y113000D02*
G03*
X639198Y120692I-8000J0D01*
G01*
X1573000Y134000D02*
G03*
X1564000Y143000I-9000J-0D01*
G01*
X1479000Y147000D02*
G03*
X1475290Y143290I0J-3710D01*
G01*
X1022750Y184750D02*
G03*
X1023000Y184500I250J0D01*
G01*
X1022750Y203000D02*
G03*
X1023000Y203250I0J250D01*
G01*
X925750Y209000D02*
G03*
X926000Y209250I-0J250D01*
G01*
X829000Y207750D02*
G03*
X829750Y207000I750J0D01*
G01*
X829750Y192750D02*
G03*
X830000Y192500I250J0D01*
G01*
X732750Y191750D02*
G03*
X733000Y191500I250J0D01*
G01*
X635000Y208750D02*
G03*
X635750Y208000I750J0D01*
G01*
X537750Y206000D02*
G03*
X538000Y206250I0J250D01*
G01*
X537750Y191750D02*
G03*
X538000Y191500I250J0D01*
G01*
X744200Y478800D02*
G03*
X754000Y469000I9800J0D01*
G01*
X804000Y450000D02*
G03*
X794000Y460000I-10000J0D01*
G01*
X693400Y483600D02*
G03*
X702000Y475000I8600J0D01*
G01*
X707000Y470000D02*
G03*
X702000Y475000I-5000J0D01*
G01*
X616000Y476000D02*
G03*
X610000Y470000I0J-6000D01*
G01*
X525000Y485000D02*
G03*
X513000Y473000I0J-12000D01*
G01*
X623000Y485000D02*
G03*
X643000Y505000I-0J20000D01*
G01*
X623000Y485000D02*
G03*
X643000Y505000I-0J20000D01*
G01*
X525000Y485000D02*
G03*
X513000Y473000I0J-12000D01*
G01*
X616000Y476000D02*
G03*
X610000Y470000I0J-6000D01*
G01*
X707000Y470000D02*
G03*
X702000Y475000I-5000J0D01*
G01*
X693400Y483600D02*
G03*
X702000Y475000I8600J0D01*
G01*
X804000Y450000D02*
G03*
X794000Y460000I-10000J0D01*
G01*
X744200Y478800D02*
G03*
X754000Y469000I9800J0D01*
G01*
X537750Y206000D02*
G03*
X538000Y206250I0J250D01*
G01*
X537750Y191750D02*
G03*
X538000Y191500I250J0D01*
G01*
X635000Y208750D02*
G03*
X635750Y208000I750J0D01*
G01*
X732750Y191750D02*
G03*
X733000Y191500I250J0D01*
G01*
X829750Y192750D02*
G03*
X830000Y192500I250J0D01*
G01*
X829000Y207750D02*
G03*
X829750Y207000I750J0D01*
G01*
X925750Y209000D02*
G03*
X926000Y209250I-0J250D01*
G01*
X1022750Y203000D02*
G03*
X1023000Y203250I0J250D01*
G01*
X1022750Y184750D02*
G03*
X1023000Y184500I250J0D01*
G01*
X1479000Y147000D02*
G03*
X1475290Y143290I0J-3710D01*
G01*
X1573000Y134000D02*
G03*
X1564000Y143000I-9000J-0D01*
G01*
X645000Y113000D02*
G03*
X639198Y120692I-8000J0D01*
G01*
X637697Y120970D02*
G03*
X639198Y120692I1501J3920D01*
G01*
X704520Y69000D02*
G03*
X703520Y70000I-1000J-0D01*
G01*
X825000Y151000D02*
G03*
X830000Y156000I-0J5000D01*
G01*
X768000Y151000D02*
G03*
X755000Y138000I0J-13000D01*
G01*
X833000Y138000D02*
G03*
X814000Y119000I0J-19000D01*
G01*
X1009000Y114000D02*
G03*
X1023000Y128000I0J14000D01*
G01*
X878979Y114000D02*
G03*
X865360Y100381I0J-13619D01*
G01*
X1052000Y104000D02*
G03*
X1065000Y117000I0J13000D01*
G01*
X997000Y285000D02*
G03*
X998000Y284000I1000J0D01*
G01*
X584000Y406846D02*
G03*
X584613Y406233I613J0D01*
G01*
X829000Y250154D02*
G03*
X829400Y250554I0J400D01*
G01*
X481000Y417846D02*
G03*
X481380Y417466I380J0D01*
G01*
X999883Y403000D02*
G03*
X998000Y401116I0J-1884D01*
G01*
X1001000Y403000D02*
G03*
X1003000Y405000I0J2000D01*
G01*
X682000Y425692D02*
G03*
X682459Y425233I459J0D01*
G01*
X775387Y424233D02*
G03*
X775000Y423846I0J-387D01*
G01*
X974000Y429846D02*
G03*
X974613Y429233I613J0D01*
G01*
X900000Y457000D02*
G03*
X888000Y469000I-12000J0D01*
G01*
X718800Y466200D02*
G03*
X725000Y460000I6200J0D01*
G01*
X654000Y476000D02*
G03*
X668000Y490000I0J14000D01*
G01*
X643000Y530600D02*
G03*
X642600Y531000I-400J0D01*
G01*
X804000Y284000D02*
G03*
X805000Y285000I0J1000D01*
G01*
X900000Y285000D02*
G03*
X901000Y284000I1000J0D01*
G01*
X1023400D02*
G03*
X1023000Y283600I0J-400D01*
G01*
X520000Y316000D02*
G03*
X513000Y309000I0J-7000D01*
G01*
X1065000Y294000D02*
G03*
X1043000Y316000I-22000J0D01*
G01*
X990000Y69000D02*
G03*
X998000Y77000I0J8000D01*
G01*
X1005000Y104000D02*
G03*
X998000Y97000I0J-7000D01*
G01*
X921000Y138000D02*
G03*
X926000Y143000I0J5000D01*
G01*
X925750Y185750D02*
G03*
X926000Y185500I250J0D01*
G01*
X926000Y253154D02*
G03*
X926400Y253554I0J400D01*
G01*
X733000Y283400D02*
G03*
X732400Y284000I-600J0D01*
G01*
X732750Y206000D02*
G03*
X733000Y206250I0J250D01*
G01*
X727000Y69000D02*
G03*
X733000Y75000I0J6000D01*
G01*
X538000Y252154D02*
G03*
X538400Y252554I0J400D01*
G01*
X635400Y284000D02*
G03*
X635000Y283600I0J-400D01*
G01*
X635000Y190500D02*
G03*
X635750Y191250I0J750D01*
G01*
X635000Y124890D02*
G03*
X637697Y120970I4198J0D01*
G01*
X814000Y69560D02*
G03*
X814560Y69000I560J0D01*
G01*
X755000Y69320D02*
G03*
X755320Y69000I320J0D01*
G01*
X645000Y69510D02*
G03*
X645280Y69230I280J0D01*
G01*
X222000Y919000D02*
Y977153D01*
X221875D02*
X222000D01*
X331880Y925570D02*
Y977153D01*
X441885Y920115D02*
Y977153D01*
X551890Y919000D02*
Y977153D01*
Y919000D02*
X552000D01*
X661895Y918895D02*
Y977153D01*
X771900Y925600D02*
Y977153D01*
X884000Y919000D02*
Y977153D01*
X883875D02*
X884000D01*
X993880Y925570D02*
Y977153D01*
X1105000Y919000D02*
Y976038D01*
X1214000Y919000D02*
Y977153D01*
X1213890D02*
X1214000D01*
X1323000Y918000D02*
Y976259D01*
X1433900Y925600D02*
Y977153D01*
X1697000Y442000D02*
X1832000D01*
X1623000D02*
X1697000D01*
X1501557Y485000D02*
X1697000D01*
X1835000Y431000D02*
Y439000D01*
X1577000Y410000D02*
X1619000D01*
X1560000Y173000D02*
Y393000D01*
X1503000Y166000D02*
X1536000D01*
Y165942D02*
X1552942D01*
X1623000Y414000D02*
Y442000D01*
X1536000Y165942D02*
Y166000D01*
X538000Y117000D02*
Y178500D01*
X595000Y69750D02*
Y104000D01*
Y69750D02*
Y104000D01*
X544000Y111000D02*
X588000D01*
X595000Y69750D02*
Y104000D01*
X538000Y117000D02*
Y178500D01*
Y117000D02*
Y178500D01*
X481000Y452000D02*
X481000D01*
X481000Y434154D02*
Y452000D01*
X538000Y465000D02*
X580000D01*
X584000Y423154D02*
Y461000D01*
X535000Y458000D02*
Y462000D01*
X661000Y442000D02*
Y442000D01*
X682000D01*
X751000Y440154D02*
X775000D01*
X751000Y440000D02*
Y440154D01*
X846000Y430000D02*
Y439000D01*
X851154Y444154D02*
X876000D01*
Y427846D02*
X899620D01*
X901000Y378000D02*
Y426466D01*
Y378000D02*
Y426466D01*
X876000Y427846D02*
X899620D01*
X876000D02*
X899620D01*
X901000Y378000D02*
Y426466D01*
X932000Y434000D02*
X947000D01*
X959154Y446154D02*
X974000D01*
X787000Y477000D02*
X981000D01*
X787000D02*
X981000D01*
X769600Y494400D02*
Y531000D01*
X787000Y477000D02*
X981000D01*
X1778000Y790000D02*
X1906000D01*
X1663000D02*
X1778000D01*
X1779000Y791000D02*
Y815000D01*
X1550000Y790000D02*
X1663000D01*
X1663213Y790213D02*
Y804117D01*
X1546000Y794000D02*
Y809000D01*
X1910000Y794000D02*
Y811000D01*
X1502500Y75250D02*
X1528000D01*
X1502000Y75750D02*
Y99000D01*
X1513104Y110104D02*
X1513390D01*
X1449000Y155000D02*
Y158000D01*
X1457000Y166000D02*
X1483000D01*
X1488397Y75647D02*
Y104854D01*
X1475290Y110104D02*
Y143290D01*
Y110104D02*
X1483147D01*
X1611000Y111000D02*
Y140000D01*
X1507000Y149000D02*
X1602000D01*
X1602000D01*
X1611000Y80250D02*
Y111000D01*
X1611000D01*
X1611050D01*
X1600250Y79000D02*
X1625750D01*
X1572950Y111000D02*
X1573000D01*
Y134000D01*
X1880000Y71000D02*
Y114000D01*
X1731386Y127276D02*
X1866724D01*
X1880000Y71000D02*
X1880000D01*
X829400Y250554D02*
Y284000D01*
X584613Y406233D02*
X610000D01*
X1005000Y104000D02*
X1052000D01*
X997000Y285000D02*
Y316000D01*
X865360Y69000D02*
Y100381D01*
X878979Y114000D02*
X1009000D01*
X814000Y69560D02*
Y119000D01*
X833000Y138000D02*
X921000D01*
X755000Y69320D02*
Y138000D01*
X768000Y151000D02*
X825000D01*
X704520Y69000D02*
X727000D01*
X1022750Y184750D02*
Y203000D01*
X1023000Y203250D02*
Y227846D01*
X925750Y185750D02*
Y209000D01*
X926000Y209250D02*
Y236846D01*
X829750Y192750D02*
Y207000D01*
X732750Y191750D02*
Y206000D01*
X635750Y191250D02*
Y208000D01*
X537750Y191750D02*
Y206000D01*
X754000Y469000D02*
X888000D01*
X725000Y460000D02*
X794000D01*
X610000Y419767D02*
Y470000D01*
X616000Y476000D02*
X654000D01*
X513000Y431000D02*
Y473000D01*
X525000Y485000D02*
X623000D01*
X829400Y250554D02*
Y284000D01*
X584613Y406233D02*
X610000D01*
X1005000Y104000D02*
X1052000D01*
X997000Y285000D02*
Y316000D01*
X865360Y69000D02*
Y100381D01*
X878979Y114000D02*
X1009000D01*
X814000Y69560D02*
Y119000D01*
X833000Y138000D02*
X921000D01*
X755000Y69320D02*
Y138000D01*
X768000Y151000D02*
X825000D01*
X704520Y69000D02*
X727000D01*
X1022750Y184750D02*
Y203000D01*
X1023000Y203250D02*
Y227846D01*
X925750Y185750D02*
Y209000D01*
X926000Y209250D02*
Y236846D01*
X829750Y192750D02*
Y207000D01*
X732750Y191750D02*
Y206000D01*
X635750Y191250D02*
Y208000D01*
X537750Y191750D02*
Y206000D01*
X754000Y469000D02*
X888000D01*
X725000Y460000D02*
X794000D01*
X610000Y419767D02*
Y470000D01*
X616000Y476000D02*
X654000D01*
X513000Y431000D02*
Y473000D01*
X525000Y485000D02*
X623000D01*
X525000D02*
X623000D01*
X513000Y431000D02*
Y473000D01*
X616000Y476000D02*
X654000D01*
X610000Y419767D02*
Y470000D01*
X725000Y460000D02*
X794000D01*
X754000Y469000D02*
X888000D01*
X537750Y191750D02*
Y206000D01*
X635750Y191250D02*
Y208000D01*
X732750Y191750D02*
Y206000D01*
X829750Y192750D02*
Y207000D01*
X926000Y209250D02*
Y236846D01*
X925750Y185750D02*
Y209000D01*
X1023000Y203250D02*
Y227846D01*
X1022750Y184750D02*
Y203000D01*
X704520Y69000D02*
X727000D01*
X768000Y151000D02*
X825000D01*
X755000Y69320D02*
Y138000D01*
X833000D02*
X921000D01*
X814000Y69560D02*
Y119000D01*
X878979Y114000D02*
X1009000D01*
X865360Y69000D02*
Y100381D01*
X997000Y285000D02*
Y316000D01*
X1005000Y104000D02*
X1052000D01*
X584613Y406233D02*
X610000D01*
X829400Y250554D02*
Y284000D01*
X1493000Y186000D02*
X1498250Y180750D01*
X1499000Y143000D02*
X1564000D01*
X481380Y417466D02*
X513000D01*
Y378000D02*
Y417466D01*
X610000Y378000D02*
Y406233D01*
X682459Y425233D02*
X707000D01*
Y378000D02*
Y425233D01*
X999884Y403000D02*
X1001000D01*
X998000Y378000D02*
Y401116D01*
X1003000Y405000D02*
Y429233D01*
X775387Y424233D02*
X804000D01*
Y378000D02*
Y424233D01*
X974613Y429233D02*
X1003000D01*
Y442767D02*
Y455000D01*
X900000Y441000D02*
Y457000D01*
X744200Y478800D02*
Y531000D01*
X900000Y441000D02*
X900000D01*
X804000Y437767D02*
Y450000D01*
X718800Y466200D02*
Y531000D01*
X693400Y483600D02*
Y531000D01*
X707000Y438767D02*
Y470000D01*
X668000Y490000D02*
Y531000D01*
X643000Y505000D02*
Y530600D01*
X610000Y316000D02*
X707000D01*
X520000D02*
X610000D01*
Y284000D02*
Y316000D01*
X707000D02*
X805000D01*
X707000Y284000D02*
Y316000D01*
X805000D02*
X900000D01*
X805000Y285000D02*
Y316000D01*
X900000D02*
X997000D01*
X900000Y285000D02*
Y316000D01*
X997000D02*
X1043000D01*
X1023000Y244154D02*
Y283600D01*
X513000Y284000D02*
Y309000D01*
X1065000Y117000D02*
Y294000D01*
X998000Y77000D02*
Y97000D01*
X513000Y284000D02*
X513000D01*
X1023000Y128000D02*
Y171500D01*
X830000Y156000D02*
Y179500D01*
X926000Y143000D02*
Y172500D01*
X926400Y253554D02*
Y284000D01*
X829000Y207750D02*
Y233846D01*
X733000Y246154D02*
Y283400D01*
Y206250D02*
Y229846D01*
Y75000D02*
Y178500D01*
X538400Y252554D02*
Y284000D01*
X635000Y247154D02*
Y283600D01*
Y208750D02*
Y230846D01*
Y124890D02*
Y177500D01*
X538000Y206250D02*
Y235846D01*
X924600Y69000D02*
X975400D01*
X990000D01*
X645000Y69510D02*
Y113000D01*
D72*
X595000Y69750D02*
D03*
D03*
X829400Y250554D02*
D03*
X1022750Y184750D02*
D03*
X1023000Y203250D02*
D03*
X925750Y209000D02*
D03*
X926000Y209250D02*
D03*
X829750Y192750D02*
D03*
X732750Y191750D02*
D03*
X635750Y208000D02*
D03*
D03*
X732750Y191750D02*
D03*
X829750Y192750D02*
D03*
X926000Y209250D02*
D03*
X925750Y209000D02*
D03*
X1023000Y203250D02*
D03*
X1022750Y184750D02*
D03*
X829400Y250554D02*
D03*
D73*
X1578000Y213000D02*
G03*
X1586000Y205000I8000J0D01*
G01*
X1523000Y869000D02*
G03*
X1517000Y863000I0J-6000D01*
G01*
X1985000Y855000D02*
G03*
X1971000Y869000I-14000J0D01*
G01*
X1523000D02*
X1632000D01*
X1586000Y205000D02*
X1827000D01*
X1578000Y213000D02*
Y226000D01*
X1827000Y205000D02*
X1945000D01*
X1751000Y869000D02*
X1971000D01*
X1632000D02*
X1751000D01*
X1517000Y857000D02*
Y863000D01*
X1985000Y603000D02*
Y855000D01*
D74*
X1875800Y979000D02*
D03*
X1913900D02*
D03*
X1750000D02*
D03*
X1788100D02*
D03*
X1626000Y978000D02*
D03*
X1664100D02*
D03*
X1502900Y979000D02*
D03*
X1541000D02*
D03*
X1713000Y70000D02*
D03*
X1751100D02*
D03*
X1880000Y71000D02*
D03*
X1841900D02*
D03*
D75*
X1952000Y979000D02*
D03*
X1826200D02*
D03*
X1702200Y978000D02*
D03*
X1579100Y979000D02*
D03*
X1674900Y70000D02*
D03*
X1918100Y71000D02*
D03*
D76*
X820400Y569795D02*
D03*
X795000D02*
D03*
X769600D02*
D03*
X744200D02*
D03*
X718800D02*
D03*
X693400D02*
D03*
X668000D02*
D03*
X642600D02*
D03*
X617200D02*
D03*
X591800D02*
D03*
X566400D02*
D03*
X541000D02*
D03*
X515600D02*
D03*
Y531000D02*
D03*
X541000D02*
D03*
X566400D02*
D03*
X591800D02*
D03*
X617200D02*
D03*
X642600D02*
D03*
X668000D02*
D03*
X693400D02*
D03*
X718800D02*
D03*
X744200D02*
D03*
X769600D02*
D03*
X795000D02*
D03*
X820400D02*
D03*
X845800D02*
D03*
X871200D02*
D03*
X896600D02*
D03*
X922000D02*
D03*
X947400D02*
D03*
X972800D02*
D03*
X1582600Y545000D02*
D03*
X1608000Y519600D02*
D03*
Y545000D02*
D03*
X1633400Y519600D02*
D03*
Y545000D02*
D03*
X1658800Y519600D02*
D03*
Y545000D02*
D03*
X1684200Y519600D02*
D03*
Y545000D02*
D03*
X1709600Y519600D02*
D03*
Y545000D02*
D03*
X1735000Y519600D02*
D03*
Y545000D02*
D03*
X1760400Y519600D02*
D03*
Y545000D02*
D03*
X1785800Y519600D02*
D03*
Y545000D02*
D03*
X1811200Y519600D02*
D03*
Y545000D02*
D03*
D77*
X490200Y569795D02*
D03*
Y531000D02*
D03*
X1582600Y519600D02*
D03*
D78*
X1572950Y111000D02*
D03*
X1475290Y110104D02*
D03*
D79*
X1611050Y111000D02*
D03*
X1513390Y110104D02*
D03*
D80*
X833075Y977153D02*
D03*
X1163090D02*
D03*
X1273095D02*
D03*
X943080D02*
D03*
X1383100D02*
D03*
X1053085D02*
D03*
X61070D02*
D03*
X171075D02*
D03*
X501090D02*
D03*
X611095D02*
D03*
X281080D02*
D03*
X721100D02*
D03*
X391085D02*
D03*
X1411800Y69000D02*
D03*
X1301760D02*
D03*
X1191720D02*
D03*
X1081680Y69230D02*
D03*
X975400Y69000D02*
D03*
X865360D02*
D03*
X755320D02*
D03*
X645280Y69230D02*
D03*
X536400Y67846D02*
D03*
X426360D02*
D03*
X316320D02*
D03*
X206280Y68076D02*
D03*
D81*
X883875Y977153D02*
D03*
X1213890D02*
D03*
X1323895D02*
D03*
X993880D02*
D03*
X1433900D02*
D03*
X1103885D02*
D03*
X111870D02*
D03*
X221875D02*
D03*
X551890D02*
D03*
X661895D02*
D03*
X331880D02*
D03*
X771900D02*
D03*
X441885D02*
D03*
X1361000Y69000D02*
D03*
X1250960D02*
D03*
X1140920D02*
D03*
X1030880Y69230D02*
D03*
X924600Y69000D02*
D03*
X814560D02*
D03*
X704520D02*
D03*
X594480Y69230D02*
D03*
X485600Y67846D02*
D03*
X375560D02*
D03*
X265520D02*
D03*
X155480Y68076D02*
D03*
D82*
X1885000Y815000D02*
D03*
X1362000Y404000D02*
D03*
X1266000Y403000D02*
D03*
X1169000Y405000D02*
D03*
X1072000D02*
D03*
X975231Y402610D02*
D03*
X585000Y354000D02*
D03*
X488000Y400000D02*
D03*
X390000Y406000D02*
D03*
X293257Y399727D02*
D03*
X196196Y402132D02*
D03*
X100000Y401000D02*
D03*
D83*
X1458000Y486000D02*
D03*
X1501368Y485189D02*
D03*
X1697000Y485000D02*
D03*
Y442000D02*
D03*
X1835000Y431000D02*
D03*
X1623000Y442000D02*
D03*
X1422000Y144000D02*
D03*
X1342657Y210005D02*
D03*
X1245000Y205000D02*
D03*
X1146000Y208000D02*
D03*
X1049000Y210000D02*
D03*
X953000Y206000D02*
D03*
X521000Y141000D02*
D03*
X468752Y208865D02*
D03*
X368618Y204088D02*
D03*
X273000Y207000D02*
D03*
X175000Y209000D02*
D03*
X76000Y205000D02*
D03*
X1460000Y362000D02*
D03*
X481000Y452000D02*
D03*
X535000Y458000D02*
D03*
X661000Y442000D02*
D03*
X751000Y440000D02*
D03*
X846000Y430000D02*
D03*
X932000Y434000D02*
D03*
X254000Y774000D02*
D03*
X251000Y688000D02*
D03*
X367000D02*
D03*
X363000Y773000D02*
D03*
X472000Y688000D02*
D03*
X473000Y773000D02*
D03*
X586000Y688000D02*
D03*
X583000Y774000D02*
D03*
X694855Y688511D02*
D03*
X692981Y773262D02*
D03*
X809000Y688000D02*
D03*
X808000Y773000D02*
D03*
X907000Y688000D02*
D03*
X906000Y774000D02*
D03*
X1017000Y689000D02*
D03*
Y773000D02*
D03*
X1133000Y690000D02*
D03*
X1131000Y774000D02*
D03*
X1241000Y689000D02*
D03*
X1237000Y774000D02*
D03*
X1349000Y688000D02*
D03*
X1348000Y774000D02*
D03*
X1440000Y664000D02*
D03*
X1458000Y774000D02*
D03*
X1809841Y332147D02*
D03*
X1910000Y268000D02*
D03*
X1781000D02*
D03*
X1685000Y421000D02*
D03*
X1598000Y337000D02*
D03*
X1545000Y294000D02*
D03*
X1578000Y226000D02*
D03*
X1739000Y205000D02*
D03*
X1827000D02*
D03*
X1945000D02*
D03*
X1883453Y869441D02*
D03*
X1751000Y869000D02*
D03*
X1632000D02*
D03*
X1517000Y857000D02*
D03*
X1985000Y603000D02*
D03*
X1779000Y815000D02*
D03*
X1663213Y804117D02*
D03*
X1546000Y809000D02*
D03*
X1910000Y811000D02*
D03*
X1751000Y817000D02*
D03*
X1632000Y811000D02*
D03*
X1496902Y829995D02*
D03*
X1940000Y397000D02*
D03*
X1449000Y155000D02*
D03*
X1571000Y716000D02*
D03*
X1689000D02*
D03*
X1804000Y713000D02*
D03*
X1915000Y730000D02*
D03*
X1686000Y258000D02*
D03*
X1731386Y127276D02*
D03*
X1493000Y175500D02*
D03*
X1501500Y180750D02*
D03*
X1493000Y186000D02*
D03*
X1484500Y180750D02*
D03*
D84*
X1755384Y469000D02*
G03*
X1773000Y486616I0J17616D01*
G01*
X1782000Y458000D02*
G03*
X1799000Y475000I0J17000D01*
G01*
X1517000Y458000D02*
G03*
X1503000Y444000I0J-14000D01*
G01*
X1510000Y469000D02*
G03*
X1498000Y457000I0J-12000D01*
G01*
X1777082Y545000D02*
G03*
X1773000Y540919I0J-4082D01*
G01*
X1518400Y588000D02*
G03*
X1493000Y562600I0J-25400D01*
G01*
X1513400Y599000D02*
G03*
X1488000Y573600I0J-25400D01*
G01*
X1735000Y580000D02*
G03*
X1727000Y588000I-8000J0D01*
G01*
X1760400Y594600D02*
G03*
X1756000Y599000I-4400J0D01*
G01*
X1487750Y75000D02*
G03*
X1487391Y75359I-359J0D01*
G01*
X1585750Y79000D02*
G03*
X1585500Y79250I-250J0D01*
G01*
X1493000Y146000D02*
G03*
X1496000Y143000I3000J0D01*
G01*
X1498000Y152000D02*
G03*
X1501000Y149000I3000J0D01*
G01*
X1493000Y146000D02*
G03*
X1496000Y143000I3000J0D01*
G01*
X1498000Y152000D02*
G03*
X1501000Y149000I3000J0D01*
G01*
X1498000Y152000D02*
G03*
X1501000Y149000I3000J0D01*
G01*
X1493000Y146000D02*
G03*
X1496000Y143000I3000J0D01*
G01*
X1485000Y147000D02*
G03*
X1488000Y150000I0J3000D01*
G01*
X1488000Y195500D02*
Y573600D01*
X1493000Y490490D02*
Y562600D01*
Y195500D02*
Y479888D01*
Y490490D01*
X1510000Y469000D02*
X1755384D01*
X1773000Y486616D02*
Y540919D01*
X1800190Y545000D02*
X1811200D01*
X1799000Y475000D02*
Y543810D01*
X1800190Y545000D01*
X1517000Y458000D02*
X1782000D01*
X1503000Y195500D02*
Y444000D01*
X1811200Y545000D02*
Y545000D01*
X1498000Y195500D02*
Y457000D01*
X1777082Y545000D02*
X1785800D01*
X1518400Y588000D02*
X1727000D01*
X1513400Y599000D02*
X1756000D01*
X1735000Y545000D02*
Y580000D01*
X1735000Y545000D02*
X1735000D01*
X1760400D02*
Y594600D01*
X1462000Y75359D02*
X1487391D01*
X1573000Y80250D02*
Y111000D01*
X1557000Y79250D02*
X1585500D01*
X1572950Y111000D02*
X1573000D01*
X1501000Y149000D02*
X1507000D01*
X1496000Y143000D02*
X1499000D01*
X1498000Y152000D02*
Y166000D01*
X1493000Y146000D02*
Y166000D01*
X1488000Y150000D02*
Y166000D01*
X1479000Y147000D02*
X1485000D01*
D85*
X1626000Y79250D02*
D03*
Y64750D02*
D03*
X1557000Y79250D02*
D03*
Y64750D02*
D03*
X1528000Y75250D02*
D03*
Y60750D02*
D03*
X1462000Y75359D02*
D03*
Y60859D02*
D03*
D86*
X1585750Y79000D02*
D03*
X1600250D02*
D03*
X1487750Y75000D02*
D03*
X1502250D02*
D03*
D87*
X1441500Y918000D02*
D03*
X1392500D02*
D03*
X1214000Y919000D02*
D03*
X1165000D02*
D03*
X1105000D02*
D03*
X1056000D02*
D03*
X1000450D02*
D03*
X951450D02*
D03*
X884000D02*
D03*
X835000D02*
D03*
X779500Y918000D02*
D03*
X730500D02*
D03*
X552000Y919000D02*
D03*
X503000D02*
D03*
X443000D02*
D03*
X394000D02*
D03*
X338450D02*
D03*
X289450D02*
D03*
X222000D02*
D03*
X173000D02*
D03*
X1274000Y918000D02*
D03*
X1323000D02*
D03*
X612000D02*
D03*
X661000D02*
D03*
D88*
X1536000Y165942D02*
D03*
Y182058D02*
D03*
D89*
X1503000Y166000D02*
D03*
X1498000D02*
D03*
X1493000D02*
D03*
X1488000D02*
D03*
X1483000D02*
D03*
X1503000Y195500D02*
D03*
X1498000D02*
D03*
X1493000D02*
D03*
X1488000D02*
D03*
X1483000D02*
D03*
D90*
X1493000Y180750D02*
D03*
M02*
