G04*
G04 #@! TF.GenerationSoftware,Altium Limited,Altium Designer,22.5.1 (42)*
G04*
G04 Layer_Color=32768*
%FSLAX44Y44*%
%MOMM*%
G71*
G04*
G04 #@! TF.SameCoordinates,7A6E188A-B59B-493B-9E93-54DEAC03D458*
G04*
G04*
G04 #@! TF.FilePolarity,Positive*
G04*
G01*
G75*
%ADD10C,0.2000*%
%ADD96C,0.0500*%
D10*
X1856439Y911689D02*
X1885561D01*
X1856439D02*
Y926311D01*
X1885561D01*
Y911689D02*
Y926311D01*
X1892671D02*
X1921329D01*
Y911689D02*
Y926311D01*
X1892671Y911689D02*
X1921329D01*
X1892671D02*
Y926311D01*
X1908171Y903311D02*
X1945829D01*
Y882689D02*
Y903311D01*
X1908171Y882689D02*
X1945829D01*
X1908171D02*
Y903311D01*
X1885400Y350631D02*
X1919600D01*
Y389077D01*
X1885400D02*
X1919600D01*
X1885400Y350631D02*
Y389077D01*
X1730950Y230750D02*
X1785950D01*
X1730950Y159250D02*
Y230750D01*
Y159250D02*
X1785950D01*
Y230750D01*
X1819500D02*
X1874500D01*
X1819500Y159250D02*
Y230750D01*
Y159250D02*
X1874500D01*
Y230750D01*
X1668119Y369664D02*
X1702319D01*
Y408110D01*
X1668119D02*
X1702319D01*
X1668119Y369664D02*
Y408110D01*
X1607750Y179500D02*
Y234500D01*
X1536250D02*
X1607750D01*
X1536250Y179500D02*
Y234500D01*
Y179500D02*
X1607750D01*
X1654500Y850750D02*
X1709500D01*
X1654500Y779250D02*
Y850750D01*
Y779250D02*
X1709500D01*
Y850750D01*
X1901129Y855750D02*
X1956129D01*
X1901129Y784250D02*
Y855750D01*
Y784250D02*
X1956129D01*
Y855750D01*
X1770500D02*
X1825500D01*
X1770500Y784250D02*
Y855750D01*
Y784250D02*
X1825500D01*
Y855750D01*
X1537250Y852500D02*
X1592250D01*
X1537250Y781000D02*
Y852500D01*
Y781000D02*
X1592250D01*
Y852500D01*
X1505250Y287000D02*
X1524750D01*
X1505250Y247000D02*
Y287000D01*
Y247000D02*
X1524750D01*
Y287000D01*
X1657250Y263500D02*
X1676750D01*
X1657250Y223500D02*
Y263500D01*
Y223500D02*
X1676750D01*
Y263500D01*
X1643561Y915689D02*
Y930311D01*
X1614439D02*
X1643561D01*
X1614439Y915689D02*
Y930311D01*
Y915689D02*
X1643561D01*
X1705850Y613700D02*
Y713500D01*
Y613700D02*
X1757450D01*
Y713500D01*
X1705850D02*
X1757450D01*
X1649671Y915689D02*
Y930311D01*
Y915689D02*
X1678329D01*
Y930311D01*
X1649671D02*
X1678329D01*
X1921200Y615100D02*
Y714900D01*
Y615100D02*
X1972800D01*
Y714900D01*
X1921200D02*
X1972800D01*
X1713500Y751750D02*
X1724500D01*
X1713500Y723750D02*
Y751750D01*
Y723750D02*
X1724500D01*
Y751750D01*
X1961414Y751894D02*
X1972414D01*
X1961414Y723894D02*
Y751894D01*
Y723894D02*
X1972414D01*
Y751894D01*
X1661171Y883689D02*
Y904311D01*
Y883689D02*
X1698829D01*
Y904311D01*
X1661171D02*
X1698829D01*
X1713000Y918500D02*
Y929500D01*
X1685000D02*
X1713000D01*
X1685000Y918500D02*
Y929500D01*
Y918500D02*
X1713000D01*
X1958000Y915500D02*
Y926500D01*
X1930000D02*
X1958000D01*
X1930000Y915500D02*
Y926500D01*
Y915500D02*
X1958000D01*
X1757561Y915689D02*
Y930311D01*
X1728439D02*
X1757561D01*
X1728439Y915689D02*
Y930311D01*
Y915689D02*
X1757561D01*
X1526561Y917689D02*
Y932311D01*
X1497439D02*
X1526561D01*
X1497439Y917689D02*
Y932311D01*
Y917689D02*
X1526561D01*
X1820200Y614100D02*
Y713900D01*
Y614100D02*
X1871800D01*
Y713900D01*
X1820200D02*
X1871800D01*
X1586200Y612450D02*
Y712250D01*
Y612450D02*
X1637800D01*
Y712250D01*
X1586200D02*
X1637800D01*
X1765671Y915689D02*
Y930311D01*
Y915689D02*
X1794329D01*
Y930311D01*
X1765671D02*
X1794329D01*
X1533671Y917689D02*
Y932311D01*
Y917689D02*
X1562329D01*
Y932311D01*
X1533671D02*
X1562329D01*
X1830500Y751000D02*
X1841500D01*
X1830500Y723000D02*
Y751000D01*
Y723000D02*
X1841500D01*
Y751000D01*
X1594250Y750500D02*
X1605250D01*
X1594250Y722500D02*
Y750500D01*
Y722500D02*
X1605250D01*
Y750500D01*
X1777171Y880689D02*
Y901311D01*
Y880689D02*
X1814829D01*
Y901311D01*
X1777171D02*
X1814829D01*
X1544171Y881689D02*
Y902311D01*
Y881689D02*
X1581829D01*
Y902311D01*
X1544171D02*
X1581829D01*
X1830000Y917500D02*
Y928500D01*
X1802000D02*
X1830000D01*
X1802000Y917500D02*
Y928500D01*
Y917500D02*
X1830000D01*
X1599000Y920500D02*
Y931500D01*
X1571000D02*
X1599000D01*
X1571000Y920500D02*
Y931500D01*
Y920500D02*
X1599000D01*
X823364Y847453D02*
X834864D01*
Y869111D01*
X823364D02*
X834864D01*
X823364Y847453D02*
Y869111D01*
X884329Y882250D02*
Y893750D01*
X862671D02*
X884329D01*
X862671Y882250D02*
Y893750D01*
Y882250D02*
X884329D01*
X1157945Y847453D02*
X1169445D01*
Y869111D01*
X1157945D02*
X1169445D01*
X1157945Y847453D02*
Y869111D01*
X1219579Y884250D02*
Y895750D01*
X1197921D02*
X1219579D01*
X1197921Y884250D02*
Y895750D01*
Y884250D02*
X1219579D01*
X1269473Y847453D02*
X1280973D01*
Y869111D01*
X1269473D02*
X1280973D01*
X1269473Y847453D02*
Y869111D01*
X1327579Y877250D02*
Y888750D01*
X1305921D02*
X1327579D01*
X1305921Y877250D02*
Y888750D01*
Y877250D02*
X1327579D01*
X934891Y847453D02*
X946391D01*
Y869111D01*
X934891D02*
X946391D01*
X934891Y847453D02*
Y869111D01*
X997579Y886250D02*
Y897750D01*
X975921D02*
X997579D01*
X975921Y886250D02*
Y897750D01*
Y886250D02*
X997579D01*
X1381000Y847453D02*
X1392500D01*
Y869111D01*
X1381000D02*
X1392500D01*
X1381000Y847453D02*
Y869111D01*
X1439329Y882250D02*
Y893750D01*
X1417671D02*
X1439329D01*
X1417671Y882250D02*
Y893750D01*
Y882250D02*
X1439329D01*
X1046419Y847453D02*
X1057918D01*
Y869111D01*
X1046419D02*
X1057918D01*
X1046419Y847453D02*
Y869111D01*
X1108733Y884250D02*
Y895750D01*
X1087075D02*
X1108733D01*
X1087075Y884250D02*
Y895750D01*
Y884250D02*
X1108733D01*
X164750Y847171D02*
X176250D01*
Y868829D01*
X164750D02*
X176250D01*
X164750Y847171D02*
Y868829D01*
X499332Y847171D02*
X510832D01*
Y868829D01*
X499332D02*
X510832D01*
X499332Y847171D02*
Y868829D01*
X222329Y882250D02*
Y893750D01*
X200671D02*
X222329D01*
X200671Y882250D02*
Y893750D01*
Y882250D02*
X222329D01*
X556329Y887250D02*
Y898750D01*
X534671D02*
X556329D01*
X534671Y887250D02*
Y898750D01*
Y887250D02*
X556329D01*
X610859Y847171D02*
X622358D01*
Y868829D01*
X610859D02*
X622358D01*
X610859Y847171D02*
Y868829D01*
X666483Y877250D02*
Y888750D01*
X644825D02*
X666483D01*
X644825Y877250D02*
Y888750D01*
Y877250D02*
X666483D01*
X276277Y847171D02*
X287777D01*
Y868829D01*
X276277D02*
X287777D01*
X276277Y847171D02*
Y868829D01*
X336329Y883250D02*
Y894750D01*
X314671D02*
X336329D01*
X314671Y883250D02*
Y894750D01*
Y883250D02*
X336329D01*
X722386Y847171D02*
X733886D01*
Y868829D01*
X722386D02*
X733886D01*
X722386Y847171D02*
Y868829D01*
X387804Y847171D02*
X399304D01*
Y868829D01*
X387804D02*
X399304D01*
X387804Y847171D02*
Y868829D01*
X777329Y882250D02*
Y893750D01*
X755671D02*
X777329D01*
X755671Y882250D02*
Y893750D01*
Y882250D02*
X777329D01*
X446329Y881250D02*
Y892750D01*
X424671D02*
X446329D01*
X424671Y881250D02*
Y892750D01*
Y881250D02*
X446329D01*
X1433900Y424939D02*
X1444900D01*
Y447061D01*
X1433900D02*
X1444900D01*
X1433900Y424939D02*
Y447061D01*
X1400089Y419171D02*
X1420711D01*
Y456829D01*
X1400089D02*
X1420711D01*
X1400089Y419171D02*
Y456829D01*
X1398089Y214171D02*
X1418711D01*
Y251829D01*
X1398089D02*
X1418711D01*
X1398089Y214171D02*
Y251829D01*
X1330900Y423172D02*
X1341900D01*
Y445294D01*
X1330900D02*
X1341900D01*
X1330900Y423172D02*
Y445294D01*
X1302089Y417171D02*
X1322711D01*
Y454829D01*
X1302089D02*
X1322711D01*
X1302089Y417171D02*
Y454829D01*
Y226171D02*
X1322711D01*
Y263829D01*
X1302089D02*
X1322711D01*
X1302089Y226171D02*
Y263829D01*
X1234900Y419939D02*
X1245900D01*
Y442061D01*
X1234900D02*
X1245900D01*
X1234900Y419939D02*
Y442061D01*
X1201089Y413171D02*
X1221711D01*
Y450829D01*
X1201089D02*
X1221711D01*
X1201089Y413171D02*
Y450829D01*
X1205089Y223171D02*
X1225711D01*
Y260829D01*
X1205089D02*
X1225711D01*
X1205089Y223171D02*
Y260829D01*
X1137900Y420939D02*
X1148900D01*
Y443061D01*
X1137900D02*
X1148900D01*
X1137900Y420939D02*
Y443061D01*
X1108089Y415017D02*
X1128710D01*
Y452675D01*
X1108089D02*
X1128710D01*
X1108089Y415017D02*
Y452675D01*
X1107089Y221171D02*
X1127711D01*
Y258829D01*
X1107089D02*
X1127711D01*
X1107089Y221171D02*
Y258829D01*
X1040900Y401939D02*
X1051900D01*
Y424061D01*
X1040900D02*
X1051900D01*
X1040900Y401939D02*
Y424061D01*
X1010089Y396171D02*
X1030711D01*
Y433829D01*
X1010089D02*
X1030711D01*
X1010089Y396171D02*
Y433829D01*
X1011089Y222171D02*
X1031710D01*
Y259829D01*
X1011089D02*
X1031710D01*
X1011089Y222171D02*
Y259829D01*
X943900Y413172D02*
X954900D01*
Y435294D01*
X943900D02*
X954900D01*
X943900Y413172D02*
Y435294D01*
X907089Y407171D02*
X927711D01*
Y444829D01*
X907089D02*
X927711D01*
X907089Y407171D02*
Y444829D01*
X913089Y222171D02*
X933711D01*
Y259829D01*
X913089D02*
X933711D01*
X913089Y222171D02*
Y259829D01*
X558500Y423785D02*
X569500D01*
Y445907D01*
X558500D02*
X569500D01*
X558500Y423785D02*
Y445907D01*
X524689Y418017D02*
X545311D01*
Y455676D01*
X524689D02*
X545311D01*
X524689Y418017D02*
Y455676D01*
X522689Y213017D02*
X543311D01*
Y250675D01*
X522689D02*
X543311D01*
X522689Y213017D02*
Y250675D01*
X455500Y422019D02*
X466500D01*
Y444140D01*
X455500D02*
X466500D01*
X455500Y422019D02*
Y444140D01*
X426689Y416017D02*
X447311D01*
Y453675D01*
X426689D02*
X447311D01*
X426689Y416017D02*
Y453675D01*
Y225017D02*
X447311D01*
Y262675D01*
X426689D02*
X447311D01*
X426689Y225017D02*
Y262675D01*
X359500Y418786D02*
X370500D01*
Y440907D01*
X359500D02*
X370500D01*
X359500Y418786D02*
Y440907D01*
X325690Y412017D02*
X346311D01*
Y449675D01*
X325690D02*
X346311D01*
X325690Y412017D02*
Y449675D01*
X329689Y222017D02*
X350311D01*
Y259675D01*
X329689D02*
X350311D01*
X329689Y222017D02*
Y259675D01*
X262500Y419785D02*
X273500D01*
Y441907D01*
X262500D02*
X273500D01*
X262500Y419785D02*
Y441907D01*
X232689Y413863D02*
X253311D01*
Y451521D01*
X232689D02*
X253311D01*
X232689Y413863D02*
Y451521D01*
X231689Y220017D02*
X252311D01*
Y257675D01*
X231689D02*
X252311D01*
X231689Y220017D02*
Y257675D01*
X165500Y400786D02*
X176500D01*
Y422907D01*
X165500D02*
X176500D01*
X165500Y400786D02*
Y422907D01*
X134690Y395017D02*
X155311D01*
Y432675D01*
X134690D02*
X155311D01*
X134690Y395017D02*
Y432675D01*
X135689Y221017D02*
X156311D01*
Y258675D01*
X135689D02*
X156311D01*
X135689Y221017D02*
Y258675D01*
X68500Y412019D02*
X79500D01*
Y434140D01*
X68500D02*
X79500D01*
X68500Y412019D02*
Y434140D01*
X31690Y406017D02*
X52311D01*
Y443675D01*
X31690D02*
X52311D01*
X31690Y406017D02*
Y443675D01*
X37689Y221017D02*
X58311D01*
Y258675D01*
X37689D02*
X58311D01*
X37689Y221017D02*
Y258675D01*
X857344Y836000D02*
X892884D01*
Y870000D01*
X857344D02*
X892884D01*
X857344Y836000D02*
Y870000D01*
X1191926Y836000D02*
X1227466D01*
Y870000D01*
X1191926D02*
X1227466D01*
X1191926Y836000D02*
Y870000D01*
X1303453Y836000D02*
X1338992D01*
Y870000D01*
X1303453D02*
X1338992D01*
X1303453Y836000D02*
Y870000D01*
X968871Y836000D02*
X1004411D01*
Y870000D01*
X968871D02*
X1004411D01*
X968871Y836000D02*
Y870000D01*
X1414980Y836000D02*
X1450520D01*
Y870000D01*
X1414980D02*
X1450520D01*
X1414980Y836000D02*
Y870000D01*
X1080398Y836000D02*
X1115938D01*
Y870000D01*
X1080398D02*
X1115938D01*
X1080398Y836000D02*
Y870000D01*
X198730Y835718D02*
X234270D01*
Y869718D01*
X198730D02*
X234270D01*
X198730Y835718D02*
Y869718D01*
X533312Y835718D02*
X568851D01*
Y869718D01*
X533312D02*
X568851D01*
X533312Y835718D02*
Y869718D01*
X644838Y835718D02*
X680379D01*
Y869718D01*
X644838D02*
X680379D01*
X644838Y835718D02*
Y869718D01*
X310257Y835718D02*
X345797D01*
Y869718D01*
X310257D02*
X345797D01*
X310257Y835718D02*
Y869718D01*
X756366Y835718D02*
X791906D01*
Y869718D01*
X756366D02*
X791906D01*
X756366Y835718D02*
Y869718D01*
X421784Y835718D02*
X457324D01*
Y869718D01*
X421784D02*
X457324D01*
X421784Y835718D02*
Y869718D01*
X834709Y903250D02*
Y928750D01*
Y903250D02*
X894291D01*
Y928750D01*
X834709D02*
X894291D01*
X1166709Y907250D02*
Y932750D01*
Y907250D02*
X1226291D01*
Y932750D01*
X1166709D02*
X1226291D01*
X1276709Y906250D02*
Y931750D01*
Y906250D02*
X1336291D01*
Y931750D01*
X1276709D02*
X1336291D01*
X946709Y906250D02*
Y931750D01*
Y906250D02*
X1006291D01*
Y931750D01*
X946709D02*
X1006291D01*
X1387709Y905250D02*
Y930750D01*
Y905250D02*
X1447291D01*
Y930750D01*
X1387709D02*
X1447291D01*
X1057709Y904250D02*
Y929750D01*
Y904250D02*
X1117291D01*
Y929750D01*
X1057709D02*
X1117291D01*
X172709Y903250D02*
Y928750D01*
Y903250D02*
X232291D01*
Y928750D01*
X172709D02*
X232291D01*
X504709Y907250D02*
Y932750D01*
Y907250D02*
X564291D01*
Y932750D01*
X504709D02*
X564291D01*
X614709Y906250D02*
Y931750D01*
Y906250D02*
X674291D01*
Y931750D01*
X614709D02*
X674291D01*
X284709Y906250D02*
Y931750D01*
Y906250D02*
X344291D01*
Y931750D01*
X284709D02*
X344291D01*
X725709Y905250D02*
Y930750D01*
Y905250D02*
X785291D01*
Y930750D01*
X725709D02*
X785291D01*
X395709Y904250D02*
Y929750D01*
Y904250D02*
X455291D01*
Y929750D01*
X395709D02*
X455291D01*
D96*
X1544950Y29000D02*
Y125000D01*
Y29000D02*
X1639050D01*
Y125000D01*
X1544950D02*
X1639050D01*
X1447290Y28104D02*
Y124104D01*
Y28104D02*
X1541390D01*
Y124104D01*
X1447290D02*
X1541390D01*
M02*
