%TF.GenerationSoftware,KiCad,Pcbnew,9.0.9*%
%TF.CreationDate,2026-06-22T23:44:55+05:30*%
%TF.ProjectId,Open_STMPLC_EnergyMon_V0..1,4f70656e-5f53-4544-9d50-4c435f456e65,0.1*%
%TF.SameCoordinates,PX55d4a80PY8583b00*%
%TF.FileFunction,Copper,L2,Bot*%
%TF.FilePolarity,Positive*%
%FSLAX46Y46*%
G04 Gerber Fmt 4.6, Leading zero omitted, Abs format (unit mm)*
G04 Created by KiCad (PCBNEW 9.0.9) date 2026-06-22 23:44:55*
%MOMM*%
%LPD*%
G01*
G04 APERTURE LIST*
G04 Aperture macros list*
%AMRoundRect*
0 Rectangle with rounded corners*
0 $1 Rounding radius*
0 $2 $3 $4 $5 $6 $7 $8 $9 X,Y pos of 4 corners*
0 Add a 4 corners polygon primitive as box body*
4,1,4,$2,$3,$4,$5,$6,$7,$8,$9,$2,$3,0*
0 Add four circle primitives for the rounded corners*
1,1,$1+$1,$2,$3*
1,1,$1+$1,$4,$5*
1,1,$1+$1,$6,$7*
1,1,$1+$1,$8,$9*
0 Add four rect primitives between the rounded corners*
20,1,$1+$1,$2,$3,$4,$5,0*
20,1,$1+$1,$4,$5,$6,$7,0*
20,1,$1+$1,$6,$7,$8,$9,0*
20,1,$1+$1,$8,$9,$2,$3,0*%
G04 Aperture macros list end*
%TA.AperFunction,ComponentPad*%
%ADD10R,1.700000X1.700000*%
%TD*%
%TA.AperFunction,ComponentPad*%
%ADD11C,1.700000*%
%TD*%
%TA.AperFunction,ComponentPad*%
%ADD12RoundRect,0.300000X-2.950000X-1.200000X2.950000X-1.200000X2.950000X1.200000X-2.950000X1.200000X0*%
%TD*%
%TA.AperFunction,ComponentPad*%
%ADD13C,2.000000*%
%TD*%
%TA.AperFunction,ComponentPad*%
%ADD14RoundRect,0.250000X0.750000X0.750000X-0.750000X0.750000X-0.750000X-0.750000X0.750000X-0.750000X0*%
%TD*%
%TA.AperFunction,ComponentPad*%
%ADD15R,2.250000X1.750000*%
%TD*%
%TA.AperFunction,ComponentPad*%
%ADD16O,2.250000X1.750000*%
%TD*%
%TA.AperFunction,ViaPad*%
%ADD17C,0.800000*%
%TD*%
%TA.AperFunction,ViaPad*%
%ADD18C,0.600000*%
%TD*%
%TA.AperFunction,Conductor*%
%ADD19C,0.800000*%
%TD*%
%TA.AperFunction,Conductor*%
%ADD20C,1.000000*%
%TD*%
%TA.AperFunction,Conductor*%
%ADD21C,0.300000*%
%TD*%
%TA.AperFunction,Conductor*%
%ADD22C,0.254000*%
%TD*%
%TA.AperFunction,Conductor*%
%ADD23C,2.500000*%
%TD*%
G04 APERTURE END LIST*
D10*
%TO.P,J1,1,Pin_1*%
%TO.N,+3V3*%
X43890000Y7160000D03*
D11*
%TO.P,J1,2,Pin_2*%
%TO.N,+5V*%
X43890000Y4620000D03*
%TO.P,J1,3,Pin_3*%
%TO.N,/EX_I2C_SCL*%
X41350000Y7160000D03*
%TO.P,J1,4,Pin_4*%
%TO.N,/EX_I2C_SDA*%
X41350000Y4620000D03*
%TO.P,J1,5,Pin_5*%
%TO.N,/EX_GPIO4*%
X38810000Y7160000D03*
%TO.P,J1,6,Pin_6*%
%TO.N,/EX_GPIO5*%
X38810000Y4620000D03*
%TO.P,J1,7,Pin_7*%
%TO.N,/EX_GPIO2*%
X36270000Y7160000D03*
%TO.P,J1,8,Pin_8*%
%TO.N,/EX_GPIO3*%
X36270000Y4620000D03*
%TO.P,J1,9,Pin_9*%
%TO.N,/EX_SPI_MOSI*%
X33730000Y7160000D03*
%TO.P,J1,10,Pin_10*%
%TO.N,/EX_GPIO1*%
X33730000Y4620000D03*
%TO.P,J1,11,Pin_11*%
%TO.N,/EX_SPI_MISO*%
X31190000Y7160000D03*
%TO.P,J1,12,Pin_12*%
%TO.N,/EX_SPI_CLK*%
X31190000Y4620000D03*
%TO.P,J1,13,Pin_13*%
%TO.N,/EX_UART_RX*%
X28650000Y7160000D03*
%TO.P,J1,14,Pin_14*%
%TO.N,/EX_UART_TX*%
X28650000Y4620000D03*
%TO.P,J1,15,Pin_15*%
%TO.N,GND*%
X26110000Y7160000D03*
%TO.P,J1,16,Pin_16*%
X26110000Y4620000D03*
%TD*%
D12*
%TO.P,TR3,P1,P1*%
%TO.N,/W_IN*%
X26483466Y58957391D03*
%TO.P,TR3,P2,P2*%
%TO.N,/W_OUT*%
X26483466Y49507391D03*
D13*
%TO.P,TR3,S1,S1*%
%TO.N,Net-(R42-Pad1)*%
X20083466Y42007391D03*
%TO.P,TR3,S2,S2*%
%TO.N,Net-(R46-Pad1)*%
X32883466Y42007391D03*
%TD*%
D12*
%TO.P,TR4,P1,P1*%
%TO.N,/N_IN*%
X9233466Y58957391D03*
%TO.P,TR4,P2,P2*%
%TO.N,/N_OUT*%
X9233466Y49507391D03*
D13*
%TO.P,TR4,S1,S1*%
%TO.N,Net-(R48-Pad1)*%
X2833466Y42007391D03*
%TO.P,TR4,S2,S2*%
%TO.N,Net-(R52-Pad1)*%
X15633466Y42007391D03*
%TD*%
D12*
%TO.P,TR2,P1,P1*%
%TO.N,/V_IN*%
X43733466Y58957391D03*
%TO.P,TR2,P2,P2*%
%TO.N,/V_OUT*%
X43733466Y49507391D03*
D13*
%TO.P,TR2,S1,S1*%
%TO.N,Net-(R36-Pad1)*%
X37333466Y42007391D03*
%TO.P,TR2,S2,S2*%
%TO.N,Net-(R40-Pad1)*%
X50133466Y42007391D03*
%TD*%
D14*
%TO.P,J2,1,Pin_1*%
%TO.N,/U_IN*%
X48340000Y75417500D03*
D13*
%TO.P,J2,2,Pin_2*%
%TO.N,/U_OUT*%
X44530000Y75417500D03*
%TO.P,J2,3,Pin_3*%
%TO.N,/V_IN*%
X40720000Y75417500D03*
%TO.P,J2,4,Pin_4*%
%TO.N,/V_OUT*%
X36910000Y75417500D03*
%TO.P,J2,5,Pin_5*%
%TO.N,/W_OUT*%
X33100000Y75417500D03*
%TO.P,J2,6,Pin_6*%
%TO.N,/W_IN*%
X29290000Y75417500D03*
%TO.P,J2,7,Pin_7*%
%TO.N,/N_OUT*%
X25480000Y75417500D03*
%TO.P,J2,8,Pin_8*%
%TO.N,/N_IN*%
X21670000Y75417500D03*
%TD*%
D15*
%TO.P,PS1,1,-Vin*%
%TO.N,GND*%
X18000000Y14607500D03*
D16*
%TO.P,PS1,2,+Vin*%
%TO.N,+5V*%
X18000000Y12067500D03*
%TO.P,PS1,3,-Vout*%
%TO.N,GNDA*%
X18000000Y9527500D03*
%TO.P,PS1,4,+Vout*%
%TO.N,+5VA*%
X18000000Y6987500D03*
%TD*%
D12*
%TO.P,TR1,P1,P1*%
%TO.N,/U_IN*%
X60983466Y58957391D03*
%TO.P,TR1,P2,P2*%
%TO.N,/U_OUT*%
X60983466Y49507391D03*
D13*
%TO.P,TR1,S1,S1*%
%TO.N,Net-(R30-Pad1)*%
X54583466Y42007391D03*
%TO.P,TR1,S2,S2*%
%TO.N,Net-(R31-Pad1)*%
X67383466Y42007391D03*
%TD*%
D17*
%TO.N,GND*%
X26000000Y17000000D03*
D18*
X33300000Y11700000D03*
X30800000Y14000000D03*
D17*
X28900000Y14600000D03*
D18*
X35700000Y11700000D03*
X29500000Y18500000D03*
X38200000Y11600000D03*
X33500000Y14000000D03*
X30700000Y11700000D03*
X40800000Y11600000D03*
X33000000Y20400000D03*
D17*
X25000000Y18000000D03*
D18*
X42800000Y11700000D03*
X29500000Y19500000D03*
D17*
X26000000Y15000000D03*
X25000000Y16000000D03*
D18*
X40400000Y13900000D03*
X45000000Y13500000D03*
X30800000Y14900000D03*
X35500000Y14000000D03*
D17*
X28900000Y15600000D03*
D18*
X34100000Y19600000D03*
X38000000Y13900000D03*
D17*
%TO.N,GNDA*%
X30800000Y32000000D03*
X43000000Y20500000D03*
X44000000Y35500000D03*
X51000000Y8000000D03*
X27000000Y35500000D03*
X61000000Y38500000D03*
X65400000Y10600000D03*
X55000000Y33000000D03*
X59500000Y21000000D03*
X55000000Y31000000D03*
X56000000Y32000000D03*
X51000000Y4000000D03*
X42900000Y23400000D03*
X50000000Y5000000D03*
X47000000Y24000000D03*
X53000000Y31000000D03*
X22700000Y32000000D03*
X49000000Y6000000D03*
X61000000Y35500000D03*
X5200000Y32000000D03*
X27000000Y38500000D03*
X4500000Y12500000D03*
X12000000Y7000000D03*
X54000000Y32000000D03*
X49000000Y8000000D03*
X49000000Y24000000D03*
X65100000Y32000000D03*
X11000000Y6000000D03*
X63900000Y30900000D03*
X39000000Y20800000D03*
X50000000Y7000000D03*
X4500000Y13500000D03*
X65100000Y20600000D03*
X58000000Y13400000D03*
X60400000Y14300000D03*
X65100000Y22500000D03*
X51000000Y6000000D03*
X48100000Y32000000D03*
X67600000Y14500000D03*
X4000000Y9500000D03*
X12000000Y5000000D03*
X9500000Y38500000D03*
X57000000Y31000000D03*
D18*
X35200000Y22900000D03*
D17*
X65300000Y14700000D03*
X49000000Y4000000D03*
X40200000Y20800000D03*
X4000000Y10500000D03*
X11000000Y8000000D03*
X39900000Y32000000D03*
X9500000Y35500000D03*
X44000000Y38500000D03*
X13300000Y32000000D03*
X61500000Y28500000D03*
X66600000Y10600000D03*
X53000000Y24000000D03*
X57600000Y20600000D03*
X10000000Y7000000D03*
D18*
%TO.N,/VBN*%
X48300000Y22500000D03*
X55200000Y21450000D03*
%TO.N,/VCP*%
X56000000Y20600000D03*
X17600000Y25600000D03*
%TO.N,/VCN*%
X18700000Y25050000D03*
X55300000Y20100000D03*
%TO.N,/EM_RST*%
X58800000Y19700000D03*
X40700000Y19500000D03*
D17*
%TO.N,+3.3VA*%
X9000000Y21400000D03*
X38500000Y22000000D03*
D18*
%TO.N,/IAN*%
X61900000Y30600000D03*
X58600000Y22800000D03*
%TO.N,/IBP*%
X42900000Y30400000D03*
X57800000Y22400000D03*
%TO.N,/IBN*%
X45137500Y29100000D03*
X57100000Y22800000D03*
%TO.N,/ICP*%
X25600000Y30600000D03*
X56600000Y25900000D03*
%TO.N,/ICN*%
X55690380Y25790380D03*
X28200000Y27600000D03*
%TO.N,/INP*%
X8200000Y30300000D03*
X55700000Y22400000D03*
%TO.N,/INN*%
X55000000Y22800000D03*
X10400000Y26800000D03*
D17*
%TO.N,+3V3*%
X29600000Y22000000D03*
D18*
%TO.N,/EX_GPIO1*%
X34173000Y14500000D03*
X29700000Y17000000D03*
%TO.N,/SCLK*%
X59800000Y17700000D03*
X39200000Y17500000D03*
%TO.N,/SDO*%
X62600000Y17300000D03*
X37987500Y16397500D03*
%TO.N,/EM_CS*%
X57500000Y19000000D03*
X40314579Y18750000D03*
%TO.N,/SDI*%
X59500000Y18600000D03*
X39700000Y18200000D03*
%TO.N,/IRQ0*%
X57000000Y17050000D03*
X39800000Y16800000D03*
%TD*%
D19*
%TO.N,+5V*%
X20800000Y10100000D02*
X18832500Y12067500D01*
X20800000Y6100000D02*
X20800000Y10100000D01*
X24400000Y2500000D02*
X20800000Y6100000D01*
X43890000Y4620000D02*
X41770000Y2500000D01*
X41770000Y2500000D02*
X24400000Y2500000D01*
X18832500Y12067500D02*
X18000000Y12067500D01*
D20*
%TO.N,GNDA*%
X18000000Y9527500D02*
X13027500Y9527500D01*
X13027500Y9527500D02*
X12000000Y8500000D01*
X12000000Y8500000D02*
X12000000Y7000000D01*
D21*
%TO.N,/VBN*%
X48300000Y22500000D02*
X48700000Y22500000D01*
X48700000Y22500000D02*
X49750000Y21450000D01*
X49750000Y21450000D02*
X55200000Y21450000D01*
%TO.N,/VCP*%
X48400000Y20800000D02*
X55800000Y20800000D01*
X17700000Y25700000D02*
X43500000Y25700000D01*
X17600000Y25600000D02*
X17700000Y25700000D01*
X55800000Y20800000D02*
X56000000Y20600000D01*
X43500000Y25700000D02*
X48400000Y20800000D01*
%TO.N,/VCN*%
X43250000Y25050000D02*
X48200000Y20100000D01*
X48200000Y20100000D02*
X55300000Y20100000D01*
X18700000Y25050000D02*
X43250000Y25050000D01*
%TO.N,/EM_RST*%
X55800000Y19300000D02*
X40900000Y19300000D01*
X40900000Y19300000D02*
X40700000Y19500000D01*
X56200000Y19700000D02*
X55800000Y19300000D01*
X58800000Y19700000D02*
X56200000Y19700000D01*
D19*
%TO.N,+3.3VA*%
X11700000Y24100000D02*
X36400000Y24100000D01*
X9000000Y21400000D02*
X11700000Y24100000D01*
X36400000Y24100000D02*
X38500000Y22000000D01*
D21*
%TO.N,/IAN*%
X58600000Y27300000D02*
X58600000Y22800000D01*
X61900000Y30600000D02*
X58600000Y27300000D01*
%TO.N,/IBP*%
X55100000Y29800000D02*
X57800000Y27100000D01*
X57800000Y27100000D02*
X57800000Y22400000D01*
X43500000Y29800000D02*
X55100000Y29800000D01*
X42900000Y30400000D02*
X43500000Y29800000D01*
%TO.N,/IBN*%
X54700000Y29100000D02*
X57250000Y26550000D01*
X57250000Y22950000D02*
X57100000Y22800000D01*
X57250000Y26550000D02*
X57250000Y22950000D01*
X45137500Y29100000D02*
X54700000Y29100000D01*
%TO.N,/ICP*%
X25600000Y30600000D02*
X25600000Y29500000D01*
X54000000Y28400000D02*
X56500000Y25900000D01*
X26700000Y28400000D02*
X54000000Y28400000D01*
X56500000Y25900000D02*
X56600000Y25900000D01*
X25600000Y29500000D02*
X26700000Y28400000D01*
%TO.N,/ICN*%
X28200000Y27600000D02*
X53800000Y27600000D01*
X53800000Y27600000D02*
X55609620Y25790380D01*
X55609620Y25790380D02*
X55690380Y25790380D01*
%TO.N,/INP*%
X55700000Y24500000D02*
X55700000Y22400000D01*
X53300000Y26900000D02*
X55700000Y24500000D01*
X8200000Y30300000D02*
X11600000Y26900000D01*
X11600000Y26900000D02*
X53300000Y26900000D01*
%TO.N,/INN*%
X10400000Y26800000D02*
X10900000Y26300000D01*
X53000000Y26300000D02*
X55000000Y24300000D01*
X10900000Y26300000D02*
X53000000Y26300000D01*
X55000000Y24300000D02*
X55000000Y22800000D01*
D19*
%TO.N,+3V3*%
X27500000Y19900000D02*
X29600000Y22000000D01*
X43000000Y9300000D02*
X29300000Y9300000D01*
X43890000Y7160000D02*
X43890000Y8410000D01*
X29300000Y9300000D02*
X27500000Y11100000D01*
X43890000Y8410000D02*
X43000000Y9300000D01*
X27500000Y11100000D02*
X27500000Y19900000D01*
D22*
%TO.N,/EX_GPIO1*%
X34173000Y14500000D02*
X34173000Y14627000D01*
X31800000Y17000000D02*
X29700000Y17000000D01*
X34173000Y14627000D02*
X31800000Y17000000D01*
D23*
%TO.N,/V_OUT*%
X36910000Y56330857D02*
X43733466Y49507391D01*
X36910000Y75417500D02*
X36910000Y56330857D01*
%TO.N,/W_OUT*%
X33100000Y56123925D02*
X26483466Y49507391D01*
X33100000Y75417500D02*
X33100000Y56123925D01*
D21*
%TO.N,/SCLK*%
X59800000Y17700000D02*
X40890925Y17700000D01*
X40890925Y17700000D02*
X40690925Y17500000D01*
X40690925Y17500000D02*
X39200000Y17500000D01*
%TO.N,/SDO*%
X38285000Y16100000D02*
X61400000Y16100000D01*
X37987500Y16397500D02*
X38285000Y16100000D01*
X61400000Y16100000D02*
X62600000Y17300000D01*
%TO.N,/EM_CS*%
X40314579Y18750000D02*
X40364579Y18800000D01*
X56500000Y19000000D02*
X57500000Y19000000D01*
X40364579Y18800000D02*
X56300000Y18800000D01*
X56300000Y18800000D02*
X56500000Y19000000D01*
%TO.N,/SDI*%
X40783818Y18300000D02*
X59200000Y18300000D01*
X59200000Y18300000D02*
X59500000Y18600000D01*
X40583818Y18100000D02*
X40783818Y18300000D01*
X39700000Y18200000D02*
X39800000Y18100000D01*
X39800000Y18100000D02*
X40583818Y18100000D01*
%TO.N,/IRQ0*%
X56950000Y17100000D02*
X40998031Y17100000D01*
X40998031Y17100000D02*
X40698031Y16800000D01*
X40698031Y16800000D02*
X39800000Y16800000D01*
X57000000Y17050000D02*
X56950000Y17100000D01*
D23*
%TO.N,/U_IN*%
X60983466Y62774034D02*
X60983466Y58957391D01*
X48340000Y75417500D02*
X60983466Y62774034D01*
%TO.N,/N_IN*%
X21670000Y75417500D02*
X9233466Y62980966D01*
X9233466Y62980966D02*
X9233466Y58957391D01*
%TO.N,/N_OUT*%
X17000000Y63000000D02*
X25480000Y71480000D01*
X17000000Y57273925D02*
X17000000Y63000000D01*
X25480000Y71480000D02*
X25480000Y75417500D01*
X9233466Y49507391D02*
X17000000Y57273925D01*
%TO.N,/U_OUT*%
X60865323Y49507391D02*
X60983466Y49507391D01*
X52000000Y63000000D02*
X52000000Y58372714D01*
X44530000Y70470000D02*
X52000000Y63000000D01*
X44530000Y75417500D02*
X44530000Y70470000D01*
X52000000Y58372714D02*
X60865323Y49507391D01*
%TO.N,/V_IN*%
X40720000Y75417500D02*
X40720000Y61970857D01*
X40720000Y61970857D02*
X43733466Y58957391D01*
%TO.N,/W_IN*%
X29290000Y61763925D02*
X26483466Y58957391D01*
X29290000Y75417500D02*
X29290000Y61763925D01*
%TD*%
%TA.AperFunction,Conductor*%
%TO.N,GNDA*%
G36*
X69458691Y38981093D02*
G01*
X69494655Y38931593D01*
X69499500Y38901000D01*
X69499500Y5179907D01*
X69480593Y5121716D01*
X69431093Y5085752D01*
X69369907Y5085752D01*
X69320407Y5121716D01*
X69306274Y5149536D01*
X69305066Y5153282D01*
X69305063Y5153291D01*
X69305056Y5153313D01*
X69245960Y5310447D01*
X69179398Y5464567D01*
X69105523Y5615318D01*
X69059064Y5699635D01*
X69024516Y5762336D01*
X69024505Y5762355D01*
X68936530Y5905338D01*
X68936528Y5905341D01*
X68841805Y6043935D01*
X68841780Y6043969D01*
X68790712Y6111494D01*
X68740538Y6177837D01*
X68632971Y6306727D01*
X68575533Y6369200D01*
X68519352Y6430307D01*
X68519334Y6430326D01*
X68399956Y6548281D01*
X68399942Y6548294D01*
X68399929Y6548307D01*
X68399910Y6548324D01*
X68399893Y6548340D01*
X68275018Y6660416D01*
X68274992Y6660439D01*
X68144817Y6766458D01*
X68009724Y6866101D01*
X67869986Y6959169D01*
X67725965Y7045418D01*
X67577971Y7124665D01*
X67426316Y7196741D01*
X67271451Y7261432D01*
X67271432Y7261439D01*
X67113600Y7318647D01*
X67081896Y7328447D01*
X66953225Y7368218D01*
X66790617Y7410052D01*
X66626258Y7444028D01*
X66626244Y7444031D01*
X66460377Y7470098D01*
X66460370Y7470099D01*
X66425781Y7473846D01*
X66293488Y7488179D01*
X66293456Y7488182D01*
X66125885Y7498240D01*
X66125887Y7498240D01*
X65979145Y7499999D01*
X65958027Y7500252D01*
X65958024Y7500252D01*
X65958016Y7500252D01*
X65804236Y7494718D01*
X65790256Y7494214D01*
X65790253Y7494214D01*
X65790222Y7494212D01*
X65623006Y7480144D01*
X65622957Y7480139D01*
X65456568Y7458065D01*
X65456538Y7458060D01*
X65291386Y7428031D01*
X65127842Y7390114D01*
X64966317Y7344402D01*
X64807140Y7290989D01*
X64650730Y7230015D01*
X64650717Y7230009D01*
X64497406Y7161604D01*
X64347572Y7085938D01*
X64347541Y7085921D01*
X64201523Y7003166D01*
X64201498Y7003151D01*
X64059612Y6913490D01*
X64059567Y6913460D01*
X63922156Y6817107D01*
X63922135Y6817091D01*
X63789475Y6714242D01*
X63789455Y6714225D01*
X63661866Y6605122D01*
X63539643Y6490014D01*
X63423098Y6369200D01*
X63312468Y6242922D01*
X63312465Y6242919D01*
X63208022Y6111489D01*
X63109999Y5975202D01*
X63109993Y5975193D01*
X63018630Y5834381D01*
X62934099Y5689314D01*
X62856639Y5540394D01*
X62856636Y5540388D01*
X62786400Y5387914D01*
X62786384Y5387876D01*
X62723557Y5232254D01*
X62723551Y5232239D01*
X62668246Y5073752D01*
X62668239Y5073730D01*
X62620592Y4912757D01*
X62620592Y4912756D01*
X62580717Y4749689D01*
X62548702Y4584868D01*
X62524631Y4418735D01*
X62508553Y4251640D01*
X62508552Y4251629D01*
X62500502Y4083938D01*
X62499999Y4000000D01*
X62500502Y3916063D01*
X62508552Y3748372D01*
X62508553Y3748361D01*
X62524631Y3581266D01*
X62548702Y3415133D01*
X62580717Y3250312D01*
X62620592Y3087245D01*
X62620592Y3087244D01*
X62668239Y2926271D01*
X62668246Y2926249D01*
X62723551Y2767762D01*
X62723557Y2767747D01*
X62786384Y2612125D01*
X62786400Y2612087D01*
X62856636Y2459613D01*
X62856639Y2459607D01*
X62895611Y2384682D01*
X62934104Y2310678D01*
X63018625Y2165627D01*
X63018630Y2165620D01*
X63109993Y2024808D01*
X63109999Y2024799D01*
X63208022Y1888512D01*
X63312465Y1757082D01*
X63312468Y1757079D01*
X63312473Y1757073D01*
X63423100Y1630799D01*
X63539655Y1509975D01*
X63661868Y1394877D01*
X63789459Y1285772D01*
X63789467Y1285766D01*
X63789475Y1285759D01*
X63838977Y1247381D01*
X63922135Y1182909D01*
X63922151Y1182898D01*
X63922156Y1182894D01*
X64059567Y1086541D01*
X64059579Y1086533D01*
X64059589Y1086526D01*
X64059598Y1086520D01*
X64059612Y1086511D01*
X64131895Y1040834D01*
X64201507Y996844D01*
X64201523Y996835D01*
X64347541Y914080D01*
X64347572Y914063D01*
X64497406Y838397D01*
X64497416Y838392D01*
X64650727Y769987D01*
X64807141Y709011D01*
X64853792Y693357D01*
X64902945Y656920D01*
X64921293Y598550D01*
X64901829Y540544D01*
X64851986Y505056D01*
X64822298Y500500D01*
X47872650Y500500D01*
X47814459Y519407D01*
X47778495Y568907D01*
X47774049Y608377D01*
X47775499Y624486D01*
X47775500Y624504D01*
X47775500Y13848639D01*
X47775070Y13856659D01*
X47768191Y13984993D01*
X47765357Y14011351D01*
X47765354Y14011382D01*
X47760051Y14053941D01*
X47760050Y14053948D01*
X47707803Y14276563D01*
X47707803Y14276565D01*
X47616645Y14486280D01*
X47583160Y14547603D01*
X47512145Y14662696D01*
X47365596Y14838234D01*
X47138234Y15065596D01*
X47036645Y15156847D01*
X47016003Y15173481D01*
X46982145Y15199838D01*
X46929711Y15232339D01*
X46787784Y15320313D01*
X46717509Y15348005D01*
X46691143Y15358394D01*
X46643937Y15397317D01*
X46628624Y15456556D01*
X46651056Y15513481D01*
X46702663Y15546350D01*
X46727439Y15549500D01*
X61472474Y15549500D01*
X61472475Y15549500D01*
X61612485Y15587016D01*
X61659441Y15614126D01*
X61738015Y15659490D01*
X62659033Y16580510D01*
X62709720Y16607602D01*
X62804328Y16626420D01*
X62931811Y16679225D01*
X63046542Y16755886D01*
X63144114Y16853458D01*
X63220775Y16968189D01*
X63273580Y17095672D01*
X63300500Y17231007D01*
X63300500Y17368993D01*
X63273580Y17504328D01*
X63221108Y17631007D01*
X63220777Y17631807D01*
X63220771Y17631818D01*
X63144114Y17746542D01*
X63046541Y17844115D01*
X62931817Y17920772D01*
X62931806Y17920778D01*
X62804328Y17973580D01*
X62668995Y18000500D01*
X62668993Y18000500D01*
X62531007Y18000500D01*
X62531004Y18000500D01*
X62395672Y17973580D01*
X62395670Y17973580D01*
X62268193Y17920778D01*
X62268182Y17920772D01*
X62153458Y17844115D01*
X62055885Y17746542D01*
X61979228Y17631818D01*
X61979222Y17631807D01*
X61926420Y17504329D01*
X61907601Y17409722D01*
X61880506Y17359033D01*
X61539747Y17018272D01*
X61200971Y16679496D01*
X61146454Y16651719D01*
X61130967Y16650500D01*
X57740901Y16650500D01*
X57682710Y16669407D01*
X57646746Y16718907D01*
X57646746Y16780093D01*
X57649437Y16787385D01*
X57657051Y16805768D01*
X57673580Y16845672D01*
X57700500Y16981007D01*
X57700500Y17050500D01*
X57719407Y17108691D01*
X57768907Y17144655D01*
X57799500Y17149500D01*
X59332984Y17149500D01*
X59387986Y17132815D01*
X59468182Y17079229D01*
X59468193Y17079223D01*
X59515283Y17059718D01*
X59595672Y17026420D01*
X59731007Y16999500D01*
X59731008Y16999500D01*
X59868992Y16999500D01*
X59868993Y16999500D01*
X60004328Y17026420D01*
X60131811Y17079225D01*
X60246542Y17155886D01*
X60344114Y17253458D01*
X60420775Y17368189D01*
X60473580Y17495672D01*
X60500500Y17631007D01*
X60500500Y17768993D01*
X60473580Y17904328D01*
X60444895Y17973580D01*
X60420777Y18031807D01*
X60420771Y18031818D01*
X60344114Y18146542D01*
X60246541Y18244115D01*
X60207781Y18270014D01*
X60169902Y18318064D01*
X60167500Y18379203D01*
X60171321Y18390219D01*
X60173578Y18395668D01*
X60173580Y18395672D01*
X60200500Y18531007D01*
X60200500Y18668993D01*
X60173580Y18804328D01*
X60153322Y18853235D01*
X60120777Y18931807D01*
X60120771Y18931818D01*
X60044114Y19046542D01*
X59946541Y19144115D01*
X59831817Y19220772D01*
X59831806Y19220778D01*
X59704328Y19273580D01*
X59568995Y19300500D01*
X59568993Y19300500D01*
X59540901Y19300500D01*
X59482710Y19319407D01*
X59446746Y19368907D01*
X59446746Y19430093D01*
X59449437Y19437385D01*
X59455115Y19451094D01*
X59473580Y19495672D01*
X59500500Y19631007D01*
X59500500Y19768993D01*
X59473580Y19904328D01*
X59420775Y20031811D01*
X59420774Y20031813D01*
X59420771Y20031818D01*
X59344114Y20146542D01*
X59246541Y20244115D01*
X59131817Y20320772D01*
X59131806Y20320778D01*
X59004328Y20373580D01*
X58868995Y20400500D01*
X58868993Y20400500D01*
X58731007Y20400500D01*
X58731004Y20400500D01*
X58595672Y20373580D01*
X58595670Y20373580D01*
X58468193Y20320778D01*
X58468182Y20320772D01*
X58391810Y20269741D01*
X58389489Y20268189D01*
X58387986Y20267185D01*
X58332984Y20250500D01*
X56761611Y20250500D01*
X56703420Y20269407D01*
X56667456Y20318907D01*
X56667456Y20380093D01*
X56670142Y20387374D01*
X56673580Y20395672D01*
X56700500Y20531007D01*
X56700500Y20668993D01*
X56673580Y20804328D01*
X56638215Y20889708D01*
X56620777Y20931807D01*
X56620771Y20931818D01*
X56544114Y21046542D01*
X56446541Y21144115D01*
X56331817Y21220772D01*
X56331806Y21220778D01*
X56204328Y21273580D01*
X56068995Y21300500D01*
X56068993Y21300500D01*
X56060635Y21300500D01*
X56029881Y21305398D01*
X56020071Y21308605D01*
X56012485Y21312984D01*
X55982782Y21320943D01*
X55980203Y21321634D01*
X55980191Y21321638D01*
X55973875Y21323330D01*
X55922561Y21356655D01*
X55900636Y21413777D01*
X55900500Y21418956D01*
X55900500Y21518992D01*
X55900500Y21518993D01*
X55878522Y21629482D01*
X55885713Y21690241D01*
X55927246Y21735171D01*
X55937729Y21740256D01*
X56031811Y21779225D01*
X56146542Y21855886D01*
X56244114Y21953458D01*
X56320775Y22068189D01*
X56373580Y22195672D01*
X56393871Y22297681D01*
X56423768Y22351065D01*
X56479333Y22376681D01*
X56539343Y22364744D01*
X56560973Y22348371D01*
X56653458Y22255886D01*
X56768182Y22179229D01*
X56768193Y22179223D01*
X56815283Y22159718D01*
X56895672Y22126420D01*
X57031007Y22099500D01*
X57105387Y22099500D01*
X57163578Y22080593D01*
X57187702Y22055502D01*
X57255886Y21953458D01*
X57255887Y21953457D01*
X57255889Y21953455D01*
X57353458Y21855886D01*
X57468182Y21779229D01*
X57468193Y21779223D01*
X57498905Y21766502D01*
X57595672Y21726420D01*
X57731007Y21699500D01*
X57731008Y21699500D01*
X57868992Y21699500D01*
X57868993Y21699500D01*
X58004328Y21726420D01*
X58131811Y21779225D01*
X58246542Y21855886D01*
X58344114Y21953458D01*
X58415425Y22060183D01*
X58463472Y22098060D01*
X58517052Y22102276D01*
X58531007Y22099500D01*
X58531012Y22099500D01*
X58668992Y22099500D01*
X58668993Y22099500D01*
X58804328Y22126420D01*
X58931811Y22179225D01*
X59046542Y22255886D01*
X59144114Y22353458D01*
X59220775Y22468189D01*
X59273580Y22595672D01*
X59300500Y22731007D01*
X59300500Y22868993D01*
X59273580Y23004328D01*
X59243343Y23077326D01*
X59220777Y23131807D01*
X59220771Y23131818D01*
X59167185Y23212014D01*
X59150500Y23267016D01*
X59150500Y27030968D01*
X59169407Y27089159D01*
X59179490Y27100966D01*
X61959033Y29880510D01*
X62009720Y29907602D01*
X62104328Y29926420D01*
X62231811Y29979225D01*
X62346542Y30055886D01*
X62444114Y30153458D01*
X62520775Y30268189D01*
X62573580Y30395672D01*
X62600500Y30531007D01*
X62600500Y30668993D01*
X62573580Y30804328D01*
X62555978Y30846823D01*
X62520777Y30931807D01*
X62520771Y30931818D01*
X62444114Y31046542D01*
X62346541Y31144115D01*
X62231817Y31220772D01*
X62231806Y31220778D01*
X62104328Y31273580D01*
X61968995Y31300500D01*
X61968993Y31300500D01*
X61831007Y31300500D01*
X61831004Y31300500D01*
X61695672Y31273580D01*
X61695670Y31273580D01*
X61568193Y31220778D01*
X61568182Y31220772D01*
X61453458Y31144115D01*
X61355885Y31046542D01*
X61279228Y30931818D01*
X61279222Y30931807D01*
X61226420Y30804329D01*
X61207601Y30709723D01*
X61180507Y30659034D01*
X58170003Y27648529D01*
X58115486Y27620752D01*
X58055054Y27630323D01*
X58029995Y27648529D01*
X57719033Y27959491D01*
X55438015Y30240510D01*
X55312485Y30312984D01*
X55172475Y30350500D01*
X55172474Y30350500D01*
X43769033Y30350500D01*
X43761435Y30352969D01*
X43753546Y30351719D01*
X43732890Y30362244D01*
X43710842Y30369407D01*
X43699029Y30379496D01*
X43619492Y30459033D01*
X43592398Y30509723D01*
X43588164Y30531009D01*
X43573580Y30604328D01*
X43520775Y30731811D01*
X43520774Y30731813D01*
X43520771Y30731818D01*
X43444114Y30846542D01*
X43346541Y30944115D01*
X43231817Y31020772D01*
X43231806Y31020778D01*
X43104328Y31073580D01*
X42968995Y31100500D01*
X42968993Y31100500D01*
X42831007Y31100500D01*
X42831004Y31100500D01*
X42695672Y31073580D01*
X42695670Y31073580D01*
X42568193Y31020778D01*
X42568182Y31020772D01*
X42453458Y30944115D01*
X42355885Y30846542D01*
X42279228Y30731818D01*
X42279222Y30731807D01*
X42226420Y30604330D01*
X42226420Y30604328D01*
X42199500Y30468996D01*
X42199500Y30331005D01*
X42226420Y30195673D01*
X42226420Y30195671D01*
X42279222Y30068194D01*
X42279228Y30068183D01*
X42355885Y29953459D01*
X42453458Y29855886D01*
X42568182Y29779229D01*
X42568193Y29779223D01*
X42615283Y29759718D01*
X42695672Y29726420D01*
X42790277Y29707602D01*
X42840966Y29680508D01*
X43093947Y29427528D01*
X43161985Y29359490D01*
X43286649Y29287516D01*
X43286651Y29287515D01*
X43286650Y29287514D01*
X43286665Y29287507D01*
X43287515Y29287016D01*
X43427525Y29249500D01*
X43427526Y29249500D01*
X43572474Y29249500D01*
X44338000Y29249500D01*
X44352912Y29244655D01*
X44368593Y29244655D01*
X44381278Y29235439D01*
X44396191Y29230593D01*
X44405407Y29217908D01*
X44418093Y29208691D01*
X44422938Y29193779D01*
X44432155Y29181093D01*
X44437000Y29150500D01*
X44437000Y29049500D01*
X44418093Y28991309D01*
X44368593Y28955345D01*
X44338000Y28950500D01*
X26969033Y28950500D01*
X26910842Y28969407D01*
X26899029Y28979496D01*
X26179496Y29699029D01*
X26151719Y29753546D01*
X26150500Y29769033D01*
X26150500Y30132985D01*
X26167185Y30187987D01*
X26220775Y30268189D01*
X26273580Y30395672D01*
X26300500Y30531007D01*
X26300500Y30668993D01*
X26273580Y30804328D01*
X26255978Y30846823D01*
X26220777Y30931807D01*
X26220771Y30931818D01*
X26144114Y31046542D01*
X26046541Y31144115D01*
X25931817Y31220772D01*
X25931806Y31220778D01*
X25804328Y31273580D01*
X25668995Y31300500D01*
X25668993Y31300500D01*
X25531007Y31300500D01*
X25531004Y31300500D01*
X25395672Y31273580D01*
X25395670Y31273580D01*
X25268193Y31220778D01*
X25268182Y31220772D01*
X25153458Y31144115D01*
X25055885Y31046542D01*
X24979228Y30931818D01*
X24979222Y30931807D01*
X24926420Y30804330D01*
X24926420Y30804328D01*
X24899500Y30668996D01*
X24899500Y30531005D01*
X24926420Y30395673D01*
X24926420Y30395671D01*
X24979223Y30268192D01*
X24979224Y30268190D01*
X24979225Y30268189D01*
X25027680Y30195671D01*
X25032815Y30187987D01*
X25049500Y30132985D01*
X25049500Y29572474D01*
X25049500Y29427526D01*
X25087016Y29287515D01*
X25159490Y29161985D01*
X26361985Y27959490D01*
X26487515Y27887016D01*
X26627525Y27849500D01*
X26627526Y27849500D01*
X26772474Y27849500D01*
X27414773Y27849500D01*
X27472964Y27830593D01*
X27508928Y27781093D01*
X27511871Y27731186D01*
X27499500Y27668996D01*
X27499500Y27549500D01*
X27480593Y27491309D01*
X27431093Y27455345D01*
X27400500Y27450500D01*
X11869033Y27450500D01*
X11810842Y27469407D01*
X11799029Y27479496D01*
X8919492Y30359033D01*
X8892398Y30409723D01*
X8873580Y30504328D01*
X8820775Y30631811D01*
X8820774Y30631813D01*
X8820771Y30631818D01*
X8744114Y30746542D01*
X8646541Y30844115D01*
X8531817Y30920772D01*
X8531806Y30920778D01*
X8404328Y30973580D01*
X8268995Y31000500D01*
X8268993Y31000500D01*
X8131007Y31000500D01*
X8131004Y31000500D01*
X7995672Y30973580D01*
X7995670Y30973580D01*
X7868193Y30920778D01*
X7868182Y30920772D01*
X7753458Y30844115D01*
X7655885Y30746542D01*
X7579228Y30631818D01*
X7579222Y30631807D01*
X7526420Y30504330D01*
X7526420Y30504328D01*
X7499500Y30368996D01*
X7499500Y30231005D01*
X7526420Y30095673D01*
X7526420Y30095671D01*
X7579222Y29968194D01*
X7579228Y29968183D01*
X7655885Y29853459D01*
X7753458Y29755886D01*
X7868182Y29679229D01*
X7868193Y29679223D01*
X7915283Y29659718D01*
X7995672Y29626420D01*
X8090277Y29607602D01*
X8140967Y29580508D01*
X10127831Y27593644D01*
X10155608Y27539127D01*
X10146037Y27478695D01*
X10102772Y27435430D01*
X10095713Y27432176D01*
X10068190Y27420776D01*
X10068182Y27420772D01*
X9953458Y27344115D01*
X9855885Y27246542D01*
X9779228Y27131818D01*
X9779222Y27131807D01*
X9726420Y27004330D01*
X9726420Y27004328D01*
X9699500Y26868996D01*
X9699500Y26731005D01*
X9726420Y26595673D01*
X9726420Y26595671D01*
X9779222Y26468194D01*
X9779228Y26468183D01*
X9855885Y26353459D01*
X9953458Y26255886D01*
X10068182Y26179229D01*
X10068193Y26179223D01*
X10115283Y26159718D01*
X10195672Y26126420D01*
X10290277Y26107602D01*
X10340966Y26080508D01*
X10561982Y25859493D01*
X10561985Y25859490D01*
X10687515Y25787016D01*
X10827525Y25749500D01*
X10827526Y25749500D01*
X10972474Y25749500D01*
X16800500Y25749500D01*
X16858691Y25730593D01*
X16894655Y25681093D01*
X16899500Y25650500D01*
X16899500Y25531005D01*
X16926420Y25395673D01*
X16926420Y25395671D01*
X16979222Y25268194D01*
X16979228Y25268183D01*
X17055885Y25153459D01*
X17139840Y25069504D01*
X17167617Y25014987D01*
X17158046Y24954555D01*
X17114781Y24911290D01*
X17069836Y24900500D01*
X11621155Y24900500D01*
X11466504Y24869739D01*
X11320821Y24809395D01*
X11189711Y24721789D01*
X11189707Y24721786D01*
X8378214Y21910293D01*
X8378211Y21910289D01*
X8290609Y21779186D01*
X8290603Y21779175D01*
X8230263Y21633499D01*
X8230263Y21633497D01*
X8199500Y21478845D01*
X8199500Y21321156D01*
X8208964Y21273580D01*
X8223699Y21199500D01*
X8230263Y21166504D01*
X8230263Y21166502D01*
X8290603Y21020826D01*
X8290609Y21020815D01*
X8333350Y20956850D01*
X8378211Y20889711D01*
X8489711Y20778211D01*
X8567876Y20725983D01*
X8620814Y20690610D01*
X8620825Y20690604D01*
X8672993Y20668996D01*
X8766503Y20630263D01*
X8921158Y20599500D01*
X8921159Y20599500D01*
X9078841Y20599500D01*
X9078842Y20599500D01*
X9233497Y20630263D01*
X9379179Y20690606D01*
X9510289Y20778211D01*
X12002582Y23270504D01*
X12057099Y23298281D01*
X12072586Y23299500D01*
X12878103Y23299500D01*
X12936294Y23280593D01*
X12972258Y23231093D01*
X12972258Y23169907D01*
X12962249Y23148342D01*
X12879687Y23015147D01*
X12795854Y22802398D01*
X12779010Y22745035D01*
X12776170Y22735360D01*
X12775139Y22731007D01*
X12744999Y22603754D01*
X12744997Y22603746D01*
X12724501Y22376020D01*
X12724500Y22375997D01*
X12724500Y17123995D01*
X12725266Y17079772D01*
X12725267Y17079759D01*
X12753650Y16852866D01*
X12764857Y16801354D01*
X12764857Y16801353D01*
X12815218Y16629189D01*
X12815221Y16629181D01*
X12913591Y16422764D01*
X12913593Y16422760D01*
X12944444Y16379931D01*
X12981329Y16328726D01*
X13000000Y16270863D01*
X13000000Y599500D01*
X12981093Y541309D01*
X12931593Y505345D01*
X12901000Y500500D01*
X5178295Y500500D01*
X5120104Y519407D01*
X5084140Y568907D01*
X5084140Y630093D01*
X5120104Y679593D01*
X5144555Y692574D01*
X5271432Y738561D01*
X5292930Y747542D01*
X5426316Y803260D01*
X5426322Y803264D01*
X5426339Y803270D01*
X5577965Y875332D01*
X5725962Y954581D01*
X5869990Y1040834D01*
X6009716Y1133894D01*
X6144820Y1233545D01*
X6274991Y1339560D01*
X6399929Y1451693D01*
X6519347Y1569688D01*
X6632971Y1693273D01*
X6740538Y1822163D01*
X6841803Y1956062D01*
X6936531Y2094663D01*
X7024505Y2237645D01*
X7105523Y2384682D01*
X7179398Y2535433D01*
X7245960Y2689553D01*
X7305056Y2846687D01*
X7356550Y3006474D01*
X7400325Y3168546D01*
X7436278Y3332530D01*
X7450275Y3415122D01*
X7464323Y3498017D01*
X7464328Y3498052D01*
X7484411Y3664734D01*
X7490438Y3748361D01*
X7496478Y3832169D01*
X7500504Y4000000D01*
X7496478Y4167831D01*
X7484410Y4335276D01*
X7464328Y4501950D01*
X7464327Y4501956D01*
X7464323Y4501984D01*
X7436280Y4667459D01*
X7400332Y4831424D01*
X7400318Y4831482D01*
X7356557Y4993500D01*
X7356550Y4993526D01*
X7315239Y5121716D01*
X7305062Y5153295D01*
X7305060Y5153299D01*
X7305056Y5153313D01*
X7245960Y5310447D01*
X7179398Y5464567D01*
X7105523Y5615318D01*
X7059064Y5699635D01*
X7024516Y5762336D01*
X7024505Y5762355D01*
X6936530Y5905338D01*
X6936528Y5905341D01*
X6841805Y6043935D01*
X6841780Y6043969D01*
X6790712Y6111494D01*
X6740538Y6177837D01*
X6632971Y6306727D01*
X6575533Y6369200D01*
X6519352Y6430307D01*
X6519334Y6430326D01*
X6399956Y6548281D01*
X6399942Y6548294D01*
X6399929Y6548307D01*
X6399910Y6548324D01*
X6399893Y6548340D01*
X6275018Y6660416D01*
X6274992Y6660439D01*
X6144817Y6766458D01*
X6009724Y6866101D01*
X5869986Y6959169D01*
X5725965Y7045418D01*
X5577971Y7124665D01*
X5426316Y7196741D01*
X5271451Y7261432D01*
X5271432Y7261439D01*
X5113600Y7318647D01*
X5081896Y7328447D01*
X4953225Y7368218D01*
X4790617Y7410052D01*
X4626258Y7444028D01*
X4626244Y7444031D01*
X4460377Y7470098D01*
X4460370Y7470099D01*
X4425781Y7473846D01*
X4293488Y7488179D01*
X4293456Y7488182D01*
X4125885Y7498240D01*
X4125887Y7498240D01*
X3979145Y7499999D01*
X3958027Y7500252D01*
X3958024Y7500252D01*
X3958016Y7500252D01*
X3804236Y7494718D01*
X3790256Y7494214D01*
X3790253Y7494214D01*
X3790222Y7494212D01*
X3623006Y7480144D01*
X3622957Y7480139D01*
X3456568Y7458065D01*
X3456538Y7458060D01*
X3291386Y7428031D01*
X3127842Y7390114D01*
X2966317Y7344402D01*
X2807140Y7290989D01*
X2650730Y7230015D01*
X2650717Y7230009D01*
X2497406Y7161604D01*
X2347572Y7085938D01*
X2347541Y7085921D01*
X2201523Y7003166D01*
X2201498Y7003151D01*
X2059612Y6913490D01*
X2059567Y6913460D01*
X1922156Y6817107D01*
X1922135Y6817091D01*
X1789475Y6714242D01*
X1789455Y6714225D01*
X1661866Y6605122D01*
X1539643Y6490014D01*
X1423098Y6369200D01*
X1312468Y6242922D01*
X1312465Y6242919D01*
X1208022Y6111489D01*
X1109999Y5975202D01*
X1109993Y5975193D01*
X1018630Y5834381D01*
X934099Y5689314D01*
X856639Y5540394D01*
X856636Y5540388D01*
X786400Y5387914D01*
X786384Y5387876D01*
X723557Y5232254D01*
X723551Y5232239D01*
X692972Y5144608D01*
X655948Y5095896D01*
X597363Y5078249D01*
X539594Y5098408D01*
X504707Y5148673D01*
X500500Y5177226D01*
X500500Y38901000D01*
X519407Y38959191D01*
X568907Y38995155D01*
X599500Y39000000D01*
X69400500Y39000000D01*
X69458691Y38981093D01*
G37*
%TD.AperFunction*%
%TA.AperFunction,Conductor*%
G36*
X43039158Y24480593D02*
G01*
X43050971Y24470504D01*
X47501971Y20019504D01*
X47529748Y19964987D01*
X47520177Y19904555D01*
X47476912Y19861290D01*
X47431967Y19850500D01*
X41361204Y19850500D01*
X41303013Y19869407D01*
X41278888Y19894499D01*
X41244114Y19946542D01*
X41146550Y20044107D01*
X41146541Y20044115D01*
X41031817Y20120772D01*
X41031806Y20120778D01*
X40904328Y20173580D01*
X40768995Y20200500D01*
X40768993Y20200500D01*
X40631007Y20200500D01*
X40631004Y20200500D01*
X40495672Y20173580D01*
X40495670Y20173580D01*
X40368193Y20120778D01*
X40368182Y20120772D01*
X40253458Y20044115D01*
X40155885Y19946542D01*
X40079228Y19831818D01*
X40079222Y19831807D01*
X40026420Y19704330D01*
X40026420Y19704328D01*
X39999500Y19568996D01*
X39999500Y19434872D01*
X39980593Y19376681D01*
X39955502Y19352557D01*
X39868037Y19294115D01*
X39770464Y19196542D01*
X39693807Y19081818D01*
X39693801Y19081807D01*
X39639138Y18949835D01*
X39637665Y18950445D01*
X39606476Y18905726D01*
X39566066Y18887584D01*
X39495680Y18873583D01*
X39495670Y18873580D01*
X39368193Y18820778D01*
X39368182Y18820772D01*
X39253458Y18744115D01*
X39155885Y18646542D01*
X39079228Y18531818D01*
X39079222Y18531807D01*
X39026420Y18404330D01*
X39026420Y18404328D01*
X38999500Y18268996D01*
X38999500Y18241316D01*
X38980593Y18183125D01*
X38938386Y18149852D01*
X38868190Y18120776D01*
X38868182Y18120772D01*
X38753458Y18044115D01*
X38655885Y17946542D01*
X38579228Y17831818D01*
X38579222Y17831807D01*
X38526420Y17704330D01*
X38526420Y17704328D01*
X38499500Y17568996D01*
X38499500Y17431005D01*
X38526420Y17295673D01*
X38526420Y17295671D01*
X38579222Y17168194D01*
X38579228Y17168183D01*
X38655885Y17053459D01*
X38753458Y16955886D01*
X38868182Y16879229D01*
X38868193Y16879223D01*
X38960559Y16840964D01*
X39007085Y16801228D01*
X39021369Y16741733D01*
X38997954Y16685205D01*
X38945785Y16653235D01*
X38922674Y16650500D01*
X38707069Y16650500D01*
X38648878Y16669407D01*
X38615604Y16711616D01*
X38612881Y16718189D01*
X38608275Y16729311D01*
X38608270Y16729318D01*
X38560139Y16801351D01*
X38531614Y16844042D01*
X38434042Y16941614D01*
X38434041Y16941615D01*
X38319317Y17018272D01*
X38319306Y17018278D01*
X38191828Y17071080D01*
X38056495Y17098000D01*
X38056493Y17098000D01*
X37918507Y17098000D01*
X37918504Y17098000D01*
X37783172Y17071080D01*
X37783170Y17071080D01*
X37655693Y17018278D01*
X37655682Y17018272D01*
X37540958Y16941615D01*
X37443385Y16844042D01*
X37366728Y16729318D01*
X37366722Y16729307D01*
X37313920Y16601830D01*
X37313920Y16601828D01*
X37287000Y16466496D01*
X37287000Y16328505D01*
X37313920Y16193173D01*
X37313920Y16193171D01*
X37366722Y16065694D01*
X37366728Y16065683D01*
X37443385Y15950959D01*
X37540958Y15853386D01*
X37655682Y15776729D01*
X37655693Y15776723D01*
X37702783Y15757218D01*
X37783172Y15723920D01*
X37877778Y15705102D01*
X37924199Y15682030D01*
X37926404Y15680072D01*
X37946986Y15659490D01*
X37954406Y15655206D01*
X37961929Y15648526D01*
X37972565Y15630394D01*
X37986634Y15614770D01*
X37987704Y15604584D01*
X37992886Y15595751D01*
X37990832Y15574829D01*
X37993031Y15553920D01*
X37987911Y15545052D01*
X37986911Y15534858D01*
X37972950Y15519137D01*
X37962440Y15500931D01*
X37953084Y15496766D01*
X37946284Y15489107D01*
X37925749Y15484594D01*
X37906546Y15476043D01*
X37896194Y15475500D01*
X36056804Y15475500D01*
X36026211Y15480345D01*
X35867758Y15531830D01*
X35859012Y15533215D01*
X35804496Y15560993D01*
X35776719Y15615510D01*
X35775500Y15630996D01*
X35775500Y19648639D01*
X35772515Y19704328D01*
X35768191Y19784993D01*
X35765357Y19811351D01*
X35765354Y19811382D01*
X35760051Y19853941D01*
X35760050Y19853948D01*
X35748173Y19904555D01*
X35707803Y20076565D01*
X35616645Y20286280D01*
X35616643Y20286284D01*
X35583167Y20347591D01*
X35583156Y20347609D01*
X35567131Y20373580D01*
X35512145Y20462696D01*
X35365596Y20638234D01*
X35138234Y20865596D01*
X35036645Y20956847D01*
X35016003Y20973481D01*
X35016002Y20973482D01*
X35013676Y20975293D01*
X34979380Y21025962D01*
X34975500Y21053405D01*
X34975500Y22376006D01*
X34974733Y22420229D01*
X34974733Y22420236D01*
X34953221Y22592200D01*
X34946349Y22647135D01*
X34935142Y22698647D01*
X34935142Y22698648D01*
X34925676Y22731007D01*
X34884780Y22870815D01*
X34884778Y22870820D01*
X34786408Y23077237D01*
X34786402Y23077247D01*
X34739300Y23142637D01*
X34720630Y23200904D01*
X34739774Y23259017D01*
X34789421Y23294779D01*
X34819629Y23299500D01*
X36027414Y23299500D01*
X36085605Y23280593D01*
X36097418Y23270504D01*
X37878211Y21489711D01*
X37989711Y21378211D01*
X38039542Y21344915D01*
X38120814Y21290610D01*
X38120818Y21290608D01*
X38120821Y21290606D01*
X38223833Y21247938D01*
X38266502Y21230263D01*
X38421157Y21199500D01*
X38421158Y21199500D01*
X38578841Y21199500D01*
X38578842Y21199500D01*
X38733497Y21230263D01*
X38879179Y21290606D01*
X39010289Y21378211D01*
X39121789Y21489711D01*
X39209394Y21620821D01*
X39269737Y21766503D01*
X39300500Y21921158D01*
X39300500Y22078842D01*
X39280533Y22179225D01*
X39269737Y22233498D01*
X39243983Y22295672D01*
X39209394Y22379179D01*
X39121789Y22510289D01*
X39010289Y22621789D01*
X37301582Y24330496D01*
X37273805Y24385013D01*
X37283376Y24445445D01*
X37326641Y24488710D01*
X37371586Y24499500D01*
X42980967Y24499500D01*
X43039158Y24480593D01*
G37*
%TD.AperFunction*%
%TA.AperFunction,Conductor*%
G36*
X52789158Y25730593D02*
G01*
X52800971Y25720504D01*
X54420504Y24100971D01*
X54448281Y24046454D01*
X54449500Y24030967D01*
X54449500Y23267016D01*
X54432815Y23212014D01*
X54379228Y23131818D01*
X54379222Y23131807D01*
X54326420Y23004330D01*
X54326420Y23004328D01*
X54299500Y22868996D01*
X54299500Y22731005D01*
X54305937Y22698647D01*
X54324813Y22603749D01*
X54326420Y22595673D01*
X54326420Y22595671D01*
X54379222Y22468194D01*
X54379228Y22468183D01*
X54448345Y22364744D01*
X54455886Y22353458D01*
X54553458Y22255886D01*
X54625664Y22207639D01*
X54664312Y22181815D01*
X54702191Y22133765D01*
X54704593Y22072627D01*
X54670600Y22021753D01*
X54613196Y22000576D01*
X54609310Y22000500D01*
X50019033Y22000500D01*
X49960842Y22019407D01*
X49949029Y22029496D01*
X49509532Y22468993D01*
X49038015Y22940510D01*
X48912485Y23012984D01*
X48912484Y23012985D01*
X48912481Y23012986D01*
X48877068Y23022475D01*
X48877068Y23022474D01*
X48772475Y23050500D01*
X48772474Y23050500D01*
X48767016Y23050500D01*
X48712014Y23067185D01*
X48631817Y23120772D01*
X48631806Y23120778D01*
X48504328Y23173580D01*
X48368995Y23200500D01*
X48368993Y23200500D01*
X48231007Y23200500D01*
X48231004Y23200500D01*
X48095672Y23173580D01*
X48095670Y23173580D01*
X47968193Y23120778D01*
X47968182Y23120772D01*
X47853458Y23044115D01*
X47755885Y22946542D01*
X47679228Y22831818D01*
X47679222Y22831807D01*
X47626420Y22704330D01*
X47604116Y22592200D01*
X47574219Y22538817D01*
X47518654Y22513201D01*
X47458644Y22525138D01*
X47437014Y22541511D01*
X44398029Y25580496D01*
X44370252Y25635013D01*
X44379823Y25695445D01*
X44423088Y25738710D01*
X44468033Y25749500D01*
X52730967Y25749500D01*
X52789158Y25730593D01*
G37*
%TD.AperFunction*%
%TD*%
%TA.AperFunction,Conductor*%
%TO.N,GND*%
G36*
X33643039Y22480315D02*
G01*
X33688794Y22427511D01*
X33700000Y22376000D01*
X33700000Y20300000D01*
X34000000Y20000000D01*
X34148638Y20000000D01*
X34215677Y19980315D01*
X34236319Y19963681D01*
X34463681Y19736319D01*
X34497166Y19674996D01*
X34500000Y19648638D01*
X34500000Y15345359D01*
X34480315Y15278320D01*
X34427511Y15232565D01*
X34358353Y15222621D01*
X34294797Y15251646D01*
X34288319Y15257678D01*
X32229175Y17316822D01*
X32229173Y17316825D01*
X32123895Y17422103D01*
X32123893Y17422105D01*
X32063750Y17456829D01*
X32063749Y17456830D01*
X32003610Y17491551D01*
X32003609Y17491552D01*
X31970067Y17500539D01*
X31936527Y17509526D01*
X31936524Y17509527D01*
X31908173Y17517124D01*
X31869447Y17527500D01*
X31869446Y17527500D01*
X30209022Y17527500D01*
X30141983Y17547185D01*
X30140131Y17548398D01*
X30031817Y17620772D01*
X30031804Y17620779D01*
X29904332Y17673579D01*
X29904322Y17673582D01*
X29768995Y17700500D01*
X29768993Y17700500D01*
X29631007Y17700500D01*
X29631005Y17700500D01*
X29495677Y17673582D01*
X29495667Y17673579D01*
X29368195Y17620779D01*
X29368182Y17620772D01*
X29253458Y17544115D01*
X29253454Y17544112D01*
X29155888Y17446546D01*
X29155885Y17446542D01*
X29079228Y17331818D01*
X29079221Y17331805D01*
X29026421Y17204333D01*
X29026418Y17204323D01*
X28999500Y17068996D01*
X28999500Y17068993D01*
X28999500Y16931007D01*
X28999500Y16931005D01*
X28999499Y16931005D01*
X29026418Y16795678D01*
X29026421Y16795668D01*
X29079221Y16668196D01*
X29079228Y16668183D01*
X29155885Y16553459D01*
X29155888Y16553455D01*
X29253454Y16455889D01*
X29253458Y16455886D01*
X29368182Y16379229D01*
X29368195Y16379222D01*
X29495667Y16326422D01*
X29495672Y16326420D01*
X29495676Y16326420D01*
X29495677Y16326419D01*
X29631004Y16299500D01*
X29631007Y16299500D01*
X29768995Y16299500D01*
X29860041Y16317611D01*
X29904328Y16326420D01*
X30031811Y16379225D01*
X30031817Y16379229D01*
X30140131Y16451602D01*
X30206808Y16472480D01*
X30209022Y16472500D01*
X31530141Y16472500D01*
X31597180Y16452815D01*
X31617822Y16436181D01*
X33436181Y14617822D01*
X33469666Y14556499D01*
X33472500Y14530141D01*
X33472500Y14431007D01*
X33472500Y14431005D01*
X33472499Y14431005D01*
X33499418Y14295678D01*
X33499421Y14295668D01*
X33552221Y14168196D01*
X33552228Y14168183D01*
X33628885Y14053459D01*
X33628888Y14053455D01*
X33726454Y13955889D01*
X33726458Y13955886D01*
X33841182Y13879229D01*
X33841195Y13879222D01*
X33968667Y13826422D01*
X33968672Y13826420D01*
X33968676Y13826420D01*
X33968677Y13826419D01*
X34104004Y13799500D01*
X34104007Y13799500D01*
X34241995Y13799500D01*
X34333041Y13817611D01*
X34377328Y13826420D01*
X34504811Y13879225D01*
X34619542Y13955886D01*
X34717114Y14053458D01*
X34778208Y14144891D01*
X34831820Y14189696D01*
X34881310Y14200000D01*
X46148638Y14200000D01*
X46215677Y14180315D01*
X46236319Y14163681D01*
X46463681Y13936319D01*
X46497166Y13874996D01*
X46500000Y13848638D01*
X46500000Y624500D01*
X46480315Y557461D01*
X46427511Y511706D01*
X46376000Y500500D01*
X23124000Y500500D01*
X23056961Y520185D01*
X23011206Y572989D01*
X23000000Y624500D01*
X23000000Y2468560D01*
X23019685Y2535599D01*
X23072489Y2581354D01*
X23141647Y2591298D01*
X23205203Y2562273D01*
X23211681Y2556241D01*
X23778211Y1989711D01*
X23889708Y1878214D01*
X23889712Y1878210D01*
X24020814Y1790610D01*
X24020827Y1790603D01*
X24166498Y1730265D01*
X24166503Y1730263D01*
X24321153Y1699501D01*
X24321156Y1699500D01*
X24321158Y1699500D01*
X41848844Y1699500D01*
X41848845Y1699501D01*
X42003497Y1730263D01*
X42149179Y1790606D01*
X42280289Y1878211D01*
X43735258Y3333182D01*
X43796581Y3366666D01*
X43822939Y3369500D01*
X43988422Y3369500D01*
X44182826Y3400291D01*
X44370025Y3461116D01*
X44545405Y3550476D01*
X44704646Y3666172D01*
X44843828Y3805354D01*
X44959524Y3964595D01*
X45048884Y4139975D01*
X45109709Y4327174D01*
X45129396Y4451474D01*
X45140500Y4521578D01*
X45140500Y4718423D01*
X45109709Y4912827D01*
X45048882Y5100030D01*
X44959523Y5275406D01*
X44843828Y5434646D01*
X44704646Y5573828D01*
X44551377Y5685185D01*
X44508714Y5740513D01*
X44502735Y5810127D01*
X44535341Y5871922D01*
X44596180Y5906279D01*
X44624264Y5909501D01*
X44771518Y5909501D01*
X44865304Y5924354D01*
X44978342Y5981950D01*
X45068050Y6071658D01*
X45125646Y6184696D01*
X45125646Y6184698D01*
X45125647Y6184699D01*
X45140499Y6278476D01*
X45140500Y6278481D01*
X45140499Y8041518D01*
X45125646Y8135304D01*
X45068050Y8248342D01*
X45068046Y8248346D01*
X45068045Y8248348D01*
X44978347Y8338046D01*
X44978344Y8338048D01*
X44978342Y8338050D01*
X44865304Y8395646D01*
X44865302Y8395647D01*
X44865301Y8395647D01*
X44789312Y8407683D01*
X44726178Y8437613D01*
X44689247Y8496924D01*
X44687094Y8505965D01*
X44678745Y8547938D01*
X44659737Y8643497D01*
X44645358Y8678211D01*
X44599397Y8789173D01*
X44599390Y8789186D01*
X44511790Y8920288D01*
X44511789Y8920289D01*
X44400289Y9031789D01*
X44147326Y9284752D01*
X43510292Y9921787D01*
X43510288Y9921790D01*
X43379185Y10009391D01*
X43379172Y10009398D01*
X43233501Y10069736D01*
X43233489Y10069739D01*
X43078845Y10100500D01*
X43078842Y10100500D01*
X29682940Y10100500D01*
X29615901Y10120185D01*
X29595259Y10136819D01*
X28336819Y11395259D01*
X28303334Y11456582D01*
X28300500Y11482940D01*
X28300500Y19517060D01*
X28320185Y19584099D01*
X28336819Y19604741D01*
X30221788Y21489710D01*
X30221790Y21489713D01*
X30260006Y21546906D01*
X30309394Y21620821D01*
X30309397Y21620828D01*
X30354410Y21729499D01*
X30354410Y21729500D01*
X30354647Y21730071D01*
X30369737Y21766502D01*
X30400500Y21921157D01*
X30400500Y22078842D01*
X30400500Y22078845D01*
X30400499Y22078847D01*
X30369738Y22233490D01*
X30369737Y22233497D01*
X30351152Y22278365D01*
X30330365Y22328548D01*
X30322897Y22398017D01*
X30354172Y22460496D01*
X30414261Y22496148D01*
X30444927Y22500000D01*
X33576000Y22500000D01*
X33643039Y22480315D01*
G37*
%TD.AperFunction*%
%TA.AperFunction,Conductor*%
G36*
X28735599Y22480315D02*
G01*
X28781354Y22427511D01*
X28791298Y22358353D01*
X28762273Y22294797D01*
X28756241Y22288319D01*
X26989711Y20521789D01*
X26941324Y20473402D01*
X26878209Y20410288D01*
X26790609Y20279186D01*
X26790602Y20279173D01*
X26730264Y20133502D01*
X26730261Y20133490D01*
X26699500Y19978847D01*
X26699500Y11021154D01*
X26730261Y10866511D01*
X26730264Y10866499D01*
X26790602Y10720828D01*
X26790609Y10720815D01*
X26878210Y10589712D01*
X26878213Y10589708D01*
X28678211Y8789711D01*
X28789711Y8678211D01*
X28789712Y8678210D01*
X28857761Y8632741D01*
X28902566Y8579129D01*
X28911273Y8509804D01*
X28881119Y8446776D01*
X28821676Y8410057D01*
X28769472Y8407166D01*
X28748422Y8410500D01*
X28748417Y8410500D01*
X28551583Y8410500D01*
X28551578Y8410500D01*
X28357173Y8379710D01*
X28169970Y8318883D01*
X27994594Y8229524D01*
X27903741Y8163515D01*
X27835354Y8113828D01*
X27835352Y8113826D01*
X27835351Y8113826D01*
X27696174Y7974649D01*
X27696174Y7974648D01*
X27696172Y7974646D01*
X27663495Y7929670D01*
X27580476Y7815406D01*
X27491117Y7640030D01*
X27430290Y7452827D01*
X27399500Y7258423D01*
X27399500Y7061578D01*
X27430290Y6867174D01*
X27491117Y6679971D01*
X27558894Y6546952D01*
X27580476Y6504595D01*
X27696172Y6345354D01*
X27835354Y6206172D01*
X27994595Y6090476D01*
X28117992Y6027603D01*
X28171213Y6000485D01*
X28222009Y5952511D01*
X28238804Y5884690D01*
X28216267Y5818555D01*
X28171213Y5779515D01*
X27994594Y5689524D01*
X27903741Y5623515D01*
X27835354Y5573828D01*
X27835352Y5573826D01*
X27835351Y5573826D01*
X27696174Y5434649D01*
X27696174Y5434648D01*
X27696172Y5434646D01*
X27646485Y5366259D01*
X27580476Y5275406D01*
X27491117Y5100030D01*
X27430290Y4912827D01*
X27399500Y4718423D01*
X27399500Y4521578D01*
X27430290Y4327174D01*
X27491117Y4139971D01*
X27580475Y3964597D01*
X27580476Y3964595D01*
X27696172Y3805354D01*
X27835354Y3666172D01*
X27994595Y3550476D01*
X28024998Y3534985D01*
X28075794Y3487010D01*
X28092589Y3419189D01*
X28070052Y3353054D01*
X28015336Y3309603D01*
X27968703Y3300500D01*
X24782940Y3300500D01*
X24715901Y3320185D01*
X24695259Y3336819D01*
X23036319Y4995759D01*
X23002834Y5057082D01*
X23000000Y5083440D01*
X23000000Y17000000D01*
X14124000Y17000000D01*
X14056961Y17019685D01*
X14011206Y17072489D01*
X14000000Y17124000D01*
X14000000Y22376000D01*
X14019685Y22443039D01*
X14072489Y22488794D01*
X14124000Y22500000D01*
X28668560Y22500000D01*
X28735599Y22480315D01*
G37*
%TD.AperFunction*%
%TD*%
M02*
