%TF.GenerationSoftware,KiCad,Pcbnew,9.0.9*%
%TF.CreationDate,2026-06-22T23:45:00+05:30*%
%TF.ProjectId,Open_STMPLC_EnergyMon_V0..1,4f70656e-5f53-4544-9d50-4c435f456e65,0.1*%
%TF.SameCoordinates,PX55d4a80PY8583b00*%
%TF.FileFunction,Drillmap*%
%TF.FilePolarity,Positive*%
%FSLAX45Y45*%
G04 Gerber Fmt 4.5, Leading zero omitted, Abs format (unit mm)*
G04 Created by KiCad (PCBNEW 9.0.9) date 2026-06-22 23:45:00*
%MOMM*%
%LPD*%
G01*
G04 APERTURE LIST*
%ADD10C,0.200000*%
%ADD11C,0.100000*%
%ADD12C,0.107500*%
%ADD13C,0.110000*%
%ADD14C,0.180000*%
G04 APERTURE END LIST*
D10*
X0Y8000000D02*
X7000000Y8000000D01*
X7000000Y0D01*
X0Y0D01*
X0Y8000000D01*
D11*
X805000Y3045000D02*
X835000Y3015000D01*
X835000Y3045000D02*
X805000Y3015000D01*
X1025000Y2695000D02*
X1055000Y2665000D01*
X1055000Y2695000D02*
X1025000Y2665000D01*
X1745000Y2575000D02*
X1775000Y2545000D01*
X1775000Y2575000D02*
X1745000Y2545000D01*
X1855000Y2520000D02*
X1885000Y2490000D01*
X1885000Y2520000D02*
X1855000Y2490000D01*
X2545000Y3075000D02*
X2575000Y3045000D01*
X2575000Y3075000D02*
X2545000Y3045000D01*
X2805000Y2775000D02*
X2835000Y2745000D01*
X2835000Y2775000D02*
X2805000Y2745000D01*
X2935000Y1965000D02*
X2965000Y1935000D01*
X2965000Y1965000D02*
X2935000Y1935000D01*
X2935000Y1865000D02*
X2965000Y1835000D01*
X2965000Y1865000D02*
X2935000Y1835000D01*
X2955000Y1715000D02*
X2985000Y1685000D01*
X2985000Y1715000D02*
X2955000Y1685000D01*
X3055000Y1185000D02*
X3085000Y1155000D01*
X3085000Y1185000D02*
X3055000Y1155000D01*
X3065000Y1505000D02*
X3095000Y1475000D01*
X3095000Y1505000D02*
X3065000Y1475000D01*
X3065000Y1415000D02*
X3095000Y1385000D01*
X3095000Y1415000D02*
X3065000Y1385000D01*
X3285000Y2055000D02*
X3315000Y2025000D01*
X3315000Y2055000D02*
X3285000Y2025000D01*
X3315000Y1185000D02*
X3345000Y1155000D01*
X3345000Y1185000D02*
X3315000Y1155000D01*
X3335000Y1415000D02*
X3365000Y1385000D01*
X3365000Y1415000D02*
X3335000Y1385000D01*
X3395000Y1975000D02*
X3425000Y1945000D01*
X3425000Y1975000D02*
X3395000Y1945000D01*
X3402300Y1465000D02*
X3432300Y1435000D01*
X3432300Y1465000D02*
X3402300Y1435000D01*
X3505000Y2305000D02*
X3535000Y2275000D01*
X3535000Y2305000D02*
X3505000Y2275000D01*
X3535000Y1415000D02*
X3565000Y1385000D01*
X3565000Y1415000D02*
X3535000Y1385000D01*
X3555000Y1185000D02*
X3585000Y1155000D01*
X3585000Y1185000D02*
X3555000Y1155000D01*
X3783750Y1654750D02*
X3813750Y1624750D01*
X3813750Y1654750D02*
X3783750Y1624750D01*
X3785000Y1405000D02*
X3815000Y1375000D01*
X3815000Y1405000D02*
X3785000Y1375000D01*
X3805000Y1175000D02*
X3835000Y1145000D01*
X3835000Y1175000D02*
X3805000Y1145000D01*
X3905000Y1765000D02*
X3935000Y1735000D01*
X3935000Y1765000D02*
X3905000Y1735000D01*
X3955000Y1835000D02*
X3985000Y1805000D01*
X3985000Y1835000D02*
X3955000Y1805000D01*
X3965000Y1695000D02*
X3995000Y1665000D01*
X3995000Y1695000D02*
X3965000Y1665000D01*
X4016458Y1890000D02*
X4046458Y1860000D01*
X4046458Y1890000D02*
X4016458Y1860000D01*
X4025000Y1405000D02*
X4055000Y1375000D01*
X4055000Y1405000D02*
X4025000Y1375000D01*
X4055000Y1965000D02*
X4085000Y1935000D01*
X4085000Y1965000D02*
X4055000Y1935000D01*
X4065000Y1175000D02*
X4095000Y1145000D01*
X4095000Y1175000D02*
X4065000Y1145000D01*
X4265000Y1185000D02*
X4295000Y1155000D01*
X4295000Y1185000D02*
X4265000Y1155000D01*
X4275000Y3055000D02*
X4305000Y3025000D01*
X4305000Y3055000D02*
X4275000Y3025000D01*
X4485000Y1365000D02*
X4515000Y1335000D01*
X4515000Y1365000D02*
X4485000Y1335000D01*
X4498750Y2925000D02*
X4528750Y2895000D01*
X4528750Y2925000D02*
X4498750Y2895000D01*
X4815000Y2265000D02*
X4845000Y2235000D01*
X4845000Y2265000D02*
X4815000Y2235000D01*
X5485000Y2295000D02*
X5515000Y2265000D01*
X5515000Y2295000D02*
X5485000Y2265000D01*
X5505000Y2160000D02*
X5535000Y2130000D01*
X5535000Y2160000D02*
X5505000Y2130000D01*
X5515000Y2025000D02*
X5545000Y1995000D01*
X5545000Y2025000D02*
X5515000Y1995000D01*
X5554038Y2594038D02*
X5584038Y2564038D01*
X5584038Y2594038D02*
X5554038Y2564038D01*
X5555000Y2255000D02*
X5585000Y2225000D01*
X5585000Y2255000D02*
X5555000Y2225000D01*
X5585000Y2075000D02*
X5615000Y2045000D01*
X5615000Y2075000D02*
X5585000Y2045000D01*
X5645000Y2605000D02*
X5675000Y2575000D01*
X5675000Y2605000D02*
X5645000Y2575000D01*
X5685000Y1720000D02*
X5715000Y1690000D01*
X5715000Y1720000D02*
X5685000Y1690000D01*
X5695000Y2295000D02*
X5725000Y2265000D01*
X5725000Y2295000D02*
X5695000Y2265000D01*
X5735000Y1915000D02*
X5765000Y1885000D01*
X5765000Y1915000D02*
X5735000Y1885000D01*
X5765000Y2255000D02*
X5795000Y2225000D01*
X5795000Y2255000D02*
X5765000Y2225000D01*
X5845000Y2295000D02*
X5875000Y2265000D01*
X5875000Y2295000D02*
X5845000Y2265000D01*
X5865000Y1985000D02*
X5895000Y1955000D01*
X5895000Y1985000D02*
X5865000Y1955000D01*
X5935000Y1875000D02*
X5965000Y1845000D01*
X5965000Y1875000D02*
X5935000Y1845000D01*
X5965000Y1785000D02*
X5995000Y1755000D01*
X5995000Y1785000D02*
X5965000Y1755000D01*
X6175000Y3075000D02*
X6205000Y3045000D01*
X6205000Y3075000D02*
X6175000Y3045000D01*
X6245000Y1745000D02*
X6275000Y1715000D01*
X6275000Y1745000D02*
X6245000Y1715000D01*
X420000Y1050000D02*
G75*
G02*
X380000Y1050000I-20000J0D01*
G01*
X380000Y1050000D02*
G75*
G02*
X420000Y1050000I20000J0D01*
G01*
X420000Y950000D02*
G75*
G02*
X380000Y950000I-20000J0D01*
G01*
X380000Y950000D02*
G75*
G02*
X420000Y950000I20000J0D01*
G01*
X470000Y1350000D02*
G75*
G02*
X430000Y1350000I-20000J0D01*
G01*
X430000Y1350000D02*
G75*
G02*
X470000Y1350000I20000J0D01*
G01*
X470000Y1250000D02*
G75*
G02*
X430000Y1250000I-20000J0D01*
G01*
X430000Y1250000D02*
G75*
G02*
X470000Y1250000I20000J0D01*
G01*
X540000Y3200000D02*
G75*
G02*
X500000Y3200000I-20000J0D01*
G01*
X500000Y3200000D02*
G75*
G02*
X540000Y3200000I20000J0D01*
G01*
X920000Y2140000D02*
G75*
G02*
X880000Y2140000I-20000J0D01*
G01*
X880000Y2140000D02*
G75*
G02*
X920000Y2140000I20000J0D01*
G01*
X970000Y3850000D02*
G75*
G02*
X930000Y3850000I-20000J0D01*
G01*
X930000Y3850000D02*
G75*
G02*
X970000Y3850000I20000J0D01*
G01*
X970000Y3550000D02*
G75*
G02*
X930000Y3550000I-20000J0D01*
G01*
X930000Y3550000D02*
G75*
G02*
X970000Y3550000I20000J0D01*
G01*
X1020000Y700000D02*
G75*
G02*
X980000Y700000I-20000J0D01*
G01*
X980000Y700000D02*
G75*
G02*
X1020000Y700000I20000J0D01*
G01*
X1120000Y800000D02*
G75*
G02*
X1080000Y800000I-20000J0D01*
G01*
X1080000Y800000D02*
G75*
G02*
X1120000Y800000I20000J0D01*
G01*
X1120000Y600000D02*
G75*
G02*
X1080000Y600000I-20000J0D01*
G01*
X1080000Y600000D02*
G75*
G02*
X1120000Y600000I20000J0D01*
G01*
X1220000Y700000D02*
G75*
G02*
X1180000Y700000I-20000J0D01*
G01*
X1180000Y700000D02*
G75*
G02*
X1220000Y700000I20000J0D01*
G01*
X1220000Y500000D02*
G75*
G02*
X1180000Y500000I-20000J0D01*
G01*
X1180000Y500000D02*
G75*
G02*
X1220000Y500000I20000J0D01*
G01*
X1350000Y3200000D02*
G75*
G02*
X1310000Y3200000I-20000J0D01*
G01*
X1310000Y3200000D02*
G75*
G02*
X1350000Y3200000I20000J0D01*
G01*
X2290000Y3200000D02*
G75*
G02*
X2250000Y3200000I-20000J0D01*
G01*
X2250000Y3200000D02*
G75*
G02*
X2290000Y3200000I20000J0D01*
G01*
X2520000Y1800000D02*
G75*
G02*
X2480000Y1800000I-20000J0D01*
G01*
X2480000Y1800000D02*
G75*
G02*
X2520000Y1800000I20000J0D01*
G01*
X2520000Y1600000D02*
G75*
G02*
X2480000Y1600000I-20000J0D01*
G01*
X2480000Y1600000D02*
G75*
G02*
X2520000Y1600000I20000J0D01*
G01*
X2620000Y1700000D02*
G75*
G02*
X2580000Y1700000I-20000J0D01*
G01*
X2580000Y1700000D02*
G75*
G02*
X2620000Y1700000I20000J0D01*
G01*
X2620000Y1500000D02*
G75*
G02*
X2580000Y1500000I-20000J0D01*
G01*
X2580000Y1500000D02*
G75*
G02*
X2620000Y1500000I20000J0D01*
G01*
X2720000Y3850000D02*
G75*
G02*
X2680000Y3850000I-20000J0D01*
G01*
X2680000Y3850000D02*
G75*
G02*
X2720000Y3850000I20000J0D01*
G01*
X2720000Y3550000D02*
G75*
G02*
X2680000Y3550000I-20000J0D01*
G01*
X2680000Y3550000D02*
G75*
G02*
X2720000Y3550000I20000J0D01*
G01*
X2910000Y1560000D02*
G75*
G02*
X2870000Y1560000I-20000J0D01*
G01*
X2870000Y1560000D02*
G75*
G02*
X2910000Y1560000I20000J0D01*
G01*
X2910000Y1460000D02*
G75*
G02*
X2870000Y1460000I-20000J0D01*
G01*
X2870000Y1460000D02*
G75*
G02*
X2910000Y1460000I20000J0D01*
G01*
X2980000Y2200000D02*
G75*
G02*
X2940000Y2200000I-20000J0D01*
G01*
X2940000Y2200000D02*
G75*
G02*
X2980000Y2200000I20000J0D01*
G01*
X3100000Y3200000D02*
G75*
G02*
X3060000Y3200000I-20000J0D01*
G01*
X3060000Y3200000D02*
G75*
G02*
X3100000Y3200000I20000J0D01*
G01*
X3870000Y2200000D02*
G75*
G02*
X3830000Y2200000I-20000J0D01*
G01*
X3830000Y2200000D02*
G75*
G02*
X3870000Y2200000I20000J0D01*
G01*
X3920000Y2080000D02*
G75*
G02*
X3880000Y2080000I-20000J0D01*
G01*
X3880000Y2080000D02*
G75*
G02*
X3920000Y2080000I20000J0D01*
G01*
X4010000Y3200000D02*
G75*
G02*
X3970000Y3200000I-20000J0D01*
G01*
X3970000Y3200000D02*
G75*
G02*
X4010000Y3200000I20000J0D01*
G01*
X4040000Y2080000D02*
G75*
G02*
X4000000Y2080000I-20000J0D01*
G01*
X4000000Y2080000D02*
G75*
G02*
X4040000Y2080000I20000J0D01*
G01*
X4310000Y2340000D02*
G75*
G02*
X4270000Y2340000I-20000J0D01*
G01*
X4270000Y2340000D02*
G75*
G02*
X4310000Y2340000I20000J0D01*
G01*
X4320000Y2050000D02*
G75*
G02*
X4280000Y2050000I-20000J0D01*
G01*
X4280000Y2050000D02*
G75*
G02*
X4320000Y2050000I20000J0D01*
G01*
X4420000Y3850000D02*
G75*
G02*
X4380000Y3850000I-20000J0D01*
G01*
X4380000Y3850000D02*
G75*
G02*
X4420000Y3850000I20000J0D01*
G01*
X4420000Y3550000D02*
G75*
G02*
X4380000Y3550000I-20000J0D01*
G01*
X4380000Y3550000D02*
G75*
G02*
X4420000Y3550000I20000J0D01*
G01*
X4720000Y2400000D02*
G75*
G02*
X4680000Y2400000I-20000J0D01*
G01*
X4680000Y2400000D02*
G75*
G02*
X4720000Y2400000I20000J0D01*
G01*
X4830000Y3200000D02*
G75*
G02*
X4790000Y3200000I-20000J0D01*
G01*
X4790000Y3200000D02*
G75*
G02*
X4830000Y3200000I20000J0D01*
G01*
X4920000Y2400000D02*
G75*
G02*
X4880000Y2400000I-20000J0D01*
G01*
X4880000Y2400000D02*
G75*
G02*
X4920000Y2400000I20000J0D01*
G01*
X4920000Y800000D02*
G75*
G02*
X4880000Y800000I-20000J0D01*
G01*
X4880000Y800000D02*
G75*
G02*
X4920000Y800000I20000J0D01*
G01*
X4920000Y600000D02*
G75*
G02*
X4880000Y600000I-20000J0D01*
G01*
X4880000Y600000D02*
G75*
G02*
X4920000Y600000I20000J0D01*
G01*
X4920000Y400000D02*
G75*
G02*
X4880000Y400000I-20000J0D01*
G01*
X4880000Y400000D02*
G75*
G02*
X4920000Y400000I20000J0D01*
G01*
X5020000Y700000D02*
G75*
G02*
X4980000Y700000I-20000J0D01*
G01*
X4980000Y700000D02*
G75*
G02*
X5020000Y700000I20000J0D01*
G01*
X5020000Y500000D02*
G75*
G02*
X4980000Y500000I-20000J0D01*
G01*
X4980000Y500000D02*
G75*
G02*
X5020000Y500000I20000J0D01*
G01*
X5120000Y800000D02*
G75*
G02*
X5080000Y800000I-20000J0D01*
G01*
X5080000Y800000D02*
G75*
G02*
X5120000Y800000I20000J0D01*
G01*
X5120000Y600000D02*
G75*
G02*
X5080000Y600000I-20000J0D01*
G01*
X5080000Y600000D02*
G75*
G02*
X5120000Y600000I20000J0D01*
G01*
X5120000Y400000D02*
G75*
G02*
X5080000Y400000I-20000J0D01*
G01*
X5080000Y400000D02*
G75*
G02*
X5120000Y400000I20000J0D01*
G01*
X5320000Y3100000D02*
G75*
G02*
X5280000Y3100000I-20000J0D01*
G01*
X5280000Y3100000D02*
G75*
G02*
X5320000Y3100000I20000J0D01*
G01*
X5320000Y2400000D02*
G75*
G02*
X5280000Y2400000I-20000J0D01*
G01*
X5280000Y2400000D02*
G75*
G02*
X5320000Y2400000I20000J0D01*
G01*
X5420000Y3200000D02*
G75*
G02*
X5380000Y3200000I-20000J0D01*
G01*
X5380000Y3200000D02*
G75*
G02*
X5420000Y3200000I20000J0D01*
G01*
X5520000Y3300000D02*
G75*
G02*
X5480000Y3300000I-20000J0D01*
G01*
X5480000Y3300000D02*
G75*
G02*
X5520000Y3300000I20000J0D01*
G01*
X5520000Y3100000D02*
G75*
G02*
X5480000Y3100000I-20000J0D01*
G01*
X5480000Y3100000D02*
G75*
G02*
X5520000Y3100000I20000J0D01*
G01*
X5620000Y3200000D02*
G75*
G02*
X5580000Y3200000I-20000J0D01*
G01*
X5580000Y3200000D02*
G75*
G02*
X5620000Y3200000I20000J0D01*
G01*
X5720000Y3100000D02*
G75*
G02*
X5680000Y3100000I-20000J0D01*
G01*
X5680000Y3100000D02*
G75*
G02*
X5720000Y3100000I20000J0D01*
G01*
X5780000Y2060000D02*
G75*
G02*
X5740000Y2060000I-20000J0D01*
G01*
X5740000Y2060000D02*
G75*
G02*
X5780000Y2060000I20000J0D01*
G01*
X5820000Y1340000D02*
G75*
G02*
X5780000Y1340000I-20000J0D01*
G01*
X5780000Y1340000D02*
G75*
G02*
X5820000Y1340000I20000J0D01*
G01*
X5970000Y2100000D02*
G75*
G02*
X5930000Y2100000I-20000J0D01*
G01*
X5930000Y2100000D02*
G75*
G02*
X5970000Y2100000I20000J0D01*
G01*
X6060000Y1430000D02*
G75*
G02*
X6020000Y1430000I-20000J0D01*
G01*
X6020000Y1430000D02*
G75*
G02*
X6060000Y1430000I20000J0D01*
G01*
X6120000Y3850000D02*
G75*
G02*
X6080000Y3850000I-20000J0D01*
G01*
X6080000Y3850000D02*
G75*
G02*
X6120000Y3850000I20000J0D01*
G01*
X6120000Y3550000D02*
G75*
G02*
X6080000Y3550000I-20000J0D01*
G01*
X6080000Y3550000D02*
G75*
G02*
X6120000Y3550000I20000J0D01*
G01*
X6170000Y2850000D02*
G75*
G02*
X6130000Y2850000I-20000J0D01*
G01*
X6130000Y2850000D02*
G75*
G02*
X6170000Y2850000I20000J0D01*
G01*
X6410000Y3090000D02*
G75*
G02*
X6370000Y3090000I-20000J0D01*
G01*
X6370000Y3090000D02*
G75*
G02*
X6410000Y3090000I20000J0D01*
G01*
X6530000Y3200000D02*
G75*
G02*
X6490000Y3200000I-20000J0D01*
G01*
X6490000Y3200000D02*
G75*
G02*
X6530000Y3200000I20000J0D01*
G01*
X6530000Y2250000D02*
G75*
G02*
X6490000Y2250000I-20000J0D01*
G01*
X6490000Y2250000D02*
G75*
G02*
X6530000Y2250000I20000J0D01*
G01*
X6530000Y2060000D02*
G75*
G02*
X6490000Y2060000I-20000J0D01*
G01*
X6490000Y2060000D02*
G75*
G02*
X6530000Y2060000I20000J0D01*
G01*
X6550000Y1470000D02*
G75*
G02*
X6510000Y1470000I-20000J0D01*
G01*
X6510000Y1470000D02*
G75*
G02*
X6550000Y1470000I20000J0D01*
G01*
X6560000Y1060000D02*
G75*
G02*
X6520000Y1060000I-20000J0D01*
G01*
X6520000Y1060000D02*
G75*
G02*
X6560000Y1060000I20000J0D01*
G01*
X6680000Y1060000D02*
G75*
G02*
X6640000Y1060000I-20000J0D01*
G01*
X6640000Y1060000D02*
G75*
G02*
X6680000Y1060000I20000J0D01*
G01*
X6780000Y1450000D02*
G75*
G02*
X6740000Y1450000I-20000J0D01*
G01*
X6740000Y1450000D02*
G75*
G02*
X6780000Y1450000I20000J0D01*
G01*
X283347Y4250739D02*
X283347Y4150739D01*
X233347Y4200739D02*
X333347Y4200739D01*
X1563347Y4250739D02*
X1563347Y4150739D01*
X1513347Y4200739D02*
X1613347Y4200739D01*
X2008347Y4250739D02*
X2008347Y4150739D01*
X1958347Y4200739D02*
X2058347Y4200739D01*
X2611000Y766000D02*
X2611000Y666000D01*
X2561000Y716000D02*
X2661000Y716000D01*
X2611000Y512000D02*
X2611000Y412000D01*
X2561000Y462000D02*
X2661000Y462000D01*
X2865000Y766000D02*
X2865000Y666000D01*
X2815000Y716000D02*
X2915000Y716000D01*
X2865000Y512000D02*
X2865000Y412000D01*
X2815000Y462000D02*
X2915000Y462000D01*
X3119000Y766000D02*
X3119000Y666000D01*
X3069000Y716000D02*
X3169000Y716000D01*
X3119000Y512000D02*
X3119000Y412000D01*
X3069000Y462000D02*
X3169000Y462000D01*
X3288347Y4250739D02*
X3288347Y4150739D01*
X3238347Y4200739D02*
X3338347Y4200739D01*
X3373000Y766000D02*
X3373000Y666000D01*
X3323000Y716000D02*
X3423000Y716000D01*
X3373000Y512000D02*
X3373000Y412000D01*
X3323000Y462000D02*
X3423000Y462000D01*
X3627000Y766000D02*
X3627000Y666000D01*
X3577000Y716000D02*
X3677000Y716000D01*
X3627000Y512000D02*
X3627000Y412000D01*
X3577000Y462000D02*
X3677000Y462000D01*
X3733347Y4250739D02*
X3733347Y4150739D01*
X3683347Y4200739D02*
X3783347Y4200739D01*
X3881000Y766000D02*
X3881000Y666000D01*
X3831000Y716000D02*
X3931000Y716000D01*
X3881000Y512000D02*
X3881000Y412000D01*
X3831000Y462000D02*
X3931000Y462000D01*
X4135000Y766000D02*
X4135000Y666000D01*
X4085000Y716000D02*
X4185000Y716000D01*
X4135000Y512000D02*
X4135000Y412000D01*
X4085000Y462000D02*
X4185000Y462000D01*
X4389000Y766000D02*
X4389000Y666000D01*
X4339000Y716000D02*
X4439000Y716000D01*
X4389000Y512000D02*
X4389000Y412000D01*
X4339000Y462000D02*
X4439000Y462000D01*
X5013347Y4250739D02*
X5013347Y4150739D01*
X4963347Y4200739D02*
X5063347Y4200739D01*
X5458347Y4250739D02*
X5458347Y4150739D01*
X5408347Y4200739D02*
X5508347Y4200739D01*
X6738347Y4250739D02*
X6738347Y4150739D01*
X6688347Y4200739D02*
X6788347Y4200739D01*
D12*
X1838007Y1422743D02*
X1838007Y1498757D01*
X1761993Y1498757D01*
X1761993Y1422743D01*
X1838007Y1422743D01*
X1838007Y1168743D02*
X1838007Y1244757D01*
X1761993Y1244757D01*
X1761993Y1168743D01*
X1838007Y1168743D01*
X1838007Y914743D02*
X1838007Y990757D01*
X1761993Y990757D01*
X1761993Y914743D01*
X1838007Y914743D01*
X1838007Y660743D02*
X1838007Y736757D01*
X1761993Y736757D01*
X1761993Y660743D01*
X1838007Y660743D01*
D13*
X2167000Y7486750D02*
X2222000Y7541750D01*
X2167000Y7596750D01*
X2112000Y7541750D01*
X2167000Y7486750D01*
X2548000Y7486750D02*
X2603000Y7541750D01*
X2548000Y7596750D01*
X2493000Y7541750D01*
X2548000Y7486750D01*
X2929000Y7486750D02*
X2984000Y7541750D01*
X2929000Y7596750D01*
X2874000Y7541750D01*
X2929000Y7486750D01*
X3310000Y7486750D02*
X3365000Y7541750D01*
X3310000Y7596750D01*
X3255000Y7541750D01*
X3310000Y7486750D01*
X3691000Y7486750D02*
X3746000Y7541750D01*
X3691000Y7596750D01*
X3636000Y7541750D01*
X3691000Y7486750D01*
X4072000Y7486750D02*
X4127000Y7541750D01*
X4072000Y7596750D01*
X4017000Y7541750D01*
X4072000Y7486750D01*
X4453000Y7486750D02*
X4508000Y7541750D01*
X4453000Y7596750D01*
X4398000Y7541750D01*
X4453000Y7486750D01*
X4834000Y7486750D02*
X4889000Y7541750D01*
X4834000Y7596750D01*
X4779000Y7541750D01*
X4834000Y7486750D01*
D14*
X833347Y5985739D02*
X1013347Y5805739D01*
X1013347Y5985739D02*
X833347Y5805739D01*
X1013347Y5895739D02*
G75*
G02*
X833347Y5895739I-90000J0D01*
G01*
X833347Y5895739D02*
G75*
G02*
X1013347Y5895739I90000J0D01*
G01*
D11*
X753347Y5805739D02*
X1093347Y5805739D01*
X1093347Y5985739D02*
G75*
G02*
X1093347Y5805739I0J-90000D01*
G01*
X1093347Y5985739D02*
X753347Y5985739D01*
X753347Y5985739D02*
G75*
G03*
X753347Y5805739I0J-90000D01*
G01*
D14*
X833347Y5040739D02*
X1013347Y4860739D01*
X1013347Y5040739D02*
X833347Y4860739D01*
X1013347Y4950739D02*
G75*
G02*
X833347Y4950739I-90000J0D01*
G01*
X833347Y4950739D02*
G75*
G02*
X1013347Y4950739I90000J0D01*
G01*
D11*
X753347Y4860739D02*
X1093347Y4860739D01*
X1093347Y5040739D02*
G75*
G02*
X1093347Y4860739I0J-90000D01*
G01*
X1093347Y5040739D02*
X753347Y5040739D01*
X753347Y5040739D02*
G75*
G03*
X753347Y4860739I0J-90000D01*
G01*
D14*
X2558347Y5985739D02*
X2738347Y5805739D01*
X2738347Y5985739D02*
X2558347Y5805739D01*
X2738347Y5895739D02*
G75*
G02*
X2558347Y5895739I-90000J0D01*
G01*
X2558347Y5895739D02*
G75*
G02*
X2738347Y5895739I90000J0D01*
G01*
D11*
X2478347Y5805739D02*
X2818347Y5805739D01*
X2818347Y5985739D02*
G75*
G02*
X2818347Y5805739I0J-90000D01*
G01*
X2818347Y5985739D02*
X2478347Y5985739D01*
X2478347Y5985739D02*
G75*
G03*
X2478347Y5805739I0J-90000D01*
G01*
D14*
X2558347Y5040739D02*
X2738347Y4860739D01*
X2738347Y5040739D02*
X2558347Y4860739D01*
X2738347Y4950739D02*
G75*
G02*
X2558347Y4950739I-90000J0D01*
G01*
X2558347Y4950739D02*
G75*
G02*
X2738347Y4950739I90000J0D01*
G01*
D11*
X2478347Y4860739D02*
X2818347Y4860739D01*
X2818347Y5040739D02*
G75*
G02*
X2818347Y4860739I0J-90000D01*
G01*
X2818347Y5040739D02*
X2478347Y5040739D01*
X2478347Y5040739D02*
G75*
G03*
X2478347Y4860739I0J-90000D01*
G01*
D14*
X4283347Y5985739D02*
X4463347Y5805739D01*
X4463347Y5985739D02*
X4283347Y5805739D01*
X4463347Y5895739D02*
G75*
G02*
X4283347Y5895739I-90000J0D01*
G01*
X4283347Y5895739D02*
G75*
G02*
X4463347Y5895739I90000J0D01*
G01*
D11*
X4203347Y5805739D02*
X4543347Y5805739D01*
X4543347Y5985739D02*
G75*
G02*
X4543347Y5805739I0J-90000D01*
G01*
X4543347Y5985739D02*
X4203347Y5985739D01*
X4203347Y5985739D02*
G75*
G03*
X4203347Y5805739I0J-90000D01*
G01*
D14*
X4283347Y5040739D02*
X4463347Y4860739D01*
X4463347Y5040739D02*
X4283347Y4860739D01*
X4463347Y4950739D02*
G75*
G02*
X4283347Y4950739I-90000J0D01*
G01*
X4283347Y4950739D02*
G75*
G02*
X4463347Y4950739I90000J0D01*
G01*
D11*
X4203347Y4860739D02*
X4543347Y4860739D01*
X4543347Y5040739D02*
G75*
G02*
X4543347Y4860739I0J-90000D01*
G01*
X4543347Y5040739D02*
X4203347Y5040739D01*
X4203347Y5040739D02*
G75*
G03*
X4203347Y4860739I0J-90000D01*
G01*
D14*
X6008347Y5985739D02*
X6188347Y5805739D01*
X6188347Y5985739D02*
X6008347Y5805739D01*
X6188347Y5895739D02*
G75*
G02*
X6008347Y5895739I-90000J0D01*
G01*
X6008347Y5895739D02*
G75*
G02*
X6188347Y5895739I90000J0D01*
G01*
D11*
X5928347Y5805739D02*
X6268347Y5805739D01*
X6268347Y5985739D02*
G75*
G02*
X6268347Y5805739I0J-90000D01*
G01*
X6268347Y5985739D02*
X5928347Y5985739D01*
X5928347Y5985739D02*
G75*
G03*
X5928347Y5805739I0J-90000D01*
G01*
D14*
X6008347Y5040739D02*
X6188347Y4860739D01*
X6188347Y5040739D02*
X6008347Y4860739D01*
X6188347Y4950739D02*
G75*
G02*
X6008347Y4950739I-90000J0D01*
G01*
X6008347Y4950739D02*
G75*
G02*
X6188347Y4950739I90000J0D01*
G01*
D11*
X5928347Y4860739D02*
X6268347Y4860739D01*
X6268347Y5040739D02*
G75*
G02*
X6268347Y4860739I0J-90000D01*
G01*
X6268347Y5040739D02*
X5928347Y5040739D01*
X5928347Y5040739D02*
G75*
G03*
X5928347Y4860739I0J-90000D01*
G01*
D10*
X250777Y-321484D02*
X250777Y-121484D01*
X250777Y-121484D02*
X298396Y-121484D01*
X298396Y-121484D02*
X326967Y-131008D01*
X326967Y-131008D02*
X346015Y-150055D01*
X346015Y-150055D02*
X355539Y-169103D01*
X355539Y-169103D02*
X365062Y-207198D01*
X365062Y-207198D02*
X365062Y-235769D01*
X365062Y-235769D02*
X355539Y-273865D01*
X355539Y-273865D02*
X346015Y-292912D01*
X346015Y-292912D02*
X326967Y-311960D01*
X326967Y-311960D02*
X298396Y-321484D01*
X298396Y-321484D02*
X250777Y-321484D01*
X450777Y-321484D02*
X450777Y-188150D01*
X450777Y-226246D02*
X460301Y-207198D01*
X460301Y-207198D02*
X469824Y-197674D01*
X469824Y-197674D02*
X488872Y-188150D01*
X488872Y-188150D02*
X507920Y-188150D01*
X574586Y-321484D02*
X574586Y-188150D01*
X574586Y-121484D02*
X565063Y-131008D01*
X565063Y-131008D02*
X574586Y-140531D01*
X574586Y-140531D02*
X584110Y-131008D01*
X584110Y-131008D02*
X574586Y-121484D01*
X574586Y-121484D02*
X574586Y-140531D01*
X698396Y-321484D02*
X679348Y-311960D01*
X679348Y-311960D02*
X669824Y-292912D01*
X669824Y-292912D02*
X669824Y-121484D01*
X803158Y-321484D02*
X784110Y-311960D01*
X784110Y-311960D02*
X774586Y-292912D01*
X774586Y-292912D02*
X774586Y-121484D01*
X1031729Y-321484D02*
X1031729Y-121484D01*
X1031729Y-121484D02*
X1098396Y-264341D01*
X1098396Y-264341D02*
X1165063Y-121484D01*
X1165063Y-121484D02*
X1165063Y-321484D01*
X1346015Y-321484D02*
X1346015Y-216722D01*
X1346015Y-216722D02*
X1336491Y-197674D01*
X1336491Y-197674D02*
X1317444Y-188150D01*
X1317444Y-188150D02*
X1279348Y-188150D01*
X1279348Y-188150D02*
X1260301Y-197674D01*
X1346015Y-311960D02*
X1326967Y-321484D01*
X1326967Y-321484D02*
X1279348Y-321484D01*
X1279348Y-321484D02*
X1260301Y-311960D01*
X1260301Y-311960D02*
X1250777Y-292912D01*
X1250777Y-292912D02*
X1250777Y-273865D01*
X1250777Y-273865D02*
X1260301Y-254817D01*
X1260301Y-254817D02*
X1279348Y-245293D01*
X1279348Y-245293D02*
X1326967Y-245293D01*
X1326967Y-245293D02*
X1346015Y-235769D01*
X1441253Y-188150D02*
X1441253Y-388150D01*
X1441253Y-197674D02*
X1460301Y-188150D01*
X1460301Y-188150D02*
X1498396Y-188150D01*
X1498396Y-188150D02*
X1517443Y-197674D01*
X1517443Y-197674D02*
X1526967Y-207198D01*
X1526967Y-207198D02*
X1536491Y-226246D01*
X1536491Y-226246D02*
X1536491Y-283389D01*
X1536491Y-283389D02*
X1526967Y-302436D01*
X1526967Y-302436D02*
X1517443Y-311960D01*
X1517443Y-311960D02*
X1498396Y-321484D01*
X1498396Y-321484D02*
X1460301Y-321484D01*
X1460301Y-321484D02*
X1441253Y-311960D01*
X1622205Y-302436D02*
X1631729Y-311960D01*
X1631729Y-311960D02*
X1622205Y-321484D01*
X1622205Y-321484D02*
X1612682Y-311960D01*
X1612682Y-311960D02*
X1622205Y-302436D01*
X1622205Y-302436D02*
X1622205Y-321484D01*
X1622205Y-197674D02*
X1631729Y-207198D01*
X1631729Y-207198D02*
X1622205Y-216722D01*
X1622205Y-216722D02*
X1612682Y-207198D01*
X1612682Y-207198D02*
X1622205Y-197674D01*
X1622205Y-197674D02*
X1622205Y-216722D01*
D11*
X-40000Y-635000D02*
X-10000Y-665000D01*
X-10000Y-635000D02*
X-40000Y-665000D01*
D10*
X288872Y-541484D02*
X307920Y-541484D01*
X307920Y-541484D02*
X326967Y-551008D01*
X326967Y-551008D02*
X336491Y-560531D01*
X336491Y-560531D02*
X346015Y-579579D01*
X346015Y-579579D02*
X355539Y-617674D01*
X355539Y-617674D02*
X355539Y-665293D01*
X355539Y-665293D02*
X346015Y-703388D01*
X346015Y-703388D02*
X336491Y-722436D01*
X336491Y-722436D02*
X326967Y-731960D01*
X326967Y-731960D02*
X307920Y-741484D01*
X307920Y-741484D02*
X288872Y-741484D01*
X288872Y-741484D02*
X269824Y-731960D01*
X269824Y-731960D02*
X260301Y-722436D01*
X260301Y-722436D02*
X250777Y-703388D01*
X250777Y-703388D02*
X241253Y-665293D01*
X241253Y-665293D02*
X241253Y-617674D01*
X241253Y-617674D02*
X250777Y-579579D01*
X250777Y-579579D02*
X260301Y-560531D01*
X260301Y-560531D02*
X269824Y-551008D01*
X269824Y-551008D02*
X288872Y-541484D01*
X441253Y-722436D02*
X450777Y-731960D01*
X450777Y-731960D02*
X441253Y-741484D01*
X441253Y-741484D02*
X431729Y-731960D01*
X431729Y-731960D02*
X441253Y-722436D01*
X441253Y-722436D02*
X441253Y-741484D01*
X517443Y-541484D02*
X641253Y-541484D01*
X641253Y-541484D02*
X574586Y-617674D01*
X574586Y-617674D02*
X603158Y-617674D01*
X603158Y-617674D02*
X622205Y-627198D01*
X622205Y-627198D02*
X631729Y-636722D01*
X631729Y-636722D02*
X641253Y-655770D01*
X641253Y-655770D02*
X641253Y-703388D01*
X641253Y-703388D02*
X631729Y-722436D01*
X631729Y-722436D02*
X622205Y-731960D01*
X622205Y-731960D02*
X603158Y-741484D01*
X603158Y-741484D02*
X546015Y-741484D01*
X546015Y-741484D02*
X526967Y-731960D01*
X526967Y-731960D02*
X517443Y-722436D01*
X765062Y-541484D02*
X784110Y-541484D01*
X784110Y-541484D02*
X803158Y-551008D01*
X803158Y-551008D02*
X812682Y-560531D01*
X812682Y-560531D02*
X822205Y-579579D01*
X822205Y-579579D02*
X831729Y-617674D01*
X831729Y-617674D02*
X831729Y-665293D01*
X831729Y-665293D02*
X822205Y-703388D01*
X822205Y-703388D02*
X812682Y-722436D01*
X812682Y-722436D02*
X803158Y-731960D01*
X803158Y-731960D02*
X784110Y-741484D01*
X784110Y-741484D02*
X765062Y-741484D01*
X765062Y-741484D02*
X746015Y-731960D01*
X746015Y-731960D02*
X736491Y-722436D01*
X736491Y-722436D02*
X726967Y-703388D01*
X726967Y-703388D02*
X717443Y-665293D01*
X717443Y-665293D02*
X717443Y-617674D01*
X717443Y-617674D02*
X726967Y-579579D01*
X726967Y-579579D02*
X736491Y-560531D01*
X736491Y-560531D02*
X746015Y-551008D01*
X746015Y-551008D02*
X765062Y-541484D01*
X955539Y-541484D02*
X974586Y-541484D01*
X974586Y-541484D02*
X993634Y-551008D01*
X993634Y-551008D02*
X1003158Y-560531D01*
X1003158Y-560531D02*
X1012682Y-579579D01*
X1012682Y-579579D02*
X1022205Y-617674D01*
X1022205Y-617674D02*
X1022205Y-665293D01*
X1022205Y-665293D02*
X1012682Y-703388D01*
X1012682Y-703388D02*
X1003158Y-722436D01*
X1003158Y-722436D02*
X993634Y-731960D01*
X993634Y-731960D02*
X974586Y-741484D01*
X974586Y-741484D02*
X955539Y-741484D01*
X955539Y-741484D02*
X936491Y-731960D01*
X936491Y-731960D02*
X926967Y-722436D01*
X926967Y-722436D02*
X917443Y-703388D01*
X917443Y-703388D02*
X907920Y-665293D01*
X907920Y-665293D02*
X907920Y-617674D01*
X907920Y-617674D02*
X917443Y-579579D01*
X917443Y-579579D02*
X926967Y-560531D01*
X926967Y-560531D02*
X936491Y-551008D01*
X936491Y-551008D02*
X955539Y-541484D01*
X1107920Y-741484D02*
X1107920Y-608150D01*
X1107920Y-627198D02*
X1117444Y-617674D01*
X1117444Y-617674D02*
X1136491Y-608150D01*
X1136491Y-608150D02*
X1165063Y-608150D01*
X1165063Y-608150D02*
X1184110Y-617674D01*
X1184110Y-617674D02*
X1193634Y-636722D01*
X1193634Y-636722D02*
X1193634Y-741484D01*
X1193634Y-636722D02*
X1203158Y-617674D01*
X1203158Y-617674D02*
X1222205Y-608150D01*
X1222205Y-608150D02*
X1250777Y-608150D01*
X1250777Y-608150D02*
X1269825Y-617674D01*
X1269825Y-617674D02*
X1279348Y-636722D01*
X1279348Y-636722D02*
X1279348Y-741484D01*
X1374586Y-741484D02*
X1374586Y-608150D01*
X1374586Y-627198D02*
X1384110Y-617674D01*
X1384110Y-617674D02*
X1403158Y-608150D01*
X1403158Y-608150D02*
X1431729Y-608150D01*
X1431729Y-608150D02*
X1450777Y-617674D01*
X1450777Y-617674D02*
X1460301Y-636722D01*
X1460301Y-636722D02*
X1460301Y-741484D01*
X1460301Y-636722D02*
X1469824Y-617674D01*
X1469824Y-617674D02*
X1488872Y-608150D01*
X1488872Y-608150D02*
X1517443Y-608150D01*
X1517443Y-608150D02*
X1536491Y-617674D01*
X1536491Y-617674D02*
X1546015Y-636722D01*
X1546015Y-636722D02*
X1546015Y-741484D01*
X1936491Y-531960D02*
X1765063Y-789103D01*
X2193634Y-541484D02*
X2212682Y-541484D01*
X2212682Y-541484D02*
X2231729Y-551008D01*
X2231729Y-551008D02*
X2241253Y-560531D01*
X2241253Y-560531D02*
X2250777Y-579579D01*
X2250777Y-579579D02*
X2260301Y-617674D01*
X2260301Y-617674D02*
X2260301Y-665293D01*
X2260301Y-665293D02*
X2250777Y-703388D01*
X2250777Y-703388D02*
X2241253Y-722436D01*
X2241253Y-722436D02*
X2231729Y-731960D01*
X2231729Y-731960D02*
X2212682Y-741484D01*
X2212682Y-741484D02*
X2193634Y-741484D01*
X2193634Y-741484D02*
X2174587Y-731960D01*
X2174587Y-731960D02*
X2165063Y-722436D01*
X2165063Y-722436D02*
X2155539Y-703388D01*
X2155539Y-703388D02*
X2146015Y-665293D01*
X2146015Y-665293D02*
X2146015Y-617674D01*
X2146015Y-617674D02*
X2155539Y-579579D01*
X2155539Y-579579D02*
X2165063Y-560531D01*
X2165063Y-560531D02*
X2174587Y-551008D01*
X2174587Y-551008D02*
X2193634Y-541484D01*
X2346015Y-722436D02*
X2355539Y-731960D01*
X2355539Y-731960D02*
X2346015Y-741484D01*
X2346015Y-741484D02*
X2336491Y-731960D01*
X2336491Y-731960D02*
X2346015Y-722436D01*
X2346015Y-722436D02*
X2346015Y-741484D01*
X2479348Y-541484D02*
X2498396Y-541484D01*
X2498396Y-541484D02*
X2517444Y-551008D01*
X2517444Y-551008D02*
X2526968Y-560531D01*
X2526968Y-560531D02*
X2536491Y-579579D01*
X2536491Y-579579D02*
X2546015Y-617674D01*
X2546015Y-617674D02*
X2546015Y-665293D01*
X2546015Y-665293D02*
X2536491Y-703388D01*
X2536491Y-703388D02*
X2526968Y-722436D01*
X2526968Y-722436D02*
X2517444Y-731960D01*
X2517444Y-731960D02*
X2498396Y-741484D01*
X2498396Y-741484D02*
X2479348Y-741484D01*
X2479348Y-741484D02*
X2460301Y-731960D01*
X2460301Y-731960D02*
X2450777Y-722436D01*
X2450777Y-722436D02*
X2441253Y-703388D01*
X2441253Y-703388D02*
X2431729Y-665293D01*
X2431729Y-665293D02*
X2431729Y-617674D01*
X2431729Y-617674D02*
X2441253Y-579579D01*
X2441253Y-579579D02*
X2450777Y-560531D01*
X2450777Y-560531D02*
X2460301Y-551008D01*
X2460301Y-551008D02*
X2479348Y-541484D01*
X2736491Y-741484D02*
X2622206Y-741484D01*
X2679348Y-741484D02*
X2679348Y-541484D01*
X2679348Y-541484D02*
X2660301Y-570055D01*
X2660301Y-570055D02*
X2641253Y-589103D01*
X2641253Y-589103D02*
X2622206Y-598627D01*
X2926967Y-741484D02*
X2812682Y-741484D01*
X2869825Y-741484D02*
X2869825Y-541484D01*
X2869825Y-541484D02*
X2850777Y-570055D01*
X2850777Y-570055D02*
X2831729Y-589103D01*
X2831729Y-589103D02*
X2812682Y-598627D01*
X3041253Y-627198D02*
X3022206Y-617674D01*
X3022206Y-617674D02*
X3012682Y-608150D01*
X3012682Y-608150D02*
X3003158Y-589103D01*
X3003158Y-589103D02*
X3003158Y-579579D01*
X3003158Y-579579D02*
X3012682Y-560531D01*
X3012682Y-560531D02*
X3022206Y-551008D01*
X3022206Y-551008D02*
X3041253Y-541484D01*
X3041253Y-541484D02*
X3079348Y-541484D01*
X3079348Y-541484D02*
X3098396Y-551008D01*
X3098396Y-551008D02*
X3107920Y-560531D01*
X3107920Y-560531D02*
X3117444Y-579579D01*
X3117444Y-579579D02*
X3117444Y-589103D01*
X3117444Y-589103D02*
X3107920Y-608150D01*
X3107920Y-608150D02*
X3098396Y-617674D01*
X3098396Y-617674D02*
X3079348Y-627198D01*
X3079348Y-627198D02*
X3041253Y-627198D01*
X3041253Y-627198D02*
X3022206Y-636722D01*
X3022206Y-636722D02*
X3012682Y-646246D01*
X3012682Y-646246D02*
X3003158Y-665293D01*
X3003158Y-665293D02*
X3003158Y-703388D01*
X3003158Y-703388D02*
X3012682Y-722436D01*
X3012682Y-722436D02*
X3022206Y-731960D01*
X3022206Y-731960D02*
X3041253Y-741484D01*
X3041253Y-741484D02*
X3079348Y-741484D01*
X3079348Y-741484D02*
X3098396Y-731960D01*
X3098396Y-731960D02*
X3107920Y-722436D01*
X3107920Y-722436D02*
X3117444Y-703388D01*
X3117444Y-703388D02*
X3117444Y-665293D01*
X3117444Y-665293D02*
X3107920Y-646246D01*
X3107920Y-646246D02*
X3098396Y-636722D01*
X3098396Y-636722D02*
X3079348Y-627198D01*
X3193634Y-541484D02*
X3193634Y-579579D01*
X3269825Y-541484D02*
X3269825Y-579579D01*
X3565063Y-817674D02*
X3555539Y-808150D01*
X3555539Y-808150D02*
X3536491Y-779579D01*
X3536491Y-779579D02*
X3526968Y-760531D01*
X3526968Y-760531D02*
X3517444Y-731960D01*
X3517444Y-731960D02*
X3507920Y-684341D01*
X3507920Y-684341D02*
X3507920Y-646246D01*
X3507920Y-646246D02*
X3517444Y-598627D01*
X3517444Y-598627D02*
X3526968Y-570055D01*
X3526968Y-570055D02*
X3536491Y-551008D01*
X3536491Y-551008D02*
X3555539Y-522436D01*
X3555539Y-522436D02*
X3565063Y-512912D01*
X3736491Y-541484D02*
X3641253Y-541484D01*
X3641253Y-541484D02*
X3631729Y-636722D01*
X3631729Y-636722D02*
X3641253Y-627198D01*
X3641253Y-627198D02*
X3660301Y-617674D01*
X3660301Y-617674D02*
X3707920Y-617674D01*
X3707920Y-617674D02*
X3726968Y-627198D01*
X3726968Y-627198D02*
X3736491Y-636722D01*
X3736491Y-636722D02*
X3746015Y-655770D01*
X3746015Y-655770D02*
X3746015Y-703388D01*
X3746015Y-703388D02*
X3736491Y-722436D01*
X3736491Y-722436D02*
X3726968Y-731960D01*
X3726968Y-731960D02*
X3707920Y-741484D01*
X3707920Y-741484D02*
X3660301Y-741484D01*
X3660301Y-741484D02*
X3641253Y-731960D01*
X3641253Y-731960D02*
X3631729Y-722436D01*
X3822206Y-560531D02*
X3831729Y-551008D01*
X3831729Y-551008D02*
X3850777Y-541484D01*
X3850777Y-541484D02*
X3898396Y-541484D01*
X3898396Y-541484D02*
X3917444Y-551008D01*
X3917444Y-551008D02*
X3926968Y-560531D01*
X3926968Y-560531D02*
X3936491Y-579579D01*
X3936491Y-579579D02*
X3936491Y-598627D01*
X3936491Y-598627D02*
X3926968Y-627198D01*
X3926968Y-627198D02*
X3812682Y-741484D01*
X3812682Y-741484D02*
X3936491Y-741484D01*
X4174587Y-741484D02*
X4174587Y-541484D01*
X4260301Y-741484D02*
X4260301Y-636722D01*
X4260301Y-636722D02*
X4250777Y-617674D01*
X4250777Y-617674D02*
X4231730Y-608150D01*
X4231730Y-608150D02*
X4203158Y-608150D01*
X4203158Y-608150D02*
X4184110Y-617674D01*
X4184110Y-617674D02*
X4174587Y-627198D01*
X4384111Y-741484D02*
X4365063Y-731960D01*
X4365063Y-731960D02*
X4355539Y-722436D01*
X4355539Y-722436D02*
X4346015Y-703388D01*
X4346015Y-703388D02*
X4346015Y-646246D01*
X4346015Y-646246D02*
X4355539Y-627198D01*
X4355539Y-627198D02*
X4365063Y-617674D01*
X4365063Y-617674D02*
X4384111Y-608150D01*
X4384111Y-608150D02*
X4412682Y-608150D01*
X4412682Y-608150D02*
X4431730Y-617674D01*
X4431730Y-617674D02*
X4441253Y-627198D01*
X4441253Y-627198D02*
X4450777Y-646246D01*
X4450777Y-646246D02*
X4450777Y-703388D01*
X4450777Y-703388D02*
X4441253Y-722436D01*
X4441253Y-722436D02*
X4431730Y-731960D01*
X4431730Y-731960D02*
X4412682Y-741484D01*
X4412682Y-741484D02*
X4384111Y-741484D01*
X4565063Y-741484D02*
X4546015Y-731960D01*
X4546015Y-731960D02*
X4536492Y-712912D01*
X4536492Y-712912D02*
X4536492Y-541484D01*
X4717444Y-731960D02*
X4698396Y-741484D01*
X4698396Y-741484D02*
X4660301Y-741484D01*
X4660301Y-741484D02*
X4641253Y-731960D01*
X4641253Y-731960D02*
X4631730Y-712912D01*
X4631730Y-712912D02*
X4631730Y-636722D01*
X4631730Y-636722D02*
X4641253Y-617674D01*
X4641253Y-617674D02*
X4660301Y-608150D01*
X4660301Y-608150D02*
X4698396Y-608150D01*
X4698396Y-608150D02*
X4717444Y-617674D01*
X4717444Y-617674D02*
X4726968Y-636722D01*
X4726968Y-636722D02*
X4726968Y-655770D01*
X4726968Y-655770D02*
X4631730Y-674817D01*
X4803158Y-731960D02*
X4822206Y-741484D01*
X4822206Y-741484D02*
X4860301Y-741484D01*
X4860301Y-741484D02*
X4879349Y-731960D01*
X4879349Y-731960D02*
X4888873Y-712912D01*
X4888873Y-712912D02*
X4888873Y-703388D01*
X4888873Y-703388D02*
X4879349Y-684341D01*
X4879349Y-684341D02*
X4860301Y-674817D01*
X4860301Y-674817D02*
X4831730Y-674817D01*
X4831730Y-674817D02*
X4812682Y-665293D01*
X4812682Y-665293D02*
X4803158Y-646246D01*
X4803158Y-646246D02*
X4803158Y-636722D01*
X4803158Y-636722D02*
X4812682Y-617674D01*
X4812682Y-617674D02*
X4831730Y-608150D01*
X4831730Y-608150D02*
X4860301Y-608150D01*
X4860301Y-608150D02*
X4879349Y-617674D01*
X4955539Y-817674D02*
X4965063Y-808150D01*
X4965063Y-808150D02*
X4984111Y-779579D01*
X4984111Y-779579D02*
X4993634Y-760531D01*
X4993634Y-760531D02*
X5003158Y-731960D01*
X5003158Y-731960D02*
X5012682Y-684341D01*
X5012682Y-684341D02*
X5012682Y-646246D01*
X5012682Y-646246D02*
X5003158Y-598627D01*
X5003158Y-598627D02*
X4993634Y-570055D01*
X4993634Y-570055D02*
X4984111Y-551008D01*
X4984111Y-551008D02*
X4965063Y-522436D01*
X4965063Y-522436D02*
X4955539Y-512912D01*
D11*
X-10000Y-914000D02*
G75*
G02*
X-50000Y-914000I-20000J0D01*
G01*
X-50000Y-914000D02*
G75*
G02*
X-10000Y-914000I20000J0D01*
G01*
D10*
X288872Y-805484D02*
X307920Y-805484D01*
X307920Y-805484D02*
X326967Y-815008D01*
X326967Y-815008D02*
X336491Y-824531D01*
X336491Y-824531D02*
X346015Y-843579D01*
X346015Y-843579D02*
X355539Y-881674D01*
X355539Y-881674D02*
X355539Y-929293D01*
X355539Y-929293D02*
X346015Y-967388D01*
X346015Y-967388D02*
X336491Y-986436D01*
X336491Y-986436D02*
X326967Y-995960D01*
X326967Y-995960D02*
X307920Y-1005484D01*
X307920Y-1005484D02*
X288872Y-1005484D01*
X288872Y-1005484D02*
X269824Y-995960D01*
X269824Y-995960D02*
X260301Y-986436D01*
X260301Y-986436D02*
X250777Y-967388D01*
X250777Y-967388D02*
X241253Y-929293D01*
X241253Y-929293D02*
X241253Y-881674D01*
X241253Y-881674D02*
X250777Y-843579D01*
X250777Y-843579D02*
X260301Y-824531D01*
X260301Y-824531D02*
X269824Y-815008D01*
X269824Y-815008D02*
X288872Y-805484D01*
X441253Y-986436D02*
X450777Y-995960D01*
X450777Y-995960D02*
X441253Y-1005484D01*
X441253Y-1005484D02*
X431729Y-995960D01*
X431729Y-995960D02*
X441253Y-986436D01*
X441253Y-986436D02*
X441253Y-1005484D01*
X622205Y-872150D02*
X622205Y-1005484D01*
X574586Y-795960D02*
X526967Y-938817D01*
X526967Y-938817D02*
X650777Y-938817D01*
X765062Y-805484D02*
X784110Y-805484D01*
X784110Y-805484D02*
X803158Y-815008D01*
X803158Y-815008D02*
X812682Y-824531D01*
X812682Y-824531D02*
X822205Y-843579D01*
X822205Y-843579D02*
X831729Y-881674D01*
X831729Y-881674D02*
X831729Y-929293D01*
X831729Y-929293D02*
X822205Y-967388D01*
X822205Y-967388D02*
X812682Y-986436D01*
X812682Y-986436D02*
X803158Y-995960D01*
X803158Y-995960D02*
X784110Y-1005484D01*
X784110Y-1005484D02*
X765062Y-1005484D01*
X765062Y-1005484D02*
X746015Y-995960D01*
X746015Y-995960D02*
X736491Y-986436D01*
X736491Y-986436D02*
X726967Y-967388D01*
X726967Y-967388D02*
X717443Y-929293D01*
X717443Y-929293D02*
X717443Y-881674D01*
X717443Y-881674D02*
X726967Y-843579D01*
X726967Y-843579D02*
X736491Y-824531D01*
X736491Y-824531D02*
X746015Y-815008D01*
X746015Y-815008D02*
X765062Y-805484D01*
X955539Y-805484D02*
X974586Y-805484D01*
X974586Y-805484D02*
X993634Y-815008D01*
X993634Y-815008D02*
X1003158Y-824531D01*
X1003158Y-824531D02*
X1012682Y-843579D01*
X1012682Y-843579D02*
X1022205Y-881674D01*
X1022205Y-881674D02*
X1022205Y-929293D01*
X1022205Y-929293D02*
X1012682Y-967388D01*
X1012682Y-967388D02*
X1003158Y-986436D01*
X1003158Y-986436D02*
X993634Y-995960D01*
X993634Y-995960D02*
X974586Y-1005484D01*
X974586Y-1005484D02*
X955539Y-1005484D01*
X955539Y-1005484D02*
X936491Y-995960D01*
X936491Y-995960D02*
X926967Y-986436D01*
X926967Y-986436D02*
X917443Y-967388D01*
X917443Y-967388D02*
X907920Y-929293D01*
X907920Y-929293D02*
X907920Y-881674D01*
X907920Y-881674D02*
X917443Y-843579D01*
X917443Y-843579D02*
X926967Y-824531D01*
X926967Y-824531D02*
X936491Y-815008D01*
X936491Y-815008D02*
X955539Y-805484D01*
X1107920Y-1005484D02*
X1107920Y-872150D01*
X1107920Y-891198D02*
X1117444Y-881674D01*
X1117444Y-881674D02*
X1136491Y-872150D01*
X1136491Y-872150D02*
X1165063Y-872150D01*
X1165063Y-872150D02*
X1184110Y-881674D01*
X1184110Y-881674D02*
X1193634Y-900722D01*
X1193634Y-900722D02*
X1193634Y-1005484D01*
X1193634Y-900722D02*
X1203158Y-881674D01*
X1203158Y-881674D02*
X1222205Y-872150D01*
X1222205Y-872150D02*
X1250777Y-872150D01*
X1250777Y-872150D02*
X1269825Y-881674D01*
X1269825Y-881674D02*
X1279348Y-900722D01*
X1279348Y-900722D02*
X1279348Y-1005484D01*
X1374586Y-1005484D02*
X1374586Y-872150D01*
X1374586Y-891198D02*
X1384110Y-881674D01*
X1384110Y-881674D02*
X1403158Y-872150D01*
X1403158Y-872150D02*
X1431729Y-872150D01*
X1431729Y-872150D02*
X1450777Y-881674D01*
X1450777Y-881674D02*
X1460301Y-900722D01*
X1460301Y-900722D02*
X1460301Y-1005484D01*
X1460301Y-900722D02*
X1469824Y-881674D01*
X1469824Y-881674D02*
X1488872Y-872150D01*
X1488872Y-872150D02*
X1517443Y-872150D01*
X1517443Y-872150D02*
X1536491Y-881674D01*
X1536491Y-881674D02*
X1546015Y-900722D01*
X1546015Y-900722D02*
X1546015Y-1005484D01*
X1936491Y-795960D02*
X1765063Y-1053103D01*
X2193634Y-805484D02*
X2212682Y-805484D01*
X2212682Y-805484D02*
X2231729Y-815008D01*
X2231729Y-815008D02*
X2241253Y-824531D01*
X2241253Y-824531D02*
X2250777Y-843579D01*
X2250777Y-843579D02*
X2260301Y-881674D01*
X2260301Y-881674D02*
X2260301Y-929293D01*
X2260301Y-929293D02*
X2250777Y-967388D01*
X2250777Y-967388D02*
X2241253Y-986436D01*
X2241253Y-986436D02*
X2231729Y-995960D01*
X2231729Y-995960D02*
X2212682Y-1005484D01*
X2212682Y-1005484D02*
X2193634Y-1005484D01*
X2193634Y-1005484D02*
X2174587Y-995960D01*
X2174587Y-995960D02*
X2165063Y-986436D01*
X2165063Y-986436D02*
X2155539Y-967388D01*
X2155539Y-967388D02*
X2146015Y-929293D01*
X2146015Y-929293D02*
X2146015Y-881674D01*
X2146015Y-881674D02*
X2155539Y-843579D01*
X2155539Y-843579D02*
X2165063Y-824531D01*
X2165063Y-824531D02*
X2174587Y-815008D01*
X2174587Y-815008D02*
X2193634Y-805484D01*
X2346015Y-986436D02*
X2355539Y-995960D01*
X2355539Y-995960D02*
X2346015Y-1005484D01*
X2346015Y-1005484D02*
X2336491Y-995960D01*
X2336491Y-995960D02*
X2346015Y-986436D01*
X2346015Y-986436D02*
X2346015Y-1005484D01*
X2479348Y-805484D02*
X2498396Y-805484D01*
X2498396Y-805484D02*
X2517444Y-815008D01*
X2517444Y-815008D02*
X2526968Y-824531D01*
X2526968Y-824531D02*
X2536491Y-843579D01*
X2536491Y-843579D02*
X2546015Y-881674D01*
X2546015Y-881674D02*
X2546015Y-929293D01*
X2546015Y-929293D02*
X2536491Y-967388D01*
X2536491Y-967388D02*
X2526968Y-986436D01*
X2526968Y-986436D02*
X2517444Y-995960D01*
X2517444Y-995960D02*
X2498396Y-1005484D01*
X2498396Y-1005484D02*
X2479348Y-1005484D01*
X2479348Y-1005484D02*
X2460301Y-995960D01*
X2460301Y-995960D02*
X2450777Y-986436D01*
X2450777Y-986436D02*
X2441253Y-967388D01*
X2441253Y-967388D02*
X2431729Y-929293D01*
X2431729Y-929293D02*
X2431729Y-881674D01*
X2431729Y-881674D02*
X2441253Y-843579D01*
X2441253Y-843579D02*
X2450777Y-824531D01*
X2450777Y-824531D02*
X2460301Y-815008D01*
X2460301Y-815008D02*
X2479348Y-805484D01*
X2736491Y-1005484D02*
X2622206Y-1005484D01*
X2679348Y-1005484D02*
X2679348Y-805484D01*
X2679348Y-805484D02*
X2660301Y-834055D01*
X2660301Y-834055D02*
X2641253Y-853103D01*
X2641253Y-853103D02*
X2622206Y-862627D01*
X2917444Y-805484D02*
X2822206Y-805484D01*
X2822206Y-805484D02*
X2812682Y-900722D01*
X2812682Y-900722D02*
X2822206Y-891198D01*
X2822206Y-891198D02*
X2841253Y-881674D01*
X2841253Y-881674D02*
X2888872Y-881674D01*
X2888872Y-881674D02*
X2907920Y-891198D01*
X2907920Y-891198D02*
X2917444Y-900722D01*
X2917444Y-900722D02*
X2926967Y-919769D01*
X2926967Y-919769D02*
X2926967Y-967388D01*
X2926967Y-967388D02*
X2917444Y-986436D01*
X2917444Y-986436D02*
X2907920Y-995960D01*
X2907920Y-995960D02*
X2888872Y-1005484D01*
X2888872Y-1005484D02*
X2841253Y-1005484D01*
X2841253Y-1005484D02*
X2822206Y-995960D01*
X2822206Y-995960D02*
X2812682Y-986436D01*
X2993634Y-805484D02*
X3126967Y-805484D01*
X3126967Y-805484D02*
X3041253Y-1005484D01*
X3193634Y-805484D02*
X3193634Y-843579D01*
X3269825Y-805484D02*
X3269825Y-843579D01*
X3565063Y-1081674D02*
X3555539Y-1072150D01*
X3555539Y-1072150D02*
X3536491Y-1043579D01*
X3536491Y-1043579D02*
X3526968Y-1024531D01*
X3526968Y-1024531D02*
X3517444Y-995960D01*
X3517444Y-995960D02*
X3507920Y-948341D01*
X3507920Y-948341D02*
X3507920Y-910246D01*
X3507920Y-910246D02*
X3517444Y-862627D01*
X3517444Y-862627D02*
X3526968Y-834055D01*
X3526968Y-834055D02*
X3536491Y-815008D01*
X3536491Y-815008D02*
X3555539Y-786436D01*
X3555539Y-786436D02*
X3565063Y-776912D01*
X3726968Y-805484D02*
X3688872Y-805484D01*
X3688872Y-805484D02*
X3669825Y-815008D01*
X3669825Y-815008D02*
X3660301Y-824531D01*
X3660301Y-824531D02*
X3641253Y-853103D01*
X3641253Y-853103D02*
X3631729Y-891198D01*
X3631729Y-891198D02*
X3631729Y-967388D01*
X3631729Y-967388D02*
X3641253Y-986436D01*
X3641253Y-986436D02*
X3650777Y-995960D01*
X3650777Y-995960D02*
X3669825Y-1005484D01*
X3669825Y-1005484D02*
X3707920Y-1005484D01*
X3707920Y-1005484D02*
X3726968Y-995960D01*
X3726968Y-995960D02*
X3736491Y-986436D01*
X3736491Y-986436D02*
X3746015Y-967388D01*
X3746015Y-967388D02*
X3746015Y-919769D01*
X3746015Y-919769D02*
X3736491Y-900722D01*
X3736491Y-900722D02*
X3726968Y-891198D01*
X3726968Y-891198D02*
X3707920Y-881674D01*
X3707920Y-881674D02*
X3669825Y-881674D01*
X3669825Y-881674D02*
X3650777Y-891198D01*
X3650777Y-891198D02*
X3641253Y-900722D01*
X3641253Y-900722D02*
X3631729Y-919769D01*
X3917444Y-805484D02*
X3879348Y-805484D01*
X3879348Y-805484D02*
X3860301Y-815008D01*
X3860301Y-815008D02*
X3850777Y-824531D01*
X3850777Y-824531D02*
X3831729Y-853103D01*
X3831729Y-853103D02*
X3822206Y-891198D01*
X3822206Y-891198D02*
X3822206Y-967388D01*
X3822206Y-967388D02*
X3831729Y-986436D01*
X3831729Y-986436D02*
X3841253Y-995960D01*
X3841253Y-995960D02*
X3860301Y-1005484D01*
X3860301Y-1005484D02*
X3898396Y-1005484D01*
X3898396Y-1005484D02*
X3917444Y-995960D01*
X3917444Y-995960D02*
X3926968Y-986436D01*
X3926968Y-986436D02*
X3936491Y-967388D01*
X3936491Y-967388D02*
X3936491Y-919769D01*
X3936491Y-919769D02*
X3926968Y-900722D01*
X3926968Y-900722D02*
X3917444Y-891198D01*
X3917444Y-891198D02*
X3898396Y-881674D01*
X3898396Y-881674D02*
X3860301Y-881674D01*
X3860301Y-881674D02*
X3841253Y-891198D01*
X3841253Y-891198D02*
X3831729Y-900722D01*
X3831729Y-900722D02*
X3822206Y-919769D01*
X4174587Y-1005484D02*
X4174587Y-805484D01*
X4260301Y-1005484D02*
X4260301Y-900722D01*
X4260301Y-900722D02*
X4250777Y-881674D01*
X4250777Y-881674D02*
X4231730Y-872150D01*
X4231730Y-872150D02*
X4203158Y-872150D01*
X4203158Y-872150D02*
X4184110Y-881674D01*
X4184110Y-881674D02*
X4174587Y-891198D01*
X4384111Y-1005484D02*
X4365063Y-995960D01*
X4365063Y-995960D02*
X4355539Y-986436D01*
X4355539Y-986436D02*
X4346015Y-967388D01*
X4346015Y-967388D02*
X4346015Y-910246D01*
X4346015Y-910246D02*
X4355539Y-891198D01*
X4355539Y-891198D02*
X4365063Y-881674D01*
X4365063Y-881674D02*
X4384111Y-872150D01*
X4384111Y-872150D02*
X4412682Y-872150D01*
X4412682Y-872150D02*
X4431730Y-881674D01*
X4431730Y-881674D02*
X4441253Y-891198D01*
X4441253Y-891198D02*
X4450777Y-910246D01*
X4450777Y-910246D02*
X4450777Y-967388D01*
X4450777Y-967388D02*
X4441253Y-986436D01*
X4441253Y-986436D02*
X4431730Y-995960D01*
X4431730Y-995960D02*
X4412682Y-1005484D01*
X4412682Y-1005484D02*
X4384111Y-1005484D01*
X4565063Y-1005484D02*
X4546015Y-995960D01*
X4546015Y-995960D02*
X4536492Y-976912D01*
X4536492Y-976912D02*
X4536492Y-805484D01*
X4717444Y-995960D02*
X4698396Y-1005484D01*
X4698396Y-1005484D02*
X4660301Y-1005484D01*
X4660301Y-1005484D02*
X4641253Y-995960D01*
X4641253Y-995960D02*
X4631730Y-976912D01*
X4631730Y-976912D02*
X4631730Y-900722D01*
X4631730Y-900722D02*
X4641253Y-881674D01*
X4641253Y-881674D02*
X4660301Y-872150D01*
X4660301Y-872150D02*
X4698396Y-872150D01*
X4698396Y-872150D02*
X4717444Y-881674D01*
X4717444Y-881674D02*
X4726968Y-900722D01*
X4726968Y-900722D02*
X4726968Y-919769D01*
X4726968Y-919769D02*
X4631730Y-938817D01*
X4803158Y-995960D02*
X4822206Y-1005484D01*
X4822206Y-1005484D02*
X4860301Y-1005484D01*
X4860301Y-1005484D02*
X4879349Y-995960D01*
X4879349Y-995960D02*
X4888873Y-976912D01*
X4888873Y-976912D02*
X4888873Y-967388D01*
X4888873Y-967388D02*
X4879349Y-948341D01*
X4879349Y-948341D02*
X4860301Y-938817D01*
X4860301Y-938817D02*
X4831730Y-938817D01*
X4831730Y-938817D02*
X4812682Y-929293D01*
X4812682Y-929293D02*
X4803158Y-910246D01*
X4803158Y-910246D02*
X4803158Y-900722D01*
X4803158Y-900722D02*
X4812682Y-881674D01*
X4812682Y-881674D02*
X4831730Y-872150D01*
X4831730Y-872150D02*
X4860301Y-872150D01*
X4860301Y-872150D02*
X4879349Y-881674D01*
X4955539Y-1081674D02*
X4965063Y-1072150D01*
X4965063Y-1072150D02*
X4984111Y-1043579D01*
X4984111Y-1043579D02*
X4993634Y-1024531D01*
X4993634Y-1024531D02*
X5003158Y-995960D01*
X5003158Y-995960D02*
X5012682Y-948341D01*
X5012682Y-948341D02*
X5012682Y-910246D01*
X5012682Y-910246D02*
X5003158Y-862627D01*
X5003158Y-862627D02*
X4993634Y-834055D01*
X4993634Y-834055D02*
X4984111Y-815008D01*
X4984111Y-815008D02*
X4965063Y-786436D01*
X4965063Y-786436D02*
X4955539Y-776912D01*
D11*
X-60000Y-1128000D02*
X-60000Y-1228000D01*
X-110000Y-1178000D02*
X-10000Y-1178000D01*
D10*
X355539Y-1269484D02*
X241253Y-1269484D01*
X298396Y-1269484D02*
X298396Y-1069484D01*
X298396Y-1069484D02*
X279348Y-1098055D01*
X279348Y-1098055D02*
X260301Y-1117103D01*
X260301Y-1117103D02*
X241253Y-1126627D01*
X441253Y-1250436D02*
X450777Y-1259960D01*
X450777Y-1259960D02*
X441253Y-1269484D01*
X441253Y-1269484D02*
X431729Y-1259960D01*
X431729Y-1259960D02*
X441253Y-1250436D01*
X441253Y-1250436D02*
X441253Y-1269484D01*
X574586Y-1069484D02*
X593634Y-1069484D01*
X593634Y-1069484D02*
X612682Y-1079008D01*
X612682Y-1079008D02*
X622205Y-1088531D01*
X622205Y-1088531D02*
X631729Y-1107579D01*
X631729Y-1107579D02*
X641253Y-1145674D01*
X641253Y-1145674D02*
X641253Y-1193293D01*
X641253Y-1193293D02*
X631729Y-1231389D01*
X631729Y-1231389D02*
X622205Y-1250436D01*
X622205Y-1250436D02*
X612682Y-1259960D01*
X612682Y-1259960D02*
X593634Y-1269484D01*
X593634Y-1269484D02*
X574586Y-1269484D01*
X574586Y-1269484D02*
X555539Y-1259960D01*
X555539Y-1259960D02*
X546015Y-1250436D01*
X546015Y-1250436D02*
X536491Y-1231389D01*
X536491Y-1231389D02*
X526967Y-1193293D01*
X526967Y-1193293D02*
X526967Y-1145674D01*
X526967Y-1145674D02*
X536491Y-1107579D01*
X536491Y-1107579D02*
X546015Y-1088531D01*
X546015Y-1088531D02*
X555539Y-1079008D01*
X555539Y-1079008D02*
X574586Y-1069484D01*
X765062Y-1069484D02*
X784110Y-1069484D01*
X784110Y-1069484D02*
X803158Y-1079008D01*
X803158Y-1079008D02*
X812682Y-1088531D01*
X812682Y-1088531D02*
X822205Y-1107579D01*
X822205Y-1107579D02*
X831729Y-1145674D01*
X831729Y-1145674D02*
X831729Y-1193293D01*
X831729Y-1193293D02*
X822205Y-1231389D01*
X822205Y-1231389D02*
X812682Y-1250436D01*
X812682Y-1250436D02*
X803158Y-1259960D01*
X803158Y-1259960D02*
X784110Y-1269484D01*
X784110Y-1269484D02*
X765062Y-1269484D01*
X765062Y-1269484D02*
X746015Y-1259960D01*
X746015Y-1259960D02*
X736491Y-1250436D01*
X736491Y-1250436D02*
X726967Y-1231389D01*
X726967Y-1231389D02*
X717443Y-1193293D01*
X717443Y-1193293D02*
X717443Y-1145674D01*
X717443Y-1145674D02*
X726967Y-1107579D01*
X726967Y-1107579D02*
X736491Y-1088531D01*
X736491Y-1088531D02*
X746015Y-1079008D01*
X746015Y-1079008D02*
X765062Y-1069484D01*
X955539Y-1069484D02*
X974586Y-1069484D01*
X974586Y-1069484D02*
X993634Y-1079008D01*
X993634Y-1079008D02*
X1003158Y-1088531D01*
X1003158Y-1088531D02*
X1012682Y-1107579D01*
X1012682Y-1107579D02*
X1022205Y-1145674D01*
X1022205Y-1145674D02*
X1022205Y-1193293D01*
X1022205Y-1193293D02*
X1012682Y-1231389D01*
X1012682Y-1231389D02*
X1003158Y-1250436D01*
X1003158Y-1250436D02*
X993634Y-1259960D01*
X993634Y-1259960D02*
X974586Y-1269484D01*
X974586Y-1269484D02*
X955539Y-1269484D01*
X955539Y-1269484D02*
X936491Y-1259960D01*
X936491Y-1259960D02*
X926967Y-1250436D01*
X926967Y-1250436D02*
X917443Y-1231389D01*
X917443Y-1231389D02*
X907920Y-1193293D01*
X907920Y-1193293D02*
X907920Y-1145674D01*
X907920Y-1145674D02*
X917443Y-1107579D01*
X917443Y-1107579D02*
X926967Y-1088531D01*
X926967Y-1088531D02*
X936491Y-1079008D01*
X936491Y-1079008D02*
X955539Y-1069484D01*
X1107920Y-1269484D02*
X1107920Y-1136150D01*
X1107920Y-1155198D02*
X1117444Y-1145674D01*
X1117444Y-1145674D02*
X1136491Y-1136150D01*
X1136491Y-1136150D02*
X1165063Y-1136150D01*
X1165063Y-1136150D02*
X1184110Y-1145674D01*
X1184110Y-1145674D02*
X1193634Y-1164722D01*
X1193634Y-1164722D02*
X1193634Y-1269484D01*
X1193634Y-1164722D02*
X1203158Y-1145674D01*
X1203158Y-1145674D02*
X1222205Y-1136150D01*
X1222205Y-1136150D02*
X1250777Y-1136150D01*
X1250777Y-1136150D02*
X1269825Y-1145674D01*
X1269825Y-1145674D02*
X1279348Y-1164722D01*
X1279348Y-1164722D02*
X1279348Y-1269484D01*
X1374586Y-1269484D02*
X1374586Y-1136150D01*
X1374586Y-1155198D02*
X1384110Y-1145674D01*
X1384110Y-1145674D02*
X1403158Y-1136150D01*
X1403158Y-1136150D02*
X1431729Y-1136150D01*
X1431729Y-1136150D02*
X1450777Y-1145674D01*
X1450777Y-1145674D02*
X1460301Y-1164722D01*
X1460301Y-1164722D02*
X1460301Y-1269484D01*
X1460301Y-1164722D02*
X1469824Y-1145674D01*
X1469824Y-1145674D02*
X1488872Y-1136150D01*
X1488872Y-1136150D02*
X1517443Y-1136150D01*
X1517443Y-1136150D02*
X1536491Y-1145674D01*
X1536491Y-1145674D02*
X1546015Y-1164722D01*
X1546015Y-1164722D02*
X1546015Y-1269484D01*
X1936491Y-1059960D02*
X1765063Y-1317103D01*
X2193634Y-1069484D02*
X2212682Y-1069484D01*
X2212682Y-1069484D02*
X2231729Y-1079008D01*
X2231729Y-1079008D02*
X2241253Y-1088531D01*
X2241253Y-1088531D02*
X2250777Y-1107579D01*
X2250777Y-1107579D02*
X2260301Y-1145674D01*
X2260301Y-1145674D02*
X2260301Y-1193293D01*
X2260301Y-1193293D02*
X2250777Y-1231389D01*
X2250777Y-1231389D02*
X2241253Y-1250436D01*
X2241253Y-1250436D02*
X2231729Y-1259960D01*
X2231729Y-1259960D02*
X2212682Y-1269484D01*
X2212682Y-1269484D02*
X2193634Y-1269484D01*
X2193634Y-1269484D02*
X2174587Y-1259960D01*
X2174587Y-1259960D02*
X2165063Y-1250436D01*
X2165063Y-1250436D02*
X2155539Y-1231389D01*
X2155539Y-1231389D02*
X2146015Y-1193293D01*
X2146015Y-1193293D02*
X2146015Y-1145674D01*
X2146015Y-1145674D02*
X2155539Y-1107579D01*
X2155539Y-1107579D02*
X2165063Y-1088531D01*
X2165063Y-1088531D02*
X2174587Y-1079008D01*
X2174587Y-1079008D02*
X2193634Y-1069484D01*
X2346015Y-1250436D02*
X2355539Y-1259960D01*
X2355539Y-1259960D02*
X2346015Y-1269484D01*
X2346015Y-1269484D02*
X2336491Y-1259960D01*
X2336491Y-1259960D02*
X2346015Y-1250436D01*
X2346015Y-1250436D02*
X2346015Y-1269484D01*
X2479348Y-1069484D02*
X2498396Y-1069484D01*
X2498396Y-1069484D02*
X2517444Y-1079008D01*
X2517444Y-1079008D02*
X2526968Y-1088531D01*
X2526968Y-1088531D02*
X2536491Y-1107579D01*
X2536491Y-1107579D02*
X2546015Y-1145674D01*
X2546015Y-1145674D02*
X2546015Y-1193293D01*
X2546015Y-1193293D02*
X2536491Y-1231389D01*
X2536491Y-1231389D02*
X2526968Y-1250436D01*
X2526968Y-1250436D02*
X2517444Y-1259960D01*
X2517444Y-1259960D02*
X2498396Y-1269484D01*
X2498396Y-1269484D02*
X2479348Y-1269484D01*
X2479348Y-1269484D02*
X2460301Y-1259960D01*
X2460301Y-1259960D02*
X2450777Y-1250436D01*
X2450777Y-1250436D02*
X2441253Y-1231389D01*
X2441253Y-1231389D02*
X2431729Y-1193293D01*
X2431729Y-1193293D02*
X2431729Y-1145674D01*
X2431729Y-1145674D02*
X2441253Y-1107579D01*
X2441253Y-1107579D02*
X2450777Y-1088531D01*
X2450777Y-1088531D02*
X2460301Y-1079008D01*
X2460301Y-1079008D02*
X2479348Y-1069484D01*
X2612682Y-1069484D02*
X2736491Y-1069484D01*
X2736491Y-1069484D02*
X2669825Y-1145674D01*
X2669825Y-1145674D02*
X2698396Y-1145674D01*
X2698396Y-1145674D02*
X2717444Y-1155198D01*
X2717444Y-1155198D02*
X2726968Y-1164722D01*
X2726968Y-1164722D02*
X2736491Y-1183770D01*
X2736491Y-1183770D02*
X2736491Y-1231389D01*
X2736491Y-1231389D02*
X2726968Y-1250436D01*
X2726968Y-1250436D02*
X2717444Y-1259960D01*
X2717444Y-1259960D02*
X2698396Y-1269484D01*
X2698396Y-1269484D02*
X2641253Y-1269484D01*
X2641253Y-1269484D02*
X2622206Y-1259960D01*
X2622206Y-1259960D02*
X2612682Y-1250436D01*
X2831729Y-1269484D02*
X2869825Y-1269484D01*
X2869825Y-1269484D02*
X2888872Y-1259960D01*
X2888872Y-1259960D02*
X2898396Y-1250436D01*
X2898396Y-1250436D02*
X2917444Y-1221865D01*
X2917444Y-1221865D02*
X2926967Y-1183770D01*
X2926967Y-1183770D02*
X2926967Y-1107579D01*
X2926967Y-1107579D02*
X2917444Y-1088531D01*
X2917444Y-1088531D02*
X2907920Y-1079008D01*
X2907920Y-1079008D02*
X2888872Y-1069484D01*
X2888872Y-1069484D02*
X2850777Y-1069484D01*
X2850777Y-1069484D02*
X2831729Y-1079008D01*
X2831729Y-1079008D02*
X2822206Y-1088531D01*
X2822206Y-1088531D02*
X2812682Y-1107579D01*
X2812682Y-1107579D02*
X2812682Y-1155198D01*
X2812682Y-1155198D02*
X2822206Y-1174246D01*
X2822206Y-1174246D02*
X2831729Y-1183770D01*
X2831729Y-1183770D02*
X2850777Y-1193293D01*
X2850777Y-1193293D02*
X2888872Y-1193293D01*
X2888872Y-1193293D02*
X2907920Y-1183770D01*
X2907920Y-1183770D02*
X2917444Y-1174246D01*
X2917444Y-1174246D02*
X2926967Y-1155198D01*
X3098396Y-1136150D02*
X3098396Y-1269484D01*
X3050777Y-1059960D02*
X3003158Y-1202817D01*
X3003158Y-1202817D02*
X3126967Y-1202817D01*
X3193634Y-1069484D02*
X3193634Y-1107579D01*
X3269825Y-1069484D02*
X3269825Y-1107579D01*
X3565063Y-1345674D02*
X3555539Y-1336150D01*
X3555539Y-1336150D02*
X3536491Y-1307579D01*
X3536491Y-1307579D02*
X3526968Y-1288531D01*
X3526968Y-1288531D02*
X3517444Y-1259960D01*
X3517444Y-1259960D02*
X3507920Y-1212341D01*
X3507920Y-1212341D02*
X3507920Y-1174246D01*
X3507920Y-1174246D02*
X3517444Y-1126627D01*
X3517444Y-1126627D02*
X3526968Y-1098055D01*
X3526968Y-1098055D02*
X3536491Y-1079008D01*
X3536491Y-1079008D02*
X3555539Y-1050436D01*
X3555539Y-1050436D02*
X3565063Y-1040912D01*
X3631729Y-1088531D02*
X3641253Y-1079008D01*
X3641253Y-1079008D02*
X3660301Y-1069484D01*
X3660301Y-1069484D02*
X3707920Y-1069484D01*
X3707920Y-1069484D02*
X3726968Y-1079008D01*
X3726968Y-1079008D02*
X3736491Y-1088531D01*
X3736491Y-1088531D02*
X3746015Y-1107579D01*
X3746015Y-1107579D02*
X3746015Y-1126627D01*
X3746015Y-1126627D02*
X3736491Y-1155198D01*
X3736491Y-1155198D02*
X3622206Y-1269484D01*
X3622206Y-1269484D02*
X3746015Y-1269484D01*
X3917444Y-1136150D02*
X3917444Y-1269484D01*
X3869825Y-1059960D02*
X3822206Y-1202817D01*
X3822206Y-1202817D02*
X3946015Y-1202817D01*
X4174587Y-1269484D02*
X4174587Y-1069484D01*
X4260301Y-1269484D02*
X4260301Y-1164722D01*
X4260301Y-1164722D02*
X4250777Y-1145674D01*
X4250777Y-1145674D02*
X4231730Y-1136150D01*
X4231730Y-1136150D02*
X4203158Y-1136150D01*
X4203158Y-1136150D02*
X4184110Y-1145674D01*
X4184110Y-1145674D02*
X4174587Y-1155198D01*
X4384111Y-1269484D02*
X4365063Y-1259960D01*
X4365063Y-1259960D02*
X4355539Y-1250436D01*
X4355539Y-1250436D02*
X4346015Y-1231389D01*
X4346015Y-1231389D02*
X4346015Y-1174246D01*
X4346015Y-1174246D02*
X4355539Y-1155198D01*
X4355539Y-1155198D02*
X4365063Y-1145674D01*
X4365063Y-1145674D02*
X4384111Y-1136150D01*
X4384111Y-1136150D02*
X4412682Y-1136150D01*
X4412682Y-1136150D02*
X4431730Y-1145674D01*
X4431730Y-1145674D02*
X4441253Y-1155198D01*
X4441253Y-1155198D02*
X4450777Y-1174246D01*
X4450777Y-1174246D02*
X4450777Y-1231389D01*
X4450777Y-1231389D02*
X4441253Y-1250436D01*
X4441253Y-1250436D02*
X4431730Y-1259960D01*
X4431730Y-1259960D02*
X4412682Y-1269484D01*
X4412682Y-1269484D02*
X4384111Y-1269484D01*
X4565063Y-1269484D02*
X4546015Y-1259960D01*
X4546015Y-1259960D02*
X4536492Y-1240912D01*
X4536492Y-1240912D02*
X4536492Y-1069484D01*
X4717444Y-1259960D02*
X4698396Y-1269484D01*
X4698396Y-1269484D02*
X4660301Y-1269484D01*
X4660301Y-1269484D02*
X4641253Y-1259960D01*
X4641253Y-1259960D02*
X4631730Y-1240912D01*
X4631730Y-1240912D02*
X4631730Y-1164722D01*
X4631730Y-1164722D02*
X4641253Y-1145674D01*
X4641253Y-1145674D02*
X4660301Y-1136150D01*
X4660301Y-1136150D02*
X4698396Y-1136150D01*
X4698396Y-1136150D02*
X4717444Y-1145674D01*
X4717444Y-1145674D02*
X4726968Y-1164722D01*
X4726968Y-1164722D02*
X4726968Y-1183770D01*
X4726968Y-1183770D02*
X4631730Y-1202817D01*
X4803158Y-1259960D02*
X4822206Y-1269484D01*
X4822206Y-1269484D02*
X4860301Y-1269484D01*
X4860301Y-1269484D02*
X4879349Y-1259960D01*
X4879349Y-1259960D02*
X4888873Y-1240912D01*
X4888873Y-1240912D02*
X4888873Y-1231389D01*
X4888873Y-1231389D02*
X4879349Y-1212341D01*
X4879349Y-1212341D02*
X4860301Y-1202817D01*
X4860301Y-1202817D02*
X4831730Y-1202817D01*
X4831730Y-1202817D02*
X4812682Y-1193293D01*
X4812682Y-1193293D02*
X4803158Y-1174246D01*
X4803158Y-1174246D02*
X4803158Y-1164722D01*
X4803158Y-1164722D02*
X4812682Y-1145674D01*
X4812682Y-1145674D02*
X4831730Y-1136150D01*
X4831730Y-1136150D02*
X4860301Y-1136150D01*
X4860301Y-1136150D02*
X4879349Y-1145674D01*
X4955539Y-1345674D02*
X4965063Y-1336150D01*
X4965063Y-1336150D02*
X4984111Y-1307579D01*
X4984111Y-1307579D02*
X4993634Y-1288531D01*
X4993634Y-1288531D02*
X5003158Y-1259960D01*
X5003158Y-1259960D02*
X5012682Y-1212341D01*
X5012682Y-1212341D02*
X5012682Y-1174246D01*
X5012682Y-1174246D02*
X5003158Y-1126627D01*
X5003158Y-1126627D02*
X4993634Y-1098055D01*
X4993634Y-1098055D02*
X4984111Y-1079008D01*
X4984111Y-1079008D02*
X4965063Y-1050436D01*
X4965063Y-1050436D02*
X4955539Y-1040912D01*
D12*
X-25743Y-1480007D02*
X-25743Y-1403993D01*
X-101757Y-1403993D01*
X-101757Y-1480007D01*
X-25743Y-1480007D01*
D10*
X355539Y-1533484D02*
X241253Y-1533484D01*
X298396Y-1533484D02*
X298396Y-1333484D01*
X298396Y-1333484D02*
X279348Y-1362055D01*
X279348Y-1362055D02*
X260301Y-1381103D01*
X260301Y-1381103D02*
X241253Y-1390627D01*
X441253Y-1514436D02*
X450777Y-1523960D01*
X450777Y-1523960D02*
X441253Y-1533484D01*
X441253Y-1533484D02*
X431729Y-1523960D01*
X431729Y-1523960D02*
X441253Y-1514436D01*
X441253Y-1514436D02*
X441253Y-1533484D01*
X574586Y-1333484D02*
X593634Y-1333484D01*
X593634Y-1333484D02*
X612682Y-1343008D01*
X612682Y-1343008D02*
X622205Y-1352531D01*
X622205Y-1352531D02*
X631729Y-1371579D01*
X631729Y-1371579D02*
X641253Y-1409674D01*
X641253Y-1409674D02*
X641253Y-1457293D01*
X641253Y-1457293D02*
X631729Y-1495388D01*
X631729Y-1495388D02*
X622205Y-1514436D01*
X622205Y-1514436D02*
X612682Y-1523960D01*
X612682Y-1523960D02*
X593634Y-1533484D01*
X593634Y-1533484D02*
X574586Y-1533484D01*
X574586Y-1533484D02*
X555539Y-1523960D01*
X555539Y-1523960D02*
X546015Y-1514436D01*
X546015Y-1514436D02*
X536491Y-1495388D01*
X536491Y-1495388D02*
X526967Y-1457293D01*
X526967Y-1457293D02*
X526967Y-1409674D01*
X526967Y-1409674D02*
X536491Y-1371579D01*
X536491Y-1371579D02*
X546015Y-1352531D01*
X546015Y-1352531D02*
X555539Y-1343008D01*
X555539Y-1343008D02*
X574586Y-1333484D01*
X707920Y-1333484D02*
X841253Y-1333484D01*
X841253Y-1333484D02*
X755539Y-1533484D01*
X1012682Y-1333484D02*
X917443Y-1333484D01*
X917443Y-1333484D02*
X907920Y-1428722D01*
X907920Y-1428722D02*
X917443Y-1419198D01*
X917443Y-1419198D02*
X936491Y-1409674D01*
X936491Y-1409674D02*
X984110Y-1409674D01*
X984110Y-1409674D02*
X1003158Y-1419198D01*
X1003158Y-1419198D02*
X1012682Y-1428722D01*
X1012682Y-1428722D02*
X1022205Y-1447769D01*
X1022205Y-1447769D02*
X1022205Y-1495388D01*
X1022205Y-1495388D02*
X1012682Y-1514436D01*
X1012682Y-1514436D02*
X1003158Y-1523960D01*
X1003158Y-1523960D02*
X984110Y-1533484D01*
X984110Y-1533484D02*
X936491Y-1533484D01*
X936491Y-1533484D02*
X917443Y-1523960D01*
X917443Y-1523960D02*
X907920Y-1514436D01*
X1107920Y-1533484D02*
X1107920Y-1400150D01*
X1107920Y-1419198D02*
X1117444Y-1409674D01*
X1117444Y-1409674D02*
X1136491Y-1400150D01*
X1136491Y-1400150D02*
X1165063Y-1400150D01*
X1165063Y-1400150D02*
X1184110Y-1409674D01*
X1184110Y-1409674D02*
X1193634Y-1428722D01*
X1193634Y-1428722D02*
X1193634Y-1533484D01*
X1193634Y-1428722D02*
X1203158Y-1409674D01*
X1203158Y-1409674D02*
X1222205Y-1400150D01*
X1222205Y-1400150D02*
X1250777Y-1400150D01*
X1250777Y-1400150D02*
X1269825Y-1409674D01*
X1269825Y-1409674D02*
X1279348Y-1428722D01*
X1279348Y-1428722D02*
X1279348Y-1533484D01*
X1374586Y-1533484D02*
X1374586Y-1400150D01*
X1374586Y-1419198D02*
X1384110Y-1409674D01*
X1384110Y-1409674D02*
X1403158Y-1400150D01*
X1403158Y-1400150D02*
X1431729Y-1400150D01*
X1431729Y-1400150D02*
X1450777Y-1409674D01*
X1450777Y-1409674D02*
X1460301Y-1428722D01*
X1460301Y-1428722D02*
X1460301Y-1533484D01*
X1460301Y-1428722D02*
X1469824Y-1409674D01*
X1469824Y-1409674D02*
X1488872Y-1400150D01*
X1488872Y-1400150D02*
X1517443Y-1400150D01*
X1517443Y-1400150D02*
X1536491Y-1409674D01*
X1536491Y-1409674D02*
X1546015Y-1428722D01*
X1546015Y-1428722D02*
X1546015Y-1533484D01*
X1936491Y-1323960D02*
X1765063Y-1581103D01*
X2193634Y-1333484D02*
X2212682Y-1333484D01*
X2212682Y-1333484D02*
X2231729Y-1343008D01*
X2231729Y-1343008D02*
X2241253Y-1352531D01*
X2241253Y-1352531D02*
X2250777Y-1371579D01*
X2250777Y-1371579D02*
X2260301Y-1409674D01*
X2260301Y-1409674D02*
X2260301Y-1457293D01*
X2260301Y-1457293D02*
X2250777Y-1495388D01*
X2250777Y-1495388D02*
X2241253Y-1514436D01*
X2241253Y-1514436D02*
X2231729Y-1523960D01*
X2231729Y-1523960D02*
X2212682Y-1533484D01*
X2212682Y-1533484D02*
X2193634Y-1533484D01*
X2193634Y-1533484D02*
X2174587Y-1523960D01*
X2174587Y-1523960D02*
X2165063Y-1514436D01*
X2165063Y-1514436D02*
X2155539Y-1495388D01*
X2155539Y-1495388D02*
X2146015Y-1457293D01*
X2146015Y-1457293D02*
X2146015Y-1409674D01*
X2146015Y-1409674D02*
X2155539Y-1371579D01*
X2155539Y-1371579D02*
X2165063Y-1352531D01*
X2165063Y-1352531D02*
X2174587Y-1343008D01*
X2174587Y-1343008D02*
X2193634Y-1333484D01*
X2346015Y-1514436D02*
X2355539Y-1523960D01*
X2355539Y-1523960D02*
X2346015Y-1533484D01*
X2346015Y-1533484D02*
X2336491Y-1523960D01*
X2336491Y-1523960D02*
X2346015Y-1514436D01*
X2346015Y-1514436D02*
X2346015Y-1533484D01*
X2479348Y-1333484D02*
X2498396Y-1333484D01*
X2498396Y-1333484D02*
X2517444Y-1343008D01*
X2517444Y-1343008D02*
X2526968Y-1352531D01*
X2526968Y-1352531D02*
X2536491Y-1371579D01*
X2536491Y-1371579D02*
X2546015Y-1409674D01*
X2546015Y-1409674D02*
X2546015Y-1457293D01*
X2546015Y-1457293D02*
X2536491Y-1495388D01*
X2536491Y-1495388D02*
X2526968Y-1514436D01*
X2526968Y-1514436D02*
X2517444Y-1523960D01*
X2517444Y-1523960D02*
X2498396Y-1533484D01*
X2498396Y-1533484D02*
X2479348Y-1533484D01*
X2479348Y-1533484D02*
X2460301Y-1523960D01*
X2460301Y-1523960D02*
X2450777Y-1514436D01*
X2450777Y-1514436D02*
X2441253Y-1495388D01*
X2441253Y-1495388D02*
X2431729Y-1457293D01*
X2431729Y-1457293D02*
X2431729Y-1409674D01*
X2431729Y-1409674D02*
X2441253Y-1371579D01*
X2441253Y-1371579D02*
X2450777Y-1352531D01*
X2450777Y-1352531D02*
X2460301Y-1343008D01*
X2460301Y-1343008D02*
X2479348Y-1333484D01*
X2717444Y-1400150D02*
X2717444Y-1533484D01*
X2669825Y-1323960D02*
X2622206Y-1466817D01*
X2622206Y-1466817D02*
X2746015Y-1466817D01*
X2812682Y-1352531D02*
X2822206Y-1343008D01*
X2822206Y-1343008D02*
X2841253Y-1333484D01*
X2841253Y-1333484D02*
X2888872Y-1333484D01*
X2888872Y-1333484D02*
X2907920Y-1343008D01*
X2907920Y-1343008D02*
X2917444Y-1352531D01*
X2917444Y-1352531D02*
X2926967Y-1371579D01*
X2926967Y-1371579D02*
X2926967Y-1390627D01*
X2926967Y-1390627D02*
X2917444Y-1419198D01*
X2917444Y-1419198D02*
X2803158Y-1533484D01*
X2803158Y-1533484D02*
X2926967Y-1533484D01*
X2993634Y-1333484D02*
X3117444Y-1333484D01*
X3117444Y-1333484D02*
X3050777Y-1409674D01*
X3050777Y-1409674D02*
X3079348Y-1409674D01*
X3079348Y-1409674D02*
X3098396Y-1419198D01*
X3098396Y-1419198D02*
X3107920Y-1428722D01*
X3107920Y-1428722D02*
X3117444Y-1447769D01*
X3117444Y-1447769D02*
X3117444Y-1495388D01*
X3117444Y-1495388D02*
X3107920Y-1514436D01*
X3107920Y-1514436D02*
X3098396Y-1523960D01*
X3098396Y-1523960D02*
X3079348Y-1533484D01*
X3079348Y-1533484D02*
X3022206Y-1533484D01*
X3022206Y-1533484D02*
X3003158Y-1523960D01*
X3003158Y-1523960D02*
X2993634Y-1514436D01*
X3193634Y-1333484D02*
X3193634Y-1371579D01*
X3269825Y-1333484D02*
X3269825Y-1371579D01*
X3565063Y-1609674D02*
X3555539Y-1600150D01*
X3555539Y-1600150D02*
X3536491Y-1571579D01*
X3536491Y-1571579D02*
X3526968Y-1552531D01*
X3526968Y-1552531D02*
X3517444Y-1523960D01*
X3517444Y-1523960D02*
X3507920Y-1476341D01*
X3507920Y-1476341D02*
X3507920Y-1438246D01*
X3507920Y-1438246D02*
X3517444Y-1390627D01*
X3517444Y-1390627D02*
X3526968Y-1362055D01*
X3526968Y-1362055D02*
X3536491Y-1343008D01*
X3536491Y-1343008D02*
X3555539Y-1314436D01*
X3555539Y-1314436D02*
X3565063Y-1304912D01*
X3726968Y-1400150D02*
X3726968Y-1533484D01*
X3679348Y-1323960D02*
X3631729Y-1466817D01*
X3631729Y-1466817D02*
X3755539Y-1466817D01*
X3984110Y-1533484D02*
X3984110Y-1333484D01*
X4069825Y-1533484D02*
X4069825Y-1428722D01*
X4069825Y-1428722D02*
X4060301Y-1409674D01*
X4060301Y-1409674D02*
X4041253Y-1400150D01*
X4041253Y-1400150D02*
X4012682Y-1400150D01*
X4012682Y-1400150D02*
X3993634Y-1409674D01*
X3993634Y-1409674D02*
X3984110Y-1419198D01*
X4193634Y-1533484D02*
X4174587Y-1523960D01*
X4174587Y-1523960D02*
X4165063Y-1514436D01*
X4165063Y-1514436D02*
X4155539Y-1495388D01*
X4155539Y-1495388D02*
X4155539Y-1438246D01*
X4155539Y-1438246D02*
X4165063Y-1419198D01*
X4165063Y-1419198D02*
X4174587Y-1409674D01*
X4174587Y-1409674D02*
X4193634Y-1400150D01*
X4193634Y-1400150D02*
X4222206Y-1400150D01*
X4222206Y-1400150D02*
X4241253Y-1409674D01*
X4241253Y-1409674D02*
X4250777Y-1419198D01*
X4250777Y-1419198D02*
X4260301Y-1438246D01*
X4260301Y-1438246D02*
X4260301Y-1495388D01*
X4260301Y-1495388D02*
X4250777Y-1514436D01*
X4250777Y-1514436D02*
X4241253Y-1523960D01*
X4241253Y-1523960D02*
X4222206Y-1533484D01*
X4222206Y-1533484D02*
X4193634Y-1533484D01*
X4374587Y-1533484D02*
X4355539Y-1523960D01*
X4355539Y-1523960D02*
X4346015Y-1504912D01*
X4346015Y-1504912D02*
X4346015Y-1333484D01*
X4526968Y-1523960D02*
X4507920Y-1533484D01*
X4507920Y-1533484D02*
X4469825Y-1533484D01*
X4469825Y-1533484D02*
X4450777Y-1523960D01*
X4450777Y-1523960D02*
X4441253Y-1504912D01*
X4441253Y-1504912D02*
X4441253Y-1428722D01*
X4441253Y-1428722D02*
X4450777Y-1409674D01*
X4450777Y-1409674D02*
X4469825Y-1400150D01*
X4469825Y-1400150D02*
X4507920Y-1400150D01*
X4507920Y-1400150D02*
X4526968Y-1409674D01*
X4526968Y-1409674D02*
X4536492Y-1428722D01*
X4536492Y-1428722D02*
X4536492Y-1447769D01*
X4536492Y-1447769D02*
X4441253Y-1466817D01*
X4612682Y-1523960D02*
X4631730Y-1533484D01*
X4631730Y-1533484D02*
X4669825Y-1533484D01*
X4669825Y-1533484D02*
X4688873Y-1523960D01*
X4688873Y-1523960D02*
X4698396Y-1504912D01*
X4698396Y-1504912D02*
X4698396Y-1495388D01*
X4698396Y-1495388D02*
X4688873Y-1476341D01*
X4688873Y-1476341D02*
X4669825Y-1466817D01*
X4669825Y-1466817D02*
X4641253Y-1466817D01*
X4641253Y-1466817D02*
X4622206Y-1457293D01*
X4622206Y-1457293D02*
X4612682Y-1438246D01*
X4612682Y-1438246D02*
X4612682Y-1428722D01*
X4612682Y-1428722D02*
X4622206Y-1409674D01*
X4622206Y-1409674D02*
X4641253Y-1400150D01*
X4641253Y-1400150D02*
X4669825Y-1400150D01*
X4669825Y-1400150D02*
X4688873Y-1409674D01*
X4765063Y-1609674D02*
X4774587Y-1600150D01*
X4774587Y-1600150D02*
X4793634Y-1571579D01*
X4793634Y-1571579D02*
X4803158Y-1552531D01*
X4803158Y-1552531D02*
X4812682Y-1523960D01*
X4812682Y-1523960D02*
X4822206Y-1476341D01*
X4822206Y-1476341D02*
X4822206Y-1438246D01*
X4822206Y-1438246D02*
X4812682Y-1390627D01*
X4812682Y-1390627D02*
X4803158Y-1362055D01*
X4803158Y-1362055D02*
X4793634Y-1343008D01*
X4793634Y-1343008D02*
X4774587Y-1314436D01*
X4774587Y-1314436D02*
X4765063Y-1304912D01*
D13*
X-65000Y-1761000D02*
X-10000Y-1706000D01*
X-65000Y-1651000D01*
X-120000Y-1706000D01*
X-65000Y-1761000D01*
D10*
X355539Y-1797484D02*
X241253Y-1797484D01*
X298396Y-1797484D02*
X298396Y-1597484D01*
X298396Y-1597484D02*
X279348Y-1626055D01*
X279348Y-1626055D02*
X260301Y-1645103D01*
X260301Y-1645103D02*
X241253Y-1654627D01*
X441253Y-1778436D02*
X450777Y-1787960D01*
X450777Y-1787960D02*
X441253Y-1797484D01*
X441253Y-1797484D02*
X431729Y-1787960D01*
X431729Y-1787960D02*
X441253Y-1778436D01*
X441253Y-1778436D02*
X441253Y-1797484D01*
X641253Y-1797484D02*
X526967Y-1797484D01*
X584110Y-1797484D02*
X584110Y-1597484D01*
X584110Y-1597484D02*
X565063Y-1626055D01*
X565063Y-1626055D02*
X546015Y-1645103D01*
X546015Y-1645103D02*
X526967Y-1654627D01*
X765062Y-1597484D02*
X784110Y-1597484D01*
X784110Y-1597484D02*
X803158Y-1607008D01*
X803158Y-1607008D02*
X812682Y-1616531D01*
X812682Y-1616531D02*
X822205Y-1635579D01*
X822205Y-1635579D02*
X831729Y-1673674D01*
X831729Y-1673674D02*
X831729Y-1721293D01*
X831729Y-1721293D02*
X822205Y-1759388D01*
X822205Y-1759388D02*
X812682Y-1778436D01*
X812682Y-1778436D02*
X803158Y-1787960D01*
X803158Y-1787960D02*
X784110Y-1797484D01*
X784110Y-1797484D02*
X765062Y-1797484D01*
X765062Y-1797484D02*
X746015Y-1787960D01*
X746015Y-1787960D02*
X736491Y-1778436D01*
X736491Y-1778436D02*
X726967Y-1759388D01*
X726967Y-1759388D02*
X717443Y-1721293D01*
X717443Y-1721293D02*
X717443Y-1673674D01*
X717443Y-1673674D02*
X726967Y-1635579D01*
X726967Y-1635579D02*
X736491Y-1616531D01*
X736491Y-1616531D02*
X746015Y-1607008D01*
X746015Y-1607008D02*
X765062Y-1597484D01*
X955539Y-1597484D02*
X974586Y-1597484D01*
X974586Y-1597484D02*
X993634Y-1607008D01*
X993634Y-1607008D02*
X1003158Y-1616531D01*
X1003158Y-1616531D02*
X1012682Y-1635579D01*
X1012682Y-1635579D02*
X1022205Y-1673674D01*
X1022205Y-1673674D02*
X1022205Y-1721293D01*
X1022205Y-1721293D02*
X1012682Y-1759388D01*
X1012682Y-1759388D02*
X1003158Y-1778436D01*
X1003158Y-1778436D02*
X993634Y-1787960D01*
X993634Y-1787960D02*
X974586Y-1797484D01*
X974586Y-1797484D02*
X955539Y-1797484D01*
X955539Y-1797484D02*
X936491Y-1787960D01*
X936491Y-1787960D02*
X926967Y-1778436D01*
X926967Y-1778436D02*
X917443Y-1759388D01*
X917443Y-1759388D02*
X907920Y-1721293D01*
X907920Y-1721293D02*
X907920Y-1673674D01*
X907920Y-1673674D02*
X917443Y-1635579D01*
X917443Y-1635579D02*
X926967Y-1616531D01*
X926967Y-1616531D02*
X936491Y-1607008D01*
X936491Y-1607008D02*
X955539Y-1597484D01*
X1107920Y-1797484D02*
X1107920Y-1664150D01*
X1107920Y-1683198D02*
X1117444Y-1673674D01*
X1117444Y-1673674D02*
X1136491Y-1664150D01*
X1136491Y-1664150D02*
X1165063Y-1664150D01*
X1165063Y-1664150D02*
X1184110Y-1673674D01*
X1184110Y-1673674D02*
X1193634Y-1692722D01*
X1193634Y-1692722D02*
X1193634Y-1797484D01*
X1193634Y-1692722D02*
X1203158Y-1673674D01*
X1203158Y-1673674D02*
X1222205Y-1664150D01*
X1222205Y-1664150D02*
X1250777Y-1664150D01*
X1250777Y-1664150D02*
X1269825Y-1673674D01*
X1269825Y-1673674D02*
X1279348Y-1692722D01*
X1279348Y-1692722D02*
X1279348Y-1797484D01*
X1374586Y-1797484D02*
X1374586Y-1664150D01*
X1374586Y-1683198D02*
X1384110Y-1673674D01*
X1384110Y-1673674D02*
X1403158Y-1664150D01*
X1403158Y-1664150D02*
X1431729Y-1664150D01*
X1431729Y-1664150D02*
X1450777Y-1673674D01*
X1450777Y-1673674D02*
X1460301Y-1692722D01*
X1460301Y-1692722D02*
X1460301Y-1797484D01*
X1460301Y-1692722D02*
X1469824Y-1673674D01*
X1469824Y-1673674D02*
X1488872Y-1664150D01*
X1488872Y-1664150D02*
X1517443Y-1664150D01*
X1517443Y-1664150D02*
X1536491Y-1673674D01*
X1536491Y-1673674D02*
X1546015Y-1692722D01*
X1546015Y-1692722D02*
X1546015Y-1797484D01*
X1936491Y-1587960D02*
X1765063Y-1845103D01*
X2193634Y-1597484D02*
X2212682Y-1597484D01*
X2212682Y-1597484D02*
X2231729Y-1607008D01*
X2231729Y-1607008D02*
X2241253Y-1616531D01*
X2241253Y-1616531D02*
X2250777Y-1635579D01*
X2250777Y-1635579D02*
X2260301Y-1673674D01*
X2260301Y-1673674D02*
X2260301Y-1721293D01*
X2260301Y-1721293D02*
X2250777Y-1759388D01*
X2250777Y-1759388D02*
X2241253Y-1778436D01*
X2241253Y-1778436D02*
X2231729Y-1787960D01*
X2231729Y-1787960D02*
X2212682Y-1797484D01*
X2212682Y-1797484D02*
X2193634Y-1797484D01*
X2193634Y-1797484D02*
X2174587Y-1787960D01*
X2174587Y-1787960D02*
X2165063Y-1778436D01*
X2165063Y-1778436D02*
X2155539Y-1759388D01*
X2155539Y-1759388D02*
X2146015Y-1721293D01*
X2146015Y-1721293D02*
X2146015Y-1673674D01*
X2146015Y-1673674D02*
X2155539Y-1635579D01*
X2155539Y-1635579D02*
X2165063Y-1616531D01*
X2165063Y-1616531D02*
X2174587Y-1607008D01*
X2174587Y-1607008D02*
X2193634Y-1597484D01*
X2346015Y-1778436D02*
X2355539Y-1787960D01*
X2355539Y-1787960D02*
X2346015Y-1797484D01*
X2346015Y-1797484D02*
X2336491Y-1787960D01*
X2336491Y-1787960D02*
X2346015Y-1778436D01*
X2346015Y-1778436D02*
X2346015Y-1797484D01*
X2479348Y-1597484D02*
X2498396Y-1597484D01*
X2498396Y-1597484D02*
X2517444Y-1607008D01*
X2517444Y-1607008D02*
X2526968Y-1616531D01*
X2526968Y-1616531D02*
X2536491Y-1635579D01*
X2536491Y-1635579D02*
X2546015Y-1673674D01*
X2546015Y-1673674D02*
X2546015Y-1721293D01*
X2546015Y-1721293D02*
X2536491Y-1759388D01*
X2536491Y-1759388D02*
X2526968Y-1778436D01*
X2526968Y-1778436D02*
X2517444Y-1787960D01*
X2517444Y-1787960D02*
X2498396Y-1797484D01*
X2498396Y-1797484D02*
X2479348Y-1797484D01*
X2479348Y-1797484D02*
X2460301Y-1787960D01*
X2460301Y-1787960D02*
X2450777Y-1778436D01*
X2450777Y-1778436D02*
X2441253Y-1759388D01*
X2441253Y-1759388D02*
X2431729Y-1721293D01*
X2431729Y-1721293D02*
X2431729Y-1673674D01*
X2431729Y-1673674D02*
X2441253Y-1635579D01*
X2441253Y-1635579D02*
X2450777Y-1616531D01*
X2450777Y-1616531D02*
X2460301Y-1607008D01*
X2460301Y-1607008D02*
X2479348Y-1597484D01*
X2717444Y-1664150D02*
X2717444Y-1797484D01*
X2669825Y-1587960D02*
X2622206Y-1730817D01*
X2622206Y-1730817D02*
X2746015Y-1730817D01*
X2803158Y-1597484D02*
X2926967Y-1597484D01*
X2926967Y-1597484D02*
X2860301Y-1673674D01*
X2860301Y-1673674D02*
X2888872Y-1673674D01*
X2888872Y-1673674D02*
X2907920Y-1683198D01*
X2907920Y-1683198D02*
X2917444Y-1692722D01*
X2917444Y-1692722D02*
X2926967Y-1711769D01*
X2926967Y-1711769D02*
X2926967Y-1759388D01*
X2926967Y-1759388D02*
X2917444Y-1778436D01*
X2917444Y-1778436D02*
X2907920Y-1787960D01*
X2907920Y-1787960D02*
X2888872Y-1797484D01*
X2888872Y-1797484D02*
X2831729Y-1797484D01*
X2831729Y-1797484D02*
X2812682Y-1787960D01*
X2812682Y-1787960D02*
X2803158Y-1778436D01*
X2993634Y-1597484D02*
X3117444Y-1597484D01*
X3117444Y-1597484D02*
X3050777Y-1673674D01*
X3050777Y-1673674D02*
X3079348Y-1673674D01*
X3079348Y-1673674D02*
X3098396Y-1683198D01*
X3098396Y-1683198D02*
X3107920Y-1692722D01*
X3107920Y-1692722D02*
X3117444Y-1711769D01*
X3117444Y-1711769D02*
X3117444Y-1759388D01*
X3117444Y-1759388D02*
X3107920Y-1778436D01*
X3107920Y-1778436D02*
X3098396Y-1787960D01*
X3098396Y-1787960D02*
X3079348Y-1797484D01*
X3079348Y-1797484D02*
X3022206Y-1797484D01*
X3022206Y-1797484D02*
X3003158Y-1787960D01*
X3003158Y-1787960D02*
X2993634Y-1778436D01*
X3193634Y-1597484D02*
X3193634Y-1635579D01*
X3269825Y-1597484D02*
X3269825Y-1635579D01*
X3565063Y-1873674D02*
X3555539Y-1864150D01*
X3555539Y-1864150D02*
X3536491Y-1835579D01*
X3536491Y-1835579D02*
X3526968Y-1816531D01*
X3526968Y-1816531D02*
X3517444Y-1787960D01*
X3517444Y-1787960D02*
X3507920Y-1740341D01*
X3507920Y-1740341D02*
X3507920Y-1702246D01*
X3507920Y-1702246D02*
X3517444Y-1654627D01*
X3517444Y-1654627D02*
X3526968Y-1626055D01*
X3526968Y-1626055D02*
X3536491Y-1607008D01*
X3536491Y-1607008D02*
X3555539Y-1578436D01*
X3555539Y-1578436D02*
X3565063Y-1568912D01*
X3669825Y-1683198D02*
X3650777Y-1673674D01*
X3650777Y-1673674D02*
X3641253Y-1664150D01*
X3641253Y-1664150D02*
X3631729Y-1645103D01*
X3631729Y-1645103D02*
X3631729Y-1635579D01*
X3631729Y-1635579D02*
X3641253Y-1616531D01*
X3641253Y-1616531D02*
X3650777Y-1607008D01*
X3650777Y-1607008D02*
X3669825Y-1597484D01*
X3669825Y-1597484D02*
X3707920Y-1597484D01*
X3707920Y-1597484D02*
X3726968Y-1607008D01*
X3726968Y-1607008D02*
X3736491Y-1616531D01*
X3736491Y-1616531D02*
X3746015Y-1635579D01*
X3746015Y-1635579D02*
X3746015Y-1645103D01*
X3746015Y-1645103D02*
X3736491Y-1664150D01*
X3736491Y-1664150D02*
X3726968Y-1673674D01*
X3726968Y-1673674D02*
X3707920Y-1683198D01*
X3707920Y-1683198D02*
X3669825Y-1683198D01*
X3669825Y-1683198D02*
X3650777Y-1692722D01*
X3650777Y-1692722D02*
X3641253Y-1702246D01*
X3641253Y-1702246D02*
X3631729Y-1721293D01*
X3631729Y-1721293D02*
X3631729Y-1759388D01*
X3631729Y-1759388D02*
X3641253Y-1778436D01*
X3641253Y-1778436D02*
X3650777Y-1787960D01*
X3650777Y-1787960D02*
X3669825Y-1797484D01*
X3669825Y-1797484D02*
X3707920Y-1797484D01*
X3707920Y-1797484D02*
X3726968Y-1787960D01*
X3726968Y-1787960D02*
X3736491Y-1778436D01*
X3736491Y-1778436D02*
X3746015Y-1759388D01*
X3746015Y-1759388D02*
X3746015Y-1721293D01*
X3746015Y-1721293D02*
X3736491Y-1702246D01*
X3736491Y-1702246D02*
X3726968Y-1692722D01*
X3726968Y-1692722D02*
X3707920Y-1683198D01*
X3984110Y-1797484D02*
X3984110Y-1597484D01*
X4069825Y-1797484D02*
X4069825Y-1692722D01*
X4069825Y-1692722D02*
X4060301Y-1673674D01*
X4060301Y-1673674D02*
X4041253Y-1664150D01*
X4041253Y-1664150D02*
X4012682Y-1664150D01*
X4012682Y-1664150D02*
X3993634Y-1673674D01*
X3993634Y-1673674D02*
X3984110Y-1683198D01*
X4193634Y-1797484D02*
X4174587Y-1787960D01*
X4174587Y-1787960D02*
X4165063Y-1778436D01*
X4165063Y-1778436D02*
X4155539Y-1759388D01*
X4155539Y-1759388D02*
X4155539Y-1702246D01*
X4155539Y-1702246D02*
X4165063Y-1683198D01*
X4165063Y-1683198D02*
X4174587Y-1673674D01*
X4174587Y-1673674D02*
X4193634Y-1664150D01*
X4193634Y-1664150D02*
X4222206Y-1664150D01*
X4222206Y-1664150D02*
X4241253Y-1673674D01*
X4241253Y-1673674D02*
X4250777Y-1683198D01*
X4250777Y-1683198D02*
X4260301Y-1702246D01*
X4260301Y-1702246D02*
X4260301Y-1759388D01*
X4260301Y-1759388D02*
X4250777Y-1778436D01*
X4250777Y-1778436D02*
X4241253Y-1787960D01*
X4241253Y-1787960D02*
X4222206Y-1797484D01*
X4222206Y-1797484D02*
X4193634Y-1797484D01*
X4374587Y-1797484D02*
X4355539Y-1787960D01*
X4355539Y-1787960D02*
X4346015Y-1768912D01*
X4346015Y-1768912D02*
X4346015Y-1597484D01*
X4526968Y-1787960D02*
X4507920Y-1797484D01*
X4507920Y-1797484D02*
X4469825Y-1797484D01*
X4469825Y-1797484D02*
X4450777Y-1787960D01*
X4450777Y-1787960D02*
X4441253Y-1768912D01*
X4441253Y-1768912D02*
X4441253Y-1692722D01*
X4441253Y-1692722D02*
X4450777Y-1673674D01*
X4450777Y-1673674D02*
X4469825Y-1664150D01*
X4469825Y-1664150D02*
X4507920Y-1664150D01*
X4507920Y-1664150D02*
X4526968Y-1673674D01*
X4526968Y-1673674D02*
X4536492Y-1692722D01*
X4536492Y-1692722D02*
X4536492Y-1711769D01*
X4536492Y-1711769D02*
X4441253Y-1730817D01*
X4612682Y-1787960D02*
X4631730Y-1797484D01*
X4631730Y-1797484D02*
X4669825Y-1797484D01*
X4669825Y-1797484D02*
X4688873Y-1787960D01*
X4688873Y-1787960D02*
X4698396Y-1768912D01*
X4698396Y-1768912D02*
X4698396Y-1759388D01*
X4698396Y-1759388D02*
X4688873Y-1740341D01*
X4688873Y-1740341D02*
X4669825Y-1730817D01*
X4669825Y-1730817D02*
X4641253Y-1730817D01*
X4641253Y-1730817D02*
X4622206Y-1721293D01*
X4622206Y-1721293D02*
X4612682Y-1702246D01*
X4612682Y-1702246D02*
X4612682Y-1692722D01*
X4612682Y-1692722D02*
X4622206Y-1673674D01*
X4622206Y-1673674D02*
X4641253Y-1664150D01*
X4641253Y-1664150D02*
X4669825Y-1664150D01*
X4669825Y-1664150D02*
X4688873Y-1673674D01*
X4765063Y-1873674D02*
X4774587Y-1864150D01*
X4774587Y-1864150D02*
X4793634Y-1835579D01*
X4793634Y-1835579D02*
X4803158Y-1816531D01*
X4803158Y-1816531D02*
X4812682Y-1787960D01*
X4812682Y-1787960D02*
X4822206Y-1740341D01*
X4822206Y-1740341D02*
X4822206Y-1702246D01*
X4822206Y-1702246D02*
X4812682Y-1654627D01*
X4812682Y-1654627D02*
X4803158Y-1626055D01*
X4803158Y-1626055D02*
X4793634Y-1607008D01*
X4793634Y-1607008D02*
X4774587Y-1578436D01*
X4774587Y-1578436D02*
X4765063Y-1568912D01*
D14*
X-190000Y-1880000D02*
X-10000Y-2060000D01*
X-10000Y-1880000D02*
X-190000Y-2060000D01*
X-10000Y-1970000D02*
G75*
G02*
X-190000Y-1970000I-90000J0D01*
G01*
X-190000Y-1970000D02*
G75*
G02*
X-10000Y-1970000I90000J0D01*
G01*
D10*
X355539Y-2061484D02*
X241253Y-2061484D01*
X298396Y-2061484D02*
X298396Y-1861484D01*
X298396Y-1861484D02*
X279348Y-1890055D01*
X279348Y-1890055D02*
X260301Y-1909103D01*
X260301Y-1909103D02*
X241253Y-1918627D01*
X441253Y-2042436D02*
X450777Y-2051960D01*
X450777Y-2051960D02*
X441253Y-2061484D01*
X441253Y-2061484D02*
X431729Y-2051960D01*
X431729Y-2051960D02*
X441253Y-2042436D01*
X441253Y-2042436D02*
X441253Y-2061484D01*
X565063Y-1947198D02*
X546015Y-1937674D01*
X546015Y-1937674D02*
X536491Y-1928150D01*
X536491Y-1928150D02*
X526967Y-1909103D01*
X526967Y-1909103D02*
X526967Y-1899579D01*
X526967Y-1899579D02*
X536491Y-1880531D01*
X536491Y-1880531D02*
X546015Y-1871008D01*
X546015Y-1871008D02*
X565063Y-1861484D01*
X565063Y-1861484D02*
X603158Y-1861484D01*
X603158Y-1861484D02*
X622205Y-1871008D01*
X622205Y-1871008D02*
X631729Y-1880531D01*
X631729Y-1880531D02*
X641253Y-1899579D01*
X641253Y-1899579D02*
X641253Y-1909103D01*
X641253Y-1909103D02*
X631729Y-1928150D01*
X631729Y-1928150D02*
X622205Y-1937674D01*
X622205Y-1937674D02*
X603158Y-1947198D01*
X603158Y-1947198D02*
X565063Y-1947198D01*
X565063Y-1947198D02*
X546015Y-1956722D01*
X546015Y-1956722D02*
X536491Y-1966246D01*
X536491Y-1966246D02*
X526967Y-1985293D01*
X526967Y-1985293D02*
X526967Y-2023388D01*
X526967Y-2023388D02*
X536491Y-2042436D01*
X536491Y-2042436D02*
X546015Y-2051960D01*
X546015Y-2051960D02*
X565063Y-2061484D01*
X565063Y-2061484D02*
X603158Y-2061484D01*
X603158Y-2061484D02*
X622205Y-2051960D01*
X622205Y-2051960D02*
X631729Y-2042436D01*
X631729Y-2042436D02*
X641253Y-2023388D01*
X641253Y-2023388D02*
X641253Y-1985293D01*
X641253Y-1985293D02*
X631729Y-1966246D01*
X631729Y-1966246D02*
X622205Y-1956722D01*
X622205Y-1956722D02*
X603158Y-1947198D01*
X765062Y-1861484D02*
X784110Y-1861484D01*
X784110Y-1861484D02*
X803158Y-1871008D01*
X803158Y-1871008D02*
X812682Y-1880531D01*
X812682Y-1880531D02*
X822205Y-1899579D01*
X822205Y-1899579D02*
X831729Y-1937674D01*
X831729Y-1937674D02*
X831729Y-1985293D01*
X831729Y-1985293D02*
X822205Y-2023388D01*
X822205Y-2023388D02*
X812682Y-2042436D01*
X812682Y-2042436D02*
X803158Y-2051960D01*
X803158Y-2051960D02*
X784110Y-2061484D01*
X784110Y-2061484D02*
X765062Y-2061484D01*
X765062Y-2061484D02*
X746015Y-2051960D01*
X746015Y-2051960D02*
X736491Y-2042436D01*
X736491Y-2042436D02*
X726967Y-2023388D01*
X726967Y-2023388D02*
X717443Y-1985293D01*
X717443Y-1985293D02*
X717443Y-1937674D01*
X717443Y-1937674D02*
X726967Y-1899579D01*
X726967Y-1899579D02*
X736491Y-1880531D01*
X736491Y-1880531D02*
X746015Y-1871008D01*
X746015Y-1871008D02*
X765062Y-1861484D01*
X955539Y-1861484D02*
X974586Y-1861484D01*
X974586Y-1861484D02*
X993634Y-1871008D01*
X993634Y-1871008D02*
X1003158Y-1880531D01*
X1003158Y-1880531D02*
X1012682Y-1899579D01*
X1012682Y-1899579D02*
X1022205Y-1937674D01*
X1022205Y-1937674D02*
X1022205Y-1985293D01*
X1022205Y-1985293D02*
X1012682Y-2023388D01*
X1012682Y-2023388D02*
X1003158Y-2042436D01*
X1003158Y-2042436D02*
X993634Y-2051960D01*
X993634Y-2051960D02*
X974586Y-2061484D01*
X974586Y-2061484D02*
X955539Y-2061484D01*
X955539Y-2061484D02*
X936491Y-2051960D01*
X936491Y-2051960D02*
X926967Y-2042436D01*
X926967Y-2042436D02*
X917443Y-2023388D01*
X917443Y-2023388D02*
X907920Y-1985293D01*
X907920Y-1985293D02*
X907920Y-1937674D01*
X907920Y-1937674D02*
X917443Y-1899579D01*
X917443Y-1899579D02*
X926967Y-1880531D01*
X926967Y-1880531D02*
X936491Y-1871008D01*
X936491Y-1871008D02*
X955539Y-1861484D01*
X1107920Y-2061484D02*
X1107920Y-1928150D01*
X1107920Y-1947198D02*
X1117444Y-1937674D01*
X1117444Y-1937674D02*
X1136491Y-1928150D01*
X1136491Y-1928150D02*
X1165063Y-1928150D01*
X1165063Y-1928150D02*
X1184110Y-1937674D01*
X1184110Y-1937674D02*
X1193634Y-1956722D01*
X1193634Y-1956722D02*
X1193634Y-2061484D01*
X1193634Y-1956722D02*
X1203158Y-1937674D01*
X1203158Y-1937674D02*
X1222205Y-1928150D01*
X1222205Y-1928150D02*
X1250777Y-1928150D01*
X1250777Y-1928150D02*
X1269825Y-1937674D01*
X1269825Y-1937674D02*
X1279348Y-1956722D01*
X1279348Y-1956722D02*
X1279348Y-2061484D01*
X1374586Y-2061484D02*
X1374586Y-1928150D01*
X1374586Y-1947198D02*
X1384110Y-1937674D01*
X1384110Y-1937674D02*
X1403158Y-1928150D01*
X1403158Y-1928150D02*
X1431729Y-1928150D01*
X1431729Y-1928150D02*
X1450777Y-1937674D01*
X1450777Y-1937674D02*
X1460301Y-1956722D01*
X1460301Y-1956722D02*
X1460301Y-2061484D01*
X1460301Y-1956722D02*
X1469824Y-1937674D01*
X1469824Y-1937674D02*
X1488872Y-1928150D01*
X1488872Y-1928150D02*
X1517443Y-1928150D01*
X1517443Y-1928150D02*
X1536491Y-1937674D01*
X1536491Y-1937674D02*
X1546015Y-1956722D01*
X1546015Y-1956722D02*
X1546015Y-2061484D01*
X1936491Y-1851960D02*
X1765063Y-2109103D01*
X2193634Y-1861484D02*
X2212682Y-1861484D01*
X2212682Y-1861484D02*
X2231729Y-1871008D01*
X2231729Y-1871008D02*
X2241253Y-1880531D01*
X2241253Y-1880531D02*
X2250777Y-1899579D01*
X2250777Y-1899579D02*
X2260301Y-1937674D01*
X2260301Y-1937674D02*
X2260301Y-1985293D01*
X2260301Y-1985293D02*
X2250777Y-2023388D01*
X2250777Y-2023388D02*
X2241253Y-2042436D01*
X2241253Y-2042436D02*
X2231729Y-2051960D01*
X2231729Y-2051960D02*
X2212682Y-2061484D01*
X2212682Y-2061484D02*
X2193634Y-2061484D01*
X2193634Y-2061484D02*
X2174587Y-2051960D01*
X2174587Y-2051960D02*
X2165063Y-2042436D01*
X2165063Y-2042436D02*
X2155539Y-2023388D01*
X2155539Y-2023388D02*
X2146015Y-1985293D01*
X2146015Y-1985293D02*
X2146015Y-1937674D01*
X2146015Y-1937674D02*
X2155539Y-1899579D01*
X2155539Y-1899579D02*
X2165063Y-1880531D01*
X2165063Y-1880531D02*
X2174587Y-1871008D01*
X2174587Y-1871008D02*
X2193634Y-1861484D01*
X2346015Y-2042436D02*
X2355539Y-2051960D01*
X2355539Y-2051960D02*
X2346015Y-2061484D01*
X2346015Y-2061484D02*
X2336491Y-2051960D01*
X2336491Y-2051960D02*
X2346015Y-2042436D01*
X2346015Y-2042436D02*
X2346015Y-2061484D01*
X2479348Y-1861484D02*
X2498396Y-1861484D01*
X2498396Y-1861484D02*
X2517444Y-1871008D01*
X2517444Y-1871008D02*
X2526968Y-1880531D01*
X2526968Y-1880531D02*
X2536491Y-1899579D01*
X2536491Y-1899579D02*
X2546015Y-1937674D01*
X2546015Y-1937674D02*
X2546015Y-1985293D01*
X2546015Y-1985293D02*
X2536491Y-2023388D01*
X2536491Y-2023388D02*
X2526968Y-2042436D01*
X2526968Y-2042436D02*
X2517444Y-2051960D01*
X2517444Y-2051960D02*
X2498396Y-2061484D01*
X2498396Y-2061484D02*
X2479348Y-2061484D01*
X2479348Y-2061484D02*
X2460301Y-2051960D01*
X2460301Y-2051960D02*
X2450777Y-2042436D01*
X2450777Y-2042436D02*
X2441253Y-2023388D01*
X2441253Y-2023388D02*
X2431729Y-1985293D01*
X2431729Y-1985293D02*
X2431729Y-1937674D01*
X2431729Y-1937674D02*
X2441253Y-1899579D01*
X2441253Y-1899579D02*
X2450777Y-1880531D01*
X2450777Y-1880531D02*
X2460301Y-1871008D01*
X2460301Y-1871008D02*
X2479348Y-1861484D01*
X2612682Y-1861484D02*
X2746015Y-1861484D01*
X2746015Y-1861484D02*
X2660301Y-2061484D01*
X2860301Y-1861484D02*
X2879348Y-1861484D01*
X2879348Y-1861484D02*
X2898396Y-1871008D01*
X2898396Y-1871008D02*
X2907920Y-1880531D01*
X2907920Y-1880531D02*
X2917444Y-1899579D01*
X2917444Y-1899579D02*
X2926967Y-1937674D01*
X2926967Y-1937674D02*
X2926967Y-1985293D01*
X2926967Y-1985293D02*
X2917444Y-2023388D01*
X2917444Y-2023388D02*
X2907920Y-2042436D01*
X2907920Y-2042436D02*
X2898396Y-2051960D01*
X2898396Y-2051960D02*
X2879348Y-2061484D01*
X2879348Y-2061484D02*
X2860301Y-2061484D01*
X2860301Y-2061484D02*
X2841253Y-2051960D01*
X2841253Y-2051960D02*
X2831729Y-2042436D01*
X2831729Y-2042436D02*
X2822206Y-2023388D01*
X2822206Y-2023388D02*
X2812682Y-1985293D01*
X2812682Y-1985293D02*
X2812682Y-1937674D01*
X2812682Y-1937674D02*
X2822206Y-1899579D01*
X2822206Y-1899579D02*
X2831729Y-1880531D01*
X2831729Y-1880531D02*
X2841253Y-1871008D01*
X2841253Y-1871008D02*
X2860301Y-1861484D01*
X3022206Y-2061484D02*
X3060301Y-2061484D01*
X3060301Y-2061484D02*
X3079348Y-2051960D01*
X3079348Y-2051960D02*
X3088872Y-2042436D01*
X3088872Y-2042436D02*
X3107920Y-2013865D01*
X3107920Y-2013865D02*
X3117444Y-1975769D01*
X3117444Y-1975769D02*
X3117444Y-1899579D01*
X3117444Y-1899579D02*
X3107920Y-1880531D01*
X3107920Y-1880531D02*
X3098396Y-1871008D01*
X3098396Y-1871008D02*
X3079348Y-1861484D01*
X3079348Y-1861484D02*
X3041253Y-1861484D01*
X3041253Y-1861484D02*
X3022206Y-1871008D01*
X3022206Y-1871008D02*
X3012682Y-1880531D01*
X3012682Y-1880531D02*
X3003158Y-1899579D01*
X3003158Y-1899579D02*
X3003158Y-1947198D01*
X3003158Y-1947198D02*
X3012682Y-1966246D01*
X3012682Y-1966246D02*
X3022206Y-1975769D01*
X3022206Y-1975769D02*
X3041253Y-1985293D01*
X3041253Y-1985293D02*
X3079348Y-1985293D01*
X3079348Y-1985293D02*
X3098396Y-1975769D01*
X3098396Y-1975769D02*
X3107920Y-1966246D01*
X3107920Y-1966246D02*
X3117444Y-1947198D01*
X3193634Y-1861484D02*
X3193634Y-1899579D01*
X3269825Y-1861484D02*
X3269825Y-1899579D01*
X3565063Y-2137674D02*
X3555539Y-2128150D01*
X3555539Y-2128150D02*
X3536491Y-2099579D01*
X3536491Y-2099579D02*
X3526968Y-2080531D01*
X3526968Y-2080531D02*
X3517444Y-2051960D01*
X3517444Y-2051960D02*
X3507920Y-2004341D01*
X3507920Y-2004341D02*
X3507920Y-1966246D01*
X3507920Y-1966246D02*
X3517444Y-1918627D01*
X3517444Y-1918627D02*
X3526968Y-1890055D01*
X3526968Y-1890055D02*
X3536491Y-1871008D01*
X3536491Y-1871008D02*
X3555539Y-1842436D01*
X3555539Y-1842436D02*
X3565063Y-1832912D01*
X3679348Y-1861484D02*
X3698396Y-1861484D01*
X3698396Y-1861484D02*
X3717444Y-1871008D01*
X3717444Y-1871008D02*
X3726968Y-1880531D01*
X3726968Y-1880531D02*
X3736491Y-1899579D01*
X3736491Y-1899579D02*
X3746015Y-1937674D01*
X3746015Y-1937674D02*
X3746015Y-1985293D01*
X3746015Y-1985293D02*
X3736491Y-2023388D01*
X3736491Y-2023388D02*
X3726968Y-2042436D01*
X3726968Y-2042436D02*
X3717444Y-2051960D01*
X3717444Y-2051960D02*
X3698396Y-2061484D01*
X3698396Y-2061484D02*
X3679348Y-2061484D01*
X3679348Y-2061484D02*
X3660301Y-2051960D01*
X3660301Y-2051960D02*
X3650777Y-2042436D01*
X3650777Y-2042436D02*
X3641253Y-2023388D01*
X3641253Y-2023388D02*
X3631729Y-1985293D01*
X3631729Y-1985293D02*
X3631729Y-1937674D01*
X3631729Y-1937674D02*
X3641253Y-1899579D01*
X3641253Y-1899579D02*
X3650777Y-1880531D01*
X3650777Y-1880531D02*
X3660301Y-1871008D01*
X3660301Y-1871008D02*
X3679348Y-1861484D01*
X3984110Y-2061484D02*
X3984110Y-1861484D01*
X4069825Y-2061484D02*
X4069825Y-1956722D01*
X4069825Y-1956722D02*
X4060301Y-1937674D01*
X4060301Y-1937674D02*
X4041253Y-1928150D01*
X4041253Y-1928150D02*
X4012682Y-1928150D01*
X4012682Y-1928150D02*
X3993634Y-1937674D01*
X3993634Y-1937674D02*
X3984110Y-1947198D01*
X4193634Y-2061484D02*
X4174587Y-2051960D01*
X4174587Y-2051960D02*
X4165063Y-2042436D01*
X4165063Y-2042436D02*
X4155539Y-2023388D01*
X4155539Y-2023388D02*
X4155539Y-1966246D01*
X4155539Y-1966246D02*
X4165063Y-1947198D01*
X4165063Y-1947198D02*
X4174587Y-1937674D01*
X4174587Y-1937674D02*
X4193634Y-1928150D01*
X4193634Y-1928150D02*
X4222206Y-1928150D01*
X4222206Y-1928150D02*
X4241253Y-1937674D01*
X4241253Y-1937674D02*
X4250777Y-1947198D01*
X4250777Y-1947198D02*
X4260301Y-1966246D01*
X4260301Y-1966246D02*
X4260301Y-2023388D01*
X4260301Y-2023388D02*
X4250777Y-2042436D01*
X4250777Y-2042436D02*
X4241253Y-2051960D01*
X4241253Y-2051960D02*
X4222206Y-2061484D01*
X4222206Y-2061484D02*
X4193634Y-2061484D01*
X4374587Y-2061484D02*
X4355539Y-2051960D01*
X4355539Y-2051960D02*
X4346015Y-2032912D01*
X4346015Y-2032912D02*
X4346015Y-1861484D01*
X4526968Y-2051960D02*
X4507920Y-2061484D01*
X4507920Y-2061484D02*
X4469825Y-2061484D01*
X4469825Y-2061484D02*
X4450777Y-2051960D01*
X4450777Y-2051960D02*
X4441253Y-2032912D01*
X4441253Y-2032912D02*
X4441253Y-1956722D01*
X4441253Y-1956722D02*
X4450777Y-1937674D01*
X4450777Y-1937674D02*
X4469825Y-1928150D01*
X4469825Y-1928150D02*
X4507920Y-1928150D01*
X4507920Y-1928150D02*
X4526968Y-1937674D01*
X4526968Y-1937674D02*
X4536492Y-1956722D01*
X4536492Y-1956722D02*
X4536492Y-1975769D01*
X4536492Y-1975769D02*
X4441253Y-1994817D01*
X4612682Y-2051960D02*
X4631730Y-2061484D01*
X4631730Y-2061484D02*
X4669825Y-2061484D01*
X4669825Y-2061484D02*
X4688873Y-2051960D01*
X4688873Y-2051960D02*
X4698396Y-2032912D01*
X4698396Y-2032912D02*
X4698396Y-2023388D01*
X4698396Y-2023388D02*
X4688873Y-2004341D01*
X4688873Y-2004341D02*
X4669825Y-1994817D01*
X4669825Y-1994817D02*
X4641253Y-1994817D01*
X4641253Y-1994817D02*
X4622206Y-1985293D01*
X4622206Y-1985293D02*
X4612682Y-1966246D01*
X4612682Y-1966246D02*
X4612682Y-1956722D01*
X4612682Y-1956722D02*
X4622206Y-1937674D01*
X4622206Y-1937674D02*
X4641253Y-1928150D01*
X4641253Y-1928150D02*
X4669825Y-1928150D01*
X4669825Y-1928150D02*
X4688873Y-1937674D01*
X4936492Y-1985293D02*
X5088873Y-1985293D01*
X5012682Y-2061484D02*
X5012682Y-1909103D01*
X5365063Y-1947198D02*
X5346015Y-1937674D01*
X5346015Y-1937674D02*
X5336492Y-1928150D01*
X5336492Y-1928150D02*
X5326968Y-1909103D01*
X5326968Y-1909103D02*
X5326968Y-1899579D01*
X5326968Y-1899579D02*
X5336492Y-1880531D01*
X5336492Y-1880531D02*
X5346015Y-1871008D01*
X5346015Y-1871008D02*
X5365063Y-1861484D01*
X5365063Y-1861484D02*
X5403158Y-1861484D01*
X5403158Y-1861484D02*
X5422206Y-1871008D01*
X5422206Y-1871008D02*
X5431730Y-1880531D01*
X5431730Y-1880531D02*
X5441254Y-1899579D01*
X5441254Y-1899579D02*
X5441254Y-1909103D01*
X5441254Y-1909103D02*
X5431730Y-1928150D01*
X5431730Y-1928150D02*
X5422206Y-1937674D01*
X5422206Y-1937674D02*
X5403158Y-1947198D01*
X5403158Y-1947198D02*
X5365063Y-1947198D01*
X5365063Y-1947198D02*
X5346015Y-1956722D01*
X5346015Y-1956722D02*
X5336492Y-1966246D01*
X5336492Y-1966246D02*
X5326968Y-1985293D01*
X5326968Y-1985293D02*
X5326968Y-2023388D01*
X5326968Y-2023388D02*
X5336492Y-2042436D01*
X5336492Y-2042436D02*
X5346015Y-2051960D01*
X5346015Y-2051960D02*
X5365063Y-2061484D01*
X5365063Y-2061484D02*
X5403158Y-2061484D01*
X5403158Y-2061484D02*
X5422206Y-2051960D01*
X5422206Y-2051960D02*
X5431730Y-2042436D01*
X5431730Y-2042436D02*
X5441254Y-2023388D01*
X5441254Y-2023388D02*
X5441254Y-1985293D01*
X5441254Y-1985293D02*
X5431730Y-1966246D01*
X5431730Y-1966246D02*
X5422206Y-1956722D01*
X5422206Y-1956722D02*
X5403158Y-1947198D01*
X5669825Y-2051960D02*
X5688873Y-2061484D01*
X5688873Y-2061484D02*
X5726968Y-2061484D01*
X5726968Y-2061484D02*
X5746015Y-2051960D01*
X5746015Y-2051960D02*
X5755539Y-2032912D01*
X5755539Y-2032912D02*
X5755539Y-2023388D01*
X5755539Y-2023388D02*
X5746015Y-2004341D01*
X5746015Y-2004341D02*
X5726968Y-1994817D01*
X5726968Y-1994817D02*
X5698396Y-1994817D01*
X5698396Y-1994817D02*
X5679349Y-1985293D01*
X5679349Y-1985293D02*
X5669825Y-1966246D01*
X5669825Y-1966246D02*
X5669825Y-1956722D01*
X5669825Y-1956722D02*
X5679349Y-1937674D01*
X5679349Y-1937674D02*
X5698396Y-1928150D01*
X5698396Y-1928150D02*
X5726968Y-1928150D01*
X5726968Y-1928150D02*
X5746015Y-1937674D01*
X5869825Y-2061484D02*
X5850777Y-2051960D01*
X5850777Y-2051960D02*
X5841254Y-2032912D01*
X5841254Y-2032912D02*
X5841254Y-1861484D01*
X5974587Y-2061484D02*
X5955539Y-2051960D01*
X5955539Y-2051960D02*
X5946015Y-2042436D01*
X5946015Y-2042436D02*
X5936492Y-2023388D01*
X5936492Y-2023388D02*
X5936492Y-1966246D01*
X5936492Y-1966246D02*
X5946015Y-1947198D01*
X5946015Y-1947198D02*
X5955539Y-1937674D01*
X5955539Y-1937674D02*
X5974587Y-1928150D01*
X5974587Y-1928150D02*
X6003158Y-1928150D01*
X6003158Y-1928150D02*
X6022206Y-1937674D01*
X6022206Y-1937674D02*
X6031730Y-1947198D01*
X6031730Y-1947198D02*
X6041254Y-1966246D01*
X6041254Y-1966246D02*
X6041254Y-2023388D01*
X6041254Y-2023388D02*
X6031730Y-2042436D01*
X6031730Y-2042436D02*
X6022206Y-2051960D01*
X6022206Y-2051960D02*
X6003158Y-2061484D01*
X6003158Y-2061484D02*
X5974587Y-2061484D01*
X6098396Y-1928150D02*
X6174587Y-1928150D01*
X6126968Y-1861484D02*
X6126968Y-2032912D01*
X6126968Y-2032912D02*
X6136492Y-2051960D01*
X6136492Y-2051960D02*
X6155539Y-2061484D01*
X6155539Y-2061484D02*
X6174587Y-2061484D01*
X6231730Y-2051960D02*
X6250777Y-2061484D01*
X6250777Y-2061484D02*
X6288873Y-2061484D01*
X6288873Y-2061484D02*
X6307920Y-2051960D01*
X6307920Y-2051960D02*
X6317444Y-2032912D01*
X6317444Y-2032912D02*
X6317444Y-2023388D01*
X6317444Y-2023388D02*
X6307920Y-2004341D01*
X6307920Y-2004341D02*
X6288873Y-1994817D01*
X6288873Y-1994817D02*
X6260301Y-1994817D01*
X6260301Y-1994817D02*
X6241254Y-1985293D01*
X6241254Y-1985293D02*
X6231730Y-1966246D01*
X6231730Y-1966246D02*
X6231730Y-1956722D01*
X6231730Y-1956722D02*
X6241254Y-1937674D01*
X6241254Y-1937674D02*
X6260301Y-1928150D01*
X6260301Y-1928150D02*
X6288873Y-1928150D01*
X6288873Y-1928150D02*
X6307920Y-1937674D01*
X6384111Y-2137674D02*
X6393635Y-2128150D01*
X6393635Y-2128150D02*
X6412682Y-2099579D01*
X6412682Y-2099579D02*
X6422206Y-2080531D01*
X6422206Y-2080531D02*
X6431730Y-2051960D01*
X6431730Y-2051960D02*
X6441254Y-2004341D01*
X6441254Y-2004341D02*
X6441254Y-1966246D01*
X6441254Y-1966246D02*
X6431730Y-1918627D01*
X6431730Y-1918627D02*
X6422206Y-1890055D01*
X6422206Y-1890055D02*
X6412682Y-1871008D01*
X6412682Y-1871008D02*
X6393635Y-1842436D01*
X6393635Y-1842436D02*
X6384111Y-1832912D01*
M02*
