%TF.GenerationSoftware,KiCad,Pcbnew,9.0.9*%
%TF.CreationDate,2026-06-22T23:44:55+05:30*%
%TF.ProjectId,Open_STMPLC_EnergyMon_V0..1,4f70656e-5f53-4544-9d50-4c435f456e65,0.1*%
%TF.SameCoordinates,PX55d4a80PY8583b00*%
%TF.FileFunction,Legend,Bot*%
%TF.FilePolarity,Positive*%
%FSLAX46Y46*%
G04 Gerber Fmt 4.6, Leading zero omitted, Abs format (unit mm)*
G04 Created by KiCad (PCBNEW 9.0.9) date 2026-06-22 23:44:55*
%MOMM*%
%LPD*%
G01*
G04 APERTURE LIST*
%ADD10C,0.250000*%
G04 APERTURE END LIST*
D10*
X12054619Y79097432D02*
X11054619Y79097432D01*
X11054619Y79097432D02*
X12054619Y78526004D01*
X12054619Y78526004D02*
X11054619Y78526004D01*
X12149857Y78287908D02*
X12149857Y77526004D01*
X12054619Y77287908D02*
X11054619Y77287908D01*
X12054619Y76811718D02*
X11054619Y76811718D01*
X11054619Y76811718D02*
X12054619Y76240290D01*
X12054619Y76240290D02*
X11054619Y76240290D01*
X13864619Y79097432D02*
X12864619Y79097432D01*
X12864619Y79097432D02*
X13864619Y78526004D01*
X13864619Y78526004D02*
X12864619Y78526004D01*
X13959857Y78287908D02*
X13959857Y77526004D01*
X12864619Y77097432D02*
X12864619Y76906956D01*
X12864619Y76906956D02*
X12912238Y76811718D01*
X12912238Y76811718D02*
X13007476Y76716480D01*
X13007476Y76716480D02*
X13197952Y76668861D01*
X13197952Y76668861D02*
X13531285Y76668861D01*
X13531285Y76668861D02*
X13721761Y76716480D01*
X13721761Y76716480D02*
X13817000Y76811718D01*
X13817000Y76811718D02*
X13864619Y76906956D01*
X13864619Y76906956D02*
X13864619Y77097432D01*
X13864619Y77097432D02*
X13817000Y77192670D01*
X13817000Y77192670D02*
X13721761Y77287908D01*
X13721761Y77287908D02*
X13531285Y77335527D01*
X13531285Y77335527D02*
X13197952Y77335527D01*
X13197952Y77335527D02*
X13007476Y77287908D01*
X13007476Y77287908D02*
X12912238Y77192670D01*
X12912238Y77192670D02*
X12864619Y77097432D01*
X12864619Y76240289D02*
X13674142Y76240289D01*
X13674142Y76240289D02*
X13769380Y76192670D01*
X13769380Y76192670D02*
X13817000Y76145051D01*
X13817000Y76145051D02*
X13864619Y76049813D01*
X13864619Y76049813D02*
X13864619Y75859337D01*
X13864619Y75859337D02*
X13817000Y75764099D01*
X13817000Y75764099D02*
X13769380Y75716480D01*
X13769380Y75716480D02*
X13674142Y75668861D01*
X13674142Y75668861D02*
X12864619Y75668861D01*
X12864619Y75335527D02*
X12864619Y74764099D01*
X13864619Y75049813D02*
X12864619Y75049813D01*
X14554619Y79192670D02*
X15554619Y78954575D01*
X15554619Y78954575D02*
X14840333Y78764099D01*
X14840333Y78764099D02*
X15554619Y78573623D01*
X15554619Y78573623D02*
X14554619Y78335527D01*
X15649857Y78192670D02*
X15649857Y77430766D01*
X15554619Y77192670D02*
X14554619Y77192670D01*
X15554619Y76716480D02*
X14554619Y76716480D01*
X14554619Y76716480D02*
X15554619Y76145052D01*
X15554619Y76145052D02*
X14554619Y76145052D01*
X16554619Y79192670D02*
X17554619Y78954575D01*
X17554619Y78954575D02*
X16840333Y78764099D01*
X16840333Y78764099D02*
X17554619Y78573623D01*
X17554619Y78573623D02*
X16554619Y78335527D01*
X17649857Y78192670D02*
X17649857Y77430766D01*
X16554619Y77002194D02*
X16554619Y76811718D01*
X16554619Y76811718D02*
X16602238Y76716480D01*
X16602238Y76716480D02*
X16697476Y76621242D01*
X16697476Y76621242D02*
X16887952Y76573623D01*
X16887952Y76573623D02*
X17221285Y76573623D01*
X17221285Y76573623D02*
X17411761Y76621242D01*
X17411761Y76621242D02*
X17507000Y76716480D01*
X17507000Y76716480D02*
X17554619Y76811718D01*
X17554619Y76811718D02*
X17554619Y77002194D01*
X17554619Y77002194D02*
X17507000Y77097432D01*
X17507000Y77097432D02*
X17411761Y77192670D01*
X17411761Y77192670D02*
X17221285Y77240289D01*
X17221285Y77240289D02*
X16887952Y77240289D01*
X16887952Y77240289D02*
X16697476Y77192670D01*
X16697476Y77192670D02*
X16602238Y77097432D01*
X16602238Y77097432D02*
X16554619Y77002194D01*
X16554619Y76145051D02*
X17364142Y76145051D01*
X17364142Y76145051D02*
X17459380Y76097432D01*
X17459380Y76097432D02*
X17507000Y76049813D01*
X17507000Y76049813D02*
X17554619Y75954575D01*
X17554619Y75954575D02*
X17554619Y75764099D01*
X17554619Y75764099D02*
X17507000Y75668861D01*
X17507000Y75668861D02*
X17459380Y75621242D01*
X17459380Y75621242D02*
X17364142Y75573623D01*
X17364142Y75573623D02*
X16554619Y75573623D01*
X16554619Y75240289D02*
X16554619Y74668861D01*
X17554619Y74954575D02*
X16554619Y74954575D01*
X51864619Y79240289D02*
X52864619Y78906956D01*
X52864619Y78906956D02*
X51864619Y78573623D01*
X52959857Y78478384D02*
X52959857Y77716480D01*
X51864619Y77287908D02*
X51864619Y77097432D01*
X51864619Y77097432D02*
X51912238Y77002194D01*
X51912238Y77002194D02*
X52007476Y76906956D01*
X52007476Y76906956D02*
X52197952Y76859337D01*
X52197952Y76859337D02*
X52531285Y76859337D01*
X52531285Y76859337D02*
X52721761Y76906956D01*
X52721761Y76906956D02*
X52817000Y77002194D01*
X52817000Y77002194D02*
X52864619Y77097432D01*
X52864619Y77097432D02*
X52864619Y77287908D01*
X52864619Y77287908D02*
X52817000Y77383146D01*
X52817000Y77383146D02*
X52721761Y77478384D01*
X52721761Y77478384D02*
X52531285Y77526003D01*
X52531285Y77526003D02*
X52197952Y77526003D01*
X52197952Y77526003D02*
X52007476Y77478384D01*
X52007476Y77478384D02*
X51912238Y77383146D01*
X51912238Y77383146D02*
X51864619Y77287908D01*
X51864619Y76430765D02*
X52674142Y76430765D01*
X52674142Y76430765D02*
X52769380Y76383146D01*
X52769380Y76383146D02*
X52817000Y76335527D01*
X52817000Y76335527D02*
X52864619Y76240289D01*
X52864619Y76240289D02*
X52864619Y76049813D01*
X52864619Y76049813D02*
X52817000Y75954575D01*
X52817000Y75954575D02*
X52769380Y75906956D01*
X52769380Y75906956D02*
X52674142Y75859337D01*
X52674142Y75859337D02*
X51864619Y75859337D01*
X51864619Y75526003D02*
X51864619Y74954575D01*
X52864619Y75240289D02*
X51864619Y75240289D01*
X53864619Y79240289D02*
X54864619Y78906956D01*
X54864619Y78906956D02*
X53864619Y78573623D01*
X54959857Y78478384D02*
X54959857Y77716480D01*
X54864619Y77478384D02*
X53864619Y77478384D01*
X54864619Y77002194D02*
X53864619Y77002194D01*
X53864619Y77002194D02*
X54864619Y76430766D01*
X54864619Y76430766D02*
X53864619Y76430766D01*
X55864619Y79097432D02*
X56674142Y79097432D01*
X56674142Y79097432D02*
X56769380Y79049813D01*
X56769380Y79049813D02*
X56817000Y79002194D01*
X56817000Y79002194D02*
X56864619Y78906956D01*
X56864619Y78906956D02*
X56864619Y78716480D01*
X56864619Y78716480D02*
X56817000Y78621242D01*
X56817000Y78621242D02*
X56769380Y78573623D01*
X56769380Y78573623D02*
X56674142Y78526004D01*
X56674142Y78526004D02*
X55864619Y78526004D01*
X56959857Y78287908D02*
X56959857Y77526004D01*
X55864619Y77097432D02*
X55864619Y76906956D01*
X55864619Y76906956D02*
X55912238Y76811718D01*
X55912238Y76811718D02*
X56007476Y76716480D01*
X56007476Y76716480D02*
X56197952Y76668861D01*
X56197952Y76668861D02*
X56531285Y76668861D01*
X56531285Y76668861D02*
X56721761Y76716480D01*
X56721761Y76716480D02*
X56817000Y76811718D01*
X56817000Y76811718D02*
X56864619Y76906956D01*
X56864619Y76906956D02*
X56864619Y77097432D01*
X56864619Y77097432D02*
X56817000Y77192670D01*
X56817000Y77192670D02*
X56721761Y77287908D01*
X56721761Y77287908D02*
X56531285Y77335527D01*
X56531285Y77335527D02*
X56197952Y77335527D01*
X56197952Y77335527D02*
X56007476Y77287908D01*
X56007476Y77287908D02*
X55912238Y77192670D01*
X55912238Y77192670D02*
X55864619Y77097432D01*
X55864619Y76240289D02*
X56674142Y76240289D01*
X56674142Y76240289D02*
X56769380Y76192670D01*
X56769380Y76192670D02*
X56817000Y76145051D01*
X56817000Y76145051D02*
X56864619Y76049813D01*
X56864619Y76049813D02*
X56864619Y75859337D01*
X56864619Y75859337D02*
X56817000Y75764099D01*
X56817000Y75764099D02*
X56769380Y75716480D01*
X56769380Y75716480D02*
X56674142Y75668861D01*
X56674142Y75668861D02*
X55864619Y75668861D01*
X55864619Y75335527D02*
X55864619Y74764099D01*
X56864619Y75049813D02*
X55864619Y75049813D01*
X57864619Y79097432D02*
X58674142Y79097432D01*
X58674142Y79097432D02*
X58769380Y79049813D01*
X58769380Y79049813D02*
X58817000Y79002194D01*
X58817000Y79002194D02*
X58864619Y78906956D01*
X58864619Y78906956D02*
X58864619Y78716480D01*
X58864619Y78716480D02*
X58817000Y78621242D01*
X58817000Y78621242D02*
X58769380Y78573623D01*
X58769380Y78573623D02*
X58674142Y78526004D01*
X58674142Y78526004D02*
X57864619Y78526004D01*
X58959857Y78287908D02*
X58959857Y77526004D01*
X58864619Y77287908D02*
X57864619Y77287908D01*
X58864619Y76811718D02*
X57864619Y76811718D01*
X57864619Y76811718D02*
X58864619Y76240290D01*
X58864619Y76240290D02*
X57864619Y76240290D01*
M02*
