%TF.GenerationSoftware,KiCad,Pcbnew,9.0.9*%
%TF.CreationDate,2026-06-22T23:44:55+05:30*%
%TF.ProjectId,Open_STMPLC_EnergyMon_V0..1,4f70656e-5f53-4544-9d50-4c435f456e65,0.1*%
%TF.SameCoordinates,PX55d4a80PY8583b00*%
%TF.FileFunction,Paste,Top*%
%TF.FilePolarity,Positive*%
%FSLAX46Y46*%
G04 Gerber Fmt 4.6, Leading zero omitted, Abs format (unit mm)*
G04 Created by KiCad (PCBNEW 9.0.9) date 2026-06-22 23:44:55*
%MOMM*%
%LPD*%
G01*
G04 APERTURE LIST*
G04 Aperture macros list*
%AMRoundRect*
0 Rectangle with rounded corners*
0 $1 Rounding radius*
0 $2 $3 $4 $5 $6 $7 $8 $9 X,Y pos of 4 corners*
0 Add a 4 corners polygon primitive as box body*
4,1,4,$2,$3,$4,$5,$6,$7,$8,$9,$2,$3,0*
0 Add four circle primitives for the rounded corners*
1,1,$1+$1,$2,$3*
1,1,$1+$1,$4,$5*
1,1,$1+$1,$6,$7*
1,1,$1+$1,$8,$9*
0 Add four rect primitives between the rounded corners*
20,1,$1+$1,$2,$3,$4,$5,0*
20,1,$1+$1,$4,$5,$6,$7,0*
20,1,$1+$1,$6,$7,$8,$9,0*
20,1,$1+$1,$8,$9,$2,$3,0*%
G04 Aperture macros list end*
%ADD10RoundRect,0.237500X-0.237500X0.250000X-0.237500X-0.250000X0.237500X-0.250000X0.237500X0.250000X0*%
%ADD11RoundRect,0.237500X0.237500X-0.300000X0.237500X0.300000X-0.237500X0.300000X-0.237500X-0.300000X0*%
%ADD12RoundRect,0.250000X0.350000X0.450000X-0.350000X0.450000X-0.350000X-0.450000X0.350000X-0.450000X0*%
%ADD13RoundRect,0.237500X0.237500X-0.250000X0.237500X0.250000X-0.237500X0.250000X-0.237500X-0.250000X0*%
%ADD14RoundRect,0.050000X-0.250000X0.100000X-0.250000X-0.100000X0.250000X-0.100000X0.250000X0.100000X0*%
%ADD15RoundRect,0.237500X0.250000X0.237500X-0.250000X0.237500X-0.250000X-0.237500X0.250000X-0.237500X0*%
%ADD16RoundRect,0.237500X0.300000X0.237500X-0.300000X0.237500X-0.300000X-0.237500X0.300000X-0.237500X0*%
%ADD17RoundRect,0.237500X-0.250000X-0.237500X0.250000X-0.237500X0.250000X0.237500X-0.250000X0.237500X0*%
%ADD18RoundRect,0.250000X-0.337500X-0.475000X0.337500X-0.475000X0.337500X0.475000X-0.337500X0.475000X0*%
%ADD19RoundRect,0.250000X-0.475000X0.337500X-0.475000X-0.337500X0.475000X-0.337500X0.475000X0.337500X0*%
%ADD20RoundRect,0.237500X-0.300000X-0.237500X0.300000X-0.237500X0.300000X0.237500X-0.300000X0.237500X0*%
%ADD21RoundRect,0.250000X0.475000X-0.337500X0.475000X0.337500X-0.475000X0.337500X-0.475000X-0.337500X0*%
%ADD22RoundRect,0.075000X-0.075000X0.662500X-0.075000X-0.662500X0.075000X-0.662500X0.075000X0.662500X0*%
%ADD23RoundRect,0.075000X-0.662500X0.075000X-0.662500X-0.075000X0.662500X-0.075000X0.662500X0.075000X0*%
%ADD24RoundRect,0.250000X0.337500X0.475000X-0.337500X0.475000X-0.337500X-0.475000X0.337500X-0.475000X0*%
%ADD25RoundRect,0.237500X-0.237500X0.300000X-0.237500X-0.300000X0.237500X-0.300000X0.237500X0.300000X0*%
%ADD26RoundRect,0.250000X-0.350000X0.450000X-0.350000X-0.450000X0.350000X-0.450000X0.350000X0.450000X0*%
%ADD27R,1.200000X0.400000*%
%ADD28RoundRect,0.375000X0.375000X-0.625000X0.375000X0.625000X-0.375000X0.625000X-0.375000X-0.625000X0*%
%ADD29RoundRect,0.500000X1.400000X-0.500000X1.400000X0.500000X-1.400000X0.500000X-1.400000X-0.500000X0*%
G04 APERTURE END LIST*
D10*
%TO.C,R19*%
X21000000Y65412500D03*
X21000000Y63587500D03*
%TD*%
D11*
%TO.C,C5*%
X39000000Y63637500D03*
X39000000Y65362500D03*
%TD*%
%TO.C,C7*%
X25000000Y63637500D03*
X25000000Y65362500D03*
%TD*%
D12*
%TO.C,R39*%
X47000000Y37000000D03*
X45000000Y37000000D03*
%TD*%
D10*
%TO.C,R2*%
X49500000Y69412500D03*
X49500000Y67587500D03*
%TD*%
D13*
%TO.C,R6*%
X57500000Y63587500D03*
X57500000Y65412500D03*
%TD*%
D14*
%TO.C,D14*%
X43500000Y10850000D03*
X43500000Y10150000D03*
%TD*%
%TO.C,D24*%
X33500000Y13350000D03*
X33500000Y12650000D03*
%TD*%
D10*
%TO.C,R54*%
X62000000Y12412500D03*
X62000000Y10587500D03*
%TD*%
D14*
%TO.C,D15*%
X41000000Y10850000D03*
X41000000Y10150000D03*
%TD*%
D15*
%TO.C,R49*%
X8145966Y34007391D03*
X6320966Y34007391D03*
%TD*%
D13*
%TO.C,R25*%
X19000000Y63587500D03*
X19000000Y65412500D03*
%TD*%
D12*
%TO.C,R51*%
X12233466Y37007391D03*
X10233466Y37007391D03*
%TD*%
D15*
%TO.C,R40*%
X50912500Y37000000D03*
X49087500Y37000000D03*
%TD*%
D16*
%TO.C,C17*%
X59862500Y32007391D03*
X58137500Y32007391D03*
%TD*%
D17*
%TO.C,R48*%
X2320966Y37007391D03*
X4145966Y37007391D03*
%TD*%
D15*
%TO.C,R46*%
X33645966Y37007391D03*
X31820966Y37007391D03*
%TD*%
D12*
%TO.C,R32*%
X60000000Y37007391D03*
X58000000Y37007391D03*
%TD*%
D11*
%TO.C,C27*%
X45000000Y18637500D03*
X45000000Y20362500D03*
%TD*%
D18*
%TO.C,C16*%
X52462500Y29000000D03*
X54537500Y29000000D03*
%TD*%
D19*
%TO.C,C12*%
X66500000Y20537500D03*
X66500000Y18462500D03*
%TD*%
D17*
%TO.C,R41*%
X45087500Y34000000D03*
X46912500Y34000000D03*
%TD*%
D20*
%TO.C,C24*%
X10370966Y32007391D03*
X12095966Y32007391D03*
%TD*%
D13*
%TO.C,R8*%
X53500000Y63587500D03*
X53500000Y65412500D03*
%TD*%
D11*
%TO.C,C8*%
X29000000Y63637500D03*
X29000000Y65362500D03*
%TD*%
D20*
%TO.C,C22*%
X27870966Y32007391D03*
X29595966Y32007391D03*
%TD*%
D13*
%TO.C,R17*%
X37000000Y63587500D03*
X37000000Y65412500D03*
%TD*%
D20*
%TO.C,C14*%
X59637500Y26500000D03*
X61362500Y26500000D03*
%TD*%
D10*
%TO.C,R20*%
X29000000Y69412500D03*
X29000000Y67587500D03*
%TD*%
%TO.C,R28*%
X64000000Y28412500D03*
X64000000Y26587500D03*
%TD*%
D20*
%TO.C,C18*%
X62137500Y32007391D03*
X63862500Y32007391D03*
%TD*%
D10*
%TO.C,R21*%
X27000000Y69412500D03*
X27000000Y67587500D03*
%TD*%
D20*
%TO.C,C20*%
X45137500Y32000000D03*
X46862500Y32000000D03*
%TD*%
D12*
%TO.C,R38*%
X43000000Y37000000D03*
X41000000Y37000000D03*
%TD*%
D10*
%TO.C,R1*%
X47500000Y69412500D03*
X47500000Y67587500D03*
%TD*%
%TO.C,R3*%
X51500000Y69412500D03*
X51500000Y67587500D03*
%TD*%
D14*
%TO.C,D25*%
X36000000Y13350000D03*
X36000000Y12650000D03*
%TD*%
D12*
%TO.C,R44*%
X25733466Y37007391D03*
X23733466Y37007391D03*
%TD*%
D15*
%TO.C,R52*%
X16145966Y37007391D03*
X14320966Y37007391D03*
%TD*%
D17*
%TO.C,R53*%
X10320966Y34007391D03*
X12145966Y34007391D03*
%TD*%
D10*
%TO.C,R23*%
X23000000Y69412500D03*
X23000000Y67587500D03*
%TD*%
D21*
%TO.C,C2*%
X15000000Y7070000D03*
X15000000Y9145000D03*
%TD*%
D22*
%TO.C,U1*%
X59750000Y24162500D03*
X59250000Y24162500D03*
X58750000Y24162500D03*
X58250000Y24162500D03*
X57750000Y24162500D03*
X57250000Y24162500D03*
X56750000Y24162500D03*
X56250000Y24162500D03*
X55750000Y24162500D03*
X55250000Y24162500D03*
X54750000Y24162500D03*
X54250000Y24162500D03*
D23*
X52837500Y22750000D03*
X52837500Y22250000D03*
X52837500Y21750000D03*
X52837500Y21250000D03*
X52837500Y20750000D03*
X52837500Y20250000D03*
X52837500Y19750000D03*
X52837500Y19250000D03*
X52837500Y18750000D03*
X52837500Y18250000D03*
X52837500Y17750000D03*
X52837500Y17250000D03*
D22*
X54250000Y15837500D03*
X54750000Y15837500D03*
X55250000Y15837500D03*
X55750000Y15837500D03*
X56250000Y15837500D03*
X56750000Y15837500D03*
X57250000Y15837500D03*
X57750000Y15837500D03*
X58250000Y15837500D03*
X58750000Y15837500D03*
X59250000Y15837500D03*
X59750000Y15837500D03*
D23*
X61162500Y17250000D03*
X61162500Y17750000D03*
X61162500Y18250000D03*
X61162500Y18750000D03*
X61162500Y19250000D03*
X61162500Y19750000D03*
X61162500Y20250000D03*
X61162500Y20750000D03*
X61162500Y21250000D03*
X61162500Y21750000D03*
X61162500Y22250000D03*
X61162500Y22750000D03*
%TD*%
D10*
%TO.C,R12*%
X41000000Y69412500D03*
X41000000Y67587500D03*
%TD*%
D12*
%TO.C,R45*%
X29733466Y37007391D03*
X27733466Y37007391D03*
%TD*%
D10*
%TO.C,R14*%
X37000000Y69412500D03*
X37000000Y67587500D03*
%TD*%
D14*
%TO.C,D26*%
X38500000Y13350000D03*
X38500000Y12650000D03*
%TD*%
D20*
%TO.C,C25*%
X30637500Y22000000D03*
X32362500Y22000000D03*
%TD*%
D17*
%TO.C,R42*%
X19820966Y37007391D03*
X21645966Y37007391D03*
%TD*%
D15*
%TO.C,R34*%
X59912500Y34007391D03*
X58087500Y34007391D03*
%TD*%
D16*
%TO.C,C26*%
X37362500Y22000000D03*
X35637500Y22000000D03*
%TD*%
%TO.C,C21*%
X25595966Y32007391D03*
X23870966Y32007391D03*
%TD*%
D13*
%TO.C,R18*%
X41000000Y63587500D03*
X41000000Y65412500D03*
%TD*%
D10*
%TO.C,R15*%
X35000000Y69412500D03*
X35000000Y67587500D03*
%TD*%
%TO.C,R22*%
X25000000Y69412500D03*
X25000000Y67587500D03*
%TD*%
D11*
%TO.C,C3*%
X51500000Y63637500D03*
X51500000Y65362500D03*
%TD*%
D14*
%TO.C,D17*%
X36000000Y10850000D03*
X36000000Y10150000D03*
%TD*%
D12*
%TO.C,R50*%
X8233466Y37007391D03*
X6233466Y37007391D03*
%TD*%
D24*
%TO.C,C71*%
X7880000Y9850000D03*
X5805000Y9850000D03*
%TD*%
D10*
%TO.C,R10*%
X35000000Y65412500D03*
X35000000Y63587500D03*
%TD*%
D16*
%TO.C,C23*%
X8095966Y32007391D03*
X6370966Y32007391D03*
%TD*%
D14*
%TO.C,D27*%
X41000000Y13350000D03*
X41000000Y12650000D03*
%TD*%
D13*
%TO.C,R16*%
X33000000Y63587500D03*
X33000000Y65412500D03*
%TD*%
D14*
%TO.C,D28*%
X43500000Y13350000D03*
X43500000Y12650000D03*
%TD*%
D17*
%TO.C,R36*%
X37087500Y37000000D03*
X38912500Y37000000D03*
%TD*%
D25*
%TO.C,C11*%
X64000000Y20362500D03*
X64000000Y18637500D03*
%TD*%
D15*
%TO.C,R43*%
X25645966Y34007391D03*
X23820966Y34007391D03*
%TD*%
D14*
%TO.C,D18*%
X33500000Y10850000D03*
X33500000Y10150000D03*
%TD*%
D15*
%TO.C,R37*%
X42912500Y34000000D03*
X41087500Y34000000D03*
%TD*%
D10*
%TO.C,R11*%
X43000000Y69412500D03*
X43000000Y67587500D03*
%TD*%
D11*
%TO.C,C13*%
X66500000Y14637500D03*
X66500000Y16362500D03*
%TD*%
D24*
%TO.C,C72*%
X11880000Y9850000D03*
X9805000Y9850000D03*
%TD*%
D14*
%TO.C,D21*%
X28500000Y10850000D03*
X28500000Y10150000D03*
%TD*%
D17*
%TO.C,R35*%
X62087500Y34007391D03*
X63912500Y34007391D03*
%TD*%
%TO.C,R47*%
X27820966Y34007391D03*
X29645966Y34007391D03*
%TD*%
D10*
%TO.C,R4*%
X53500000Y69412500D03*
X53500000Y67587500D03*
%TD*%
D20*
%TO.C,C15*%
X52637500Y26500000D03*
X54362500Y26500000D03*
%TD*%
D10*
%TO.C,R29*%
X64000000Y16412500D03*
X64000000Y14587500D03*
%TD*%
D11*
%TO.C,C4*%
X49500000Y63637500D03*
X49500000Y65362500D03*
%TD*%
D10*
%TO.C,R24*%
X21000000Y69412500D03*
X21000000Y67587500D03*
%TD*%
D14*
%TO.C,D16*%
X38500000Y10850000D03*
X38500000Y10150000D03*
%TD*%
D17*
%TO.C,R30*%
X54087500Y37007391D03*
X55912500Y37007391D03*
%TD*%
D14*
%TO.C,D23*%
X31000000Y13350000D03*
X31000000Y12650000D03*
%TD*%
%TO.C,D20*%
X31000000Y10850000D03*
X31000000Y10150000D03*
%TD*%
D26*
%TO.C,Y1*%
X47150000Y20300000D03*
X47150000Y18100000D03*
X48850000Y18100000D03*
X48850000Y20300000D03*
%TD*%
D25*
%TO.C,C10*%
X64000000Y24362500D03*
X64000000Y22637500D03*
%TD*%
D11*
%TO.C,C6*%
X43000000Y63637500D03*
X43000000Y65362500D03*
%TD*%
D20*
%TO.C,C28*%
X45137500Y16000000D03*
X46862500Y16000000D03*
%TD*%
D10*
%TO.C,R13*%
X39000000Y69412500D03*
X39000000Y67587500D03*
%TD*%
D13*
%TO.C,R9*%
X47500000Y63587500D03*
X47500000Y65412500D03*
%TD*%
D15*
%TO.C,R31*%
X67912500Y37007391D03*
X66087500Y37007391D03*
%TD*%
D10*
%TO.C,R5*%
X55540000Y69412500D03*
X55540000Y67587500D03*
%TD*%
D13*
%TO.C,R57*%
X2000000Y60087500D03*
X2000000Y61912500D03*
%TD*%
D10*
%TO.C,R55*%
X60000000Y12412500D03*
X60000000Y10587500D03*
%TD*%
D19*
%TO.C,C9*%
X66500000Y24537500D03*
X66500000Y22462500D03*
%TD*%
D27*
%TO.C,U2*%
X31400000Y20222500D03*
X31400000Y19587500D03*
X31400000Y18952500D03*
X31400000Y18317500D03*
X31400000Y17682500D03*
X31400000Y17047500D03*
X31400000Y16412500D03*
X31400000Y15777500D03*
X36600000Y15777500D03*
X36600000Y16412500D03*
X36600000Y17047500D03*
X36600000Y17682500D03*
X36600000Y18317500D03*
X36600000Y18952500D03*
X36600000Y19587500D03*
X36600000Y20222500D03*
%TD*%
D12*
%TO.C,R33*%
X64000000Y37007391D03*
X62000000Y37007391D03*
%TD*%
D14*
%TO.C,D22*%
X28500000Y13350000D03*
X28500000Y12650000D03*
%TD*%
D10*
%TO.C,R7*%
X55500000Y65412500D03*
X55500000Y63587500D03*
%TD*%
D28*
%TO.C,U5*%
X6542500Y12850000D03*
X8842500Y12850000D03*
D29*
X8842500Y19150000D03*
D28*
X11142500Y12850000D03*
%TD*%
D13*
%TO.C,R26*%
X23000000Y63587500D03*
X23000000Y65412500D03*
%TD*%
D21*
%TO.C,C1*%
X15000000Y12070000D03*
X15000000Y14145000D03*
%TD*%
D16*
%TO.C,C19*%
X42862500Y32000000D03*
X41137500Y32000000D03*
%TD*%
D13*
%TO.C,R27*%
X27000000Y63587500D03*
X27000000Y65412500D03*
%TD*%
D10*
%TO.C,R56*%
X64000000Y12412500D03*
X64000000Y10587500D03*
%TD*%
M02*
