%TF.GenerationSoftware,KiCad,Pcbnew,9.0.9*%
%TF.CreationDate,2026-06-22T23:45:00+05:30*%
%TF.ProjectId,Open_STMPLC_EnergyMon_V0..1,4f70656e-5f53-4544-9d50-4c435f456e65,0.1*%
%TF.SameCoordinates,PX55d4a80PY8583b00*%
%TF.FileFunction,Plated,1,2,PTH,Mixed*%
%TF.FilePolarity,Positive*%
%FSLAX46Y46*%
G04 Gerber Fmt 4.6, Leading zero omitted, Abs format (unit mm)*
G04 Created by KiCad (PCBNEW 9.0.9) date 2026-06-22 23:45:00*
%MOMM*%
%LPD*%
G01*
G04 APERTURE LIST*
%TA.AperFunction,ViaDrill*%
%ADD10C,0.300000*%
%TD*%
%TA.AperFunction,ViaDrill*%
%ADD11C,0.400000*%
%TD*%
%TA.AperFunction,ComponentDrill*%
%ADD12C,1.000000*%
%TD*%
%TA.AperFunction,ComponentDrill*%
%ADD13C,1.075000*%
%TD*%
%TA.AperFunction,ComponentDrill*%
%ADD14C,1.100000*%
%TD*%
G04 aperture for slot hole*
%TA.AperFunction,ComponentDrill*%
%ADD15C,1.800000*%
%TD*%
G04 APERTURE END LIST*
D10*
X8200000Y30300000D03*
X10400000Y26800000D03*
X17600000Y25600000D03*
X18700000Y25050000D03*
X25600000Y30600000D03*
X28200000Y27600000D03*
X29500000Y19500000D03*
X29500000Y18500000D03*
X29700000Y17000000D03*
X30700000Y11700000D03*
X30800000Y14900000D03*
X30800000Y14000000D03*
X33000000Y20400000D03*
X33300000Y11700000D03*
X33500000Y14000000D03*
X34100000Y19600000D03*
X34173000Y14500000D03*
X35200000Y22900000D03*
X35500000Y14000000D03*
X35700000Y11700000D03*
X37987500Y16397500D03*
X38000000Y13900000D03*
X38200000Y11600000D03*
X39200000Y17500000D03*
X39700000Y18200000D03*
X39800000Y16800000D03*
X40314579Y18750000D03*
X40400000Y13900000D03*
X40700000Y19500000D03*
X40800000Y11600000D03*
X42800000Y11700000D03*
X42900000Y30400000D03*
X45000000Y13500000D03*
X45137500Y29100000D03*
X48300000Y22500000D03*
X55000000Y22800000D03*
X55200000Y21450000D03*
X55300000Y20100000D03*
X55690380Y25790380D03*
X55700000Y22400000D03*
X56000000Y20600000D03*
X56600000Y25900000D03*
X57000000Y17050000D03*
X57100000Y22800000D03*
X57500000Y19000000D03*
X57800000Y22400000D03*
X58600000Y22800000D03*
X58800000Y19700000D03*
X59500000Y18600000D03*
X59800000Y17700000D03*
X61900000Y30600000D03*
X62600000Y17300000D03*
D11*
X4000000Y10500000D03*
X4000000Y9500000D03*
X4500000Y13500000D03*
X4500000Y12500000D03*
X5200000Y32000000D03*
X9000000Y21400000D03*
X9500000Y38500000D03*
X9500000Y35500000D03*
X10000000Y7000000D03*
X11000000Y8000000D03*
X11000000Y6000000D03*
X12000000Y7000000D03*
X12000000Y5000000D03*
X13300000Y32000000D03*
X22700000Y32000000D03*
X25000000Y18000000D03*
X25000000Y16000000D03*
X26000000Y17000000D03*
X26000000Y15000000D03*
X27000000Y38500000D03*
X27000000Y35500000D03*
X28900000Y15600000D03*
X28900000Y14600000D03*
X29600000Y22000000D03*
X30800000Y32000000D03*
X38500000Y22000000D03*
X39000000Y20800000D03*
X39900000Y32000000D03*
X40200000Y20800000D03*
X42900000Y23400000D03*
X43000000Y20500000D03*
X44000000Y38500000D03*
X44000000Y35500000D03*
X47000000Y24000000D03*
X48100000Y32000000D03*
X49000000Y24000000D03*
X49000000Y8000000D03*
X49000000Y6000000D03*
X49000000Y4000000D03*
X50000000Y7000000D03*
X50000000Y5000000D03*
X51000000Y8000000D03*
X51000000Y6000000D03*
X51000000Y4000000D03*
X53000000Y31000000D03*
X53000000Y24000000D03*
X54000000Y32000000D03*
X55000000Y33000000D03*
X55000000Y31000000D03*
X56000000Y32000000D03*
X57000000Y31000000D03*
X57600000Y20600000D03*
X58000000Y13400000D03*
X59500000Y21000000D03*
X60400000Y14300000D03*
X61000000Y38500000D03*
X61000000Y35500000D03*
X61500000Y28500000D03*
X63900000Y30900000D03*
X65100000Y32000000D03*
X65100000Y22500000D03*
X65100000Y20600000D03*
X65300000Y14700000D03*
X65400000Y10600000D03*
X66600000Y10600000D03*
X67600000Y14500000D03*
D12*
%TO.C,TR4*%
X2833466Y42007391D03*
X15633466Y42007391D03*
%TO.C,TR3*%
X20083466Y42007391D03*
%TO.C,J1*%
X26110000Y7160000D03*
X26110000Y4620000D03*
X28650000Y7160000D03*
X28650000Y4620000D03*
X31190000Y7160000D03*
X31190000Y4620000D03*
%TO.C,TR3*%
X32883466Y42007391D03*
%TO.C,J1*%
X33730000Y7160000D03*
X33730000Y4620000D03*
X36270000Y7160000D03*
X36270000Y4620000D03*
%TO.C,TR2*%
X37333466Y42007391D03*
%TO.C,J1*%
X38810000Y7160000D03*
X38810000Y4620000D03*
X41350000Y7160000D03*
X41350000Y4620000D03*
X43890000Y7160000D03*
X43890000Y4620000D03*
%TO.C,TR2*%
X50133466Y42007391D03*
%TO.C,TR1*%
X54583466Y42007391D03*
X67383466Y42007391D03*
D13*
%TO.C,PS1*%
X18000000Y14607500D03*
X18000000Y12067500D03*
X18000000Y9527500D03*
X18000000Y6987500D03*
D14*
%TO.C,J2*%
X21670000Y75417500D03*
X25480000Y75417500D03*
X29290000Y75417500D03*
X33100000Y75417500D03*
X36910000Y75417500D03*
X40720000Y75417500D03*
X44530000Y75417500D03*
X48340000Y75417500D03*
D15*
%TO.C,TR4*%
X10933466Y58957391D02*
X7533466Y58957391D01*
X10933466Y49507391D02*
X7533466Y49507391D01*
%TO.C,TR3*%
X28183466Y58957391D02*
X24783466Y58957391D01*
X28183466Y49507391D02*
X24783466Y49507391D01*
%TO.C,TR2*%
X45433466Y58957391D02*
X42033466Y58957391D01*
X45433466Y49507391D02*
X42033466Y49507391D01*
%TO.C,TR1*%
X62683466Y58957391D02*
X59283466Y58957391D01*
X62683466Y49507391D02*
X59283466Y49507391D01*
M02*
