%TF.GenerationSoftware,KiCad,Pcbnew,9.0.9*%
%TF.CreationDate,2026-06-22T23:44:55+05:30*%
%TF.ProjectId,Open_STMPLC_EnergyMon_V0..1,4f70656e-5f53-4544-9d50-4c435f456e65,0.1*%
%TF.SameCoordinates,PX55d4a80PY8583b00*%
%TF.FileFunction,Soldermask,Bot*%
%TF.FilePolarity,Negative*%
%FSLAX46Y46*%
G04 Gerber Fmt 4.6, Leading zero omitted, Abs format (unit mm)*
G04 Created by KiCad (PCBNEW 9.0.9) date 2026-06-22 23:44:55*
%MOMM*%
%LPD*%
G01*
G04 APERTURE LIST*
G04 Aperture macros list*
%AMRoundRect*
0 Rectangle with rounded corners*
0 $1 Rounding radius*
0 $2 $3 $4 $5 $6 $7 $8 $9 X,Y pos of 4 corners*
0 Add a 4 corners polygon primitive as box body*
4,1,4,$2,$3,$4,$5,$6,$7,$8,$9,$2,$3,0*
0 Add four circle primitives for the rounded corners*
1,1,$1+$1,$2,$3*
1,1,$1+$1,$4,$5*
1,1,$1+$1,$6,$7*
1,1,$1+$1,$8,$9*
0 Add four rect primitives between the rounded corners*
20,1,$1+$1,$2,$3,$4,$5,0*
20,1,$1+$1,$4,$5,$6,$7,0*
20,1,$1+$1,$6,$7,$8,$9,0*
20,1,$1+$1,$8,$9,$2,$3,0*%
G04 Aperture macros list end*
%ADD10R,1.700000X1.700000*%
%ADD11C,1.700000*%
%ADD12RoundRect,0.300000X-2.950000X-1.200000X2.950000X-1.200000X2.950000X1.200000X-2.950000X1.200000X0*%
%ADD13C,2.000000*%
%ADD14C,3.200000*%
%ADD15RoundRect,0.250000X0.750000X0.750000X-0.750000X0.750000X-0.750000X-0.750000X0.750000X-0.750000X0*%
%ADD16R,2.250000X1.750000*%
%ADD17O,2.250000X1.750000*%
%ADD18C,2.500000*%
G04 APERTURE END LIST*
D10*
%TO.C,J1*%
X43890000Y7160000D03*
D11*
X43890000Y4620000D03*
X41350000Y7160000D03*
X41350000Y4620000D03*
X38810000Y7160000D03*
X38810000Y4620000D03*
X36270000Y7160000D03*
X36270000Y4620000D03*
X33730000Y7160000D03*
X33730000Y4620000D03*
X31190000Y7160000D03*
X31190000Y4620000D03*
X28650000Y7160000D03*
X28650000Y4620000D03*
X26110000Y7160000D03*
X26110000Y4620000D03*
%TD*%
D12*
%TO.C,TR3*%
X26483466Y58957391D03*
X26483466Y49507391D03*
D13*
X20083466Y42007391D03*
X32883466Y42007391D03*
%TD*%
D14*
%TO.C,H2*%
X66000000Y76000000D03*
%TD*%
D12*
%TO.C,TR4*%
X9233466Y58957391D03*
X9233466Y49507391D03*
D13*
X2833466Y42007391D03*
X15633466Y42007391D03*
%TD*%
D12*
%TO.C,TR2*%
X43733466Y58957391D03*
X43733466Y49507391D03*
D13*
X37333466Y42007391D03*
X50133466Y42007391D03*
%TD*%
D15*
%TO.C,J2*%
X48340000Y75417500D03*
D13*
X44530000Y75417500D03*
X40720000Y75417500D03*
X36910000Y75417500D03*
X33100000Y75417500D03*
X29290000Y75417500D03*
X25480000Y75417500D03*
X21670000Y75417500D03*
%TD*%
D14*
%TO.C,H3*%
X4000000Y4000000D03*
%TD*%
D16*
%TO.C,PS1*%
X18000000Y14607500D03*
D17*
X18000000Y12067500D03*
X18000000Y9527500D03*
X18000000Y6987500D03*
%TD*%
D14*
%TO.C,H1*%
X4000000Y76000000D03*
%TD*%
D12*
%TO.C,TR1*%
X60983466Y58957391D03*
X60983466Y49507391D03*
D13*
X54583466Y42007391D03*
X67383466Y42007391D03*
%TD*%
D14*
%TO.C,H4*%
X66000000Y4000000D03*
%TD*%
D18*
X36910000Y56330857D02*
X43733466Y49507391D01*
X36910000Y75417500D02*
X36910000Y56330857D01*
X33100000Y56123925D02*
X26483466Y49507391D01*
X33100000Y75417500D02*
X33100000Y56123925D01*
X60983466Y62774034D02*
X60983466Y58957391D01*
X48340000Y75417500D02*
X60983466Y62774034D01*
X21670000Y75417500D02*
X9233466Y62980966D01*
X9233466Y62980966D02*
X9233466Y58957391D01*
X17000000Y63000000D02*
X25480000Y71480000D01*
X17000000Y57273925D02*
X17000000Y63000000D01*
X25480000Y71480000D02*
X25480000Y75417500D01*
X9233466Y49507391D02*
X17000000Y57273925D01*
X60865323Y49507391D02*
X60983466Y49507391D01*
X52000000Y63000000D02*
X52000000Y58372714D01*
X44530000Y70470000D02*
X52000000Y63000000D01*
X44530000Y75417500D02*
X44530000Y70470000D01*
X52000000Y58372714D02*
X60865323Y49507391D01*
X40720000Y75417500D02*
X40720000Y61970857D01*
X40720000Y61970857D02*
X43733466Y58957391D01*
X29290000Y61763925D02*
X26483466Y58957391D01*
X29290000Y75417500D02*
X29290000Y61763925D01*
M02*
