G04*
G04 #@! TF.GenerationSoftware,Altium Limited,Altium Designer,22.5.1 (42)*
G04*
G04 Layer_Color=255*
%FSLAX25Y25*%
%MOIN*%
G70*
G04*
G04 #@! TF.SameCoordinates,36E92F14-E9FE-4D66-B6D4-B8D92208952E*
G04*
G04*
G04 #@! TF.FilePolarity,Positive*
G04*
G01*
G75*
%ADD51C,0.05906*%
G04:AMPARAMS|DCode=52|XSize=59.06mil|YSize=59.06mil|CornerRadius=14.76mil|HoleSize=0mil|Usage=FLASHONLY|Rotation=270.000|XOffset=0mil|YOffset=0mil|HoleType=Round|Shape=RoundedRectangle|*
%AMROUNDEDRECTD52*
21,1,0.05906,0.02953,0,0,270.0*
21,1,0.02953,0.05906,0,0,270.0*
1,1,0.02953,-0.01476,-0.01476*
1,1,0.02953,-0.01476,0.01476*
1,1,0.02953,0.01476,0.01476*
1,1,0.02953,0.01476,-0.01476*
%
%ADD52ROUNDEDRECTD52*%
%ADD53R,0.05906X0.05906*%
%ADD54R,0.05906X0.05906*%
%ADD55R,0.09449X0.09449*%
%ADD56C,0.09449*%
%ADD57C,0.10236*%
%ADD58R,0.10236X0.10236*%
%ADD59C,0.06000*%
D51*
X31831Y-261500D02*
D03*
Y-251500D02*
D03*
X160000Y-20000D02*
D03*
X150000D02*
D03*
X140000D02*
D03*
X130000D02*
D03*
X120000D02*
D03*
X110000D02*
D03*
X100000D02*
D03*
X40000Y-132165D02*
D03*
X30000Y-142165D02*
D03*
X40000D02*
D03*
X30000Y-152165D02*
D03*
X40000D02*
D03*
X30000Y-162165D02*
D03*
X40000D02*
D03*
X30000Y-172165D02*
D03*
X40000D02*
D03*
X30000Y-182165D02*
D03*
X40000D02*
D03*
X30000Y-192165D02*
D03*
X40000D02*
D03*
X30000Y-202165D02*
D03*
X40000D02*
D03*
X30000Y-212165D02*
D03*
X40000D02*
D03*
X30000Y-222165D02*
D03*
X40000D02*
D03*
X55000Y-255000D02*
D03*
X65000D02*
D03*
X92500Y-90000D02*
D03*
X82500D02*
D03*
X107500D02*
D03*
X117500D02*
D03*
X142500D02*
D03*
X132500D02*
D03*
X157500D02*
D03*
X167500D02*
D03*
D52*
X31831Y-241500D02*
D03*
D53*
X90000Y-20000D02*
D03*
D54*
X30000Y-132165D02*
D03*
D55*
X85000Y-312500D02*
D03*
X125000D02*
D03*
X165000D02*
D03*
X205000D02*
D03*
D56*
X105000D02*
D03*
X145000D02*
D03*
X185000D02*
D03*
X225000D02*
D03*
D57*
X425000Y-220000D02*
D03*
Y-180000D02*
D03*
Y-260000D02*
D03*
D58*
Y-300000D02*
D03*
D59*
X196419Y-158919D02*
D03*
X182500Y-145000D02*
D03*
M02*
