G04*
G04 #@! TF.GenerationSoftware,Altium Limited,Altium Designer,22.5.1 (42)*
G04*
G04 Layer_Physical_Order=1*
G04 Layer_Color=255*
%FSLAX25Y25*%
%MOIN*%
G70*
G04*
G04 #@! TF.SameCoordinates,36E92F14-E9FE-4D66-B6D4-B8D92208952E*
G04*
G04*
G04 #@! TF.FilePolarity,Positive*
G04*
G01*
G75*
%ADD14C,0.01000*%
%ADD18R,0.03500X0.03000*%
%ADD19R,0.01181X0.06299*%
%ADD20R,0.06299X0.01181*%
%ADD21R,0.05500X0.04000*%
%ADD22R,0.04000X0.05500*%
%ADD23R,0.06000X0.06000*%
%ADD24O,0.06000X0.11024*%
%ADD25R,0.06000X0.11024*%
G04:AMPARAMS|DCode=26|XSize=78.74mil|YSize=177.17mil|CornerRadius=0mil|HoleSize=0mil|Usage=FLASHONLY|Rotation=45.000|XOffset=0mil|YOffset=0mil|HoleType=Round|Shape=Rectangle|*
%AMROTATEDRECTD26*
4,1,4,0.03480,-0.09048,-0.09048,0.03480,-0.03480,0.09048,0.09048,-0.03480,0.03480,-0.09048,0.0*
%
%ADD26ROTATEDRECTD26*%

%ADD45C,0.02000*%
%ADD47C,0.01500*%
%ADD48C,0.02000*%
%ADD49C,0.05000*%
%ADD50C,0.01200*%
%ADD51C,0.05906*%
G04:AMPARAMS|DCode=52|XSize=59.06mil|YSize=59.06mil|CornerRadius=14.76mil|HoleSize=0mil|Usage=FLASHONLY|Rotation=270.000|XOffset=0mil|YOffset=0mil|HoleType=Round|Shape=RoundedRectangle|*
%AMROUNDEDRECTD52*
21,1,0.05906,0.02953,0,0,270.0*
21,1,0.02953,0.05906,0,0,270.0*
1,1,0.02953,-0.01476,-0.01476*
1,1,0.02953,-0.01476,0.01476*
1,1,0.02953,0.01476,0.01476*
1,1,0.02953,0.01476,-0.01476*
%
%ADD52ROUNDEDRECTD52*%
%ADD53R,0.05906X0.05906*%
%ADD54R,0.05906X0.05906*%
%ADD55R,0.09449X0.09449*%
%ADD56C,0.09449*%
%ADD57C,0.10236*%
%ADD58R,0.10236X0.10236*%
%ADD59C,0.06000*%
%ADD60C,0.05000*%
G36*
X315000Y-5000D02*
Y-165000D01*
X305000Y-175000D01*
X295000D01*
X285000Y-185000D01*
Y-197451D01*
X282056D01*
X270302Y-185698D01*
X269476Y-185145D01*
X268500Y-184951D01*
X238750D01*
Y-184000D01*
X204750D01*
Y-186866D01*
X198084Y-193532D01*
X186026D01*
X185875Y-193216D01*
X185852Y-193032D01*
X191442Y-187442D01*
X191884Y-186780D01*
X192039Y-186000D01*
Y-166345D01*
X194097Y-164286D01*
X204771Y-174960D01*
X212460Y-167271D01*
X197811Y-152622D01*
X195998Y-154436D01*
X195245Y-154535D01*
X194150Y-154989D01*
X193210Y-155710D01*
X192489Y-156650D01*
X192035Y-157745D01*
X191936Y-158498D01*
X190122Y-160311D01*
X191214Y-161403D01*
X189039Y-163577D01*
X188539Y-163370D01*
Y-149000D01*
X188384Y-148220D01*
X187942Y-147558D01*
X186789Y-146405D01*
X186884Y-146175D01*
X186983Y-145422D01*
X188797Y-143608D01*
X174148Y-128959D01*
X166459Y-136648D01*
X181108Y-151297D01*
X182922Y-149483D01*
X183675Y-149384D01*
X183905Y-149289D01*
X184461Y-149845D01*
Y-171601D01*
X183961Y-171650D01*
X183884Y-171264D01*
X183442Y-170602D01*
X148563Y-135723D01*
X147901Y-135281D01*
X147121Y-135126D01*
X50927D01*
X46525Y-130723D01*
X45863Y-130281D01*
X45083Y-130126D01*
X43975D01*
X43889Y-129920D01*
X43176Y-128990D01*
X42246Y-128276D01*
X41162Y-127827D01*
X40000Y-127674D01*
X38838Y-127827D01*
X37754Y-128276D01*
X36824Y-128990D01*
X36110Y-129920D01*
X35662Y-131003D01*
X35509Y-132165D01*
X35662Y-133328D01*
X36110Y-134411D01*
X36188Y-134512D01*
X35967Y-134961D01*
X35165D01*
X34385Y-135116D01*
X33723Y-135558D01*
X31369Y-137913D01*
X31162Y-137827D01*
X30000Y-137674D01*
X28838Y-137827D01*
X27754Y-138276D01*
X26824Y-138990D01*
X26111Y-139920D01*
X25662Y-141003D01*
X25509Y-142165D01*
X25662Y-143328D01*
X26111Y-144411D01*
X26824Y-145341D01*
X27754Y-146055D01*
X28838Y-146503D01*
X30000Y-146657D01*
X31162Y-146503D01*
X32246Y-146055D01*
X33176Y-145341D01*
X33889Y-144411D01*
X34338Y-143328D01*
X34491Y-142165D01*
X34338Y-141003D01*
X34253Y-140797D01*
X35778Y-139271D01*
X35958Y-139297D01*
X36176Y-139834D01*
X36110Y-139920D01*
X35662Y-141003D01*
X35509Y-142165D01*
X35662Y-143328D01*
X36110Y-144411D01*
X36188Y-144512D01*
X35967Y-144961D01*
X35165D01*
X34385Y-145116D01*
X33723Y-145558D01*
X31369Y-147913D01*
X31162Y-147827D01*
X30000Y-147674D01*
X28838Y-147827D01*
X27754Y-148276D01*
X26824Y-148990D01*
X26111Y-149920D01*
X25662Y-151003D01*
X25509Y-152165D01*
X25662Y-153328D01*
X26111Y-154411D01*
X26824Y-155341D01*
X27754Y-156055D01*
X28838Y-156503D01*
X30000Y-156657D01*
X31162Y-156503D01*
X32246Y-156055D01*
X33176Y-155341D01*
X33889Y-154411D01*
X34338Y-153328D01*
X34491Y-152165D01*
X34338Y-151003D01*
X34253Y-150797D01*
X35778Y-149271D01*
X35958Y-149297D01*
X36176Y-149834D01*
X36110Y-149920D01*
X35662Y-151003D01*
X35509Y-152165D01*
X35662Y-153328D01*
X36110Y-154411D01*
X36188Y-154512D01*
X35967Y-154961D01*
X35165D01*
X34385Y-155116D01*
X33723Y-155558D01*
X31369Y-157913D01*
X31162Y-157827D01*
X30000Y-157674D01*
X28838Y-157827D01*
X27754Y-158276D01*
X26824Y-158990D01*
X26111Y-159920D01*
X25662Y-161003D01*
X25509Y-162165D01*
X25662Y-163328D01*
X26111Y-164411D01*
X26824Y-165341D01*
X27754Y-166055D01*
X28838Y-166504D01*
X30000Y-166656D01*
X31162Y-166504D01*
X32246Y-166055D01*
X33176Y-165341D01*
X33889Y-164411D01*
X34338Y-163328D01*
X34491Y-162165D01*
X34338Y-161003D01*
X34253Y-160797D01*
X35778Y-159271D01*
X35958Y-159297D01*
X36176Y-159834D01*
X36110Y-159920D01*
X35662Y-161003D01*
X35509Y-162165D01*
X35662Y-163328D01*
X36110Y-164411D01*
X36188Y-164512D01*
X35967Y-164961D01*
X35165D01*
X34385Y-165116D01*
X33723Y-165558D01*
X31369Y-167913D01*
X31162Y-167827D01*
X30000Y-167674D01*
X28838Y-167827D01*
X27754Y-168276D01*
X26824Y-168990D01*
X26111Y-169920D01*
X25662Y-171003D01*
X25509Y-172165D01*
X25662Y-173328D01*
X26111Y-174411D01*
X26824Y-175341D01*
X27754Y-176055D01*
X28838Y-176504D01*
X30000Y-176656D01*
X31162Y-176504D01*
X32246Y-176055D01*
X33176Y-175341D01*
X33889Y-174411D01*
X34338Y-173328D01*
X34491Y-172165D01*
X34338Y-171003D01*
X34253Y-170797D01*
X35778Y-169271D01*
X35958Y-169297D01*
X36176Y-169834D01*
X36110Y-169920D01*
X35662Y-171003D01*
X35509Y-172165D01*
X35662Y-173328D01*
X36110Y-174411D01*
X36188Y-174512D01*
X35967Y-174961D01*
X35165D01*
X34385Y-175116D01*
X33723Y-175558D01*
X31369Y-177913D01*
X31162Y-177827D01*
X30000Y-177674D01*
X28838Y-177827D01*
X27754Y-178276D01*
X26824Y-178990D01*
X26111Y-179920D01*
X25662Y-181003D01*
X25509Y-182165D01*
X25662Y-183328D01*
X26111Y-184411D01*
X26824Y-185341D01*
X27754Y-186055D01*
X28838Y-186504D01*
X30000Y-186656D01*
X31162Y-186504D01*
X32246Y-186055D01*
X33176Y-185341D01*
X33889Y-184411D01*
X34338Y-183328D01*
X34491Y-182165D01*
X34338Y-181003D01*
X34253Y-180797D01*
X35778Y-179271D01*
X35958Y-179297D01*
X36176Y-179834D01*
X36110Y-179920D01*
X35662Y-181003D01*
X35509Y-182165D01*
X35662Y-183328D01*
X36110Y-184411D01*
X36188Y-184512D01*
X35967Y-184961D01*
X35165D01*
X34385Y-185116D01*
X33723Y-185558D01*
X31369Y-187913D01*
X31162Y-187827D01*
X30000Y-187674D01*
X28838Y-187827D01*
X27754Y-188276D01*
X26824Y-188990D01*
X26111Y-189920D01*
X25662Y-191003D01*
X25509Y-192165D01*
X25662Y-193328D01*
X26111Y-194411D01*
X26824Y-195341D01*
X27754Y-196055D01*
X28838Y-196503D01*
X30000Y-196657D01*
X31162Y-196503D01*
X32246Y-196055D01*
X33176Y-195341D01*
X33889Y-194411D01*
X34338Y-193328D01*
X34491Y-192165D01*
X34338Y-191003D01*
X34253Y-190797D01*
X35778Y-189271D01*
X35958Y-189297D01*
X36176Y-189834D01*
X36110Y-189920D01*
X35662Y-191003D01*
X35509Y-192165D01*
X35662Y-193328D01*
X36110Y-194411D01*
X36824Y-195341D01*
X37754Y-196055D01*
X38838Y-196503D01*
X40000Y-196657D01*
X41162Y-196503D01*
X42246Y-196055D01*
X43176Y-195341D01*
X43889Y-194411D01*
X43975Y-194204D01*
X45000D01*
X45780Y-194049D01*
X46442Y-193607D01*
X76510Y-163539D01*
X118185D01*
X123088Y-168442D01*
X123088Y-168442D01*
X123749Y-168884D01*
X124530Y-169039D01*
X141827D01*
X141961Y-169173D01*
Y-172024D01*
X141909D01*
Y-180830D01*
X141909Y-181052D01*
X141856Y-181198D01*
X141734Y-181493D01*
X141734Y-181494D01*
X141733Y-181494D01*
X141438Y-181616D01*
X141292Y-181669D01*
X141126Y-181669D01*
X132264D01*
Y-181689D01*
X131573D01*
X116942Y-167058D01*
X116280Y-166616D01*
X115500Y-166461D01*
X81165D01*
X80385Y-166616D01*
X79723Y-167058D01*
X79723Y-167058D01*
X46655Y-200126D01*
X43975D01*
X43889Y-199920D01*
X43176Y-198990D01*
X42246Y-198276D01*
X41162Y-197827D01*
X40000Y-197674D01*
X38838Y-197827D01*
X37754Y-198276D01*
X36824Y-198990D01*
X36110Y-199920D01*
X35662Y-201003D01*
X35509Y-202165D01*
X35662Y-203328D01*
X36110Y-204411D01*
X36188Y-204512D01*
X35967Y-204961D01*
X35165D01*
X34385Y-205116D01*
X33723Y-205558D01*
X31369Y-207913D01*
X31162Y-207827D01*
X30000Y-207674D01*
X28838Y-207827D01*
X27754Y-208276D01*
X26824Y-208990D01*
X26111Y-209920D01*
X25662Y-211003D01*
X25509Y-212165D01*
X25662Y-213328D01*
X26111Y-214411D01*
X26188Y-214512D01*
X25967Y-214961D01*
X25345D01*
X24539Y-214155D01*
Y-205345D01*
X25563Y-204321D01*
X26102Y-204391D01*
X26111Y-204411D01*
X26824Y-205341D01*
X27754Y-206055D01*
X28838Y-206504D01*
X30000Y-206657D01*
X31162Y-206504D01*
X32246Y-206055D01*
X33176Y-205341D01*
X33889Y-204411D01*
X34338Y-203328D01*
X34491Y-202165D01*
X34338Y-201003D01*
X33889Y-199920D01*
X33176Y-198990D01*
X32246Y-198276D01*
X31162Y-197827D01*
X30000Y-197674D01*
X28838Y-197827D01*
X27754Y-198276D01*
X26824Y-198990D01*
X26111Y-199920D01*
X26025Y-200126D01*
X24835D01*
X24054Y-200281D01*
X23393Y-200723D01*
X21058Y-203058D01*
X20616Y-203720D01*
X20461Y-204500D01*
Y-215000D01*
X20616Y-215780D01*
X21058Y-216442D01*
X23058Y-218442D01*
X23720Y-218884D01*
X24500Y-219039D01*
X26221D01*
X26442Y-219488D01*
X26111Y-219920D01*
X25662Y-221003D01*
X25509Y-222165D01*
X25662Y-223328D01*
X26111Y-224411D01*
X26824Y-225341D01*
X27754Y-226055D01*
X28838Y-226503D01*
X30000Y-226657D01*
X31162Y-226503D01*
X32246Y-226055D01*
X33176Y-225341D01*
X33889Y-224411D01*
X34338Y-223328D01*
X34491Y-222165D01*
X34338Y-221003D01*
X33889Y-219920D01*
X33558Y-219488D01*
X33779Y-219039D01*
X36221D01*
X36442Y-219488D01*
X36110Y-219920D01*
X35662Y-221003D01*
X35509Y-222165D01*
X35662Y-223328D01*
X36110Y-224411D01*
X36824Y-225341D01*
X37754Y-226055D01*
X37961Y-226140D01*
Y-247500D01*
X38116Y-248280D01*
X38558Y-248942D01*
X46058Y-256442D01*
X46720Y-256884D01*
X47500Y-257039D01*
X51025D01*
X51111Y-257246D01*
X51824Y-258176D01*
X52754Y-258890D01*
X53838Y-259338D01*
X55000Y-259491D01*
X56162Y-259338D01*
X57246Y-258890D01*
X58176Y-258176D01*
X58890Y-257246D01*
X59338Y-256162D01*
X59491Y-255000D01*
X59338Y-253838D01*
X58890Y-252754D01*
X58176Y-251824D01*
X57246Y-251111D01*
X56162Y-250662D01*
X55000Y-250509D01*
X53838Y-250662D01*
X52754Y-251111D01*
X51824Y-251824D01*
X51111Y-252754D01*
X51025Y-252961D01*
X48345D01*
X42039Y-246655D01*
Y-226140D01*
X42246Y-226055D01*
X43176Y-225341D01*
X43889Y-224411D01*
X44338Y-223328D01*
X44491Y-222165D01*
X44338Y-221003D01*
X43889Y-219920D01*
X43558Y-219488D01*
X43779Y-219039D01*
X47500D01*
X48280Y-218884D01*
X48942Y-218442D01*
X87845Y-179539D01*
X111655D01*
X121249Y-189133D01*
X121058Y-189595D01*
X107866D01*
X107086Y-189750D01*
X106424Y-190192D01*
X106116Y-190500D01*
X96250D01*
Y-191461D01*
X93500D01*
X92720Y-191616D01*
X92058Y-192058D01*
X86155Y-197961D01*
X77500D01*
X76720Y-198116D01*
X76058Y-198558D01*
X73558Y-201058D01*
X73116Y-201720D01*
X72961Y-202500D01*
Y-249155D01*
X69411Y-252706D01*
X69235Y-252722D01*
X68793Y-252629D01*
X68176Y-251824D01*
X67246Y-251111D01*
X66162Y-250662D01*
X65000Y-250509D01*
X63838Y-250662D01*
X62754Y-251111D01*
X61824Y-251824D01*
X61111Y-252754D01*
X60662Y-253838D01*
X60509Y-255000D01*
X60662Y-256162D01*
X61111Y-257246D01*
X61824Y-258176D01*
X62754Y-258890D01*
X63838Y-259338D01*
X65000Y-259491D01*
X66162Y-259338D01*
X67246Y-258890D01*
X68176Y-258176D01*
X68889Y-257246D01*
X68975Y-257039D01*
X70000D01*
X70780Y-256884D01*
X71442Y-256442D01*
X76442Y-251442D01*
X76884Y-250780D01*
X77039Y-250000D01*
Y-203345D01*
X78345Y-202039D01*
X81605D01*
X81654Y-202539D01*
X81625Y-202545D01*
X80798Y-203098D01*
X80245Y-203924D01*
X80051Y-204900D01*
Y-209500D01*
X80245Y-210475D01*
X80798Y-211302D01*
X86798Y-217302D01*
X87625Y-217855D01*
X88600Y-218049D01*
X97451D01*
Y-221914D01*
X97147Y-222147D01*
X96506Y-222983D01*
X96103Y-223956D01*
X95965Y-225000D01*
X96103Y-226044D01*
X96506Y-227017D01*
X97147Y-227853D01*
X97983Y-228494D01*
X98956Y-228897D01*
X100000Y-229034D01*
X101044Y-228897D01*
X102017Y-228494D01*
X102853Y-227853D01*
X103494Y-227017D01*
X103897Y-226044D01*
X104034Y-225000D01*
X103897Y-223956D01*
X103494Y-222983D01*
X102853Y-222147D01*
X102549Y-221914D01*
Y-219000D01*
X109250D01*
Y-218049D01*
X117750D01*
Y-218500D01*
X120972D01*
X124250Y-221778D01*
Y-225000D01*
X130750D01*
Y-219000D01*
X128015D01*
X127976Y-218941D01*
X128212Y-218500D01*
X137250D01*
X137250Y-218500D01*
Y-218500D01*
X137647Y-218736D01*
X137983Y-218994D01*
X138956Y-219397D01*
X140000Y-219534D01*
X141044Y-219397D01*
X142017Y-218994D01*
X142853Y-218353D01*
X143494Y-217517D01*
X143646Y-217150D01*
X145898D01*
Y-230218D01*
X137655Y-238461D01*
X97672D01*
X96891Y-238616D01*
X96230Y-239058D01*
X92558Y-242730D01*
X92116Y-243391D01*
X91961Y-244172D01*
Y-247655D01*
X88558Y-251058D01*
X88116Y-251720D01*
X87961Y-252500D01*
X88006Y-252725D01*
X87951Y-253000D01*
Y-259750D01*
X87000D01*
Y-268250D01*
X86603Y-268500D01*
X86250D01*
Y-275500D01*
X94750D01*
Y-268500D01*
X94397D01*
X94000Y-268250D01*
Y-259750D01*
X93049D01*
Y-253000D01*
X92939Y-252445D01*
X95000Y-250384D01*
X97061Y-252445D01*
X96951Y-253000D01*
Y-259750D01*
X96000D01*
Y-268250D01*
X95604Y-268500D01*
X95250D01*
Y-275500D01*
X103750D01*
Y-268500D01*
X103396D01*
X103000Y-268250D01*
Y-259750D01*
X102049D01*
Y-253000D01*
X101994Y-252725D01*
X102039Y-252500D01*
X101884Y-251720D01*
X101442Y-251058D01*
X98039Y-247655D01*
Y-245845D01*
X99345Y-244539D01*
X140000D01*
X140780Y-244384D01*
X141442Y-243942D01*
X149373Y-236011D01*
X149835Y-236202D01*
Y-236781D01*
X141155Y-245461D01*
X135000D01*
X134220Y-245616D01*
X133558Y-246058D01*
X128558Y-251058D01*
X128116Y-251720D01*
X127961Y-252500D01*
X128006Y-252725D01*
X127951Y-253000D01*
Y-259750D01*
X127000D01*
Y-268250D01*
X126603Y-268500D01*
X126250D01*
Y-275500D01*
X134750D01*
Y-268500D01*
X134397D01*
X134000Y-268250D01*
Y-259750D01*
X133049D01*
Y-253000D01*
X132939Y-252445D01*
X135845Y-249539D01*
X139424D01*
X139615Y-250001D01*
X139082Y-250534D01*
X138524Y-250645D01*
X137698Y-251198D01*
X137145Y-252025D01*
X136951Y-253000D01*
Y-259750D01*
X136000D01*
Y-268250D01*
X135603Y-268500D01*
X135250D01*
Y-275500D01*
X143750D01*
Y-268500D01*
X143396D01*
X143000Y-268250D01*
Y-259750D01*
X142049D01*
Y-253335D01*
X155000Y-240384D01*
X167951Y-253335D01*
Y-259750D01*
X167000D01*
Y-268250D01*
X166604Y-268500D01*
X166250D01*
Y-275500D01*
X174750D01*
Y-268500D01*
X174397D01*
X174000Y-268250D01*
Y-259750D01*
X173049D01*
Y-253000D01*
X172855Y-252025D01*
X172302Y-251198D01*
X171476Y-250645D01*
X170918Y-250534D01*
X170385Y-250001D01*
X170576Y-249539D01*
X174155D01*
X177061Y-252445D01*
X176951Y-253000D01*
Y-259750D01*
X176000D01*
Y-268250D01*
X175603Y-268500D01*
X175250D01*
Y-275500D01*
X183750D01*
Y-268500D01*
X183396D01*
X183000Y-268250D01*
Y-259750D01*
X182049D01*
Y-253000D01*
X181994Y-252725D01*
X182039Y-252500D01*
X181884Y-251720D01*
X181442Y-251058D01*
X176442Y-246058D01*
X175780Y-245616D01*
X175000Y-245461D01*
X168845D01*
X159819Y-236435D01*
Y-235856D01*
X160281Y-235665D01*
X168558Y-243942D01*
X169220Y-244384D01*
X170000Y-244539D01*
X210655D01*
X211961Y-245845D01*
Y-247655D01*
X208558Y-251058D01*
X208116Y-251720D01*
X207961Y-252500D01*
X208006Y-252725D01*
X207951Y-253000D01*
Y-259750D01*
X207000D01*
Y-268250D01*
X206604Y-268500D01*
X206250D01*
Y-275500D01*
X214750D01*
Y-268500D01*
X214397D01*
X214000Y-268250D01*
Y-259750D01*
X213049D01*
Y-253000D01*
X212939Y-252445D01*
X215000Y-250384D01*
X217061Y-252445D01*
X216951Y-253000D01*
Y-259750D01*
X216000D01*
Y-268250D01*
X215603Y-268500D01*
X215250D01*
Y-275500D01*
X223750D01*
Y-268500D01*
X223396D01*
X223000Y-268250D01*
Y-259750D01*
X222049D01*
Y-253000D01*
X221994Y-252725D01*
X222039Y-252500D01*
X221884Y-251720D01*
X221442Y-251058D01*
X218039Y-247655D01*
Y-244172D01*
X217884Y-243391D01*
X217442Y-242730D01*
X213770Y-239058D01*
X213109Y-238616D01*
X212328Y-238461D01*
X171845D01*
X163756Y-230372D01*
Y-223293D01*
X164218Y-223101D01*
X166058Y-224942D01*
X166058Y-224942D01*
X166720Y-225384D01*
X167500Y-225539D01*
X170250D01*
Y-226500D01*
X171359D01*
Y-227113D01*
X168986Y-229486D01*
X168522Y-230181D01*
X168359Y-231000D01*
X168522Y-231819D01*
X168986Y-232514D01*
X169681Y-232978D01*
X170500Y-233141D01*
X171319Y-232978D01*
X172014Y-232514D01*
X175014Y-229514D01*
X175478Y-228819D01*
X175641Y-228000D01*
Y-226500D01*
X176645D01*
X176750Y-226570D01*
Y-228500D01*
X185250D01*
Y-221500D01*
X176750D01*
Y-220500D01*
X170250D01*
Y-221461D01*
X168345D01*
X165724Y-218840D01*
Y-217150D01*
X165776D01*
Y-207850D01*
X141920D01*
X141739Y-207675D01*
X141563Y-207494D01*
Y-203323D01*
X132264D01*
Y-203374D01*
X131087D01*
X130306Y-203529D01*
X129645Y-203972D01*
X121116Y-212500D01*
X117750D01*
Y-212951D01*
X109250D01*
Y-212000D01*
X100750D01*
Y-212951D01*
X89656D01*
X85149Y-208444D01*
Y-207041D01*
X90100D01*
X90919Y-206878D01*
X91614Y-206414D01*
X95750Y-202278D01*
X96250Y-202472D01*
Y-203000D01*
X102750D01*
Y-197000D01*
X96250D01*
Y-197859D01*
X95000D01*
X94181Y-198022D01*
X93486Y-198486D01*
X89213Y-202759D01*
X83952D01*
X83714Y-202539D01*
X83908Y-202039D01*
X87000D01*
X87780Y-201884D01*
X88442Y-201442D01*
X94345Y-195539D01*
X96250D01*
Y-196500D01*
X109250D01*
Y-199000D01*
X117750D01*
Y-198500D01*
X124250D01*
Y-197610D01*
X132264D01*
Y-197661D01*
X141563D01*
Y-195693D01*
Y-191756D01*
Y-187819D01*
Y-183638D01*
X141563Y-182107D01*
Y-181940D01*
X141616Y-181794D01*
X141738Y-181499D01*
X141739Y-181499D01*
X141739Y-181498D01*
X142034Y-181376D01*
X142180Y-181323D01*
X142347Y-181323D01*
X167734D01*
X167915Y-181499D01*
X168090Y-181679D01*
Y-185850D01*
Y-189787D01*
Y-193724D01*
Y-197661D01*
Y-199630D01*
Y-203567D01*
Y-207504D01*
X177390D01*
Y-207453D01*
X184569D01*
X198461Y-221345D01*
Y-228500D01*
X198616Y-229280D01*
X199058Y-229942D01*
X203558Y-234442D01*
X204220Y-234884D01*
X205000Y-235039D01*
X225000D01*
X225780Y-234884D01*
X226442Y-234442D01*
X227442Y-233442D01*
X227884Y-232780D01*
X228039Y-232000D01*
Y-231000D01*
X238750D01*
Y-230049D01*
X239944D01*
X285000Y-275105D01*
Y-290000D01*
X275000Y-300000D01*
X219549D01*
Y-292250D01*
X223500D01*
Y-284000D01*
X223500Y-283750D01*
X223897Y-283500D01*
X224103D01*
X224500Y-283750D01*
Y-292250D01*
X231500D01*
Y-283750D01*
X231896Y-283500D01*
X232250D01*
Y-276500D01*
X215250D01*
Y-283500D01*
X216104D01*
X216500Y-283750D01*
X216500Y-284000D01*
Y-287895D01*
X215321Y-289074D01*
X215000Y-289151D01*
X214679Y-289074D01*
X213500Y-287895D01*
Y-284000D01*
X213500Y-283750D01*
X213896Y-283500D01*
X214750D01*
Y-276500D01*
X197750D01*
Y-283500D01*
X198103D01*
X198500Y-283750D01*
Y-292250D01*
X205500D01*
Y-283750D01*
X205896Y-283500D01*
X206103D01*
X206500Y-283750D01*
X206500Y-284000D01*
Y-292250D01*
X210451D01*
Y-300000D01*
X179549D01*
Y-292250D01*
X183500D01*
Y-284000D01*
X183500Y-283750D01*
X183897Y-283500D01*
X184104D01*
X184500Y-283750D01*
Y-292250D01*
X191500D01*
Y-283750D01*
X191896Y-283500D01*
X192250D01*
Y-276500D01*
X175250D01*
Y-283500D01*
X176103D01*
X176500Y-283750D01*
X176500Y-284000D01*
Y-287895D01*
X175321Y-289074D01*
X175000Y-289151D01*
X174679Y-289074D01*
X173500Y-287895D01*
Y-284000D01*
X173500Y-283750D01*
X173897Y-283500D01*
X174750D01*
Y-276500D01*
X157750D01*
Y-283500D01*
X158104D01*
X158500Y-283750D01*
Y-292250D01*
X165500D01*
Y-283750D01*
X165896Y-283500D01*
X166103D01*
X166500Y-283750D01*
X166500Y-284000D01*
Y-292250D01*
X170451D01*
Y-300000D01*
X139549D01*
Y-292250D01*
X143500D01*
Y-284000D01*
X143500Y-283750D01*
X143896Y-283500D01*
X144104D01*
X144500Y-283750D01*
Y-292250D01*
X151500D01*
Y-283750D01*
X151897Y-283500D01*
X152250D01*
Y-276500D01*
X135250D01*
Y-283500D01*
X136103D01*
X136500Y-283750D01*
X136500Y-284000D01*
Y-287895D01*
X135321Y-289074D01*
X135000Y-289151D01*
X134679Y-289074D01*
X133500Y-287895D01*
Y-284000D01*
X133500Y-283750D01*
X133897Y-283500D01*
X134750D01*
Y-276500D01*
X117750D01*
Y-283500D01*
X118104D01*
X118500Y-283750D01*
Y-292250D01*
X125500D01*
Y-283750D01*
X125897Y-283500D01*
X126103D01*
X126500Y-283750D01*
X126500Y-284000D01*
Y-292250D01*
X130451D01*
Y-300000D01*
X99549D01*
Y-292250D01*
X103500D01*
Y-284000D01*
X103500Y-283750D01*
X103896Y-283500D01*
X104104D01*
X104500Y-283750D01*
Y-292250D01*
X111500D01*
Y-283750D01*
X111897Y-283500D01*
X112250D01*
Y-276500D01*
X95250D01*
Y-283500D01*
X96104D01*
X96500Y-283750D01*
X96500Y-284000D01*
Y-287895D01*
X95321Y-289074D01*
X95000Y-289151D01*
X94679Y-289074D01*
X93500Y-287895D01*
Y-284000D01*
X93500Y-283750D01*
X93897Y-283500D01*
X94750D01*
Y-276500D01*
X77750D01*
Y-283500D01*
X78104D01*
X78500Y-283750D01*
Y-292250D01*
X85500D01*
Y-283750D01*
X85896Y-283500D01*
X86103D01*
X86500Y-283750D01*
X86500Y-284000D01*
Y-292250D01*
X90451D01*
Y-300000D01*
X5000D01*
X2039Y-297039D01*
Y-67961D01*
X5000Y-65000D01*
X77972D01*
X78000Y-65488D01*
X78000Y-65500D01*
Y-79512D01*
X79951D01*
Y-86343D01*
X79324Y-86824D01*
X78610Y-87754D01*
X78162Y-88838D01*
X78009Y-90000D01*
X78162Y-91162D01*
X78610Y-92246D01*
X79324Y-93176D01*
X80254Y-93889D01*
X81338Y-94338D01*
X82500Y-94491D01*
X83662Y-94338D01*
X83983Y-94205D01*
X84266Y-94629D01*
X79698Y-99198D01*
X79145Y-100024D01*
X79050Y-100500D01*
X77250D01*
Y-107500D01*
X85750D01*
Y-100500D01*
X85750Y-100500D01*
X85750D01*
X85996Y-100109D01*
X91717Y-94388D01*
X92500Y-94491D01*
X93662Y-94338D01*
X94746Y-93889D01*
X95451Y-93348D01*
X95951Y-93595D01*
Y-100500D01*
X93250D01*
Y-107500D01*
X101750D01*
Y-100500D01*
X101049D01*
Y-78500D01*
X100855Y-77525D01*
X100302Y-76698D01*
X97039Y-73434D01*
Y-69988D01*
X96884Y-68814D01*
X96431Y-67719D01*
X95709Y-66779D01*
X94769Y-66057D01*
X93675Y-65604D01*
X92884Y-65500D01*
X92917Y-65000D01*
X102971D01*
X103000Y-65488D01*
X103000Y-65500D01*
Y-79512D01*
X104951D01*
Y-86343D01*
X104324Y-86824D01*
X103611Y-87754D01*
X103162Y-88838D01*
X103009Y-90000D01*
X103162Y-91162D01*
X103611Y-92246D01*
X104324Y-93176D01*
X105254Y-93889D01*
X106338Y-94338D01*
X107500Y-94491D01*
X108662Y-94338D01*
X108983Y-94205D01*
X109266Y-94629D01*
X104698Y-99198D01*
X104145Y-100024D01*
X104051Y-100500D01*
X102250D01*
Y-107500D01*
X110750D01*
Y-100500D01*
X110750Y-100500D01*
X110750D01*
X110996Y-100109D01*
X116717Y-94388D01*
X117500Y-94491D01*
X118662Y-94338D01*
X119746Y-93889D01*
X120451Y-93348D01*
X120951Y-93595D01*
Y-100500D01*
X118250D01*
Y-107500D01*
X126750D01*
Y-100500D01*
X126049D01*
Y-78500D01*
X125855Y-77525D01*
X125302Y-76698D01*
X122039Y-73434D01*
Y-69988D01*
X121884Y-68814D01*
X121431Y-67719D01*
X120709Y-66779D01*
X119769Y-66057D01*
X118675Y-65604D01*
X117885Y-65500D01*
X117917Y-65000D01*
X127971D01*
X128000Y-65488D01*
X128000Y-65500D01*
Y-79512D01*
X129951D01*
Y-86343D01*
X129324Y-86824D01*
X128611Y-87754D01*
X128162Y-88838D01*
X128009Y-90000D01*
X128162Y-91162D01*
X128611Y-92246D01*
X129324Y-93176D01*
X130254Y-93889D01*
X131338Y-94338D01*
X132500Y-94491D01*
X133662Y-94338D01*
X133983Y-94205D01*
X134266Y-94629D01*
X129698Y-99198D01*
X129145Y-100024D01*
X129051Y-100500D01*
X127250D01*
Y-107500D01*
X135750D01*
Y-100500D01*
X135750Y-100500D01*
X135750D01*
X135996Y-100109D01*
X141717Y-94388D01*
X142500Y-94491D01*
X143662Y-94338D01*
X144746Y-93889D01*
X145451Y-93348D01*
X145951Y-93595D01*
Y-100500D01*
X143250D01*
Y-107500D01*
X151750D01*
Y-100500D01*
X151049D01*
Y-78500D01*
X150855Y-77525D01*
X150302Y-76698D01*
X147039Y-73434D01*
Y-69988D01*
X146884Y-68814D01*
X146431Y-67719D01*
X145709Y-66779D01*
X144769Y-66057D01*
X143675Y-65604D01*
X142885Y-65500D01*
X142917Y-65000D01*
X152971D01*
X153000Y-65488D01*
X153000Y-65500D01*
Y-79512D01*
X154951D01*
Y-86343D01*
X154324Y-86824D01*
X153611Y-87754D01*
X153162Y-88838D01*
X153009Y-90000D01*
X153162Y-91162D01*
X153611Y-92246D01*
X154324Y-93176D01*
X155254Y-93889D01*
X156338Y-94338D01*
X157500Y-94491D01*
X158662Y-94338D01*
X158983Y-94205D01*
X159266Y-94629D01*
X154698Y-99198D01*
X154145Y-100024D01*
X154051Y-100500D01*
X152250D01*
Y-107500D01*
X160750D01*
Y-100500D01*
X160750Y-100500D01*
X160750D01*
X160996Y-100109D01*
X166717Y-94388D01*
X167500Y-94491D01*
X168662Y-94338D01*
X169746Y-93889D01*
X170451Y-93348D01*
X170951Y-93595D01*
Y-100500D01*
X168250D01*
Y-107500D01*
X176750D01*
Y-100500D01*
X176049D01*
Y-78500D01*
X175855Y-77525D01*
X175302Y-76698D01*
X172039Y-73434D01*
Y-69988D01*
X171884Y-68814D01*
X171431Y-67719D01*
X170709Y-66779D01*
X169769Y-66057D01*
X168675Y-65604D01*
X167885Y-65500D01*
X167917Y-65000D01*
X180000D01*
X185000Y-60000D01*
Y-5000D01*
X187961Y-2039D01*
X312039D01*
X315000Y-5000D01*
D02*
G37*
G36*
X175961Y-174546D02*
Y-181655D01*
X175947Y-181669D01*
X168101D01*
X167920Y-181494D01*
X167744Y-181313D01*
Y-172024D01*
X167693D01*
Y-166931D01*
X168155Y-166739D01*
X175961Y-174546D01*
D02*
G37*
G36*
X141734Y-207680D02*
X141909Y-207860D01*
Y-211420D01*
X141433Y-211764D01*
X141044Y-211603D01*
X140000Y-211466D01*
X138956Y-211603D01*
X137983Y-212006D01*
X137648Y-212263D01*
X137250Y-212500D01*
Y-212500D01*
X137250Y-212500D01*
X127537D01*
X127346Y-212038D01*
X131798Y-207586D01*
X132264Y-207504D01*
X132264Y-207504D01*
X132264Y-207504D01*
X141553D01*
X141734Y-207680D01*
D02*
G37*
G36*
X279198Y-201802D02*
X280025Y-202355D01*
X281000Y-202549D01*
X285000D01*
Y-231742D01*
X284538Y-231933D01*
X258302Y-205698D01*
X257475Y-205145D01*
X256500Y-204951D01*
X238750D01*
Y-204000D01*
X204750D01*
Y-205461D01*
X203345D01*
X197924Y-200041D01*
X198116Y-199579D01*
X200461D01*
X201241Y-199423D01*
X201903Y-198981D01*
X205845Y-195039D01*
X224500D01*
X225280Y-194884D01*
X225942Y-194442D01*
X227442Y-192942D01*
X227884Y-192280D01*
X228039Y-191500D01*
Y-191000D01*
X238750D01*
Y-190049D01*
X267444D01*
X279198Y-201802D01*
D02*
G37*
G36*
X203558Y-214442D02*
X203558Y-214442D01*
X204220Y-214884D01*
X205000Y-215039D01*
X205000Y-215039D01*
X225000D01*
X225780Y-214884D01*
X226442Y-214442D01*
X227442Y-213442D01*
X227884Y-212780D01*
X228039Y-212000D01*
Y-211000D01*
X238750D01*
Y-210049D01*
X255444D01*
X285000Y-239605D01*
Y-267242D01*
X284538Y-267433D01*
X242802Y-225698D01*
X241975Y-225145D01*
X241000Y-224951D01*
X238750D01*
Y-224000D01*
X204750D01*
X204539Y-223587D01*
Y-219500D01*
X204384Y-218720D01*
X203942Y-218058D01*
X203942Y-218058D01*
X189861Y-203977D01*
X190053Y-203516D01*
X192632D01*
X203558Y-214442D01*
D02*
G37*
%LPC*%
G36*
X168750Y-108500D02*
X152250D01*
Y-115500D01*
X168750D01*
Y-108500D01*
D02*
G37*
G36*
X143750D02*
X127250D01*
Y-115500D01*
X143750D01*
Y-108500D01*
D02*
G37*
G36*
X118750D02*
X102250D01*
Y-115500D01*
X118750D01*
Y-108500D01*
D02*
G37*
G36*
X93750D02*
X77250D01*
Y-115500D01*
X93750D01*
Y-108500D01*
D02*
G37*
G36*
X33307Y-237022D02*
X30354D01*
X29577Y-237124D01*
X28853Y-237424D01*
X28232Y-237901D01*
X27755Y-238523D01*
X27455Y-239247D01*
X27352Y-240024D01*
Y-242976D01*
X27455Y-243753D01*
X27755Y-244477D01*
X28232Y-245099D01*
X28853Y-245576D01*
X29577Y-245876D01*
X30354Y-245978D01*
X33307D01*
X34084Y-245876D01*
X34808Y-245576D01*
X35430Y-245099D01*
X35907Y-244477D01*
X36207Y-243753D01*
X36309Y-242976D01*
Y-240024D01*
X36207Y-239247D01*
X35907Y-238523D01*
X35430Y-237901D01*
X34808Y-237424D01*
X34084Y-237124D01*
X33307Y-237022D01*
D02*
G37*
G36*
X31831Y-247009D02*
X30668Y-247162D01*
X29585Y-247610D01*
X28655Y-248324D01*
X27941Y-249254D01*
X27493Y-250338D01*
X27340Y-251500D01*
X27493Y-252662D01*
X27941Y-253746D01*
X28655Y-254676D01*
X29585Y-255389D01*
X30668Y-255838D01*
X31831Y-255991D01*
X32993Y-255838D01*
X34076Y-255389D01*
X35006Y-254676D01*
X35720Y-253746D01*
X36169Y-252662D01*
X36322Y-251500D01*
X36169Y-250338D01*
X35720Y-249254D01*
X35006Y-248324D01*
X34076Y-247610D01*
X32993Y-247162D01*
X31831Y-247009D01*
D02*
G37*
%LPD*%
D14*
X140000Y-215500D02*
X141000D01*
X134000D02*
X140000D01*
X121000D02*
X131087Y-205413D01*
X136913D01*
X70000Y-255000D02*
X75000Y-250000D01*
Y-202500D02*
X77500Y-200000D01*
X75000Y-250000D02*
Y-202500D01*
X146470Y-145000D02*
X165654Y-164183D01*
Y-176673D02*
Y-164183D01*
X146642Y-148000D02*
X163685Y-165043D01*
Y-176673D02*
Y-165043D01*
X146814Y-151000D02*
X161716Y-165903D01*
Y-176673D02*
Y-165903D01*
X146985Y-154000D02*
X159748Y-166763D01*
Y-176673D02*
Y-166763D01*
X147157Y-157000D02*
X157780Y-167623D01*
Y-176673D02*
Y-167623D01*
X146328Y-159000D02*
X155811Y-168483D01*
Y-176673D02*
Y-168483D01*
X153842Y-238657D02*
Y-212500D01*
X140000Y-252500D02*
X153842Y-238657D01*
X142000Y-247500D02*
X151874Y-237626D01*
Y-212500D01*
X182000Y-184328D02*
Y-172044D01*
X178631Y-187697D02*
X182000Y-184328D01*
X172740Y-187697D02*
X178631D01*
X186500Y-186500D02*
Y-149000D01*
X183335Y-189665D02*
X186500Y-186500D01*
X172740Y-189665D02*
X183335D01*
X190000Y-165500D02*
X196500Y-159000D01*
X190000Y-186000D02*
Y-165500D01*
X177628Y-140128D02*
X186500Y-149000D01*
X136000Y-210000D02*
X139000D01*
X147000Y-202000D01*
X151874Y-182874D02*
X155000Y-186000D01*
X151874Y-182874D02*
Y-176673D01*
X146476Y-201476D02*
X147000Y-202000D01*
X136913Y-201476D02*
X146476D01*
X163000Y-202000D02*
X165654Y-204654D01*
Y-212500D02*
Y-204654D01*
X163000Y-194000D02*
X163398Y-193602D01*
X172740D01*
X145968Y-184968D02*
X147000Y-186000D01*
X145968Y-184968D02*
Y-176673D01*
X124665Y-189665D02*
X136913D01*
X147121Y-137165D02*
X182000Y-172044D01*
X216000Y-248500D02*
X220000Y-252500D01*
X210000D02*
X214000Y-248500D01*
X175000Y-247500D02*
X180000Y-252500D01*
X130000D02*
X135000Y-247500D01*
X96000Y-248500D02*
X100000Y-252500D01*
X90000D02*
X94000Y-248500D01*
X136913Y-195539D02*
Y-193602D01*
X135000Y-247500D02*
X142000D01*
X155811Y-238311D02*
Y-212500D01*
Y-238311D02*
X170000Y-252500D01*
X157780Y-237280D02*
Y-212500D01*
Y-237280D02*
X168000Y-247500D01*
X175000D01*
X141000Y-215500D02*
X144000Y-212500D01*
X159748Y-232248D02*
X170000Y-242500D01*
X159748Y-232248D02*
Y-212500D01*
X161716Y-231217D02*
X171000Y-240500D01*
X212328D01*
X216000Y-244172D01*
Y-248500D02*
Y-244172D01*
X161716Y-231217D02*
Y-212500D01*
X140000Y-242500D02*
X149906Y-232594D01*
X98500Y-242500D02*
X140000D01*
X96000Y-245000D02*
X98500Y-242500D01*
X96000Y-248500D02*
Y-245000D01*
X149906Y-232594D02*
Y-212500D01*
X138500Y-240500D02*
X147937Y-231063D01*
X97672Y-240500D02*
X138500D01*
X94000Y-244172D02*
X97672Y-240500D01*
X94000Y-248500D02*
Y-244172D01*
X147937Y-231063D02*
Y-212500D01*
X163685Y-219685D02*
Y-212500D01*
Y-219685D02*
X167500Y-223500D01*
X173500D01*
X172740Y-205413D02*
X185413D01*
X172740Y-201476D02*
X193476D01*
X205000Y-213000D01*
X172740Y-203445D02*
X186445D01*
X202500Y-219500D01*
X200500Y-228500D02*
Y-220500D01*
Y-228500D02*
X205000Y-233000D01*
X185413Y-205413D02*
X200500Y-220500D01*
X172740Y-199508D02*
X194508D01*
X172740Y-197539D02*
X200461D01*
X205000Y-193000D01*
X211500Y-242500D02*
X214000Y-245000D01*
Y-248500D02*
Y-245000D01*
X170000Y-242500D02*
X211500D01*
X153842Y-176673D02*
Y-169343D01*
X177740Y-185760D02*
X180000Y-183500D01*
X172740Y-185760D02*
X177740D01*
X176740Y-183760D02*
X178000Y-182500D01*
X172740Y-183760D02*
X176740D01*
X172740Y-191634D02*
X184366D01*
X190000Y-186000D01*
X136913Y-199508D02*
Y-197539D01*
Y-201476D02*
Y-199508D01*
X170153Y-217000D02*
X173500D01*
X165654Y-212500D02*
X170153Y-217000D01*
X145968Y-218531D02*
Y-212500D01*
X142500Y-222000D02*
X145968Y-218531D01*
X134000Y-222000D02*
X142500D01*
X136913Y-203163D02*
Y-201476D01*
X130728Y-183728D02*
X136913D01*
X128728Y-185728D02*
X136913D01*
X126665Y-187665D02*
X136913D01*
X126000Y-145500D02*
X128500Y-148000D01*
X136000D01*
X146642D01*
X125000Y-147500D02*
X128500Y-151000D01*
X140000D01*
X146814D01*
X128500Y-154000D02*
X144000D01*
X146985D01*
X124000Y-149500D02*
X128500Y-154000D01*
X128672Y-157000D02*
X147157D01*
X123172Y-151500D02*
X128672Y-157000D01*
X132000Y-145000D02*
X146470D01*
X130500Y-143500D02*
X132000Y-145000D01*
X145464Y-141165D02*
X178000Y-173701D01*
Y-182500D02*
Y-173701D01*
X146293Y-139165D02*
X180000Y-172873D01*
Y-183500D02*
Y-172873D01*
X127843Y-159000D02*
X146328D01*
X122343Y-153500D02*
X127843Y-159000D01*
X127015Y-161000D02*
X145500D01*
X121515Y-155500D02*
X127015Y-161000D01*
X145500D02*
X153842Y-169343D01*
X120686Y-157500D02*
X126186Y-163000D01*
X119858Y-159500D02*
X125358Y-165000D01*
X119029Y-161500D02*
X124530Y-167000D01*
X224500Y-193000D02*
X226000Y-191500D01*
Y-188500D01*
X205000Y-193000D02*
X224500D01*
X198929Y-195571D02*
X207000Y-187500D01*
X209000D01*
X172740Y-195571D02*
X198929D01*
X202500Y-225500D02*
X204500Y-227500D01*
X209000D01*
X202500Y-225500D02*
Y-219500D01*
X225000Y-233000D02*
X226000Y-232000D01*
X205000Y-233000D02*
X225000D01*
X226000Y-232000D02*
Y-228500D01*
X202500Y-207500D02*
X209000D01*
X194508Y-199508D02*
X202500Y-207500D01*
X225000Y-213000D02*
X226000Y-212000D01*
X205000Y-213000D02*
X225000D01*
X226000Y-212000D02*
Y-208500D01*
Y-207500D01*
X173500Y-223500D02*
X176500D01*
X178000Y-225000D01*
X181000D01*
X30000Y-212165D02*
X35165Y-207000D01*
X22500Y-215000D02*
Y-204500D01*
X24835Y-202165D01*
X30000D01*
X22500Y-215000D02*
X24500Y-217000D01*
X38835Y-212165D02*
X39417Y-211583D01*
X30000Y-192165D02*
X35165Y-187000D01*
X30000Y-182165D02*
X35165Y-177000D01*
X30000Y-172165D02*
X35165Y-167000D01*
X30000Y-162165D02*
X35165Y-157000D01*
X30000Y-152165D02*
X35165Y-147000D01*
X45500Y-137000D02*
X47665Y-139165D01*
X35165Y-137000D02*
X45500D01*
X30000Y-142165D02*
X35165Y-137000D01*
X47665Y-139165D02*
X146293D01*
X45083Y-132165D02*
X50083Y-137165D01*
X40000Y-132165D02*
X45083D01*
X50083Y-137165D02*
X147121D01*
X45000Y-142165D02*
X46000Y-141165D01*
X40000Y-142165D02*
X45000D01*
X46000Y-141165D02*
X145464D01*
X45000Y-147000D02*
X48500Y-143500D01*
X35165Y-147000D02*
X45000D01*
X48500Y-143500D02*
X130500D01*
X45000Y-152165D02*
X51665Y-145500D01*
X40000Y-152165D02*
X45000D01*
X51665Y-145500D02*
X126000D01*
X45000Y-157000D02*
X54500Y-147500D01*
X35165Y-157000D02*
X45000D01*
X54500Y-147500D02*
X125000D01*
X45000Y-162165D02*
X57665Y-149500D01*
X40000Y-162165D02*
X45000D01*
X57665Y-149500D02*
X124000D01*
X45000Y-167000D02*
X60500Y-151500D01*
X123172D01*
X35165Y-167000D02*
X45000D01*
Y-172165D02*
X63665Y-153500D01*
X40000Y-172165D02*
X45000D01*
X63665Y-153500D02*
X122343D01*
X45000Y-177000D02*
X66500Y-155500D01*
X121515D01*
X35165Y-177000D02*
X45000D01*
Y-182165D02*
X69665Y-157500D01*
X40000Y-182165D02*
X45000D01*
X69665Y-157500D02*
X120686D01*
X45000Y-187000D02*
X72500Y-159500D01*
X119858D01*
X35165Y-187000D02*
X45000D01*
Y-192165D02*
X75665Y-161500D01*
X40000Y-192165D02*
X45000D01*
X75665Y-161500D02*
X119029D01*
X144500Y-163000D02*
X149937Y-168437D01*
X126186Y-163000D02*
X144500D01*
X149937Y-176673D02*
Y-168437D01*
X143500Y-165000D02*
X147937Y-169437D01*
X125358Y-165000D02*
X143500D01*
X147937Y-173500D02*
Y-169437D01*
X142672Y-167000D02*
X144000Y-168328D01*
X124530Y-167000D02*
X142672D01*
X144000Y-176673D02*
Y-168328D01*
X81165Y-168500D02*
X115500D01*
X47500Y-202165D02*
X81165Y-168500D01*
X40000Y-202165D02*
X47500D01*
X115500Y-168500D02*
X130728Y-183728D01*
X37835Y-202165D02*
X38917Y-201083D01*
X83000Y-171500D02*
X114500D01*
X47500Y-207000D02*
X83000Y-171500D01*
X35165Y-207000D02*
X47500D01*
X114500Y-171500D02*
X128728Y-185728D01*
X85165Y-174500D02*
X113500D01*
X47500Y-212165D02*
X85165Y-174500D01*
X40000Y-212165D02*
X47500D01*
X113500Y-174500D02*
X126665Y-187665D01*
X87000Y-177500D02*
X112500D01*
X47500Y-217000D02*
X87000Y-177500D01*
X24500Y-217000D02*
X47500D01*
X112500Y-177500D02*
X124665Y-189665D01*
X40000Y-247500D02*
Y-222165D01*
Y-247500D02*
X47500Y-255000D01*
X55000D01*
X65000D02*
X70000D01*
X77500Y-200000D02*
X87000D01*
X93500Y-193500D01*
X99500D01*
X106000D01*
X121071Y-195571D02*
X136913D01*
X106000Y-193500D02*
X107866Y-191634D01*
X136913D01*
D18*
X99500Y-193500D02*
D03*
Y-200000D02*
D03*
X127500Y-215500D02*
D03*
Y-222000D02*
D03*
X106000Y-193500D02*
D03*
Y-200000D02*
D03*
X121000Y-202000D02*
D03*
Y-195500D02*
D03*
Y-209000D02*
D03*
Y-215500D02*
D03*
X134000Y-222000D02*
D03*
Y-215500D02*
D03*
X173500Y-223500D02*
D03*
Y-217000D02*
D03*
D19*
X144000Y-212500D02*
D03*
X145968D02*
D03*
X147937D02*
D03*
X149906D02*
D03*
X151874D02*
D03*
X153842D02*
D03*
X155811D02*
D03*
X157780D02*
D03*
X159748D02*
D03*
X161716D02*
D03*
X163685D02*
D03*
X165654D02*
D03*
Y-176673D02*
D03*
X163685D02*
D03*
X161716D02*
D03*
X159748D02*
D03*
X157780D02*
D03*
X155811D02*
D03*
X153842D02*
D03*
X151874D02*
D03*
X149906D02*
D03*
X147937D02*
D03*
X145968D02*
D03*
X144000D02*
D03*
D20*
X172740Y-205413D02*
D03*
Y-203445D02*
D03*
Y-201476D02*
D03*
Y-199508D02*
D03*
Y-197539D02*
D03*
Y-195571D02*
D03*
Y-193602D02*
D03*
Y-191634D02*
D03*
Y-189665D02*
D03*
Y-187697D02*
D03*
Y-185728D02*
D03*
Y-183760D02*
D03*
X136913D02*
D03*
Y-185728D02*
D03*
Y-187697D02*
D03*
Y-189665D02*
D03*
Y-191634D02*
D03*
Y-193602D02*
D03*
Y-195571D02*
D03*
Y-197539D02*
D03*
Y-199508D02*
D03*
Y-201476D02*
D03*
Y-203445D02*
D03*
Y-205413D02*
D03*
D21*
X228000Y-272000D02*
D03*
Y-280000D02*
D03*
X188000Y-272000D02*
D03*
Y-280000D02*
D03*
X202000D02*
D03*
Y-272000D02*
D03*
X162000Y-280000D02*
D03*
Y-272000D02*
D03*
X148000D02*
D03*
Y-280000D02*
D03*
X108000Y-272000D02*
D03*
Y-280000D02*
D03*
X122000D02*
D03*
Y-272000D02*
D03*
X82000Y-280000D02*
D03*
Y-272000D02*
D03*
X113500Y-195500D02*
D03*
Y-203500D02*
D03*
X181000Y-225000D02*
D03*
Y-217000D02*
D03*
X226000Y-219500D02*
D03*
Y-227500D02*
D03*
X209000D02*
D03*
Y-219500D02*
D03*
X226000Y-199500D02*
D03*
Y-207500D02*
D03*
X209000D02*
D03*
Y-199500D02*
D03*
X226000Y-179500D02*
D03*
Y-187500D02*
D03*
X209000D02*
D03*
Y-179500D02*
D03*
X81500Y-104000D02*
D03*
Y-112000D02*
D03*
X106500D02*
D03*
Y-104000D02*
D03*
X131500D02*
D03*
Y-112000D02*
D03*
X156500D02*
D03*
Y-104000D02*
D03*
X90500Y-272000D02*
D03*
Y-280000D02*
D03*
X130500Y-272000D02*
D03*
Y-280000D02*
D03*
X97500Y-112000D02*
D03*
Y-104000D02*
D03*
X99500Y-280000D02*
D03*
Y-272000D02*
D03*
X139500Y-280000D02*
D03*
Y-272000D02*
D03*
X89500Y-112000D02*
D03*
Y-104000D02*
D03*
X170500Y-280000D02*
D03*
Y-272000D02*
D03*
X210500D02*
D03*
Y-280000D02*
D03*
X122500Y-112000D02*
D03*
Y-104000D02*
D03*
X114500Y-112000D02*
D03*
Y-104000D02*
D03*
X179500Y-280000D02*
D03*
Y-272000D02*
D03*
X219500D02*
D03*
Y-280000D02*
D03*
X147500Y-112000D02*
D03*
Y-104000D02*
D03*
X139500Y-112000D02*
D03*
Y-104000D02*
D03*
X172500Y-112000D02*
D03*
Y-104000D02*
D03*
X234500Y-227500D02*
D03*
Y-219500D02*
D03*
X217500D02*
D03*
Y-227500D02*
D03*
X164500Y-112000D02*
D03*
Y-104000D02*
D03*
X234500Y-199500D02*
D03*
Y-207500D02*
D03*
X217500D02*
D03*
Y-199500D02*
D03*
X234500Y-179500D02*
D03*
Y-187500D02*
D03*
X217500D02*
D03*
Y-179500D02*
D03*
X105000Y-207500D02*
D03*
Y-215500D02*
D03*
D22*
X82500Y-264000D02*
D03*
X90500D02*
D03*
X122500D02*
D03*
X130500D02*
D03*
X107500D02*
D03*
X99500D02*
D03*
X147500D02*
D03*
X139500D02*
D03*
X162500D02*
D03*
X170500D02*
D03*
X210500D02*
D03*
X202500D02*
D03*
X179500D02*
D03*
X187500D02*
D03*
X227500D02*
D03*
X219500D02*
D03*
X82000Y-288000D02*
D03*
X90000D02*
D03*
X130000D02*
D03*
X122000D02*
D03*
X108000D02*
D03*
X100000D02*
D03*
X140000D02*
D03*
X148000D02*
D03*
X162000D02*
D03*
X170000D02*
D03*
X210000D02*
D03*
X202000D02*
D03*
X188000D02*
D03*
X180000D02*
D03*
X220000D02*
D03*
X228000D02*
D03*
D23*
X312000Y-300000D02*
D03*
X298500D02*
D03*
X379500D02*
D03*
X393000D02*
D03*
X366000Y-289000D02*
D03*
X379500D02*
D03*
X352500Y-300000D02*
D03*
X366000D02*
D03*
X339000Y-289000D02*
D03*
X352500D02*
D03*
X325500Y-300000D02*
D03*
X339000D02*
D03*
X312000Y-289000D02*
D03*
X325500D02*
D03*
X312500Y-250000D02*
D03*
X299000D02*
D03*
X380000D02*
D03*
X393500D02*
D03*
X366500Y-239000D02*
D03*
X380000D02*
D03*
X353000Y-250000D02*
D03*
X366500D02*
D03*
X339500Y-239000D02*
D03*
X353000D02*
D03*
X326000Y-250000D02*
D03*
X339500D02*
D03*
X312500Y-239000D02*
D03*
X326000D02*
D03*
X299000Y-200000D02*
D03*
X312500D02*
D03*
X393500D02*
D03*
X380000D02*
D03*
Y-189000D02*
D03*
X366500D02*
D03*
Y-200000D02*
D03*
X353000D02*
D03*
Y-189000D02*
D03*
X339500D02*
D03*
Y-200000D02*
D03*
X326000D02*
D03*
Y-189000D02*
D03*
X312500D02*
D03*
D24*
X82500Y-37500D02*
D03*
X92500Y-72500D02*
D03*
Y-37500D02*
D03*
X107500D02*
D03*
X117500Y-72500D02*
D03*
Y-37500D02*
D03*
X132500D02*
D03*
X142500Y-72500D02*
D03*
Y-37500D02*
D03*
X157500D02*
D03*
X167500Y-72500D02*
D03*
Y-37500D02*
D03*
D25*
X82500Y-72500D02*
D03*
X107500D02*
D03*
X132500D02*
D03*
X157500D02*
D03*
D26*
X201291Y-163791D02*
D03*
X177628Y-140128D02*
D03*
D45*
X140000Y-230000D02*
D03*
X128500Y-201000D02*
D03*
X100000Y-235000D02*
D03*
X60000D02*
D03*
X80000D02*
D03*
Y-220000D02*
D03*
X95000Y-210000D02*
D03*
X92500Y-187500D02*
D03*
X60000Y-250000D02*
D03*
X50000Y-75000D02*
D03*
X305000Y-50000D02*
D03*
Y-25000D02*
D03*
Y-75000D02*
D03*
Y-90000D02*
D03*
X51000Y-223500D02*
D03*
X170000Y-145000D02*
D03*
X10000Y-75000D02*
D03*
Y-125000D02*
D03*
Y-100000D02*
D03*
X250000Y-200000D02*
D03*
X275000Y-215000D02*
D03*
X250000Y-225000D02*
D03*
X275000Y-250000D02*
D03*
X250000Y-275000D02*
D03*
Y-295000D02*
D03*
X275000D02*
D03*
Y-275000D02*
D03*
X50000Y-100000D02*
D03*
Y-125000D02*
D03*
X100000D02*
D03*
X150000D02*
D03*
X125000D02*
D03*
X175000D02*
D03*
X288000Y-68000D02*
D03*
X275000Y-25000D02*
D03*
X235000Y-65000D02*
D03*
X200000Y-100000D02*
D03*
Y-125000D02*
D03*
X225000D02*
D03*
X250000Y-175000D02*
D03*
X275000D02*
D03*
X225000Y-150000D02*
D03*
X250000D02*
D03*
Y-125000D02*
D03*
X275000Y-150000D02*
D03*
X300000D02*
D03*
X80000Y-250000D02*
D03*
X120000Y-230000D02*
D03*
X60000Y-275000D02*
D03*
X75000Y-295000D02*
D03*
X25000D02*
D03*
X50000D02*
D03*
X25000Y-275000D02*
D03*
X10000Y-295000D02*
D03*
X197500Y-180000D02*
D03*
X136000Y-210000D02*
D03*
X177500Y-235000D02*
D03*
X191000Y-218000D02*
D03*
X174000Y-211500D02*
D03*
X115000Y-210000D02*
D03*
X102500Y-187500D02*
D03*
X90000Y-165000D02*
D03*
X105000D02*
D03*
X117500D02*
D03*
X130000Y-175000D02*
D03*
X172000Y-176000D02*
D03*
X192500Y-190500D02*
D03*
X195000Y-287500D02*
D03*
Y-275000D02*
D03*
Y-267500D02*
D03*
Y-255000D02*
D03*
X200000Y-250000D02*
D03*
X190000D02*
D03*
X155000Y-245000D02*
D03*
X160000Y-250000D02*
D03*
X150000D02*
D03*
X155000Y-255000D02*
D03*
Y-267500D02*
D03*
Y-287500D02*
D03*
Y-275000D02*
D03*
X115000Y-287500D02*
D03*
Y-275000D02*
D03*
Y-267500D02*
D03*
Y-255000D02*
D03*
X120000Y-250000D02*
D03*
X110000D02*
D03*
X144000Y-154000D02*
D03*
X140000Y-151000D02*
D03*
X136000Y-148000D02*
D03*
X163000Y-186000D02*
D03*
X155000D02*
D03*
X147000D02*
D03*
X163000Y-194000D02*
D03*
X155000D02*
D03*
X147000D02*
D03*
X163000Y-202000D02*
D03*
X147000D02*
D03*
X155000D02*
D03*
X25000Y-75000D02*
D03*
X132000Y-145000D02*
D03*
X75000Y-168000D02*
D03*
X65000Y-178000D02*
D03*
X55000Y-188000D02*
D03*
X10000Y-150000D02*
D03*
Y-175000D02*
D03*
Y-200000D02*
D03*
Y-225000D02*
D03*
Y-250000D02*
D03*
Y-275000D02*
D03*
X225000Y-25000D02*
D03*
X200000D02*
D03*
X275000Y-100000D02*
D03*
X190000Y-65000D02*
D03*
X75000Y-125000D02*
D03*
X70000Y-75000D02*
D03*
X195000Y-235000D02*
D03*
D47*
X140250Y-104000D02*
X141500Y-105250D01*
X139500Y-104000D02*
X140250D01*
X146750Y-112000D02*
X147500D01*
X141500Y-106750D02*
X146750Y-112000D01*
X141500Y-106750D02*
Y-105250D01*
X89500Y-104000D02*
X97500Y-112000D01*
X114500Y-104000D02*
X122500Y-112000D01*
X123500Y-113000D01*
X147500Y-112000D02*
X148500Y-113000D01*
X164500Y-104000D02*
X172500Y-112000D01*
X173500Y-113000D01*
X156500Y-112000D02*
X164500D01*
X131500D02*
X139500D01*
X106500D02*
X114500D01*
X81500D02*
X89500D01*
D48*
X219500Y-264000D02*
Y-253000D01*
X210500Y-264000D02*
Y-253000D01*
X179500Y-264000D02*
Y-253000D01*
X170500Y-264000D02*
Y-253000D01*
X139500Y-264000D02*
Y-253000D01*
X130500Y-264000D02*
Y-253000D01*
X99500Y-264000D02*
Y-253000D01*
X90500Y-264000D02*
Y-253000D01*
X298500Y-300000D02*
Y-285000D01*
X90500Y-272000D02*
Y-264000D01*
X99500Y-272000D02*
Y-264000D01*
X130500Y-272000D02*
Y-264000D01*
X139500Y-272000D02*
Y-264000D01*
X170500Y-272000D02*
Y-264000D01*
X179500Y-272000D02*
Y-264000D01*
X210500Y-272000D02*
Y-264000D01*
X219500Y-272000D02*
Y-264000D01*
X117500Y-37500D02*
Y-22500D01*
X120000Y-20000D01*
X107500Y-37500D02*
Y-22500D01*
X110000Y-20000D01*
X92500Y-37500D02*
Y-27500D01*
X100000Y-20000D01*
X82500Y-37500D02*
Y-27500D01*
X90000Y-20000D01*
X132500Y-37500D02*
Y-22500D01*
X130000Y-20000D02*
X132500Y-22500D01*
X142500Y-37500D02*
Y-22500D01*
X140000Y-20000D02*
X142500Y-22500D01*
X157500Y-37500D02*
Y-27500D01*
X150000Y-20000D02*
X157500Y-27500D01*
X167500Y-37500D02*
Y-27500D01*
X160000Y-20000D02*
X167500Y-27500D01*
X82500Y-90000D02*
Y-72500D01*
X107500Y-90000D02*
Y-72500D01*
X132500Y-90000D02*
Y-72500D01*
X157500Y-90000D02*
Y-72500D01*
X92500D02*
X98500Y-78500D01*
Y-104000D02*
Y-78500D01*
X117500Y-72500D02*
X123500Y-78500D01*
Y-104000D02*
Y-78500D01*
X142500Y-72500D02*
X148500Y-78500D01*
Y-104000D02*
Y-78500D01*
X167500Y-72500D02*
X173500Y-78500D01*
Y-104000D02*
Y-78500D01*
X281000Y-200000D02*
X299000D01*
X81500Y-104000D02*
Y-101000D01*
X92500Y-90000D01*
X106500Y-104000D02*
Y-101000D01*
X117500Y-90000D01*
X131500Y-104000D02*
Y-101000D01*
X142500Y-90000D01*
X156500Y-104000D02*
Y-101000D01*
X167500Y-90000D01*
X268500Y-187500D02*
X281000Y-200000D01*
X234500Y-187500D02*
X268500D01*
X225000Y-188500D02*
X226000D01*
Y-187500D02*
X234500D01*
X209000D02*
X217500D01*
X209000Y-207500D02*
X217500D01*
X209000Y-227500D02*
X217500D01*
X241000D02*
X298500Y-285000D01*
X226000Y-227500D02*
X234500D01*
X241000D01*
X234500Y-207500D02*
X256500D01*
X226000D02*
X234500D01*
X256500D02*
X299000Y-250000D01*
X137000Y-291000D02*
X140000Y-288000D01*
X130000D02*
X133000Y-291000D01*
X170000Y-288000D02*
X173000Y-291000D01*
X177000D02*
X180000Y-288000D01*
X210000D02*
X213000Y-291000D01*
X217000D02*
X220000Y-288000D01*
X90000D02*
X93000Y-291000D01*
X97000D02*
X100000Y-288000D01*
X82000D02*
Y-280000D01*
X90500D01*
X99500D02*
X108000D01*
Y-288000D02*
Y-280000D01*
X122000Y-288000D02*
Y-280000D01*
X130500D01*
X139500D02*
X148000D01*
Y-288000D02*
Y-280000D01*
X162000Y-288000D02*
Y-280000D01*
X170500D01*
X179500D02*
X188000D01*
Y-288000D02*
Y-280000D01*
X202000Y-288000D02*
Y-280000D01*
X210500D01*
X219500D02*
X228000D01*
Y-288000D02*
Y-280000D01*
X85000Y-312500D02*
X93000Y-304500D01*
Y-291000D01*
X97000Y-304500D02*
X105000Y-312500D01*
X97000Y-304500D02*
Y-291000D01*
X125000Y-312500D02*
X133000Y-304500D01*
Y-291000D01*
X137000Y-304500D02*
X145000Y-312500D01*
X137000Y-304500D02*
Y-291000D01*
X165000Y-312500D02*
X173000Y-304500D01*
Y-291000D01*
X177000Y-304500D02*
X185000Y-312500D01*
X177000Y-304500D02*
Y-291000D01*
X205000Y-312500D02*
X213000Y-304500D01*
Y-291000D01*
X217000Y-304500D02*
X225000Y-312500D01*
X217000Y-304500D02*
Y-291000D01*
X82600Y-209500D02*
Y-204900D01*
Y-209500D02*
X88600Y-215500D01*
X105000D02*
X121000D01*
X100000Y-225000D02*
Y-215500D01*
X88600D02*
X100000D01*
X105000D01*
D49*
X393000Y-300000D02*
X425000D01*
X379500D02*
Y-289000D01*
X366000Y-300000D02*
Y-289000D01*
X352500Y-300000D02*
Y-289000D01*
X339000Y-300000D02*
Y-289000D01*
X325500Y-300000D02*
Y-289000D01*
X312000Y-300000D02*
Y-289000D01*
X312500Y-250000D02*
Y-239000D01*
X326000Y-250000D02*
Y-239000D01*
X339500Y-250000D02*
Y-239000D01*
X353000Y-250000D02*
Y-239000D01*
X366500Y-250000D02*
Y-239000D01*
X380000Y-250000D02*
Y-239000D01*
X393500Y-250000D02*
X403500Y-260000D01*
X425000D01*
X393500Y-200000D02*
X413500Y-220000D01*
X425000D01*
X380000Y-200000D02*
Y-189000D01*
X366500Y-200000D02*
Y-189000D01*
X353000Y-200000D02*
Y-189000D01*
X339500Y-200000D02*
Y-189000D01*
X326000Y-200000D02*
Y-189000D01*
X312500Y-200000D02*
Y-189000D01*
D50*
X128000Y-215500D02*
X134000D01*
X173500Y-228000D02*
Y-223500D01*
X170500Y-231000D02*
X173500Y-228000D01*
Y-217000D02*
X180500D01*
X90100Y-204900D02*
X95000Y-200000D01*
X82600Y-204900D02*
X90100D01*
X113500Y-195500D02*
X121000D01*
X95000Y-200000D02*
X99500D01*
X121000Y-215500D02*
X127500Y-222000D01*
D51*
X31831Y-261500D02*
D03*
Y-251500D02*
D03*
X160000Y-20000D02*
D03*
X150000D02*
D03*
X140000D02*
D03*
X130000D02*
D03*
X120000D02*
D03*
X110000D02*
D03*
X100000D02*
D03*
X40000Y-132165D02*
D03*
X30000Y-142165D02*
D03*
X40000D02*
D03*
X30000Y-152165D02*
D03*
X40000D02*
D03*
X30000Y-162165D02*
D03*
X40000D02*
D03*
X30000Y-172165D02*
D03*
X40000D02*
D03*
X30000Y-182165D02*
D03*
X40000D02*
D03*
X30000Y-192165D02*
D03*
X40000D02*
D03*
X30000Y-202165D02*
D03*
X40000D02*
D03*
X30000Y-212165D02*
D03*
X40000D02*
D03*
X30000Y-222165D02*
D03*
X40000D02*
D03*
X55000Y-255000D02*
D03*
X65000D02*
D03*
X92500Y-90000D02*
D03*
X82500D02*
D03*
X107500D02*
D03*
X117500D02*
D03*
X142500D02*
D03*
X132500D02*
D03*
X157500D02*
D03*
X167500D02*
D03*
D52*
X31831Y-241500D02*
D03*
D53*
X90000Y-20000D02*
D03*
D54*
X30000Y-132165D02*
D03*
D55*
X85000Y-312500D02*
D03*
X125000D02*
D03*
X165000D02*
D03*
X205000D02*
D03*
D56*
X105000D02*
D03*
X145000D02*
D03*
X185000D02*
D03*
X225000D02*
D03*
D57*
X425000Y-220000D02*
D03*
Y-180000D02*
D03*
Y-260000D02*
D03*
D58*
Y-300000D02*
D03*
D59*
X196419Y-158919D02*
D03*
X182500Y-145000D02*
D03*
D60*
X140000Y-215500D02*
D03*
X100000Y-225000D02*
D03*
M02*
