M48
;Layer_Color=9474304
;FILE_FORMAT=2:5
INCH,TZ
;TYPE=PLATED
T1F00S00C0.01200
T2F00S00C0.02800
T3F00S00C0.03543
T4F00S00C0.03937
T5F00S00C0.05512
T6F00S00C0.05906
%
T01
X155000Y-287500
Y-275000
Y-267500
Y-255000
Y-245000
X160000Y-250000
X150000
X190000
X195000Y-255000
X200000Y-250000
X195000Y-235000
X177500
X174000Y-211500
X163000Y-202000
Y-194000
Y-186000
X155000
Y-194000
Y-202000
X192500Y-190500
X191000Y-218000
X195000Y-267500
Y-275000
Y-287500
X250000Y-295000
Y-275000
X275000
Y-295000
Y-250000
Y-215000
X250000Y-225000
Y-200000
X147000Y-202000
Y-194000
Y-186000
X128500Y-201000
X136000Y-210000
X115000
X95000
X80000Y-220000
Y-235000
Y-250000
X60000
Y-235000
X51000Y-223500
X55000Y-188000
X92500Y-187500
X102500
X100000Y-235000
X120000Y-230000
X140000
X120000Y-250000
X115000Y-255000
X110000Y-250000
X115000Y-267500
Y-275000
Y-287500
X75000Y-295000
X50000
X25000
X10000
Y-275000
X25000
X60000
X10000Y-250000
Y-225000
Y-200000
Y-175000
Y-150000
Y-125000
Y-100000
Y-75000
X25000
X50000
X70000
X50000Y-100000
Y-125000
X75000
X100000
X125000
X132000Y-145000
X136000Y-148000
X140000Y-151000
X144000Y-154000
X130000Y-175000
X117500Y-165000
X105000
X90000
X75000Y-168000
X65000Y-178000
X172000Y-176000
X197500Y-180000
X200000Y-125000
X175000
X170000Y-145000
X150000Y-125000
X200000Y-100000
X190000Y-65000
X235000
X225000Y-25000
X200000
X275000
X288000Y-68000
X275000Y-100000
X250000Y-125000
X225000
Y-150000
X250000
Y-175000
X275000
Y-150000
X300000
X305000Y-90000
Y-75000
Y-50000
Y-25000
T02
X100000Y-225000
X140000Y-215500
X196419Y-158919
X182500Y-145000
T03
X55000Y-255000
X65000
X40000Y-222165
Y-212165
Y-202165
Y-192165
Y-182165
X30000
Y-192165
Y-202165
Y-212165
Y-222165
Y-172165
Y-162165
Y-152165
Y-142165
Y-132165
X40000
Y-142165
Y-152165
Y-162165
Y-172165
X82500Y-90000
X92500
X107500
X117500
X132500
X142500
X157500
X167500
X160000Y-20000
X150000
X140000
X130000
X120000
X110000
X100000
X90000
T04
X31831Y-261500
Y-251500
Y-241500
T05
X165000Y-312500
X185000
X205000
X225000
X145000
X125000
X105000
X85000
T06
X425000Y-300000
Y-260000
Y-220000
Y-180000
M30
