G04*
G04 #@! TF.GenerationSoftware,Altium Limited,Altium Designer,22.5.1 (42)*
G04*
G04 Layer_Color=32768*
%FSLAX25Y25*%
%MOIN*%
G70*
G04*
G04 #@! TF.SameCoordinates,36E92F14-E9FE-4D66-B6D4-B8D92208952E*
G04*
G04*
G04 #@! TF.FilePolarity,Positive*
G04*
G01*
G75*
G36*
X4571Y-250412D02*
X4564Y-250502D01*
X4558Y-250605D01*
X4552Y-250713D01*
X4540Y-250815D01*
X4528Y-250905D01*
Y-250917D01*
X4516Y-250959D01*
X4504Y-251013D01*
X4486Y-251085D01*
X4456Y-251164D01*
X4420Y-251248D01*
X4378Y-251338D01*
X4330Y-251416D01*
X4324Y-251428D01*
X4306Y-251452D01*
X4270Y-251488D01*
X4228Y-251536D01*
X4174Y-251590D01*
X4102Y-251644D01*
X4024Y-251704D01*
X3933Y-251752D01*
X3921Y-251758D01*
X3891Y-251770D01*
X3837Y-251795D01*
X3765Y-251818D01*
X3681Y-251837D01*
X3585Y-251861D01*
X3477Y-251873D01*
X3362Y-251879D01*
X3356D01*
X3338D01*
X3314D01*
X3272Y-251873D01*
X3230Y-251867D01*
X3176Y-251861D01*
X3116Y-251849D01*
X3050Y-251837D01*
X2912Y-251795D01*
X2840Y-251770D01*
X2761Y-251734D01*
X2683Y-251692D01*
X2611Y-251650D01*
X2539Y-251596D01*
X2467Y-251536D01*
X2461Y-251530D01*
X2449Y-251518D01*
X2431Y-251500D01*
X2413Y-251470D01*
X2383Y-251434D01*
X2353Y-251386D01*
X2317Y-251326D01*
X2287Y-251260D01*
X2251Y-251182D01*
X2214Y-251091D01*
X2184Y-250995D01*
X2160Y-250881D01*
X2136Y-250761D01*
X2118Y-250629D01*
X2106Y-250478D01*
X2100Y-250322D01*
Y-249258D01*
X411D01*
Y-248705D01*
X4571D01*
Y-250412D01*
D02*
G37*
G36*
X3543Y-252768D02*
X3555Y-252780D01*
X3561Y-252804D01*
X3579Y-252834D01*
X3597Y-252870D01*
X3621Y-252912D01*
X3681Y-253014D01*
X3747Y-253135D01*
X3831Y-253255D01*
X3927Y-253381D01*
X4030Y-253507D01*
X4036Y-253513D01*
X4042Y-253519D01*
X4060Y-253537D01*
X4078Y-253561D01*
X4138Y-253615D01*
X4210Y-253688D01*
X4294Y-253760D01*
X4390Y-253838D01*
X4486Y-253904D01*
X4589Y-253964D01*
Y-254295D01*
X411D01*
Y-253784D01*
X3663D01*
X3657Y-253778D01*
X3633Y-253748D01*
X3597Y-253712D01*
X3555Y-253652D01*
X3501Y-253586D01*
X3441Y-253501D01*
X3374Y-253405D01*
X3308Y-253297D01*
Y-253291D01*
X3302Y-253285D01*
X3278Y-253249D01*
X3248Y-253189D01*
X3212Y-253117D01*
X3170Y-253033D01*
X3128Y-252942D01*
X3086Y-252852D01*
X3050Y-252762D01*
X3543D01*
Y-252768D01*
D02*
G37*
%LPC*%
G36*
X4078Y-249258D02*
X2593D01*
Y-250376D01*
X2599Y-250418D01*
Y-250460D01*
X2605Y-250508D01*
X2617Y-250623D01*
X2641Y-250749D01*
X2677Y-250875D01*
X2725Y-250989D01*
X2755Y-251043D01*
X2792Y-251085D01*
X2803Y-251097D01*
X2828Y-251121D01*
X2876Y-251157D01*
X2936Y-251200D01*
X3014Y-251242D01*
X3110Y-251278D01*
X3218Y-251302D01*
X3344Y-251314D01*
X3350D01*
X3356D01*
X3387D01*
X3441Y-251308D01*
X3501Y-251296D01*
X3567Y-251284D01*
X3645Y-251260D01*
X3717Y-251223D01*
X3789Y-251182D01*
X3795Y-251175D01*
X3819Y-251157D01*
X3849Y-251127D01*
X3891Y-251091D01*
X3933Y-251037D01*
X3969Y-250977D01*
X4005Y-250911D01*
X4036Y-250833D01*
Y-250827D01*
X4042Y-250803D01*
X4048Y-250767D01*
X4060Y-250719D01*
X4066Y-250647D01*
X4072Y-250556D01*
X4078Y-250448D01*
Y-249258D01*
D02*
G37*
%LPD*%
M02*
