%TF.GenerationSoftware,KiCad,Pcbnew,9.0.9*%
%TF.CreationDate,2026-06-03T23:54:05+05:30*%
%TF.ProjectId,Open_STMPLC_IO_V0.1,4f70656e-5f53-4544-9d50-4c435f494f5f,0.1*%
%TF.SameCoordinates,PX2dc6c00PY8f0d180*%
%TF.FileFunction,Plated,1,4,PTH,Drill*%
%TF.FilePolarity,Positive*%
%FSLAX46Y46*%
G04 Gerber Fmt 4.6, Leading zero omitted, Abs format (unit mm)*
G04 Created by KiCad (PCBNEW 9.0.9) date 2026-06-03 23:54:05*
%MOMM*%
%LPD*%
G01*
G04 APERTURE LIST*
%TA.AperFunction,ComponentDrill*%
%ADD10C,0.200000*%
%TD*%
%TA.AperFunction,ViaDrill*%
%ADD11C,0.300000*%
%TD*%
%TA.AperFunction,ComponentDrill*%
%ADD12C,0.300000*%
%TD*%
%TA.AperFunction,ViaDrill*%
%ADD13C,0.400000*%
%TD*%
%TA.AperFunction,ComponentDrill*%
%ADD14C,1.100000*%
%TD*%
%TA.AperFunction,ComponentDrill*%
%ADD15C,1.150000*%
%TD*%
G04 APERTURE END LIST*
D10*
%TO.C,U18*%
X17800000Y36800000D03*
X17800000Y35600000D03*
X17800000Y34400000D03*
X17800000Y33200000D03*
X19000000Y36800000D03*
X19000000Y35600000D03*
X19000000Y34400000D03*
X19000000Y33200000D03*
X20200000Y36800000D03*
X20200000Y35600000D03*
X20200000Y34400000D03*
X20200000Y33200000D03*
%TO.C,U16*%
X35800000Y36800000D03*
X35800000Y35600000D03*
X35800000Y34400000D03*
X35800000Y33200000D03*
X37000000Y36800000D03*
X37000000Y35600000D03*
X37000000Y34400000D03*
X37000000Y33200000D03*
X38200000Y36800000D03*
X38200000Y35600000D03*
X38200000Y34400000D03*
X38200000Y33200000D03*
%TO.C,U14*%
X53800000Y36800000D03*
X53800000Y35600000D03*
X53800000Y34400000D03*
X53800000Y33200000D03*
X55000000Y36800000D03*
X55000000Y35600000D03*
X55000000Y34400000D03*
X55000000Y33200000D03*
X56200000Y36800000D03*
X56200000Y35600000D03*
X56200000Y34400000D03*
X56200000Y33200000D03*
%TO.C,U7*%
X72222500Y36800000D03*
X72222500Y35600000D03*
X72222500Y34400000D03*
X72222500Y33200000D03*
X73422500Y36800000D03*
X73422500Y35600000D03*
X73422500Y34400000D03*
X73422500Y33200000D03*
X74622500Y36800000D03*
X74622500Y35600000D03*
X74622500Y34400000D03*
X74622500Y33200000D03*
%TD*%
D11*
X3900000Y54800000D03*
X3900000Y54000000D03*
X3900000Y53200000D03*
X3900000Y36800000D03*
X3900000Y36000000D03*
X3900000Y35200000D03*
X3900000Y34400000D03*
X4000000Y61300009D03*
X4000000Y60500006D03*
X4000000Y59700003D03*
X4000000Y58900000D03*
X4000000Y58000006D03*
X4000000Y57200003D03*
X4000000Y56400000D03*
X4000000Y55600000D03*
X4000000Y33600000D03*
X4000000Y32800000D03*
X4000000Y27200000D03*
X4000000Y26400000D03*
X4000000Y25600000D03*
X4000000Y24700000D03*
X4100000Y66800015D03*
X4100000Y66000012D03*
X4100000Y65200009D03*
X4100000Y64400006D03*
X4100000Y63600003D03*
X4100000Y62800000D03*
X4100000Y31200000D03*
X4100000Y30400000D03*
X4100000Y29600000D03*
X4100000Y28800000D03*
X4300000Y32000000D03*
X4352208Y62040793D03*
X8500000Y61200000D03*
X8500000Y60400000D03*
X8500000Y59600000D03*
X8500000Y58800000D03*
X8500000Y58000000D03*
X8500000Y57200000D03*
X8500000Y56400000D03*
X8500000Y55600000D03*
X8500000Y54800000D03*
X8500000Y54000000D03*
X8500000Y53200000D03*
X8500000Y37500000D03*
X8500000Y36500000D03*
X8509620Y35590380D03*
X8590380Y32009620D03*
X8590382Y24590379D03*
X8600000Y62000000D03*
X8600000Y27200000D03*
X8600000Y26400000D03*
X8600000Y25400000D03*
X8700000Y31200000D03*
X9200000Y34800000D03*
X9300000Y33700000D03*
X9500000Y15300000D03*
X9516963Y81248260D03*
X9800000Y80500000D03*
X9800000Y31000000D03*
X10500000Y80100000D03*
X11137500Y36000000D03*
X11200000Y58000000D03*
X12100000Y62500000D03*
X14200000Y38500000D03*
X15300000Y62300000D03*
X16300000Y46000000D03*
X18450000Y56050000D03*
X18800000Y46000000D03*
X19650000Y55950000D03*
X21100000Y56000000D03*
X23000000Y58900000D03*
X23113137Y58108038D03*
X23300000Y36800000D03*
X23700000Y57300000D03*
X26000000Y57900000D03*
X27200000Y62300000D03*
X27500000Y66500000D03*
X27500000Y15500000D03*
X27700000Y46000000D03*
X27900000Y33000000D03*
X27900000Y31000000D03*
X29100000Y36000000D03*
X30400000Y46100000D03*
X31400000Y71400000D03*
X31600000Y58100000D03*
X32200000Y38500000D03*
X33500000Y66800000D03*
X35800000Y62300000D03*
X37600000Y55300000D03*
X39200000Y46000000D03*
X40250000Y55950000D03*
X41300000Y36800000D03*
X41700000Y56000000D03*
X41800000Y46000000D03*
X43000000Y56300000D03*
X43600000Y58400000D03*
X43600000Y57100000D03*
X44000000Y16600000D03*
X45900000Y33000000D03*
X45900000Y31000000D03*
X46600000Y57700000D03*
X47137500Y36000000D03*
X47700000Y62300000D03*
X49300000Y22000000D03*
X50200000Y38500000D03*
X50700000Y46000000D03*
X53200000Y22200000D03*
X53400000Y46100000D03*
X59000000Y22600000D03*
X59300000Y36800000D03*
X62200000Y46000000D03*
X62200000Y22000000D03*
X62600000Y17200000D03*
X64100000Y33000000D03*
X64100000Y31000000D03*
X64800000Y46100000D03*
X65560000Y36000000D03*
X66000000Y77200000D03*
X68611250Y38511250D03*
X70000000Y77200000D03*
X70700000Y17800000D03*
X73700000Y46000000D03*
X73900000Y22000000D03*
X74000000Y77200000D03*
X76300000Y45900000D03*
X77100000Y24400000D03*
X77700000Y36800000D03*
X78000000Y77200000D03*
X78600000Y8900000D03*
X79400000Y25200000D03*
X80190000Y46700000D03*
X82000000Y77200000D03*
X83800000Y8300000D03*
X84000000Y46000000D03*
X84300000Y30900000D03*
X84450000Y33050000D03*
X85200000Y76900000D03*
X85200000Y46000000D03*
X86400000Y46000000D03*
X86600000Y24400000D03*
X86600000Y8300000D03*
X86900000Y33100000D03*
X87000000Y20400000D03*
X88000000Y46000000D03*
X89000000Y77200000D03*
X89000000Y45600000D03*
X89400000Y19600000D03*
X91690000Y46200000D03*
X91900000Y19700000D03*
X91900000Y7900000D03*
X93000000Y77200000D03*
X95000000Y46000000D03*
X95400000Y30900000D03*
X95450000Y33050000D03*
X96600000Y46000000D03*
X97000000Y77200000D03*
X97900000Y46000000D03*
X97900000Y33100000D03*
X98500000Y24400000D03*
X99000000Y46000000D03*
X100200000Y20700000D03*
X100200000Y13800000D03*
X100300000Y45700000D03*
X101000000Y77200000D03*
X101900000Y15600000D03*
X102000000Y21300000D03*
X102000000Y20200000D03*
X102000000Y19200000D03*
X102600000Y31800000D03*
X102600000Y30500000D03*
X102600000Y29173000D03*
X103100000Y31127000D03*
X103100000Y29800000D03*
X103190000Y46100000D03*
X104000000Y12200000D03*
X104900000Y14600000D03*
X105000000Y77200000D03*
X105200000Y11900000D03*
X105900000Y58800000D03*
X106000000Y46000000D03*
X106450000Y33050000D03*
X106600000Y28400000D03*
X106900000Y46000000D03*
X107100000Y69300000D03*
X107700000Y52100000D03*
X108100000Y46000000D03*
X108900000Y33100000D03*
X109168526Y75831246D03*
X109500000Y17000000D03*
X110000000Y46000000D03*
X110000000Y11900000D03*
X110300000Y52100000D03*
X110800000Y46600000D03*
X111000000Y56100000D03*
X111200000Y69500000D03*
X111300000Y11800000D03*
X111700000Y28000000D03*
X113400000Y64700000D03*
X113550000Y10950000D03*
X113556644Y11956644D03*
X113800000Y67100000D03*
X114139620Y13286955D03*
X114690000Y46100000D03*
X114703078Y11173000D03*
X114781871Y12768583D03*
X115300000Y64700000D03*
X115400000Y11800000D03*
X115500000Y71100000D03*
X116100000Y77200000D03*
X116100000Y12300000D03*
X116800000Y60200000D03*
X116900000Y62800000D03*
X116900000Y61900000D03*
X116900000Y59100000D03*
X117000000Y46000000D03*
X117400000Y30900000D03*
X117450000Y33050000D03*
X117900000Y28000000D03*
X118200000Y19500000D03*
X118300000Y29200000D03*
X118400000Y46000000D03*
X118456644Y16623000D03*
X119300000Y71000000D03*
X119700000Y46000000D03*
X119900000Y33100000D03*
X119900000Y17100000D03*
X119900000Y14600000D03*
X120662500Y57100000D03*
X121000000Y46000000D03*
X121900000Y80600000D03*
X122300000Y46500000D03*
X122500000Y17600000D03*
X123700000Y64400000D03*
X124000000Y71100000D03*
X124800000Y64400000D03*
X124900000Y12500000D03*
X126100000Y66300000D03*
X126190000Y46100000D03*
X126900000Y71000000D03*
X128000000Y46000000D03*
X128300000Y30900000D03*
X128450000Y33050000D03*
X129500000Y46000000D03*
X129500000Y17000000D03*
X130900000Y33100000D03*
X131100000Y46000000D03*
X132000000Y36900000D03*
X132700000Y46000000D03*
X133100000Y24600000D03*
X133800000Y71000000D03*
X133800000Y61700000D03*
X133800000Y60400000D03*
X133800000Y59200000D03*
X133900000Y46900000D03*
X134000000Y37200000D03*
X134100000Y62800000D03*
X135400000Y72300000D03*
X135500000Y57100000D03*
X135550000Y24550000D03*
X136000000Y35800000D03*
X136900000Y80200000D03*
X137000000Y71100000D03*
X137690000Y47410000D03*
X139000000Y46000000D03*
X139300000Y30900000D03*
X139450000Y33050000D03*
X140500000Y17000000D03*
X140900000Y80200000D03*
X140900000Y64300000D03*
X141000000Y71100000D03*
X141000000Y46000000D03*
X141900000Y74000000D03*
X141900000Y33100000D03*
X142000000Y64300000D03*
X142700000Y46000000D03*
X143100000Y38400000D03*
X143700000Y37300000D03*
X144100000Y46000000D03*
X144100000Y24600000D03*
X144800000Y71100000D03*
X144900000Y80200000D03*
X145300000Y46000000D03*
X146144959Y33431233D03*
X146550000Y24550000D03*
X153200000Y17100000D03*
X153700000Y11600000D03*
X154300000Y17100000D03*
X154700000Y11600000D03*
X155400000Y17100000D03*
X155600000Y25300000D03*
X155600000Y23700000D03*
X155690380Y11609620D03*
X155781802Y27881802D03*
X156100000Y24500000D03*
X156418198Y28518198D03*
X156793948Y11600000D03*
X157909620Y11609620D03*
X158900000Y24200000D03*
X159000000Y11600000D03*
X160400000Y26800000D03*
X160500000Y18000000D03*
X164600000Y24400000D03*
X164686863Y22091962D03*
X164700000Y19600000D03*
X164700000Y18800000D03*
X164700000Y17200000D03*
X164700000Y16400000D03*
X164700000Y15600000D03*
X164700000Y14800000D03*
X164700000Y14000000D03*
X164700000Y13200000D03*
X164800000Y22900000D03*
X164800000Y20400000D03*
X164800000Y18000000D03*
X164900000Y21200000D03*
X165200000Y28600000D03*
D12*
%TO.C,U13*%
X84855000Y36985000D03*
X84855000Y36015000D03*
X86145000Y36985000D03*
X86145000Y36015000D03*
%TO.C,U9*%
X95855000Y36985000D03*
X95855000Y36015000D03*
X97145000Y36985000D03*
X97145000Y36015000D03*
%TO.C,U6*%
X106855000Y36985000D03*
X106855000Y36015000D03*
X108145000Y36985000D03*
X108145000Y36015000D03*
%TO.C,U5*%
X117855000Y36985000D03*
X117855000Y36015000D03*
X119145000Y36985000D03*
X119145000Y36015000D03*
%TO.C,U4*%
X128855000Y36985000D03*
X128855000Y36015000D03*
X130145000Y36985000D03*
X130145000Y36015000D03*
%TO.C,U3*%
X133855000Y28485000D03*
X133855000Y27515000D03*
X135145000Y28485000D03*
X135145000Y27515000D03*
%TO.C,U2*%
X139855000Y36985000D03*
X139855000Y36015000D03*
X141145000Y36985000D03*
X141145000Y36015000D03*
%TO.C,U1*%
X144855000Y28485000D03*
X144855000Y27515000D03*
X146145000Y28485000D03*
X146145000Y27515000D03*
%TD*%
D13*
X1400000Y20400000D03*
X1400000Y19200000D03*
X3000000Y71800000D03*
X3100000Y21000000D03*
X4300000Y71800000D03*
X4500000Y38500000D03*
X6200000Y20400000D03*
X6900000Y42500000D03*
X8400000Y42500000D03*
X26700000Y70900000D03*
X30700000Y55500000D03*
X32200000Y55600000D03*
X42600000Y23600000D03*
X42600000Y19400000D03*
X45700000Y48500000D03*
X90500000Y37500000D03*
X101000000Y37500000D03*
X110200000Y35000000D03*
X122500000Y37400000D03*
X129400000Y28700000D03*
X135000000Y38300000D03*
X140500000Y28700000D03*
X144900000Y40400000D03*
X161500000Y29000000D03*
X163000000Y10800000D03*
X166000000Y10800000D03*
X166600000Y29600000D03*
D14*
%TO.C,J43*%
X16595000Y4582500D03*
X20405000Y4582500D03*
%TO.C,J34*%
X22595000Y85417500D03*
%TO.C,J2*%
X25690000Y4582500D03*
%TO.C,J34*%
X26405000Y85417500D03*
%TO.C,J2*%
X29500000Y4582500D03*
%TO.C,J33*%
X31595000Y85417500D03*
%TO.C,J2*%
X33310000Y4582500D03*
%TO.C,J33*%
X35405000Y85417500D03*
%TO.C,J2*%
X37120000Y4582500D03*
%TO.C,J8*%
X40690000Y85417500D03*
%TO.C,J2*%
X40930000Y4582500D03*
%TO.C,J8*%
X44500000Y85417500D03*
%TO.C,J2*%
X44740000Y4582500D03*
%TO.C,J8*%
X48310000Y85417500D03*
%TO.C,J38*%
X50000000Y4500000D03*
%TO.C,J8*%
X52120000Y85417500D03*
%TO.C,J38*%
X53810000Y4500000D03*
%TO.C,J3*%
X57190000Y85417500D03*
%TO.C,J38*%
X57620000Y4500000D03*
%TO.C,J3*%
X61000000Y85417500D03*
%TO.C,J36*%
X63000000Y4500000D03*
%TO.C,J3*%
X64810000Y85417500D03*
%TO.C,J36*%
X66810000Y4500000D03*
%TO.C,J3*%
X68620000Y85417500D03*
%TO.C,J36*%
X70620000Y4500000D03*
%TO.C,J7*%
X73690000Y85417500D03*
%TO.C,J37*%
X76190000Y4500000D03*
%TO.C,J7*%
X77500000Y85417500D03*
%TO.C,J37*%
X80000000Y4500000D03*
%TO.C,J7*%
X81310000Y85417500D03*
%TO.C,J37*%
X83810000Y4500000D03*
%TO.C,J7*%
X85120000Y85417500D03*
%TO.C,J35*%
X89500000Y4500000D03*
%TO.C,J6*%
X90285000Y85417500D03*
%TO.C,J35*%
X93310000Y4500000D03*
%TO.C,J6*%
X94095000Y85417500D03*
%TO.C,J35*%
X97120000Y4500000D03*
%TO.C,J6*%
X97905000Y85417500D03*
X101715000Y85417500D03*
%TO.C,J1*%
X102855000Y4582500D03*
X106665000Y4582500D03*
%TO.C,J4*%
X107095000Y85417500D03*
%TO.C,J1*%
X110475000Y4582500D03*
%TO.C,J4*%
X110905000Y85417500D03*
%TO.C,J1*%
X114285000Y4582500D03*
%TO.C,J5*%
X116285000Y85417500D03*
%TO.C,J1*%
X118095000Y4582500D03*
%TO.C,J5*%
X120095000Y85417500D03*
%TO.C,J1*%
X121905000Y4582500D03*
%TO.C,J5*%
X123905000Y85417500D03*
%TO.C,J1*%
X125715000Y4582500D03*
%TO.C,J5*%
X127715000Y85417500D03*
%TO.C,J1*%
X129525000Y4582500D03*
%TO.C,J40*%
X133285000Y85417500D03*
%TO.C,J1*%
X133335000Y4582500D03*
%TO.C,J40*%
X137095000Y85417500D03*
%TO.C,J1*%
X137145000Y4582500D03*
%TO.C,J40*%
X140905000Y85417500D03*
X144715000Y85417500D03*
D15*
%TO.C,J9*%
X161580000Y79660000D03*
X161580000Y76890000D03*
X161580000Y74120000D03*
X161580000Y71350000D03*
X164420000Y81045000D03*
X164420000Y78275000D03*
X164420000Y75505000D03*
X164420000Y72735000D03*
X164420000Y69965000D03*
M02*
