%TF.GenerationSoftware,KiCad,Pcbnew,9.0.9*%
%TF.CreationDate,2026-06-03T23:54:05+05:30*%
%TF.ProjectId,Open_STMPLC_IO_V0.1,4f70656e-5f53-4544-9d50-4c435f494f5f,0.1*%
%TF.SameCoordinates,PX2dc6c00PY8f0d180*%
%TF.FileFunction,Drillmap*%
%TF.FilePolarity,Positive*%
%FSLAX45Y45*%
G04 Gerber Fmt 4.5, Leading zero omitted, Abs format (unit mm)*
G04 Created by KiCad (PCBNEW 9.0.9) date 2026-06-03 23:54:05*
%MOMM*%
%LPD*%
G01*
G04 APERTURE LIST*
%ADD10C,0.200000*%
%ADD11C,0.100000*%
%ADD12C,0.123000*%
%ADD13C,0.315000*%
%ADD14C,0.320000*%
G04 APERTURE END LIST*
D10*
X0Y9000000D02*
X16880000Y9000000D01*
X0Y0D02*
X0Y9000000D01*
X14880000Y5900000D02*
X14880000Y3700000D01*
X14880000Y3700000D02*
X16880000Y3700000D01*
X16880000Y9000000D02*
X16880000Y5900000D01*
X16880000Y5900000D02*
X14880000Y5900000D01*
X16880000Y3700000D02*
X16880000Y0D01*
X16880000Y0D02*
X0Y0D01*
D11*
X408500Y7051500D02*
X491500Y6968500D01*
X491500Y7051500D02*
X408500Y6968500D01*
X408500Y4051500D02*
X491500Y3968500D01*
X491500Y4051500D02*
X408500Y3968500D01*
X16408500Y3051500D02*
X16491500Y2968500D01*
X16491500Y3051500D02*
X16408500Y2968500D01*
D12*
X511500Y4990000D02*
G75*
G02*
X388500Y4990000I-61500J0D01*
G01*
X388500Y4990000D02*
G75*
G02*
X511500Y4990000I61500J0D01*
G01*
X511500Y1990000D02*
G75*
G02*
X388500Y1990000I-61500J0D01*
G01*
X388500Y1990000D02*
G75*
G02*
X511500Y1990000I61500J0D01*
G01*
X16511500Y990000D02*
G75*
G02*
X16388500Y990000I-61500J0D01*
G01*
X16388500Y990000D02*
G75*
G02*
X16511500Y990000I61500J0D01*
G01*
D13*
X16300000Y8957500D02*
X16300000Y8642500D01*
X16142500Y8800000D02*
X16457500Y8800000D01*
X16300000Y6458500D02*
X16300000Y6143500D01*
X16142500Y6301000D02*
X16457500Y6301000D01*
D14*
X463138Y7486862D02*
X463138Y7713138D01*
X236862Y7713138D01*
X236862Y7486862D01*
X463138Y7486862D01*
X463138Y1286862D02*
X463138Y1513138D01*
X236862Y1513138D01*
X236862Y1286862D01*
X463138Y1286862D01*
X16663138Y86862D02*
X16663138Y313138D01*
X16436862Y313138D01*
X16436862Y86862D01*
X16663138Y86862D01*
D10*
X250777Y-321484D02*
X250777Y-121484D01*
X250777Y-121484D02*
X298396Y-121484D01*
X298396Y-121484D02*
X326967Y-131008D01*
X326967Y-131008D02*
X346015Y-150055D01*
X346015Y-150055D02*
X355539Y-169103D01*
X355539Y-169103D02*
X365062Y-207198D01*
X365062Y-207198D02*
X365062Y-235769D01*
X365062Y-235769D02*
X355539Y-273865D01*
X355539Y-273865D02*
X346015Y-292912D01*
X346015Y-292912D02*
X326967Y-311960D01*
X326967Y-311960D02*
X298396Y-321484D01*
X298396Y-321484D02*
X250777Y-321484D01*
X450777Y-321484D02*
X450777Y-188150D01*
X450777Y-226246D02*
X460301Y-207198D01*
X460301Y-207198D02*
X469824Y-197674D01*
X469824Y-197674D02*
X488872Y-188150D01*
X488872Y-188150D02*
X507920Y-188150D01*
X574586Y-321484D02*
X574586Y-188150D01*
X574586Y-121484D02*
X565063Y-131008D01*
X565063Y-131008D02*
X574586Y-140531D01*
X574586Y-140531D02*
X584110Y-131008D01*
X584110Y-131008D02*
X574586Y-121484D01*
X574586Y-121484D02*
X574586Y-140531D01*
X698396Y-321484D02*
X679348Y-311960D01*
X679348Y-311960D02*
X669824Y-292912D01*
X669824Y-292912D02*
X669824Y-121484D01*
X803158Y-321484D02*
X784110Y-311960D01*
X784110Y-311960D02*
X774586Y-292912D01*
X774586Y-292912D02*
X774586Y-121484D01*
X1031729Y-321484D02*
X1031729Y-121484D01*
X1031729Y-121484D02*
X1098396Y-264341D01*
X1098396Y-264341D02*
X1165063Y-121484D01*
X1165063Y-121484D02*
X1165063Y-321484D01*
X1346015Y-321484D02*
X1346015Y-216722D01*
X1346015Y-216722D02*
X1336491Y-197674D01*
X1336491Y-197674D02*
X1317444Y-188150D01*
X1317444Y-188150D02*
X1279348Y-188150D01*
X1279348Y-188150D02*
X1260301Y-197674D01*
X1346015Y-311960D02*
X1326967Y-321484D01*
X1326967Y-321484D02*
X1279348Y-321484D01*
X1279348Y-321484D02*
X1260301Y-311960D01*
X1260301Y-311960D02*
X1250777Y-292912D01*
X1250777Y-292912D02*
X1250777Y-273865D01*
X1250777Y-273865D02*
X1260301Y-254817D01*
X1260301Y-254817D02*
X1279348Y-245293D01*
X1279348Y-245293D02*
X1326967Y-245293D01*
X1326967Y-245293D02*
X1346015Y-235769D01*
X1441253Y-188150D02*
X1441253Y-388150D01*
X1441253Y-197674D02*
X1460301Y-188150D01*
X1460301Y-188150D02*
X1498396Y-188150D01*
X1498396Y-188150D02*
X1517443Y-197674D01*
X1517443Y-197674D02*
X1526967Y-207198D01*
X1526967Y-207198D02*
X1536491Y-226246D01*
X1536491Y-226246D02*
X1536491Y-283389D01*
X1536491Y-283389D02*
X1526967Y-302436D01*
X1526967Y-302436D02*
X1517443Y-311960D01*
X1517443Y-311960D02*
X1498396Y-321484D01*
X1498396Y-321484D02*
X1460301Y-321484D01*
X1460301Y-321484D02*
X1441253Y-311960D01*
X1622205Y-302436D02*
X1631729Y-311960D01*
X1631729Y-311960D02*
X1622205Y-321484D01*
X1622205Y-321484D02*
X1612682Y-311960D01*
X1612682Y-311960D02*
X1622205Y-302436D01*
X1622205Y-302436D02*
X1622205Y-321484D01*
X1622205Y-197674D02*
X1631729Y-207198D01*
X1631729Y-207198D02*
X1622205Y-216722D01*
X1622205Y-216722D02*
X1612682Y-207198D01*
X1612682Y-207198D02*
X1622205Y-197674D01*
X1622205Y-197674D02*
X1622205Y-216722D01*
D11*
X-93000Y-608500D02*
X-10000Y-691500D01*
X-10000Y-608500D02*
X-93000Y-691500D01*
D10*
X288872Y-541484D02*
X307920Y-541484D01*
X307920Y-541484D02*
X326967Y-551008D01*
X326967Y-551008D02*
X336491Y-560531D01*
X336491Y-560531D02*
X346015Y-579579D01*
X346015Y-579579D02*
X355539Y-617674D01*
X355539Y-617674D02*
X355539Y-665293D01*
X355539Y-665293D02*
X346015Y-703388D01*
X346015Y-703388D02*
X336491Y-722436D01*
X336491Y-722436D02*
X326967Y-731960D01*
X326967Y-731960D02*
X307920Y-741484D01*
X307920Y-741484D02*
X288872Y-741484D01*
X288872Y-741484D02*
X269824Y-731960D01*
X269824Y-731960D02*
X260301Y-722436D01*
X260301Y-722436D02*
X250777Y-703388D01*
X250777Y-703388D02*
X241253Y-665293D01*
X241253Y-665293D02*
X241253Y-617674D01*
X241253Y-617674D02*
X250777Y-579579D01*
X250777Y-579579D02*
X260301Y-560531D01*
X260301Y-560531D02*
X269824Y-551008D01*
X269824Y-551008D02*
X288872Y-541484D01*
X441253Y-722436D02*
X450777Y-731960D01*
X450777Y-731960D02*
X441253Y-741484D01*
X441253Y-741484D02*
X431729Y-731960D01*
X431729Y-731960D02*
X441253Y-722436D01*
X441253Y-722436D02*
X441253Y-741484D01*
X565063Y-627198D02*
X546015Y-617674D01*
X546015Y-617674D02*
X536491Y-608150D01*
X536491Y-608150D02*
X526967Y-589103D01*
X526967Y-589103D02*
X526967Y-579579D01*
X526967Y-579579D02*
X536491Y-560531D01*
X536491Y-560531D02*
X546015Y-551008D01*
X546015Y-551008D02*
X565063Y-541484D01*
X565063Y-541484D02*
X603158Y-541484D01*
X603158Y-541484D02*
X622205Y-551008D01*
X622205Y-551008D02*
X631729Y-560531D01*
X631729Y-560531D02*
X641253Y-579579D01*
X641253Y-579579D02*
X641253Y-589103D01*
X641253Y-589103D02*
X631729Y-608150D01*
X631729Y-608150D02*
X622205Y-617674D01*
X622205Y-617674D02*
X603158Y-627198D01*
X603158Y-627198D02*
X565063Y-627198D01*
X565063Y-627198D02*
X546015Y-636722D01*
X546015Y-636722D02*
X536491Y-646246D01*
X536491Y-646246D02*
X526967Y-665293D01*
X526967Y-665293D02*
X526967Y-703388D01*
X526967Y-703388D02*
X536491Y-722436D01*
X536491Y-722436D02*
X546015Y-731960D01*
X546015Y-731960D02*
X565063Y-741484D01*
X565063Y-741484D02*
X603158Y-741484D01*
X603158Y-741484D02*
X622205Y-731960D01*
X622205Y-731960D02*
X631729Y-722436D01*
X631729Y-722436D02*
X641253Y-703388D01*
X641253Y-703388D02*
X641253Y-665293D01*
X641253Y-665293D02*
X631729Y-646246D01*
X631729Y-646246D02*
X622205Y-636722D01*
X622205Y-636722D02*
X603158Y-627198D01*
X707920Y-541484D02*
X831729Y-541484D01*
X831729Y-541484D02*
X765062Y-617674D01*
X765062Y-617674D02*
X793634Y-617674D01*
X793634Y-617674D02*
X812682Y-627198D01*
X812682Y-627198D02*
X822205Y-636722D01*
X822205Y-636722D02*
X831729Y-655770D01*
X831729Y-655770D02*
X831729Y-703388D01*
X831729Y-703388D02*
X822205Y-722436D01*
X822205Y-722436D02*
X812682Y-731960D01*
X812682Y-731960D02*
X793634Y-741484D01*
X793634Y-741484D02*
X736491Y-741484D01*
X736491Y-741484D02*
X717443Y-731960D01*
X717443Y-731960D02*
X707920Y-722436D01*
X955539Y-541484D02*
X974586Y-541484D01*
X974586Y-541484D02*
X993634Y-551008D01*
X993634Y-551008D02*
X1003158Y-560531D01*
X1003158Y-560531D02*
X1012682Y-579579D01*
X1012682Y-579579D02*
X1022205Y-617674D01*
X1022205Y-617674D02*
X1022205Y-665293D01*
X1022205Y-665293D02*
X1012682Y-703388D01*
X1012682Y-703388D02*
X1003158Y-722436D01*
X1003158Y-722436D02*
X993634Y-731960D01*
X993634Y-731960D02*
X974586Y-741484D01*
X974586Y-741484D02*
X955539Y-741484D01*
X955539Y-741484D02*
X936491Y-731960D01*
X936491Y-731960D02*
X926967Y-722436D01*
X926967Y-722436D02*
X917443Y-703388D01*
X917443Y-703388D02*
X907920Y-665293D01*
X907920Y-665293D02*
X907920Y-617674D01*
X907920Y-617674D02*
X917443Y-579579D01*
X917443Y-579579D02*
X926967Y-560531D01*
X926967Y-560531D02*
X936491Y-551008D01*
X936491Y-551008D02*
X955539Y-541484D01*
X1107920Y-741484D02*
X1107920Y-608150D01*
X1107920Y-627198D02*
X1117444Y-617674D01*
X1117444Y-617674D02*
X1136491Y-608150D01*
X1136491Y-608150D02*
X1165063Y-608150D01*
X1165063Y-608150D02*
X1184110Y-617674D01*
X1184110Y-617674D02*
X1193634Y-636722D01*
X1193634Y-636722D02*
X1193634Y-741484D01*
X1193634Y-636722D02*
X1203158Y-617674D01*
X1203158Y-617674D02*
X1222205Y-608150D01*
X1222205Y-608150D02*
X1250777Y-608150D01*
X1250777Y-608150D02*
X1269825Y-617674D01*
X1269825Y-617674D02*
X1279348Y-636722D01*
X1279348Y-636722D02*
X1279348Y-741484D01*
X1374586Y-741484D02*
X1374586Y-608150D01*
X1374586Y-627198D02*
X1384110Y-617674D01*
X1384110Y-617674D02*
X1403158Y-608150D01*
X1403158Y-608150D02*
X1431729Y-608150D01*
X1431729Y-608150D02*
X1450777Y-617674D01*
X1450777Y-617674D02*
X1460301Y-636722D01*
X1460301Y-636722D02*
X1460301Y-741484D01*
X1460301Y-636722D02*
X1469824Y-617674D01*
X1469824Y-617674D02*
X1488872Y-608150D01*
X1488872Y-608150D02*
X1517443Y-608150D01*
X1517443Y-608150D02*
X1536491Y-617674D01*
X1536491Y-617674D02*
X1546015Y-636722D01*
X1546015Y-636722D02*
X1546015Y-741484D01*
X1936491Y-531960D02*
X1765063Y-789103D01*
X2193634Y-541484D02*
X2212682Y-541484D01*
X2212682Y-541484D02*
X2231729Y-551008D01*
X2231729Y-551008D02*
X2241253Y-560531D01*
X2241253Y-560531D02*
X2250777Y-579579D01*
X2250777Y-579579D02*
X2260301Y-617674D01*
X2260301Y-617674D02*
X2260301Y-665293D01*
X2260301Y-665293D02*
X2250777Y-703388D01*
X2250777Y-703388D02*
X2241253Y-722436D01*
X2241253Y-722436D02*
X2231729Y-731960D01*
X2231729Y-731960D02*
X2212682Y-741484D01*
X2212682Y-741484D02*
X2193634Y-741484D01*
X2193634Y-741484D02*
X2174587Y-731960D01*
X2174587Y-731960D02*
X2165063Y-722436D01*
X2165063Y-722436D02*
X2155539Y-703388D01*
X2155539Y-703388D02*
X2146015Y-665293D01*
X2146015Y-665293D02*
X2146015Y-617674D01*
X2146015Y-617674D02*
X2155539Y-579579D01*
X2155539Y-579579D02*
X2165063Y-560531D01*
X2165063Y-560531D02*
X2174587Y-551008D01*
X2174587Y-551008D02*
X2193634Y-541484D01*
X2346015Y-722436D02*
X2355539Y-731960D01*
X2355539Y-731960D02*
X2346015Y-741484D01*
X2346015Y-741484D02*
X2336491Y-731960D01*
X2336491Y-731960D02*
X2346015Y-722436D01*
X2346015Y-722436D02*
X2346015Y-741484D01*
X2479348Y-541484D02*
X2498396Y-541484D01*
X2498396Y-541484D02*
X2517444Y-551008D01*
X2517444Y-551008D02*
X2526968Y-560531D01*
X2526968Y-560531D02*
X2536491Y-579579D01*
X2536491Y-579579D02*
X2546015Y-617674D01*
X2546015Y-617674D02*
X2546015Y-665293D01*
X2546015Y-665293D02*
X2536491Y-703388D01*
X2536491Y-703388D02*
X2526968Y-722436D01*
X2526968Y-722436D02*
X2517444Y-731960D01*
X2517444Y-731960D02*
X2498396Y-741484D01*
X2498396Y-741484D02*
X2479348Y-741484D01*
X2479348Y-741484D02*
X2460301Y-731960D01*
X2460301Y-731960D02*
X2450777Y-722436D01*
X2450777Y-722436D02*
X2441253Y-703388D01*
X2441253Y-703388D02*
X2431729Y-665293D01*
X2431729Y-665293D02*
X2431729Y-617674D01*
X2431729Y-617674D02*
X2441253Y-579579D01*
X2441253Y-579579D02*
X2450777Y-560531D01*
X2450777Y-560531D02*
X2460301Y-551008D01*
X2460301Y-551008D02*
X2479348Y-541484D01*
X2612682Y-541484D02*
X2736491Y-541484D01*
X2736491Y-541484D02*
X2669825Y-617674D01*
X2669825Y-617674D02*
X2698396Y-617674D01*
X2698396Y-617674D02*
X2717444Y-627198D01*
X2717444Y-627198D02*
X2726968Y-636722D01*
X2726968Y-636722D02*
X2736491Y-655770D01*
X2736491Y-655770D02*
X2736491Y-703388D01*
X2736491Y-703388D02*
X2726968Y-722436D01*
X2726968Y-722436D02*
X2717444Y-731960D01*
X2717444Y-731960D02*
X2698396Y-741484D01*
X2698396Y-741484D02*
X2641253Y-741484D01*
X2641253Y-741484D02*
X2622206Y-731960D01*
X2622206Y-731960D02*
X2612682Y-722436D01*
X2812682Y-560531D02*
X2822206Y-551008D01*
X2822206Y-551008D02*
X2841253Y-541484D01*
X2841253Y-541484D02*
X2888872Y-541484D01*
X2888872Y-541484D02*
X2907920Y-551008D01*
X2907920Y-551008D02*
X2917444Y-560531D01*
X2917444Y-560531D02*
X2926967Y-579579D01*
X2926967Y-579579D02*
X2926967Y-598627D01*
X2926967Y-598627D02*
X2917444Y-627198D01*
X2917444Y-627198D02*
X2803158Y-741484D01*
X2803158Y-741484D02*
X2926967Y-741484D01*
X2993634Y-541484D02*
X3126967Y-541484D01*
X3126967Y-541484D02*
X3041253Y-741484D01*
X3193634Y-541484D02*
X3193634Y-579579D01*
X3269825Y-541484D02*
X3269825Y-579579D01*
X3565063Y-817674D02*
X3555539Y-808150D01*
X3555539Y-808150D02*
X3536491Y-779579D01*
X3536491Y-779579D02*
X3526968Y-760531D01*
X3526968Y-760531D02*
X3517444Y-731960D01*
X3517444Y-731960D02*
X3507920Y-684341D01*
X3507920Y-684341D02*
X3507920Y-646246D01*
X3507920Y-646246D02*
X3517444Y-598627D01*
X3517444Y-598627D02*
X3526968Y-570055D01*
X3526968Y-570055D02*
X3536491Y-551008D01*
X3536491Y-551008D02*
X3555539Y-522436D01*
X3555539Y-522436D02*
X3565063Y-512912D01*
X3622206Y-541484D02*
X3746015Y-541484D01*
X3746015Y-541484D02*
X3679348Y-617674D01*
X3679348Y-617674D02*
X3707920Y-617674D01*
X3707920Y-617674D02*
X3726968Y-627198D01*
X3726968Y-627198D02*
X3736491Y-636722D01*
X3736491Y-636722D02*
X3746015Y-655770D01*
X3746015Y-655770D02*
X3746015Y-703388D01*
X3746015Y-703388D02*
X3736491Y-722436D01*
X3736491Y-722436D02*
X3726968Y-731960D01*
X3726968Y-731960D02*
X3707920Y-741484D01*
X3707920Y-741484D02*
X3650777Y-741484D01*
X3650777Y-741484D02*
X3631729Y-731960D01*
X3631729Y-731960D02*
X3622206Y-722436D01*
X3984110Y-741484D02*
X3984110Y-541484D01*
X4069825Y-741484D02*
X4069825Y-636722D01*
X4069825Y-636722D02*
X4060301Y-617674D01*
X4060301Y-617674D02*
X4041253Y-608150D01*
X4041253Y-608150D02*
X4012682Y-608150D01*
X4012682Y-608150D02*
X3993634Y-617674D01*
X3993634Y-617674D02*
X3984110Y-627198D01*
X4193634Y-741484D02*
X4174587Y-731960D01*
X4174587Y-731960D02*
X4165063Y-722436D01*
X4165063Y-722436D02*
X4155539Y-703388D01*
X4155539Y-703388D02*
X4155539Y-646246D01*
X4155539Y-646246D02*
X4165063Y-627198D01*
X4165063Y-627198D02*
X4174587Y-617674D01*
X4174587Y-617674D02*
X4193634Y-608150D01*
X4193634Y-608150D02*
X4222206Y-608150D01*
X4222206Y-608150D02*
X4241253Y-617674D01*
X4241253Y-617674D02*
X4250777Y-627198D01*
X4250777Y-627198D02*
X4260301Y-646246D01*
X4260301Y-646246D02*
X4260301Y-703388D01*
X4260301Y-703388D02*
X4250777Y-722436D01*
X4250777Y-722436D02*
X4241253Y-731960D01*
X4241253Y-731960D02*
X4222206Y-741484D01*
X4222206Y-741484D02*
X4193634Y-741484D01*
X4374587Y-741484D02*
X4355539Y-731960D01*
X4355539Y-731960D02*
X4346015Y-712912D01*
X4346015Y-712912D02*
X4346015Y-541484D01*
X4526968Y-731960D02*
X4507920Y-741484D01*
X4507920Y-741484D02*
X4469825Y-741484D01*
X4469825Y-741484D02*
X4450777Y-731960D01*
X4450777Y-731960D02*
X4441253Y-712912D01*
X4441253Y-712912D02*
X4441253Y-636722D01*
X4441253Y-636722D02*
X4450777Y-617674D01*
X4450777Y-617674D02*
X4469825Y-608150D01*
X4469825Y-608150D02*
X4507920Y-608150D01*
X4507920Y-608150D02*
X4526968Y-617674D01*
X4526968Y-617674D02*
X4536492Y-636722D01*
X4536492Y-636722D02*
X4536492Y-655770D01*
X4536492Y-655770D02*
X4441253Y-674817D01*
X4612682Y-731960D02*
X4631730Y-741484D01*
X4631730Y-741484D02*
X4669825Y-741484D01*
X4669825Y-741484D02*
X4688873Y-731960D01*
X4688873Y-731960D02*
X4698396Y-712912D01*
X4698396Y-712912D02*
X4698396Y-703388D01*
X4698396Y-703388D02*
X4688873Y-684341D01*
X4688873Y-684341D02*
X4669825Y-674817D01*
X4669825Y-674817D02*
X4641253Y-674817D01*
X4641253Y-674817D02*
X4622206Y-665293D01*
X4622206Y-665293D02*
X4612682Y-646246D01*
X4612682Y-646246D02*
X4612682Y-636722D01*
X4612682Y-636722D02*
X4622206Y-617674D01*
X4622206Y-617674D02*
X4641253Y-608150D01*
X4641253Y-608150D02*
X4669825Y-608150D01*
X4669825Y-608150D02*
X4688873Y-617674D01*
X4765063Y-817674D02*
X4774587Y-808150D01*
X4774587Y-808150D02*
X4793634Y-779579D01*
X4793634Y-779579D02*
X4803158Y-760531D01*
X4803158Y-760531D02*
X4812682Y-731960D01*
X4812682Y-731960D02*
X4822206Y-684341D01*
X4822206Y-684341D02*
X4822206Y-646246D01*
X4822206Y-646246D02*
X4812682Y-598627D01*
X4812682Y-598627D02*
X4803158Y-570055D01*
X4803158Y-570055D02*
X4793634Y-551008D01*
X4793634Y-551008D02*
X4774587Y-522436D01*
X4774587Y-522436D02*
X4765063Y-512912D01*
X5126968Y-817674D02*
X5117444Y-808150D01*
X5117444Y-808150D02*
X5098396Y-779579D01*
X5098396Y-779579D02*
X5088873Y-760531D01*
X5088873Y-760531D02*
X5079349Y-731960D01*
X5079349Y-731960D02*
X5069825Y-684341D01*
X5069825Y-684341D02*
X5069825Y-646246D01*
X5069825Y-646246D02*
X5079349Y-598627D01*
X5079349Y-598627D02*
X5088873Y-570055D01*
X5088873Y-570055D02*
X5098396Y-551008D01*
X5098396Y-551008D02*
X5117444Y-522436D01*
X5117444Y-522436D02*
X5126968Y-512912D01*
X5203158Y-608150D02*
X5203158Y-741484D01*
X5203158Y-627198D02*
X5212682Y-617674D01*
X5212682Y-617674D02*
X5231730Y-608150D01*
X5231730Y-608150D02*
X5260301Y-608150D01*
X5260301Y-608150D02*
X5279349Y-617674D01*
X5279349Y-617674D02*
X5288873Y-636722D01*
X5288873Y-636722D02*
X5288873Y-741484D01*
X5412682Y-741484D02*
X5393634Y-731960D01*
X5393634Y-731960D02*
X5384111Y-722436D01*
X5384111Y-722436D02*
X5374587Y-703388D01*
X5374587Y-703388D02*
X5374587Y-646246D01*
X5374587Y-646246D02*
X5384111Y-627198D01*
X5384111Y-627198D02*
X5393634Y-617674D01*
X5393634Y-617674D02*
X5412682Y-608150D01*
X5412682Y-608150D02*
X5441254Y-608150D01*
X5441254Y-608150D02*
X5460301Y-617674D01*
X5460301Y-617674D02*
X5469825Y-627198D01*
X5469825Y-627198D02*
X5479349Y-646246D01*
X5479349Y-646246D02*
X5479349Y-703388D01*
X5479349Y-703388D02*
X5469825Y-722436D01*
X5469825Y-722436D02*
X5460301Y-731960D01*
X5460301Y-731960D02*
X5441254Y-741484D01*
X5441254Y-741484D02*
X5412682Y-741484D01*
X5536492Y-608150D02*
X5612682Y-608150D01*
X5565063Y-541484D02*
X5565063Y-712912D01*
X5565063Y-712912D02*
X5574587Y-731960D01*
X5574587Y-731960D02*
X5593634Y-741484D01*
X5593634Y-741484D02*
X5612682Y-741484D01*
X5831730Y-608150D02*
X5831730Y-808150D01*
X5831730Y-617674D02*
X5850777Y-608150D01*
X5850777Y-608150D02*
X5888873Y-608150D01*
X5888873Y-608150D02*
X5907920Y-617674D01*
X5907920Y-617674D02*
X5917444Y-627198D01*
X5917444Y-627198D02*
X5926968Y-646246D01*
X5926968Y-646246D02*
X5926968Y-703388D01*
X5926968Y-703388D02*
X5917444Y-722436D01*
X5917444Y-722436D02*
X5907920Y-731960D01*
X5907920Y-731960D02*
X5888873Y-741484D01*
X5888873Y-741484D02*
X5850777Y-741484D01*
X5850777Y-741484D02*
X5831730Y-731960D01*
X6041253Y-741484D02*
X6022206Y-731960D01*
X6022206Y-731960D02*
X6012682Y-712912D01*
X6012682Y-712912D02*
X6012682Y-541484D01*
X6203158Y-741484D02*
X6203158Y-636722D01*
X6203158Y-636722D02*
X6193634Y-617674D01*
X6193634Y-617674D02*
X6174587Y-608150D01*
X6174587Y-608150D02*
X6136492Y-608150D01*
X6136492Y-608150D02*
X6117444Y-617674D01*
X6203158Y-731960D02*
X6184111Y-741484D01*
X6184111Y-741484D02*
X6136492Y-741484D01*
X6136492Y-741484D02*
X6117444Y-731960D01*
X6117444Y-731960D02*
X6107920Y-712912D01*
X6107920Y-712912D02*
X6107920Y-693865D01*
X6107920Y-693865D02*
X6117444Y-674817D01*
X6117444Y-674817D02*
X6136492Y-665293D01*
X6136492Y-665293D02*
X6184111Y-665293D01*
X6184111Y-665293D02*
X6203158Y-655770D01*
X6269825Y-608150D02*
X6346015Y-608150D01*
X6298396Y-541484D02*
X6298396Y-712912D01*
X6298396Y-712912D02*
X6307920Y-731960D01*
X6307920Y-731960D02*
X6326968Y-741484D01*
X6326968Y-741484D02*
X6346015Y-741484D01*
X6488873Y-731960D02*
X6469825Y-741484D01*
X6469825Y-741484D02*
X6431730Y-741484D01*
X6431730Y-741484D02*
X6412682Y-731960D01*
X6412682Y-731960D02*
X6403158Y-712912D01*
X6403158Y-712912D02*
X6403158Y-636722D01*
X6403158Y-636722D02*
X6412682Y-617674D01*
X6412682Y-617674D02*
X6431730Y-608150D01*
X6431730Y-608150D02*
X6469825Y-608150D01*
X6469825Y-608150D02*
X6488873Y-617674D01*
X6488873Y-617674D02*
X6498396Y-636722D01*
X6498396Y-636722D02*
X6498396Y-655770D01*
X6498396Y-655770D02*
X6403158Y-674817D01*
X6669825Y-741484D02*
X6669825Y-541484D01*
X6669825Y-731960D02*
X6650777Y-741484D01*
X6650777Y-741484D02*
X6612682Y-741484D01*
X6612682Y-741484D02*
X6593634Y-731960D01*
X6593634Y-731960D02*
X6584111Y-722436D01*
X6584111Y-722436D02*
X6574587Y-703388D01*
X6574587Y-703388D02*
X6574587Y-646246D01*
X6574587Y-646246D02*
X6584111Y-627198D01*
X6584111Y-627198D02*
X6593634Y-617674D01*
X6593634Y-617674D02*
X6612682Y-608150D01*
X6612682Y-608150D02*
X6650777Y-608150D01*
X6650777Y-608150D02*
X6669825Y-617674D01*
X6746015Y-817674D02*
X6755539Y-808150D01*
X6755539Y-808150D02*
X6774587Y-779579D01*
X6774587Y-779579D02*
X6784111Y-760531D01*
X6784111Y-760531D02*
X6793634Y-731960D01*
X6793634Y-731960D02*
X6803158Y-684341D01*
X6803158Y-684341D02*
X6803158Y-646246D01*
X6803158Y-646246D02*
X6793634Y-598627D01*
X6793634Y-598627D02*
X6784111Y-570055D01*
X6784111Y-570055D02*
X6774587Y-551008D01*
X6774587Y-551008D02*
X6755539Y-522436D01*
X6755539Y-522436D02*
X6746015Y-512912D01*
D12*
X-10000Y-914000D02*
G75*
G02*
X-133000Y-914000I-61500J0D01*
G01*
X-133000Y-914000D02*
G75*
G02*
X-10000Y-914000I61500J0D01*
G01*
D10*
X355539Y-1005484D02*
X241253Y-1005484D01*
X298396Y-1005484D02*
X298396Y-805484D01*
X298396Y-805484D02*
X279348Y-834055D01*
X279348Y-834055D02*
X260301Y-853103D01*
X260301Y-853103D02*
X241253Y-862627D01*
X441253Y-986436D02*
X450777Y-995960D01*
X450777Y-995960D02*
X441253Y-1005484D01*
X441253Y-1005484D02*
X431729Y-995960D01*
X431729Y-995960D02*
X441253Y-986436D01*
X441253Y-986436D02*
X441253Y-1005484D01*
X526967Y-824531D02*
X536491Y-815008D01*
X536491Y-815008D02*
X555539Y-805484D01*
X555539Y-805484D02*
X603158Y-805484D01*
X603158Y-805484D02*
X622205Y-815008D01*
X622205Y-815008D02*
X631729Y-824531D01*
X631729Y-824531D02*
X641253Y-843579D01*
X641253Y-843579D02*
X641253Y-862627D01*
X641253Y-862627D02*
X631729Y-891198D01*
X631729Y-891198D02*
X517443Y-1005484D01*
X517443Y-1005484D02*
X641253Y-1005484D01*
X707920Y-805484D02*
X831729Y-805484D01*
X831729Y-805484D02*
X765062Y-881674D01*
X765062Y-881674D02*
X793634Y-881674D01*
X793634Y-881674D02*
X812682Y-891198D01*
X812682Y-891198D02*
X822205Y-900722D01*
X822205Y-900722D02*
X831729Y-919769D01*
X831729Y-919769D02*
X831729Y-967388D01*
X831729Y-967388D02*
X822205Y-986436D01*
X822205Y-986436D02*
X812682Y-995960D01*
X812682Y-995960D02*
X793634Y-1005484D01*
X793634Y-1005484D02*
X736491Y-1005484D01*
X736491Y-1005484D02*
X717443Y-995960D01*
X717443Y-995960D02*
X707920Y-986436D01*
X955539Y-805484D02*
X974586Y-805484D01*
X974586Y-805484D02*
X993634Y-815008D01*
X993634Y-815008D02*
X1003158Y-824531D01*
X1003158Y-824531D02*
X1012682Y-843579D01*
X1012682Y-843579D02*
X1022205Y-881674D01*
X1022205Y-881674D02*
X1022205Y-929293D01*
X1022205Y-929293D02*
X1012682Y-967388D01*
X1012682Y-967388D02*
X1003158Y-986436D01*
X1003158Y-986436D02*
X993634Y-995960D01*
X993634Y-995960D02*
X974586Y-1005484D01*
X974586Y-1005484D02*
X955539Y-1005484D01*
X955539Y-1005484D02*
X936491Y-995960D01*
X936491Y-995960D02*
X926967Y-986436D01*
X926967Y-986436D02*
X917443Y-967388D01*
X917443Y-967388D02*
X907920Y-929293D01*
X907920Y-929293D02*
X907920Y-881674D01*
X907920Y-881674D02*
X917443Y-843579D01*
X917443Y-843579D02*
X926967Y-824531D01*
X926967Y-824531D02*
X936491Y-815008D01*
X936491Y-815008D02*
X955539Y-805484D01*
X1107920Y-1005484D02*
X1107920Y-872150D01*
X1107920Y-891198D02*
X1117444Y-881674D01*
X1117444Y-881674D02*
X1136491Y-872150D01*
X1136491Y-872150D02*
X1165063Y-872150D01*
X1165063Y-872150D02*
X1184110Y-881674D01*
X1184110Y-881674D02*
X1193634Y-900722D01*
X1193634Y-900722D02*
X1193634Y-1005484D01*
X1193634Y-900722D02*
X1203158Y-881674D01*
X1203158Y-881674D02*
X1222205Y-872150D01*
X1222205Y-872150D02*
X1250777Y-872150D01*
X1250777Y-872150D02*
X1269825Y-881674D01*
X1269825Y-881674D02*
X1279348Y-900722D01*
X1279348Y-900722D02*
X1279348Y-1005484D01*
X1374586Y-1005484D02*
X1374586Y-872150D01*
X1374586Y-891198D02*
X1384110Y-881674D01*
X1384110Y-881674D02*
X1403158Y-872150D01*
X1403158Y-872150D02*
X1431729Y-872150D01*
X1431729Y-872150D02*
X1450777Y-881674D01*
X1450777Y-881674D02*
X1460301Y-900722D01*
X1460301Y-900722D02*
X1460301Y-1005484D01*
X1460301Y-900722D02*
X1469824Y-881674D01*
X1469824Y-881674D02*
X1488872Y-872150D01*
X1488872Y-872150D02*
X1517443Y-872150D01*
X1517443Y-872150D02*
X1536491Y-881674D01*
X1536491Y-881674D02*
X1546015Y-900722D01*
X1546015Y-900722D02*
X1546015Y-1005484D01*
X1936491Y-795960D02*
X1765063Y-1053103D01*
X2193634Y-805484D02*
X2212682Y-805484D01*
X2212682Y-805484D02*
X2231729Y-815008D01*
X2231729Y-815008D02*
X2241253Y-824531D01*
X2241253Y-824531D02*
X2250777Y-843579D01*
X2250777Y-843579D02*
X2260301Y-881674D01*
X2260301Y-881674D02*
X2260301Y-929293D01*
X2260301Y-929293D02*
X2250777Y-967388D01*
X2250777Y-967388D02*
X2241253Y-986436D01*
X2241253Y-986436D02*
X2231729Y-995960D01*
X2231729Y-995960D02*
X2212682Y-1005484D01*
X2212682Y-1005484D02*
X2193634Y-1005484D01*
X2193634Y-1005484D02*
X2174587Y-995960D01*
X2174587Y-995960D02*
X2165063Y-986436D01*
X2165063Y-986436D02*
X2155539Y-967388D01*
X2155539Y-967388D02*
X2146015Y-929293D01*
X2146015Y-929293D02*
X2146015Y-881674D01*
X2146015Y-881674D02*
X2155539Y-843579D01*
X2155539Y-843579D02*
X2165063Y-824531D01*
X2165063Y-824531D02*
X2174587Y-815008D01*
X2174587Y-815008D02*
X2193634Y-805484D01*
X2346015Y-986436D02*
X2355539Y-995960D01*
X2355539Y-995960D02*
X2346015Y-1005484D01*
X2346015Y-1005484D02*
X2336491Y-995960D01*
X2336491Y-995960D02*
X2346015Y-986436D01*
X2346015Y-986436D02*
X2346015Y-1005484D01*
X2479348Y-805484D02*
X2498396Y-805484D01*
X2498396Y-805484D02*
X2517444Y-815008D01*
X2517444Y-815008D02*
X2526968Y-824531D01*
X2526968Y-824531D02*
X2536491Y-843579D01*
X2536491Y-843579D02*
X2546015Y-881674D01*
X2546015Y-881674D02*
X2546015Y-929293D01*
X2546015Y-929293D02*
X2536491Y-967388D01*
X2536491Y-967388D02*
X2526968Y-986436D01*
X2526968Y-986436D02*
X2517444Y-995960D01*
X2517444Y-995960D02*
X2498396Y-1005484D01*
X2498396Y-1005484D02*
X2479348Y-1005484D01*
X2479348Y-1005484D02*
X2460301Y-995960D01*
X2460301Y-995960D02*
X2450777Y-986436D01*
X2450777Y-986436D02*
X2441253Y-967388D01*
X2441253Y-967388D02*
X2431729Y-929293D01*
X2431729Y-929293D02*
X2431729Y-881674D01*
X2431729Y-881674D02*
X2441253Y-843579D01*
X2441253Y-843579D02*
X2450777Y-824531D01*
X2450777Y-824531D02*
X2460301Y-815008D01*
X2460301Y-815008D02*
X2479348Y-805484D01*
X2717444Y-872150D02*
X2717444Y-1005484D01*
X2669825Y-795960D02*
X2622206Y-938817D01*
X2622206Y-938817D02*
X2746015Y-938817D01*
X2850777Y-891198D02*
X2831729Y-881674D01*
X2831729Y-881674D02*
X2822206Y-872150D01*
X2822206Y-872150D02*
X2812682Y-853103D01*
X2812682Y-853103D02*
X2812682Y-843579D01*
X2812682Y-843579D02*
X2822206Y-824531D01*
X2822206Y-824531D02*
X2831729Y-815008D01*
X2831729Y-815008D02*
X2850777Y-805484D01*
X2850777Y-805484D02*
X2888872Y-805484D01*
X2888872Y-805484D02*
X2907920Y-815008D01*
X2907920Y-815008D02*
X2917444Y-824531D01*
X2917444Y-824531D02*
X2926967Y-843579D01*
X2926967Y-843579D02*
X2926967Y-853103D01*
X2926967Y-853103D02*
X2917444Y-872150D01*
X2917444Y-872150D02*
X2907920Y-881674D01*
X2907920Y-881674D02*
X2888872Y-891198D01*
X2888872Y-891198D02*
X2850777Y-891198D01*
X2850777Y-891198D02*
X2831729Y-900722D01*
X2831729Y-900722D02*
X2822206Y-910246D01*
X2822206Y-910246D02*
X2812682Y-929293D01*
X2812682Y-929293D02*
X2812682Y-967388D01*
X2812682Y-967388D02*
X2822206Y-986436D01*
X2822206Y-986436D02*
X2831729Y-995960D01*
X2831729Y-995960D02*
X2850777Y-1005484D01*
X2850777Y-1005484D02*
X2888872Y-1005484D01*
X2888872Y-1005484D02*
X2907920Y-995960D01*
X2907920Y-995960D02*
X2917444Y-986436D01*
X2917444Y-986436D02*
X2926967Y-967388D01*
X2926967Y-967388D02*
X2926967Y-929293D01*
X2926967Y-929293D02*
X2917444Y-910246D01*
X2917444Y-910246D02*
X2907920Y-900722D01*
X2907920Y-900722D02*
X2888872Y-891198D01*
X3098396Y-872150D02*
X3098396Y-1005484D01*
X3050777Y-795960D02*
X3003158Y-938817D01*
X3003158Y-938817D02*
X3126967Y-938817D01*
X3193634Y-805484D02*
X3193634Y-843579D01*
X3269825Y-805484D02*
X3269825Y-843579D01*
X3565063Y-1081674D02*
X3555539Y-1072150D01*
X3555539Y-1072150D02*
X3536491Y-1043579D01*
X3536491Y-1043579D02*
X3526968Y-1024531D01*
X3526968Y-1024531D02*
X3517444Y-995960D01*
X3517444Y-995960D02*
X3507920Y-948341D01*
X3507920Y-948341D02*
X3507920Y-910246D01*
X3507920Y-910246D02*
X3517444Y-862627D01*
X3517444Y-862627D02*
X3526968Y-834055D01*
X3526968Y-834055D02*
X3536491Y-815008D01*
X3536491Y-815008D02*
X3555539Y-786436D01*
X3555539Y-786436D02*
X3565063Y-776912D01*
X3622206Y-805484D02*
X3746015Y-805484D01*
X3746015Y-805484D02*
X3679348Y-881674D01*
X3679348Y-881674D02*
X3707920Y-881674D01*
X3707920Y-881674D02*
X3726968Y-891198D01*
X3726968Y-891198D02*
X3736491Y-900722D01*
X3736491Y-900722D02*
X3746015Y-919769D01*
X3746015Y-919769D02*
X3746015Y-967388D01*
X3746015Y-967388D02*
X3736491Y-986436D01*
X3736491Y-986436D02*
X3726968Y-995960D01*
X3726968Y-995960D02*
X3707920Y-1005484D01*
X3707920Y-1005484D02*
X3650777Y-1005484D01*
X3650777Y-1005484D02*
X3631729Y-995960D01*
X3631729Y-995960D02*
X3622206Y-986436D01*
X3984110Y-1005484D02*
X3984110Y-805484D01*
X4069825Y-1005484D02*
X4069825Y-900722D01*
X4069825Y-900722D02*
X4060301Y-881674D01*
X4060301Y-881674D02*
X4041253Y-872150D01*
X4041253Y-872150D02*
X4012682Y-872150D01*
X4012682Y-872150D02*
X3993634Y-881674D01*
X3993634Y-881674D02*
X3984110Y-891198D01*
X4193634Y-1005484D02*
X4174587Y-995960D01*
X4174587Y-995960D02*
X4165063Y-986436D01*
X4165063Y-986436D02*
X4155539Y-967388D01*
X4155539Y-967388D02*
X4155539Y-910246D01*
X4155539Y-910246D02*
X4165063Y-891198D01*
X4165063Y-891198D02*
X4174587Y-881674D01*
X4174587Y-881674D02*
X4193634Y-872150D01*
X4193634Y-872150D02*
X4222206Y-872150D01*
X4222206Y-872150D02*
X4241253Y-881674D01*
X4241253Y-881674D02*
X4250777Y-891198D01*
X4250777Y-891198D02*
X4260301Y-910246D01*
X4260301Y-910246D02*
X4260301Y-967388D01*
X4260301Y-967388D02*
X4250777Y-986436D01*
X4250777Y-986436D02*
X4241253Y-995960D01*
X4241253Y-995960D02*
X4222206Y-1005484D01*
X4222206Y-1005484D02*
X4193634Y-1005484D01*
X4374587Y-1005484D02*
X4355539Y-995960D01*
X4355539Y-995960D02*
X4346015Y-976912D01*
X4346015Y-976912D02*
X4346015Y-805484D01*
X4526968Y-995960D02*
X4507920Y-1005484D01*
X4507920Y-1005484D02*
X4469825Y-1005484D01*
X4469825Y-1005484D02*
X4450777Y-995960D01*
X4450777Y-995960D02*
X4441253Y-976912D01*
X4441253Y-976912D02*
X4441253Y-900722D01*
X4441253Y-900722D02*
X4450777Y-881674D01*
X4450777Y-881674D02*
X4469825Y-872150D01*
X4469825Y-872150D02*
X4507920Y-872150D01*
X4507920Y-872150D02*
X4526968Y-881674D01*
X4526968Y-881674D02*
X4536492Y-900722D01*
X4536492Y-900722D02*
X4536492Y-919769D01*
X4536492Y-919769D02*
X4441253Y-938817D01*
X4612682Y-995960D02*
X4631730Y-1005484D01*
X4631730Y-1005484D02*
X4669825Y-1005484D01*
X4669825Y-1005484D02*
X4688873Y-995960D01*
X4688873Y-995960D02*
X4698396Y-976912D01*
X4698396Y-976912D02*
X4698396Y-967388D01*
X4698396Y-967388D02*
X4688873Y-948341D01*
X4688873Y-948341D02*
X4669825Y-938817D01*
X4669825Y-938817D02*
X4641253Y-938817D01*
X4641253Y-938817D02*
X4622206Y-929293D01*
X4622206Y-929293D02*
X4612682Y-910246D01*
X4612682Y-910246D02*
X4612682Y-900722D01*
X4612682Y-900722D02*
X4622206Y-881674D01*
X4622206Y-881674D02*
X4641253Y-872150D01*
X4641253Y-872150D02*
X4669825Y-872150D01*
X4669825Y-872150D02*
X4688873Y-881674D01*
X4765063Y-1081674D02*
X4774587Y-1072150D01*
X4774587Y-1072150D02*
X4793634Y-1043579D01*
X4793634Y-1043579D02*
X4803158Y-1024531D01*
X4803158Y-1024531D02*
X4812682Y-995960D01*
X4812682Y-995960D02*
X4822206Y-948341D01*
X4822206Y-948341D02*
X4822206Y-910246D01*
X4822206Y-910246D02*
X4812682Y-862627D01*
X4812682Y-862627D02*
X4803158Y-834055D01*
X4803158Y-834055D02*
X4793634Y-815008D01*
X4793634Y-815008D02*
X4774587Y-786436D01*
X4774587Y-786436D02*
X4765063Y-776912D01*
X5126968Y-1081674D02*
X5117444Y-1072150D01*
X5117444Y-1072150D02*
X5098396Y-1043579D01*
X5098396Y-1043579D02*
X5088873Y-1024531D01*
X5088873Y-1024531D02*
X5079349Y-995960D01*
X5079349Y-995960D02*
X5069825Y-948341D01*
X5069825Y-948341D02*
X5069825Y-910246D01*
X5069825Y-910246D02*
X5079349Y-862627D01*
X5079349Y-862627D02*
X5088873Y-834055D01*
X5088873Y-834055D02*
X5098396Y-815008D01*
X5098396Y-815008D02*
X5117444Y-786436D01*
X5117444Y-786436D02*
X5126968Y-776912D01*
X5203158Y-872150D02*
X5203158Y-1005484D01*
X5203158Y-891198D02*
X5212682Y-881674D01*
X5212682Y-881674D02*
X5231730Y-872150D01*
X5231730Y-872150D02*
X5260301Y-872150D01*
X5260301Y-872150D02*
X5279349Y-881674D01*
X5279349Y-881674D02*
X5288873Y-900722D01*
X5288873Y-900722D02*
X5288873Y-1005484D01*
X5412682Y-1005484D02*
X5393634Y-995960D01*
X5393634Y-995960D02*
X5384111Y-986436D01*
X5384111Y-986436D02*
X5374587Y-967388D01*
X5374587Y-967388D02*
X5374587Y-910246D01*
X5374587Y-910246D02*
X5384111Y-891198D01*
X5384111Y-891198D02*
X5393634Y-881674D01*
X5393634Y-881674D02*
X5412682Y-872150D01*
X5412682Y-872150D02*
X5441254Y-872150D01*
X5441254Y-872150D02*
X5460301Y-881674D01*
X5460301Y-881674D02*
X5469825Y-891198D01*
X5469825Y-891198D02*
X5479349Y-910246D01*
X5479349Y-910246D02*
X5479349Y-967388D01*
X5479349Y-967388D02*
X5469825Y-986436D01*
X5469825Y-986436D02*
X5460301Y-995960D01*
X5460301Y-995960D02*
X5441254Y-1005484D01*
X5441254Y-1005484D02*
X5412682Y-1005484D01*
X5536492Y-872150D02*
X5612682Y-872150D01*
X5565063Y-805484D02*
X5565063Y-976912D01*
X5565063Y-976912D02*
X5574587Y-995960D01*
X5574587Y-995960D02*
X5593634Y-1005484D01*
X5593634Y-1005484D02*
X5612682Y-1005484D01*
X5831730Y-872150D02*
X5831730Y-1072150D01*
X5831730Y-881674D02*
X5850777Y-872150D01*
X5850777Y-872150D02*
X5888873Y-872150D01*
X5888873Y-872150D02*
X5907920Y-881674D01*
X5907920Y-881674D02*
X5917444Y-891198D01*
X5917444Y-891198D02*
X5926968Y-910246D01*
X5926968Y-910246D02*
X5926968Y-967388D01*
X5926968Y-967388D02*
X5917444Y-986436D01*
X5917444Y-986436D02*
X5907920Y-995960D01*
X5907920Y-995960D02*
X5888873Y-1005484D01*
X5888873Y-1005484D02*
X5850777Y-1005484D01*
X5850777Y-1005484D02*
X5831730Y-995960D01*
X6041253Y-1005484D02*
X6022206Y-995960D01*
X6022206Y-995960D02*
X6012682Y-976912D01*
X6012682Y-976912D02*
X6012682Y-805484D01*
X6203158Y-1005484D02*
X6203158Y-900722D01*
X6203158Y-900722D02*
X6193634Y-881674D01*
X6193634Y-881674D02*
X6174587Y-872150D01*
X6174587Y-872150D02*
X6136492Y-872150D01*
X6136492Y-872150D02*
X6117444Y-881674D01*
X6203158Y-995960D02*
X6184111Y-1005484D01*
X6184111Y-1005484D02*
X6136492Y-1005484D01*
X6136492Y-1005484D02*
X6117444Y-995960D01*
X6117444Y-995960D02*
X6107920Y-976912D01*
X6107920Y-976912D02*
X6107920Y-957865D01*
X6107920Y-957865D02*
X6117444Y-938817D01*
X6117444Y-938817D02*
X6136492Y-929293D01*
X6136492Y-929293D02*
X6184111Y-929293D01*
X6184111Y-929293D02*
X6203158Y-919769D01*
X6269825Y-872150D02*
X6346015Y-872150D01*
X6298396Y-805484D02*
X6298396Y-976912D01*
X6298396Y-976912D02*
X6307920Y-995960D01*
X6307920Y-995960D02*
X6326968Y-1005484D01*
X6326968Y-1005484D02*
X6346015Y-1005484D01*
X6488873Y-995960D02*
X6469825Y-1005484D01*
X6469825Y-1005484D02*
X6431730Y-1005484D01*
X6431730Y-1005484D02*
X6412682Y-995960D01*
X6412682Y-995960D02*
X6403158Y-976912D01*
X6403158Y-976912D02*
X6403158Y-900722D01*
X6403158Y-900722D02*
X6412682Y-881674D01*
X6412682Y-881674D02*
X6431730Y-872150D01*
X6431730Y-872150D02*
X6469825Y-872150D01*
X6469825Y-872150D02*
X6488873Y-881674D01*
X6488873Y-881674D02*
X6498396Y-900722D01*
X6498396Y-900722D02*
X6498396Y-919769D01*
X6498396Y-919769D02*
X6403158Y-938817D01*
X6669825Y-1005484D02*
X6669825Y-805484D01*
X6669825Y-995960D02*
X6650777Y-1005484D01*
X6650777Y-1005484D02*
X6612682Y-1005484D01*
X6612682Y-1005484D02*
X6593634Y-995960D01*
X6593634Y-995960D02*
X6584111Y-986436D01*
X6584111Y-986436D02*
X6574587Y-967388D01*
X6574587Y-967388D02*
X6574587Y-910246D01*
X6574587Y-910246D02*
X6584111Y-891198D01*
X6584111Y-891198D02*
X6593634Y-881674D01*
X6593634Y-881674D02*
X6612682Y-872150D01*
X6612682Y-872150D02*
X6650777Y-872150D01*
X6650777Y-872150D02*
X6669825Y-881674D01*
X6746015Y-1081674D02*
X6755539Y-1072150D01*
X6755539Y-1072150D02*
X6774587Y-1043579D01*
X6774587Y-1043579D02*
X6784111Y-1024531D01*
X6784111Y-1024531D02*
X6793634Y-995960D01*
X6793634Y-995960D02*
X6803158Y-948341D01*
X6803158Y-948341D02*
X6803158Y-910246D01*
X6803158Y-910246D02*
X6793634Y-862627D01*
X6793634Y-862627D02*
X6784111Y-834055D01*
X6784111Y-834055D02*
X6774587Y-815008D01*
X6774587Y-815008D02*
X6755539Y-786436D01*
X6755539Y-786436D02*
X6746015Y-776912D01*
X-110000Y-1078000D02*
X-110000Y-1278000D01*
X-210000Y-1178000D02*
X-10000Y-1178000D01*
X231729Y-1069484D02*
X355539Y-1069484D01*
X355539Y-1069484D02*
X288872Y-1145674D01*
X288872Y-1145674D02*
X317444Y-1145674D01*
X317444Y-1145674D02*
X336491Y-1155198D01*
X336491Y-1155198D02*
X346015Y-1164722D01*
X346015Y-1164722D02*
X355539Y-1183770D01*
X355539Y-1183770D02*
X355539Y-1231389D01*
X355539Y-1231389D02*
X346015Y-1250436D01*
X346015Y-1250436D02*
X336491Y-1259960D01*
X336491Y-1259960D02*
X317444Y-1269484D01*
X317444Y-1269484D02*
X260301Y-1269484D01*
X260301Y-1269484D02*
X241253Y-1259960D01*
X241253Y-1259960D02*
X231729Y-1250436D01*
X441253Y-1250436D02*
X450777Y-1259960D01*
X450777Y-1259960D02*
X441253Y-1269484D01*
X441253Y-1269484D02*
X431729Y-1259960D01*
X431729Y-1259960D02*
X441253Y-1250436D01*
X441253Y-1250436D02*
X441253Y-1269484D01*
X641253Y-1269484D02*
X526967Y-1269484D01*
X584110Y-1269484D02*
X584110Y-1069484D01*
X584110Y-1069484D02*
X565063Y-1098055D01*
X565063Y-1098055D02*
X546015Y-1117103D01*
X546015Y-1117103D02*
X526967Y-1126627D01*
X822205Y-1069484D02*
X726967Y-1069484D01*
X726967Y-1069484D02*
X717443Y-1164722D01*
X717443Y-1164722D02*
X726967Y-1155198D01*
X726967Y-1155198D02*
X746015Y-1145674D01*
X746015Y-1145674D02*
X793634Y-1145674D01*
X793634Y-1145674D02*
X812682Y-1155198D01*
X812682Y-1155198D02*
X822205Y-1164722D01*
X822205Y-1164722D02*
X831729Y-1183770D01*
X831729Y-1183770D02*
X831729Y-1231389D01*
X831729Y-1231389D02*
X822205Y-1250436D01*
X822205Y-1250436D02*
X812682Y-1259960D01*
X812682Y-1259960D02*
X793634Y-1269484D01*
X793634Y-1269484D02*
X746015Y-1269484D01*
X746015Y-1269484D02*
X726967Y-1259960D01*
X726967Y-1259960D02*
X717443Y-1250436D01*
X955539Y-1069484D02*
X974586Y-1069484D01*
X974586Y-1069484D02*
X993634Y-1079008D01*
X993634Y-1079008D02*
X1003158Y-1088531D01*
X1003158Y-1088531D02*
X1012682Y-1107579D01*
X1012682Y-1107579D02*
X1022205Y-1145674D01*
X1022205Y-1145674D02*
X1022205Y-1193293D01*
X1022205Y-1193293D02*
X1012682Y-1231389D01*
X1012682Y-1231389D02*
X1003158Y-1250436D01*
X1003158Y-1250436D02*
X993634Y-1259960D01*
X993634Y-1259960D02*
X974586Y-1269484D01*
X974586Y-1269484D02*
X955539Y-1269484D01*
X955539Y-1269484D02*
X936491Y-1259960D01*
X936491Y-1259960D02*
X926967Y-1250436D01*
X926967Y-1250436D02*
X917443Y-1231389D01*
X917443Y-1231389D02*
X907920Y-1193293D01*
X907920Y-1193293D02*
X907920Y-1145674D01*
X907920Y-1145674D02*
X917443Y-1107579D01*
X917443Y-1107579D02*
X926967Y-1088531D01*
X926967Y-1088531D02*
X936491Y-1079008D01*
X936491Y-1079008D02*
X955539Y-1069484D01*
X1107920Y-1269484D02*
X1107920Y-1136150D01*
X1107920Y-1155198D02*
X1117444Y-1145674D01*
X1117444Y-1145674D02*
X1136491Y-1136150D01*
X1136491Y-1136150D02*
X1165063Y-1136150D01*
X1165063Y-1136150D02*
X1184110Y-1145674D01*
X1184110Y-1145674D02*
X1193634Y-1164722D01*
X1193634Y-1164722D02*
X1193634Y-1269484D01*
X1193634Y-1164722D02*
X1203158Y-1145674D01*
X1203158Y-1145674D02*
X1222205Y-1136150D01*
X1222205Y-1136150D02*
X1250777Y-1136150D01*
X1250777Y-1136150D02*
X1269825Y-1145674D01*
X1269825Y-1145674D02*
X1279348Y-1164722D01*
X1279348Y-1164722D02*
X1279348Y-1269484D01*
X1374586Y-1269484D02*
X1374586Y-1136150D01*
X1374586Y-1155198D02*
X1384110Y-1145674D01*
X1384110Y-1145674D02*
X1403158Y-1136150D01*
X1403158Y-1136150D02*
X1431729Y-1136150D01*
X1431729Y-1136150D02*
X1450777Y-1145674D01*
X1450777Y-1145674D02*
X1460301Y-1164722D01*
X1460301Y-1164722D02*
X1460301Y-1269484D01*
X1460301Y-1164722D02*
X1469824Y-1145674D01*
X1469824Y-1145674D02*
X1488872Y-1136150D01*
X1488872Y-1136150D02*
X1517443Y-1136150D01*
X1517443Y-1136150D02*
X1536491Y-1145674D01*
X1536491Y-1145674D02*
X1546015Y-1164722D01*
X1546015Y-1164722D02*
X1546015Y-1269484D01*
X1936491Y-1059960D02*
X1765063Y-1317103D01*
X2193634Y-1069484D02*
X2212682Y-1069484D01*
X2212682Y-1069484D02*
X2231729Y-1079008D01*
X2231729Y-1079008D02*
X2241253Y-1088531D01*
X2241253Y-1088531D02*
X2250777Y-1107579D01*
X2250777Y-1107579D02*
X2260301Y-1145674D01*
X2260301Y-1145674D02*
X2260301Y-1193293D01*
X2260301Y-1193293D02*
X2250777Y-1231389D01*
X2250777Y-1231389D02*
X2241253Y-1250436D01*
X2241253Y-1250436D02*
X2231729Y-1259960D01*
X2231729Y-1259960D02*
X2212682Y-1269484D01*
X2212682Y-1269484D02*
X2193634Y-1269484D01*
X2193634Y-1269484D02*
X2174587Y-1259960D01*
X2174587Y-1259960D02*
X2165063Y-1250436D01*
X2165063Y-1250436D02*
X2155539Y-1231389D01*
X2155539Y-1231389D02*
X2146015Y-1193293D01*
X2146015Y-1193293D02*
X2146015Y-1145674D01*
X2146015Y-1145674D02*
X2155539Y-1107579D01*
X2155539Y-1107579D02*
X2165063Y-1088531D01*
X2165063Y-1088531D02*
X2174587Y-1079008D01*
X2174587Y-1079008D02*
X2193634Y-1069484D01*
X2346015Y-1250436D02*
X2355539Y-1259960D01*
X2355539Y-1259960D02*
X2346015Y-1269484D01*
X2346015Y-1269484D02*
X2336491Y-1259960D01*
X2336491Y-1259960D02*
X2346015Y-1250436D01*
X2346015Y-1250436D02*
X2346015Y-1269484D01*
X2546015Y-1269484D02*
X2431729Y-1269484D01*
X2488872Y-1269484D02*
X2488872Y-1069484D01*
X2488872Y-1069484D02*
X2469825Y-1098055D01*
X2469825Y-1098055D02*
X2450777Y-1117103D01*
X2450777Y-1117103D02*
X2431729Y-1126627D01*
X2622206Y-1088531D02*
X2631729Y-1079008D01*
X2631729Y-1079008D02*
X2650777Y-1069484D01*
X2650777Y-1069484D02*
X2698396Y-1069484D01*
X2698396Y-1069484D02*
X2717444Y-1079008D01*
X2717444Y-1079008D02*
X2726968Y-1088531D01*
X2726968Y-1088531D02*
X2736491Y-1107579D01*
X2736491Y-1107579D02*
X2736491Y-1126627D01*
X2736491Y-1126627D02*
X2726968Y-1155198D01*
X2726968Y-1155198D02*
X2612682Y-1269484D01*
X2612682Y-1269484D02*
X2736491Y-1269484D01*
X2907920Y-1136150D02*
X2907920Y-1269484D01*
X2860301Y-1059960D02*
X2812682Y-1202817D01*
X2812682Y-1202817D02*
X2936491Y-1202817D01*
X3050777Y-1069484D02*
X3069825Y-1069484D01*
X3069825Y-1069484D02*
X3088872Y-1079008D01*
X3088872Y-1079008D02*
X3098396Y-1088531D01*
X3098396Y-1088531D02*
X3107920Y-1107579D01*
X3107920Y-1107579D02*
X3117444Y-1145674D01*
X3117444Y-1145674D02*
X3117444Y-1193293D01*
X3117444Y-1193293D02*
X3107920Y-1231389D01*
X3107920Y-1231389D02*
X3098396Y-1250436D01*
X3098396Y-1250436D02*
X3088872Y-1259960D01*
X3088872Y-1259960D02*
X3069825Y-1269484D01*
X3069825Y-1269484D02*
X3050777Y-1269484D01*
X3050777Y-1269484D02*
X3031729Y-1259960D01*
X3031729Y-1259960D02*
X3022206Y-1250436D01*
X3022206Y-1250436D02*
X3012682Y-1231389D01*
X3012682Y-1231389D02*
X3003158Y-1193293D01*
X3003158Y-1193293D02*
X3003158Y-1145674D01*
X3003158Y-1145674D02*
X3012682Y-1107579D01*
X3012682Y-1107579D02*
X3022206Y-1088531D01*
X3022206Y-1088531D02*
X3031729Y-1079008D01*
X3031729Y-1079008D02*
X3050777Y-1069484D01*
X3193634Y-1069484D02*
X3193634Y-1107579D01*
X3269825Y-1069484D02*
X3269825Y-1107579D01*
X3565063Y-1345674D02*
X3555539Y-1336150D01*
X3555539Y-1336150D02*
X3536491Y-1307579D01*
X3536491Y-1307579D02*
X3526968Y-1288531D01*
X3526968Y-1288531D02*
X3517444Y-1259960D01*
X3517444Y-1259960D02*
X3507920Y-1212341D01*
X3507920Y-1212341D02*
X3507920Y-1174246D01*
X3507920Y-1174246D02*
X3517444Y-1126627D01*
X3517444Y-1126627D02*
X3526968Y-1098055D01*
X3526968Y-1098055D02*
X3536491Y-1079008D01*
X3536491Y-1079008D02*
X3555539Y-1050436D01*
X3555539Y-1050436D02*
X3565063Y-1040912D01*
X3631729Y-1088531D02*
X3641253Y-1079008D01*
X3641253Y-1079008D02*
X3660301Y-1069484D01*
X3660301Y-1069484D02*
X3707920Y-1069484D01*
X3707920Y-1069484D02*
X3726968Y-1079008D01*
X3726968Y-1079008D02*
X3736491Y-1088531D01*
X3736491Y-1088531D02*
X3746015Y-1107579D01*
X3746015Y-1107579D02*
X3746015Y-1126627D01*
X3746015Y-1126627D02*
X3736491Y-1155198D01*
X3736491Y-1155198D02*
X3622206Y-1269484D01*
X3622206Y-1269484D02*
X3746015Y-1269484D01*
X3984110Y-1269484D02*
X3984110Y-1069484D01*
X4069825Y-1269484D02*
X4069825Y-1164722D01*
X4069825Y-1164722D02*
X4060301Y-1145674D01*
X4060301Y-1145674D02*
X4041253Y-1136150D01*
X4041253Y-1136150D02*
X4012682Y-1136150D01*
X4012682Y-1136150D02*
X3993634Y-1145674D01*
X3993634Y-1145674D02*
X3984110Y-1155198D01*
X4193634Y-1269484D02*
X4174587Y-1259960D01*
X4174587Y-1259960D02*
X4165063Y-1250436D01*
X4165063Y-1250436D02*
X4155539Y-1231389D01*
X4155539Y-1231389D02*
X4155539Y-1174246D01*
X4155539Y-1174246D02*
X4165063Y-1155198D01*
X4165063Y-1155198D02*
X4174587Y-1145674D01*
X4174587Y-1145674D02*
X4193634Y-1136150D01*
X4193634Y-1136150D02*
X4222206Y-1136150D01*
X4222206Y-1136150D02*
X4241253Y-1145674D01*
X4241253Y-1145674D02*
X4250777Y-1155198D01*
X4250777Y-1155198D02*
X4260301Y-1174246D01*
X4260301Y-1174246D02*
X4260301Y-1231389D01*
X4260301Y-1231389D02*
X4250777Y-1250436D01*
X4250777Y-1250436D02*
X4241253Y-1259960D01*
X4241253Y-1259960D02*
X4222206Y-1269484D01*
X4222206Y-1269484D02*
X4193634Y-1269484D01*
X4374587Y-1269484D02*
X4355539Y-1259960D01*
X4355539Y-1259960D02*
X4346015Y-1240912D01*
X4346015Y-1240912D02*
X4346015Y-1069484D01*
X4526968Y-1259960D02*
X4507920Y-1269484D01*
X4507920Y-1269484D02*
X4469825Y-1269484D01*
X4469825Y-1269484D02*
X4450777Y-1259960D01*
X4450777Y-1259960D02*
X4441253Y-1240912D01*
X4441253Y-1240912D02*
X4441253Y-1164722D01*
X4441253Y-1164722D02*
X4450777Y-1145674D01*
X4450777Y-1145674D02*
X4469825Y-1136150D01*
X4469825Y-1136150D02*
X4507920Y-1136150D01*
X4507920Y-1136150D02*
X4526968Y-1145674D01*
X4526968Y-1145674D02*
X4536492Y-1164722D01*
X4536492Y-1164722D02*
X4536492Y-1183770D01*
X4536492Y-1183770D02*
X4441253Y-1202817D01*
X4612682Y-1259960D02*
X4631730Y-1269484D01*
X4631730Y-1269484D02*
X4669825Y-1269484D01*
X4669825Y-1269484D02*
X4688873Y-1259960D01*
X4688873Y-1259960D02*
X4698396Y-1240912D01*
X4698396Y-1240912D02*
X4698396Y-1231389D01*
X4698396Y-1231389D02*
X4688873Y-1212341D01*
X4688873Y-1212341D02*
X4669825Y-1202817D01*
X4669825Y-1202817D02*
X4641253Y-1202817D01*
X4641253Y-1202817D02*
X4622206Y-1193293D01*
X4622206Y-1193293D02*
X4612682Y-1174246D01*
X4612682Y-1174246D02*
X4612682Y-1164722D01*
X4612682Y-1164722D02*
X4622206Y-1145674D01*
X4622206Y-1145674D02*
X4641253Y-1136150D01*
X4641253Y-1136150D02*
X4669825Y-1136150D01*
X4669825Y-1136150D02*
X4688873Y-1145674D01*
X4765063Y-1345674D02*
X4774587Y-1336150D01*
X4774587Y-1336150D02*
X4793634Y-1307579D01*
X4793634Y-1307579D02*
X4803158Y-1288531D01*
X4803158Y-1288531D02*
X4812682Y-1259960D01*
X4812682Y-1259960D02*
X4822206Y-1212341D01*
X4822206Y-1212341D02*
X4822206Y-1174246D01*
X4822206Y-1174246D02*
X4812682Y-1126627D01*
X4812682Y-1126627D02*
X4803158Y-1098055D01*
X4803158Y-1098055D02*
X4793634Y-1079008D01*
X4793634Y-1079008D02*
X4774587Y-1050436D01*
X4774587Y-1050436D02*
X4765063Y-1040912D01*
X5126968Y-1345674D02*
X5117444Y-1336150D01*
X5117444Y-1336150D02*
X5098396Y-1307579D01*
X5098396Y-1307579D02*
X5088873Y-1288531D01*
X5088873Y-1288531D02*
X5079349Y-1259960D01*
X5079349Y-1259960D02*
X5069825Y-1212341D01*
X5069825Y-1212341D02*
X5069825Y-1174246D01*
X5069825Y-1174246D02*
X5079349Y-1126627D01*
X5079349Y-1126627D02*
X5088873Y-1098055D01*
X5088873Y-1098055D02*
X5098396Y-1079008D01*
X5098396Y-1079008D02*
X5117444Y-1050436D01*
X5117444Y-1050436D02*
X5126968Y-1040912D01*
X5203158Y-1136150D02*
X5203158Y-1269484D01*
X5203158Y-1155198D02*
X5212682Y-1145674D01*
X5212682Y-1145674D02*
X5231730Y-1136150D01*
X5231730Y-1136150D02*
X5260301Y-1136150D01*
X5260301Y-1136150D02*
X5279349Y-1145674D01*
X5279349Y-1145674D02*
X5288873Y-1164722D01*
X5288873Y-1164722D02*
X5288873Y-1269484D01*
X5412682Y-1269484D02*
X5393634Y-1259960D01*
X5393634Y-1259960D02*
X5384111Y-1250436D01*
X5384111Y-1250436D02*
X5374587Y-1231389D01*
X5374587Y-1231389D02*
X5374587Y-1174246D01*
X5374587Y-1174246D02*
X5384111Y-1155198D01*
X5384111Y-1155198D02*
X5393634Y-1145674D01*
X5393634Y-1145674D02*
X5412682Y-1136150D01*
X5412682Y-1136150D02*
X5441254Y-1136150D01*
X5441254Y-1136150D02*
X5460301Y-1145674D01*
X5460301Y-1145674D02*
X5469825Y-1155198D01*
X5469825Y-1155198D02*
X5479349Y-1174246D01*
X5479349Y-1174246D02*
X5479349Y-1231389D01*
X5479349Y-1231389D02*
X5469825Y-1250436D01*
X5469825Y-1250436D02*
X5460301Y-1259960D01*
X5460301Y-1259960D02*
X5441254Y-1269484D01*
X5441254Y-1269484D02*
X5412682Y-1269484D01*
X5536492Y-1136150D02*
X5612682Y-1136150D01*
X5565063Y-1069484D02*
X5565063Y-1240912D01*
X5565063Y-1240912D02*
X5574587Y-1259960D01*
X5574587Y-1259960D02*
X5593634Y-1269484D01*
X5593634Y-1269484D02*
X5612682Y-1269484D01*
X5831730Y-1136150D02*
X5831730Y-1336150D01*
X5831730Y-1145674D02*
X5850777Y-1136150D01*
X5850777Y-1136150D02*
X5888873Y-1136150D01*
X5888873Y-1136150D02*
X5907920Y-1145674D01*
X5907920Y-1145674D02*
X5917444Y-1155198D01*
X5917444Y-1155198D02*
X5926968Y-1174246D01*
X5926968Y-1174246D02*
X5926968Y-1231389D01*
X5926968Y-1231389D02*
X5917444Y-1250436D01*
X5917444Y-1250436D02*
X5907920Y-1259960D01*
X5907920Y-1259960D02*
X5888873Y-1269484D01*
X5888873Y-1269484D02*
X5850777Y-1269484D01*
X5850777Y-1269484D02*
X5831730Y-1259960D01*
X6041253Y-1269484D02*
X6022206Y-1259960D01*
X6022206Y-1259960D02*
X6012682Y-1240912D01*
X6012682Y-1240912D02*
X6012682Y-1069484D01*
X6203158Y-1269484D02*
X6203158Y-1164722D01*
X6203158Y-1164722D02*
X6193634Y-1145674D01*
X6193634Y-1145674D02*
X6174587Y-1136150D01*
X6174587Y-1136150D02*
X6136492Y-1136150D01*
X6136492Y-1136150D02*
X6117444Y-1145674D01*
X6203158Y-1259960D02*
X6184111Y-1269484D01*
X6184111Y-1269484D02*
X6136492Y-1269484D01*
X6136492Y-1269484D02*
X6117444Y-1259960D01*
X6117444Y-1259960D02*
X6107920Y-1240912D01*
X6107920Y-1240912D02*
X6107920Y-1221865D01*
X6107920Y-1221865D02*
X6117444Y-1202817D01*
X6117444Y-1202817D02*
X6136492Y-1193293D01*
X6136492Y-1193293D02*
X6184111Y-1193293D01*
X6184111Y-1193293D02*
X6203158Y-1183770D01*
X6269825Y-1136150D02*
X6346015Y-1136150D01*
X6298396Y-1069484D02*
X6298396Y-1240912D01*
X6298396Y-1240912D02*
X6307920Y-1259960D01*
X6307920Y-1259960D02*
X6326968Y-1269484D01*
X6326968Y-1269484D02*
X6346015Y-1269484D01*
X6488873Y-1259960D02*
X6469825Y-1269484D01*
X6469825Y-1269484D02*
X6431730Y-1269484D01*
X6431730Y-1269484D02*
X6412682Y-1259960D01*
X6412682Y-1259960D02*
X6403158Y-1240912D01*
X6403158Y-1240912D02*
X6403158Y-1164722D01*
X6403158Y-1164722D02*
X6412682Y-1145674D01*
X6412682Y-1145674D02*
X6431730Y-1136150D01*
X6431730Y-1136150D02*
X6469825Y-1136150D01*
X6469825Y-1136150D02*
X6488873Y-1145674D01*
X6488873Y-1145674D02*
X6498396Y-1164722D01*
X6498396Y-1164722D02*
X6498396Y-1183770D01*
X6498396Y-1183770D02*
X6403158Y-1202817D01*
X6669825Y-1269484D02*
X6669825Y-1069484D01*
X6669825Y-1259960D02*
X6650777Y-1269484D01*
X6650777Y-1269484D02*
X6612682Y-1269484D01*
X6612682Y-1269484D02*
X6593634Y-1259960D01*
X6593634Y-1259960D02*
X6584111Y-1250436D01*
X6584111Y-1250436D02*
X6574587Y-1231389D01*
X6574587Y-1231389D02*
X6574587Y-1174246D01*
X6574587Y-1174246D02*
X6584111Y-1155198D01*
X6584111Y-1155198D02*
X6593634Y-1145674D01*
X6593634Y-1145674D02*
X6612682Y-1136150D01*
X6612682Y-1136150D02*
X6650777Y-1136150D01*
X6650777Y-1136150D02*
X6669825Y-1145674D01*
X6746015Y-1345674D02*
X6755539Y-1336150D01*
X6755539Y-1336150D02*
X6774587Y-1307579D01*
X6774587Y-1307579D02*
X6784111Y-1288531D01*
X6784111Y-1288531D02*
X6793634Y-1259960D01*
X6793634Y-1259960D02*
X6803158Y-1212341D01*
X6803158Y-1212341D02*
X6803158Y-1174246D01*
X6803158Y-1174246D02*
X6793634Y-1126627D01*
X6793634Y-1126627D02*
X6784111Y-1098055D01*
X6784111Y-1098055D02*
X6774587Y-1079008D01*
X6774587Y-1079008D02*
X6755539Y-1050436D01*
X6755539Y-1050436D02*
X6746015Y-1040912D01*
X-39289Y-1568711D02*
X-39289Y-1427289D01*
X-180711Y-1427289D01*
X-180711Y-1568711D01*
X-39289Y-1568711D01*
X231729Y-1389484D02*
X355539Y-1389484D01*
X355539Y-1389484D02*
X288872Y-1465674D01*
X288872Y-1465674D02*
X317444Y-1465674D01*
X317444Y-1465674D02*
X336491Y-1475198D01*
X336491Y-1475198D02*
X346015Y-1484722D01*
X346015Y-1484722D02*
X355539Y-1503769D01*
X355539Y-1503769D02*
X355539Y-1551388D01*
X355539Y-1551388D02*
X346015Y-1570436D01*
X346015Y-1570436D02*
X336491Y-1579960D01*
X336491Y-1579960D02*
X317444Y-1589484D01*
X317444Y-1589484D02*
X260301Y-1589484D01*
X260301Y-1589484D02*
X241253Y-1579960D01*
X241253Y-1579960D02*
X231729Y-1570436D01*
X441253Y-1570436D02*
X450777Y-1579960D01*
X450777Y-1579960D02*
X441253Y-1589484D01*
X441253Y-1589484D02*
X431729Y-1579960D01*
X431729Y-1579960D02*
X441253Y-1570436D01*
X441253Y-1570436D02*
X441253Y-1589484D01*
X526967Y-1408531D02*
X536491Y-1399008D01*
X536491Y-1399008D02*
X555539Y-1389484D01*
X555539Y-1389484D02*
X603158Y-1389484D01*
X603158Y-1389484D02*
X622205Y-1399008D01*
X622205Y-1399008D02*
X631729Y-1408531D01*
X631729Y-1408531D02*
X641253Y-1427579D01*
X641253Y-1427579D02*
X641253Y-1446627D01*
X641253Y-1446627D02*
X631729Y-1475198D01*
X631729Y-1475198D02*
X517443Y-1589484D01*
X517443Y-1589484D02*
X641253Y-1589484D01*
X765062Y-1389484D02*
X784110Y-1389484D01*
X784110Y-1389484D02*
X803158Y-1399008D01*
X803158Y-1399008D02*
X812682Y-1408531D01*
X812682Y-1408531D02*
X822205Y-1427579D01*
X822205Y-1427579D02*
X831729Y-1465674D01*
X831729Y-1465674D02*
X831729Y-1513293D01*
X831729Y-1513293D02*
X822205Y-1551388D01*
X822205Y-1551388D02*
X812682Y-1570436D01*
X812682Y-1570436D02*
X803158Y-1579960D01*
X803158Y-1579960D02*
X784110Y-1589484D01*
X784110Y-1589484D02*
X765062Y-1589484D01*
X765062Y-1589484D02*
X746015Y-1579960D01*
X746015Y-1579960D02*
X736491Y-1570436D01*
X736491Y-1570436D02*
X726967Y-1551388D01*
X726967Y-1551388D02*
X717443Y-1513293D01*
X717443Y-1513293D02*
X717443Y-1465674D01*
X717443Y-1465674D02*
X726967Y-1427579D01*
X726967Y-1427579D02*
X736491Y-1408531D01*
X736491Y-1408531D02*
X746015Y-1399008D01*
X746015Y-1399008D02*
X765062Y-1389484D01*
X955539Y-1389484D02*
X974586Y-1389484D01*
X974586Y-1389484D02*
X993634Y-1399008D01*
X993634Y-1399008D02*
X1003158Y-1408531D01*
X1003158Y-1408531D02*
X1012682Y-1427579D01*
X1012682Y-1427579D02*
X1022205Y-1465674D01*
X1022205Y-1465674D02*
X1022205Y-1513293D01*
X1022205Y-1513293D02*
X1012682Y-1551388D01*
X1012682Y-1551388D02*
X1003158Y-1570436D01*
X1003158Y-1570436D02*
X993634Y-1579960D01*
X993634Y-1579960D02*
X974586Y-1589484D01*
X974586Y-1589484D02*
X955539Y-1589484D01*
X955539Y-1589484D02*
X936491Y-1579960D01*
X936491Y-1579960D02*
X926967Y-1570436D01*
X926967Y-1570436D02*
X917443Y-1551388D01*
X917443Y-1551388D02*
X907920Y-1513293D01*
X907920Y-1513293D02*
X907920Y-1465674D01*
X907920Y-1465674D02*
X917443Y-1427579D01*
X917443Y-1427579D02*
X926967Y-1408531D01*
X926967Y-1408531D02*
X936491Y-1399008D01*
X936491Y-1399008D02*
X955539Y-1389484D01*
X1107920Y-1589484D02*
X1107920Y-1456150D01*
X1107920Y-1475198D02*
X1117444Y-1465674D01*
X1117444Y-1465674D02*
X1136491Y-1456150D01*
X1136491Y-1456150D02*
X1165063Y-1456150D01*
X1165063Y-1456150D02*
X1184110Y-1465674D01*
X1184110Y-1465674D02*
X1193634Y-1484722D01*
X1193634Y-1484722D02*
X1193634Y-1589484D01*
X1193634Y-1484722D02*
X1203158Y-1465674D01*
X1203158Y-1465674D02*
X1222205Y-1456150D01*
X1222205Y-1456150D02*
X1250777Y-1456150D01*
X1250777Y-1456150D02*
X1269825Y-1465674D01*
X1269825Y-1465674D02*
X1279348Y-1484722D01*
X1279348Y-1484722D02*
X1279348Y-1589484D01*
X1374586Y-1589484D02*
X1374586Y-1456150D01*
X1374586Y-1475198D02*
X1384110Y-1465674D01*
X1384110Y-1465674D02*
X1403158Y-1456150D01*
X1403158Y-1456150D02*
X1431729Y-1456150D01*
X1431729Y-1456150D02*
X1450777Y-1465674D01*
X1450777Y-1465674D02*
X1460301Y-1484722D01*
X1460301Y-1484722D02*
X1460301Y-1589484D01*
X1460301Y-1484722D02*
X1469824Y-1465674D01*
X1469824Y-1465674D02*
X1488872Y-1456150D01*
X1488872Y-1456150D02*
X1517443Y-1456150D01*
X1517443Y-1456150D02*
X1536491Y-1465674D01*
X1536491Y-1465674D02*
X1546015Y-1484722D01*
X1546015Y-1484722D02*
X1546015Y-1589484D01*
X1936491Y-1379960D02*
X1765063Y-1637103D01*
X2193634Y-1389484D02*
X2212682Y-1389484D01*
X2212682Y-1389484D02*
X2231729Y-1399008D01*
X2231729Y-1399008D02*
X2241253Y-1408531D01*
X2241253Y-1408531D02*
X2250777Y-1427579D01*
X2250777Y-1427579D02*
X2260301Y-1465674D01*
X2260301Y-1465674D02*
X2260301Y-1513293D01*
X2260301Y-1513293D02*
X2250777Y-1551388D01*
X2250777Y-1551388D02*
X2241253Y-1570436D01*
X2241253Y-1570436D02*
X2231729Y-1579960D01*
X2231729Y-1579960D02*
X2212682Y-1589484D01*
X2212682Y-1589484D02*
X2193634Y-1589484D01*
X2193634Y-1589484D02*
X2174587Y-1579960D01*
X2174587Y-1579960D02*
X2165063Y-1570436D01*
X2165063Y-1570436D02*
X2155539Y-1551388D01*
X2155539Y-1551388D02*
X2146015Y-1513293D01*
X2146015Y-1513293D02*
X2146015Y-1465674D01*
X2146015Y-1465674D02*
X2155539Y-1427579D01*
X2155539Y-1427579D02*
X2165063Y-1408531D01*
X2165063Y-1408531D02*
X2174587Y-1399008D01*
X2174587Y-1399008D02*
X2193634Y-1389484D01*
X2346015Y-1570436D02*
X2355539Y-1579960D01*
X2355539Y-1579960D02*
X2346015Y-1589484D01*
X2346015Y-1589484D02*
X2336491Y-1579960D01*
X2336491Y-1579960D02*
X2346015Y-1570436D01*
X2346015Y-1570436D02*
X2346015Y-1589484D01*
X2546015Y-1589484D02*
X2431729Y-1589484D01*
X2488872Y-1589484D02*
X2488872Y-1389484D01*
X2488872Y-1389484D02*
X2469825Y-1418055D01*
X2469825Y-1418055D02*
X2450777Y-1437103D01*
X2450777Y-1437103D02*
X2431729Y-1446627D01*
X2622206Y-1408531D02*
X2631729Y-1399008D01*
X2631729Y-1399008D02*
X2650777Y-1389484D01*
X2650777Y-1389484D02*
X2698396Y-1389484D01*
X2698396Y-1389484D02*
X2717444Y-1399008D01*
X2717444Y-1399008D02*
X2726968Y-1408531D01*
X2726968Y-1408531D02*
X2736491Y-1427579D01*
X2736491Y-1427579D02*
X2736491Y-1446627D01*
X2736491Y-1446627D02*
X2726968Y-1475198D01*
X2726968Y-1475198D02*
X2612682Y-1589484D01*
X2612682Y-1589484D02*
X2736491Y-1589484D01*
X2907920Y-1389484D02*
X2869825Y-1389484D01*
X2869825Y-1389484D02*
X2850777Y-1399008D01*
X2850777Y-1399008D02*
X2841253Y-1408531D01*
X2841253Y-1408531D02*
X2822206Y-1437103D01*
X2822206Y-1437103D02*
X2812682Y-1475198D01*
X2812682Y-1475198D02*
X2812682Y-1551388D01*
X2812682Y-1551388D02*
X2822206Y-1570436D01*
X2822206Y-1570436D02*
X2831729Y-1579960D01*
X2831729Y-1579960D02*
X2850777Y-1589484D01*
X2850777Y-1589484D02*
X2888872Y-1589484D01*
X2888872Y-1589484D02*
X2907920Y-1579960D01*
X2907920Y-1579960D02*
X2917444Y-1570436D01*
X2917444Y-1570436D02*
X2926967Y-1551388D01*
X2926967Y-1551388D02*
X2926967Y-1503769D01*
X2926967Y-1503769D02*
X2917444Y-1484722D01*
X2917444Y-1484722D02*
X2907920Y-1475198D01*
X2907920Y-1475198D02*
X2888872Y-1465674D01*
X2888872Y-1465674D02*
X2850777Y-1465674D01*
X2850777Y-1465674D02*
X2831729Y-1475198D01*
X2831729Y-1475198D02*
X2822206Y-1484722D01*
X2822206Y-1484722D02*
X2812682Y-1503769D01*
X3050777Y-1389484D02*
X3069825Y-1389484D01*
X3069825Y-1389484D02*
X3088872Y-1399008D01*
X3088872Y-1399008D02*
X3098396Y-1408531D01*
X3098396Y-1408531D02*
X3107920Y-1427579D01*
X3107920Y-1427579D02*
X3117444Y-1465674D01*
X3117444Y-1465674D02*
X3117444Y-1513293D01*
X3117444Y-1513293D02*
X3107920Y-1551388D01*
X3107920Y-1551388D02*
X3098396Y-1570436D01*
X3098396Y-1570436D02*
X3088872Y-1579960D01*
X3088872Y-1579960D02*
X3069825Y-1589484D01*
X3069825Y-1589484D02*
X3050777Y-1589484D01*
X3050777Y-1589484D02*
X3031729Y-1579960D01*
X3031729Y-1579960D02*
X3022206Y-1570436D01*
X3022206Y-1570436D02*
X3012682Y-1551388D01*
X3012682Y-1551388D02*
X3003158Y-1513293D01*
X3003158Y-1513293D02*
X3003158Y-1465674D01*
X3003158Y-1465674D02*
X3012682Y-1427579D01*
X3012682Y-1427579D02*
X3022206Y-1408531D01*
X3022206Y-1408531D02*
X3031729Y-1399008D01*
X3031729Y-1399008D02*
X3050777Y-1389484D01*
X3193634Y-1389484D02*
X3193634Y-1427579D01*
X3269825Y-1389484D02*
X3269825Y-1427579D01*
X3565063Y-1665674D02*
X3555539Y-1656150D01*
X3555539Y-1656150D02*
X3536491Y-1627579D01*
X3536491Y-1627579D02*
X3526968Y-1608531D01*
X3526968Y-1608531D02*
X3517444Y-1579960D01*
X3517444Y-1579960D02*
X3507920Y-1532341D01*
X3507920Y-1532341D02*
X3507920Y-1494246D01*
X3507920Y-1494246D02*
X3517444Y-1446627D01*
X3517444Y-1446627D02*
X3526968Y-1418055D01*
X3526968Y-1418055D02*
X3536491Y-1399008D01*
X3536491Y-1399008D02*
X3555539Y-1370436D01*
X3555539Y-1370436D02*
X3565063Y-1360912D01*
X3622206Y-1389484D02*
X3746015Y-1389484D01*
X3746015Y-1389484D02*
X3679348Y-1465674D01*
X3679348Y-1465674D02*
X3707920Y-1465674D01*
X3707920Y-1465674D02*
X3726968Y-1475198D01*
X3726968Y-1475198D02*
X3736491Y-1484722D01*
X3736491Y-1484722D02*
X3746015Y-1503769D01*
X3746015Y-1503769D02*
X3746015Y-1551388D01*
X3746015Y-1551388D02*
X3736491Y-1570436D01*
X3736491Y-1570436D02*
X3726968Y-1579960D01*
X3726968Y-1579960D02*
X3707920Y-1589484D01*
X3707920Y-1589484D02*
X3650777Y-1589484D01*
X3650777Y-1589484D02*
X3631729Y-1579960D01*
X3631729Y-1579960D02*
X3622206Y-1570436D01*
X3984110Y-1589484D02*
X3984110Y-1389484D01*
X4069825Y-1589484D02*
X4069825Y-1484722D01*
X4069825Y-1484722D02*
X4060301Y-1465674D01*
X4060301Y-1465674D02*
X4041253Y-1456150D01*
X4041253Y-1456150D02*
X4012682Y-1456150D01*
X4012682Y-1456150D02*
X3993634Y-1465674D01*
X3993634Y-1465674D02*
X3984110Y-1475198D01*
X4193634Y-1589484D02*
X4174587Y-1579960D01*
X4174587Y-1579960D02*
X4165063Y-1570436D01*
X4165063Y-1570436D02*
X4155539Y-1551388D01*
X4155539Y-1551388D02*
X4155539Y-1494246D01*
X4155539Y-1494246D02*
X4165063Y-1475198D01*
X4165063Y-1475198D02*
X4174587Y-1465674D01*
X4174587Y-1465674D02*
X4193634Y-1456150D01*
X4193634Y-1456150D02*
X4222206Y-1456150D01*
X4222206Y-1456150D02*
X4241253Y-1465674D01*
X4241253Y-1465674D02*
X4250777Y-1475198D01*
X4250777Y-1475198D02*
X4260301Y-1494246D01*
X4260301Y-1494246D02*
X4260301Y-1551388D01*
X4260301Y-1551388D02*
X4250777Y-1570436D01*
X4250777Y-1570436D02*
X4241253Y-1579960D01*
X4241253Y-1579960D02*
X4222206Y-1589484D01*
X4222206Y-1589484D02*
X4193634Y-1589484D01*
X4374587Y-1589484D02*
X4355539Y-1579960D01*
X4355539Y-1579960D02*
X4346015Y-1560912D01*
X4346015Y-1560912D02*
X4346015Y-1389484D01*
X4526968Y-1579960D02*
X4507920Y-1589484D01*
X4507920Y-1589484D02*
X4469825Y-1589484D01*
X4469825Y-1589484D02*
X4450777Y-1579960D01*
X4450777Y-1579960D02*
X4441253Y-1560912D01*
X4441253Y-1560912D02*
X4441253Y-1484722D01*
X4441253Y-1484722D02*
X4450777Y-1465674D01*
X4450777Y-1465674D02*
X4469825Y-1456150D01*
X4469825Y-1456150D02*
X4507920Y-1456150D01*
X4507920Y-1456150D02*
X4526968Y-1465674D01*
X4526968Y-1465674D02*
X4536492Y-1484722D01*
X4536492Y-1484722D02*
X4536492Y-1503769D01*
X4536492Y-1503769D02*
X4441253Y-1522817D01*
X4612682Y-1579960D02*
X4631730Y-1589484D01*
X4631730Y-1589484D02*
X4669825Y-1589484D01*
X4669825Y-1589484D02*
X4688873Y-1579960D01*
X4688873Y-1579960D02*
X4698396Y-1560912D01*
X4698396Y-1560912D02*
X4698396Y-1551388D01*
X4698396Y-1551388D02*
X4688873Y-1532341D01*
X4688873Y-1532341D02*
X4669825Y-1522817D01*
X4669825Y-1522817D02*
X4641253Y-1522817D01*
X4641253Y-1522817D02*
X4622206Y-1513293D01*
X4622206Y-1513293D02*
X4612682Y-1494246D01*
X4612682Y-1494246D02*
X4612682Y-1484722D01*
X4612682Y-1484722D02*
X4622206Y-1465674D01*
X4622206Y-1465674D02*
X4641253Y-1456150D01*
X4641253Y-1456150D02*
X4669825Y-1456150D01*
X4669825Y-1456150D02*
X4688873Y-1465674D01*
X4765063Y-1665674D02*
X4774587Y-1656150D01*
X4774587Y-1656150D02*
X4793634Y-1627579D01*
X4793634Y-1627579D02*
X4803158Y-1608531D01*
X4803158Y-1608531D02*
X4812682Y-1579960D01*
X4812682Y-1579960D02*
X4822206Y-1532341D01*
X4822206Y-1532341D02*
X4822206Y-1494246D01*
X4822206Y-1494246D02*
X4812682Y-1446627D01*
X4812682Y-1446627D02*
X4803158Y-1418055D01*
X4803158Y-1418055D02*
X4793634Y-1399008D01*
X4793634Y-1399008D02*
X4774587Y-1370436D01*
X4774587Y-1370436D02*
X4765063Y-1360912D01*
X5126968Y-1665674D02*
X5117444Y-1656150D01*
X5117444Y-1656150D02*
X5098396Y-1627579D01*
X5098396Y-1627579D02*
X5088873Y-1608531D01*
X5088873Y-1608531D02*
X5079349Y-1579960D01*
X5079349Y-1579960D02*
X5069825Y-1532341D01*
X5069825Y-1532341D02*
X5069825Y-1494246D01*
X5069825Y-1494246D02*
X5079349Y-1446627D01*
X5079349Y-1446627D02*
X5088873Y-1418055D01*
X5088873Y-1418055D02*
X5098396Y-1399008D01*
X5098396Y-1399008D02*
X5117444Y-1370436D01*
X5117444Y-1370436D02*
X5126968Y-1360912D01*
X5203158Y-1456150D02*
X5203158Y-1589484D01*
X5203158Y-1475198D02*
X5212682Y-1465674D01*
X5212682Y-1465674D02*
X5231730Y-1456150D01*
X5231730Y-1456150D02*
X5260301Y-1456150D01*
X5260301Y-1456150D02*
X5279349Y-1465674D01*
X5279349Y-1465674D02*
X5288873Y-1484722D01*
X5288873Y-1484722D02*
X5288873Y-1589484D01*
X5412682Y-1589484D02*
X5393634Y-1579960D01*
X5393634Y-1579960D02*
X5384111Y-1570436D01*
X5384111Y-1570436D02*
X5374587Y-1551388D01*
X5374587Y-1551388D02*
X5374587Y-1494246D01*
X5374587Y-1494246D02*
X5384111Y-1475198D01*
X5384111Y-1475198D02*
X5393634Y-1465674D01*
X5393634Y-1465674D02*
X5412682Y-1456150D01*
X5412682Y-1456150D02*
X5441254Y-1456150D01*
X5441254Y-1456150D02*
X5460301Y-1465674D01*
X5460301Y-1465674D02*
X5469825Y-1475198D01*
X5469825Y-1475198D02*
X5479349Y-1494246D01*
X5479349Y-1494246D02*
X5479349Y-1551388D01*
X5479349Y-1551388D02*
X5469825Y-1570436D01*
X5469825Y-1570436D02*
X5460301Y-1579960D01*
X5460301Y-1579960D02*
X5441254Y-1589484D01*
X5441254Y-1589484D02*
X5412682Y-1589484D01*
X5536492Y-1456150D02*
X5612682Y-1456150D01*
X5565063Y-1389484D02*
X5565063Y-1560912D01*
X5565063Y-1560912D02*
X5574587Y-1579960D01*
X5574587Y-1579960D02*
X5593634Y-1589484D01*
X5593634Y-1589484D02*
X5612682Y-1589484D01*
X5831730Y-1456150D02*
X5831730Y-1656150D01*
X5831730Y-1465674D02*
X5850777Y-1456150D01*
X5850777Y-1456150D02*
X5888873Y-1456150D01*
X5888873Y-1456150D02*
X5907920Y-1465674D01*
X5907920Y-1465674D02*
X5917444Y-1475198D01*
X5917444Y-1475198D02*
X5926968Y-1494246D01*
X5926968Y-1494246D02*
X5926968Y-1551388D01*
X5926968Y-1551388D02*
X5917444Y-1570436D01*
X5917444Y-1570436D02*
X5907920Y-1579960D01*
X5907920Y-1579960D02*
X5888873Y-1589484D01*
X5888873Y-1589484D02*
X5850777Y-1589484D01*
X5850777Y-1589484D02*
X5831730Y-1579960D01*
X6041253Y-1589484D02*
X6022206Y-1579960D01*
X6022206Y-1579960D02*
X6012682Y-1560912D01*
X6012682Y-1560912D02*
X6012682Y-1389484D01*
X6203158Y-1589484D02*
X6203158Y-1484722D01*
X6203158Y-1484722D02*
X6193634Y-1465674D01*
X6193634Y-1465674D02*
X6174587Y-1456150D01*
X6174587Y-1456150D02*
X6136492Y-1456150D01*
X6136492Y-1456150D02*
X6117444Y-1465674D01*
X6203158Y-1579960D02*
X6184111Y-1589484D01*
X6184111Y-1589484D02*
X6136492Y-1589484D01*
X6136492Y-1589484D02*
X6117444Y-1579960D01*
X6117444Y-1579960D02*
X6107920Y-1560912D01*
X6107920Y-1560912D02*
X6107920Y-1541865D01*
X6107920Y-1541865D02*
X6117444Y-1522817D01*
X6117444Y-1522817D02*
X6136492Y-1513293D01*
X6136492Y-1513293D02*
X6184111Y-1513293D01*
X6184111Y-1513293D02*
X6203158Y-1503769D01*
X6269825Y-1456150D02*
X6346015Y-1456150D01*
X6298396Y-1389484D02*
X6298396Y-1560912D01*
X6298396Y-1560912D02*
X6307920Y-1579960D01*
X6307920Y-1579960D02*
X6326968Y-1589484D01*
X6326968Y-1589484D02*
X6346015Y-1589484D01*
X6488873Y-1579960D02*
X6469825Y-1589484D01*
X6469825Y-1589484D02*
X6431730Y-1589484D01*
X6431730Y-1589484D02*
X6412682Y-1579960D01*
X6412682Y-1579960D02*
X6403158Y-1560912D01*
X6403158Y-1560912D02*
X6403158Y-1484722D01*
X6403158Y-1484722D02*
X6412682Y-1465674D01*
X6412682Y-1465674D02*
X6431730Y-1456150D01*
X6431730Y-1456150D02*
X6469825Y-1456150D01*
X6469825Y-1456150D02*
X6488873Y-1465674D01*
X6488873Y-1465674D02*
X6498396Y-1484722D01*
X6498396Y-1484722D02*
X6498396Y-1503769D01*
X6498396Y-1503769D02*
X6403158Y-1522817D01*
X6669825Y-1589484D02*
X6669825Y-1389484D01*
X6669825Y-1579960D02*
X6650777Y-1589484D01*
X6650777Y-1589484D02*
X6612682Y-1589484D01*
X6612682Y-1589484D02*
X6593634Y-1579960D01*
X6593634Y-1579960D02*
X6584111Y-1570436D01*
X6584111Y-1570436D02*
X6574587Y-1551388D01*
X6574587Y-1551388D02*
X6574587Y-1494246D01*
X6574587Y-1494246D02*
X6584111Y-1475198D01*
X6584111Y-1475198D02*
X6593634Y-1465674D01*
X6593634Y-1465674D02*
X6612682Y-1456150D01*
X6612682Y-1456150D02*
X6650777Y-1456150D01*
X6650777Y-1456150D02*
X6669825Y-1465674D01*
X6746015Y-1665674D02*
X6755539Y-1656150D01*
X6755539Y-1656150D02*
X6774587Y-1627579D01*
X6774587Y-1627579D02*
X6784111Y-1608531D01*
X6784111Y-1608531D02*
X6793634Y-1579960D01*
X6793634Y-1579960D02*
X6803158Y-1532341D01*
X6803158Y-1532341D02*
X6803158Y-1494246D01*
X6803158Y-1494246D02*
X6793634Y-1446627D01*
X6793634Y-1446627D02*
X6784111Y-1418055D01*
X6784111Y-1418055D02*
X6774587Y-1399008D01*
X6774587Y-1399008D02*
X6755539Y-1370436D01*
X6755539Y-1370436D02*
X6746015Y-1360912D01*
M02*
