%TF.GenerationSoftware,KiCad,Pcbnew,9.0.9*%
%TF.CreationDate,2026-06-03T23:54:09+05:30*%
%TF.ProjectId,Open_STMPLC_IO_V0.1,4f70656e-5f53-4544-9d50-4c435f494f5f,0.1*%
%TF.SameCoordinates,PX2dc6c00PY8f0d180*%
%TF.FileFunction,Paste,Bot*%
%TF.FilePolarity,Positive*%
%FSLAX46Y46*%
G04 Gerber Fmt 4.6, Leading zero omitted, Abs format (unit mm)*
G04 Created by KiCad (PCBNEW 9.0.9) date 2026-06-03 23:54:09*
%MOMM*%
%LPD*%
G01*
G04 APERTURE LIST*
G04 Aperture macros list*
%AMRoundRect*
0 Rectangle with rounded corners*
0 $1 Rounding radius*
0 $2 $3 $4 $5 $6 $7 $8 $9 X,Y pos of 4 corners*
0 Add a 4 corners polygon primitive as box body*
4,1,4,$2,$3,$4,$5,$6,$7,$8,$9,$2,$3,0*
0 Add four circle primitives for the rounded corners*
1,1,$1+$1,$2,$3*
1,1,$1+$1,$4,$5*
1,1,$1+$1,$6,$7*
1,1,$1+$1,$8,$9*
0 Add four rect primitives between the rounded corners*
20,1,$1+$1,$2,$3,$4,$5,0*
20,1,$1+$1,$4,$5,$6,$7,0*
20,1,$1+$1,$6,$7,$8,$9,0*
20,1,$1+$1,$8,$9,$2,$3,0*%
G04 Aperture macros list end*
%ADD10RoundRect,0.225000X0.375000X-0.225000X0.375000X0.225000X-0.375000X0.225000X-0.375000X-0.225000X0*%
%ADD11RoundRect,0.237500X0.300000X0.237500X-0.300000X0.237500X-0.300000X-0.237500X0.300000X-0.237500X0*%
%ADD12RoundRect,0.237500X-0.250000X-0.237500X0.250000X-0.237500X0.250000X0.237500X-0.250000X0.237500X0*%
%ADD13RoundRect,0.249999X-1.425001X0.450001X-1.425001X-0.450001X1.425001X-0.450001X1.425001X0.450001X0*%
%ADD14RoundRect,0.237500X0.237500X-0.300000X0.237500X0.300000X-0.237500X0.300000X-0.237500X-0.300000X0*%
%ADD15RoundRect,0.250000X-1.000000X-0.650000X1.000000X-0.650000X1.000000X0.650000X-1.000000X0.650000X0*%
%ADD16RoundRect,0.250001X-0.639999X0.499999X-0.639999X-0.499999X0.639999X-0.499999X0.639999X0.499999X0*%
%ADD17RoundRect,0.250000X0.475000X-0.337500X0.475000X0.337500X-0.475000X0.337500X-0.475000X-0.337500X0*%
%ADD18RoundRect,0.237500X0.250000X0.237500X-0.250000X0.237500X-0.250000X-0.237500X0.250000X-0.237500X0*%
%ADD19RoundRect,0.237500X-0.237500X0.250000X-0.237500X-0.250000X0.237500X-0.250000X0.237500X0.250000X0*%
%ADD20RoundRect,0.250000X0.375000X0.625000X-0.375000X0.625000X-0.375000X-0.625000X0.375000X-0.625000X0*%
%ADD21RoundRect,0.250000X-0.675000X-0.675000X0.675000X-0.675000X0.675000X0.675000X-0.675000X0.675000X0*%
%ADD22RoundRect,0.062500X-0.362500X-0.062500X0.362500X-0.062500X0.362500X0.062500X-0.362500X0.062500X0*%
%ADD23RoundRect,0.062500X-0.062500X-0.362500X0.062500X-0.362500X0.062500X0.362500X-0.062500X0.362500X0*%
%ADD24RoundRect,0.200000X0.200000X-0.300000X0.200000X0.300000X-0.200000X0.300000X-0.200000X-0.300000X0*%
%ADD25RoundRect,0.250000X0.400000X0.600000X-0.400000X0.600000X-0.400000X-0.600000X0.400000X-0.600000X0*%
%ADD26RoundRect,0.250000X0.650000X-1.000000X0.650000X1.000000X-0.650000X1.000000X-0.650000X-1.000000X0*%
%ADD27RoundRect,0.237500X-0.300000X-0.237500X0.300000X-0.237500X0.300000X0.237500X-0.300000X0.237500X0*%
%ADD28RoundRect,0.250000X-0.375000X-1.075000X0.375000X-1.075000X0.375000X1.075000X-0.375000X1.075000X0*%
%ADD29RoundRect,0.237500X-0.237500X0.300000X-0.237500X-0.300000X0.237500X-0.300000X0.237500X0.300000X0*%
%ADD30RoundRect,0.250000X-0.362500X-0.700000X0.362500X-0.700000X0.362500X0.700000X-0.362500X0.700000X0*%
%ADD31RoundRect,0.237500X0.237500X-0.250000X0.237500X0.250000X-0.237500X0.250000X-0.237500X-0.250000X0*%
%ADD32RoundRect,0.150000X-0.150000X0.587500X-0.150000X-0.587500X0.150000X-0.587500X0.150000X0.587500X0*%
%ADD33R,2.000000X0.500000*%
%ADD34RoundRect,0.250000X1.000000X0.650000X-1.000000X0.650000X-1.000000X-0.650000X1.000000X-0.650000X0*%
%ADD35RoundRect,0.157500X-0.222500X0.157500X-0.222500X-0.157500X0.222500X-0.157500X0.222500X0.157500X0*%
%ADD36RoundRect,0.125000X-0.125000X0.600000X-0.125000X-0.600000X0.125000X-0.600000X0.125000X0.600000X0*%
%ADD37RoundRect,0.250000X-0.400000X-0.600000X0.400000X-0.600000X0.400000X0.600000X-0.400000X0.600000X0*%
%ADD38RoundRect,0.250000X0.550000X0.400000X-0.550000X0.400000X-0.550000X-0.400000X0.550000X-0.400000X0*%
%ADD39RoundRect,0.250000X1.125000X-1.275000X1.125000X1.275000X-1.125000X1.275000X-1.125000X-1.275000X0*%
%ADD40RoundRect,0.250000X0.350000X-0.850000X0.350000X0.850000X-0.350000X0.850000X-0.350000X-0.850000X0*%
%ADD41RoundRect,0.150000X-0.587500X-0.150000X0.587500X-0.150000X0.587500X0.150000X-0.587500X0.150000X0*%
%ADD42RoundRect,0.250000X-1.125000X1.275000X-1.125000X-1.275000X1.125000X-1.275000X1.125000X1.275000X0*%
%ADD43RoundRect,0.250000X-0.350000X0.850000X-0.350000X-0.850000X0.350000X-0.850000X0.350000X0.850000X0*%
%ADD44RoundRect,0.250000X-0.600000X0.400000X-0.600000X-0.400000X0.600000X-0.400000X0.600000X0.400000X0*%
%ADD45RoundRect,0.250000X1.950000X1.000000X-1.950000X1.000000X-1.950000X-1.000000X1.950000X-1.000000X0*%
G04 APERTURE END LIST*
D10*
%TO.C,D77*%
X103000000Y56855000D03*
X103000000Y60155000D03*
%TD*%
D11*
%TO.C,C68*%
X107862500Y17500000D03*
X106137500Y17500000D03*
%TD*%
D12*
%TO.C,R159*%
X20097500Y17582500D03*
X21922500Y17582500D03*
%TD*%
D13*
%TO.C,R154*%
X75000000Y78555000D03*
X75000000Y72455000D03*
%TD*%
D14*
%TO.C,C47*%
X37905000Y23720000D03*
X37905000Y25445000D03*
%TD*%
D15*
%TO.C,D67*%
X13000000Y69005000D03*
X17000000Y69005000D03*
%TD*%
%TO.C,D78*%
X128000000Y69005000D03*
X132000000Y69005000D03*
%TD*%
D16*
%TO.C,U26*%
X103190000Y53770000D03*
X105730000Y53770000D03*
X108270000Y53770000D03*
X110810000Y53770000D03*
X110810000Y44240000D03*
X108270000Y44240000D03*
X105730000Y44240000D03*
X103190000Y44240000D03*
%TD*%
%TO.C,U22*%
X22690000Y53770000D03*
X25230000Y53770000D03*
X27770000Y53770000D03*
X30310000Y53770000D03*
X30310000Y44240000D03*
X27770000Y44240000D03*
X25230000Y44240000D03*
X22690000Y44240000D03*
%TD*%
D17*
%TO.C,C46*%
X40405000Y23545000D03*
X40405000Y25620000D03*
%TD*%
D16*
%TO.C,U27*%
X126190000Y53770000D03*
X128730000Y53770000D03*
X131270000Y53770000D03*
X133810000Y53770000D03*
X133810000Y44240000D03*
X131270000Y44240000D03*
X128730000Y44240000D03*
X126190000Y44240000D03*
%TD*%
%TO.C,U29*%
X114690000Y53770000D03*
X117230000Y53770000D03*
X119770000Y53770000D03*
X122310000Y53770000D03*
X122310000Y44240000D03*
X119770000Y44240000D03*
X117230000Y44240000D03*
X114690000Y44240000D03*
%TD*%
D18*
%TO.C,R139*%
X96912500Y41505000D03*
X95087500Y41505000D03*
%TD*%
D13*
%TO.C,R129*%
X104500000Y78555000D03*
X104500000Y72455000D03*
%TD*%
D19*
%TO.C,R19*%
X132000000Y34412500D03*
X132000000Y32587500D03*
%TD*%
D18*
%TO.C,R144*%
X119912500Y41505000D03*
X118087500Y41505000D03*
%TD*%
D13*
%TO.C,R135*%
X93000000Y78555000D03*
X93000000Y72455000D03*
%TD*%
D11*
%TO.C,C37*%
X23862500Y41505000D03*
X22137500Y41505000D03*
%TD*%
D13*
%TO.C,R153*%
X52000000Y78550000D03*
X52000000Y72450000D03*
%TD*%
D20*
%TO.C,F5*%
X19805000Y10582500D03*
X17005000Y10582500D03*
%TD*%
D10*
%TO.C,D65*%
X22500000Y56855000D03*
X22500000Y60155000D03*
%TD*%
D18*
%TO.C,R121*%
X27912500Y41505000D03*
X26087500Y41505000D03*
%TD*%
D13*
%TO.C,R117*%
X24000000Y78555000D03*
X24000000Y72455000D03*
%TD*%
D18*
%TO.C,R193*%
X98472500Y20410000D03*
X96647500Y20410000D03*
%TD*%
D21*
%TO.C,U39*%
X112850000Y19150000D03*
X112850000Y16850000D03*
X115150000Y19150000D03*
X115150000Y16850000D03*
D22*
X111050000Y15750000D03*
X111050000Y16250000D03*
X111050000Y16750000D03*
X111050000Y17250000D03*
X111050000Y17750000D03*
X111050000Y18250000D03*
X111050000Y18750000D03*
X111050000Y19250000D03*
X111050000Y19750000D03*
X111050000Y20250000D03*
D23*
X111750000Y20950000D03*
X112250000Y20950000D03*
X112750000Y20950000D03*
X113250000Y20950000D03*
X113750000Y20950000D03*
X114250000Y20950000D03*
X114750000Y20950000D03*
X115250000Y20950000D03*
X115750000Y20950000D03*
X116250000Y20950000D03*
D22*
X116950000Y20250000D03*
X116950000Y19750000D03*
X116950000Y19250000D03*
X116950000Y18750000D03*
X116950000Y18250000D03*
X116950000Y17750000D03*
X116950000Y17250000D03*
X116950000Y16750000D03*
X116950000Y16250000D03*
X116950000Y15750000D03*
D23*
X116250000Y15050000D03*
X115750000Y15050000D03*
X115250000Y15050000D03*
X114750000Y15050000D03*
X114250000Y15050000D03*
X113750000Y15050000D03*
X113250000Y15050000D03*
X112750000Y15050000D03*
X112250000Y15050000D03*
X111750000Y15050000D03*
%TD*%
D24*
%TO.C,D87*%
X86270000Y59380000D03*
X83730000Y59380000D03*
X83730000Y65530000D03*
X86270000Y65530000D03*
%TD*%
D13*
%TO.C,R151*%
X109500000Y78555000D03*
X109500000Y72455000D03*
%TD*%
D15*
%TO.C,D8*%
X70500000Y69005000D03*
X74500000Y69005000D03*
%TD*%
D25*
%TO.C,D159*%
X16655000Y27582500D03*
X13155000Y27582500D03*
%TD*%
D26*
%TO.C,D7*%
X130000000Y22500000D03*
X130000000Y26500000D03*
%TD*%
D27*
%TO.C,C77*%
X79387500Y20667500D03*
X81112500Y20667500D03*
%TD*%
D15*
%TO.C,D84*%
X116500000Y69005000D03*
X120500000Y69005000D03*
%TD*%
D16*
%TO.C,U20*%
X34190000Y53770000D03*
X36730000Y53770000D03*
X39270000Y53770000D03*
X41810000Y53770000D03*
X41810000Y44240000D03*
X39270000Y44240000D03*
X36730000Y44240000D03*
X34190000Y44240000D03*
%TD*%
D28*
%TO.C,F2*%
X61660000Y11167500D03*
X64460000Y11167500D03*
%TD*%
D10*
%TO.C,D64*%
X57000000Y56850000D03*
X57000000Y60150000D03*
%TD*%
D29*
%TO.C,C51*%
X30405000Y25445000D03*
X30405000Y23720000D03*
%TD*%
D24*
%TO.C,D63*%
X28770000Y59430000D03*
X26230000Y59430000D03*
X26230000Y65580000D03*
X28770000Y65580000D03*
%TD*%
D10*
%TO.C,D82*%
X126000000Y56855000D03*
X126000000Y60155000D03*
%TD*%
D12*
%TO.C,R199*%
X49147500Y18667500D03*
X50972500Y18667500D03*
%TD*%
D10*
%TO.C,D71*%
X11000000Y56855000D03*
X11000000Y60155000D03*
%TD*%
D18*
%TO.C,R15*%
X137412500Y23500000D03*
X135587500Y23500000D03*
%TD*%
D15*
%TO.C,D121*%
X67310000Y11167500D03*
X71310000Y11167500D03*
%TD*%
D13*
%TO.C,R148*%
X144000000Y78555000D03*
X144000000Y72455000D03*
%TD*%
D10*
%TO.C,D89*%
X80000000Y56805000D03*
X80000000Y60105000D03*
%TD*%
D18*
%TO.C,R196*%
X67972500Y18667500D03*
X66147500Y18667500D03*
%TD*%
%TO.C,R124*%
X50412500Y56500000D03*
X48587500Y56500000D03*
%TD*%
D15*
%TO.C,D6*%
X133000000Y14000000D03*
X137000000Y14000000D03*
%TD*%
D13*
%TO.C,R150*%
X86500000Y78505000D03*
X86500000Y72405000D03*
%TD*%
D11*
%TO.C,C36*%
X58362500Y41500000D03*
X56637500Y41500000D03*
%TD*%
D30*
%TO.C,FB4*%
X28742500Y28082500D03*
X32067500Y28082500D03*
%TD*%
D10*
%TO.C,D70*%
X45500000Y56850000D03*
X45500000Y60150000D03*
%TD*%
D18*
%TO.C,R38*%
X148412500Y23500000D03*
X146587500Y23500000D03*
%TD*%
D31*
%TO.C,R10*%
X138000000Y28587500D03*
X138000000Y30412500D03*
%TD*%
D11*
%TO.C,C76*%
X50922500Y20667500D03*
X49197500Y20667500D03*
%TD*%
D28*
%TO.C,F3*%
X74850000Y11167500D03*
X77650000Y11167500D03*
%TD*%
D15*
%TO.C,D66*%
X47500000Y69000000D03*
X51500000Y69000000D03*
%TD*%
D24*
%TO.C,D11*%
X74770000Y59430000D03*
X72230000Y59430000D03*
X72230000Y65580000D03*
X74770000Y65580000D03*
%TD*%
D18*
%TO.C,R201*%
X54972500Y18667500D03*
X53147500Y18667500D03*
%TD*%
D11*
%TO.C,C41*%
X104362500Y41505000D03*
X102637500Y41505000D03*
%TD*%
D24*
%TO.C,D57*%
X40270000Y59430000D03*
X37730000Y59430000D03*
X37730000Y65580000D03*
X40270000Y65580000D03*
%TD*%
D11*
%TO.C,C38*%
X46862500Y41500000D03*
X45137500Y41500000D03*
%TD*%
D13*
%TO.C,R157*%
X40500000Y78555000D03*
X40500000Y72455000D03*
%TD*%
D16*
%TO.C,U24*%
X11190000Y53770000D03*
X13730000Y53770000D03*
X16270000Y53770000D03*
X18810000Y53770000D03*
X18810000Y44240000D03*
X16270000Y44240000D03*
X13730000Y44240000D03*
X11190000Y44240000D03*
%TD*%
D18*
%TO.C,R142*%
X119412500Y56505000D03*
X117587500Y56505000D03*
%TD*%
D11*
%TO.C,C43*%
X92862500Y41505000D03*
X91137500Y41505000D03*
%TD*%
D13*
%TO.C,R22*%
X70000000Y78555000D03*
X70000000Y72455000D03*
%TD*%
D32*
%TO.C,Q7*%
X25455000Y10520000D03*
X27355000Y10520000D03*
X26405000Y8645000D03*
%TD*%
D27*
%TO.C,C80*%
X57197500Y18667500D03*
X58922500Y18667500D03*
%TD*%
D11*
%TO.C,C71*%
X90422500Y20460000D03*
X88697500Y20460000D03*
%TD*%
D10*
%TO.C,D76*%
X137500000Y56855000D03*
X137500000Y60155000D03*
%TD*%
D11*
%TO.C,C64*%
X107862500Y19500000D03*
X106137500Y19500000D03*
%TD*%
D18*
%TO.C,R192*%
X94472500Y18460000D03*
X92647500Y18460000D03*
%TD*%
D13*
%TO.C,R123*%
X12500000Y78555000D03*
X12500000Y72455000D03*
%TD*%
D33*
%TO.C,J41*%
X2300000Y22400000D03*
X6700000Y22400000D03*
X2300000Y23200000D03*
X6700000Y23200000D03*
X2300000Y24000000D03*
X6700000Y24000000D03*
X2300000Y24800000D03*
X6700000Y24800000D03*
X2300000Y25600000D03*
X6700000Y25600000D03*
X2300000Y26400000D03*
X6700000Y26400000D03*
X2300000Y27200000D03*
X6700000Y27200000D03*
X2300000Y28000000D03*
X6700000Y28000000D03*
X2300000Y28800000D03*
X6700000Y28800000D03*
X2300000Y29600000D03*
X6700000Y29600000D03*
X2300000Y30400000D03*
X6700000Y30400000D03*
X2300000Y31200000D03*
X6700000Y31200000D03*
X2300000Y32000000D03*
X6700000Y32000000D03*
X2300000Y32800000D03*
X6700000Y32800000D03*
X2300000Y33600000D03*
X6700000Y33600000D03*
X2300000Y34400000D03*
X6700000Y34400000D03*
X2300000Y35200000D03*
X6700000Y35200000D03*
X2300000Y36000000D03*
X6700000Y36000000D03*
X2300000Y36800000D03*
X6700000Y36800000D03*
X2300000Y37600000D03*
X6700000Y37600000D03*
%TD*%
D15*
%TO.C,D14*%
X144000000Y10000000D03*
X148000000Y10000000D03*
%TD*%
D24*
%TO.C,D69*%
X17270000Y59430000D03*
X14730000Y59430000D03*
X14730000Y65580000D03*
X17270000Y65580000D03*
%TD*%
D15*
%TO.C,D2*%
X144000000Y18000000D03*
X148000000Y18000000D03*
%TD*%
D19*
%TO.C,R33*%
X147000000Y34412500D03*
X147000000Y32587500D03*
%TD*%
D18*
%TO.C,R27*%
X73412500Y56505000D03*
X71587500Y56505000D03*
%TD*%
D14*
%TO.C,C84*%
X110500000Y26137500D03*
X110500000Y27862500D03*
%TD*%
D24*
%TO.C,D74*%
X143770000Y59430000D03*
X141230000Y59430000D03*
X141230000Y65580000D03*
X143770000Y65580000D03*
%TD*%
D11*
%TO.C,C45*%
X81362500Y41455000D03*
X79637500Y41455000D03*
%TD*%
D29*
%TO.C,C48*%
X32405000Y25445000D03*
X32405000Y23720000D03*
%TD*%
D15*
%TO.C,D119*%
X88810000Y14960000D03*
X92810000Y14960000D03*
%TD*%
D19*
%TO.C,R35*%
X143000000Y34412500D03*
X143000000Y32587500D03*
%TD*%
D26*
%TO.C,D12*%
X141000000Y22500000D03*
X141000000Y26500000D03*
%TD*%
D18*
%TO.C,R197*%
X71972500Y20617500D03*
X70147500Y20617500D03*
%TD*%
D13*
%TO.C,R116*%
X58500000Y78550000D03*
X58500000Y72450000D03*
%TD*%
D34*
%TO.C,D160*%
X13405000Y10582500D03*
X9405000Y10582500D03*
%TD*%
D18*
%TO.C,R132*%
X142912500Y41505000D03*
X141087500Y41505000D03*
%TD*%
%TO.C,R114*%
X73912500Y41505000D03*
X72087500Y41505000D03*
%TD*%
%TO.C,R160*%
X21922500Y15072500D03*
X20097500Y15072500D03*
%TD*%
D13*
%TO.C,R146*%
X132500000Y78555000D03*
X132500000Y72455000D03*
%TD*%
D12*
%TO.C,R161*%
X14992500Y25082500D03*
X16817500Y25082500D03*
%TD*%
D13*
%TO.C,R25*%
X35500000Y78555000D03*
X35500000Y72455000D03*
%TD*%
D14*
%TO.C,C65*%
X119500000Y20137500D03*
X119500000Y21862500D03*
%TD*%
D16*
%TO.C,U23*%
X45690000Y53765000D03*
X48230000Y53765000D03*
X50770000Y53765000D03*
X53310000Y53765000D03*
X53310000Y44235000D03*
X50770000Y44235000D03*
X48230000Y44235000D03*
X45690000Y44235000D03*
%TD*%
D24*
%TO.C,D80*%
X132270000Y59430000D03*
X129730000Y59430000D03*
X129730000Y65580000D03*
X132270000Y65580000D03*
%TD*%
D35*
%TO.C,U1*%
X145970000Y28390000D03*
X145030000Y28390000D03*
X145970000Y27610000D03*
X145030000Y27610000D03*
D36*
X144525000Y30150000D03*
X145175000Y30150000D03*
X145825000Y30150000D03*
X146475000Y30150000D03*
X146475000Y25850000D03*
X145825000Y25850000D03*
X145175000Y25850000D03*
X144525000Y25850000D03*
%TD*%
D15*
%TO.C,D85*%
X82000000Y68955000D03*
X86000000Y68955000D03*
%TD*%
D18*
%TO.C,R125*%
X15912500Y56505000D03*
X14087500Y56505000D03*
%TD*%
D13*
%TO.C,R147*%
X121000000Y78555000D03*
X121000000Y72455000D03*
%TD*%
D11*
%TO.C,C35*%
X35362500Y41505000D03*
X33637500Y41505000D03*
%TD*%
D15*
%TO.C,D79*%
X93500000Y69005000D03*
X97500000Y69005000D03*
%TD*%
D37*
%TO.C,D90*%
X24655000Y13082500D03*
X28155000Y13082500D03*
%TD*%
D38*
%TO.C,Y2*%
X108150000Y26000000D03*
X104850000Y26000000D03*
X104850000Y28000000D03*
X108150000Y28000000D03*
%TD*%
D16*
%TO.C,U28*%
X91690000Y53770000D03*
X94230000Y53770000D03*
X96770000Y53770000D03*
X99310000Y53770000D03*
X99310000Y44240000D03*
X96770000Y44240000D03*
X94230000Y44240000D03*
X91690000Y44240000D03*
%TD*%
D24*
%TO.C,D86*%
X120770000Y59430000D03*
X118230000Y59430000D03*
X118230000Y65580000D03*
X120770000Y65580000D03*
%TD*%
D15*
%TO.C,D5*%
X133000000Y10000000D03*
X137000000Y10000000D03*
%TD*%
D19*
%TO.C,R205*%
X112300000Y25412500D03*
X112300000Y23587500D03*
%TD*%
D15*
%TO.C,D49*%
X133000000Y18000000D03*
X137000000Y18000000D03*
%TD*%
D18*
%TO.C,R143*%
X84912500Y56455000D03*
X83087500Y56455000D03*
%TD*%
D29*
%TO.C,C83*%
X102500000Y27862500D03*
X102500000Y26137500D03*
%TD*%
D12*
%TO.C,R194*%
X88647500Y18460000D03*
X90472500Y18460000D03*
%TD*%
D18*
%TO.C,R190*%
X107912500Y23500000D03*
X106087500Y23500000D03*
%TD*%
D15*
%TO.C,D60*%
X59000000Y69000000D03*
X63000000Y69000000D03*
%TD*%
D19*
%TO.C,R17*%
X136000000Y34412500D03*
X136000000Y32587500D03*
%TD*%
D11*
%TO.C,C16*%
X148362500Y21500000D03*
X146637500Y21500000D03*
%TD*%
D39*
%TO.C,Q6*%
X21807500Y25007500D03*
X24857500Y25007500D03*
X21807500Y28357500D03*
X24857500Y28357500D03*
D40*
X25612500Y20382500D03*
X23332500Y20382500D03*
X21052500Y20382500D03*
%TD*%
D13*
%TO.C,R156*%
X17500000Y78555000D03*
X17500000Y72455000D03*
%TD*%
D11*
%TO.C,C42*%
X127362500Y41505000D03*
X125637500Y41505000D03*
%TD*%
D27*
%TO.C,C69*%
X96697500Y18460000D03*
X98422500Y18460000D03*
%TD*%
D31*
%TO.C,R39*%
X144500000Y21587500D03*
X144500000Y23412500D03*
%TD*%
D18*
%TO.C,R126*%
X50912500Y41500000D03*
X49087500Y41500000D03*
%TD*%
D10*
%TO.C,D58*%
X68500000Y56855000D03*
X68500000Y60155000D03*
%TD*%
D31*
%TO.C,R18*%
X133500000Y21587500D03*
X133500000Y23412500D03*
%TD*%
D16*
%TO.C,U12*%
X68690000Y53770000D03*
X71230000Y53770000D03*
X73770000Y53770000D03*
X76310000Y53770000D03*
X76310000Y44240000D03*
X73770000Y44240000D03*
X71230000Y44240000D03*
X68690000Y44240000D03*
%TD*%
D41*
%TO.C,U40*%
X107562500Y8550000D03*
X107562500Y10450000D03*
X109437500Y9500000D03*
%TD*%
D18*
%TO.C,R115*%
X39412500Y41505000D03*
X37587500Y41505000D03*
%TD*%
D11*
%TO.C,C40*%
X138862500Y41505000D03*
X137137500Y41505000D03*
%TD*%
D27*
%TO.C,C73*%
X66197500Y20667500D03*
X67922500Y20667500D03*
%TD*%
D12*
%TO.C,R198*%
X75337500Y18667500D03*
X77162500Y18667500D03*
%TD*%
D11*
%TO.C,C44*%
X115862500Y41505000D03*
X114137500Y41505000D03*
%TD*%
D18*
%TO.C,R200*%
X81162500Y18667500D03*
X79337500Y18667500D03*
%TD*%
D27*
%TO.C,C67*%
X117137500Y23500000D03*
X118862500Y23500000D03*
%TD*%
D12*
%TO.C,R245*%
X10992500Y25082500D03*
X12817500Y25082500D03*
%TD*%
D24*
%TO.C,D68*%
X51770000Y59425000D03*
X49230000Y59425000D03*
X49230000Y65575000D03*
X51770000Y65575000D03*
%TD*%
D13*
%TO.C,R128*%
X139000000Y78555000D03*
X139000000Y72455000D03*
%TD*%
D27*
%TO.C,C70*%
X92697500Y20460000D03*
X94422500Y20460000D03*
%TD*%
D13*
%TO.C,R152*%
X63500000Y78550000D03*
X63500000Y72450000D03*
%TD*%
D11*
%TO.C,C39*%
X12362500Y41505000D03*
X10637500Y41505000D03*
%TD*%
D19*
%TO.C,R158*%
X28405000Y20995000D03*
X28405000Y19170000D03*
%TD*%
D18*
%TO.C,R203*%
X58972500Y20617500D03*
X57147500Y20617500D03*
%TD*%
D15*
%TO.C,D125*%
X54310000Y11167500D03*
X58310000Y11167500D03*
%TD*%
D14*
%TO.C,C81*%
X107000000Y12637500D03*
X107000000Y14362500D03*
%TD*%
D42*
%TO.C,Q5*%
X16405000Y17582500D03*
X13355000Y17582500D03*
X16405000Y14232500D03*
X13355000Y14232500D03*
D43*
X12600000Y22207500D03*
X14880000Y22207500D03*
X17160000Y22207500D03*
%TD*%
D10*
%TO.C,D59*%
X34000000Y56855000D03*
X34000000Y60155000D03*
%TD*%
D24*
%TO.C,D81*%
X97770000Y59430000D03*
X95230000Y59430000D03*
X95230000Y65580000D03*
X97770000Y65580000D03*
%TD*%
D11*
%TO.C,C66*%
X107862500Y21500000D03*
X106137500Y21500000D03*
%TD*%
D18*
%TO.C,R118*%
X61912500Y56500000D03*
X60087500Y56500000D03*
%TD*%
D31*
%TO.C,R37*%
X149000000Y28587500D03*
X149000000Y30412500D03*
%TD*%
%TO.C,R16*%
X138000000Y32587500D03*
X138000000Y34412500D03*
%TD*%
D13*
%TO.C,R134*%
X127500000Y78555000D03*
X127500000Y72455000D03*
%TD*%
D11*
%TO.C,C10*%
X137362500Y21500000D03*
X135637500Y21500000D03*
%TD*%
D33*
%TO.C,J42*%
X162300000Y12400000D03*
X166700000Y12400000D03*
X162300000Y13200000D03*
X166700000Y13200000D03*
X162300000Y14000000D03*
X166700000Y14000000D03*
X162300000Y14800000D03*
X166700000Y14800000D03*
X162300000Y15600000D03*
X166700000Y15600000D03*
X162300000Y16400000D03*
X166700000Y16400000D03*
X162300000Y17200000D03*
X166700000Y17200000D03*
X162300000Y18000000D03*
X166700000Y18000000D03*
X162300000Y18800000D03*
X166700000Y18800000D03*
X162300000Y19600000D03*
X166700000Y19600000D03*
X162300000Y20400000D03*
X166700000Y20400000D03*
X162300000Y21200000D03*
X166700000Y21200000D03*
X162300000Y22000000D03*
X166700000Y22000000D03*
X162300000Y22800000D03*
X166700000Y22800000D03*
X162300000Y23600000D03*
X166700000Y23600000D03*
X162300000Y24400000D03*
X166700000Y24400000D03*
X162300000Y25200000D03*
X166700000Y25200000D03*
X162300000Y26000000D03*
X166700000Y26000000D03*
X162300000Y26800000D03*
X166700000Y26800000D03*
X162300000Y27600000D03*
X166700000Y27600000D03*
%TD*%
D19*
%TO.C,R36*%
X145000000Y34412500D03*
X145000000Y32587500D03*
%TD*%
D15*
%TO.C,D122*%
X75500000Y15167500D03*
X79500000Y15167500D03*
%TD*%
D16*
%TO.C,U25*%
X137690000Y53770000D03*
X140230000Y53770000D03*
X142770000Y53770000D03*
X145310000Y53770000D03*
X145310000Y44240000D03*
X142770000Y44240000D03*
X140230000Y44240000D03*
X137690000Y44240000D03*
%TD*%
D14*
%TO.C,C82*%
X109000000Y12637500D03*
X109000000Y14362500D03*
%TD*%
D24*
%TO.C,D62*%
X63270000Y59425000D03*
X60730000Y59425000D03*
X60730000Y65575000D03*
X63270000Y65575000D03*
%TD*%
D15*
%TO.C,D9*%
X36000000Y69005000D03*
X40000000Y69005000D03*
%TD*%
D18*
%TO.C,R127*%
X16412500Y41505000D03*
X14587500Y41505000D03*
%TD*%
D44*
%TO.C,D91*%
X22405000Y10832500D03*
X22405000Y7332500D03*
%TD*%
D15*
%TO.C,D73*%
X105000000Y69005000D03*
X109000000Y69005000D03*
%TD*%
D18*
%TO.C,R136*%
X130912500Y56505000D03*
X129087500Y56505000D03*
%TD*%
%TO.C,R113*%
X38912500Y56505000D03*
X37087500Y56505000D03*
%TD*%
D13*
%TO.C,R141*%
X81500000Y78505000D03*
X81500000Y72405000D03*
%TD*%
D10*
%TO.C,D83*%
X91500000Y56855000D03*
X91500000Y60155000D03*
%TD*%
D13*
%TO.C,R149*%
X98000000Y78555000D03*
X98000000Y72455000D03*
%TD*%
D35*
%TO.C,U3*%
X134970000Y28390000D03*
X134030000Y28390000D03*
X134970000Y27610000D03*
X134030000Y27610000D03*
D36*
X133525000Y30150000D03*
X134175000Y30150000D03*
X134825000Y30150000D03*
X135475000Y30150000D03*
X135475000Y25850000D03*
X134825000Y25850000D03*
X134175000Y25850000D03*
X133525000Y25850000D03*
%TD*%
D29*
%TO.C,C90*%
X28395000Y25445000D03*
X28395000Y23720000D03*
%TD*%
D18*
%TO.C,R119*%
X27412500Y56505000D03*
X25587500Y56505000D03*
%TD*%
D27*
%TO.C,C74*%
X70197500Y18667500D03*
X71922500Y18667500D03*
%TD*%
D18*
%TO.C,R145*%
X85412500Y41455000D03*
X83587500Y41455000D03*
%TD*%
%TO.C,R138*%
X131412500Y41505000D03*
X129587500Y41505000D03*
%TD*%
D19*
%TO.C,R20*%
X134000000Y34412500D03*
X134000000Y32587500D03*
%TD*%
D18*
%TO.C,R137*%
X96412500Y56505000D03*
X94587500Y56505000D03*
%TD*%
D15*
%TO.C,D123*%
X49310000Y15167500D03*
X53310000Y15167500D03*
%TD*%
D18*
%TO.C,R131*%
X107912500Y56505000D03*
X106087500Y56505000D03*
%TD*%
D11*
%TO.C,C72*%
X63922500Y20667500D03*
X62197500Y20667500D03*
%TD*%
D27*
%TO.C,C50*%
X24042500Y17582500D03*
X25767500Y17582500D03*
%TD*%
D15*
%TO.C,D13*%
X144000000Y14000000D03*
X148000000Y14000000D03*
%TD*%
D11*
%TO.C,C75*%
X77112500Y20667500D03*
X75387500Y20667500D03*
%TD*%
D18*
%TO.C,R130*%
X142412500Y56505000D03*
X140587500Y56505000D03*
%TD*%
%TO.C,R120*%
X62412500Y41500000D03*
X60587500Y41500000D03*
%TD*%
D28*
%TO.C,F1*%
X88160000Y10960000D03*
X90960000Y10960000D03*
%TD*%
D45*
%TO.C,C89*%
X40605000Y16082500D03*
X32205000Y16082500D03*
%TD*%
D15*
%TO.C,D118*%
X93810000Y10960000D03*
X97810000Y10960000D03*
%TD*%
D24*
%TO.C,D75*%
X109270000Y59430000D03*
X106730000Y59430000D03*
X106730000Y65580000D03*
X109270000Y65580000D03*
%TD*%
D33*
%TO.C,J39*%
X2300000Y52400000D03*
X6700000Y52400000D03*
X2300000Y53200000D03*
X6700000Y53200000D03*
X2300000Y54000000D03*
X6700000Y54000000D03*
X2300000Y54800000D03*
X6700000Y54800000D03*
X2300000Y55600000D03*
X6700000Y55600000D03*
X2300000Y56400000D03*
X6700000Y56400000D03*
X2300000Y57200000D03*
X6700000Y57200000D03*
X2300000Y58000000D03*
X6700000Y58000000D03*
X2300000Y58800000D03*
X6700000Y58800000D03*
X2300000Y59600000D03*
X6700000Y59600000D03*
X2300000Y60400000D03*
X6700000Y60400000D03*
X2300000Y61200000D03*
X6700000Y61200000D03*
X2300000Y62000000D03*
X6700000Y62000000D03*
X2300000Y62800000D03*
X6700000Y62800000D03*
X2300000Y63600000D03*
X6700000Y63600000D03*
X2300000Y64400000D03*
X6700000Y64400000D03*
X2300000Y65200000D03*
X6700000Y65200000D03*
X2300000Y66000000D03*
X6700000Y66000000D03*
X2300000Y66800000D03*
X6700000Y66800000D03*
X2300000Y67600000D03*
X6700000Y67600000D03*
%TD*%
D16*
%TO.C,U30*%
X80190000Y53720000D03*
X82730000Y53720000D03*
X85270000Y53720000D03*
X87810000Y53720000D03*
X87810000Y44190000D03*
X85270000Y44190000D03*
X82730000Y44190000D03*
X80190000Y44190000D03*
%TD*%
D15*
%TO.C,D61*%
X24500000Y69005000D03*
X28500000Y69005000D03*
%TD*%
D28*
%TO.C,F4*%
X48660000Y11167500D03*
X51460000Y11167500D03*
%TD*%
D18*
%TO.C,R162*%
X25817500Y15582500D03*
X23992500Y15582500D03*
%TD*%
D13*
%TO.C,R140*%
X116000000Y78555000D03*
X116000000Y72455000D03*
%TD*%
D27*
%TO.C,C79*%
X83387500Y18667500D03*
X85112500Y18667500D03*
%TD*%
D11*
%TO.C,C3*%
X69862500Y41505000D03*
X68137500Y41505000D03*
%TD*%
D18*
%TO.C,R202*%
X85162500Y20617500D03*
X83337500Y20617500D03*
%TD*%
D15*
%TO.C,D72*%
X139500000Y69005000D03*
X143500000Y69005000D03*
%TD*%
%TO.C,D124*%
X80500000Y11167500D03*
X84500000Y11167500D03*
%TD*%
D10*
%TO.C,D88*%
X114500000Y56855000D03*
X114500000Y60155000D03*
%TD*%
D19*
%TO.C,R191*%
X112500000Y11912500D03*
X112500000Y10087500D03*
%TD*%
D16*
%TO.C,U21*%
X57190000Y53765000D03*
X59730000Y53765000D03*
X62270000Y53765000D03*
X64810000Y53765000D03*
X64810000Y44235000D03*
X62270000Y44235000D03*
X59730000Y44235000D03*
X57190000Y44235000D03*
%TD*%
D13*
%TO.C,R122*%
X47000000Y78550000D03*
X47000000Y72450000D03*
%TD*%
D12*
%TO.C,R195*%
X62147500Y18667500D03*
X63972500Y18667500D03*
%TD*%
D15*
%TO.C,D120*%
X62310000Y15167500D03*
X66310000Y15167500D03*
%TD*%
D18*
%TO.C,R133*%
X108412500Y41505000D03*
X106587500Y41505000D03*
%TD*%
D27*
%TO.C,C78*%
X53197500Y20667500D03*
X54922500Y20667500D03*
%TD*%
D13*
%TO.C,R155*%
X29000000Y78555000D03*
X29000000Y72455000D03*
%TD*%
D31*
%TO.C,R34*%
X149000000Y32587500D03*
X149000000Y34412500D03*
%TD*%
D18*
%TO.C,R204*%
X118912500Y25500000D03*
X117087500Y25500000D03*
%TD*%
M02*
