%TF.GenerationSoftware,KiCad,Pcbnew,9.0.9*%
%TF.CreationDate,2026-06-03T23:54:09+05:30*%
%TF.ProjectId,Open_STMPLC_IO_V0.1,4f70656e-5f53-4544-9d50-4c435f494f5f,0.1*%
%TF.SameCoordinates,PX2dc6c00PY8f0d180*%
%TF.FileFunction,Soldermask,Top*%
%TF.FilePolarity,Negative*%
%FSLAX46Y46*%
G04 Gerber Fmt 4.6, Leading zero omitted, Abs format (unit mm)*
G04 Created by KiCad (PCBNEW 9.0.9) date 2026-06-03 23:54:09*
%MOMM*%
%LPD*%
G01*
G04 APERTURE LIST*
G04 Aperture macros list*
%AMRoundRect*
0 Rectangle with rounded corners*
0 $1 Rounding radius*
0 $2 $3 $4 $5 $6 $7 $8 $9 X,Y pos of 4 corners*
0 Add a 4 corners polygon primitive as box body*
4,1,4,$2,$3,$4,$5,$6,$7,$8,$9,$2,$3,0*
0 Add four circle primitives for the rounded corners*
1,1,$1+$1,$2,$3*
1,1,$1+$1,$4,$5*
1,1,$1+$1,$6,$7*
1,1,$1+$1,$8,$9*
0 Add four rect primitives between the rounded corners*
20,1,$1+$1,$2,$3,$4,$5,0*
20,1,$1+$1,$4,$5,$6,$7,0*
20,1,$1+$1,$6,$7,$8,$9,0*
20,1,$1+$1,$8,$9,$2,$3,0*%
G04 Aperture macros list end*
%ADD10RoundRect,0.237500X-0.237500X0.250000X-0.237500X-0.250000X0.237500X-0.250000X0.237500X0.250000X0*%
%ADD11RoundRect,0.237500X0.237500X-0.250000X0.237500X0.250000X-0.237500X0.250000X-0.237500X-0.250000X0*%
%ADD12RoundRect,0.250000X0.350000X-0.275000X0.350000X0.275000X-0.350000X0.275000X-0.350000X-0.275000X0*%
%ADD13RoundRect,0.237500X0.300000X0.237500X-0.300000X0.237500X-0.300000X-0.237500X0.300000X-0.237500X0*%
%ADD14RoundRect,0.237500X-0.300000X-0.237500X0.300000X-0.237500X0.300000X0.237500X-0.300000X0.237500X0*%
%ADD15RoundRect,0.087500X0.425000X0.087500X-0.425000X0.087500X-0.425000X-0.087500X0.425000X-0.087500X0*%
%ADD16RoundRect,0.087500X0.087500X0.425000X-0.087500X0.425000X-0.087500X-0.425000X0.087500X-0.425000X0*%
%ADD17R,3.150000X3.150000*%
%ADD18RoundRect,0.250000X-0.650000X1.000000X-0.650000X-1.000000X0.650000X-1.000000X0.650000X1.000000X0*%
%ADD19RoundRect,0.250000X1.000000X0.650000X-1.000000X0.650000X-1.000000X-0.650000X1.000000X-0.650000X0*%
%ADD20RoundRect,0.237500X0.250000X0.237500X-0.250000X0.237500X-0.250000X-0.237500X0.250000X-0.237500X0*%
%ADD21RoundRect,0.250000X0.650000X-1.000000X0.650000X1.000000X-0.650000X1.000000X-0.650000X-1.000000X0*%
%ADD22RoundRect,0.237500X-0.237500X0.300000X-0.237500X-0.300000X0.237500X-0.300000X0.237500X0.300000X0*%
%ADD23RoundRect,0.250000X-0.450000X0.400000X-0.450000X-0.400000X0.450000X-0.400000X0.450000X0.400000X0*%
%ADD24RoundRect,0.250000X-1.000000X-0.650000X1.000000X-0.650000X1.000000X0.650000X-1.000000X0.650000X0*%
%ADD25RoundRect,0.237500X-0.250000X-0.237500X0.250000X-0.237500X0.250000X0.237500X-0.250000X0.237500X0*%
%ADD26RoundRect,0.237500X0.237500X-0.287500X0.237500X0.287500X-0.237500X0.287500X-0.237500X-0.287500X0*%
%ADD27RoundRect,0.250000X0.750000X0.750000X-0.750000X0.750000X-0.750000X-0.750000X0.750000X-0.750000X0*%
%ADD28C,2.000000*%
%ADD29RoundRect,0.237500X-0.237500X0.287500X-0.237500X-0.287500X0.237500X-0.287500X0.237500X0.287500X0*%
%ADD30RoundRect,0.250000X-0.275000X-0.350000X0.275000X-0.350000X0.275000X0.350000X-0.275000X0.350000X0*%
%ADD31RoundRect,0.250000X0.337500X0.475000X-0.337500X0.475000X-0.337500X-0.475000X0.337500X-0.475000X0*%
%ADD32RoundRect,0.125000X-0.125000X0.600000X-0.125000X-0.600000X0.125000X-0.600000X0.125000X0.600000X0*%
%ADD33R,1.890000X1.570000*%
%ADD34C,3.200000*%
%ADD35RoundRect,0.250000X-0.750000X-0.750000X0.750000X-0.750000X0.750000X0.750000X-0.750000X0.750000X0*%
%ADD36RoundRect,0.237500X0.237500X-0.300000X0.237500X0.300000X-0.237500X0.300000X-0.237500X-0.300000X0*%
%ADD37RoundRect,0.150000X0.150000X-0.587500X0.150000X0.587500X-0.150000X0.587500X-0.150000X-0.587500X0*%
%ADD38RoundRect,0.237500X0.287500X0.237500X-0.287500X0.237500X-0.287500X-0.237500X0.287500X-0.237500X0*%
%ADD39C,3.000000*%
%ADD40RoundRect,0.225000X-0.375000X0.225000X-0.375000X-0.225000X0.375000X-0.225000X0.375000X0.225000X0*%
%ADD41RoundRect,0.100000X-0.100000X0.637500X-0.100000X-0.637500X0.100000X-0.637500X0.100000X0.637500X0*%
%ADD42RoundRect,0.075000X0.337500X0.075000X-0.337500X0.075000X-0.337500X-0.075000X0.337500X-0.075000X0*%
%ADD43RoundRect,0.075000X0.075000X0.337500X-0.075000X0.337500X-0.075000X-0.337500X0.075000X-0.337500X0*%
%ADD44R,3.250000X3.250000*%
%ADD45R,0.660000X0.420000*%
%ADD46R,0.570000X0.545000*%
%ADD47R,0.470000X0.420000*%
%ADD48R,1.830000X2.370000*%
%ADD49C,3.150000*%
%ADD50R,2.000000X2.000000*%
%ADD51R,2.660000X2.460000*%
%ADD52RoundRect,0.100000X0.687500X0.100000X-0.687500X0.100000X-0.687500X-0.100000X0.687500X-0.100000X0*%
%ADD53C,0.830000*%
%ADD54C,1.230000*%
G04 APERTURE END LIST*
D10*
%TO.C,R92*%
X42500000Y36912500D03*
X42500000Y35087500D03*
%TD*%
D11*
%TO.C,R242*%
X138900000Y74787500D03*
X138900000Y76612500D03*
%TD*%
D12*
%TO.C,FB1*%
X105000000Y61850000D03*
X105000000Y64150000D03*
%TD*%
D11*
%TO.C,R51*%
X126000000Y37087500D03*
X126000000Y38912500D03*
%TD*%
D13*
%TO.C,C14*%
X121862500Y66000000D03*
X120137500Y66000000D03*
%TD*%
D14*
%TO.C,C6*%
X104137500Y66000000D03*
X105862500Y66000000D03*
%TD*%
D15*
%TO.C,U37*%
X42307500Y58337500D03*
X42307500Y58987500D03*
X42307500Y59637500D03*
X42307500Y60287500D03*
X42307500Y60937500D03*
D16*
X41245000Y62000000D03*
X40595000Y62000000D03*
X39945000Y62000000D03*
X39295000Y62000000D03*
X38645000Y62000000D03*
D15*
X37582500Y60937500D03*
X37582500Y60287500D03*
X37582500Y59637500D03*
X37582500Y58987500D03*
X37582500Y58337500D03*
D16*
X38645000Y57275000D03*
X39295000Y57275000D03*
X39945000Y57275000D03*
X40595000Y57275000D03*
X41245000Y57275000D03*
D17*
X39945000Y59637500D03*
%TD*%
D18*
%TO.C,D110*%
X43500000Y73500000D03*
X43500000Y69500000D03*
%TD*%
D19*
%TO.C,D19*%
X131000000Y26500000D03*
X127000000Y26500000D03*
%TD*%
%TO.C,D15*%
X142000000Y26500000D03*
X138000000Y26500000D03*
%TD*%
D20*
%TO.C,R240*%
X158812500Y8000000D03*
X156987500Y8000000D03*
%TD*%
D21*
%TO.C,D20*%
X134000000Y31000000D03*
X134000000Y35000000D03*
%TD*%
D10*
%TO.C,R219*%
X146900000Y15512500D03*
X146900000Y13687500D03*
%TD*%
D22*
%TO.C,C59*%
X15095000Y57862500D03*
X15095000Y56137500D03*
%TD*%
D19*
%TO.C,D55*%
X87000000Y22500000D03*
X83000000Y22500000D03*
%TD*%
D23*
%TO.C,D93*%
X124000000Y72750000D03*
X124000000Y69850000D03*
%TD*%
D18*
%TO.C,D117*%
X23000000Y73500000D03*
X23000000Y69500000D03*
%TD*%
D24*
%TO.C,D42*%
X35000000Y16000000D03*
X39000000Y16000000D03*
%TD*%
D14*
%TO.C,C11*%
X112137500Y66000000D03*
X113862500Y66000000D03*
%TD*%
D25*
%TO.C,R96*%
X29087500Y37000000D03*
X30912500Y37000000D03*
%TD*%
D20*
%TO.C,R14*%
X67835000Y16500000D03*
X66010000Y16500000D03*
%TD*%
D24*
%TO.C,D112*%
X40000000Y77500000D03*
X44000000Y77500000D03*
%TD*%
D11*
%TO.C,R41*%
X137000000Y41087500D03*
X137000000Y42912500D03*
%TD*%
D26*
%TO.C,D135*%
X136900000Y13725000D03*
X136900000Y15475000D03*
%TD*%
D10*
%TO.C,R216*%
X88900000Y15512500D03*
X88900000Y13687500D03*
%TD*%
D27*
%TO.C,J34*%
X26405000Y85417500D03*
D28*
X22595000Y85417500D03*
%TD*%
D29*
%TO.C,D148*%
X82900000Y76575000D03*
X82900000Y74825000D03*
%TD*%
D25*
%TO.C,R52*%
X126587500Y32000000D03*
X128412500Y32000000D03*
%TD*%
D20*
%TO.C,R239*%
X158812500Y13100000D03*
X156987500Y13100000D03*
%TD*%
D25*
%TO.C,R176*%
X44682500Y59000000D03*
X46507500Y59000000D03*
%TD*%
D29*
%TO.C,D152*%
X66900000Y76575000D03*
X66900000Y74825000D03*
%TD*%
D11*
%TO.C,R236*%
X72900000Y74787500D03*
X72900000Y76612500D03*
%TD*%
D20*
%TO.C,R32*%
X127912500Y65000000D03*
X126087500Y65000000D03*
%TD*%
D23*
%TO.C,D97*%
X141000000Y72750000D03*
X141000000Y69850000D03*
%TD*%
D26*
%TO.C,D127*%
X105900000Y13725000D03*
X105900000Y15475000D03*
%TD*%
D25*
%TO.C,R97*%
X29087500Y39000000D03*
X30912500Y39000000D03*
%TD*%
D24*
%TO.C,D38*%
X53000000Y12000000D03*
X57000000Y12000000D03*
%TD*%
D29*
%TO.C,D105*%
X136900000Y76575000D03*
X136900000Y74825000D03*
%TD*%
D19*
%TO.C,D27*%
X109000000Y26500000D03*
X105000000Y26500000D03*
%TD*%
%TO.C,D52*%
X98000000Y18500000D03*
X94000000Y18500000D03*
%TD*%
D25*
%TO.C,R185*%
X17682500Y66500000D03*
X19507500Y66500000D03*
%TD*%
D14*
%TO.C,C12*%
X123137500Y56000000D03*
X124862500Y56000000D03*
%TD*%
D30*
%TO.C,FB3*%
X139850000Y54000000D03*
X142150000Y54000000D03*
%TD*%
D10*
%TO.C,R47*%
X128000000Y42912500D03*
X128000000Y41087500D03*
%TD*%
%TO.C,R77*%
X88000000Y42912500D03*
X88000000Y41087500D03*
%TD*%
D25*
%TO.C,R95*%
X29087500Y33000000D03*
X30912500Y33000000D03*
%TD*%
D14*
%TO.C,C56*%
X32732500Y63500000D03*
X34457500Y63500000D03*
%TD*%
D26*
%TO.C,D131*%
X86900000Y13725000D03*
X86900000Y15475000D03*
%TD*%
D11*
%TO.C,R212*%
X135000000Y66087500D03*
X135000000Y67912500D03*
%TD*%
D27*
%TO.C,J33*%
X35405000Y85417500D03*
D28*
X31595000Y85417500D03*
%TD*%
D25*
%TO.C,R180*%
X24182500Y61500000D03*
X26007500Y61500000D03*
%TD*%
D11*
%TO.C,R206*%
X96900000Y13687500D03*
X96900000Y15512500D03*
%TD*%
D26*
%TO.C,D138*%
X124900000Y13725000D03*
X124900000Y15475000D03*
%TD*%
D31*
%TO.C,C25*%
X54037500Y30500000D03*
X51962500Y30500000D03*
%TD*%
D32*
%TO.C,U5*%
X119475000Y38650000D03*
X118825000Y38650000D03*
X118175000Y38650000D03*
X117525000Y38650000D03*
X117525000Y34350000D03*
X118175000Y34350000D03*
X118825000Y34350000D03*
X119475000Y34350000D03*
D33*
X118500000Y36500000D03*
%TD*%
D29*
%TO.C,D144*%
X101900000Y76575000D03*
X101900000Y74825000D03*
%TD*%
D20*
%TO.C,R99*%
X31412500Y16500000D03*
X29587500Y16500000D03*
%TD*%
D27*
%TO.C,J40*%
X144715000Y85417500D03*
D28*
X140905000Y85417500D03*
X137095000Y85417500D03*
X133285000Y85417500D03*
%TD*%
D20*
%TO.C,R186*%
X23507500Y66500000D03*
X21682500Y66500000D03*
%TD*%
D29*
%TO.C,D103*%
X144900000Y76575000D03*
X144900000Y74825000D03*
%TD*%
D11*
%TO.C,R69*%
X93000000Y41087500D03*
X93000000Y42912500D03*
%TD*%
D29*
%TO.C,D151*%
X70900000Y76575000D03*
X70900000Y74825000D03*
%TD*%
D32*
%TO.C,U2*%
X141475000Y38650000D03*
X140825000Y38650000D03*
X140175000Y38650000D03*
X139525000Y38650000D03*
X139525000Y34350000D03*
X140175000Y34350000D03*
X140825000Y34350000D03*
X141475000Y34350000D03*
D33*
X140500000Y36500000D03*
%TD*%
D24*
%TO.C,D10*%
X107000000Y79300000D03*
X111000000Y79300000D03*
%TD*%
D11*
%TO.C,R2*%
X70422500Y24087500D03*
X70422500Y25912500D03*
%TD*%
D19*
%TO.C,D36*%
X57000000Y20000000D03*
X53000000Y20000000D03*
%TD*%
D10*
%TO.C,R26*%
X126000000Y60912500D03*
X126000000Y59087500D03*
%TD*%
D25*
%TO.C,R82*%
X58587500Y39000000D03*
X60412500Y39000000D03*
%TD*%
D11*
%TO.C,R89*%
X47000000Y24087500D03*
X47000000Y25912500D03*
%TD*%
D34*
%TO.C,H1*%
X3500000Y76000000D03*
%TD*%
D35*
%TO.C,J43*%
X16595000Y4582500D03*
D28*
X20405000Y4582500D03*
%TD*%
D11*
%TO.C,R53*%
X130500000Y30087500D03*
X130500000Y31912500D03*
%TD*%
D25*
%TO.C,R45*%
X137587500Y32000000D03*
X139412500Y32000000D03*
%TD*%
%TO.C,R108*%
X11087500Y39000000D03*
X12912500Y39000000D03*
%TD*%
D10*
%TO.C,R175*%
X48595000Y59412500D03*
X48595000Y57587500D03*
%TD*%
D11*
%TO.C,R65*%
X104000000Y37087500D03*
X104000000Y38912500D03*
%TD*%
%TO.C,R46*%
X141500000Y30087500D03*
X141500000Y31912500D03*
%TD*%
D36*
%TO.C,C4*%
X105000000Y54137500D03*
X105000000Y55862500D03*
%TD*%
D10*
%TO.C,R217*%
X84900000Y15512500D03*
X84900000Y13687500D03*
%TD*%
%TO.C,R166*%
X40595000Y54912500D03*
X40595000Y53087500D03*
%TD*%
D21*
%TO.C,D54*%
X90000000Y31000000D03*
X90000000Y35000000D03*
%TD*%
D11*
%TO.C,R233*%
X87900000Y74787500D03*
X87900000Y76612500D03*
%TD*%
%TO.C,R227*%
X114900000Y74787500D03*
X114900000Y76612500D03*
%TD*%
D10*
%TO.C,R211*%
X141000000Y67912500D03*
X141000000Y66087500D03*
%TD*%
D20*
%TO.C,R88*%
X49412500Y16500000D03*
X47587500Y16500000D03*
%TD*%
D10*
%TO.C,R213*%
X143000000Y60912500D03*
X143000000Y59087500D03*
%TD*%
D22*
%TO.C,C58*%
X13095000Y57862500D03*
X13095000Y56137500D03*
%TD*%
D32*
%TO.C,U4*%
X130475000Y38650000D03*
X129825000Y38650000D03*
X129175000Y38650000D03*
X128525000Y38650000D03*
X128525000Y34350000D03*
X129175000Y34350000D03*
X129825000Y34350000D03*
X130475000Y34350000D03*
D33*
X129500000Y36500000D03*
%TD*%
D25*
%TO.C,R104*%
X22587500Y39000000D03*
X24412500Y39000000D03*
%TD*%
D34*
%TO.C,H2*%
X3500000Y14000000D03*
%TD*%
D32*
%TO.C,U6*%
X108475000Y38650000D03*
X107825000Y38650000D03*
X107175000Y38650000D03*
X106525000Y38650000D03*
X106525000Y34350000D03*
X107175000Y34350000D03*
X107825000Y34350000D03*
X108475000Y34350000D03*
D33*
X107500000Y36500000D03*
%TD*%
D23*
%TO.C,D96*%
X144500000Y72750000D03*
X144500000Y69850000D03*
%TD*%
D25*
%TO.C,R66*%
X104587500Y32000000D03*
X106412500Y32000000D03*
%TD*%
D29*
%TO.C,D143*%
X105900000Y76575000D03*
X105900000Y74825000D03*
%TD*%
D20*
%TO.C,R209*%
X144912500Y65000000D03*
X143087500Y65000000D03*
%TD*%
D11*
%TO.C,R79*%
X82000000Y37087500D03*
X82000000Y38912500D03*
%TD*%
D27*
%TO.C,J3*%
X68620000Y85417500D03*
D28*
X64810000Y85417500D03*
X61000000Y85417500D03*
X57190000Y85417500D03*
%TD*%
D29*
%TO.C,D145*%
X97900000Y76575000D03*
X97900000Y74825000D03*
%TD*%
D23*
%TO.C,D95*%
X116000000Y72750000D03*
X116000000Y69850000D03*
%TD*%
D19*
%TO.C,D22*%
X131000000Y18500000D03*
X127000000Y18500000D03*
%TD*%
D37*
%TO.C,Q4*%
X11550000Y19062500D03*
X13450000Y19062500D03*
X12500000Y20937500D03*
%TD*%
D26*
%TO.C,D130*%
X90900000Y13725000D03*
X90900000Y15475000D03*
%TD*%
D11*
%TO.C,R100*%
X29000000Y24087500D03*
X29000000Y25912500D03*
%TD*%
D13*
%TO.C,C34*%
X17862500Y28500000D03*
X16137500Y28500000D03*
%TD*%
D10*
%TO.C,R49*%
X132000000Y42912500D03*
X132000000Y41087500D03*
%TD*%
%TO.C,R50*%
X130000000Y42912500D03*
X130000000Y41087500D03*
%TD*%
D11*
%TO.C,R87*%
X45500000Y16587500D03*
X45500000Y18412500D03*
%TD*%
D19*
%TO.C,D29*%
X109000000Y22500000D03*
X105000000Y22500000D03*
%TD*%
D13*
%TO.C,C13*%
X120862500Y56000000D03*
X119137500Y56000000D03*
%TD*%
D35*
%TO.C,J1*%
X102855000Y4582500D03*
D28*
X106665000Y4582500D03*
X110475000Y4582500D03*
X114285000Y4582500D03*
X118095000Y4582500D03*
X121905000Y4582500D03*
X125715000Y4582500D03*
X129525000Y4582500D03*
X133335000Y4582500D03*
X137145000Y4582500D03*
%TD*%
D25*
%TO.C,R171*%
X32682500Y65500000D03*
X34507500Y65500000D03*
%TD*%
D24*
%TO.C,D3*%
X71422500Y12000000D03*
X75422500Y12000000D03*
%TD*%
D38*
%TO.C,D101*%
X158775000Y15200000D03*
X157025000Y15200000D03*
%TD*%
D11*
%TO.C,R60*%
X119500000Y30087500D03*
X119500000Y31912500D03*
%TD*%
D39*
%TO.C,FID4*%
X3000000Y2000000D03*
%TD*%
D40*
%TO.C,D35*%
X49500000Y26650000D03*
X49500000Y23350000D03*
%TD*%
D21*
%TO.C,D28*%
X112000000Y31000000D03*
X112000000Y35000000D03*
%TD*%
D10*
%TO.C,R63*%
X110000000Y42912500D03*
X110000000Y41087500D03*
%TD*%
D22*
%TO.C,C52*%
X33595000Y57862500D03*
X33595000Y56137500D03*
%TD*%
D14*
%TO.C,C61*%
X12232500Y63500000D03*
X13957500Y63500000D03*
%TD*%
D19*
%TO.C,D31*%
X98000000Y26500000D03*
X94000000Y26500000D03*
%TD*%
%TO.C,D17*%
X142000000Y22500000D03*
X138000000Y22500000D03*
%TD*%
D10*
%TO.C,R40*%
X139000000Y42912500D03*
X139000000Y41087500D03*
%TD*%
D13*
%TO.C,C32*%
X12862500Y35000000D03*
X11137500Y35000000D03*
%TD*%
D10*
%TO.C,R214*%
X145000000Y60912500D03*
X145000000Y59087500D03*
%TD*%
D35*
%TO.C,J36*%
X63000000Y4500000D03*
D28*
X66810000Y4500000D03*
X70620000Y4500000D03*
%TD*%
D19*
%TO.C,D51*%
X98000000Y22500000D03*
X94000000Y22500000D03*
%TD*%
D29*
%TO.C,D142*%
X109900000Y76575000D03*
X109900000Y74825000D03*
%TD*%
D38*
%TO.C,D100*%
X158775000Y20100000D03*
X157025000Y20100000D03*
%TD*%
D10*
%TO.C,R61*%
X106000000Y42912500D03*
X106000000Y41087500D03*
%TD*%
D13*
%TO.C,C27*%
X40362500Y30500000D03*
X38637500Y30500000D03*
%TD*%
D10*
%TO.C,R43*%
X141000000Y42912500D03*
X141000000Y41087500D03*
%TD*%
D29*
%TO.C,D147*%
X89863750Y76575000D03*
X89863750Y74825000D03*
%TD*%
D14*
%TO.C,C7*%
X108137500Y66000000D03*
X109862500Y66000000D03*
%TD*%
D19*
%TO.C,D26*%
X120000000Y18500000D03*
X116000000Y18500000D03*
%TD*%
D36*
%TO.C,C63*%
X11095000Y59637500D03*
X11095000Y61362500D03*
%TD*%
D20*
%TO.C,R181*%
X26007500Y63500000D03*
X24182500Y63500000D03*
%TD*%
D29*
%TO.C,D150*%
X74900000Y76575000D03*
X74900000Y74825000D03*
%TD*%
D10*
%TO.C,R174*%
X48595000Y63412500D03*
X48595000Y61587500D03*
%TD*%
D32*
%TO.C,U13*%
X86475000Y38650000D03*
X85825000Y38650000D03*
X85175000Y38650000D03*
X84525000Y38650000D03*
X84525000Y34350000D03*
X85175000Y34350000D03*
X85825000Y34350000D03*
X86475000Y34350000D03*
D33*
X85500000Y36500000D03*
%TD*%
D11*
%TO.C,R241*%
X143000000Y74787500D03*
X143000000Y76612500D03*
%TD*%
%TO.C,R109*%
X9500000Y16587500D03*
X9500000Y18412500D03*
%TD*%
D14*
%TO.C,C87*%
X140137500Y56000000D03*
X141862500Y56000000D03*
%TD*%
D13*
%TO.C,C8*%
X76785000Y30500000D03*
X75060000Y30500000D03*
%TD*%
D10*
%TO.C,R102*%
X24500000Y33412500D03*
X24500000Y31587500D03*
%TD*%
D26*
%TO.C,D139*%
X120900000Y13725000D03*
X120900000Y15475000D03*
%TD*%
D10*
%TO.C,R64*%
X108000000Y42912500D03*
X108000000Y41087500D03*
%TD*%
D11*
%TO.C,R44*%
X137000000Y37087500D03*
X137000000Y38912500D03*
%TD*%
D22*
%TO.C,C57*%
X35595000Y57862500D03*
X35595000Y56137500D03*
%TD*%
D11*
%TO.C,R235*%
X76900000Y74787500D03*
X76900000Y76612500D03*
%TD*%
D10*
%TO.C,R188*%
X20095000Y54912500D03*
X20095000Y53087500D03*
%TD*%
D11*
%TO.C,R243*%
X135000000Y74787500D03*
X135000000Y76612500D03*
%TD*%
%TO.C,R229*%
X103900000Y74787500D03*
X103900000Y76612500D03*
%TD*%
D10*
%TO.C,R91*%
X42500000Y33412500D03*
X42500000Y31587500D03*
%TD*%
D18*
%TO.C,D113*%
X9595000Y73500000D03*
X9595000Y69500000D03*
%TD*%
D35*
%TO.C,J38*%
X50000000Y4500000D03*
D28*
X53810000Y4500000D03*
X57620000Y4500000D03*
%TD*%
D36*
%TO.C,C54*%
X31595000Y59637500D03*
X31595000Y61362500D03*
%TD*%
D41*
%TO.C,U11*%
X110950000Y59862500D03*
X110300000Y59862500D03*
X109650000Y59862500D03*
X109000000Y59862500D03*
X108350000Y59862500D03*
X107700000Y59862500D03*
X107050000Y59862500D03*
X107050000Y54137500D03*
X107700000Y54137500D03*
X108350000Y54137500D03*
X109000000Y54137500D03*
X109650000Y54137500D03*
X110300000Y54137500D03*
X110950000Y54137500D03*
%TD*%
D11*
%TO.C,R55*%
X115000000Y41087500D03*
X115000000Y42912500D03*
%TD*%
D27*
%TO.C,J7*%
X85120000Y85417500D03*
D28*
X81310000Y85417500D03*
X77500000Y85417500D03*
X73690000Y85417500D03*
%TD*%
D21*
%TO.C,D50*%
X101000000Y31000000D03*
X101000000Y35000000D03*
%TD*%
D10*
%TO.C,R223*%
X130900000Y15512500D03*
X130900000Y13687500D03*
%TD*%
%TO.C,R13*%
X60500000Y36912500D03*
X60500000Y35087500D03*
%TD*%
D13*
%TO.C,C31*%
X22362500Y30500000D03*
X20637500Y30500000D03*
%TD*%
D19*
%TO.C,D39*%
X41500000Y42500000D03*
X37500000Y42500000D03*
%TD*%
D25*
%TO.C,R7*%
X77010000Y39000000D03*
X78835000Y39000000D03*
%TD*%
D20*
%TO.C,R94*%
X30912500Y31000000D03*
X29087500Y31000000D03*
%TD*%
D19*
%TO.C,D33*%
X77922500Y42500000D03*
X73922500Y42500000D03*
%TD*%
D29*
%TO.C,D149*%
X78900000Y76575000D03*
X78900000Y74825000D03*
%TD*%
D40*
%TO.C,D45*%
X13500000Y26650000D03*
X13500000Y23350000D03*
%TD*%
D10*
%TO.C,R165*%
X38595000Y54912500D03*
X38595000Y53087500D03*
%TD*%
D18*
%TO.C,D116*%
X18500000Y73500000D03*
X18500000Y69500000D03*
%TD*%
D10*
%TO.C,R222*%
X134900000Y15512500D03*
X134900000Y13687500D03*
%TD*%
%TO.C,R225*%
X122900000Y15512500D03*
X122900000Y13687500D03*
%TD*%
D37*
%TO.C,Q3*%
X29550000Y19062500D03*
X31450000Y19062500D03*
X30500000Y20937500D03*
%TD*%
D27*
%TO.C,J6*%
X101715000Y85417500D03*
D28*
X97905000Y85417500D03*
X94095000Y85417500D03*
X90285000Y85417500D03*
%TD*%
D13*
%TO.C,C30*%
X35862500Y28500000D03*
X34137500Y28500000D03*
%TD*%
D27*
%TO.C,J8*%
X52120000Y85417500D03*
D28*
X48310000Y85417500D03*
X44500000Y85417500D03*
X40690000Y85417500D03*
%TD*%
D23*
%TO.C,D98*%
X137000000Y72750000D03*
X137000000Y69850000D03*
%TD*%
D10*
%TO.C,R42*%
X143000000Y42912500D03*
X143000000Y41087500D03*
%TD*%
D11*
%TO.C,R231*%
X95900000Y74787500D03*
X95900000Y76612500D03*
%TD*%
D13*
%TO.C,C86*%
X138862500Y68000000D03*
X137137500Y68000000D03*
%TD*%
D10*
%TO.C,R178*%
X28095000Y59412500D03*
X28095000Y57587500D03*
%TD*%
D14*
%TO.C,C17*%
X137637500Y30000000D03*
X139362500Y30000000D03*
%TD*%
D10*
%TO.C,R75*%
X84000000Y42912500D03*
X84000000Y41087500D03*
%TD*%
%TO.C,R103*%
X24500000Y36912500D03*
X24500000Y35087500D03*
%TD*%
%TO.C,R187*%
X18095000Y54912500D03*
X18095000Y53087500D03*
%TD*%
D36*
%TO.C,C60*%
X15095000Y59637500D03*
X15095000Y61362500D03*
%TD*%
D19*
%TO.C,D34*%
X59500000Y42500000D03*
X55500000Y42500000D03*
%TD*%
D13*
%TO.C,C28*%
X30862500Y35000000D03*
X29137500Y35000000D03*
%TD*%
%TO.C,C26*%
X53862500Y28500000D03*
X52137500Y28500000D03*
%TD*%
D42*
%TO.C,U41*%
X140100000Y59150000D03*
X140100000Y59800000D03*
X140100000Y60450000D03*
X140100000Y61100000D03*
X140100000Y61750000D03*
D43*
X138962500Y62887500D03*
X138312500Y62887500D03*
X137662500Y62887500D03*
X137012500Y62887500D03*
X136362500Y62887500D03*
D42*
X135225000Y61750000D03*
X135225000Y61100000D03*
X135225000Y60450000D03*
X135225000Y59800000D03*
X135225000Y59150000D03*
D43*
X136362500Y58012500D03*
X137012500Y58012500D03*
X137662500Y58012500D03*
X138312500Y58012500D03*
X138962500Y58012500D03*
D44*
X137662500Y60450000D03*
%TD*%
D11*
%TO.C,R11*%
X63922500Y16587500D03*
X63922500Y18412500D03*
%TD*%
D13*
%TO.C,C15*%
X121862500Y68000000D03*
X120137500Y68000000D03*
%TD*%
D24*
%TO.C,D48*%
X17000000Y12000000D03*
X21000000Y12000000D03*
%TD*%
D20*
%TO.C,R23*%
X111912500Y68000000D03*
X110087500Y68000000D03*
%TD*%
D26*
%TO.C,D129*%
X94900000Y13725000D03*
X94900000Y15475000D03*
%TD*%
D11*
%TO.C,R184*%
X13095000Y59587500D03*
X13095000Y61412500D03*
%TD*%
D31*
%TO.C,C29*%
X36037500Y30500000D03*
X33962500Y30500000D03*
%TD*%
D20*
%TO.C,R163*%
X158812500Y18000000D03*
X156987500Y18000000D03*
%TD*%
D25*
%TO.C,R8*%
X65510000Y37000000D03*
X67335000Y37000000D03*
%TD*%
D20*
%TO.C,R110*%
X13412500Y16500000D03*
X11587500Y16500000D03*
%TD*%
D24*
%TO.C,D43*%
X35000000Y12000000D03*
X39000000Y12000000D03*
%TD*%
D10*
%TO.C,R220*%
X142900000Y15512500D03*
X142900000Y13687500D03*
%TD*%
D25*
%TO.C,R9*%
X65510000Y39000000D03*
X67335000Y39000000D03*
%TD*%
%TO.C,R85*%
X47087500Y37000000D03*
X48912500Y37000000D03*
%TD*%
D26*
%TO.C,D140*%
X116900000Y13725000D03*
X116900000Y15475000D03*
%TD*%
D25*
%TO.C,R59*%
X115587500Y32000000D03*
X117412500Y32000000D03*
%TD*%
%TO.C,R183*%
X16182500Y64500000D03*
X18007500Y64500000D03*
%TD*%
D21*
%TO.C,D24*%
X123000000Y31000000D03*
X123000000Y35000000D03*
%TD*%
D29*
%TO.C,D146*%
X93900000Y76575000D03*
X93900000Y74825000D03*
%TD*%
D45*
%TO.C,U17*%
X36565000Y25975000D03*
X36565000Y25325000D03*
X36565000Y24675000D03*
X36565000Y24025000D03*
D46*
X38000000Y23542500D03*
D47*
X39600000Y24025000D03*
D48*
X38450000Y25000000D03*
D46*
X38000000Y26457500D03*
D47*
X39600000Y24675000D03*
X39600000Y25325000D03*
X39600000Y25975000D03*
%TD*%
D25*
%TO.C,R4*%
X65510000Y33000000D03*
X67335000Y33000000D03*
%TD*%
%TO.C,R80*%
X82587500Y32000000D03*
X84412500Y32000000D03*
%TD*%
D10*
%TO.C,R224*%
X126900000Y15512500D03*
X126900000Y13687500D03*
%TD*%
D11*
%TO.C,R1*%
X65422500Y24087500D03*
X65422500Y25912500D03*
%TD*%
D20*
%TO.C,R31*%
X127912500Y63000000D03*
X126087500Y63000000D03*
%TD*%
D49*
%TO.C,J9*%
X163000000Y88000000D03*
X163000000Y63010000D03*
D50*
X164420000Y69965000D03*
D28*
X164420000Y72735000D03*
X164420000Y75505000D03*
X164420000Y78275000D03*
X164420000Y81045000D03*
X161580000Y71350000D03*
X161580000Y74120000D03*
X161580000Y76890000D03*
X161580000Y79660000D03*
%TD*%
D10*
%TO.C,R68*%
X95000000Y42912500D03*
X95000000Y41087500D03*
%TD*%
%TO.C,R70*%
X99000000Y42912500D03*
X99000000Y41087500D03*
%TD*%
D25*
%TO.C,R182*%
X12182500Y65500000D03*
X14007500Y65500000D03*
%TD*%
D10*
%TO.C,R56*%
X121000000Y42912500D03*
X121000000Y41087500D03*
%TD*%
D25*
%TO.C,R177*%
X44682500Y61500000D03*
X46507500Y61500000D03*
%TD*%
D27*
%TO.C,J4*%
X110905000Y85417500D03*
D28*
X107095000Y85417500D03*
%TD*%
D11*
%TO.C,R112*%
X16000000Y24087500D03*
X16000000Y25912500D03*
%TD*%
D26*
%TO.C,D128*%
X109900000Y13725000D03*
X109900000Y15475000D03*
%TD*%
D11*
%TO.C,R72*%
X93000000Y37087500D03*
X93000000Y38912500D03*
%TD*%
D10*
%TO.C,R29*%
X124000000Y67912500D03*
X124000000Y66087500D03*
%TD*%
D13*
%TO.C,C23*%
X58362500Y30500000D03*
X56637500Y30500000D03*
%TD*%
D11*
%TO.C,R173*%
X33595000Y59587500D03*
X33595000Y61412500D03*
%TD*%
D19*
%TO.C,D25*%
X120000000Y22500000D03*
X116000000Y22500000D03*
%TD*%
D18*
%TO.C,D109*%
X39000000Y73500000D03*
X39000000Y69500000D03*
%TD*%
D11*
%TO.C,R207*%
X104100000Y13687500D03*
X104100000Y15512500D03*
%TD*%
%TO.C,R230*%
X99900000Y74787500D03*
X99900000Y76612500D03*
%TD*%
%TO.C,R30*%
X118000000Y66087500D03*
X118000000Y67912500D03*
%TD*%
D18*
%TO.C,D111*%
X34500000Y73500000D03*
X34500000Y69500000D03*
%TD*%
D10*
%TO.C,R57*%
X119000000Y42912500D03*
X119000000Y41087500D03*
%TD*%
D24*
%TO.C,D114*%
X19500000Y77500000D03*
X23500000Y77500000D03*
%TD*%
D31*
%TO.C,C2*%
X72460000Y30500000D03*
X70385000Y30500000D03*
%TD*%
D51*
%TO.C,U14*%
X55000000Y35000000D03*
D52*
X57862500Y32725000D03*
X57862500Y33375000D03*
X57862500Y34025000D03*
X57862500Y34675000D03*
X57862500Y35325000D03*
X57862500Y35975000D03*
X57862500Y36625000D03*
X57862500Y37275000D03*
X52137500Y37275000D03*
X52137500Y36625000D03*
X52137500Y35975000D03*
X52137500Y35325000D03*
X52137500Y34675000D03*
X52137500Y34025000D03*
X52137500Y33375000D03*
X52137500Y32725000D03*
%TD*%
D10*
%TO.C,R6*%
X78922500Y36912500D03*
X78922500Y35087500D03*
%TD*%
D19*
%TO.C,D21*%
X131000000Y22500000D03*
X127000000Y22500000D03*
%TD*%
D29*
%TO.C,D141*%
X116900000Y76575000D03*
X116900000Y74825000D03*
%TD*%
D35*
%TO.C,J35*%
X89500000Y4500000D03*
D28*
X93310000Y4500000D03*
X97120000Y4500000D03*
%TD*%
D20*
%TO.C,R168*%
X46507500Y63500000D03*
X44682500Y63500000D03*
%TD*%
D11*
%TO.C,R74*%
X97500000Y30087500D03*
X97500000Y31912500D03*
%TD*%
D25*
%TO.C,R86*%
X47087500Y39000000D03*
X48912500Y39000000D03*
%TD*%
D11*
%TO.C,R58*%
X115000000Y37087500D03*
X115000000Y38912500D03*
%TD*%
D10*
%TO.C,R167*%
X42595000Y54912500D03*
X42595000Y53087500D03*
%TD*%
D14*
%TO.C,C20*%
X104637500Y30000000D03*
X106362500Y30000000D03*
%TD*%
D25*
%TO.C,R164*%
X36682500Y64500000D03*
X38507500Y64500000D03*
%TD*%
D11*
%TO.C,R67*%
X108500000Y30087500D03*
X108500000Y31912500D03*
%TD*%
D14*
%TO.C,C22*%
X82637500Y30000000D03*
X84362500Y30000000D03*
%TD*%
D37*
%TO.C,Q1*%
X47550000Y19062500D03*
X49450000Y19062500D03*
X48500000Y20937500D03*
%TD*%
D21*
%TO.C,D16*%
X145000000Y31000000D03*
X145000000Y35000000D03*
%TD*%
D20*
%TO.C,R105*%
X12912500Y31000000D03*
X11087500Y31000000D03*
%TD*%
D45*
%TO.C,U8*%
X72987500Y25975000D03*
X72987500Y25325000D03*
X72987500Y24675000D03*
X72987500Y24025000D03*
D46*
X74422500Y23542500D03*
D47*
X76022500Y24025000D03*
D48*
X74872500Y25000000D03*
D46*
X74422500Y26457500D03*
D47*
X76022500Y24675000D03*
X76022500Y25325000D03*
X76022500Y25975000D03*
%TD*%
D35*
%TO.C,J37*%
X76190000Y4500000D03*
D28*
X80000000Y4500000D03*
X83810000Y4500000D03*
%TD*%
D38*
%TO.C,D102*%
X158775000Y10100000D03*
X157025000Y10100000D03*
%TD*%
D11*
%TO.C,R24*%
X111000000Y62087500D03*
X111000000Y63912500D03*
%TD*%
D51*
%TO.C,U18*%
X19000000Y35000000D03*
D52*
X21862500Y32725000D03*
X21862500Y33375000D03*
X21862500Y34025000D03*
X21862500Y34675000D03*
X21862500Y35325000D03*
X21862500Y35975000D03*
X21862500Y36625000D03*
X21862500Y37275000D03*
X16137500Y37275000D03*
X16137500Y36625000D03*
X16137500Y35975000D03*
X16137500Y35325000D03*
X16137500Y34675000D03*
X16137500Y34025000D03*
X16137500Y33375000D03*
X16137500Y32725000D03*
%TD*%
D35*
%TO.C,J2*%
X25690000Y4582500D03*
D28*
X29500000Y4582500D03*
X33310000Y4582500D03*
X37120000Y4582500D03*
X40930000Y4582500D03*
X44740000Y4582500D03*
%TD*%
D32*
%TO.C,U9*%
X97475000Y38650000D03*
X96825000Y38650000D03*
X96175000Y38650000D03*
X95525000Y38650000D03*
X95525000Y34350000D03*
X96175000Y34350000D03*
X96825000Y34350000D03*
X97475000Y34350000D03*
D33*
X96500000Y36500000D03*
%TD*%
D11*
%TO.C,R111*%
X11000000Y24087500D03*
X11000000Y25912500D03*
%TD*%
%TO.C,R228*%
X107900000Y74787500D03*
X107900000Y76612500D03*
%TD*%
D18*
%TO.C,D115*%
X14000000Y73500000D03*
X14000000Y69500000D03*
%TD*%
D10*
%TO.C,R28*%
X128000000Y60912500D03*
X128000000Y59087500D03*
%TD*%
D11*
%TO.C,R90*%
X52000000Y24087500D03*
X52000000Y25912500D03*
%TD*%
D13*
%TO.C,C55*%
X41957500Y64500000D03*
X40232500Y64500000D03*
%TD*%
D34*
%TO.C,H4*%
X165500000Y2000000D03*
%TD*%
D19*
%TO.C,D32*%
X75422500Y20000000D03*
X71422500Y20000000D03*
%TD*%
D10*
%TO.C,R179*%
X28095000Y63412500D03*
X28095000Y61587500D03*
%TD*%
D23*
%TO.C,D94*%
X120000000Y72750000D03*
X120000000Y69850000D03*
%TD*%
D10*
%TO.C,R221*%
X138900000Y15512500D03*
X138900000Y13687500D03*
%TD*%
D19*
%TO.C,D44*%
X23500000Y42500000D03*
X19500000Y42500000D03*
%TD*%
D23*
%TO.C,D92*%
X127500000Y72750000D03*
X127500000Y69850000D03*
%TD*%
D36*
%TO.C,C53*%
X35595000Y59637500D03*
X35595000Y61362500D03*
%TD*%
D40*
%TO.C,D40*%
X31500000Y26650000D03*
X31500000Y23350000D03*
%TD*%
D39*
%TO.C,FID1*%
X3000000Y87000000D03*
%TD*%
D19*
%TO.C,D46*%
X21000000Y20000000D03*
X17000000Y20000000D03*
%TD*%
D20*
%TO.C,R83*%
X48912500Y31000000D03*
X47087500Y31000000D03*
%TD*%
D19*
%TO.C,D30*%
X109000000Y18500000D03*
X105000000Y18500000D03*
%TD*%
D11*
%TO.C,R62*%
X104000000Y41087500D03*
X104000000Y42912500D03*
%TD*%
D29*
%TO.C,D104*%
X140900000Y76575000D03*
X140900000Y74825000D03*
%TD*%
D10*
%TO.C,R54*%
X117000000Y42912500D03*
X117000000Y41087500D03*
%TD*%
%TO.C,R78*%
X86000000Y42912500D03*
X86000000Y41087500D03*
%TD*%
%TO.C,R226*%
X118900000Y15512500D03*
X118900000Y13687500D03*
%TD*%
%TO.C,R208*%
X107900000Y15512500D03*
X107900000Y13687500D03*
%TD*%
D14*
%TO.C,C21*%
X93637500Y30000000D03*
X95362500Y30000000D03*
%TD*%
D10*
%TO.C,R215*%
X92900000Y15512500D03*
X92900000Y13687500D03*
%TD*%
D25*
%TO.C,R106*%
X11087500Y33000000D03*
X12912500Y33000000D03*
%TD*%
D23*
%TO.C,D99*%
X133000000Y72750000D03*
X133000000Y69850000D03*
%TD*%
D19*
%TO.C,D18*%
X142000000Y18500000D03*
X138000000Y18500000D03*
%TD*%
%TO.C,D41*%
X39000000Y20000000D03*
X35000000Y20000000D03*
%TD*%
D26*
%TO.C,D134*%
X140900000Y13725000D03*
X140900000Y15475000D03*
%TD*%
D45*
%TO.C,U15*%
X54565000Y25975000D03*
X54565000Y25325000D03*
X54565000Y24675000D03*
X54565000Y24025000D03*
D46*
X56000000Y23542500D03*
D47*
X57600000Y24025000D03*
D48*
X56450000Y25000000D03*
D46*
X56000000Y26457500D03*
D47*
X57600000Y24675000D03*
X57600000Y25325000D03*
X57600000Y25975000D03*
%TD*%
D13*
%TO.C,C9*%
X67285000Y35000000D03*
X65560000Y35000000D03*
%TD*%
%TO.C,C85*%
X138862500Y66000000D03*
X137137500Y66000000D03*
%TD*%
D27*
%TO.C,J5*%
X127715000Y85417500D03*
D28*
X123905000Y85417500D03*
X120095000Y85417500D03*
X116285000Y85417500D03*
%TD*%
D40*
%TO.C,D4*%
X67922500Y26650000D03*
X67922500Y23350000D03*
%TD*%
D51*
%TO.C,U7*%
X73422500Y35000000D03*
D52*
X76285000Y32725000D03*
X76285000Y33375000D03*
X76285000Y34025000D03*
X76285000Y34675000D03*
X76285000Y35325000D03*
X76285000Y35975000D03*
X76285000Y36625000D03*
X76285000Y37275000D03*
X70560000Y37275000D03*
X70560000Y36625000D03*
X70560000Y35975000D03*
X70560000Y35325000D03*
X70560000Y34675000D03*
X70560000Y34025000D03*
X70560000Y33375000D03*
X70560000Y32725000D03*
%TD*%
D11*
%TO.C,R76*%
X82000000Y41087500D03*
X82000000Y42912500D03*
%TD*%
D15*
%TO.C,U38*%
X21807500Y58337500D03*
X21807500Y58987500D03*
X21807500Y59637500D03*
X21807500Y60287500D03*
X21807500Y60937500D03*
D16*
X20745000Y62000000D03*
X20095000Y62000000D03*
X19445000Y62000000D03*
X18795000Y62000000D03*
X18145000Y62000000D03*
D15*
X17082500Y60937500D03*
X17082500Y60287500D03*
X17082500Y59637500D03*
X17082500Y58987500D03*
X17082500Y58337500D03*
D16*
X18145000Y57275000D03*
X18795000Y57275000D03*
X19445000Y57275000D03*
X20095000Y57275000D03*
X20745000Y57275000D03*
D17*
X19445000Y59637500D03*
%TD*%
D24*
%TO.C,D1*%
X71422500Y16000000D03*
X75422500Y16000000D03*
%TD*%
D10*
%TO.C,R218*%
X80900000Y15512500D03*
X80900000Y13687500D03*
%TD*%
D18*
%TO.C,D108*%
X30095000Y73500000D03*
X30095000Y69500000D03*
%TD*%
D14*
%TO.C,C19*%
X115637500Y30000000D03*
X117362500Y30000000D03*
%TD*%
D30*
%TO.C,FB2*%
X122850000Y54000000D03*
X125150000Y54000000D03*
%TD*%
D19*
%TO.C,D23*%
X120000000Y26500000D03*
X116000000Y26500000D03*
%TD*%
D42*
%TO.C,U10*%
X123100000Y59150000D03*
X123100000Y59800000D03*
X123100000Y60450000D03*
X123100000Y61100000D03*
X123100000Y61750000D03*
D43*
X121962500Y62887500D03*
X121312500Y62887500D03*
X120662500Y62887500D03*
X120012500Y62887500D03*
X119362500Y62887500D03*
D42*
X118225000Y61750000D03*
X118225000Y61100000D03*
X118225000Y60450000D03*
X118225000Y59800000D03*
X118225000Y59150000D03*
D43*
X119362500Y58012500D03*
X120012500Y58012500D03*
X120662500Y58012500D03*
X121312500Y58012500D03*
X121962500Y58012500D03*
D44*
X120662500Y60450000D03*
%TD*%
D13*
%TO.C,C62*%
X21457500Y64500000D03*
X19732500Y64500000D03*
%TD*%
D25*
%TO.C,R21*%
X106087500Y68000000D03*
X107912500Y68000000D03*
%TD*%
D24*
%TO.C,D37*%
X53000000Y16000000D03*
X57000000Y16000000D03*
%TD*%
D19*
%TO.C,D53*%
X87000000Y26500000D03*
X83000000Y26500000D03*
%TD*%
D26*
%TO.C,D137*%
X128900000Y13725000D03*
X128900000Y15475000D03*
%TD*%
%TO.C,D126*%
X98900000Y13725000D03*
X98900000Y15475000D03*
%TD*%
D11*
%TO.C,R101*%
X34000000Y24087500D03*
X34000000Y25912500D03*
%TD*%
%TO.C,R48*%
X126000000Y41087500D03*
X126000000Y42912500D03*
%TD*%
D24*
%TO.C,D47*%
X17000000Y16000000D03*
X21000000Y16000000D03*
%TD*%
D13*
%TO.C,C88*%
X137862500Y56000000D03*
X136137500Y56000000D03*
%TD*%
D39*
%TO.C,FID3*%
X152000000Y2000000D03*
%TD*%
D10*
%TO.C,R5*%
X78922500Y33412500D03*
X78922500Y31587500D03*
%TD*%
D25*
%TO.C,R84*%
X47087500Y33000000D03*
X48912500Y33000000D03*
%TD*%
D11*
%TO.C,R81*%
X86500000Y30087500D03*
X86500000Y31912500D03*
%TD*%
D10*
%TO.C,R71*%
X97000000Y42912500D03*
X97000000Y41087500D03*
%TD*%
D11*
%TO.C,R238*%
X64900000Y74787500D03*
X64900000Y76612500D03*
%TD*%
D20*
%TO.C,R210*%
X144912500Y63000000D03*
X143087500Y63000000D03*
%TD*%
D26*
%TO.C,D133*%
X144900000Y13725000D03*
X144900000Y15475000D03*
%TD*%
D10*
%TO.C,R189*%
X22095000Y54912500D03*
X22095000Y53087500D03*
%TD*%
%TO.C,R12*%
X60500000Y33412500D03*
X60500000Y31587500D03*
%TD*%
D13*
%TO.C,C24*%
X48862500Y35000000D03*
X47137500Y35000000D03*
%TD*%
D45*
%TO.C,U19*%
X18565000Y25975000D03*
X18565000Y25325000D03*
X18565000Y24675000D03*
X18565000Y24025000D03*
D46*
X20000000Y23542500D03*
D47*
X21600000Y24025000D03*
D48*
X20450000Y25000000D03*
D46*
X20000000Y26457500D03*
D47*
X21600000Y24675000D03*
X21600000Y25325000D03*
X21600000Y25975000D03*
%TD*%
D25*
%TO.C,R107*%
X11087500Y37000000D03*
X12912500Y37000000D03*
%TD*%
D39*
%TO.C,FID2*%
X152000000Y87000000D03*
%TD*%
D14*
%TO.C,C18*%
X126637500Y30000000D03*
X128362500Y30000000D03*
%TD*%
D26*
%TO.C,D136*%
X132900000Y13725000D03*
X132900000Y15475000D03*
%TD*%
D36*
%TO.C,C5*%
X107500000Y62137500D03*
X107500000Y63862500D03*
%TD*%
D11*
%TO.C,R98*%
X27500000Y16587500D03*
X27500000Y18412500D03*
%TD*%
D25*
%TO.C,R170*%
X38182500Y66500000D03*
X40007500Y66500000D03*
%TD*%
D51*
%TO.C,U16*%
X37000000Y35000000D03*
D52*
X39862500Y32725000D03*
X39862500Y33375000D03*
X39862500Y34025000D03*
X39862500Y34675000D03*
X39862500Y35325000D03*
X39862500Y35975000D03*
X39862500Y36625000D03*
X39862500Y37275000D03*
X34137500Y37275000D03*
X34137500Y36625000D03*
X34137500Y35975000D03*
X34137500Y35325000D03*
X34137500Y34675000D03*
X34137500Y34025000D03*
X34137500Y33375000D03*
X34137500Y32725000D03*
%TD*%
D20*
%TO.C,R3*%
X67335000Y31000000D03*
X65510000Y31000000D03*
%TD*%
D25*
%TO.C,R93*%
X40587500Y39000000D03*
X42412500Y39000000D03*
%TD*%
D37*
%TO.C,Q2*%
X65972500Y19062500D03*
X67872500Y19062500D03*
X66922500Y20937500D03*
%TD*%
D11*
%TO.C,R232*%
X91900000Y74887500D03*
X91900000Y76712500D03*
%TD*%
D19*
%TO.C,D56*%
X87000000Y18500000D03*
X83000000Y18500000D03*
%TD*%
D11*
%TO.C,R237*%
X68900000Y74787500D03*
X68900000Y76612500D03*
%TD*%
D25*
%TO.C,R172*%
X24182500Y59000000D03*
X26007500Y59000000D03*
%TD*%
D13*
%TO.C,C1*%
X72285000Y28500000D03*
X70560000Y28500000D03*
%TD*%
D25*
%TO.C,R73*%
X93587500Y32000000D03*
X95412500Y32000000D03*
%TD*%
D26*
%TO.C,D132*%
X82900000Y13725000D03*
X82900000Y15475000D03*
%TD*%
D20*
%TO.C,R169*%
X44007500Y66500000D03*
X42182500Y66500000D03*
%TD*%
D11*
%TO.C,R234*%
X80900000Y74787500D03*
X80900000Y76612500D03*
%TD*%
D31*
%TO.C,C33*%
X18037500Y30500000D03*
X15962500Y30500000D03*
%TD*%
D53*
%TO.C,J41*%
X4500000Y40100000D03*
D54*
X4500000Y19900000D03*
%TD*%
D53*
%TO.C,J42*%
X164500000Y30100000D03*
D54*
X164500000Y9900000D03*
%TD*%
D53*
%TO.C,J39*%
X4500000Y70100000D03*
D54*
X4500000Y49900000D03*
%TD*%
M02*
