G04*
G04 #@! TF.GenerationSoftware,Altium Limited,Altium Designer,22.5.1 (42)*
G04*
G04 Layer_Color=32896*
%FSLAX44Y44*%
%MOMM*%
G71*
G04*
G04 #@! TF.SameCoordinates,22EFE7C3-C857-4B98-BFDA-642FBBEDC0F8*
G04*
G04*
G04 #@! TF.FilePolarity,Positive*
G04*
G01*
G75*
%ADD11C,0.2000*%
%ADD12C,0.1000*%
G36*
X1177977Y644982D02*
X1178300Y644945D01*
X1178587Y644898D01*
X1178726Y644861D01*
X1178846Y644834D01*
X1178957Y644806D01*
X1179059Y644769D01*
X1179151Y644741D01*
X1179225Y644723D01*
X1179280Y644695D01*
X1179327Y644686D01*
X1179354Y644667D01*
X1179364D01*
X1179641Y644529D01*
X1179891Y644371D01*
X1180103Y644205D01*
X1180186Y644122D01*
X1180270Y644048D01*
X1180344Y643974D01*
X1180408Y643900D01*
X1180464Y643835D01*
X1180501Y643780D01*
X1180538Y643743D01*
X1180566Y643706D01*
X1180575Y643687D01*
X1180584Y643678D01*
X1180658Y643549D01*
X1180723Y643419D01*
X1180825Y643142D01*
X1180898Y642864D01*
X1180945Y642596D01*
X1180963Y642467D01*
X1180982Y642356D01*
X1180991Y642254D01*
Y642171D01*
X1181000Y642097D01*
Y641995D01*
X1180991Y641810D01*
X1180972Y641635D01*
X1180954Y641468D01*
X1180917Y641311D01*
X1180871Y641163D01*
X1180825Y641024D01*
X1180778Y640895D01*
X1180723Y640775D01*
X1180676Y640673D01*
X1180630Y640572D01*
X1180584Y640498D01*
X1180538Y640424D01*
X1180501Y640377D01*
X1180482Y640331D01*
X1180464Y640313D01*
X1180455Y640303D01*
X1180344Y640174D01*
X1180233Y640063D01*
X1180103Y639961D01*
X1179974Y639860D01*
X1179715Y639693D01*
X1179456Y639564D01*
X1179336Y639508D01*
X1179225Y639462D01*
X1179123Y639425D01*
X1179040Y639397D01*
X1178966Y639370D01*
X1178911Y639351D01*
X1178874Y639342D01*
X1178864D01*
X1178652Y640192D01*
X1178800Y640229D01*
X1178938Y640276D01*
X1179068Y640322D01*
X1179188Y640368D01*
X1179299Y640424D01*
X1179391Y640479D01*
X1179484Y640544D01*
X1179567Y640599D01*
X1179641Y640646D01*
X1179697Y640701D01*
X1179752Y640747D01*
X1179798Y640784D01*
X1179826Y640821D01*
X1179854Y640849D01*
X1179863Y640858D01*
X1179872Y640867D01*
X1179946Y640960D01*
X1180002Y641061D01*
X1180103Y641265D01*
X1180177Y641459D01*
X1180223Y641653D01*
X1180260Y641820D01*
X1180270Y641884D01*
Y641949D01*
X1180279Y642005D01*
Y642069D01*
X1180270Y642282D01*
X1180233Y642485D01*
X1180186Y642670D01*
X1180131Y642837D01*
X1180076Y642966D01*
X1180048Y643022D01*
X1180029Y643068D01*
X1180011Y643105D01*
X1179992Y643132D01*
X1179983Y643151D01*
Y643160D01*
X1179854Y643336D01*
X1179715Y643484D01*
X1179558Y643613D01*
X1179410Y643715D01*
X1179280Y643798D01*
X1179169Y643854D01*
X1179123Y643872D01*
X1179096Y643891D01*
X1179077Y643900D01*
X1179068D01*
X1178827Y643974D01*
X1178587Y644029D01*
X1178347Y644076D01*
X1178125Y644103D01*
X1178023Y644113D01*
X1177931Y644122D01*
X1177847D01*
X1177783Y644131D01*
X1177727D01*
X1177681D01*
X1177653D01*
X1177644D01*
X1177404Y644122D01*
X1177182Y644103D01*
X1176978Y644066D01*
X1176793Y644029D01*
X1176636Y644002D01*
X1176572Y643983D01*
X1176516Y643965D01*
X1176470Y643955D01*
X1176442Y643946D01*
X1176424Y643937D01*
X1176414D01*
X1176202Y643844D01*
X1176008Y643743D01*
X1175850Y643632D01*
X1175712Y643512D01*
X1175601Y643410D01*
X1175527Y643327D01*
X1175480Y643262D01*
X1175462Y643253D01*
Y643243D01*
X1175342Y643049D01*
X1175249Y642837D01*
X1175185Y642633D01*
X1175148Y642439D01*
X1175120Y642263D01*
X1175111Y642189D01*
Y642125D01*
X1175101Y642078D01*
Y642005D01*
X1175111Y641773D01*
X1175148Y641561D01*
X1175203Y641385D01*
X1175259Y641228D01*
X1175323Y641108D01*
X1175370Y641015D01*
X1175406Y640960D01*
X1175425Y640941D01*
X1175564Y640793D01*
X1175721Y640655D01*
X1175887Y640544D01*
X1176054Y640451D01*
X1176202Y640377D01*
X1176276Y640350D01*
X1176331Y640331D01*
X1176377Y640313D01*
X1176414Y640294D01*
X1176433Y640285D01*
X1176442D01*
X1176248Y639453D01*
X1176081Y639508D01*
X1175934Y639564D01*
X1175795Y639638D01*
X1175656Y639702D01*
X1175536Y639776D01*
X1175425Y639860D01*
X1175314Y639934D01*
X1175222Y640007D01*
X1175148Y640081D01*
X1175074Y640146D01*
X1175009Y640211D01*
X1174963Y640257D01*
X1174917Y640303D01*
X1174889Y640340D01*
X1174880Y640359D01*
X1174870Y640368D01*
X1174787Y640498D01*
X1174704Y640627D01*
X1174639Y640756D01*
X1174584Y640895D01*
X1174501Y641172D01*
X1174445Y641422D01*
X1174417Y641542D01*
X1174408Y641644D01*
X1174399Y641746D01*
X1174389Y641829D01*
X1174380Y641894D01*
Y641986D01*
X1174399Y642291D01*
X1174445Y642587D01*
X1174501Y642846D01*
X1174538Y642966D01*
X1174574Y643077D01*
X1174611Y643179D01*
X1174648Y643271D01*
X1174676Y643345D01*
X1174704Y643419D01*
X1174732Y643465D01*
X1174750Y643502D01*
X1174759Y643530D01*
X1174769Y643539D01*
X1174926Y643789D01*
X1175111Y644002D01*
X1175296Y644186D01*
X1175480Y644344D01*
X1175647Y644464D01*
X1175721Y644510D01*
X1175786Y644547D01*
X1175832Y644584D01*
X1175869Y644603D01*
X1175897Y644612D01*
X1175906Y644621D01*
X1176192Y644751D01*
X1176488Y644843D01*
X1176784Y644908D01*
X1177052Y644954D01*
X1177172Y644972D01*
X1177293Y644982D01*
X1177385Y644991D01*
X1177478D01*
X1177542Y645000D01*
X1177598D01*
X1177635D01*
X1177644D01*
X1177977Y644982D01*
D02*
G37*
G36*
X1176803Y638611D02*
X1176960Y638593D01*
X1177117Y638574D01*
X1177265Y638537D01*
X1177394Y638491D01*
X1177524Y638445D01*
X1177635Y638399D01*
X1177736Y638343D01*
X1177829Y638297D01*
X1177912Y638251D01*
X1177977Y638205D01*
X1178042Y638158D01*
X1178088Y638121D01*
X1178115Y638103D01*
X1178134Y638084D01*
X1178143Y638075D01*
X1178245Y637974D01*
X1178328Y637863D01*
X1178411Y637752D01*
X1178476Y637631D01*
X1178532Y637520D01*
X1178578Y637410D01*
X1178643Y637197D01*
X1178670Y637104D01*
X1178689Y637012D01*
X1178698Y636938D01*
X1178707Y636864D01*
X1178717Y636809D01*
Y636735D01*
X1178707Y636559D01*
X1178680Y636393D01*
X1178643Y636245D01*
X1178596Y636106D01*
X1178559Y636004D01*
X1178522Y635921D01*
X1178495Y635866D01*
X1178485Y635847D01*
X1178393Y635699D01*
X1178291Y635570D01*
X1178189Y635459D01*
X1178097Y635366D01*
X1178005Y635302D01*
X1177940Y635246D01*
X1177894Y635209D01*
X1177875Y635200D01*
X1177949D01*
X1177995D01*
X1178023D01*
X1178032D01*
X1178217Y635209D01*
X1178393Y635218D01*
X1178550Y635237D01*
X1178698Y635255D01*
X1178818Y635283D01*
X1178911Y635302D01*
X1178948Y635311D01*
X1178975D01*
X1178985Y635320D01*
X1178994D01*
X1179160Y635366D01*
X1179308Y635412D01*
X1179438Y635459D01*
X1179549Y635505D01*
X1179632Y635542D01*
X1179697Y635579D01*
X1179743Y635597D01*
X1179752Y635607D01*
X1179854Y635681D01*
X1179937Y635755D01*
X1180011Y635829D01*
X1180076Y635902D01*
X1180131Y635958D01*
X1180168Y636013D01*
X1180186Y636050D01*
X1180196Y636060D01*
X1180251Y636161D01*
X1180288Y636272D01*
X1180316Y636374D01*
X1180334Y636476D01*
X1180344Y636559D01*
X1180353Y636624D01*
Y636688D01*
X1180344Y636836D01*
X1180316Y636975D01*
X1180279Y637095D01*
X1180233Y637197D01*
X1180196Y637271D01*
X1180159Y637336D01*
X1180131Y637373D01*
X1180122Y637382D01*
X1180020Y637474D01*
X1179900Y637548D01*
X1179771Y637613D01*
X1179641Y637659D01*
X1179530Y637696D01*
X1179428Y637724D01*
X1179391Y637733D01*
X1179373D01*
X1179354Y637742D01*
X1179345D01*
X1179410Y638501D01*
X1179678Y638445D01*
X1179909Y638371D01*
X1180113Y638279D01*
X1180279Y638186D01*
X1180408Y638094D01*
X1180464Y638047D01*
X1180510Y638010D01*
X1180538Y637983D01*
X1180566Y637955D01*
X1180575Y637946D01*
X1180584Y637937D01*
X1180658Y637844D01*
X1180723Y637742D01*
X1180825Y637539D01*
X1180898Y637336D01*
X1180945Y637141D01*
X1180982Y636966D01*
X1180991Y636892D01*
Y636827D01*
X1181000Y636781D01*
Y636707D01*
X1180982Y636448D01*
X1180945Y636217D01*
X1180880Y636004D01*
X1180806Y635829D01*
X1180778Y635755D01*
X1180741Y635681D01*
X1180704Y635625D01*
X1180676Y635570D01*
X1180658Y635533D01*
X1180639Y635505D01*
X1180621Y635486D01*
Y635477D01*
X1180464Y635292D01*
X1180288Y635126D01*
X1180103Y634996D01*
X1179928Y634885D01*
X1179771Y634793D01*
X1179697Y634756D01*
X1179641Y634728D01*
X1179586Y634710D01*
X1179549Y634691D01*
X1179530Y634682D01*
X1179521D01*
X1179382Y634636D01*
X1179225Y634590D01*
X1178911Y634525D01*
X1178578Y634479D01*
X1178263Y634451D01*
X1178125Y634432D01*
X1177986Y634423D01*
X1177866D01*
X1177764Y634414D01*
X1177681D01*
X1177616D01*
X1177570D01*
X1177561D01*
X1177348D01*
X1177145Y634423D01*
X1176960Y634442D01*
X1176784Y634460D01*
X1176627Y634479D01*
X1176479Y634497D01*
X1176340Y634525D01*
X1176220Y634553D01*
X1176118Y634580D01*
X1176026Y634599D01*
X1175943Y634627D01*
X1175878Y634645D01*
X1175832Y634664D01*
X1175795Y634682D01*
X1175776Y634691D01*
X1175767D01*
X1175545Y634802D01*
X1175351Y634922D01*
X1175185Y635061D01*
X1175046Y635181D01*
X1174944Y635302D01*
X1174870Y635394D01*
X1174843Y635431D01*
X1174824Y635459D01*
X1174806Y635468D01*
Y635477D01*
X1174695Y635671D01*
X1174611Y635866D01*
X1174547Y636060D01*
X1174510Y636235D01*
X1174482Y636393D01*
X1174473Y636457D01*
Y636503D01*
X1174464Y636550D01*
Y636614D01*
X1174473Y636772D01*
X1174491Y636920D01*
X1174519Y637067D01*
X1174556Y637197D01*
X1174658Y637447D01*
X1174704Y637557D01*
X1174759Y637650D01*
X1174824Y637742D01*
X1174870Y637816D01*
X1174926Y637890D01*
X1174972Y637946D01*
X1175009Y637992D01*
X1175037Y638020D01*
X1175055Y638038D01*
X1175064Y638047D01*
X1175175Y638149D01*
X1175305Y638232D01*
X1175425Y638316D01*
X1175555Y638380D01*
X1175693Y638436D01*
X1175823Y638482D01*
X1176063Y638547D01*
X1176183Y638574D01*
X1176285Y638593D01*
X1176387Y638602D01*
X1176470Y638611D01*
X1176535Y638621D01*
X1176581D01*
X1176618D01*
X1176627D01*
X1176803Y638611D01*
D02*
G37*
G36*
X986425Y183409D02*
X985667D01*
Y186543D01*
X985399Y186321D01*
X985113Y186109D01*
X984835Y185924D01*
X984567Y185748D01*
X984447Y185674D01*
X984336Y185609D01*
X984234Y185545D01*
X984151Y185498D01*
X984077Y185462D01*
X984031Y185434D01*
X983994Y185415D01*
X983985Y185406D01*
X983615Y185221D01*
X983245Y185055D01*
X982894Y184916D01*
X982737Y184860D01*
X982579Y184805D01*
X982441Y184750D01*
X982311Y184713D01*
X982200Y184676D01*
X982108Y184648D01*
X982025Y184620D01*
X981969Y184602D01*
X981932Y184592D01*
X981923D01*
X981544Y184500D01*
X981359Y184463D01*
X981192Y184435D01*
X981035Y184408D01*
X980878Y184380D01*
X980749Y184361D01*
X980619Y184343D01*
X980508Y184333D01*
X980407Y184324D01*
X980314Y184315D01*
X980240D01*
X980185Y184306D01*
X980148D01*
X980120D01*
X980111D01*
Y185110D01*
X980462Y185138D01*
X980786Y185184D01*
X981082Y185230D01*
X981220Y185258D01*
X981350Y185286D01*
X981461Y185304D01*
X981562Y185332D01*
X981655Y185350D01*
X981729Y185369D01*
X981784Y185387D01*
X981831Y185397D01*
X981858Y185406D01*
X981868D01*
X982293Y185545D01*
X982690Y185693D01*
X982885Y185767D01*
X983069Y185840D01*
X983236Y185924D01*
X983402Y185998D01*
X983550Y186062D01*
X983680Y186127D01*
X983791Y186183D01*
X983892Y186229D01*
X983976Y186275D01*
X984031Y186303D01*
X984068Y186321D01*
X984077Y186331D01*
X984271Y186441D01*
X984465Y186552D01*
X984641Y186663D01*
X984808Y186774D01*
X984956Y186876D01*
X985103Y186978D01*
X985233Y187079D01*
X985344Y187163D01*
X985455Y187246D01*
X985547Y187320D01*
X985621Y187394D01*
X985686Y187449D01*
X985741Y187486D01*
X985778Y187523D01*
X985797Y187542D01*
X985806Y187551D01*
X986425D01*
Y183409D01*
D02*
G37*
G36*
X982441Y182614D02*
X982598Y182595D01*
X982755Y182568D01*
X982894Y182531D01*
X983023Y182484D01*
X983153Y182438D01*
X983263Y182383D01*
X983365Y182336D01*
X983458Y182281D01*
X983541Y182225D01*
X983606Y182179D01*
X983670Y182133D01*
X983717Y182096D01*
X983744Y182068D01*
X983763Y182050D01*
X983772Y182041D01*
X983874Y181930D01*
X983966Y181819D01*
X984040Y181698D01*
X984105Y181578D01*
X984170Y181458D01*
X984216Y181338D01*
X984281Y181116D01*
X984308Y181014D01*
X984327Y180922D01*
X984336Y180839D01*
X984345Y180765D01*
X984354Y180709D01*
Y180506D01*
X984336Y180395D01*
X984290Y180173D01*
X984225Y179970D01*
X984151Y179785D01*
X984077Y179637D01*
X984040Y179572D01*
X984012Y179517D01*
X983985Y179470D01*
X983966Y179443D01*
X983957Y179424D01*
X983948Y179415D01*
X985677Y179757D01*
Y182318D01*
X986425D01*
Y179137D01*
X983134Y178518D01*
X983032Y179258D01*
X983134Y179322D01*
X983217Y179406D01*
X983300Y179480D01*
X983365Y179554D01*
X983411Y179627D01*
X983458Y179683D01*
X983476Y179720D01*
X983485Y179729D01*
X983541Y179849D01*
X983587Y179970D01*
X983615Y180081D01*
X983643Y180191D01*
X983652Y180284D01*
X983661Y180358D01*
Y180534D01*
X983643Y180644D01*
X983596Y180839D01*
X983532Y181005D01*
X983467Y181153D01*
X983393Y181264D01*
X983328Y181347D01*
X983282Y181393D01*
X983273Y181412D01*
X983263D01*
X983106Y181541D01*
X982940Y181634D01*
X982764Y181698D01*
X982589Y181745D01*
X982441Y181772D01*
X982376Y181782D01*
X982320D01*
X982274Y181791D01*
X982237D01*
X982219D01*
X982209D01*
X982080D01*
X981960Y181772D01*
X981729Y181726D01*
X981535Y181661D01*
X981377Y181597D01*
X981248Y181523D01*
X981146Y181458D01*
X981119Y181430D01*
X981091Y181412D01*
X981082Y181403D01*
X981072Y181393D01*
X980998Y181319D01*
X980934Y181245D01*
X980823Y181079D01*
X980749Y180922D01*
X980703Y180765D01*
X980666Y180635D01*
X980656Y180524D01*
X980647Y180487D01*
Y180432D01*
X980656Y180256D01*
X980693Y180099D01*
X980740Y179960D01*
X980795Y179849D01*
X980850Y179748D01*
X980897Y179674D01*
X980934Y179637D01*
X980943Y179618D01*
X981072Y179507D01*
X981211Y179415D01*
X981368Y179341D01*
X981507Y179285D01*
X981646Y179248D01*
X981747Y179221D01*
X981794Y179211D01*
X981821Y179202D01*
X981840D01*
X981849D01*
X981784Y178379D01*
X981636Y178398D01*
X981498Y178426D01*
X981239Y178509D01*
X981017Y178610D01*
X980915Y178666D01*
X980832Y178721D01*
X980749Y178768D01*
X980675Y178823D01*
X980619Y178869D01*
X980573Y178916D01*
X980536Y178953D01*
X980499Y178971D01*
X980490Y178990D01*
X980481Y178999D01*
X980397Y179110D01*
X980323Y179221D01*
X980259Y179341D01*
X980203Y179461D01*
X980120Y179692D01*
X980065Y179923D01*
X980037Y180025D01*
X980028Y180127D01*
X980018Y180210D01*
X980009Y180284D01*
X980000Y180349D01*
Y180432D01*
X980009Y180626D01*
X980037Y180811D01*
X980074Y180987D01*
X980120Y181144D01*
X980185Y181292D01*
X980249Y181430D01*
X980314Y181560D01*
X980388Y181671D01*
X980462Y181772D01*
X980527Y181865D01*
X980601Y181939D01*
X980656Y182004D01*
X980703Y182050D01*
X980740Y182087D01*
X980767Y182105D01*
X980777Y182115D01*
X980897Y182207D01*
X981026Y182281D01*
X981146Y182355D01*
X981276Y182410D01*
X981525Y182503D01*
X981766Y182558D01*
X981868Y182577D01*
X981969Y182595D01*
X982052Y182605D01*
X982126Y182614D01*
X982191Y182623D01*
X982237D01*
X982265D01*
X982274D01*
X982441Y182614D01*
D02*
G37*
G36*
X982348Y176808D02*
X982200Y176771D01*
X982062Y176724D01*
X981932Y176678D01*
X981812Y176632D01*
X981701Y176576D01*
X981609Y176521D01*
X981516Y176456D01*
X981433Y176401D01*
X981359Y176355D01*
X981303Y176299D01*
X981248Y176253D01*
X981202Y176216D01*
X981174Y176179D01*
X981146Y176151D01*
X981137Y176142D01*
X981128Y176133D01*
X981054Y176040D01*
X980998Y175938D01*
X980897Y175735D01*
X980823Y175541D01*
X980777Y175347D01*
X980740Y175180D01*
X980730Y175116D01*
Y175051D01*
X980721Y174995D01*
Y174931D01*
X980730Y174718D01*
X980767Y174515D01*
X980814Y174330D01*
X980869Y174163D01*
X980924Y174034D01*
X980952Y173978D01*
X980971Y173932D01*
X980989Y173895D01*
X981008Y173867D01*
X981017Y173849D01*
Y173840D01*
X981146Y173664D01*
X981285Y173516D01*
X981442Y173387D01*
X981590Y173285D01*
X981720Y173202D01*
X981831Y173146D01*
X981877Y173128D01*
X981904Y173109D01*
X981923Y173100D01*
X981932D01*
X982173Y173026D01*
X982413Y172971D01*
X982653Y172924D01*
X982875Y172897D01*
X982977Y172887D01*
X983069Y172878D01*
X983153D01*
X983217Y172869D01*
X983273D01*
X983319D01*
X983347D01*
X983356D01*
X983596Y172878D01*
X983818Y172897D01*
X984022Y172934D01*
X984207Y172971D01*
X984364Y172998D01*
X984428Y173017D01*
X984484Y173035D01*
X984530Y173045D01*
X984558Y173054D01*
X984576Y173063D01*
X984586D01*
X984798Y173156D01*
X984993Y173257D01*
X985150Y173368D01*
X985288Y173488D01*
X985399Y173590D01*
X985473Y173673D01*
X985519Y173738D01*
X985538Y173747D01*
Y173757D01*
X985658Y173951D01*
X985751Y174163D01*
X985815Y174367D01*
X985852Y174561D01*
X985880Y174737D01*
X985889Y174811D01*
Y174875D01*
X985899Y174921D01*
Y174995D01*
X985889Y175227D01*
X985852Y175439D01*
X985797Y175615D01*
X985741Y175772D01*
X985677Y175892D01*
X985630Y175985D01*
X985593Y176040D01*
X985575Y176059D01*
X985436Y176207D01*
X985279Y176345D01*
X985113Y176456D01*
X984946Y176549D01*
X984798Y176623D01*
X984724Y176650D01*
X984669Y176669D01*
X984623Y176687D01*
X984586Y176706D01*
X984567Y176715D01*
X984558D01*
X984752Y177547D01*
X984919Y177492D01*
X985066Y177436D01*
X985205Y177362D01*
X985344Y177298D01*
X985464Y177224D01*
X985575Y177140D01*
X985686Y177066D01*
X985778Y176992D01*
X985852Y176919D01*
X985926Y176854D01*
X985991Y176789D01*
X986037Y176743D01*
X986083Y176697D01*
X986111Y176660D01*
X986120Y176641D01*
X986130Y176632D01*
X986213Y176502D01*
X986296Y176373D01*
X986361Y176244D01*
X986416Y176105D01*
X986499Y175828D01*
X986555Y175578D01*
X986583Y175458D01*
X986592Y175356D01*
X986601Y175254D01*
X986610Y175171D01*
X986620Y175106D01*
Y175014D01*
X986601Y174709D01*
X986555Y174413D01*
X986499Y174154D01*
X986462Y174034D01*
X986425Y173923D01*
X986389Y173821D01*
X986352Y173729D01*
X986324Y173655D01*
X986296Y173581D01*
X986268Y173535D01*
X986250Y173498D01*
X986241Y173470D01*
X986231Y173461D01*
X986074Y173211D01*
X985889Y172998D01*
X985704Y172813D01*
X985519Y172656D01*
X985353Y172536D01*
X985279Y172490D01*
X985214Y172453D01*
X985168Y172416D01*
X985131Y172397D01*
X985103Y172388D01*
X985094Y172379D01*
X984808Y172250D01*
X984512Y172157D01*
X984216Y172092D01*
X983948Y172046D01*
X983828Y172028D01*
X983707Y172018D01*
X983615Y172009D01*
X983522D01*
X983458Y172000D01*
X983402D01*
X983365D01*
X983356D01*
X983023Y172018D01*
X982700Y172055D01*
X982413Y172102D01*
X982274Y172139D01*
X982154Y172166D01*
X982043Y172194D01*
X981941Y172231D01*
X981849Y172259D01*
X981775Y172277D01*
X981720Y172305D01*
X981673Y172314D01*
X981646Y172333D01*
X981636D01*
X981359Y172471D01*
X981109Y172629D01*
X980897Y172795D01*
X980814Y172878D01*
X980730Y172952D01*
X980656Y173026D01*
X980592Y173100D01*
X980536Y173165D01*
X980499Y173220D01*
X980462Y173257D01*
X980434Y173294D01*
X980425Y173313D01*
X980416Y173322D01*
X980342Y173451D01*
X980277Y173581D01*
X980175Y173858D01*
X980101Y174136D01*
X980055Y174404D01*
X980037Y174533D01*
X980018Y174644D01*
X980009Y174746D01*
Y174829D01*
X980000Y174903D01*
Y175005D01*
X980009Y175190D01*
X980028Y175365D01*
X980046Y175532D01*
X980083Y175689D01*
X980129Y175837D01*
X980175Y175975D01*
X980222Y176105D01*
X980277Y176225D01*
X980323Y176327D01*
X980370Y176429D01*
X980416Y176502D01*
X980462Y176576D01*
X980499Y176623D01*
X980518Y176669D01*
X980536Y176687D01*
X980545Y176697D01*
X980656Y176826D01*
X980767Y176937D01*
X980897Y177039D01*
X981026Y177140D01*
X981285Y177307D01*
X981544Y177436D01*
X981664Y177492D01*
X981775Y177538D01*
X981877Y177575D01*
X981960Y177603D01*
X982034Y177630D01*
X982089Y177649D01*
X982126Y177658D01*
X982136D01*
X982348Y176808D01*
D02*
G37*
G36*
X1146977Y50982D02*
X1147300Y50945D01*
X1147587Y50898D01*
X1147726Y50862D01*
X1147846Y50834D01*
X1147957Y50806D01*
X1148058Y50769D01*
X1148151Y50741D01*
X1148225Y50723D01*
X1148280Y50695D01*
X1148327Y50686D01*
X1148354Y50667D01*
X1148364D01*
X1148641Y50529D01*
X1148891Y50371D01*
X1149103Y50205D01*
X1149186Y50122D01*
X1149270Y50048D01*
X1149344Y49974D01*
X1149408Y49900D01*
X1149464Y49835D01*
X1149501Y49780D01*
X1149538Y49743D01*
X1149566Y49706D01*
X1149575Y49687D01*
X1149584Y49678D01*
X1149658Y49549D01*
X1149723Y49419D01*
X1149824Y49142D01*
X1149898Y48864D01*
X1149945Y48596D01*
X1149963Y48467D01*
X1149982Y48356D01*
X1149991Y48254D01*
Y48171D01*
X1150000Y48097D01*
Y47995D01*
X1149991Y47810D01*
X1149972Y47635D01*
X1149954Y47468D01*
X1149917Y47311D01*
X1149871Y47163D01*
X1149824Y47024D01*
X1149778Y46895D01*
X1149723Y46775D01*
X1149677Y46673D01*
X1149630Y46571D01*
X1149584Y46498D01*
X1149538Y46424D01*
X1149501Y46377D01*
X1149482Y46331D01*
X1149464Y46313D01*
X1149455Y46303D01*
X1149344Y46174D01*
X1149233Y46063D01*
X1149103Y45961D01*
X1148974Y45860D01*
X1148715Y45693D01*
X1148456Y45564D01*
X1148336Y45508D01*
X1148225Y45462D01*
X1148123Y45425D01*
X1148040Y45397D01*
X1147966Y45370D01*
X1147911Y45351D01*
X1147874Y45342D01*
X1147864D01*
X1147652Y46192D01*
X1147800Y46229D01*
X1147938Y46276D01*
X1148068Y46322D01*
X1148188Y46368D01*
X1148299Y46424D01*
X1148391Y46479D01*
X1148484Y46544D01*
X1148567Y46599D01*
X1148641Y46645D01*
X1148696Y46701D01*
X1148752Y46747D01*
X1148798Y46784D01*
X1148826Y46821D01*
X1148854Y46849D01*
X1148863Y46858D01*
X1148872Y46867D01*
X1148946Y46960D01*
X1149001Y47062D01*
X1149103Y47265D01*
X1149177Y47459D01*
X1149223Y47653D01*
X1149260Y47820D01*
X1149270Y47884D01*
Y47949D01*
X1149279Y48005D01*
Y48069D01*
X1149270Y48282D01*
X1149233Y48485D01*
X1149186Y48670D01*
X1149131Y48837D01*
X1149075Y48966D01*
X1149048Y49022D01*
X1149029Y49068D01*
X1149011Y49105D01*
X1148992Y49132D01*
X1148983Y49151D01*
Y49160D01*
X1148854Y49336D01*
X1148715Y49484D01*
X1148558Y49613D01*
X1148410Y49715D01*
X1148280Y49798D01*
X1148169Y49854D01*
X1148123Y49872D01*
X1148095Y49891D01*
X1148077Y49900D01*
X1148068D01*
X1147827Y49974D01*
X1147587Y50029D01*
X1147347Y50076D01*
X1147125Y50103D01*
X1147023Y50113D01*
X1146930Y50122D01*
X1146847D01*
X1146783Y50131D01*
X1146727D01*
X1146681D01*
X1146653D01*
X1146644D01*
X1146404Y50122D01*
X1146182Y50103D01*
X1145978Y50066D01*
X1145793Y50029D01*
X1145636Y50002D01*
X1145571Y49983D01*
X1145516Y49965D01*
X1145470Y49955D01*
X1145442Y49946D01*
X1145424Y49937D01*
X1145414D01*
X1145202Y49844D01*
X1145007Y49743D01*
X1144850Y49632D01*
X1144712Y49512D01*
X1144601Y49410D01*
X1144527Y49327D01*
X1144480Y49262D01*
X1144462Y49253D01*
Y49243D01*
X1144342Y49049D01*
X1144249Y48837D01*
X1144185Y48633D01*
X1144148Y48439D01*
X1144120Y48264D01*
X1144111Y48190D01*
Y48125D01*
X1144101Y48078D01*
Y48005D01*
X1144111Y47773D01*
X1144148Y47561D01*
X1144203Y47385D01*
X1144258Y47228D01*
X1144323Y47108D01*
X1144370Y47015D01*
X1144407Y46960D01*
X1144425Y46941D01*
X1144564Y46793D01*
X1144721Y46655D01*
X1144887Y46544D01*
X1145054Y46451D01*
X1145202Y46377D01*
X1145276Y46350D01*
X1145331Y46331D01*
X1145377Y46313D01*
X1145414Y46294D01*
X1145433Y46285D01*
X1145442D01*
X1145248Y45453D01*
X1145081Y45508D01*
X1144933Y45564D01*
X1144795Y45638D01*
X1144656Y45702D01*
X1144536Y45776D01*
X1144425Y45860D01*
X1144314Y45934D01*
X1144222Y46007D01*
X1144148Y46082D01*
X1144074Y46146D01*
X1144009Y46211D01*
X1143963Y46257D01*
X1143916Y46303D01*
X1143889Y46340D01*
X1143879Y46359D01*
X1143870Y46368D01*
X1143787Y46498D01*
X1143704Y46627D01*
X1143639Y46756D01*
X1143584Y46895D01*
X1143500Y47172D01*
X1143445Y47422D01*
X1143417Y47542D01*
X1143408Y47644D01*
X1143399Y47746D01*
X1143390Y47829D01*
X1143380Y47894D01*
Y47986D01*
X1143399Y48291D01*
X1143445Y48587D01*
X1143500Y48846D01*
X1143537Y48966D01*
X1143574Y49077D01*
X1143611Y49179D01*
X1143648Y49271D01*
X1143676Y49345D01*
X1143704Y49419D01*
X1143732Y49465D01*
X1143750Y49502D01*
X1143759Y49530D01*
X1143768Y49539D01*
X1143926Y49789D01*
X1144111Y50002D01*
X1144296Y50187D01*
X1144480Y50344D01*
X1144647Y50464D01*
X1144721Y50510D01*
X1144786Y50547D01*
X1144832Y50584D01*
X1144869Y50603D01*
X1144896Y50612D01*
X1144906Y50621D01*
X1145192Y50750D01*
X1145488Y50843D01*
X1145784Y50908D01*
X1146052Y50954D01*
X1146172Y50972D01*
X1146293Y50982D01*
X1146385Y50991D01*
X1146478D01*
X1146542Y51000D01*
X1146598D01*
X1146635D01*
X1146644D01*
X1146977Y50982D01*
D02*
G37*
G36*
X1148364Y44602D02*
X1148502Y44574D01*
X1148761Y44491D01*
X1148983Y44390D01*
X1149085Y44334D01*
X1149168Y44279D01*
X1149251Y44232D01*
X1149325Y44177D01*
X1149381Y44131D01*
X1149427Y44084D01*
X1149464Y44047D01*
X1149501Y44029D01*
X1149510Y44011D01*
X1149519Y44001D01*
X1149603Y43890D01*
X1149677Y43779D01*
X1149741Y43659D01*
X1149797Y43539D01*
X1149880Y43308D01*
X1149935Y43077D01*
X1149963Y42975D01*
X1149972Y42873D01*
X1149982Y42790D01*
X1149991Y42716D01*
X1150000Y42651D01*
Y42568D01*
X1149991Y42374D01*
X1149963Y42189D01*
X1149926Y42013D01*
X1149880Y41856D01*
X1149815Y41708D01*
X1149750Y41570D01*
X1149686Y41440D01*
X1149612Y41329D01*
X1149538Y41228D01*
X1149473Y41135D01*
X1149399Y41061D01*
X1149344Y40996D01*
X1149297Y40950D01*
X1149260Y40913D01*
X1149233Y40895D01*
X1149223Y40886D01*
X1149103Y40793D01*
X1148974Y40719D01*
X1148854Y40645D01*
X1148724Y40590D01*
X1148475Y40497D01*
X1148234Y40442D01*
X1148132Y40423D01*
X1148031Y40405D01*
X1147947Y40395D01*
X1147874Y40386D01*
X1147809Y40377D01*
X1147763D01*
X1147735D01*
X1147726D01*
X1147559Y40386D01*
X1147402Y40405D01*
X1147245Y40432D01*
X1147106Y40469D01*
X1146977Y40516D01*
X1146847Y40562D01*
X1146736Y40617D01*
X1146635Y40664D01*
X1146542Y40719D01*
X1146459Y40774D01*
X1146394Y40821D01*
X1146330Y40867D01*
X1146283Y40904D01*
X1146256Y40932D01*
X1146237Y40950D01*
X1146228Y40959D01*
X1146126Y41070D01*
X1146034Y41181D01*
X1145960Y41301D01*
X1145895Y41422D01*
X1145830Y41542D01*
X1145784Y41662D01*
X1145719Y41884D01*
X1145692Y41986D01*
X1145673Y42078D01*
X1145664Y42161D01*
X1145655Y42235D01*
X1145645Y42291D01*
Y42494D01*
X1145664Y42605D01*
X1145710Y42827D01*
X1145775Y43030D01*
X1145849Y43215D01*
X1145923Y43363D01*
X1145960Y43428D01*
X1145987Y43484D01*
X1146015Y43530D01*
X1146034Y43557D01*
X1146043Y43576D01*
X1146052Y43585D01*
X1144323Y43243D01*
Y40682D01*
X1143574D01*
Y43863D01*
X1146866Y44482D01*
X1146967Y43742D01*
X1146866Y43678D01*
X1146783Y43594D01*
X1146699Y43520D01*
X1146635Y43446D01*
X1146588Y43373D01*
X1146542Y43317D01*
X1146524Y43280D01*
X1146515Y43271D01*
X1146459Y43151D01*
X1146413Y43030D01*
X1146385Y42920D01*
X1146357Y42809D01*
X1146348Y42716D01*
X1146339Y42642D01*
Y42467D01*
X1146357Y42355D01*
X1146404Y42161D01*
X1146468Y41995D01*
X1146533Y41847D01*
X1146607Y41736D01*
X1146672Y41653D01*
X1146718Y41607D01*
X1146727Y41588D01*
X1146736D01*
X1146893Y41459D01*
X1147060Y41366D01*
X1147236Y41301D01*
X1147411Y41255D01*
X1147559Y41228D01*
X1147624Y41218D01*
X1147679D01*
X1147726Y41209D01*
X1147763D01*
X1147781D01*
X1147790D01*
X1147920D01*
X1148040Y41228D01*
X1148271Y41274D01*
X1148465Y41339D01*
X1148623Y41403D01*
X1148752Y41477D01*
X1148854Y41542D01*
X1148881Y41570D01*
X1148909Y41588D01*
X1148918Y41597D01*
X1148928Y41607D01*
X1149001Y41681D01*
X1149066Y41755D01*
X1149177Y41921D01*
X1149251Y42078D01*
X1149297Y42235D01*
X1149334Y42365D01*
X1149344Y42476D01*
X1149353Y42513D01*
Y42568D01*
X1149344Y42744D01*
X1149307Y42901D01*
X1149260Y43040D01*
X1149205Y43151D01*
X1149149Y43252D01*
X1149103Y43326D01*
X1149066Y43363D01*
X1149057Y43382D01*
X1148928Y43493D01*
X1148789Y43585D01*
X1148632Y43659D01*
X1148493Y43715D01*
X1148354Y43752D01*
X1148253Y43779D01*
X1148206Y43789D01*
X1148179Y43798D01*
X1148160D01*
X1148151D01*
X1148216Y44621D01*
X1148364Y44602D01*
D02*
G37*
G36*
X1148354Y37132D02*
X1149889D01*
Y36346D01*
X1148354D01*
Y35477D01*
X1147633D01*
Y36346D01*
X1143491D01*
Y36984D01*
X1147633Y39915D01*
X1148354D01*
Y37132D01*
D02*
G37*
G36*
X932977Y132982D02*
X933300Y132945D01*
X933587Y132898D01*
X933726Y132861D01*
X933846Y132834D01*
X933957Y132806D01*
X934059Y132769D01*
X934151Y132741D01*
X934225Y132723D01*
X934280Y132695D01*
X934327Y132686D01*
X934354Y132667D01*
X934364D01*
X934641Y132529D01*
X934891Y132371D01*
X935103Y132205D01*
X935186Y132122D01*
X935270Y132048D01*
X935344Y131974D01*
X935408Y131900D01*
X935464Y131835D01*
X935501Y131780D01*
X935538Y131743D01*
X935565Y131706D01*
X935575Y131687D01*
X935584Y131678D01*
X935658Y131549D01*
X935723Y131419D01*
X935824Y131142D01*
X935898Y130864D01*
X935945Y130596D01*
X935963Y130467D01*
X935982Y130356D01*
X935991Y130254D01*
Y130171D01*
X936000Y130097D01*
Y129995D01*
X935991Y129810D01*
X935972Y129635D01*
X935954Y129468D01*
X935917Y129311D01*
X935871Y129163D01*
X935824Y129024D01*
X935778Y128895D01*
X935723Y128775D01*
X935676Y128673D01*
X935630Y128572D01*
X935584Y128497D01*
X935538Y128424D01*
X935501Y128377D01*
X935482Y128331D01*
X935464Y128313D01*
X935454Y128303D01*
X935344Y128174D01*
X935233Y128063D01*
X935103Y127961D01*
X934974Y127860D01*
X934715Y127693D01*
X934456Y127564D01*
X934336Y127508D01*
X934225Y127462D01*
X934123Y127425D01*
X934040Y127397D01*
X933966Y127369D01*
X933911Y127351D01*
X933874Y127342D01*
X933864D01*
X933652Y128192D01*
X933800Y128229D01*
X933938Y128276D01*
X934068Y128322D01*
X934188Y128368D01*
X934299Y128424D01*
X934391Y128479D01*
X934484Y128544D01*
X934567Y128599D01*
X934641Y128645D01*
X934696Y128701D01*
X934752Y128747D01*
X934798Y128784D01*
X934826Y128821D01*
X934854Y128849D01*
X934863Y128858D01*
X934872Y128867D01*
X934946Y128960D01*
X935002Y129061D01*
X935103Y129265D01*
X935177Y129459D01*
X935223Y129653D01*
X935260Y129820D01*
X935270Y129884D01*
Y129949D01*
X935279Y130005D01*
Y130069D01*
X935270Y130282D01*
X935233Y130485D01*
X935186Y130670D01*
X935131Y130837D01*
X935076Y130966D01*
X935048Y131022D01*
X935029Y131068D01*
X935011Y131105D01*
X934992Y131132D01*
X934983Y131151D01*
Y131160D01*
X934854Y131336D01*
X934715Y131484D01*
X934558Y131613D01*
X934410Y131715D01*
X934280Y131798D01*
X934169Y131854D01*
X934123Y131872D01*
X934095Y131891D01*
X934077Y131900D01*
X934068D01*
X933827Y131974D01*
X933587Y132029D01*
X933346Y132076D01*
X933125Y132103D01*
X933023Y132113D01*
X932931Y132122D01*
X932847D01*
X932783Y132131D01*
X932727D01*
X932681D01*
X932653D01*
X932644D01*
X932403Y132122D01*
X932182Y132103D01*
X931978Y132066D01*
X931793Y132029D01*
X931636Y132002D01*
X931571Y131983D01*
X931516Y131965D01*
X931470Y131955D01*
X931442Y131946D01*
X931423Y131937D01*
X931414D01*
X931202Y131844D01*
X931007Y131743D01*
X930850Y131632D01*
X930712Y131512D01*
X930601Y131410D01*
X930527Y131327D01*
X930480Y131262D01*
X930462Y131253D01*
Y131243D01*
X930342Y131049D01*
X930249Y130837D01*
X930185Y130633D01*
X930148Y130439D01*
X930120Y130263D01*
X930111Y130190D01*
Y130125D01*
X930101Y130078D01*
Y130005D01*
X930111Y129773D01*
X930148Y129561D01*
X930203Y129385D01*
X930258Y129228D01*
X930323Y129108D01*
X930369Y129015D01*
X930406Y128960D01*
X930425Y128941D01*
X930564Y128793D01*
X930721Y128655D01*
X930887Y128544D01*
X931054Y128451D01*
X931202Y128377D01*
X931275Y128350D01*
X931331Y128331D01*
X931377Y128313D01*
X931414Y128294D01*
X931433Y128285D01*
X931442D01*
X931248Y127453D01*
X931081Y127508D01*
X930933Y127564D01*
X930795Y127638D01*
X930656Y127702D01*
X930536Y127776D01*
X930425Y127860D01*
X930314Y127934D01*
X930221Y128007D01*
X930148Y128082D01*
X930074Y128146D01*
X930009Y128211D01*
X929963Y128257D01*
X929916Y128303D01*
X929889Y128340D01*
X929879Y128359D01*
X929870Y128368D01*
X929787Y128497D01*
X929704Y128627D01*
X929639Y128756D01*
X929584Y128895D01*
X929500Y129172D01*
X929445Y129422D01*
X929417Y129542D01*
X929408Y129644D01*
X929399Y129746D01*
X929389Y129829D01*
X929380Y129894D01*
Y129986D01*
X929399Y130291D01*
X929445Y130587D01*
X929500Y130846D01*
X929537Y130966D01*
X929574Y131077D01*
X929611Y131179D01*
X929648Y131271D01*
X929676Y131345D01*
X929704Y131419D01*
X929732Y131465D01*
X929750Y131502D01*
X929759Y131530D01*
X929769Y131539D01*
X929926Y131789D01*
X930111Y132002D01*
X930295Y132186D01*
X930480Y132344D01*
X930647Y132464D01*
X930721Y132510D01*
X930786Y132547D01*
X930832Y132584D01*
X930869Y132603D01*
X930897Y132612D01*
X930906Y132621D01*
X931192Y132751D01*
X931488Y132843D01*
X931784Y132908D01*
X932052Y132954D01*
X932172Y132972D01*
X932292Y132982D01*
X932385Y132991D01*
X932477D01*
X932542Y133000D01*
X932598D01*
X932635D01*
X932644D01*
X932977Y132982D01*
D02*
G37*
G36*
X934364Y126602D02*
X934502Y126574D01*
X934761Y126491D01*
X934983Y126390D01*
X935085Y126334D01*
X935168Y126279D01*
X935251Y126232D01*
X935325Y126177D01*
X935381Y126131D01*
X935427Y126084D01*
X935464Y126047D01*
X935501Y126029D01*
X935510Y126010D01*
X935519Y126001D01*
X935602Y125890D01*
X935676Y125779D01*
X935741Y125659D01*
X935797Y125539D01*
X935880Y125308D01*
X935935Y125077D01*
X935963Y124975D01*
X935972Y124873D01*
X935982Y124790D01*
X935991Y124716D01*
X936000Y124651D01*
Y124568D01*
X935991Y124374D01*
X935963Y124189D01*
X935926Y124013D01*
X935880Y123856D01*
X935815Y123708D01*
X935750Y123570D01*
X935686Y123440D01*
X935612Y123329D01*
X935538Y123228D01*
X935473Y123135D01*
X935399Y123061D01*
X935344Y122996D01*
X935297Y122950D01*
X935260Y122913D01*
X935233Y122895D01*
X935223Y122885D01*
X935103Y122793D01*
X934974Y122719D01*
X934854Y122645D01*
X934724Y122590D01*
X934474Y122497D01*
X934234Y122442D01*
X934132Y122423D01*
X934031Y122405D01*
X933948Y122395D01*
X933874Y122386D01*
X933809Y122377D01*
X933763D01*
X933735D01*
X933726D01*
X933559Y122386D01*
X933402Y122405D01*
X933245Y122432D01*
X933106Y122469D01*
X932977Y122516D01*
X932847Y122562D01*
X932736Y122617D01*
X932635Y122663D01*
X932542Y122719D01*
X932459Y122774D01*
X932394Y122821D01*
X932329Y122867D01*
X932283Y122904D01*
X932256Y122932D01*
X932237Y122950D01*
X932228Y122959D01*
X932126Y123070D01*
X932034Y123181D01*
X931960Y123301D01*
X931895Y123422D01*
X931830Y123542D01*
X931784Y123662D01*
X931719Y123884D01*
X931692Y123986D01*
X931673Y124078D01*
X931664Y124161D01*
X931655Y124235D01*
X931645Y124291D01*
Y124494D01*
X931664Y124605D01*
X931710Y124827D01*
X931775Y125030D01*
X931849Y125215D01*
X931923Y125363D01*
X931960Y125428D01*
X931987Y125483D01*
X932015Y125530D01*
X932034Y125557D01*
X932043Y125576D01*
X932052Y125585D01*
X930323Y125243D01*
Y122682D01*
X929574D01*
Y125863D01*
X932866Y126482D01*
X932968Y125742D01*
X932866Y125678D01*
X932783Y125594D01*
X932699Y125520D01*
X932635Y125447D01*
X932588Y125372D01*
X932542Y125317D01*
X932524Y125280D01*
X932514Y125271D01*
X932459Y125151D01*
X932413Y125030D01*
X932385Y124920D01*
X932357Y124809D01*
X932348Y124716D01*
X932339Y124642D01*
Y124466D01*
X932357Y124355D01*
X932403Y124161D01*
X932468Y123995D01*
X932533Y123847D01*
X932607Y123736D01*
X932672Y123653D01*
X932718Y123607D01*
X932727Y123588D01*
X932736D01*
X932894Y123459D01*
X933060Y123366D01*
X933236Y123301D01*
X933411Y123255D01*
X933559Y123228D01*
X933624Y123218D01*
X933679D01*
X933726Y123209D01*
X933763D01*
X933781D01*
X933790D01*
X933920D01*
X934040Y123228D01*
X934271Y123274D01*
X934465Y123338D01*
X934622Y123403D01*
X934752Y123477D01*
X934854Y123542D01*
X934881Y123570D01*
X934909Y123588D01*
X934918Y123597D01*
X934928Y123607D01*
X935002Y123681D01*
X935066Y123755D01*
X935177Y123921D01*
X935251Y124078D01*
X935297Y124235D01*
X935334Y124365D01*
X935344Y124476D01*
X935353Y124513D01*
Y124568D01*
X935344Y124744D01*
X935307Y124901D01*
X935260Y125040D01*
X935205Y125151D01*
X935149Y125252D01*
X935103Y125326D01*
X935066Y125363D01*
X935057Y125382D01*
X934928Y125493D01*
X934789Y125585D01*
X934632Y125659D01*
X934493Y125715D01*
X934354Y125752D01*
X934253Y125779D01*
X934206Y125788D01*
X934179Y125798D01*
X934160D01*
X934151D01*
X934216Y126621D01*
X934364Y126602D01*
D02*
G37*
G36*
X934197Y121646D02*
X934345Y121628D01*
X934484Y121600D01*
X934622Y121563D01*
X934854Y121471D01*
X934965Y121425D01*
X935057Y121369D01*
X935149Y121314D01*
X935223Y121267D01*
X935288Y121212D01*
X935344Y121175D01*
X935390Y121138D01*
X935418Y121110D01*
X935436Y121092D01*
X935445Y121082D01*
X935547Y120972D01*
X935630Y120851D01*
X935704Y120722D01*
X935769Y120592D01*
X935815Y120472D01*
X935861Y120343D01*
X935926Y120093D01*
X935954Y119982D01*
X935972Y119881D01*
X935982Y119788D01*
X935991Y119705D01*
X936000Y119640D01*
Y119548D01*
X935991Y119372D01*
X935972Y119215D01*
X935945Y119058D01*
X935917Y118910D01*
X935871Y118780D01*
X935824Y118651D01*
X935778Y118531D01*
X935723Y118429D01*
X935667Y118337D01*
X935621Y118253D01*
X935575Y118189D01*
X935528Y118124D01*
X935501Y118078D01*
X935473Y118050D01*
X935454Y118032D01*
X935445Y118022D01*
X935334Y117921D01*
X935223Y117828D01*
X935113Y117754D01*
X934992Y117689D01*
X934881Y117625D01*
X934761Y117578D01*
X934548Y117514D01*
X934447Y117486D01*
X934354Y117467D01*
X934271Y117458D01*
X934206Y117449D01*
X934151Y117440D01*
X934105D01*
X934077D01*
X934068D01*
X933855Y117449D01*
X933661Y117486D01*
X933485Y117542D01*
X933337Y117597D01*
X933217Y117652D01*
X933125Y117708D01*
X933069Y117745D01*
X933060Y117754D01*
X933051D01*
X932903Y117884D01*
X932773Y118022D01*
X932672Y118170D01*
X932579Y118309D01*
X932514Y118438D01*
X932468Y118549D01*
X932450Y118586D01*
X932440Y118614D01*
X932431Y118632D01*
Y118642D01*
X932357Y118475D01*
X932274Y118337D01*
X932191Y118216D01*
X932108Y118115D01*
X932034Y118041D01*
X931978Y117985D01*
X931941Y117948D01*
X931923Y117939D01*
X931793Y117856D01*
X931664Y117800D01*
X931534Y117754D01*
X931405Y117726D01*
X931303Y117708D01*
X931220Y117699D01*
X931165D01*
X931155D01*
X931146D01*
X931017Y117708D01*
X930897Y117717D01*
X930665Y117782D01*
X930462Y117865D01*
X930286Y117957D01*
X930148Y118050D01*
X930092Y118096D01*
X930037Y118133D01*
X930000Y118170D01*
X929972Y118198D01*
X929963Y118207D01*
X929953Y118216D01*
X929870Y118318D01*
X929787Y118420D01*
X929722Y118531D01*
X929667Y118642D01*
X929584Y118864D01*
X929528Y119086D01*
X929500Y119178D01*
X929491Y119270D01*
X929482Y119354D01*
X929473Y119428D01*
X929463Y119483D01*
Y119566D01*
X929473Y119714D01*
X929482Y119862D01*
X929537Y120121D01*
X929574Y120241D01*
X929611Y120352D01*
X929658Y120454D01*
X929704Y120546D01*
X929750Y120620D01*
X929796Y120694D01*
X929833Y120759D01*
X929870Y120805D01*
X929898Y120842D01*
X929926Y120870D01*
X929935Y120888D01*
X929944Y120898D01*
X930037Y120981D01*
X930129Y121064D01*
X930231Y121129D01*
X930332Y121184D01*
X930527Y121277D01*
X930712Y121332D01*
X930869Y121369D01*
X930943Y121378D01*
X930998Y121388D01*
X931054Y121397D01*
X931091D01*
X931109D01*
X931118D01*
X931285Y121388D01*
X931442Y121360D01*
X931581Y121323D01*
X931701Y121277D01*
X931793Y121240D01*
X931867Y121203D01*
X931904Y121175D01*
X931923Y121166D01*
X932034Y121064D01*
X932135Y120953D01*
X932228Y120833D01*
X932302Y120713D01*
X932357Y120602D01*
X932394Y120519D01*
X932413Y120482D01*
X932422Y120454D01*
X932431Y120445D01*
Y120435D01*
X932496Y120648D01*
X932579Y120824D01*
X932681Y120981D01*
X932773Y121110D01*
X932866Y121212D01*
X932940Y121286D01*
X932986Y121323D01*
X932995Y121341D01*
X933005D01*
X933171Y121443D01*
X933346Y121526D01*
X933513Y121582D01*
X933679Y121619D01*
X933827Y121637D01*
X933892Y121646D01*
X933948D01*
X933985Y121656D01*
X934022D01*
X934040D01*
X934049D01*
X934197Y121646D01*
D02*
G37*
G36*
X973977Y119982D02*
X974300Y119945D01*
X974587Y119898D01*
X974726Y119861D01*
X974846Y119834D01*
X974957Y119806D01*
X975059Y119769D01*
X975151Y119741D01*
X975225Y119723D01*
X975280Y119695D01*
X975327Y119686D01*
X975354Y119667D01*
X975364D01*
X975641Y119529D01*
X975891Y119371D01*
X976103Y119205D01*
X976187Y119122D01*
X976270Y119048D01*
X976344Y118974D01*
X976408Y118900D01*
X976464Y118835D01*
X976501Y118780D01*
X976538Y118743D01*
X976566Y118706D01*
X976575Y118687D01*
X976584Y118678D01*
X976658Y118549D01*
X976723Y118419D01*
X976824Y118142D01*
X976898Y117864D01*
X976945Y117596D01*
X976963Y117467D01*
X976982Y117356D01*
X976991Y117254D01*
Y117171D01*
X977000Y117097D01*
Y116995D01*
X976991Y116810D01*
X976972Y116635D01*
X976954Y116468D01*
X976917Y116311D01*
X976871Y116163D01*
X976824Y116025D01*
X976778Y115895D01*
X976723Y115775D01*
X976676Y115673D01*
X976630Y115571D01*
X976584Y115498D01*
X976538Y115423D01*
X976501Y115377D01*
X976482Y115331D01*
X976464Y115313D01*
X976455Y115303D01*
X976344Y115174D01*
X976233Y115063D01*
X976103Y114961D01*
X975974Y114860D01*
X975715Y114693D01*
X975456Y114564D01*
X975336Y114508D01*
X975225Y114462D01*
X975123Y114425D01*
X975040Y114397D01*
X974966Y114369D01*
X974911Y114351D01*
X974874Y114342D01*
X974864D01*
X974652Y115192D01*
X974800Y115229D01*
X974938Y115276D01*
X975068Y115322D01*
X975188Y115368D01*
X975299Y115423D01*
X975391Y115479D01*
X975484Y115544D01*
X975567Y115599D01*
X975641Y115645D01*
X975696Y115701D01*
X975752Y115747D01*
X975798Y115784D01*
X975826Y115821D01*
X975854Y115849D01*
X975863Y115858D01*
X975872Y115867D01*
X975946Y115960D01*
X976002Y116061D01*
X976103Y116265D01*
X976177Y116459D01*
X976224Y116653D01*
X976261Y116820D01*
X976270Y116884D01*
Y116949D01*
X976279Y117004D01*
Y117069D01*
X976270Y117282D01*
X976233Y117485D01*
X976187Y117670D01*
X976131Y117837D01*
X976076Y117966D01*
X976048Y118022D01*
X976029Y118068D01*
X976011Y118105D01*
X975992Y118132D01*
X975983Y118151D01*
Y118160D01*
X975854Y118336D01*
X975715Y118484D01*
X975558Y118613D01*
X975410Y118715D01*
X975280Y118798D01*
X975170Y118854D01*
X975123Y118872D01*
X975096Y118891D01*
X975077Y118900D01*
X975068D01*
X974827Y118974D01*
X974587Y119029D01*
X974347Y119076D01*
X974125Y119103D01*
X974023Y119113D01*
X973931Y119122D01*
X973847D01*
X973783Y119131D01*
X973727D01*
X973681D01*
X973653D01*
X973644D01*
X973404Y119122D01*
X973182Y119103D01*
X972978Y119066D01*
X972793Y119029D01*
X972636Y119002D01*
X972571Y118983D01*
X972516Y118965D01*
X972470Y118955D01*
X972442Y118946D01*
X972424Y118937D01*
X972414D01*
X972202Y118844D01*
X972008Y118743D01*
X971850Y118632D01*
X971712Y118512D01*
X971601Y118410D01*
X971527Y118327D01*
X971480Y118262D01*
X971462Y118253D01*
Y118244D01*
X971342Y118049D01*
X971249Y117837D01*
X971185Y117633D01*
X971148Y117439D01*
X971120Y117263D01*
X971111Y117190D01*
Y117125D01*
X971101Y117079D01*
Y117004D01*
X971111Y116773D01*
X971148Y116561D01*
X971203Y116385D01*
X971259Y116228D01*
X971323Y116108D01*
X971370Y116015D01*
X971406Y115960D01*
X971425Y115941D01*
X971564Y115793D01*
X971721Y115655D01*
X971887Y115544D01*
X972054Y115451D01*
X972202Y115377D01*
X972276Y115350D01*
X972331Y115331D01*
X972377Y115313D01*
X972414Y115294D01*
X972433Y115285D01*
X972442D01*
X972248Y114453D01*
X972082Y114508D01*
X971934Y114564D01*
X971795Y114638D01*
X971656Y114702D01*
X971536Y114776D01*
X971425Y114860D01*
X971314Y114934D01*
X971222Y115007D01*
X971148Y115082D01*
X971074Y115146D01*
X971009Y115211D01*
X970963Y115257D01*
X970917Y115303D01*
X970889Y115340D01*
X970880Y115359D01*
X970870Y115368D01*
X970787Y115498D01*
X970704Y115627D01*
X970639Y115756D01*
X970584Y115895D01*
X970500Y116172D01*
X970445Y116422D01*
X970417Y116542D01*
X970408Y116644D01*
X970399Y116746D01*
X970389Y116829D01*
X970380Y116894D01*
Y116986D01*
X970399Y117291D01*
X970445Y117587D01*
X970500Y117846D01*
X970537Y117966D01*
X970574Y118077D01*
X970611Y118179D01*
X970648Y118271D01*
X970676Y118345D01*
X970704Y118419D01*
X970732Y118465D01*
X970750Y118502D01*
X970759Y118530D01*
X970769Y118539D01*
X970926Y118789D01*
X971111Y119002D01*
X971296Y119186D01*
X971480Y119344D01*
X971647Y119464D01*
X971721Y119510D01*
X971786Y119547D01*
X971832Y119584D01*
X971869Y119603D01*
X971897Y119612D01*
X971906Y119621D01*
X972192Y119750D01*
X972488Y119843D01*
X972784Y119908D01*
X973052Y119954D01*
X973173Y119972D01*
X973293Y119982D01*
X973385Y119991D01*
X973478D01*
X973542Y120000D01*
X973598D01*
X973635D01*
X973644D01*
X973977Y119982D01*
D02*
G37*
G36*
X975364Y113602D02*
X975502Y113574D01*
X975761Y113491D01*
X975983Y113390D01*
X976085Y113334D01*
X976168Y113279D01*
X976251Y113232D01*
X976325Y113177D01*
X976381Y113131D01*
X976427Y113084D01*
X976464Y113047D01*
X976501Y113029D01*
X976510Y113010D01*
X976519Y113001D01*
X976603Y112890D01*
X976676Y112779D01*
X976741Y112659D01*
X976797Y112539D01*
X976880Y112308D01*
X976935Y112077D01*
X976963Y111975D01*
X976972Y111873D01*
X976982Y111790D01*
X976991Y111716D01*
X977000Y111651D01*
Y111568D01*
X976991Y111374D01*
X976963Y111189D01*
X976926Y111013D01*
X976880Y110856D01*
X976815Y110708D01*
X976750Y110570D01*
X976686Y110440D01*
X976612Y110329D01*
X976538Y110227D01*
X976473Y110135D01*
X976399Y110061D01*
X976344Y109996D01*
X976298Y109950D01*
X976261Y109913D01*
X976233Y109895D01*
X976224Y109885D01*
X976103Y109793D01*
X975974Y109719D01*
X975854Y109645D01*
X975724Y109590D01*
X975475Y109497D01*
X975234Y109442D01*
X975133Y109423D01*
X975031Y109405D01*
X974948Y109395D01*
X974874Y109386D01*
X974809Y109377D01*
X974763D01*
X974735D01*
X974726D01*
X974559Y109386D01*
X974402Y109405D01*
X974245Y109432D01*
X974106Y109469D01*
X973977Y109516D01*
X973847Y109562D01*
X973736Y109617D01*
X973635Y109663D01*
X973542Y109719D01*
X973459Y109775D01*
X973394Y109821D01*
X973330Y109867D01*
X973283Y109904D01*
X973256Y109932D01*
X973237Y109950D01*
X973228Y109959D01*
X973126Y110070D01*
X973034Y110181D01*
X972960Y110302D01*
X972895Y110422D01*
X972830Y110542D01*
X972784Y110662D01*
X972719Y110884D01*
X972692Y110986D01*
X972673Y111078D01*
X972664Y111161D01*
X972655Y111235D01*
X972645Y111291D01*
Y111494D01*
X972664Y111605D01*
X972710Y111827D01*
X972775Y112030D01*
X972849Y112215D01*
X972923Y112363D01*
X972960Y112428D01*
X972988Y112483D01*
X973015Y112530D01*
X973034Y112557D01*
X973043Y112576D01*
X973052Y112585D01*
X971323Y112243D01*
Y109682D01*
X970574D01*
Y112863D01*
X973866Y113482D01*
X973968Y112742D01*
X973866Y112678D01*
X973783Y112594D01*
X973699Y112520D01*
X973635Y112446D01*
X973588Y112373D01*
X973542Y112317D01*
X973524Y112280D01*
X973514Y112271D01*
X973459Y112151D01*
X973413Y112030D01*
X973385Y111919D01*
X973357Y111809D01*
X973348Y111716D01*
X973339Y111642D01*
Y111466D01*
X973357Y111355D01*
X973404Y111161D01*
X973468Y110995D01*
X973533Y110847D01*
X973607Y110736D01*
X973672Y110653D01*
X973718Y110607D01*
X973727Y110588D01*
X973736D01*
X973894Y110459D01*
X974060Y110366D01*
X974236Y110302D01*
X974411Y110255D01*
X974559Y110227D01*
X974624Y110218D01*
X974679D01*
X974726Y110209D01*
X974763D01*
X974781D01*
X974790D01*
X974920D01*
X975040Y110227D01*
X975271Y110274D01*
X975465Y110338D01*
X975622Y110403D01*
X975752Y110477D01*
X975854Y110542D01*
X975881Y110570D01*
X975909Y110588D01*
X975918Y110597D01*
X975928Y110607D01*
X976002Y110681D01*
X976066Y110754D01*
X976177Y110921D01*
X976251Y111078D01*
X976298Y111235D01*
X976334Y111365D01*
X976344Y111476D01*
X976353Y111513D01*
Y111568D01*
X976344Y111744D01*
X976307Y111901D01*
X976261Y112040D01*
X976205Y112151D01*
X976150Y112252D01*
X976103Y112326D01*
X976066Y112363D01*
X976057Y112382D01*
X975928Y112493D01*
X975789Y112585D01*
X975632Y112659D01*
X975493Y112715D01*
X975354Y112752D01*
X975253Y112779D01*
X975207Y112788D01*
X975179Y112798D01*
X975160D01*
X975151D01*
X975216Y113621D01*
X975364Y113602D01*
D02*
G37*
G36*
X972803Y108637D02*
X972960Y108619D01*
X973117Y108600D01*
X973265Y108563D01*
X973394Y108517D01*
X973524Y108471D01*
X973635Y108425D01*
X973736Y108369D01*
X973829Y108323D01*
X973912Y108277D01*
X973977Y108230D01*
X974042Y108184D01*
X974088Y108147D01*
X974116Y108129D01*
X974134Y108110D01*
X974143Y108101D01*
X974245Y107999D01*
X974328Y107888D01*
X974411Y107777D01*
X974476Y107657D01*
X974532Y107546D01*
X974578Y107435D01*
X974642Y107223D01*
X974670Y107130D01*
X974689Y107038D01*
X974698Y106964D01*
X974707Y106890D01*
X974716Y106834D01*
Y106760D01*
X974707Y106585D01*
X974679Y106418D01*
X974642Y106270D01*
X974596Y106132D01*
X974559Y106030D01*
X974522Y105947D01*
X974495Y105891D01*
X974485Y105873D01*
X974393Y105725D01*
X974291Y105596D01*
X974190Y105485D01*
X974097Y105392D01*
X974005Y105327D01*
X973940Y105272D01*
X973894Y105235D01*
X973875Y105226D01*
X973949D01*
X973995D01*
X974023D01*
X974032D01*
X974217Y105235D01*
X974393Y105244D01*
X974550Y105263D01*
X974698Y105281D01*
X974818Y105309D01*
X974911Y105327D01*
X974948Y105337D01*
X974975D01*
X974985Y105346D01*
X974994D01*
X975160Y105392D01*
X975308Y105438D01*
X975438Y105485D01*
X975549Y105531D01*
X975632Y105568D01*
X975696Y105605D01*
X975743Y105623D01*
X975752Y105632D01*
X975854Y105706D01*
X975937Y105780D01*
X976011Y105854D01*
X976076Y105928D01*
X976131Y105984D01*
X976168Y106039D01*
X976187Y106076D01*
X976196Y106086D01*
X976251Y106187D01*
X976288Y106298D01*
X976316Y106400D01*
X976334Y106502D01*
X976344Y106585D01*
X976353Y106650D01*
Y106714D01*
X976344Y106862D01*
X976316Y107001D01*
X976279Y107121D01*
X976233Y107223D01*
X976196Y107297D01*
X976159Y107361D01*
X976131Y107398D01*
X976122Y107408D01*
X976020Y107500D01*
X975900Y107574D01*
X975770Y107639D01*
X975641Y107685D01*
X975530Y107722D01*
X975428Y107750D01*
X975391Y107759D01*
X975373D01*
X975354Y107768D01*
X975345D01*
X975410Y108526D01*
X975678Y108471D01*
X975909Y108397D01*
X976113Y108304D01*
X976279Y108212D01*
X976408Y108119D01*
X976464Y108073D01*
X976510Y108036D01*
X976538Y108009D01*
X976566Y107981D01*
X976575Y107972D01*
X976584Y107962D01*
X976658Y107870D01*
X976723Y107768D01*
X976824Y107565D01*
X976898Y107361D01*
X976945Y107167D01*
X976982Y106992D01*
X976991Y106918D01*
Y106853D01*
X977000Y106807D01*
Y106733D01*
X976982Y106474D01*
X976945Y106243D01*
X976880Y106030D01*
X976806Y105854D01*
X976778Y105780D01*
X976741Y105706D01*
X976704Y105651D01*
X976676Y105596D01*
X976658Y105559D01*
X976640Y105531D01*
X976621Y105512D01*
Y105503D01*
X976464Y105318D01*
X976288Y105152D01*
X976103Y105022D01*
X975928Y104911D01*
X975770Y104819D01*
X975696Y104782D01*
X975641Y104754D01*
X975586Y104736D01*
X975549Y104717D01*
X975530Y104708D01*
X975521D01*
X975382Y104662D01*
X975225Y104615D01*
X974911Y104551D01*
X974578Y104504D01*
X974263Y104477D01*
X974125Y104458D01*
X973986Y104449D01*
X973866D01*
X973764Y104440D01*
X973681D01*
X973616D01*
X973570D01*
X973561D01*
X973348D01*
X973145Y104449D01*
X972960Y104467D01*
X972784Y104486D01*
X972627Y104504D01*
X972479Y104523D01*
X972340Y104551D01*
X972220Y104579D01*
X972119Y104606D01*
X972026Y104625D01*
X971943Y104652D01*
X971878Y104671D01*
X971832Y104689D01*
X971795Y104708D01*
X971776Y104717D01*
X971767D01*
X971545Y104828D01*
X971351Y104948D01*
X971185Y105087D01*
X971046Y105207D01*
X970944Y105327D01*
X970870Y105420D01*
X970843Y105457D01*
X970824Y105485D01*
X970806Y105494D01*
Y105503D01*
X970695Y105697D01*
X970611Y105891D01*
X970547Y106086D01*
X970510Y106261D01*
X970482Y106418D01*
X970473Y106483D01*
Y106529D01*
X970463Y106575D01*
Y106640D01*
X970473Y106797D01*
X970491Y106945D01*
X970519Y107093D01*
X970556Y107223D01*
X970658Y107472D01*
X970704Y107583D01*
X970759Y107676D01*
X970824Y107768D01*
X970870Y107842D01*
X970926Y107916D01*
X970972Y107972D01*
X971009Y108018D01*
X971037Y108046D01*
X971055Y108064D01*
X971065Y108073D01*
X971175Y108175D01*
X971305Y108258D01*
X971425Y108341D01*
X971554Y108406D01*
X971693Y108462D01*
X971823Y108508D01*
X972063Y108573D01*
X972183Y108600D01*
X972285Y108619D01*
X972387Y108628D01*
X972470Y108637D01*
X972534Y108646D01*
X972581D01*
X972618D01*
X972627D01*
X972803Y108637D01*
D02*
G37*
G36*
X1675271Y947248D02*
X1675262Y947035D01*
X1675253Y946841D01*
X1675235Y946665D01*
X1675216Y946517D01*
X1675197Y946388D01*
X1675188Y946296D01*
X1675179Y946268D01*
X1675170Y946240D01*
Y946222D01*
X1675123Y946055D01*
X1675068Y945907D01*
X1675022Y945778D01*
X1674966Y945667D01*
X1674920Y945574D01*
X1674883Y945510D01*
X1674855Y945473D01*
X1674846Y945454D01*
X1674763Y945334D01*
X1674661Y945232D01*
X1674569Y945131D01*
X1674476Y945047D01*
X1674393Y944973D01*
X1674328Y944918D01*
X1674282Y944881D01*
X1674264Y944872D01*
X1674116Y944779D01*
X1673959Y944687D01*
X1673811Y944613D01*
X1673663Y944557D01*
X1673533Y944502D01*
X1673432Y944465D01*
X1673395Y944456D01*
X1673367Y944446D01*
X1673348Y944437D01*
X1673339D01*
X1673117Y944382D01*
X1672895Y944335D01*
X1672683Y944308D01*
X1672479Y944280D01*
X1672304Y944271D01*
X1672230D01*
X1672165Y944261D01*
X1672119D01*
X1672072D01*
X1672054D01*
X1672045D01*
X1671730Y944271D01*
X1671444Y944298D01*
X1671185Y944345D01*
X1671065Y944363D01*
X1670963Y944391D01*
X1670861Y944419D01*
X1670778Y944437D01*
X1670704Y944456D01*
X1670639Y944483D01*
X1670584Y944493D01*
X1670547Y944511D01*
X1670529Y944520D01*
X1670519D01*
X1670279Y944622D01*
X1670066Y944742D01*
X1669881Y944872D01*
X1669724Y944992D01*
X1669595Y945103D01*
X1669502Y945195D01*
X1669474Y945232D01*
X1669447Y945260D01*
X1669438Y945269D01*
X1669428Y945279D01*
X1669308Y945426D01*
X1669216Y945584D01*
X1669132Y945741D01*
X1669068Y945889D01*
X1669021Y946018D01*
X1668994Y946120D01*
X1668975Y946157D01*
Y946185D01*
X1668966Y946203D01*
Y946212D01*
X1668938Y946369D01*
X1668911Y946554D01*
X1668892Y946739D01*
X1668883Y946924D01*
X1668873Y947091D01*
Y949550D01*
X1675271D01*
Y947248D01*
D02*
G37*
G36*
X1673746Y943402D02*
X1673885Y943374D01*
X1674144Y943291D01*
X1674365Y943189D01*
X1674467Y943134D01*
X1674550Y943078D01*
X1674633Y943032D01*
X1674707Y942976D01*
X1674763Y942930D01*
X1674809Y942884D01*
X1674846Y942847D01*
X1674883Y942829D01*
X1674892Y942810D01*
X1674902Y942801D01*
X1674985Y942690D01*
X1675059Y942579D01*
X1675123Y942459D01*
X1675179Y942338D01*
X1675262Y942107D01*
X1675318Y941876D01*
X1675345Y941775D01*
X1675355Y941673D01*
X1675364Y941590D01*
X1675373Y941516D01*
X1675382Y941451D01*
Y941368D01*
X1675373Y941173D01*
X1675345Y940989D01*
X1675308Y940813D01*
X1675262Y940656D01*
X1675197Y940508D01*
X1675133Y940369D01*
X1675068Y940240D01*
X1674994Y940129D01*
X1674920Y940027D01*
X1674855Y939935D01*
X1674781Y939861D01*
X1674726Y939796D01*
X1674680Y939750D01*
X1674643Y939713D01*
X1674615Y939694D01*
X1674606Y939685D01*
X1674486Y939593D01*
X1674356Y939519D01*
X1674236Y939445D01*
X1674106Y939389D01*
X1673857Y939297D01*
X1673616Y939241D01*
X1673515Y939223D01*
X1673413Y939204D01*
X1673330Y939195D01*
X1673256Y939186D01*
X1673191Y939176D01*
X1673145D01*
X1673117D01*
X1673108D01*
X1672942Y939186D01*
X1672784Y939204D01*
X1672627Y939232D01*
X1672489Y939269D01*
X1672359Y939315D01*
X1672230Y939361D01*
X1672119Y939417D01*
X1672017Y939463D01*
X1671924Y939519D01*
X1671841Y939574D01*
X1671777Y939620D01*
X1671712Y939667D01*
X1671666Y939704D01*
X1671638Y939731D01*
X1671619Y939750D01*
X1671610Y939759D01*
X1671508Y939870D01*
X1671416Y939981D01*
X1671342Y940101D01*
X1671277Y940221D01*
X1671213Y940341D01*
X1671166Y940462D01*
X1671102Y940684D01*
X1671074Y940785D01*
X1671055Y940878D01*
X1671046Y940961D01*
X1671037Y941035D01*
X1671028Y941090D01*
Y941294D01*
X1671046Y941405D01*
X1671092Y941627D01*
X1671157Y941830D01*
X1671231Y942015D01*
X1671305Y942163D01*
X1671342Y942227D01*
X1671370Y942283D01*
X1671398Y942329D01*
X1671416Y942357D01*
X1671425Y942375D01*
X1671434Y942385D01*
X1669706Y942043D01*
Y939482D01*
X1668957D01*
Y942662D01*
X1672248Y943281D01*
X1672350Y942542D01*
X1672248Y942477D01*
X1672165Y942394D01*
X1672082Y942320D01*
X1672017Y942246D01*
X1671971Y942172D01*
X1671924Y942117D01*
X1671906Y942080D01*
X1671897Y942070D01*
X1671841Y941950D01*
X1671795Y941830D01*
X1671767Y941719D01*
X1671740Y941608D01*
X1671730Y941516D01*
X1671721Y941442D01*
Y941266D01*
X1671740Y941155D01*
X1671786Y940961D01*
X1671851Y940794D01*
X1671915Y940647D01*
X1671989Y940536D01*
X1672054Y940452D01*
X1672100Y940406D01*
X1672110Y940388D01*
X1672119D01*
X1672276Y940258D01*
X1672442Y940166D01*
X1672618Y940101D01*
X1672794Y940055D01*
X1672942Y940027D01*
X1673006Y940018D01*
X1673062D01*
X1673108Y940009D01*
X1673145D01*
X1673163D01*
X1673173D01*
X1673302D01*
X1673422Y940027D01*
X1673654Y940073D01*
X1673848Y940138D01*
X1674005Y940203D01*
X1674134Y940277D01*
X1674236Y940341D01*
X1674264Y940369D01*
X1674291Y940388D01*
X1674301Y940397D01*
X1674310Y940406D01*
X1674384Y940480D01*
X1674449Y940554D01*
X1674559Y940721D01*
X1674633Y940878D01*
X1674680Y941035D01*
X1674717Y941164D01*
X1674726Y941275D01*
X1674735Y941312D01*
Y941368D01*
X1674726Y941543D01*
X1674689Y941701D01*
X1674643Y941839D01*
X1674587Y941950D01*
X1674532Y942052D01*
X1674486Y942126D01*
X1674449Y942163D01*
X1674439Y942181D01*
X1674310Y942292D01*
X1674171Y942385D01*
X1674014Y942459D01*
X1673875Y942514D01*
X1673737Y942551D01*
X1673635Y942579D01*
X1673589Y942588D01*
X1673561Y942597D01*
X1673542D01*
X1673533D01*
X1673598Y943420D01*
X1673746Y943402D01*
D02*
G37*
G36*
X142992Y605064D02*
X140153D01*
Y603973D01*
X140162Y603871D01*
Y603797D01*
X140172Y603732D01*
X140181Y603686D01*
Y603649D01*
X140190Y603630D01*
Y603621D01*
X140236Y603473D01*
X140264Y603409D01*
X140292Y603353D01*
X140320Y603298D01*
X140338Y603261D01*
X140347Y603242D01*
X140357Y603233D01*
X140412Y603159D01*
X140477Y603085D01*
X140616Y602946D01*
X140680Y602882D01*
X140736Y602835D01*
X140773Y602808D01*
X140782Y602798D01*
X140911Y602706D01*
X141050Y602604D01*
X141198Y602503D01*
X141337Y602401D01*
X141466Y602318D01*
X141568Y602253D01*
X141605Y602225D01*
X141632Y602207D01*
X141651Y602188D01*
X141660D01*
X142992Y601347D01*
Y600293D01*
X141253Y601393D01*
X141068Y601522D01*
X140902Y601643D01*
X140763Y601763D01*
X140634Y601865D01*
X140541Y601957D01*
X140468Y602031D01*
X140421Y602077D01*
X140403Y602096D01*
X140347Y602170D01*
X140283Y602253D01*
X140181Y602419D01*
X140144Y602493D01*
X140107Y602549D01*
X140089Y602586D01*
X140079Y602604D01*
X140051Y602438D01*
X140024Y602281D01*
X139978Y602142D01*
X139941Y602003D01*
X139894Y601883D01*
X139839Y601772D01*
X139793Y601670D01*
X139746Y601578D01*
X139691Y601504D01*
X139645Y601430D01*
X139608Y601375D01*
X139571Y601328D01*
X139543Y601291D01*
X139515Y601264D01*
X139506Y601254D01*
X139497Y601245D01*
X139404Y601171D01*
X139312Y601097D01*
X139118Y600986D01*
X138924Y600912D01*
X138739Y600857D01*
X138581Y600820D01*
X138517Y600811D01*
X138452D01*
X138406Y600801D01*
X138369D01*
X138350D01*
X138341D01*
X138147Y600811D01*
X137971Y600838D01*
X137805Y600885D01*
X137666Y600931D01*
X137546Y600986D01*
X137453Y601023D01*
X137398Y601060D01*
X137389Y601069D01*
X137380D01*
X137232Y601180D01*
X137102Y601291D01*
X136991Y601412D01*
X136908Y601522D01*
X136843Y601624D01*
X136806Y601707D01*
X136779Y601763D01*
X136769Y601772D01*
Y601781D01*
X136742Y601865D01*
X136714Y601966D01*
X136668Y602170D01*
X136640Y602392D01*
X136612Y602595D01*
X136603Y602789D01*
Y602872D01*
X136594Y602946D01*
Y605914D01*
X142992D01*
Y605064D01*
D02*
G37*
G36*
X141448Y599766D02*
X141586Y599738D01*
X141845Y599655D01*
X142067Y599553D01*
X142160Y599498D01*
X142252Y599442D01*
X142335Y599387D01*
X142400Y599331D01*
X142465Y599285D01*
X142511Y599239D01*
X142548Y599211D01*
X142576Y599183D01*
X142594Y599165D01*
X142603Y599156D01*
X142687Y599045D01*
X142770Y598934D01*
X142834Y598823D01*
X142890Y598703D01*
X142982Y598471D01*
X143038Y598250D01*
X143056Y598148D01*
X143075Y598055D01*
X143084Y597972D01*
X143093Y597898D01*
X143103Y597843D01*
Y597760D01*
X143093Y597584D01*
X143075Y597427D01*
X143047Y597270D01*
X143010Y597122D01*
X142964Y596983D01*
X142918Y596863D01*
X142862Y596743D01*
X142807Y596641D01*
X142760Y596539D01*
X142705Y596456D01*
X142659Y596382D01*
X142612Y596326D01*
X142576Y596280D01*
X142548Y596243D01*
X142529Y596225D01*
X142520Y596216D01*
X142409Y596105D01*
X142289Y596012D01*
X142169Y595929D01*
X142049Y595855D01*
X141938Y595799D01*
X141817Y595744D01*
X141595Y595670D01*
X141494Y595652D01*
X141401Y595633D01*
X141318Y595615D01*
X141244Y595605D01*
X141189Y595596D01*
X141143D01*
X141115D01*
X141105D01*
X140884Y595605D01*
X140680Y595642D01*
X140505Y595698D01*
X140357Y595753D01*
X140236Y595809D01*
X140144Y595864D01*
X140089Y595901D01*
X140070Y595910D01*
X139931Y596040D01*
X139811Y596179D01*
X139719Y596326D01*
X139645Y596474D01*
X139589Y596604D01*
X139552Y596706D01*
X139543Y596743D01*
X139534Y596770D01*
X139524Y596789D01*
Y596798D01*
X139441Y596641D01*
X139358Y596511D01*
X139266Y596400D01*
X139182Y596308D01*
X139108Y596234D01*
X139044Y596179D01*
X139007Y596151D01*
X138988Y596142D01*
X138859Y596068D01*
X138729Y596012D01*
X138600Y595966D01*
X138480Y595938D01*
X138378Y595920D01*
X138304Y595910D01*
X138249D01*
X138230D01*
X138073Y595920D01*
X137916Y595947D01*
X137777Y595984D01*
X137657Y596031D01*
X137555Y596077D01*
X137472Y596114D01*
X137426Y596142D01*
X137407Y596151D01*
X137269Y596243D01*
X137148Y596354D01*
X137047Y596465D01*
X136954Y596576D01*
X136889Y596669D01*
X136834Y596752D01*
X136806Y596807D01*
X136797Y596816D01*
Y596826D01*
X136723Y596992D01*
X136668Y597159D01*
X136621Y597325D01*
X136594Y597473D01*
X136575Y597593D01*
X136566Y597695D01*
Y597926D01*
X136584Y598055D01*
X136631Y598305D01*
X136705Y598518D01*
X136779Y598703D01*
X136825Y598786D01*
X136862Y598851D01*
X136899Y598915D01*
X136936Y598961D01*
X136964Y598998D01*
X136982Y599026D01*
X136991Y599045D01*
X137001Y599054D01*
X137176Y599230D01*
X137370Y599368D01*
X137574Y599479D01*
X137777Y599572D01*
X137953Y599627D01*
X138027Y599655D01*
X138091Y599673D01*
X138147Y599683D01*
X138184Y599692D01*
X138212Y599701D01*
X138221D01*
X138360Y598915D01*
X138156Y598878D01*
X137980Y598823D01*
X137833Y598758D01*
X137712Y598693D01*
X137620Y598629D01*
X137555Y598573D01*
X137509Y598536D01*
X137500Y598527D01*
X137407Y598407D01*
X137333Y598277D01*
X137287Y598157D01*
X137250Y598037D01*
X137232Y597926D01*
X137213Y597843D01*
Y597769D01*
X137222Y597602D01*
X137259Y597454D01*
X137306Y597325D01*
X137352Y597214D01*
X137407Y597131D01*
X137453Y597066D01*
X137491Y597020D01*
X137500Y597011D01*
X137611Y596909D01*
X137731Y596835D01*
X137851Y596789D01*
X137962Y596752D01*
X138064Y596733D01*
X138138Y596715D01*
X138193D01*
X138202D01*
X138212D01*
X138313D01*
X138406Y596733D01*
X138563Y596780D01*
X138702Y596844D01*
X138822Y596918D01*
X138905Y596992D01*
X138970Y597057D01*
X139007Y597103D01*
X139016Y597112D01*
Y597122D01*
X139099Y597279D01*
X139164Y597427D01*
X139210Y597584D01*
X139238Y597723D01*
X139256Y597843D01*
X139275Y597944D01*
Y598065D01*
X139266Y598102D01*
Y598148D01*
X139959Y598240D01*
X139931Y598120D01*
X139913Y598009D01*
X139894Y597917D01*
X139885Y597834D01*
X139876Y597769D01*
Y597686D01*
X139894Y597491D01*
X139931Y597316D01*
X139987Y597159D01*
X140051Y597029D01*
X140116Y596927D01*
X140172Y596853D01*
X140209Y596807D01*
X140227Y596789D01*
X140366Y596669D01*
X140514Y596576D01*
X140662Y596511D01*
X140810Y596474D01*
X140930Y596447D01*
X141032Y596437D01*
X141068Y596428D01*
X141096D01*
X141115D01*
X141124D01*
X141327Y596447D01*
X141512Y596493D01*
X141670Y596548D01*
X141808Y596622D01*
X141919Y596696D01*
X142002Y596752D01*
X142058Y596798D01*
X142076Y596816D01*
X142206Y596964D01*
X142298Y597122D01*
X142363Y597279D01*
X142409Y597427D01*
X142437Y597556D01*
X142446Y597658D01*
X142455Y597695D01*
Y597750D01*
X142446Y597917D01*
X142409Y598074D01*
X142363Y598213D01*
X142307Y598324D01*
X142261Y598416D01*
X142215Y598490D01*
X142178Y598527D01*
X142169Y598545D01*
X142039Y598656D01*
X141891Y598749D01*
X141734Y598832D01*
X141568Y598897D01*
X141429Y598943D01*
X141364Y598961D01*
X141309Y598971D01*
X141263Y598980D01*
X141226Y598989D01*
X141207Y598998D01*
X141198D01*
X141300Y599784D01*
X141448Y599766D01*
D02*
G37*
G36*
X141300Y594819D02*
X141448Y594801D01*
X141586Y594773D01*
X141725Y594736D01*
X141956Y594644D01*
X142067Y594598D01*
X142160Y594542D01*
X142252Y594487D01*
X142326Y594440D01*
X142391Y594385D01*
X142446Y594348D01*
X142492Y594311D01*
X142520Y594283D01*
X142539Y594265D01*
X142548Y594255D01*
X142649Y594145D01*
X142733Y594024D01*
X142807Y593895D01*
X142871Y593765D01*
X142918Y593645D01*
X142964Y593516D01*
X143029Y593266D01*
X143056Y593155D01*
X143075Y593054D01*
X143084Y592961D01*
X143093Y592878D01*
X143103Y592813D01*
Y592721D01*
X143093Y592545D01*
X143075Y592388D01*
X143047Y592231D01*
X143019Y592083D01*
X142973Y591953D01*
X142927Y591824D01*
X142881Y591704D01*
X142825Y591602D01*
X142770Y591510D01*
X142724Y591426D01*
X142677Y591362D01*
X142631Y591297D01*
X142603Y591251D01*
X142576Y591223D01*
X142557Y591204D01*
X142548Y591195D01*
X142437Y591093D01*
X142326Y591001D01*
X142215Y590927D01*
X142095Y590862D01*
X141984Y590798D01*
X141864Y590751D01*
X141651Y590687D01*
X141549Y590659D01*
X141457Y590640D01*
X141374Y590631D01*
X141309Y590622D01*
X141253Y590613D01*
X141207D01*
X141180D01*
X141170D01*
X140958Y590622D01*
X140763Y590659D01*
X140588Y590714D01*
X140440Y590770D01*
X140320Y590825D01*
X140227Y590881D01*
X140172Y590918D01*
X140162Y590927D01*
X140153D01*
X140005Y591057D01*
X139876Y591195D01*
X139774Y591343D01*
X139682Y591482D01*
X139617Y591611D01*
X139571Y591722D01*
X139552Y591759D01*
X139543Y591787D01*
X139534Y591805D01*
Y591815D01*
X139460Y591648D01*
X139377Y591510D01*
X139293Y591389D01*
X139210Y591288D01*
X139136Y591214D01*
X139081Y591158D01*
X139044Y591121D01*
X139025Y591112D01*
X138896Y591029D01*
X138766Y590973D01*
X138637Y590927D01*
X138507Y590899D01*
X138406Y590881D01*
X138323Y590872D01*
X138267D01*
X138258D01*
X138249D01*
X138119Y590881D01*
X137999Y590890D01*
X137768Y590955D01*
X137564Y591038D01*
X137389Y591130D01*
X137250Y591223D01*
X137195Y591269D01*
X137139Y591306D01*
X137102Y591343D01*
X137074Y591371D01*
X137065Y591380D01*
X137056Y591389D01*
X136973Y591491D01*
X136889Y591593D01*
X136825Y591704D01*
X136769Y591815D01*
X136686Y592037D01*
X136631Y592258D01*
X136603Y592351D01*
X136594Y592443D01*
X136584Y592527D01*
X136575Y592601D01*
X136566Y592656D01*
Y592739D01*
X136575Y592887D01*
X136584Y593035D01*
X136640Y593294D01*
X136677Y593414D01*
X136714Y593525D01*
X136760Y593627D01*
X136806Y593719D01*
X136853Y593793D01*
X136899Y593867D01*
X136936Y593932D01*
X136973Y593978D01*
X137001Y594015D01*
X137028Y594043D01*
X137037Y594061D01*
X137047Y594071D01*
X137139Y594154D01*
X137232Y594237D01*
X137333Y594302D01*
X137435Y594357D01*
X137629Y594450D01*
X137814Y594505D01*
X137971Y594542D01*
X138045Y594551D01*
X138101Y594561D01*
X138156Y594570D01*
X138193D01*
X138212D01*
X138221D01*
X138387Y594561D01*
X138545Y594533D01*
X138683Y594496D01*
X138803Y594450D01*
X138896Y594413D01*
X138970Y594376D01*
X139007Y594348D01*
X139025Y594339D01*
X139136Y594237D01*
X139238Y594126D01*
X139330Y594006D01*
X139404Y593886D01*
X139460Y593775D01*
X139497Y593691D01*
X139515Y593655D01*
X139524Y593627D01*
X139534Y593618D01*
Y593608D01*
X139599Y593821D01*
X139682Y593997D01*
X139783Y594154D01*
X139876Y594283D01*
X139968Y594385D01*
X140042Y594459D01*
X140089Y594496D01*
X140098Y594514D01*
X140107D01*
X140273Y594616D01*
X140449Y594699D01*
X140616Y594755D01*
X140782Y594792D01*
X140930Y594810D01*
X140995Y594819D01*
X141050D01*
X141087Y594829D01*
X141124D01*
X141143D01*
X141152D01*
X141300Y594819D01*
D02*
G37*
G36*
X137889Y421150D02*
X135051D01*
Y420059D01*
X135060Y419957D01*
Y419883D01*
X135069Y419818D01*
X135078Y419772D01*
Y419735D01*
X135088Y419716D01*
Y419707D01*
X135134Y419559D01*
X135162Y419495D01*
X135189Y419439D01*
X135217Y419384D01*
X135236Y419347D01*
X135245Y419328D01*
X135254Y419319D01*
X135310Y419245D01*
X135374Y419171D01*
X135513Y419032D01*
X135578Y418968D01*
X135633Y418921D01*
X135670Y418894D01*
X135680Y418884D01*
X135809Y418792D01*
X135948Y418690D01*
X136096Y418588D01*
X136234Y418487D01*
X136364Y418404D01*
X136465Y418339D01*
X136502Y418311D01*
X136530Y418293D01*
X136549Y418274D01*
X136558D01*
X137889Y417433D01*
Y416379D01*
X136151Y417479D01*
X135966Y417608D01*
X135800Y417729D01*
X135661Y417849D01*
X135532Y417951D01*
X135439Y418043D01*
X135365Y418117D01*
X135319Y418163D01*
X135300Y418182D01*
X135245Y418256D01*
X135180Y418339D01*
X135078Y418505D01*
X135042Y418579D01*
X135005Y418635D01*
X134986Y418672D01*
X134977Y418690D01*
X134949Y418524D01*
X134921Y418367D01*
X134875Y418228D01*
X134838Y418089D01*
X134792Y417969D01*
X134736Y417858D01*
X134690Y417756D01*
X134644Y417664D01*
X134588Y417590D01*
X134542Y417516D01*
X134505Y417461D01*
X134468Y417414D01*
X134440Y417377D01*
X134413Y417350D01*
X134404Y417340D01*
X134394Y417331D01*
X134302Y417257D01*
X134209Y417183D01*
X134015Y417072D01*
X133821Y416998D01*
X133636Y416943D01*
X133479Y416906D01*
X133414Y416897D01*
X133350D01*
X133303Y416887D01*
X133266D01*
X133248D01*
X133239D01*
X133045Y416897D01*
X132869Y416924D01*
X132702Y416971D01*
X132564Y417017D01*
X132444Y417072D01*
X132351Y417109D01*
X132296Y417146D01*
X132286Y417155D01*
X132277D01*
X132129Y417266D01*
X132000Y417377D01*
X131889Y417498D01*
X131806Y417608D01*
X131741Y417710D01*
X131704Y417793D01*
X131676Y417849D01*
X131667Y417858D01*
Y417867D01*
X131639Y417951D01*
X131611Y418052D01*
X131565Y418256D01*
X131537Y418478D01*
X131510Y418681D01*
X131500Y418875D01*
Y418958D01*
X131491Y419032D01*
Y422000D01*
X137889D01*
Y421150D01*
D02*
G37*
G36*
X136345Y415852D02*
X136484Y415824D01*
X136743Y415741D01*
X136965Y415639D01*
X137057Y415584D01*
X137149Y415528D01*
X137233Y415473D01*
X137297Y415417D01*
X137362Y415371D01*
X137408Y415325D01*
X137445Y415297D01*
X137473Y415269D01*
X137492Y415251D01*
X137501Y415242D01*
X137584Y415131D01*
X137667Y415020D01*
X137732Y414909D01*
X137788Y414789D01*
X137880Y414557D01*
X137935Y414336D01*
X137954Y414234D01*
X137972Y414141D01*
X137982Y414058D01*
X137991Y413984D01*
X138000Y413929D01*
Y413846D01*
X137991Y413670D01*
X137972Y413513D01*
X137945Y413355D01*
X137908Y413208D01*
X137861Y413069D01*
X137815Y412949D01*
X137760Y412828D01*
X137704Y412727D01*
X137658Y412625D01*
X137603Y412542D01*
X137556Y412468D01*
X137510Y412412D01*
X137473Y412366D01*
X137445Y412329D01*
X137427Y412311D01*
X137418Y412301D01*
X137307Y412191D01*
X137186Y412098D01*
X137066Y412015D01*
X136946Y411941D01*
X136835Y411885D01*
X136715Y411830D01*
X136493Y411756D01*
X136391Y411738D01*
X136299Y411719D01*
X136216Y411701D01*
X136142Y411691D01*
X136086Y411682D01*
X136040D01*
X136012D01*
X136003D01*
X135781Y411691D01*
X135578Y411728D01*
X135402Y411784D01*
X135254Y411839D01*
X135134Y411895D01*
X135042Y411950D01*
X134986Y411987D01*
X134967Y411996D01*
X134829Y412126D01*
X134709Y412265D01*
X134616Y412412D01*
X134542Y412560D01*
X134487Y412690D01*
X134450Y412792D01*
X134440Y412828D01*
X134431Y412856D01*
X134422Y412875D01*
Y412884D01*
X134339Y412727D01*
X134256Y412597D01*
X134163Y412486D01*
X134080Y412394D01*
X134006Y412320D01*
X133941Y412265D01*
X133904Y412237D01*
X133886Y412228D01*
X133756Y412154D01*
X133627Y412098D01*
X133497Y412052D01*
X133377Y412024D01*
X133276Y412006D01*
X133202Y411996D01*
X133146D01*
X133128D01*
X132971Y412006D01*
X132813Y412033D01*
X132675Y412070D01*
X132554Y412117D01*
X132453Y412163D01*
X132369Y412200D01*
X132323Y412228D01*
X132305Y412237D01*
X132166Y412329D01*
X132046Y412440D01*
X131944Y412551D01*
X131852Y412662D01*
X131787Y412755D01*
X131732Y412838D01*
X131704Y412893D01*
X131695Y412902D01*
Y412912D01*
X131621Y413078D01*
X131565Y413245D01*
X131519Y413411D01*
X131491Y413559D01*
X131473Y413679D01*
X131463Y413781D01*
Y414012D01*
X131482Y414141D01*
X131528Y414391D01*
X131602Y414604D01*
X131676Y414789D01*
X131722Y414872D01*
X131759Y414936D01*
X131796Y415001D01*
X131833Y415047D01*
X131861Y415084D01*
X131880Y415112D01*
X131889Y415131D01*
X131898Y415140D01*
X132074Y415316D01*
X132268Y415454D01*
X132471Y415565D01*
X132675Y415658D01*
X132850Y415713D01*
X132924Y415741D01*
X132989Y415759D01*
X133045Y415769D01*
X133081Y415778D01*
X133109Y415787D01*
X133118D01*
X133257Y415001D01*
X133054Y414964D01*
X132878Y414909D01*
X132730Y414844D01*
X132610Y414779D01*
X132517Y414715D01*
X132453Y414659D01*
X132407Y414622D01*
X132397Y414613D01*
X132305Y414493D01*
X132231Y414363D01*
X132185Y414243D01*
X132148Y414123D01*
X132129Y414012D01*
X132111Y413929D01*
Y413855D01*
X132120Y413688D01*
X132157Y413540D01*
X132203Y413411D01*
X132249Y413300D01*
X132305Y413217D01*
X132351Y413152D01*
X132388Y413106D01*
X132397Y413097D01*
X132508Y412995D01*
X132628Y412921D01*
X132749Y412875D01*
X132860Y412838D01*
X132961Y412819D01*
X133035Y412801D01*
X133091D01*
X133100D01*
X133109D01*
X133211D01*
X133303Y412819D01*
X133461Y412865D01*
X133599Y412930D01*
X133719Y413004D01*
X133803Y413078D01*
X133867Y413143D01*
X133904Y413189D01*
X133913Y413198D01*
Y413208D01*
X133997Y413365D01*
X134061Y413513D01*
X134108Y413670D01*
X134135Y413809D01*
X134154Y413929D01*
X134172Y414030D01*
Y414151D01*
X134163Y414188D01*
Y414234D01*
X134857Y414326D01*
X134829Y414206D01*
X134810Y414095D01*
X134792Y414003D01*
X134783Y413919D01*
X134773Y413855D01*
Y413772D01*
X134792Y413577D01*
X134829Y413402D01*
X134884Y413245D01*
X134949Y413115D01*
X135014Y413013D01*
X135069Y412939D01*
X135106Y412893D01*
X135125Y412875D01*
X135263Y412755D01*
X135411Y412662D01*
X135559Y412597D01*
X135707Y412560D01*
X135827Y412533D01*
X135929Y412523D01*
X135966Y412514D01*
X135994D01*
X136012D01*
X136021D01*
X136225Y412533D01*
X136410Y412579D01*
X136567Y412634D01*
X136706Y412708D01*
X136817Y412782D01*
X136900Y412838D01*
X136955Y412884D01*
X136974Y412902D01*
X137103Y413050D01*
X137196Y413208D01*
X137261Y413365D01*
X137307Y413513D01*
X137334Y413642D01*
X137344Y413744D01*
X137353Y413781D01*
Y413836D01*
X137344Y414003D01*
X137307Y414160D01*
X137261Y414299D01*
X137205Y414409D01*
X137159Y414502D01*
X137113Y414576D01*
X137076Y414613D01*
X137066Y414631D01*
X136937Y414742D01*
X136789Y414835D01*
X136632Y414918D01*
X136465Y414983D01*
X136327Y415029D01*
X136262Y415047D01*
X136207Y415057D01*
X136160Y415066D01*
X136123Y415075D01*
X136105Y415084D01*
X136096D01*
X136197Y415870D01*
X136345Y415852D01*
D02*
G37*
G36*
X135060Y410896D02*
X135365Y410878D01*
X135642Y410850D01*
X135901Y410804D01*
X136142Y410757D01*
X136354Y410702D01*
X136549Y410647D01*
X136715Y410591D01*
X136863Y410536D01*
X136992Y410471D01*
X137103Y410425D01*
X137186Y410378D01*
X137261Y410332D01*
X137307Y410304D01*
X137334Y410286D01*
X137344Y410277D01*
X137455Y410175D01*
X137556Y410064D01*
X137649Y409944D01*
X137723Y409824D01*
X137788Y409703D01*
X137843Y409583D01*
X137880Y409463D01*
X137917Y409352D01*
X137945Y409241D01*
X137963Y409140D01*
X137982Y409047D01*
X137991Y408973D01*
X138000Y408908D01*
Y408816D01*
X137982Y408566D01*
X137945Y408335D01*
X137880Y408141D01*
X137815Y407975D01*
X137751Y407836D01*
X137713Y407790D01*
X137686Y407743D01*
X137667Y407706D01*
X137649Y407679D01*
X137630Y407669D01*
Y407660D01*
X137473Y407494D01*
X137307Y407355D01*
X137122Y407235D01*
X136955Y407142D01*
X136798Y407068D01*
X136734Y407032D01*
X136669Y407013D01*
X136622Y406995D01*
X136586Y406976D01*
X136567Y406967D01*
X136558D01*
X136419Y406921D01*
X136280Y406884D01*
X135985Y406828D01*
X135680Y406782D01*
X135384Y406754D01*
X135254Y406745D01*
X135134Y406736D01*
X135023D01*
X134921Y406726D01*
X134847D01*
X134783D01*
X134746D01*
X134736D01*
X134561D01*
X134394Y406736D01*
X134246D01*
X134099Y406745D01*
X133969Y406763D01*
X133840Y406773D01*
X133729Y406782D01*
X133627Y406800D01*
X133534Y406810D01*
X133451Y406828D01*
X133387Y406837D01*
X133331Y406847D01*
X133285Y406856D01*
X133257Y406865D01*
X133239Y406874D01*
X133229D01*
X133026Y406930D01*
X132841Y406995D01*
X132684Y407068D01*
X132545Y407124D01*
X132425Y407189D01*
X132342Y407226D01*
X132296Y407263D01*
X132277Y407272D01*
X132138Y407374D01*
X132018Y407475D01*
X131917Y407586D01*
X131824Y407688D01*
X131759Y407780D01*
X131713Y407854D01*
X131685Y407901D01*
X131676Y407910D01*
Y407919D01*
X131602Y408067D01*
X131556Y408224D01*
X131519Y408372D01*
X131491Y408511D01*
X131473Y408631D01*
X131463Y408733D01*
Y408816D01*
X131482Y409066D01*
X131519Y409297D01*
X131584Y409491D01*
X131648Y409657D01*
X131722Y409796D01*
X131750Y409851D01*
X131787Y409898D01*
X131806Y409935D01*
X131824Y409962D01*
X131842Y409972D01*
Y409981D01*
X131990Y410147D01*
X132166Y410286D01*
X132342Y410406D01*
X132508Y410499D01*
X132665Y410573D01*
X132730Y410610D01*
X132795Y410628D01*
X132841Y410647D01*
X132878Y410665D01*
X132896Y410674D01*
X132906D01*
X133045Y410711D01*
X133183Y410748D01*
X133488Y410804D01*
X133793Y410850D01*
X134080Y410878D01*
X134219Y410887D01*
X134339Y410896D01*
X134450D01*
X134551Y410905D01*
X134626D01*
X134690D01*
X134727D01*
X134736D01*
X135060Y410896D01*
D02*
G37*
G36*
X1096000Y468149D02*
X1093162D01*
Y467058D01*
X1093171Y466957D01*
Y466883D01*
X1093180Y466818D01*
X1093189Y466772D01*
Y466735D01*
X1093199Y466716D01*
Y466707D01*
X1093245Y466559D01*
X1093273Y466494D01*
X1093300Y466439D01*
X1093328Y466384D01*
X1093347Y466347D01*
X1093356Y466328D01*
X1093365Y466319D01*
X1093421Y466245D01*
X1093485Y466171D01*
X1093624Y466032D01*
X1093689Y465967D01*
X1093744Y465921D01*
X1093781Y465894D01*
X1093790Y465884D01*
X1093920Y465792D01*
X1094059Y465690D01*
X1094206Y465588D01*
X1094345Y465487D01*
X1094475Y465404D01*
X1094576Y465339D01*
X1094613Y465311D01*
X1094641Y465293D01*
X1094660Y465274D01*
X1094669D01*
X1096000Y464433D01*
Y463379D01*
X1094262Y464479D01*
X1094077Y464608D01*
X1093911Y464729D01*
X1093772Y464849D01*
X1093643Y464950D01*
X1093550Y465043D01*
X1093476Y465117D01*
X1093430Y465163D01*
X1093411Y465182D01*
X1093356Y465256D01*
X1093291Y465339D01*
X1093189Y465505D01*
X1093152Y465579D01*
X1093115Y465635D01*
X1093097Y465672D01*
X1093088Y465690D01*
X1093060Y465524D01*
X1093032Y465367D01*
X1092986Y465228D01*
X1092949Y465089D01*
X1092903Y464969D01*
X1092847Y464858D01*
X1092801Y464756D01*
X1092755Y464664D01*
X1092699Y464590D01*
X1092653Y464516D01*
X1092616Y464460D01*
X1092579Y464414D01*
X1092551Y464377D01*
X1092524Y464350D01*
X1092514Y464340D01*
X1092505Y464331D01*
X1092413Y464257D01*
X1092320Y464183D01*
X1092126Y464072D01*
X1091932Y463998D01*
X1091747Y463943D01*
X1091590Y463906D01*
X1091525Y463896D01*
X1091460D01*
X1091414Y463887D01*
X1091377D01*
X1091359D01*
X1091350D01*
X1091155Y463896D01*
X1090980Y463924D01*
X1090813Y463970D01*
X1090675Y464017D01*
X1090554Y464072D01*
X1090462Y464109D01*
X1090406Y464146D01*
X1090397Y464155D01*
X1090388D01*
X1090240Y464266D01*
X1090111Y464377D01*
X1090000Y464497D01*
X1089917Y464608D01*
X1089852Y464710D01*
X1089815Y464793D01*
X1089787Y464849D01*
X1089778Y464858D01*
Y464867D01*
X1089750Y464950D01*
X1089722Y465052D01*
X1089676Y465256D01*
X1089648Y465477D01*
X1089621Y465681D01*
X1089611Y465875D01*
Y465958D01*
X1089602Y466032D01*
Y469000D01*
X1096000D01*
Y468149D01*
D02*
G37*
G36*
X1094465Y460365D02*
X1096000D01*
Y459579D01*
X1094465D01*
Y458710D01*
X1093744D01*
Y459579D01*
X1089602D01*
Y460217D01*
X1093744Y463148D01*
X1094465D01*
Y460365D01*
D02*
G37*
G36*
Y455391D02*
X1096000D01*
Y454605D01*
X1094465D01*
Y453736D01*
X1093744D01*
Y454605D01*
X1089602D01*
Y455243D01*
X1093744Y458173D01*
X1094465D01*
Y455391D01*
D02*
G37*
G36*
X985145Y68292D02*
X985339Y68255D01*
X985515Y68200D01*
X985663Y68144D01*
X985783Y68089D01*
X985875Y68033D01*
X985931Y67996D01*
X985940Y67987D01*
X985949D01*
X986097Y67857D01*
X986227Y67719D01*
X986328Y67571D01*
X986421Y67432D01*
X986485Y67303D01*
X986532Y67192D01*
X986550Y67155D01*
X986559Y67127D01*
X986569Y67109D01*
Y67099D01*
X986643Y67266D01*
X986726Y67404D01*
X986809Y67525D01*
X986892Y67626D01*
X986966Y67700D01*
X987022Y67756D01*
X987059Y67793D01*
X987077Y67802D01*
X987207Y67885D01*
X987336Y67941D01*
X987466Y67987D01*
X987595Y68015D01*
X987697Y68033D01*
X987780Y68042D01*
X987835D01*
X987844D01*
X987854D01*
X987983Y68033D01*
X988103Y68024D01*
X988335Y67959D01*
X988538Y67876D01*
X988714Y67784D01*
X988852Y67691D01*
X988908Y67645D01*
X988963Y67608D01*
X989000Y67571D01*
X989028Y67543D01*
X989037Y67534D01*
X989046Y67525D01*
X989130Y67423D01*
X989213Y67321D01*
X989278Y67210D01*
X989333Y67099D01*
X989416Y66877D01*
X989472Y66656D01*
X989500Y66563D01*
X989509Y66471D01*
X989518Y66388D01*
X989527Y66314D01*
X989537Y66258D01*
Y66175D01*
X989527Y66027D01*
X989518Y65879D01*
X989463Y65620D01*
X989426Y65500D01*
X989389Y65389D01*
X989342Y65287D01*
X989296Y65195D01*
X989250Y65121D01*
X989204Y65047D01*
X989167Y64982D01*
X989130Y64936D01*
X989102Y64899D01*
X989074Y64871D01*
X989065Y64853D01*
X989056Y64844D01*
X988963Y64760D01*
X988871Y64677D01*
X988769Y64612D01*
X988667Y64557D01*
X988473Y64464D01*
X988288Y64409D01*
X988131Y64372D01*
X988057Y64363D01*
X988002Y64353D01*
X987946Y64344D01*
X987909D01*
X987891D01*
X987881D01*
X987715Y64353D01*
X987558Y64381D01*
X987419Y64418D01*
X987299Y64464D01*
X987207Y64501D01*
X987133Y64538D01*
X987096Y64566D01*
X987077Y64575D01*
X986966Y64677D01*
X986864Y64788D01*
X986772Y64908D01*
X986698Y65028D01*
X986643Y65139D01*
X986606Y65223D01*
X986587Y65259D01*
X986578Y65287D01*
X986569Y65297D01*
Y65306D01*
X986504Y65093D01*
X986421Y64917D01*
X986319Y64760D01*
X986227Y64631D01*
X986134Y64529D01*
X986060Y64455D01*
X986014Y64418D01*
X986005Y64400D01*
X985995D01*
X985829Y64298D01*
X985653Y64215D01*
X985487Y64159D01*
X985321Y64122D01*
X985173Y64104D01*
X985108Y64095D01*
X985052D01*
X985015Y64085D01*
X984978D01*
X984960D01*
X984951D01*
X984803Y64095D01*
X984655Y64113D01*
X984516Y64141D01*
X984377Y64178D01*
X984146Y64270D01*
X984035Y64317D01*
X983943Y64372D01*
X983850Y64427D01*
X983776Y64474D01*
X983712Y64529D01*
X983656Y64566D01*
X983610Y64603D01*
X983582Y64631D01*
X983564Y64649D01*
X983555Y64658D01*
X983453Y64770D01*
X983370Y64890D01*
X983296Y65019D01*
X983231Y65149D01*
X983185Y65269D01*
X983139Y65398D01*
X983074Y65648D01*
X983046Y65759D01*
X983028Y65861D01*
X983018Y65953D01*
X983009Y66036D01*
X983000Y66101D01*
Y66193D01*
X983009Y66369D01*
X983028Y66526D01*
X983055Y66683D01*
X983083Y66831D01*
X983129Y66961D01*
X983176Y67090D01*
X983222Y67210D01*
X983277Y67312D01*
X983333Y67404D01*
X983379Y67488D01*
X983425Y67552D01*
X983471Y67617D01*
X983499Y67663D01*
X983527Y67691D01*
X983545Y67710D01*
X983555Y67719D01*
X983665Y67821D01*
X983776Y67913D01*
X983887Y67987D01*
X984008Y68052D01*
X984119Y68116D01*
X984239Y68163D01*
X984451Y68227D01*
X984553Y68255D01*
X984646Y68274D01*
X984729Y68283D01*
X984793Y68292D01*
X984849Y68301D01*
X984895D01*
X984923D01*
X984932D01*
X985145Y68292D01*
D02*
G37*
G36*
X985367Y62421D02*
X989509D01*
Y61783D01*
X985367Y58852D01*
X984646D01*
Y61635D01*
X983111D01*
Y62421D01*
X984646D01*
Y63290D01*
X985367D01*
Y62421D01*
D02*
G37*
G36*
X984849Y57521D02*
X985034Y57392D01*
X985200Y57271D01*
X985339Y57151D01*
X985468Y57049D01*
X985561Y56957D01*
X985635Y56883D01*
X985681Y56837D01*
X985700Y56818D01*
X985755Y56744D01*
X985820Y56661D01*
X985921Y56495D01*
X985958Y56421D01*
X985995Y56365D01*
X986014Y56328D01*
X986023Y56310D01*
X986051Y56476D01*
X986079Y56633D01*
X986125Y56772D01*
X986162Y56911D01*
X986208Y57031D01*
X986264Y57142D01*
X986310Y57244D01*
X986356Y57336D01*
X986412Y57410D01*
X986458Y57484D01*
X986495Y57539D01*
X986532Y57586D01*
X986559Y57623D01*
X986587Y57650D01*
X986596Y57660D01*
X986606Y57669D01*
X986698Y57743D01*
X986790Y57817D01*
X986985Y57928D01*
X987179Y58002D01*
X987364Y58057D01*
X987521Y58094D01*
X987586Y58103D01*
X987650D01*
X987697Y58113D01*
X987734D01*
X987752D01*
X987761D01*
X987955Y58103D01*
X988131Y58076D01*
X988298Y58029D01*
X988436Y57983D01*
X988556Y57928D01*
X988649Y57891D01*
X988704Y57854D01*
X988714Y57845D01*
X988723D01*
X988871Y57734D01*
X989000Y57623D01*
X989111Y57502D01*
X989194Y57392D01*
X989259Y57290D01*
X989296Y57207D01*
X989324Y57151D01*
X989333Y57142D01*
Y57133D01*
X989361Y57049D01*
X989389Y56948D01*
X989435Y56744D01*
X989463Y56522D01*
X989490Y56319D01*
X989500Y56125D01*
Y56042D01*
X989509Y55968D01*
Y53000D01*
X983111D01*
Y53850D01*
X985949D01*
Y54941D01*
X985940Y55043D01*
Y55117D01*
X985931Y55182D01*
X985921Y55228D01*
Y55265D01*
X985912Y55283D01*
Y55293D01*
X985866Y55441D01*
X985838Y55505D01*
X985810Y55561D01*
X985783Y55616D01*
X985764Y55653D01*
X985755Y55672D01*
X985746Y55681D01*
X985690Y55755D01*
X985626Y55829D01*
X985487Y55968D01*
X985422Y56032D01*
X985367Y56079D01*
X985330Y56106D01*
X985321Y56116D01*
X985191Y56208D01*
X985052Y56310D01*
X984904Y56411D01*
X984766Y56513D01*
X984636Y56596D01*
X984535Y56661D01*
X984498Y56689D01*
X984470Y56707D01*
X984451Y56726D01*
X984442D01*
X983111Y57567D01*
Y58621D01*
X984849Y57521D01*
D02*
G37*
G36*
X1229315Y478150D02*
X1228557D01*
Y481284D01*
X1228288Y481062D01*
X1228002Y480850D01*
X1227724Y480665D01*
X1227456Y480489D01*
X1227336Y480415D01*
X1227225Y480350D01*
X1227123Y480286D01*
X1227040Y480240D01*
X1226966Y480203D01*
X1226920Y480175D01*
X1226883Y480156D01*
X1226874Y480147D01*
X1226504Y479962D01*
X1226134Y479796D01*
X1225783Y479657D01*
X1225626Y479602D01*
X1225469Y479546D01*
X1225330Y479491D01*
X1225200Y479454D01*
X1225089Y479417D01*
X1224997Y479389D01*
X1224914Y479361D01*
X1224858Y479343D01*
X1224821Y479333D01*
X1224812D01*
X1224433Y479241D01*
X1224248Y479204D01*
X1224082Y479176D01*
X1223924Y479149D01*
X1223767Y479121D01*
X1223638Y479102D01*
X1223508Y479084D01*
X1223398Y479075D01*
X1223296Y479065D01*
X1223203Y479056D01*
X1223129D01*
X1223074Y479047D01*
X1223037D01*
X1223009D01*
X1223000D01*
Y479851D01*
X1223351Y479879D01*
X1223675Y479925D01*
X1223971Y479971D01*
X1224109Y479999D01*
X1224239Y480027D01*
X1224350Y480045D01*
X1224451Y480073D01*
X1224544Y480092D01*
X1224618Y480110D01*
X1224673Y480129D01*
X1224720Y480138D01*
X1224747Y480147D01*
X1224757D01*
X1225182Y480286D01*
X1225579Y480434D01*
X1225774Y480508D01*
X1225958Y480582D01*
X1226125Y480665D01*
X1226291Y480739D01*
X1226439Y480803D01*
X1226569Y480868D01*
X1226680Y480924D01*
X1226781Y480970D01*
X1226865Y481016D01*
X1226920Y481044D01*
X1226957Y481062D01*
X1226966Y481072D01*
X1227160Y481183D01*
X1227355Y481294D01*
X1227530Y481404D01*
X1227697Y481515D01*
X1227845Y481617D01*
X1227992Y481719D01*
X1228122Y481821D01*
X1228233Y481904D01*
X1228344Y481987D01*
X1228436Y482061D01*
X1228510Y482135D01*
X1228575Y482190D01*
X1228631Y482227D01*
X1228667Y482264D01*
X1228686Y482283D01*
X1228695Y482292D01*
X1229315D01*
Y478150D01*
D02*
G37*
G36*
X1225256Y476421D02*
X1229398D01*
Y475783D01*
X1225256Y472852D01*
X1224535D01*
Y475635D01*
X1223000D01*
Y476421D01*
X1224535D01*
Y477290D01*
X1225256D01*
Y476421D01*
D02*
G37*
G36*
X1224738Y471521D02*
X1224923Y471391D01*
X1225089Y471271D01*
X1225228Y471151D01*
X1225358Y471049D01*
X1225450Y470957D01*
X1225524Y470883D01*
X1225570Y470837D01*
X1225589Y470818D01*
X1225644Y470744D01*
X1225709Y470661D01*
X1225811Y470495D01*
X1225847Y470421D01*
X1225884Y470365D01*
X1225903Y470328D01*
X1225912Y470310D01*
X1225940Y470476D01*
X1225968Y470633D01*
X1226014Y470772D01*
X1226051Y470911D01*
X1226097Y471031D01*
X1226153Y471142D01*
X1226199Y471244D01*
X1226245Y471336D01*
X1226301Y471410D01*
X1226347Y471484D01*
X1226384Y471539D01*
X1226421Y471586D01*
X1226449Y471623D01*
X1226476Y471650D01*
X1226486Y471660D01*
X1226495Y471669D01*
X1226587Y471743D01*
X1226680Y471817D01*
X1226874Y471928D01*
X1227068Y472002D01*
X1227253Y472057D01*
X1227410Y472094D01*
X1227475Y472103D01*
X1227540D01*
X1227586Y472113D01*
X1227623D01*
X1227641D01*
X1227650D01*
X1227845Y472103D01*
X1228020Y472076D01*
X1228187Y472029D01*
X1228325Y471983D01*
X1228446Y471928D01*
X1228538Y471891D01*
X1228594Y471854D01*
X1228603Y471844D01*
X1228612D01*
X1228760Y471734D01*
X1228889Y471623D01*
X1229000Y471502D01*
X1229083Y471391D01*
X1229148Y471290D01*
X1229185Y471207D01*
X1229213Y471151D01*
X1229222Y471142D01*
Y471133D01*
X1229250Y471049D01*
X1229278Y470948D01*
X1229324Y470744D01*
X1229352Y470522D01*
X1229379Y470319D01*
X1229389Y470125D01*
Y470042D01*
X1229398Y469968D01*
Y467000D01*
X1223000D01*
Y467850D01*
X1225838D01*
Y468941D01*
X1225829Y469043D01*
Y469117D01*
X1225820Y469182D01*
X1225811Y469228D01*
Y469265D01*
X1225801Y469283D01*
Y469293D01*
X1225755Y469441D01*
X1225727Y469505D01*
X1225700Y469561D01*
X1225672Y469616D01*
X1225653Y469653D01*
X1225644Y469672D01*
X1225635Y469681D01*
X1225579Y469755D01*
X1225515Y469829D01*
X1225376Y469968D01*
X1225311Y470032D01*
X1225256Y470079D01*
X1225219Y470106D01*
X1225210Y470116D01*
X1225080Y470208D01*
X1224941Y470310D01*
X1224793Y470411D01*
X1224655Y470513D01*
X1224525Y470596D01*
X1224424Y470661D01*
X1224387Y470689D01*
X1224359Y470707D01*
X1224341Y470726D01*
X1224331D01*
X1223000Y471567D01*
Y472621D01*
X1224738Y471521D01*
D02*
G37*
G36*
X1244760Y67151D02*
X1244631Y66966D01*
X1244510Y66800D01*
X1244390Y66661D01*
X1244289Y66532D01*
X1244196Y66439D01*
X1244122Y66365D01*
X1244076Y66319D01*
X1244057Y66300D01*
X1243984Y66245D01*
X1243900Y66180D01*
X1243734Y66079D01*
X1243660Y66041D01*
X1243605Y66005D01*
X1243568Y65986D01*
X1243549Y65977D01*
X1243715Y65949D01*
X1243873Y65921D01*
X1244011Y65875D01*
X1244150Y65838D01*
X1244270Y65792D01*
X1244381Y65736D01*
X1244483Y65690D01*
X1244575Y65644D01*
X1244649Y65588D01*
X1244723Y65542D01*
X1244779Y65505D01*
X1244825Y65468D01*
X1244862Y65441D01*
X1244890Y65413D01*
X1244899Y65404D01*
X1244908Y65394D01*
X1244982Y65302D01*
X1245056Y65209D01*
X1245167Y65015D01*
X1245241Y64821D01*
X1245296Y64636D01*
X1245333Y64479D01*
X1245343Y64414D01*
Y64350D01*
X1245352Y64303D01*
Y64266D01*
Y64248D01*
Y64239D01*
X1245343Y64044D01*
X1245315Y63869D01*
X1245269Y63702D01*
X1245222Y63564D01*
X1245167Y63443D01*
X1245130Y63351D01*
X1245093Y63296D01*
X1245084Y63286D01*
Y63277D01*
X1244973Y63129D01*
X1244862Y63000D01*
X1244742Y62889D01*
X1244631Y62806D01*
X1244529Y62741D01*
X1244446Y62704D01*
X1244390Y62676D01*
X1244381Y62667D01*
X1244372D01*
X1244289Y62639D01*
X1244187Y62611D01*
X1243984Y62565D01*
X1243762Y62537D01*
X1243558Y62510D01*
X1243364Y62500D01*
X1243281D01*
X1243207Y62491D01*
X1240239D01*
Y68889D01*
X1241090D01*
Y66051D01*
X1242181D01*
X1242282Y66060D01*
X1242356D01*
X1242421Y66069D01*
X1242467Y66079D01*
X1242504D01*
X1242523Y66088D01*
X1242532D01*
X1242680Y66134D01*
X1242745Y66162D01*
X1242800Y66189D01*
X1242856Y66217D01*
X1242893Y66236D01*
X1242911Y66245D01*
X1242920Y66254D01*
X1242994Y66310D01*
X1243068Y66374D01*
X1243207Y66513D01*
X1243272Y66578D01*
X1243318Y66633D01*
X1243346Y66670D01*
X1243355Y66679D01*
X1243447Y66809D01*
X1243549Y66948D01*
X1243651Y67095D01*
X1243752Y67234D01*
X1243836Y67364D01*
X1243900Y67465D01*
X1243928Y67502D01*
X1243947Y67530D01*
X1243965Y67548D01*
Y67558D01*
X1244806Y68889D01*
X1245860D01*
X1244760Y67151D01*
D02*
G37*
G36*
X1253543Y68991D02*
X1253701Y68972D01*
X1253858Y68945D01*
X1254006Y68908D01*
X1254145Y68861D01*
X1254265Y68815D01*
X1254385Y68760D01*
X1254486Y68704D01*
X1254588Y68658D01*
X1254671Y68602D01*
X1254745Y68556D01*
X1254801Y68510D01*
X1254847Y68473D01*
X1254884Y68445D01*
X1254903Y68427D01*
X1254912Y68418D01*
X1255023Y68307D01*
X1255115Y68186D01*
X1255199Y68066D01*
X1255272Y67946D01*
X1255328Y67835D01*
X1255383Y67715D01*
X1255457Y67493D01*
X1255476Y67391D01*
X1255494Y67299D01*
X1255513Y67216D01*
X1255522Y67142D01*
X1255531Y67086D01*
Y67040D01*
Y67012D01*
Y67003D01*
X1255522Y66781D01*
X1255485Y66578D01*
X1255430Y66402D01*
X1255374Y66254D01*
X1255319Y66134D01*
X1255263Y66041D01*
X1255226Y65986D01*
X1255217Y65967D01*
X1255088Y65829D01*
X1254949Y65709D01*
X1254801Y65616D01*
X1254653Y65542D01*
X1254523Y65487D01*
X1254422Y65450D01*
X1254385Y65441D01*
X1254357Y65431D01*
X1254339Y65422D01*
X1254329D01*
X1254486Y65339D01*
X1254616Y65256D01*
X1254727Y65163D01*
X1254819Y65080D01*
X1254893Y65006D01*
X1254949Y64941D01*
X1254977Y64904D01*
X1254986Y64886D01*
X1255060Y64756D01*
X1255115Y64627D01*
X1255162Y64497D01*
X1255189Y64377D01*
X1255208Y64276D01*
X1255217Y64202D01*
Y64146D01*
Y64128D01*
X1255208Y63970D01*
X1255180Y63813D01*
X1255143Y63675D01*
X1255097Y63554D01*
X1255051Y63453D01*
X1255014Y63369D01*
X1254986Y63323D01*
X1254977Y63305D01*
X1254884Y63166D01*
X1254773Y63046D01*
X1254662Y62944D01*
X1254551Y62852D01*
X1254459Y62787D01*
X1254376Y62732D01*
X1254320Y62704D01*
X1254311Y62695D01*
X1254302D01*
X1254135Y62621D01*
X1253969Y62565D01*
X1253802Y62519D01*
X1253654Y62491D01*
X1253534Y62473D01*
X1253432Y62463D01*
X1253201D01*
X1253072Y62482D01*
X1252822Y62528D01*
X1252610Y62602D01*
X1252425Y62676D01*
X1252342Y62722D01*
X1252277Y62759D01*
X1252212Y62796D01*
X1252166Y62833D01*
X1252129Y62861D01*
X1252101Y62880D01*
X1252083Y62889D01*
X1252073Y62898D01*
X1251898Y63074D01*
X1251759Y63268D01*
X1251648Y63471D01*
X1251556Y63675D01*
X1251500Y63850D01*
X1251472Y63924D01*
X1251454Y63989D01*
X1251445Y64044D01*
X1251435Y64081D01*
X1251426Y64109D01*
Y64118D01*
X1252212Y64257D01*
X1252249Y64054D01*
X1252305Y63878D01*
X1252369Y63730D01*
X1252434Y63610D01*
X1252499Y63517D01*
X1252554Y63453D01*
X1252591Y63407D01*
X1252600Y63397D01*
X1252721Y63305D01*
X1252850Y63231D01*
X1252970Y63185D01*
X1253091Y63148D01*
X1253201Y63129D01*
X1253285Y63111D01*
X1253359D01*
X1253525Y63120D01*
X1253673Y63157D01*
X1253802Y63203D01*
X1253913Y63249D01*
X1253997Y63305D01*
X1254061Y63351D01*
X1254108Y63388D01*
X1254117Y63397D01*
X1254218Y63508D01*
X1254292Y63628D01*
X1254339Y63749D01*
X1254376Y63860D01*
X1254394Y63961D01*
X1254413Y64035D01*
Y64091D01*
Y64100D01*
Y64109D01*
Y64211D01*
X1254394Y64303D01*
X1254348Y64461D01*
X1254283Y64599D01*
X1254209Y64719D01*
X1254135Y64803D01*
X1254071Y64867D01*
X1254024Y64904D01*
X1254015Y64914D01*
X1254006D01*
X1253849Y64997D01*
X1253701Y65061D01*
X1253543Y65108D01*
X1253405Y65135D01*
X1253285Y65154D01*
X1253183Y65172D01*
X1253063D01*
X1253026Y65163D01*
X1252980D01*
X1252887Y65857D01*
X1253007Y65829D01*
X1253118Y65810D01*
X1253211Y65792D01*
X1253294Y65783D01*
X1253359Y65773D01*
X1253442D01*
X1253636Y65792D01*
X1253812Y65829D01*
X1253969Y65884D01*
X1254098Y65949D01*
X1254200Y66014D01*
X1254274Y66069D01*
X1254320Y66106D01*
X1254339Y66125D01*
X1254459Y66263D01*
X1254551Y66411D01*
X1254616Y66559D01*
X1254653Y66707D01*
X1254681Y66827D01*
X1254690Y66929D01*
X1254699Y66966D01*
Y66994D01*
Y67012D01*
Y67021D01*
X1254681Y67225D01*
X1254634Y67410D01*
X1254579Y67567D01*
X1254505Y67706D01*
X1254431Y67817D01*
X1254376Y67900D01*
X1254329Y67955D01*
X1254311Y67974D01*
X1254163Y68103D01*
X1254006Y68196D01*
X1253849Y68260D01*
X1253701Y68307D01*
X1253571Y68334D01*
X1253469Y68344D01*
X1253432Y68353D01*
X1253377D01*
X1253211Y68344D01*
X1253054Y68307D01*
X1252915Y68260D01*
X1252804Y68205D01*
X1252711Y68159D01*
X1252637Y68113D01*
X1252600Y68075D01*
X1252582Y68066D01*
X1252471Y67937D01*
X1252378Y67789D01*
X1252295Y67632D01*
X1252231Y67465D01*
X1252184Y67327D01*
X1252166Y67262D01*
X1252157Y67206D01*
X1252147Y67160D01*
X1252138Y67123D01*
X1252129Y67105D01*
Y67095D01*
X1251343Y67197D01*
X1251361Y67345D01*
X1251389Y67484D01*
X1251472Y67743D01*
X1251574Y67965D01*
X1251630Y68057D01*
X1251685Y68149D01*
X1251741Y68233D01*
X1251796Y68297D01*
X1251842Y68362D01*
X1251889Y68408D01*
X1251916Y68445D01*
X1251944Y68473D01*
X1251963Y68492D01*
X1251972Y68501D01*
X1252083Y68584D01*
X1252194Y68667D01*
X1252305Y68732D01*
X1252425Y68787D01*
X1252656Y68880D01*
X1252878Y68935D01*
X1252980Y68954D01*
X1253072Y68972D01*
X1253155Y68982D01*
X1253229Y68991D01*
X1253285Y69000D01*
X1253368D01*
X1253543Y68991D01*
D02*
G37*
G36*
X1249660Y67354D02*
X1250529D01*
Y66633D01*
X1249660D01*
Y62491D01*
X1249022D01*
X1246092Y66633D01*
Y67354D01*
X1248875D01*
Y68889D01*
X1249660D01*
Y67354D01*
D02*
G37*
%LPC*%
G36*
X1176710Y637816D02*
X1176682D01*
X1176664D01*
X1176655D01*
X1176414Y637798D01*
X1176192Y637761D01*
X1175998Y637696D01*
X1175841Y637622D01*
X1175712Y637557D01*
X1175619Y637493D01*
X1175592Y637474D01*
X1175564Y637456D01*
X1175555Y637437D01*
X1175545D01*
X1175471Y637363D01*
X1175397Y637289D01*
X1175296Y637132D01*
X1175212Y636975D01*
X1175166Y636827D01*
X1175129Y636707D01*
X1175120Y636605D01*
X1175111Y636568D01*
Y636420D01*
X1175129Y636328D01*
X1175175Y636161D01*
X1175240Y636013D01*
X1175305Y635884D01*
X1175379Y635782D01*
X1175443Y635708D01*
X1175490Y635662D01*
X1175499Y635644D01*
X1175508D01*
X1175665Y635523D01*
X1175841Y635431D01*
X1176026Y635366D01*
X1176202Y635329D01*
X1176350Y635302D01*
X1176414Y635292D01*
X1176479D01*
X1176525Y635283D01*
X1176562D01*
X1176581D01*
X1176590D01*
X1176830Y635302D01*
X1177043Y635339D01*
X1177219Y635394D01*
X1177367Y635459D01*
X1177487Y635533D01*
X1177570Y635588D01*
X1177626Y635625D01*
X1177644Y635644D01*
X1177773Y635782D01*
X1177866Y635930D01*
X1177931Y636078D01*
X1177977Y636226D01*
X1178005Y636346D01*
X1178014Y636448D01*
X1178023Y636485D01*
Y636540D01*
X1178005Y636735D01*
X1177968Y636910D01*
X1177903Y637067D01*
X1177829Y637206D01*
X1177764Y637308D01*
X1177699Y637391D01*
X1177663Y637437D01*
X1177644Y637456D01*
X1177496Y637576D01*
X1177330Y637668D01*
X1177163Y637724D01*
X1177006Y637770D01*
X1176867Y637798D01*
X1176812Y637807D01*
X1176756D01*
X1176710Y637816D01*
D02*
G37*
G36*
X1147633Y39147D02*
X1144767Y37132D01*
X1147633D01*
Y39147D01*
D02*
G37*
G36*
X931118Y120592D02*
X931109D01*
X931100D01*
X930952Y120583D01*
X930823Y120546D01*
X930702Y120500D01*
X930601Y120445D01*
X930517Y120398D01*
X930453Y120352D01*
X930416Y120315D01*
X930406Y120306D01*
X930305Y120186D01*
X930231Y120065D01*
X930185Y119936D01*
X930148Y119816D01*
X930129Y119705D01*
X930111Y119622D01*
Y119548D01*
X930120Y119391D01*
X930157Y119243D01*
X930203Y119122D01*
X930258Y119011D01*
X930314Y118928D01*
X930360Y118864D01*
X930397Y118817D01*
X930406Y118808D01*
X930527Y118706D01*
X930647Y118632D01*
X930767Y118577D01*
X930878Y118540D01*
X930980Y118521D01*
X931063Y118503D01*
X931118D01*
X931128D01*
X931137D01*
X931285Y118512D01*
X931423Y118549D01*
X931544Y118596D01*
X931645Y118651D01*
X931729Y118706D01*
X931784Y118753D01*
X931830Y118790D01*
X931840Y118799D01*
X931932Y118910D01*
X932006Y119039D01*
X932052Y119159D01*
X932089Y119280D01*
X932108Y119391D01*
X932117Y119474D01*
X932126Y119529D01*
Y119548D01*
X932117Y119714D01*
X932080Y119862D01*
X932034Y119992D01*
X931978Y120103D01*
X931932Y120186D01*
X931886Y120250D01*
X931849Y120297D01*
X931840Y120306D01*
X931729Y120398D01*
X931599Y120472D01*
X931479Y120519D01*
X931359Y120555D01*
X931257Y120574D01*
X931174Y120583D01*
X931118Y120592D01*
D02*
G37*
G36*
X934105Y120851D02*
X934068D01*
X934049D01*
X933855Y120833D01*
X933679Y120796D01*
X933522Y120740D01*
X933383Y120667D01*
X933282Y120602D01*
X933199Y120546D01*
X933152Y120509D01*
X933134Y120491D01*
X933014Y120352D01*
X932921Y120195D01*
X932857Y120047D01*
X932810Y119899D01*
X932783Y119770D01*
X932773Y119668D01*
X932764Y119631D01*
Y119576D01*
X932783Y119372D01*
X932820Y119187D01*
X932884Y119021D01*
X932949Y118882D01*
X933023Y118771D01*
X933088Y118688D01*
X933125Y118642D01*
X933143Y118623D01*
X933291Y118494D01*
X933448Y118401D01*
X933605Y118337D01*
X933744Y118290D01*
X933883Y118263D01*
X933985Y118253D01*
X934022Y118244D01*
X934049D01*
X934068D01*
X934077D01*
X934271Y118263D01*
X934456Y118300D01*
X934613Y118364D01*
X934743Y118429D01*
X934844Y118494D01*
X934928Y118559D01*
X934974Y118596D01*
X934992Y118614D01*
X935113Y118762D01*
X935205Y118910D01*
X935260Y119067D01*
X935307Y119215D01*
X935334Y119344D01*
X935344Y119455D01*
X935353Y119492D01*
Y119548D01*
X935344Y119677D01*
X935325Y119807D01*
X935297Y119927D01*
X935270Y120028D01*
X935242Y120112D01*
X935214Y120176D01*
X935196Y120213D01*
X935186Y120232D01*
X935113Y120343D01*
X935039Y120435D01*
X934955Y120519D01*
X934872Y120583D01*
X934807Y120639D01*
X934752Y120676D01*
X934706Y120694D01*
X934696Y120703D01*
X934576Y120750D01*
X934465Y120787D01*
X934354Y120814D01*
X934253Y120833D01*
X934169Y120842D01*
X934105Y120851D01*
D02*
G37*
G36*
X972710Y107842D02*
X972682D01*
X972664D01*
X972655D01*
X972414Y107824D01*
X972192Y107787D01*
X971998Y107722D01*
X971841Y107648D01*
X971712Y107583D01*
X971619Y107519D01*
X971591Y107500D01*
X971564Y107482D01*
X971554Y107463D01*
X971545D01*
X971471Y107389D01*
X971397Y107315D01*
X971296Y107158D01*
X971212Y107001D01*
X971166Y106853D01*
X971129Y106733D01*
X971120Y106631D01*
X971111Y106594D01*
Y106446D01*
X971129Y106354D01*
X971175Y106187D01*
X971240Y106039D01*
X971305Y105910D01*
X971379Y105808D01*
X971443Y105734D01*
X971490Y105688D01*
X971499Y105669D01*
X971508D01*
X971665Y105549D01*
X971841Y105457D01*
X972026Y105392D01*
X972202Y105355D01*
X972350Y105327D01*
X972414Y105318D01*
X972479D01*
X972525Y105309D01*
X972562D01*
X972581D01*
X972590D01*
X972830Y105327D01*
X973043Y105364D01*
X973219Y105420D01*
X973367Y105485D01*
X973487Y105559D01*
X973570Y105614D01*
X973625Y105651D01*
X973644Y105669D01*
X973773Y105808D01*
X973866Y105956D01*
X973931Y106104D01*
X973977Y106252D01*
X974005Y106372D01*
X974014Y106474D01*
X974023Y106511D01*
Y106566D01*
X974005Y106760D01*
X973968Y106936D01*
X973903Y107093D01*
X973829Y107232D01*
X973764Y107334D01*
X973699Y107417D01*
X973662Y107463D01*
X973644Y107482D01*
X973496Y107602D01*
X973330Y107694D01*
X973163Y107750D01*
X973006Y107796D01*
X972867Y107824D01*
X972812Y107833D01*
X972756D01*
X972710Y107842D01*
D02*
G37*
G36*
X1674513Y948699D02*
X1669632D01*
Y947220D01*
X1669641Y947100D01*
Y946980D01*
X1669650Y946869D01*
X1669678Y946684D01*
X1669696Y946536D01*
X1669724Y946416D01*
X1669752Y946332D01*
X1669761Y946286D01*
X1669770Y946268D01*
X1669854Y946101D01*
X1669955Y945944D01*
X1670075Y945806D01*
X1670196Y945685D01*
X1670307Y945593D01*
X1670399Y945519D01*
X1670436Y945500D01*
X1670464Y945482D01*
X1670482Y945463D01*
X1670491D01*
X1670593Y945408D01*
X1670713Y945352D01*
X1670954Y945269D01*
X1671213Y945214D01*
X1671462Y945168D01*
X1671573Y945158D01*
X1671684Y945149D01*
X1671777Y945140D01*
X1671860D01*
X1671934Y945131D01*
X1671980D01*
X1672017D01*
X1672026D01*
X1672285Y945140D01*
X1672525Y945158D01*
X1672738Y945186D01*
X1672923Y945214D01*
X1672997Y945232D01*
X1673062Y945251D01*
X1673127Y945269D01*
X1673173Y945279D01*
X1673210Y945288D01*
X1673237Y945297D01*
X1673256Y945306D01*
X1673265D01*
X1673441Y945371D01*
X1673598Y945445D01*
X1673737Y945528D01*
X1673857Y945602D01*
X1673949Y945667D01*
X1674014Y945722D01*
X1674051Y945759D01*
X1674070Y945769D01*
X1674144Y945861D01*
X1674208Y945954D01*
X1674264Y946046D01*
X1674319Y946138D01*
X1674356Y946222D01*
X1674384Y946286D01*
X1674393Y946332D01*
X1674402Y946351D01*
X1674439Y946490D01*
X1674467Y946656D01*
X1674486Y946823D01*
X1674495Y946980D01*
X1674504Y947118D01*
X1674513Y947183D01*
Y948699D01*
D02*
G37*
G36*
X139423Y605064D02*
X137306D01*
Y603048D01*
X137315Y602798D01*
X137352Y602586D01*
X137398Y602401D01*
X137453Y602262D01*
X137509Y602142D01*
X137555Y602068D01*
X137592Y602022D01*
X137601Y602003D01*
X137722Y601892D01*
X137842Y601809D01*
X137971Y601754D01*
X138082Y601707D01*
X138193Y601689D01*
X138276Y601680D01*
X138332Y601670D01*
X138341D01*
X138350D01*
X138461Y601680D01*
X138572Y601698D01*
X138665Y601726D01*
X138748Y601754D01*
X138822Y601791D01*
X138877Y601818D01*
X138914Y601837D01*
X138924Y601846D01*
X139016Y601911D01*
X139099Y601994D01*
X139164Y602077D01*
X139219Y602160D01*
X139256Y602234D01*
X139284Y602290D01*
X139303Y602327D01*
X139312Y602345D01*
X139349Y602475D01*
X139377Y602623D01*
X139395Y602771D01*
X139404Y602919D01*
X139414Y603048D01*
X139423Y603159D01*
Y605064D01*
D02*
G37*
G36*
X138221Y593765D02*
X138212D01*
X138202D01*
X138055Y593756D01*
X137925Y593719D01*
X137805Y593673D01*
X137703Y593618D01*
X137620Y593571D01*
X137555Y593525D01*
X137518Y593488D01*
X137509Y593479D01*
X137407Y593359D01*
X137333Y593238D01*
X137287Y593109D01*
X137250Y592989D01*
X137232Y592878D01*
X137213Y592795D01*
Y592721D01*
X137222Y592564D01*
X137259Y592416D01*
X137306Y592295D01*
X137361Y592184D01*
X137416Y592101D01*
X137463Y592037D01*
X137500Y591990D01*
X137509Y591981D01*
X137629Y591879D01*
X137749Y591805D01*
X137870Y591750D01*
X137980Y591713D01*
X138082Y591694D01*
X138165Y591676D01*
X138221D01*
X138230D01*
X138239D01*
X138387Y591685D01*
X138526Y591722D01*
X138646Y591768D01*
X138748Y591824D01*
X138831Y591879D01*
X138887Y591926D01*
X138933Y591963D01*
X138942Y591972D01*
X139035Y592083D01*
X139108Y592212D01*
X139155Y592332D01*
X139192Y592453D01*
X139210Y592564D01*
X139219Y592647D01*
X139229Y592702D01*
Y592721D01*
X139219Y592887D01*
X139182Y593035D01*
X139136Y593164D01*
X139081Y593275D01*
X139035Y593359D01*
X138988Y593423D01*
X138951Y593470D01*
X138942Y593479D01*
X138831Y593571D01*
X138702Y593645D01*
X138581Y593691D01*
X138461Y593728D01*
X138360Y593747D01*
X138276Y593756D01*
X138221Y593765D01*
D02*
G37*
G36*
X141207Y594024D02*
X141170D01*
X141152D01*
X140958Y594006D01*
X140782Y593969D01*
X140625Y593913D01*
X140486Y593839D01*
X140384Y593775D01*
X140301Y593719D01*
X140255Y593682D01*
X140236Y593664D01*
X140116Y593525D01*
X140024Y593368D01*
X139959Y593220D01*
X139913Y593072D01*
X139885Y592943D01*
X139876Y592841D01*
X139867Y592804D01*
Y592748D01*
X139885Y592545D01*
X139922Y592360D01*
X139987Y592194D01*
X140051Y592055D01*
X140126Y591944D01*
X140190Y591861D01*
X140227Y591815D01*
X140246Y591796D01*
X140394Y591667D01*
X140551Y591574D01*
X140708Y591510D01*
X140847Y591463D01*
X140985Y591436D01*
X141087Y591426D01*
X141124Y591417D01*
X141152D01*
X141170D01*
X141180D01*
X141374Y591436D01*
X141559Y591473D01*
X141716Y591537D01*
X141845Y591602D01*
X141947Y591667D01*
X142030Y591731D01*
X142076Y591768D01*
X142095Y591787D01*
X142215Y591935D01*
X142307Y592083D01*
X142363Y592240D01*
X142409Y592388D01*
X142437Y592517D01*
X142446Y592628D01*
X142455Y592665D01*
Y592721D01*
X142446Y592850D01*
X142428Y592980D01*
X142400Y593100D01*
X142372Y593201D01*
X142344Y593285D01*
X142317Y593349D01*
X142298Y593386D01*
X142289Y593405D01*
X142215Y593516D01*
X142141Y593608D01*
X142058Y593691D01*
X141975Y593756D01*
X141910Y593812D01*
X141854Y593849D01*
X141808Y593867D01*
X141799Y593876D01*
X141679Y593923D01*
X141568Y593960D01*
X141457Y593987D01*
X141355Y594006D01*
X141272Y594015D01*
X141207Y594024D01*
D02*
G37*
G36*
X134320Y421150D02*
X132203D01*
Y419134D01*
X132212Y418884D01*
X132249Y418672D01*
X132296Y418487D01*
X132351Y418348D01*
X132407Y418228D01*
X132453Y418154D01*
X132490Y418108D01*
X132499Y418089D01*
X132619Y417978D01*
X132739Y417895D01*
X132869Y417840D01*
X132980Y417793D01*
X133091Y417775D01*
X133174Y417766D01*
X133229Y417756D01*
X133239D01*
X133248D01*
X133359Y417766D01*
X133470Y417784D01*
X133562Y417812D01*
X133645Y417840D01*
X133719Y417877D01*
X133775Y417904D01*
X133812Y417923D01*
X133821Y417932D01*
X133913Y417997D01*
X133997Y418080D01*
X134061Y418163D01*
X134117Y418246D01*
X134154Y418320D01*
X134182Y418376D01*
X134200Y418413D01*
X134209Y418431D01*
X134246Y418561D01*
X134274Y418709D01*
X134293Y418857D01*
X134302Y419005D01*
X134311Y419134D01*
X134320Y419245D01*
Y421150D01*
D02*
G37*
G36*
X134884Y410101D02*
X134801D01*
X134755D01*
X134736D01*
X134450Y410092D01*
X134191Y410083D01*
X133951Y410064D01*
X133729Y410036D01*
X133534Y410009D01*
X133359Y409972D01*
X133202Y409935D01*
X133063Y409898D01*
X132943Y409861D01*
X132841Y409833D01*
X132758Y409796D01*
X132684Y409768D01*
X132638Y409740D01*
X132601Y409722D01*
X132582Y409703D01*
X132573D01*
X132490Y409639D01*
X132416Y409574D01*
X132360Y409500D01*
X132305Y409426D01*
X132222Y409278D01*
X132166Y409140D01*
X132138Y409019D01*
X132120Y408918D01*
X132111Y408881D01*
Y408825D01*
X132120Y408723D01*
X132129Y408622D01*
X132157Y408529D01*
X132194Y408446D01*
X132277Y408289D01*
X132369Y408150D01*
X132471Y408049D01*
X132554Y407965D01*
X132591Y407938D01*
X132619Y407919D01*
X132628Y407901D01*
X132638D01*
X132749Y407836D01*
X132878Y407780D01*
X133026Y407725D01*
X133183Y407688D01*
X133350Y407651D01*
X133525Y407623D01*
X133877Y407577D01*
X134052Y407559D01*
X134209Y407549D01*
X134357Y407540D01*
X134478D01*
X134588Y407531D01*
X134672D01*
X134718D01*
X134727D01*
X134736D01*
X135023D01*
X135282Y407549D01*
X135513Y407568D01*
X135735Y407586D01*
X135920Y407614D01*
X136096Y407651D01*
X136243Y407688D01*
X136382Y407716D01*
X136493Y407753D01*
X136586Y407790D01*
X136669Y407817D01*
X136734Y407854D01*
X136780Y407873D01*
X136807Y407891D01*
X136826Y407910D01*
X136835D01*
X136928Y407984D01*
X137002Y408058D01*
X137076Y408132D01*
X137131Y408206D01*
X137224Y408363D01*
X137288Y408502D01*
X137325Y408631D01*
X137344Y408723D01*
X137353Y408760D01*
Y408816D01*
X137344Y408918D01*
X137334Y409010D01*
X137270Y409186D01*
X137186Y409343D01*
X137094Y409482D01*
X137002Y409583D01*
X136918Y409666D01*
X136854Y409713D01*
X136844Y409731D01*
X136835D01*
X136724Y409796D01*
X136595Y409851D01*
X136447Y409907D01*
X136290Y409944D01*
X136123Y409981D01*
X135948Y410009D01*
X135587Y410055D01*
X135421Y410073D01*
X135263Y410083D01*
X135115Y410092D01*
X134995D01*
X134884Y410101D01*
D02*
G37*
G36*
X1092431Y468149D02*
X1090314D01*
Y466134D01*
X1090323Y465884D01*
X1090360Y465672D01*
X1090406Y465487D01*
X1090462Y465348D01*
X1090518Y465228D01*
X1090564Y465154D01*
X1090601Y465108D01*
X1090610Y465089D01*
X1090730Y464978D01*
X1090850Y464895D01*
X1090980Y464840D01*
X1091091Y464793D01*
X1091202Y464775D01*
X1091285Y464766D01*
X1091340Y464756D01*
X1091350D01*
X1091359D01*
X1091470Y464766D01*
X1091581Y464784D01*
X1091673Y464812D01*
X1091756Y464840D01*
X1091830Y464877D01*
X1091886Y464904D01*
X1091923Y464923D01*
X1091932Y464932D01*
X1092025Y464997D01*
X1092108Y465080D01*
X1092172Y465163D01*
X1092228Y465246D01*
X1092265Y465320D01*
X1092293Y465376D01*
X1092311Y465413D01*
X1092320Y465431D01*
X1092357Y465561D01*
X1092385Y465709D01*
X1092404Y465857D01*
X1092413Y466004D01*
X1092422Y466134D01*
X1092431Y466245D01*
Y468149D01*
D02*
G37*
G36*
X1093744Y462380D02*
X1090878Y460365D01*
X1093744D01*
Y462380D01*
D02*
G37*
G36*
Y457406D02*
X1090878Y455391D01*
X1093744D01*
Y457406D01*
D02*
G37*
G36*
X987937Y67238D02*
X987881D01*
X987872D01*
X987863D01*
X987715Y67229D01*
X987576Y67192D01*
X987456Y67146D01*
X987355Y67090D01*
X987271Y67035D01*
X987216Y66988D01*
X987170Y66951D01*
X987160Y66942D01*
X987068Y66831D01*
X986994Y66702D01*
X986948Y66582D01*
X986911Y66461D01*
X986892Y66350D01*
X986883Y66267D01*
X986874Y66212D01*
Y66193D01*
X986883Y66027D01*
X986920Y65879D01*
X986966Y65750D01*
X987022Y65639D01*
X987068Y65555D01*
X987114Y65491D01*
X987151Y65444D01*
X987160Y65435D01*
X987271Y65343D01*
X987401Y65269D01*
X987521Y65223D01*
X987641Y65185D01*
X987743Y65167D01*
X987826Y65158D01*
X987881Y65149D01*
X987891D01*
X987900D01*
X988048Y65158D01*
X988177Y65195D01*
X988298Y65241D01*
X988399Y65297D01*
X988483Y65343D01*
X988547Y65389D01*
X988584Y65426D01*
X988593Y65435D01*
X988695Y65555D01*
X988769Y65676D01*
X988815Y65805D01*
X988852Y65925D01*
X988871Y66036D01*
X988889Y66119D01*
Y66193D01*
X988880Y66350D01*
X988843Y66498D01*
X988797Y66619D01*
X988741Y66730D01*
X988686Y66813D01*
X988640Y66877D01*
X988603Y66924D01*
X988593Y66933D01*
X988473Y67035D01*
X988353Y67109D01*
X988233Y67164D01*
X988122Y67201D01*
X988020Y67220D01*
X987937Y67238D01*
D02*
G37*
G36*
X984978Y67497D02*
X984951D01*
X984932D01*
X984923D01*
X984729Y67478D01*
X984544Y67442D01*
X984387Y67377D01*
X984257Y67312D01*
X984156Y67247D01*
X984072Y67183D01*
X984026Y67146D01*
X984008Y67127D01*
X983887Y66979D01*
X983795Y66831D01*
X983739Y66674D01*
X983693Y66526D01*
X983665Y66397D01*
X983656Y66286D01*
X983647Y66249D01*
Y66193D01*
X983656Y66064D01*
X983675Y65934D01*
X983702Y65814D01*
X983730Y65712D01*
X983758Y65629D01*
X983786Y65565D01*
X983804Y65528D01*
X983813Y65509D01*
X983887Y65398D01*
X983961Y65306D01*
X984045Y65223D01*
X984128Y65158D01*
X984193Y65102D01*
X984248Y65065D01*
X984294Y65047D01*
X984304Y65038D01*
X984424Y64991D01*
X984535Y64954D01*
X984646Y64927D01*
X984747Y64908D01*
X984830Y64899D01*
X984895Y64890D01*
X984932D01*
X984951D01*
X985145Y64908D01*
X985321Y64945D01*
X985478Y65001D01*
X985616Y65075D01*
X985718Y65139D01*
X985801Y65195D01*
X985847Y65232D01*
X985866Y65250D01*
X985986Y65389D01*
X986079Y65546D01*
X986143Y65694D01*
X986190Y65842D01*
X986217Y65971D01*
X986227Y66073D01*
X986236Y66110D01*
Y66166D01*
X986217Y66369D01*
X986180Y66554D01*
X986116Y66720D01*
X986051Y66859D01*
X985977Y66970D01*
X985912Y67053D01*
X985875Y67099D01*
X985857Y67118D01*
X985709Y67247D01*
X985552Y67340D01*
X985394Y67404D01*
X985256Y67451D01*
X985117Y67478D01*
X985015Y67488D01*
X984978Y67497D01*
D02*
G37*
G36*
X988233Y61635D02*
X985367D01*
Y59620D01*
X988233Y61635D01*
D02*
G37*
G36*
X987771Y57244D02*
X987761D01*
X987752D01*
X987641Y57234D01*
X987530Y57216D01*
X987438Y57188D01*
X987355Y57160D01*
X987281Y57123D01*
X987225Y57096D01*
X987188Y57077D01*
X987179Y57068D01*
X987086Y57003D01*
X987003Y56920D01*
X986938Y56837D01*
X986883Y56754D01*
X986846Y56680D01*
X986818Y56624D01*
X986800Y56587D01*
X986790Y56569D01*
X986754Y56439D01*
X986726Y56291D01*
X986707Y56143D01*
X986698Y55995D01*
X986689Y55866D01*
X986680Y55755D01*
Y53850D01*
X988797D01*
Y55866D01*
X988788Y56116D01*
X988751Y56328D01*
X988704Y56513D01*
X988649Y56652D01*
X988593Y56772D01*
X988547Y56846D01*
X988510Y56892D01*
X988501Y56911D01*
X988381Y57022D01*
X988261Y57105D01*
X988131Y57160D01*
X988020Y57207D01*
X987909Y57225D01*
X987826Y57234D01*
X987771Y57244D01*
D02*
G37*
G36*
X1228122Y475635D02*
X1225256D01*
Y473620D01*
X1228122Y475635D01*
D02*
G37*
G36*
X1227660Y471244D02*
X1227650D01*
X1227641D01*
X1227530Y471234D01*
X1227419Y471216D01*
X1227327Y471188D01*
X1227244Y471160D01*
X1227170Y471123D01*
X1227114Y471096D01*
X1227077Y471077D01*
X1227068Y471068D01*
X1226975Y471003D01*
X1226892Y470920D01*
X1226828Y470837D01*
X1226772Y470754D01*
X1226735Y470680D01*
X1226707Y470624D01*
X1226689Y470587D01*
X1226680Y470569D01*
X1226643Y470439D01*
X1226615Y470291D01*
X1226596Y470143D01*
X1226587Y469995D01*
X1226578Y469866D01*
X1226569Y469755D01*
Y467850D01*
X1228686D01*
Y469866D01*
X1228677Y470116D01*
X1228640Y470328D01*
X1228594Y470513D01*
X1228538Y470652D01*
X1228483Y470772D01*
X1228436Y470846D01*
X1228399Y470892D01*
X1228390Y470911D01*
X1228270Y471022D01*
X1228150Y471105D01*
X1228020Y471160D01*
X1227909Y471207D01*
X1227798Y471225D01*
X1227715Y471234D01*
X1227660Y471244D01*
D02*
G37*
G36*
X1242994Y65320D02*
X1241090D01*
Y63203D01*
X1243105D01*
X1243355Y63212D01*
X1243568Y63249D01*
X1243752Y63296D01*
X1243891Y63351D01*
X1244011Y63407D01*
X1244085Y63453D01*
X1244131Y63490D01*
X1244150Y63499D01*
X1244261Y63619D01*
X1244344Y63739D01*
X1244400Y63869D01*
X1244446Y63980D01*
X1244464Y64091D01*
X1244474Y64174D01*
X1244483Y64229D01*
Y64239D01*
Y64248D01*
X1244474Y64359D01*
X1244455Y64470D01*
X1244427Y64562D01*
X1244400Y64645D01*
X1244363Y64719D01*
X1244335Y64775D01*
X1244316Y64812D01*
X1244307Y64821D01*
X1244242Y64914D01*
X1244159Y64997D01*
X1244076Y65061D01*
X1243993Y65117D01*
X1243919Y65154D01*
X1243863Y65182D01*
X1243826Y65200D01*
X1243808Y65209D01*
X1243678Y65246D01*
X1243531Y65274D01*
X1243383Y65293D01*
X1243235Y65302D01*
X1243105Y65311D01*
X1242994Y65320D01*
D02*
G37*
G36*
X1248875Y66633D02*
X1246859D01*
X1248875Y63767D01*
Y66633D01*
D02*
G37*
%LPD*%
D11*
X1175000Y657000D02*
X1187000D01*
Y633000D02*
Y657000D01*
X1175000Y633000D02*
X1187000D01*
X1175000D02*
Y657000D01*
X990000Y152000D02*
Y192000D01*
X970000D02*
X990000D01*
X970000Y152000D02*
Y192000D01*
Y152000D02*
X990000D01*
X1141500Y37000D02*
Y65000D01*
Y37000D02*
X1158500D01*
Y65000D01*
X1141500D02*
X1158500D01*
X926000Y113000D02*
Y153000D01*
Y113000D02*
X946000D01*
Y153000D01*
X926000D02*
X946000D01*
X967000Y100000D02*
Y140000D01*
Y100000D02*
X987000D01*
Y140000D01*
X967000D02*
X987000D01*
X1657300Y933200D02*
Y965900D01*
Y933200D02*
X1689700D01*
Y965900D01*
X1657300D02*
X1689700D01*
X132792Y587085D02*
Y624743D01*
Y587085D02*
X153413D01*
Y624743D01*
X132792D02*
X153413D01*
X127689Y403171D02*
Y440829D01*
Y403171D02*
X148311D01*
Y440829D01*
X127689D02*
X148311D01*
X1083465Y490291D02*
X1108535D01*
Y447709D02*
Y490291D01*
X1083465Y447709D02*
X1108535D01*
X1083465D02*
Y490291D01*
X970465Y31709D02*
X995535D01*
X970465D02*
Y74291D01*
X995535D01*
Y31709D02*
Y74291D01*
X1210465Y445709D02*
X1235535D01*
X1210465D02*
Y488291D01*
X1235535D01*
Y445709D02*
Y488291D01*
X1218948Y56465D02*
Y81535D01*
X1261530D01*
Y56465D02*
Y81535D01*
X1218948Y56465D02*
X1261530D01*
D12*
X1329000Y875000D02*
X1516000D01*
X1329000D02*
Y1053000D01*
X1516000D01*
Y875000D02*
Y1053000D01*
M02*
