G04*
G04 #@! TF.GenerationSoftware,Altium Limited,Altium Designer,22.5.1 (42)*
G04*
G04 Layer_Color=16711935*
%FSLAX44Y44*%
%MOMM*%
G71*
G04*
G04 #@! TF.SameCoordinates,22EFE7C3-C857-4B98-BFDA-642FBBEDC0F8*
G04*
G04*
G04 #@! TF.FilePolarity,Positive*
G04*
G01*
G75*
%ADD11C,0.2000*%
D11*
X1175000Y657000D02*
X1187000D01*
Y633000D02*
Y657000D01*
X1175000Y633000D02*
X1187000D01*
X1175000D02*
Y657000D01*
X990000Y152000D02*
Y192000D01*
X970000D02*
X990000D01*
X970000Y152000D02*
Y192000D01*
Y152000D02*
X990000D01*
X1141500Y37000D02*
Y65000D01*
Y37000D02*
X1158500D01*
Y65000D01*
X1141500D02*
X1158500D01*
X926000Y113000D02*
Y153000D01*
Y113000D02*
X946000D01*
Y153000D01*
X926000D02*
X946000D01*
X967000Y100000D02*
Y140000D01*
Y100000D02*
X987000D01*
Y140000D01*
X967000D02*
X987000D01*
X1657300Y933200D02*
Y965900D01*
Y933200D02*
X1689700D01*
Y965900D01*
X1657300D02*
X1689700D01*
X132792Y587085D02*
Y624743D01*
Y587085D02*
X153413D01*
Y624743D01*
X132792D02*
X153413D01*
X127689Y403171D02*
Y440829D01*
Y403171D02*
X148311D01*
Y440829D01*
X127689D02*
X148311D01*
X1083465Y490291D02*
X1108535D01*
Y447709D02*
Y490291D01*
X1083465Y447709D02*
X1108535D01*
X1083465D02*
Y490291D01*
X970465Y31709D02*
X995535D01*
X970465D02*
Y74291D01*
X995535D01*
Y31709D02*
Y74291D01*
X1210465Y445709D02*
X1235535D01*
X1210465D02*
Y488291D01*
X1235535D01*
Y445709D02*
Y488291D01*
X1218948Y56465D02*
Y81535D01*
X1261530D01*
Y56465D02*
Y81535D01*
X1218948Y56465D02*
X1261530D01*
M02*
