G04*
G04 #@! TF.GenerationSoftware,Altium Limited,Altium Designer,22.5.1 (42)*
G04*
G04 Layer_Color=8388736*
%FSLAX44Y44*%
%MOMM*%
G71*
G04*
G04 #@! TF.SameCoordinates,22EFE7C3-C857-4B98-BFDA-642FBBEDC0F8*
G04*
G04*
G04 #@! TF.FilePolarity,Positive*
G04*
G01*
G75*
%ADD12C,0.1000*%
D12*
X1010500Y1021500D02*
X1118500D01*
X1145780Y1023230D02*
Y1020231D01*
X1144280D01*
X1143781Y1020731D01*
Y1021730D01*
X1144280Y1022230D01*
X1145780D01*
X1140782Y1020731D02*
X1141282Y1020231D01*
X1142281D01*
X1142781Y1020731D01*
Y1022730D01*
X1142281Y1023230D01*
X1141282D01*
X1140782Y1022730D01*
X1139782Y1020231D02*
Y1023230D01*
X1138282D01*
X1137783Y1022730D01*
Y1022230D01*
X1138282Y1021730D01*
X1139782D01*
X1138282D01*
X1137783Y1021231D01*
Y1020731D01*
X1138282Y1020231D01*
X1139782D01*
X1131785D02*
X1133784D01*
Y1023230D01*
X1131785D01*
X1133784Y1021730D02*
X1132784D01*
X1130785Y1020231D02*
Y1023230D01*
X1129285D01*
X1128785Y1022730D01*
Y1020731D01*
X1129285Y1020231D01*
X1130785D01*
X1125787Y1020731D02*
X1126286Y1020231D01*
X1127286D01*
X1127786Y1020731D01*
Y1022730D01*
X1127286Y1023230D01*
X1126286D01*
X1125787Y1022730D01*
Y1021730D01*
X1126786D01*
X1122787Y1020231D02*
X1124787D01*
Y1023230D01*
X1122787D01*
X1124787Y1021730D02*
X1123787D01*
M02*
