G04*
G04 #@! TF.GenerationSoftware,Altium Limited,Altium Designer,22.5.1 (42)*
G04*
G04 Layer_Color=8388736*
%FSLAX44Y44*%
%MOMM*%
G71*
G04*
G04 #@! TF.SameCoordinates,22EFE7C3-C857-4B98-BFDA-642FBBEDC0F8*
G04*
G04*
G04 #@! TF.FilePolarity,Positive*
G04*
G01*
G75*
%ADD11C,0.2000*%
%ADD12C,0.1000*%
D11*
X1852509Y317250D02*
X1872509D01*
Y304750D02*
Y317250D01*
X1852509Y304750D02*
X1872509D01*
X1852509D02*
Y317250D01*
X520000Y150000D02*
X554000D01*
X520000D02*
Y168000D01*
X554000D01*
Y150000D02*
Y168000D01*
X846165Y990665D02*
Y1017335D01*
Y990665D02*
X999835D01*
Y1017335D01*
X846165D02*
X999835D01*
X324970Y754960D02*
Y770960D01*
X316970Y754960D02*
X324970D01*
X316970D02*
Y770960D01*
X324970D01*
X325500Y719500D02*
Y736500D01*
X316500Y719500D02*
X325500D01*
X316500D02*
Y736500D01*
X325500D01*
X461250Y802000D02*
Y822000D01*
X448750Y802000D02*
X461250D01*
X448750D02*
Y822000D01*
X461250D01*
X508000Y803000D02*
Y819000D01*
X516000D01*
Y803000D02*
Y819000D01*
X508000Y803000D02*
X516000D01*
X490250Y802000D02*
Y822000D01*
X477750Y802000D02*
X490250D01*
X477750D02*
Y822000D01*
X490250D01*
X432250Y802000D02*
Y822000D01*
X419750Y802000D02*
X432250D01*
X419750D02*
Y822000D01*
X432250D01*
X648000Y761000D02*
Y777000D01*
X640000Y761000D02*
X648000D01*
X640000D02*
Y777000D01*
X648000D01*
X648500Y726500D02*
Y743500D01*
X639500Y726500D02*
X648500D01*
X639500D02*
Y743500D01*
X648500D01*
X817000Y803000D02*
Y819000D01*
X825000D01*
Y803000D02*
Y819000D01*
X817000Y803000D02*
X825000D01*
X797250Y801000D02*
Y821000D01*
X784750Y801000D02*
X797250D01*
X784750D02*
Y821000D01*
X797250D01*
X762250Y801000D02*
Y821000D01*
X749750Y801000D02*
X762250D01*
X749750D02*
Y821000D01*
X762250D01*
X728250Y801000D02*
Y821000D01*
X715750Y801000D02*
X728250D01*
X715750D02*
Y821000D01*
X728250D01*
X1668000Y433715D02*
X1688000D01*
X1668000D02*
Y446215D01*
X1688000D01*
Y433715D02*
Y446215D01*
X1668000Y392215D02*
X1688000D01*
X1668000D02*
Y404715D01*
X1688000D01*
Y392215D02*
Y404715D01*
X1668000Y352750D02*
X1688000D01*
X1668000D02*
Y365250D01*
X1688000D01*
Y352750D02*
Y365250D01*
X1845000Y437250D02*
X1865000D01*
Y424750D02*
Y437250D01*
X1845000Y424750D02*
X1865000D01*
X1845000D02*
Y437250D01*
Y395326D02*
X1865000D01*
Y382826D02*
Y395326D01*
X1845000Y382826D02*
X1865000D01*
X1845000D02*
Y395326D01*
Y356250D02*
X1865000D01*
Y343750D02*
Y356250D01*
X1845000Y343750D02*
X1865000D01*
X1845000D02*
Y356250D01*
X1904383Y422264D02*
X1938383D01*
X1904383D02*
Y440264D01*
X1938383D01*
Y422264D02*
Y440264D01*
X1906000Y302000D02*
X1940000D01*
X1906000D02*
Y320000D01*
X1940000D01*
Y302000D02*
Y320000D01*
X1905383Y380418D02*
X1939383D01*
X1905383D02*
Y398418D01*
X1939383D01*
Y380418D02*
Y398418D01*
X1905383Y340994D02*
X1939383D01*
X1905383D02*
Y358994D01*
X1939383D01*
Y340994D02*
Y358994D01*
X1541000Y189750D02*
X1561000D01*
X1541000D02*
Y202250D01*
X1561000D01*
Y189750D02*
Y202250D01*
X1546488Y65500D02*
X1573988D01*
Y38000D02*
Y65500D01*
X1546488Y38000D02*
X1573988D01*
X1546488D02*
Y65500D01*
X1554750Y125000D02*
Y145000D01*
X1567250D01*
Y125000D02*
Y145000D01*
X1554750Y125000D02*
X1567250D01*
X1394000Y60000D02*
X1412000D01*
X1394000D02*
Y70000D01*
X1412000D01*
Y60000D02*
Y70000D01*
X1453250Y106000D02*
Y128000D01*
X1438750Y106000D02*
X1453250D01*
X1438750D02*
Y128000D01*
X1453250D01*
X769550Y149600D02*
X894450D01*
Y10400D02*
Y149600D01*
X769550Y10400D02*
X894450D01*
X769550D02*
Y149600D01*
X1225500Y935750D02*
Y984250D01*
Y935750D02*
X1264500D01*
Y984250D01*
X1225500D02*
X1264500D01*
X1830000Y812100D02*
Y851900D01*
X1880000D01*
Y812100D02*
Y851900D01*
X1830000Y812100D02*
X1880000D01*
X1662000Y918000D02*
X1684000D01*
Y904000D02*
Y918000D01*
X1662000Y904000D02*
X1684000D01*
X1662000D02*
Y918000D01*
X586450Y216150D02*
X657550D01*
Y181850D02*
Y216150D01*
X586450Y181850D02*
X657550D01*
X586450D02*
Y216150D01*
X33750Y809000D02*
Y1003000D01*
Y809000D02*
X184250D01*
Y1003000D01*
X33750D02*
X184250D01*
X1209000Y539500D02*
Y566500D01*
X1175000D02*
X1209000D01*
X1175000Y539500D02*
Y566500D01*
Y539500D02*
X1209000D01*
X1031250Y621250D02*
Y630750D01*
Y621250D02*
X1048750D01*
Y630750D01*
X1031250D02*
X1048750D01*
X1031250Y587250D02*
Y596750D01*
Y587250D02*
X1048750D01*
Y596750D01*
X1031250D02*
X1048750D01*
X1070000Y630000D02*
X1086000D01*
X1070000Y588000D02*
Y630000D01*
Y588000D02*
X1086000D01*
Y630000D01*
X1081250Y554750D02*
X1098750D01*
Y545250D02*
Y554750D01*
X1081250Y545250D02*
X1098750D01*
X1081250D02*
Y554750D01*
X1020250Y544750D02*
X1035750D01*
X1020250D02*
Y553250D01*
X1035750D01*
Y544750D02*
Y553250D01*
X1083500Y532500D02*
X1110500D01*
Y513500D02*
Y532500D01*
X1083500Y513500D02*
X1110500D01*
X1083500D02*
Y532500D01*
X980250Y761750D02*
X995750D01*
X980250D02*
Y770250D01*
X995750D01*
Y761750D02*
Y770250D01*
X980404Y743250D02*
X995904D01*
Y734750D02*
Y743250D01*
X980404Y734750D02*
X995904D01*
X980404D02*
Y743250D01*
X1078500Y862500D02*
Y879500D01*
X1087500D01*
Y862500D02*
Y879500D01*
X1078500Y862500D02*
X1087500D01*
X1056500D02*
Y879500D01*
X1065500D01*
Y862500D02*
Y879500D01*
X1056500Y862500D02*
X1065500D01*
X1327500Y823500D02*
X1344500D01*
Y814500D02*
Y823500D01*
X1327500Y814500D02*
X1344500D01*
X1327500D02*
Y823500D01*
X1246000Y636250D02*
X1266000D01*
Y623750D02*
Y636250D01*
X1246000Y623750D02*
X1266000D01*
X1246000D02*
Y636250D01*
X1319750Y590250D02*
Y607750D01*
X1310250Y590250D02*
X1319750D01*
X1310250D02*
Y607750D01*
X1319750D01*
X1296500Y589500D02*
Y606500D01*
X1287500Y589500D02*
X1296500D01*
X1287500D02*
Y606500D01*
X1296500D01*
X1274500Y589500D02*
Y606500D01*
X1265500Y589500D02*
X1274500D01*
X1265500D02*
Y606500D01*
X1274500D01*
X1078250Y677250D02*
Y694750D01*
X1087750D01*
Y677250D02*
Y694750D01*
X1078250Y677250D02*
X1087750D01*
X1251750Y590250D02*
Y607750D01*
X1242250Y590250D02*
X1251750D01*
X1242250D02*
Y607750D01*
X1251750D01*
X1297500Y717500D02*
X1314500D01*
Y708500D02*
Y717500D01*
X1297500Y708500D02*
X1314500D01*
X1297500D02*
Y717500D01*
X1327500Y847500D02*
X1344500D01*
Y838500D02*
Y847500D01*
X1327500Y838500D02*
X1344500D01*
X1327500D02*
Y847500D01*
X1120000Y699755D02*
Y839755D01*
X1260000D01*
Y699755D02*
Y839755D01*
X1120000Y699755D02*
X1260000D01*
X1929061Y680750D02*
Y703250D01*
X1914061Y680750D02*
X1929061D01*
X1914061D02*
Y703250D01*
X1929061D01*
X1925561Y651730D02*
Y667730D01*
X1917561Y651730D02*
X1925561D01*
X1917561D02*
Y667730D01*
X1925561D01*
X1927811Y610950D02*
Y631050D01*
X1915311Y610950D02*
X1927811D01*
X1915311D02*
Y631050D01*
X1927811D01*
X1900811Y611000D02*
Y633000D01*
X1886311Y611000D02*
X1900811D01*
X1886311D02*
Y633000D01*
X1900811D01*
X1851561Y575750D02*
X1873561D01*
X1851561D02*
Y590250D01*
X1873561D01*
Y575750D02*
Y590250D01*
X1841511Y685750D02*
X1861611D01*
X1841511D02*
Y698250D01*
X1861611D01*
Y685750D02*
Y698250D01*
X1874379Y610796D02*
Y626796D01*
X1845379Y610796D02*
X1874379D01*
X1845379D02*
Y626796D01*
X1874379D01*
X1841061Y653750D02*
X1863061D01*
X1841061D02*
Y668250D01*
X1863061D01*
Y653750D02*
Y668250D01*
X601000Y360000D02*
X635000D01*
X601000D02*
Y378000D01*
X635000D01*
Y360000D02*
Y378000D01*
X673000Y379000D02*
X707000D01*
Y361000D02*
Y379000D01*
X673000Y361000D02*
X707000D01*
X673000D02*
Y379000D01*
X593500Y102750D02*
Y125250D01*
X578500Y102750D02*
X593500D01*
X578500D02*
Y125250D01*
X593500D01*
X590000Y70000D02*
Y86000D01*
X582000Y70000D02*
X590000D01*
X582000D02*
Y86000D01*
X590000D01*
X459250Y200750D02*
X474750D01*
X459250D02*
Y209250D01*
X474750D01*
Y200750D02*
Y209250D01*
X460404Y171750D02*
X475904D01*
X460404D02*
Y180250D01*
X475904D01*
Y171750D02*
Y180250D01*
X440000Y114750D02*
Y156750D01*
X482000D01*
Y114750D02*
Y156750D01*
X440000Y114750D02*
X482000D01*
X101250Y651250D02*
X116750D01*
Y642750D02*
Y651250D01*
X101250Y642750D02*
X116750D01*
X101250D02*
Y651250D01*
X59250Y642750D02*
X74750D01*
X59250D02*
Y651250D01*
X74750D01*
Y642750D02*
Y651250D01*
X512250Y136250D02*
X529750D01*
Y105750D02*
Y136250D01*
X512250Y105750D02*
X529750D01*
X512250D02*
Y136250D01*
X502250Y73750D02*
X517750D01*
X502250D02*
Y82250D01*
X517750D01*
Y73750D02*
Y82250D01*
X421000Y63000D02*
Y97000D01*
X403000Y63000D02*
X421000D01*
X403000D02*
Y97000D01*
X421000D01*
X450000Y62750D02*
Y97250D01*
X432000Y62750D02*
X450000D01*
X432000D02*
Y97250D01*
X450000D01*
X477000Y62750D02*
Y97250D01*
X459000Y62750D02*
X477000D01*
X459000D02*
Y97250D01*
X477000D01*
X34000Y711000D02*
Y727000D01*
X42000D01*
Y711000D02*
Y727000D01*
X34000Y711000D02*
X42000D01*
X30500Y674750D02*
Y697250D01*
X45500D01*
Y674750D02*
Y697250D01*
X30500Y674750D02*
X45500D01*
X221250Y334000D02*
Y354000D01*
X208750Y334000D02*
X221250D01*
X208750D02*
Y354000D01*
X221250D01*
X109501Y589812D02*
Y623812D01*
X91501Y589812D02*
X109501D01*
X91501D02*
Y623812D01*
X109501D01*
X37000Y587250D02*
Y629250D01*
X79000D01*
Y587250D02*
Y629250D01*
X37000Y587250D02*
X79000D01*
X128251Y598062D02*
Y615562D01*
X158751D01*
Y598062D02*
Y615562D01*
X128251Y598062D02*
X158751D01*
X154000Y555000D02*
X188000D01*
X154000D02*
Y573000D01*
X188000D01*
Y555000D02*
Y573000D01*
X153750Y530000D02*
X188250D01*
X153750D02*
Y548000D01*
X188250D01*
Y530000D02*
Y548000D01*
X153750Y504000D02*
X188250D01*
X153750D02*
Y522000D01*
X188250D01*
Y504000D02*
Y522000D01*
X37000Y533000D02*
Y549000D01*
X45000D01*
Y533000D02*
Y549000D01*
X37000Y533000D02*
X45000D01*
X33500Y491750D02*
Y514250D01*
X48500D01*
Y491750D02*
Y514250D01*
X33500Y491750D02*
X48500D01*
X43000Y397000D02*
Y439000D01*
X85000D01*
Y397000D02*
Y439000D01*
X43000Y397000D02*
X85000D01*
X108404Y460250D02*
X123904D01*
Y451750D02*
Y460250D01*
X108404Y451750D02*
X123904D01*
X108404D02*
Y460250D01*
X67096Y452750D02*
X82596D01*
X67096D02*
Y461250D01*
X82596D01*
Y452750D02*
Y461250D01*
X111000Y401000D02*
Y435000D01*
X93000Y401000D02*
X111000D01*
X93000D02*
Y435000D01*
X111000D01*
X122750Y409250D02*
Y426750D01*
X153250D01*
Y409250D02*
Y426750D01*
X122750Y409250D02*
X153250D01*
X241750Y334000D02*
Y354000D01*
X254250D01*
Y334000D02*
Y354000D01*
X241750Y334000D02*
X254250D01*
X186000Y474000D02*
X220000D01*
Y456000D02*
Y474000D01*
X186000Y456000D02*
X220000D01*
X186000D02*
Y474000D01*
X185750Y444000D02*
X220250D01*
Y426000D02*
Y444000D01*
X185750Y426000D02*
X220250D01*
X185750D02*
Y444000D01*
Y414000D02*
X220250D01*
Y396000D02*
Y414000D01*
X185750Y396000D02*
X220250D01*
X185750D02*
Y414000D01*
X236000Y293250D02*
Y314750D01*
X250000D01*
Y293250D02*
Y314750D01*
X236000Y293250D02*
X250000D01*
X205250Y62300D02*
X252750D01*
X205250D02*
Y101700D01*
X252750D01*
Y62300D02*
Y101700D01*
X294000Y47000D02*
X362000D01*
X294000D02*
Y115000D01*
X362000D01*
Y47000D02*
Y115000D01*
X332730Y223000D02*
X348730D01*
Y215000D02*
Y223000D01*
X332730Y215000D02*
X348730D01*
X332730D02*
Y223000D01*
X295480Y225500D02*
X317980D01*
Y210500D02*
Y225500D01*
X295480Y210500D02*
X317980D01*
X295480D02*
Y225500D01*
X47740Y243660D02*
Y350340D01*
X144260D01*
Y243660D02*
Y350340D01*
X47740Y243660D02*
X144260D01*
X300950Y169250D02*
X321050D01*
Y156750D02*
Y169250D01*
X300950Y156750D02*
X321050D01*
X300950D02*
Y169250D01*
X194450Y129900D02*
X265550D01*
X194450D02*
Y192100D01*
X265550D01*
Y129900D02*
Y192100D01*
X107350Y178050D02*
X154650D01*
Y143950D02*
Y178050D01*
X107350Y143950D02*
X154650D01*
X107350D02*
Y178050D01*
X1432000Y36250D02*
Y63750D01*
Y36250D02*
X1459500D01*
Y63750D01*
X1432000D02*
X1459500D01*
D12*
X194000Y904000D02*
Y1024000D01*
X498800D01*
Y904000D02*
Y1024000D01*
X194000Y904000D02*
X498800D01*
X509600Y902000D02*
X814400D01*
Y1022000D01*
X509600D02*
X814400D01*
X509600Y902000D02*
Y1022000D01*
M02*
