G04*
G04 #@! TF.GenerationSoftware,Altium Limited,Altium Designer,22.5.1 (42)*
G04*
G04 Layer_Color=16711935*
%FSLAX44Y44*%
%MOMM*%
G71*
G04*
G04 #@! TF.SameCoordinates,22EFE7C3-C857-4B98-BFDA-642FBBEDC0F8*
G04*
G04*
G04 #@! TF.FilePolarity,Positive*
G04*
G01*
G75*
%ADD11C,0.2000*%
%ADD12C,0.1000*%
%ADD15C,0.1270*%
D11*
X369600Y808000D02*
G03*
X369600Y808000I-1000J0D01*
G01*
X689600D02*
G03*
X689600Y808000I-1000J0D01*
G01*
X996500Y373000D02*
G03*
X996500Y373000I-1000J0D01*
G01*
D12*
X1635500Y801000D02*
G03*
X1635500Y801000I-5000J0D01*
G01*
X1104800Y978500D02*
Y1034500D01*
X1024200Y978500D02*
Y1034500D01*
Y978500D02*
X1104800D01*
X1024200Y1034500D02*
X1104800D01*
X365248Y772757D02*
X374748D01*
X365248Y755257D02*
X374748D01*
Y772757D01*
X365248Y755257D02*
Y772757D01*
X342250Y772500D02*
X351750D01*
X342250Y755000D02*
X351750D01*
Y772500D01*
X342250Y755000D02*
Y772500D01*
X345750Y864250D02*
Y873750D01*
X328250Y864250D02*
Y873750D01*
Y864250D02*
X345750D01*
X328250Y873750D02*
X345750D01*
X686250Y768750D02*
X695750D01*
X686250Y751250D02*
X695750D01*
Y768750D01*
X686250Y751250D02*
Y768750D01*
X662250D02*
X671750D01*
X662250Y751250D02*
X671750D01*
Y768750D01*
X662250Y751250D02*
Y768750D01*
X665750Y868250D02*
Y877750D01*
X648250Y868250D02*
Y877750D01*
Y868250D02*
X665750D01*
X648250Y877750D02*
X665750D01*
X1724750Y420500D02*
Y441500D01*
X1711250Y420500D02*
Y441500D01*
X1724750D01*
X1711250Y420500D02*
X1724750D01*
X1724750Y378918D02*
Y399917D01*
X1711250Y378918D02*
Y399917D01*
X1724750D01*
X1711250Y378918D02*
X1724750D01*
X1724750Y339500D02*
Y360500D01*
X1711250Y339500D02*
Y360500D01*
X1724750D01*
X1711250Y339500D02*
X1724750D01*
X944750Y203000D02*
Y225000D01*
X959250Y203000D02*
Y225000D01*
X944750Y203000D02*
X959250D01*
X944750Y225000D02*
X959250D01*
X965250Y154500D02*
Y175500D01*
X978750Y154500D02*
Y175500D01*
X965250Y154500D02*
X978750D01*
X965250Y175500D02*
X978750D01*
X1249750Y476050D02*
X1264250D01*
X1249750Y453950D02*
X1264250D01*
X1249750D02*
Y476050D01*
X1264250Y453950D02*
Y476050D01*
X1164650Y460500D02*
Y475500D01*
X1195850Y460500D02*
Y475500D01*
X1164650D02*
X1195850D01*
X1164650Y460500D02*
X1195850D01*
X1045750Y458950D02*
X1060250D01*
X1045750Y481050D02*
X1060250D01*
Y458950D02*
Y481050D01*
X1045750Y458950D02*
Y481050D01*
X1155600Y460500D02*
Y475500D01*
X1124400Y460500D02*
Y475500D01*
Y460500D02*
X1155600D01*
X1124400Y475500D02*
X1155600D01*
X1046500Y67600D02*
X1061500D01*
X1046500Y36400D02*
X1061500D01*
Y67600D01*
X1046500Y36400D02*
Y67600D01*
X1181500Y43400D02*
X1196500D01*
X1181500Y74600D02*
X1196500D01*
X1181500Y43400D02*
Y74600D01*
X1196500Y43400D02*
Y74600D01*
X1541000Y161750D02*
Y176250D01*
X1563000Y161750D02*
Y176250D01*
X1541000D02*
X1563000D01*
X1541000Y161750D02*
X1563000D01*
X1541000Y93750D02*
Y108250D01*
X1563000Y93750D02*
Y108250D01*
X1541000D02*
X1563000D01*
X1541000Y93750D02*
X1563000D01*
X1382750Y43500D02*
Y64500D01*
X1369250Y43500D02*
Y64500D01*
X1382750D01*
X1369250Y43500D02*
X1382750D01*
X779000Y202000D02*
X787000D01*
Y214000D01*
X779000D02*
X787000D01*
X779000Y202000D02*
Y214000D01*
X805000Y202000D02*
X813000D01*
Y214000D01*
X805000D02*
X813000D01*
X805000Y202000D02*
Y214000D01*
X1253250Y999250D02*
X1270750D01*
X1253250Y1008750D02*
X1270750D01*
Y999250D02*
Y1008750D01*
X1253250Y999250D02*
Y1008750D01*
X1183500Y946250D02*
Y959750D01*
X1162500Y946250D02*
Y959750D01*
Y946250D02*
X1183500D01*
X1162500Y959750D02*
X1183500D01*
X1840500Y745750D02*
X1861500D01*
X1840500Y732250D02*
X1861500D01*
X1840500D02*
Y745750D01*
X1861500Y732250D02*
Y745750D01*
X1828500Y774750D02*
X1849500D01*
X1828500Y761250D02*
X1849500D01*
X1828500D02*
Y774750D01*
X1849500Y761250D02*
Y774750D01*
X1840500Y926750D02*
X1861500D01*
X1840500Y913250D02*
X1861500D01*
X1840500D02*
Y926750D01*
X1861500Y913250D02*
Y926750D01*
X1828500Y896750D02*
X1849500D01*
X1828500Y883250D02*
X1849500D01*
X1828500D02*
Y896750D01*
X1849500Y883250D02*
Y896750D01*
X1648097Y723307D02*
X1656097D01*
X1648097Y711308D02*
Y723307D01*
Y711308D02*
X1656097D01*
Y723307D01*
X1663968D02*
X1671968D01*
X1663968Y711308D02*
Y723307D01*
Y711308D02*
X1671968D01*
Y723307D01*
X1689000Y730000D02*
X1697000D01*
X1689000Y718000D02*
Y730000D01*
Y718000D02*
X1697000D01*
Y730000D01*
X1705500Y904250D02*
Y917750D01*
X1726500Y904250D02*
Y917750D01*
X1705500D02*
X1726500D01*
X1705500Y904250D02*
X1726500D01*
X1617500D02*
Y917750D01*
X1638500Y904250D02*
Y917750D01*
X1617500D02*
X1638500D01*
X1617500Y904250D02*
X1638500D01*
X1726500Y792000D02*
Y868000D01*
X1621500Y792000D02*
Y868000D01*
X1726500D01*
X1621500Y792000D02*
X1726500D01*
X1159750Y543250D02*
Y560750D01*
X1150250Y543250D02*
Y560750D01*
X1159750D01*
X1150250Y543250D02*
X1159750D01*
X1234750Y544250D02*
Y561750D01*
X1225250Y544250D02*
Y561750D01*
X1234750D01*
X1225250Y544250D02*
X1234750D01*
X602000Y388000D02*
X636000D01*
X602000Y406000D02*
X636000D01*
Y388000D02*
Y406000D01*
X602000Y388000D02*
Y406000D01*
X601000Y334000D02*
X635000D01*
X601000Y352000D02*
X635000D01*
Y334000D02*
Y352000D01*
X601000Y334000D02*
Y352000D01*
X674000Y407000D02*
X708000D01*
X674000Y389000D02*
X708000D01*
X674000D02*
Y407000D01*
X708000Y389000D02*
Y407000D01*
X673000Y352000D02*
X707000D01*
X673000Y334000D02*
X707000D01*
X673000D02*
Y352000D01*
X707000Y334000D02*
Y352000D01*
X616500Y250000D02*
X630000Y263500D01*
X562000Y250000D02*
X616500D01*
X562000D02*
Y318000D01*
X616500D01*
X630000Y304500D01*
Y263500D02*
Y304500D01*
X671000Y303500D02*
X684500Y317000D01*
X739000D01*
Y249000D02*
Y317000D01*
X684500Y249000D02*
X739000D01*
X671000Y262500D02*
X684500Y249000D01*
X671000Y262500D02*
Y303500D01*
X682000Y125550D02*
Y152450D01*
X666000Y125550D02*
X682000D01*
X666000Y152450D02*
X682000D01*
X666000Y125550D02*
Y152450D01*
X388000Y188000D02*
X422000D01*
X388000Y206000D02*
X422000D01*
Y188000D02*
Y206000D01*
X388000Y188000D02*
Y206000D01*
Y165000D02*
X422000D01*
X388000Y183000D02*
X422000D01*
Y165000D02*
Y183000D01*
X388000Y165000D02*
Y183000D01*
Y142000D02*
X422000D01*
X388000Y160000D02*
X422000D01*
Y142000D02*
Y160000D01*
X388000Y142000D02*
Y160000D01*
X57000Y732000D02*
X91000D01*
X57000Y714000D02*
X91000D01*
X57000D02*
Y732000D01*
X91000Y714000D02*
Y732000D01*
X57000Y709000D02*
X91000D01*
X57000Y691000D02*
X91000D01*
X57000D02*
Y709000D01*
X91000Y691000D02*
Y709000D01*
X57000Y686000D02*
X91000D01*
X57000Y668000D02*
X91000D01*
X57000D02*
Y686000D01*
X91000Y668000D02*
Y686000D01*
X65000Y542000D02*
X99000D01*
X65000Y524000D02*
X99000D01*
X65000D02*
Y542000D01*
X99000Y524000D02*
Y542000D01*
X65000Y519000D02*
X99000D01*
X65000Y501000D02*
X99000D01*
X65000D02*
Y519000D01*
X99000Y501000D02*
Y519000D01*
X65000Y496000D02*
X99000D01*
X65000Y478000D02*
X99000D01*
X65000D02*
Y496000D01*
X99000Y478000D02*
Y496000D01*
X170000Y218750D02*
X192000D01*
X170000Y233250D02*
X192000D01*
Y218750D02*
Y233250D01*
X170000Y218750D02*
Y233250D01*
X182087Y101132D02*
X183870Y99630D01*
X180801Y101132D02*
X182087D01*
X183872Y99632D02*
X186501D01*
X186499D02*
X186500Y99633D01*
Y106770D01*
X79201Y31501D02*
Y112501D01*
X180801Y31501D02*
Y112501D01*
X79201D02*
X180801D01*
X79201Y31501D02*
X180801D01*
X183872Y106770D02*
X186500D01*
X180801Y105271D02*
X182087D01*
X183870Y106770D01*
X1770500Y415400D02*
Y446600D01*
X1785500Y415400D02*
Y446600D01*
X1770500D02*
X1785500D01*
X1770500Y415400D02*
X1785500D01*
X1770500Y373900D02*
Y405100D01*
X1785500Y373900D02*
Y405100D01*
X1770500D02*
X1785500D01*
X1770500Y373900D02*
X1785500D01*
X1771500Y334400D02*
Y365600D01*
X1786500Y334400D02*
Y365600D01*
X1771500D02*
X1786500D01*
X1771500Y334400D02*
X1786500D01*
X830436Y202000D02*
Y214000D01*
X838436D01*
Y202000D02*
Y214000D01*
X830436Y202000D02*
X838436D01*
X792027Y201900D02*
Y213900D01*
X800027D01*
Y201900D02*
Y213900D01*
X792027Y201900D02*
X800027D01*
X844049Y183757D02*
X856049D01*
X844049D02*
Y191757D01*
X856049D01*
Y183757D02*
Y191757D01*
X1250500Y35250D02*
Y48750D01*
X1229500Y35250D02*
Y48750D01*
X1250500D01*
X1229500Y35250D02*
X1250500D01*
X1011250Y62500D02*
X1024750D01*
X1011250Y41500D02*
X1024750D01*
X1011250D02*
Y62500D01*
X1024750Y41500D02*
Y62500D01*
X1178500Y495250D02*
Y508750D01*
X1199500Y495250D02*
Y508750D01*
X1178500Y495250D02*
X1199500D01*
X1178500Y508750D02*
X1199500D01*
X1141500Y425250D02*
Y438750D01*
X1120500Y425250D02*
Y438750D01*
X1141500D01*
X1120500Y425250D02*
X1141500D01*
D15*
X359000Y796000D02*
Y846000D01*
X309000Y796000D02*
Y846000D01*
Y796000D02*
X359000D01*
X309000Y846000D02*
X359000D01*
X679000Y796000D02*
Y846000D01*
X629000Y796000D02*
Y846000D01*
Y796000D02*
X679000D01*
X629000Y846000D02*
X679000D01*
X1028000Y107000D02*
Y382000D01*
X1033000Y387000D01*
X1338000D01*
Y107000D02*
Y387000D01*
X1028000Y107000D02*
X1338000D01*
M02*
