G04*
G04 #@! TF.GenerationSoftware,Altium Limited,Altium Designer,22.5.1 (42)*
G04*
G04 Layer_Color=32768*
%FSLAX44Y44*%
%MOMM*%
G71*
G04*
G04 #@! TF.SameCoordinates,22EFE7C3-C857-4B98-BFDA-642FBBEDC0F8*
G04*
G04*
G04 #@! TF.FilePolarity,Positive*
G04*
G01*
G75*
%ADD12C,0.1000*%
%ADD186C,0.0500*%
D12*
X1059500Y992750D02*
X1069500D01*
X1064500Y987750D02*
Y997750D01*
X369998Y759257D02*
Y768757D01*
X365248Y764007D02*
X374748D01*
X347000Y759000D02*
Y768500D01*
X342250Y763750D02*
X351750D01*
X332250Y869000D02*
X341750D01*
X337000Y864250D02*
Y873750D01*
X691000Y755250D02*
Y764750D01*
X686250Y760000D02*
X695750D01*
X667000Y755250D02*
Y764750D01*
X662250Y760000D02*
X671750D01*
X652250Y873000D02*
X661750D01*
X657000Y868250D02*
Y877750D01*
X1713000Y431000D02*
X1723000D01*
X1718000Y426000D02*
Y436000D01*
X1713000Y389417D02*
X1723000D01*
X1718000Y384417D02*
Y394417D01*
X1713000Y350000D02*
X1723000D01*
X1718000Y345000D02*
Y355000D01*
X947000Y214000D02*
X957000D01*
X952000Y209000D02*
Y219000D01*
X967000Y165000D02*
X977000D01*
X972000Y160000D02*
Y170000D01*
X1257000Y460000D02*
Y470000D01*
X1252000Y465000D02*
X1262000D01*
X1175250Y468000D02*
X1185250D01*
X1180250Y463000D02*
Y473000D01*
X1053000Y465000D02*
Y475000D01*
X1048000Y470000D02*
X1058000D01*
X1135000Y468000D02*
X1145000D01*
X1140000Y463000D02*
Y473000D01*
X1054000Y47000D02*
Y57000D01*
X1049000Y52000D02*
X1059000D01*
X1189000Y54000D02*
Y64000D01*
X1184000Y59000D02*
X1194000D01*
X1547000Y169000D02*
X1557000D01*
X1552000Y164000D02*
Y174000D01*
X1547000Y101000D02*
X1557000D01*
X1552000Y96000D02*
Y106000D01*
X1371000Y54000D02*
X1381000D01*
X1376000Y49000D02*
Y59000D01*
X780500Y208000D02*
X785500D01*
X783000Y205500D02*
Y210500D01*
X806500Y208000D02*
X811500D01*
X809000Y205500D02*
Y210500D01*
X1262000Y999250D02*
Y1008750D01*
X1257250Y1004000D02*
X1266750D01*
X1168000Y953000D02*
X1178000D01*
X1173000Y948000D02*
Y958000D01*
X1851000Y734000D02*
Y744000D01*
X1846000Y739000D02*
X1856000D01*
X1839000Y763000D02*
Y773000D01*
X1834000Y768000D02*
X1844000D01*
X1851000Y915000D02*
Y925000D01*
X1846000Y920000D02*
X1856000D01*
X1839000Y885000D02*
Y895000D01*
X1834000Y890000D02*
X1844000D01*
X1649597Y717308D02*
X1654597D01*
X1652097Y714808D02*
Y719808D01*
X1665468Y717308D02*
X1670468D01*
X1667968Y714808D02*
Y719808D01*
X1690500Y724000D02*
X1695500D01*
X1693000Y721500D02*
Y726500D01*
X1711000Y911000D02*
X1721000D01*
X1716000Y906000D02*
Y916000D01*
X1623000Y911000D02*
X1633000D01*
X1628000Y906000D02*
Y916000D01*
X1669000Y830000D02*
X1679000D01*
X1674000Y825000D02*
Y835000D01*
X1150250Y552000D02*
X1159750D01*
X1155000Y547250D02*
Y556750D01*
X1225250Y553000D02*
X1234750D01*
X1230000Y548250D02*
Y557750D01*
X619000Y392000D02*
Y402000D01*
X614000Y397000D02*
X624000D01*
X618000Y338000D02*
Y348000D01*
X613000Y343000D02*
X623000D01*
X691000Y393000D02*
Y403000D01*
X686000Y398000D02*
X696000D01*
X690000Y338000D02*
Y348000D01*
X685000Y343000D02*
X695000D01*
X591000Y284000D02*
X601000D01*
X596000Y279000D02*
Y289000D01*
X700000Y283000D02*
X710000D01*
X705000Y278000D02*
Y288000D01*
X674000Y134000D02*
Y144000D01*
X669000Y139000D02*
X679000D01*
X405000Y192000D02*
Y202000D01*
X400000Y197000D02*
X410000D01*
X405000Y169000D02*
Y179000D01*
X400000Y174000D02*
X410000D01*
X405000Y146000D02*
Y156000D01*
X400000Y151000D02*
X410000D01*
X74000Y718000D02*
Y728000D01*
X69000Y723000D02*
X79000D01*
X74000Y695000D02*
Y705000D01*
X69000Y700000D02*
X79000D01*
X74000Y672000D02*
Y682000D01*
X69000Y677000D02*
X79000D01*
X82000Y528000D02*
Y538000D01*
X77000Y533000D02*
X87000D01*
X82000Y505000D02*
Y515000D01*
X77000Y510000D02*
X87000D01*
X82000Y482000D02*
Y492000D01*
X77000Y487000D02*
X87000D01*
X181000Y221000D02*
Y231000D01*
X176000Y226000D02*
X186000D01*
X130000Y67000D02*
Y77000D01*
X125000Y72000D02*
X135000D01*
X1773000Y431000D02*
X1783000D01*
X1778000Y426000D02*
Y436000D01*
X1773000Y389500D02*
X1783000D01*
X1778000Y384500D02*
Y394500D01*
X1774000Y350000D02*
X1784000D01*
X1779000Y345000D02*
Y355000D01*
X834436Y205500D02*
Y210500D01*
X831936Y208000D02*
X836936D01*
X796027Y205400D02*
Y210400D01*
X793527Y207900D02*
X798527D01*
X847549Y187757D02*
X852549D01*
X850049Y185257D02*
Y190257D01*
X1235000Y42000D02*
X1245000D01*
X1240000Y37000D02*
Y47000D01*
X1018000Y47000D02*
Y57000D01*
X1013000Y52000D02*
X1023000D01*
X1184000Y502000D02*
X1194000D01*
X1189000Y497000D02*
Y507000D01*
X1126000Y432000D02*
X1136000D01*
X1131000Y427000D02*
Y437000D01*
D186*
X1114500Y970500D02*
Y1035500D01*
X1014500Y970500D02*
X1114500D01*
X1014500D02*
Y1035500D01*
X1114500D01*
X359498Y781007D02*
X380498D01*
X359498Y747007D02*
X380498D01*
Y781007D01*
X359498Y747007D02*
Y781007D01*
X336500Y780750D02*
X357500D01*
X336500Y746750D02*
X357500D01*
Y780750D01*
X336500Y746750D02*
Y780750D01*
X354000Y858500D02*
Y879500D01*
X320000Y858500D02*
Y879500D01*
Y858500D02*
X354000D01*
X320000Y879500D02*
X354000D01*
X302950Y789950D02*
X365050D01*
X302950D02*
Y852050D01*
X365050D01*
Y789950D02*
Y852050D01*
X680500Y777000D02*
X701500D01*
X680500Y743000D02*
X701500D01*
Y777000D01*
X680500Y743000D02*
Y777000D01*
X656500D02*
X677500D01*
X656500Y743000D02*
X677500D01*
Y777000D01*
X656500Y743000D02*
Y777000D01*
X674000Y862500D02*
Y883500D01*
X640000Y862500D02*
Y883500D01*
Y862500D02*
X674000D01*
X640000Y883500D02*
X674000D01*
X622950Y789950D02*
X685050D01*
X622950D02*
Y852050D01*
X685050D01*
Y789950D02*
Y852050D01*
X1727500Y414500D02*
Y447500D01*
X1708500Y414500D02*
Y447500D01*
X1727500D01*
X1708500Y414500D02*
X1727500D01*
X1727500Y372917D02*
Y405918D01*
X1708500Y372917D02*
Y405918D01*
X1727500D01*
X1708500Y372917D02*
X1727500D01*
X1727500Y333500D02*
Y366500D01*
X1708500Y333500D02*
Y366500D01*
X1727500D01*
X1708500Y333500D02*
X1727500D01*
X942000Y197000D02*
Y231000D01*
X962000Y197000D02*
Y231000D01*
X942000Y197000D02*
X962000D01*
X942000Y231000D02*
X962000D01*
X962500Y148500D02*
Y181500D01*
X981500Y148500D02*
Y181500D01*
X962500Y148500D02*
X981500D01*
X962500Y181500D02*
X981500D01*
X1247000Y482500D02*
X1267000D01*
X1247000Y447500D02*
X1267000D01*
X1247000D02*
Y482500D01*
X1267000Y447500D02*
Y482500D01*
X1163750Y449000D02*
Y487000D01*
X1196750Y449000D02*
Y487000D01*
X1163750D02*
X1196750D01*
X1163750Y449000D02*
X1196750D01*
X1043000Y452500D02*
X1063000D01*
X1043000Y487500D02*
X1063000D01*
Y452500D02*
Y487500D01*
X1043000Y452500D02*
Y487500D01*
X1156500Y449000D02*
Y487000D01*
X1123500Y449000D02*
Y487000D01*
Y449000D02*
X1156500D01*
X1123500Y487000D02*
X1156500D01*
X1035000Y68500D02*
X1073000D01*
X1035000Y35500D02*
X1073000D01*
Y68500D01*
X1035000Y35500D02*
Y68500D01*
X1170000Y42500D02*
X1208000D01*
X1170000Y75500D02*
X1208000D01*
X1170000Y42500D02*
Y75500D01*
X1208000Y42500D02*
Y75500D01*
X1530500Y156000D02*
Y182000D01*
X1573500Y156000D02*
Y182000D01*
X1530500D02*
X1573500D01*
X1530500Y156000D02*
X1573500D01*
X1530500Y88000D02*
Y114000D01*
X1573500Y88000D02*
Y114000D01*
X1530500D02*
X1573500D01*
X1530500Y88000D02*
X1573500D01*
X1388500Y32500D02*
Y75500D01*
X1363500Y32500D02*
Y75500D01*
X1388500D01*
X1363500Y32500D02*
X1388500D01*
X788000Y198000D02*
Y218000D01*
X778000D02*
X788000D01*
X778000Y198000D02*
Y218000D01*
Y198000D02*
X788000D01*
X814000D02*
Y218000D01*
X804000D02*
X814000D01*
X804000Y198000D02*
Y218000D01*
Y198000D02*
X814000D01*
X1245000Y993500D02*
X1279000D01*
X1245000Y1014500D02*
X1279000D01*
Y993500D02*
Y1014500D01*
X1245000Y993500D02*
Y1014500D01*
X1194000Y940500D02*
Y965500D01*
X1152000Y940500D02*
Y965500D01*
Y940500D02*
X1194000D01*
X1152000Y965500D02*
X1194000D01*
X1830000Y751500D02*
X1872000D01*
X1830000Y726500D02*
X1872000D01*
X1830000D02*
Y751500D01*
X1872000Y726500D02*
Y751500D01*
X1818000Y780500D02*
X1860000D01*
X1818000Y755500D02*
X1860000D01*
X1818000D02*
Y780500D01*
X1860000Y755500D02*
Y780500D01*
X1830000Y932500D02*
X1872000D01*
X1830000Y907500D02*
X1872000D01*
X1830000D02*
Y932500D01*
X1872000Y907500D02*
Y932500D01*
X1818000Y902500D02*
X1860000D01*
X1818000Y877500D02*
X1860000D01*
X1818000D02*
Y902500D01*
X1860000Y877500D02*
Y902500D01*
X1647097Y707308D02*
Y727308D01*
Y707308D02*
X1657097D01*
Y727308D01*
X1647097D02*
X1657097D01*
X1662968Y707308D02*
Y727308D01*
Y707308D02*
X1672968D01*
Y727308D01*
X1662968D02*
X1672968D01*
X1688000Y714000D02*
Y734000D01*
Y714000D02*
X1698000D01*
Y734000D01*
X1688000D02*
X1698000D01*
X1695000Y898500D02*
Y923500D01*
X1737000Y898500D02*
Y923500D01*
X1695000D02*
X1737000D01*
X1695000Y898500D02*
X1737000D01*
X1607000D02*
Y923500D01*
X1649000Y898500D02*
Y923500D01*
X1607000D02*
X1649000D01*
X1607000Y898500D02*
X1649000D01*
X1729000Y770750D02*
Y889250D01*
X1619000Y770750D02*
Y889250D01*
X1729000D01*
X1619000Y770750D02*
X1729000D01*
X1165500Y535000D02*
Y569000D01*
X1144500Y535000D02*
Y569000D01*
X1165500D01*
X1144500Y535000D02*
X1165500D01*
X1240500Y536000D02*
Y570000D01*
X1219500Y536000D02*
Y570000D01*
X1240500D01*
X1219500Y536000D02*
X1240500D01*
X595500Y385500D02*
X642500D01*
X595500Y408500D02*
X642500D01*
Y385500D02*
Y408500D01*
X595500Y385500D02*
Y408500D01*
X598000Y333500D02*
X638000D01*
X598000Y352500D02*
X638000D01*
Y333500D02*
Y352500D01*
X598000Y333500D02*
Y352500D01*
X667500Y409500D02*
X714500D01*
X667500Y386500D02*
X714500D01*
X667500D02*
Y409500D01*
X714500Y386500D02*
Y409500D01*
X670000Y352500D02*
X710000D01*
X670000Y333500D02*
X710000D01*
X670000D02*
Y352500D01*
X710000Y333500D02*
Y352500D01*
X641500Y247500D02*
Y320500D01*
X550500Y247500D02*
Y320500D01*
Y247500D02*
X641500D01*
X550500Y320500D02*
X641500D01*
X659500Y246500D02*
Y319500D01*
X750500Y246500D02*
Y319500D01*
X659500D02*
X750500D01*
X659500Y246500D02*
X750500D01*
X683000Y117100D02*
Y160900D01*
X665000Y117100D02*
X683000D01*
X665000Y160900D02*
X683000D01*
X665000Y117100D02*
Y160900D01*
X385000Y187500D02*
X425000D01*
X385000Y206500D02*
X425000D01*
Y187500D02*
Y206500D01*
X385000Y187500D02*
Y206500D01*
Y164500D02*
X425000D01*
X385000Y183500D02*
X425000D01*
Y164500D02*
Y183500D01*
X385000Y164500D02*
Y183500D01*
Y141500D02*
X425000D01*
X385000Y160500D02*
X425000D01*
Y141500D02*
Y160500D01*
X385000Y141500D02*
Y160500D01*
X54000Y732500D02*
X94000D01*
X54000Y713500D02*
X94000D01*
X54000D02*
Y732500D01*
X94000Y713500D02*
Y732500D01*
X54000Y709500D02*
X94000D01*
X54000Y690500D02*
X94000D01*
X54000D02*
Y709500D01*
X94000Y690500D02*
Y709500D01*
X54000Y686500D02*
X94000D01*
X54000Y667500D02*
X94000D01*
X54000D02*
Y686500D01*
X94000Y667500D02*
Y686500D01*
X62000Y542500D02*
X102000D01*
X62000Y523500D02*
X102000D01*
X62000D02*
Y542500D01*
X102000Y523500D02*
Y542500D01*
X62000Y519500D02*
X102000D01*
X62000Y500500D02*
X102000D01*
X62000D02*
Y519500D01*
X102000Y500500D02*
Y519500D01*
X62000Y496500D02*
X102000D01*
X62000Y477500D02*
X102000D01*
X62000D02*
Y496500D01*
X102000Y477500D02*
Y496500D01*
X164000Y216000D02*
X198000D01*
X164000Y236000D02*
X198000D01*
Y216000D02*
Y236000D01*
X164000Y216000D02*
Y236000D01*
X187499Y30501D02*
Y113501D01*
X78201D02*
X187499D01*
X78201Y30501D02*
X187499D01*
X78201Y30500D02*
Y113501D01*
X998000Y417000D02*
X1368000D01*
Y77000D02*
Y417000D01*
X998000Y77000D02*
X1368000D01*
X998000D02*
Y417000D01*
X1759000Y414500D02*
Y447500D01*
X1797000Y414500D02*
Y447500D01*
X1759000D02*
X1797000D01*
X1759000Y414500D02*
X1797000D01*
X1759000Y373000D02*
Y406000D01*
X1797000Y373000D02*
Y406000D01*
X1759000D02*
X1797000D01*
X1759000Y373000D02*
X1797000D01*
X1760000Y333500D02*
Y366500D01*
X1798000Y333500D02*
Y366500D01*
X1760000D02*
X1798000D01*
X1760000Y333500D02*
X1798000D01*
X829436Y198000D02*
X839436D01*
X829436D02*
Y218000D01*
X839436D01*
Y198000D02*
Y218000D01*
X791027Y197900D02*
X801027D01*
X791027D02*
Y217900D01*
X801027D01*
Y197900D02*
Y217900D01*
X860049Y182757D02*
Y192757D01*
X840049Y182757D02*
X860049D01*
X840049D02*
Y192757D01*
X860049D01*
X1256500Y32500D02*
Y51500D01*
X1223500Y32500D02*
Y51500D01*
X1256500D01*
X1223500Y32500D02*
X1256500D01*
X1008500Y68500D02*
X1027500D01*
X1008500Y35500D02*
X1027500D01*
X1008500D02*
Y68500D01*
X1027500Y35500D02*
Y68500D01*
X1172500Y492500D02*
Y511500D01*
X1205500Y492500D02*
Y511500D01*
X1172500Y492500D02*
X1205500D01*
X1172500Y511500D02*
X1205500D01*
X1147500Y422500D02*
Y441500D01*
X1114500Y422500D02*
Y441500D01*
X1147500D01*
X1114500Y422500D02*
X1147500D01*
M02*
