M48
;Layer_Color=9474304
;FILE_FORMAT=4:4
METRIC,LZ
;TYPE=PLATED
T1F00S00C0.3500
T2F00S00C0.3810
T3F00S00C0.7112
T4F00S00C0.8000
T5F00S00C0.9000
T6F00S00C1.0000
T7F00S00C1.0033
T8F00S00C1.3000
T9F00S00C1.6000
;TYPE=NON_PLATED
T10F00S00C0.7500
T11F00S00C1.0000
T12F00S00C1.2500
%
T01
X0038743Y00109188
X00552Y00111
X0072588Y00146154
X00847Y00146
X0093603Y00106431
X00916369Y00055033
X01043Y00074
X01096373Y00052221
X01127Y00059
X01130427Y00043132
X0126Y00042
X01333245Y00051372
X00995Y00134
X01439988Y00320376
X01468Y00321
X01537Y00319
X01576Y00318
X01575Y00378
X01615313Y00378031
X01668Y00327
X01652Y00264
X0146931Y00441999
X01412Y00454
X01406Y00498
X01374
X01403973Y00378031
X01282Y00423
X01269
X01256
X01244
X0123089Y0040998
X01273Y00454
X0127Y00473
X01167Y00502
X01167274Y00525064
X01153Y00426
X0114Y00416
X01037Y00462
X0099Y00321
X00989Y00295
X0097102Y00193288
X00956Y00159
X00992486Y00146962
X00867Y00154
Y00182
X00809Y00179966
X00796Y0019
X00783Y0017
X00737Y00214
X00494Y00176
X00138Y00443
X0014364Y00633242
X00046843Y00647025
X00033Y00623
X0006Y00742
X00135Y00824
X00277529Y00829987
X00295786Y00834113
X00272Y00807
X00253Y00896
X00308508Y00720602
X00385Y00771
X0049Y0069
X00515463Y00678979
X00502Y00664
X0053471Y00656307
X00342Y00595
X00168Y00594
X00606Y00639
X0065Y00616
X00669Y00608
X00681Y00672
X00694Y00725
X00706Y00755
X00729Y00748
X00719Y00773
X00745
X0077Y0078029
X00757Y00739
X00781Y00732
X00808Y00718
X00837Y00711
X00900972Y00689198
X00891Y00679
X00897Y00648
X00931Y00656
X00932Y0064
X00922Y00704
X00914Y00725
X00934Y00834
X00929Y00844
X00923369Y00855887
X00905051Y00856396
X00901Y00844
X00888Y00853
X00876Y00835
X00931Y0087
X0093Y00907
X00926431Y00920166
X00905998Y00906591
X00893Y00921
X00690913Y00779987
X00667Y00787
X00657Y00779
X00619779Y00787191
X00603Y00797
X00601Y00834
X00562Y00897
X00549061Y00703971
X00629519Y00696833
X00642Y00704
X00630937Y0072781
X00846Y00549
X00871Y00547
X00948Y00649
Y00663
X0098Y00725
X01032Y00718
Y00704
X01044Y00711
X01045Y00697
X01044Y00732
Y00748
X01043961Y00764902
X01056Y00773
X01041Y00789
X01027Y00797
X01026Y00781
X01032Y00756
Y00739
X01070073Y00678733
X01157Y0066
X01178Y00664
X01181Y00633
X01141Y00636
X01180706Y00588065
X01210984Y0058798
X01227Y00656
X0122033Y00675364
X01205133Y00730867
X01228Y00741
X01241Y00749
X01239Y0073
X01247Y0078
X01251Y00802
X0125Y00812
X0122542Y00818424
X0123Y00828
X01214Y0081
X01189Y00795
X01196Y00787
X01152Y0082
X01133Y00765
X01301Y00767
X01317Y00774
X01333Y00775
X01316Y00806045
X01302Y00813
X01329Y00858
X01272Y00878
X01248Y00895
X01222Y00907
X0121
X01205Y0092
X01214Y00872
X01305062Y00940167
X01287Y00714
X01044414Y00862961
X00968Y00929
X0096Y00937
X00951Y00929
X01433Y00914
X01521Y00814
X01542
X01594Y00762
Y00733
X01652Y00735
X01668Y00734
Y00803
X01655Y00804
X0163Y00765
X01646Y00673
X01667Y00645
X01722Y00646
X01729Y00668
X01537Y00664
X01511
X01511186Y00608989
X01537465Y00610544
X01382Y00577544
X0138187Y0055875
X01393Y0067
Y00684
X01764224Y00587708
X01944Y00573
X01827667Y0073883
X01821Y00805
X01890328Y00859042
X01287Y00941
X01298859Y0096606
X012Y00966
X01197Y00979
X0116265Y00967265
X01085387Y00959532
X01089Y01029
T02
X01364Y00538
X01403
X01265Y00343
X01233
X01199
X01167
X01133
X01101
Y00295
X01133
X01167
X01199
X01233
X01265
Y00247
X01233
Y00199
X01265
Y00151
X01233
X01199
X01167
X01133
X01101
Y00199
X01133
X01167
X01199
X01191Y00263
X01133Y00247
X01101
X00686Y00435
X00675667
X00665333
X00655
X00644667
X00634333
X00624
X00221Y00314
X00321Y00812
Y00821
Y00834
X00334
X00345
Y00821
Y00811
X00334
Y00821
X00642Y00825
Y00833
X00651
X0066
X00656Y00826
X00666Y00827
X00660884Y00819555
X00652Y00819
X00642Y00816
X01246Y00645
X01269Y0099
T03
X00189Y0038
X00135435Y00456
T04
X0190425Y00311
X0194175
X01941133Y00349994
X01903633
Y00389417
X01941133
X01940133Y00431264
X01902633
X0067395Y00199
X0057005
T05
X01735Y005196
X017604
X017858
X018112
X017096
X016842
X016588
X016334
X01608
X015826
X009728Y00531
X009474
X00922
X008966
X008712
X008458
X008204
X00795
X007696
X007442
X007188
X006934
X00668
X006426
X006172
X005918
X005664
X00541
X005156
X004902
Y0056979
X005156
X00541
X005664
X005918
X006172
X006426
X00668
X006934
X007188
X007442
X007696
X00795
X008204
X01354Y00621
X013794
X014048
X015826Y00545
X01608
X016334
X016588
X016842
X017096
X01735
X017604
X017858
X018112
T06
X018166Y00981
X01842
X018674
X018928
X017121Y00993
X016867
X016613
X016359
X009865Y01004
X009611
X009357
X009103
X008849
X008595
T07
X01685Y00069
Y000944
Y001198
Y001452
X018882
Y001198
Y000944
Y00069
Y001706
Y00196
X01685
Y001706
T08
X001046Y00072
X001554
T09
X002702Y00924
X00321
X003718
X004226
X005858Y00922
X006366
X006874
X007382
T10
X00782Y000314
X00867
T11
X01392Y01003
X01472
X00109Y00941
T12
X00109Y008665
M30
