G04*
G04 #@! TF.GenerationSoftware,Altium Limited,Altium Designer,22.5.1 (42)*
G04*
G04 Layer_Color=255*
%FSLAX44Y44*%
%MOMM*%
G71*
G04*
G04 #@! TF.SameCoordinates,22EFE7C3-C857-4B98-BFDA-642FBBEDC0F8*
G04*
G04*
G04 #@! TF.FilePolarity,Positive*
G04*
G01*
G75*
%ADD36R,1.3500X1.0000*%
%ADD37R,1.3061X1.5071*%
%ADD44R,1.3500X0.9500*%
%ADD66R,0.9000X0.7500*%
%ADD83R,1.7000X0.9500*%
%ADD98R,1.4000X1.0000*%
%ADD136C,1.5500*%
%ADD137R,1.5500X1.5500*%
%ADD138C,0.7500*%
%ADD141R,1.3000X1.3000*%
%ADD142C,1.3000*%
%ADD143C,1.0000*%
%ADD144C,1.2500*%
%ADD166C,2.4000*%
G04:AMPARAMS|DCode=167|XSize=2.4mm|YSize=2.4mm|CornerRadius=0.6mm|HoleSize=0mm|Usage=FLASHONLY|Rotation=180.000|XOffset=0mm|YOffset=0mm|HoleType=Round|Shape=RoundedRectangle|*
%AMROUNDEDRECTD167*
21,1,2.4000,1.2000,0,0,180.0*
21,1,1.2000,2.4000,0,0,180.0*
1,1,1.2000,-0.6000,0.6000*
1,1,1.2000,0.6000,0.6000*
1,1,1.2000,0.6000,-0.6000*
1,1,1.2000,-0.6000,-0.6000*
%
%ADD167ROUNDEDRECTD167*%
%ADD168C,1.5000*%
G04:AMPARAMS|DCode=169|XSize=1.5mm|YSize=1.5mm|CornerRadius=0.375mm|HoleSize=0mm|Usage=FLASHONLY|Rotation=180.000|XOffset=0mm|YOffset=0mm|HoleType=Round|Shape=RoundedRectangle|*
%AMROUNDEDRECTD169*
21,1,1.5000,0.7500,0,0,180.0*
21,1,0.7500,1.5000,0,0,180.0*
1,1,0.7500,-0.3750,0.3750*
1,1,0.7500,0.3750,0.3750*
1,1,0.7500,0.3750,-0.3750*
1,1,0.7500,-0.3750,-0.3750*
%
%ADD169ROUNDEDRECTD169*%
%ADD170C,0.5000*%
%ADD171O,2.5400X1.5240*%
%ADD172R,1.5000X1.5000*%
%ADD173R,1.8000X1.8000*%
%ADD174C,1.8000*%
%ADD177R,1.4500X1.3500*%
%ADD178R,1.0000X1.4000*%
%ADD179R,0.7800X0.7800*%
%ADD180R,1.0621X1.1350*%
%ADD181R,1.5071X1.3061*%
%ADD182R,1.0000X1.3500*%
D36*
X1018000Y61000D02*
D03*
Y43000D02*
D03*
D37*
X1250000Y69000D02*
D03*
X1230478D02*
D03*
D44*
X1150000Y58500D02*
D03*
Y43500D02*
D03*
D66*
X1181000Y639000D02*
D03*
Y651000D02*
D03*
D83*
X980000Y158000D02*
D03*
Y186000D02*
D03*
X936000Y147000D02*
D03*
Y119000D02*
D03*
X977000Y134000D02*
D03*
Y106000D02*
D03*
D98*
X1065000Y52000D02*
D03*
X1043000Y61500D02*
D03*
Y42500D02*
D03*
X1178000Y59000D02*
D03*
X1200000Y49500D02*
D03*
Y68500D02*
D03*
D136*
X986500Y1004000D02*
D03*
X961100D02*
D03*
X935700D02*
D03*
X910300D02*
D03*
X884900D02*
D03*
D137*
X859500D02*
D03*
D138*
X782000Y31400D02*
D03*
X867000D02*
D03*
D141*
X570050Y199000D02*
D03*
D142*
X673950D02*
D03*
D143*
X109000Y941000D02*
D03*
D144*
Y866500D02*
D03*
D166*
X270200Y924000D02*
D03*
X321000D02*
D03*
X371800D02*
D03*
X687400Y922000D02*
D03*
X636600D02*
D03*
X585800D02*
D03*
D167*
X422600Y924000D02*
D03*
X738200Y922000D02*
D03*
D168*
X1892800Y981000D02*
D03*
X1867400D02*
D03*
X1842000D02*
D03*
X1635900Y993000D02*
D03*
X1661300D02*
D03*
X1686700D02*
D03*
X1404800Y621000D02*
D03*
X1379400D02*
D03*
X820400Y569790D02*
D03*
X795000D02*
D03*
X769600D02*
D03*
X744200D02*
D03*
X718800D02*
D03*
X693400D02*
D03*
X668000D02*
D03*
X642600D02*
D03*
X617200D02*
D03*
X591800D02*
D03*
X566400D02*
D03*
X541000D02*
D03*
X515600D02*
D03*
Y531000D02*
D03*
X541000D02*
D03*
X566400D02*
D03*
X591800D02*
D03*
X617200D02*
D03*
X642600D02*
D03*
X668000D02*
D03*
X693400D02*
D03*
X718800D02*
D03*
X744200D02*
D03*
X769600D02*
D03*
X795000D02*
D03*
X820400D02*
D03*
X845800D02*
D03*
X871200D02*
D03*
X896600D02*
D03*
X922000D02*
D03*
X947400D02*
D03*
X972800D02*
D03*
X1582600Y545000D02*
D03*
X1608000Y519600D02*
D03*
Y545000D02*
D03*
X1633400Y519600D02*
D03*
Y545000D02*
D03*
X1658800Y519600D02*
D03*
Y545000D02*
D03*
X1684200Y519600D02*
D03*
Y545000D02*
D03*
X1709600Y519600D02*
D03*
Y545000D02*
D03*
X1735000Y519600D02*
D03*
Y545000D02*
D03*
X1760400Y519600D02*
D03*
Y545000D02*
D03*
X1785800Y519600D02*
D03*
Y545000D02*
D03*
X1811200Y519600D02*
D03*
Y545000D02*
D03*
D169*
X1816600Y981000D02*
D03*
X1712100Y993000D02*
D03*
D170*
X1392000Y1003000D02*
D03*
X1472000D02*
D03*
D171*
X1888200Y196000D02*
D03*
Y170600D02*
D03*
Y145200D02*
D03*
Y119800D02*
D03*
Y94400D02*
D03*
Y69000D02*
D03*
X1685000Y196000D02*
D03*
Y170600D02*
D03*
Y145200D02*
D03*
Y119800D02*
D03*
Y94400D02*
D03*
Y69000D02*
D03*
D172*
X1354000Y621000D02*
D03*
X490200Y569790D02*
D03*
Y531000D02*
D03*
X1582600Y519600D02*
D03*
D173*
X155400Y72000D02*
D03*
D174*
X104600D02*
D03*
D177*
X1257000Y473250D02*
D03*
Y456750D02*
D03*
X1053000Y461750D02*
D03*
Y478250D02*
D03*
D178*
X1180250Y479000D02*
D03*
X1170750Y457000D02*
D03*
X1189750D02*
D03*
X1140000D02*
D03*
X1149500Y479000D02*
D03*
X1130500D02*
D03*
D179*
X1664000Y961000D02*
D03*
X1683000D02*
D03*
X1673500Y938100D02*
D03*
D180*
X143103Y614068D02*
D03*
Y597760D02*
D03*
X138000Y430154D02*
D03*
Y413846D02*
D03*
D181*
X1096000Y459239D02*
D03*
Y478761D02*
D03*
X983000Y62761D02*
D03*
Y43239D02*
D03*
X1223000Y476761D02*
D03*
Y457239D02*
D03*
D182*
X1249000Y42000D02*
D03*
X1231000D02*
D03*
X1180000Y502000D02*
D03*
X1198000D02*
D03*
X1140000Y432000D02*
D03*
X1122000D02*
D03*
M02*
