G04*
G04 #@! TF.GenerationSoftware,Altium Limited,Altium Designer,22.5.1 (42)*
G04*
G04 Layer_Color=32768*
%FSLAX44Y44*%
%MOMM*%
G71*
G04*
G04 #@! TF.SameCoordinates,22EFE7C3-C857-4B98-BFDA-642FBBEDC0F8*
G04*
G04*
G04 #@! TF.FilePolarity,Positive*
G04*
G01*
G75*
%ADD11C,0.2000*%
D11*
X1176250Y653750D02*
X1185750D01*
Y636250D02*
Y653750D01*
X1176250Y636250D02*
X1185750D01*
X1176250D02*
Y653750D01*
X989000Y155000D02*
Y189000D01*
X971000D02*
X989000D01*
X971000Y155000D02*
Y189000D01*
Y155000D02*
X989000D01*
X1142750Y40000D02*
Y62000D01*
Y40000D02*
X1157250D01*
Y62000D01*
X1142750D02*
X1157250D01*
X927000Y116000D02*
Y150000D01*
Y116000D02*
X945000D01*
Y150000D01*
X927000D02*
X945000D01*
X968000Y103000D02*
Y137000D01*
Y103000D02*
X986000D01*
Y137000D01*
X968000D02*
X986000D01*
X1658300Y942550D02*
X1688700D01*
Y956550D01*
X1658300D02*
X1688700D01*
X1658300Y942550D02*
Y956550D01*
X138853Y598164D02*
Y613664D01*
Y598164D02*
X147353D01*
Y613664D01*
X138853D02*
X147353D01*
X133750Y414250D02*
Y429750D01*
Y414250D02*
X142250D01*
Y429750D01*
X133750D02*
X142250D01*
X1089750Y479000D02*
X1102250D01*
Y459000D02*
Y479000D01*
X1089750Y459000D02*
X1102250D01*
X1089750D02*
Y479000D01*
X976750Y43000D02*
X989250D01*
X976750D02*
Y63000D01*
X989250D01*
Y43000D02*
Y63000D01*
X1216750Y457000D02*
X1229250D01*
X1216750D02*
Y477000D01*
X1229250D01*
Y457000D02*
Y477000D01*
X1230239Y62750D02*
Y75250D01*
X1250239D01*
Y62750D02*
Y75250D01*
X1230239Y62750D02*
X1250239D01*
M02*
