G04*
G04 #@! TF.GenerationSoftware,Altium Limited,Altium Designer,22.5.1 (42)*
G04*
G04 Layer_Color=32896*
%FSLAX44Y44*%
%MOMM*%
G71*
G04*
G04 #@! TF.SameCoordinates,22EFE7C3-C857-4B98-BFDA-642FBBEDC0F8*
G04*
G04*
G04 #@! TF.FilePolarity,Positive*
G04*
G01*
G75*
%ADD10C,0.2500*%
%ADD11C,0.2000*%
%ADD16C,0.2540*%
D10*
X1201500Y457000D02*
G03*
X1201500Y457000I-1250J0D01*
G01*
X1121250Y479000D02*
G03*
X1121250Y479000I-1250J0D01*
G01*
X1044250Y32000D02*
G03*
X1044250Y32000I-1250J0D01*
G01*
X1201250Y79000D02*
G03*
X1201250Y79000I-1250J0D01*
G01*
D11*
X1189530Y636197D02*
Y653697D01*
X1172500Y636250D02*
Y653750D01*
X989000Y166500D02*
Y177500D01*
X971000Y166500D02*
Y177500D01*
X1164750Y475500D02*
X1171250D01*
X1164750Y467870D02*
Y475500D01*
X1189250D02*
X1195750D01*
Y467870D02*
Y475500D01*
X1149000Y460500D02*
X1155500D01*
Y468130D01*
X1124500Y460500D02*
X1131000D01*
X1124500D02*
Y468130D01*
X1061500Y61000D02*
Y67500D01*
X1053870D02*
X1061500D01*
Y36500D02*
Y43000D01*
X1053870Y36500D02*
X1061500D01*
X1139250Y40000D02*
Y62000D01*
X1160750Y40000D02*
Y62000D01*
X1181500Y43500D02*
Y50000D01*
Y43500D02*
X1189130D01*
X1181500Y68000D02*
Y74500D01*
X1189130D01*
X927000Y127500D02*
Y138500D01*
X945000Y127500D02*
Y138500D01*
X968000Y114500D02*
Y125500D01*
X986000Y114500D02*
Y125500D01*
X1658300Y942550D02*
Y953350D01*
X1681150Y942550D02*
X1688700D01*
X1658300D02*
X1665850D01*
X1688700D02*
Y953350D01*
X1671650Y956550D02*
X1675350D01*
X133603Y598414D02*
Y613414D01*
X152603Y598414D02*
Y613414D01*
X128500Y414500D02*
Y429500D01*
X147500Y414500D02*
Y429500D01*
X1084465Y452709D02*
Y485291D01*
X1107535Y452709D02*
Y485291D01*
X1239000Y47750D02*
X1241000D01*
X1239000Y36250D02*
X1241000D01*
X1012250Y51000D02*
Y53000D01*
X1023750Y51000D02*
Y53000D01*
X1188000Y496250D02*
X1190000D01*
X1188000Y507750D02*
X1190000D01*
X1130000Y437750D02*
X1132000D01*
X1130000Y426250D02*
X1132000D01*
X994535Y36709D02*
Y69291D01*
X971465Y36709D02*
Y69291D01*
X1234535Y450709D02*
Y483291D01*
X1211465Y450709D02*
Y483291D01*
X1223948Y57465D02*
X1256530D01*
X1223948Y80535D02*
X1256530D01*
D16*
X1011383Y71687D02*
X1026618D01*
Y79304D01*
X1024078Y81843D01*
X1019000D01*
X1016461Y79304D01*
Y71687D01*
Y76765D02*
X1011383Y81843D01*
Y94539D02*
X1026618D01*
X1019000Y86922D01*
Y97078D01*
X1013922Y102157D02*
X1011383Y104696D01*
Y109774D01*
X1013922Y112313D01*
X1024078D01*
X1026618Y109774D01*
Y104696D01*
X1024078Y102157D01*
X1021539D01*
X1019000Y104696D01*
Y112313D01*
X964617Y74313D02*
X949382D01*
Y66696D01*
X951922Y64157D01*
X957000D01*
X959539Y66696D01*
Y74313D01*
Y69235D02*
X964617Y64157D01*
Y51461D02*
X949382D01*
X957000Y59078D01*
Y48922D01*
X951922Y43843D02*
X949382Y41304D01*
Y36226D01*
X951922Y33686D01*
X954461D01*
X957000Y36226D01*
X959539Y33686D01*
X962078D01*
X964617Y36226D01*
Y41304D01*
X962078Y43843D01*
X959539D01*
X957000Y41304D01*
X954461Y43843D01*
X951922D01*
X957000Y41304D02*
Y36226D01*
X1213382Y400686D02*
X1228618D01*
Y408304D01*
X1226078Y410843D01*
X1221000D01*
X1218461Y408304D01*
Y400686D01*
Y405765D02*
X1213382Y410843D01*
Y423539D02*
X1228618D01*
X1221000Y415922D01*
Y426078D01*
X1228618Y431157D02*
Y441313D01*
X1226078D01*
X1215922Y431157D01*
X1213382D01*
X1249313Y494383D02*
Y509618D01*
X1241696D01*
X1239157Y507078D01*
Y502000D01*
X1241696Y499461D01*
X1249313D01*
X1244235D02*
X1239157Y494383D01*
X1226461D02*
Y509618D01*
X1234078Y502000D01*
X1223922D01*
X1208687Y509618D02*
X1213765Y507078D01*
X1218843Y502000D01*
Y496922D01*
X1216304Y494383D01*
X1211226D01*
X1208687Y496922D01*
Y499461D01*
X1211226Y502000D01*
X1218843D01*
X1268687Y49618D02*
Y34383D01*
X1276304D01*
X1278843Y36922D01*
Y42000D01*
X1276304Y44539D01*
X1268687D01*
X1273765D02*
X1278843Y49618D01*
X1291539D02*
Y34383D01*
X1283922Y42000D01*
X1294078D01*
X1309313Y34383D02*
X1299157D01*
Y42000D01*
X1304235Y39461D01*
X1306774D01*
X1309313Y42000D01*
Y47078D01*
X1306774Y49618D01*
X1301696D01*
X1299157Y47078D01*
X1065383Y451687D02*
X1080618D01*
Y459304D01*
X1078078Y461843D01*
X1073000D01*
X1070461Y459304D01*
Y451687D01*
Y456765D02*
X1065383Y461843D01*
Y474539D02*
X1080618D01*
X1073000Y466922D01*
Y477078D01*
X1065383Y489774D02*
X1080618D01*
X1073000Y482157D01*
Y492313D01*
X1269687Y76617D02*
Y61382D01*
X1277304D01*
X1279843Y63922D01*
Y69000D01*
X1277304Y71539D01*
X1269687D01*
X1274765D02*
X1279843Y76617D01*
X1292539D02*
Y61382D01*
X1284922Y69000D01*
X1295078D01*
X1300157Y63922D02*
X1302696Y61382D01*
X1307774D01*
X1310314Y63922D01*
Y66461D01*
X1307774Y69000D01*
X1305235D01*
X1307774D01*
X1310314Y71539D01*
Y74078D01*
X1307774Y76617D01*
X1302696D01*
X1300157Y74078D01*
X1111313Y424383D02*
Y439618D01*
X1103696D01*
X1101157Y437078D01*
Y432000D01*
X1103696Y429461D01*
X1111313D01*
X1106235D02*
X1101157Y424383D01*
X1088461D02*
Y439618D01*
X1096078Y432000D01*
X1085922D01*
X1070687Y424383D02*
X1080843D01*
X1070687Y434539D01*
Y437078D01*
X1073226Y439618D01*
X1078304D01*
X1080843Y437078D01*
X126617Y626313D02*
X111383D01*
Y618696D01*
X113922Y616157D01*
X119000D01*
X121539Y618696D01*
Y626313D01*
Y621235D02*
X126617Y616157D01*
X113922Y611078D02*
X111383Y608539D01*
Y603461D01*
X113922Y600922D01*
X116461D01*
X119000Y603461D01*
Y606000D01*
Y603461D01*
X121539Y600922D01*
X124078D01*
X126617Y603461D01*
Y608539D01*
X124078Y611078D01*
X113922Y595843D02*
X111383Y593304D01*
Y588226D01*
X113922Y585687D01*
X116461D01*
X119000Y588226D01*
X121539Y585687D01*
X124078D01*
X126617Y588226D01*
Y593304D01*
X124078Y595843D01*
X121539D01*
X119000Y593304D01*
X116461Y595843D01*
X113922D01*
X119000Y593304D02*
Y588226D01*
X107382Y402687D02*
X122618D01*
Y410304D01*
X120078Y412843D01*
X115000D01*
X112461Y410304D01*
Y402687D01*
Y407765D02*
X107382Y412843D01*
X120078Y417922D02*
X122618Y420461D01*
Y425539D01*
X120078Y428078D01*
X117539D01*
X115000Y425539D01*
Y423000D01*
Y425539D01*
X112461Y428078D01*
X109922D01*
X107382Y425539D01*
Y420461D01*
X109922Y417922D01*
X120078Y433157D02*
X122618Y435696D01*
Y440774D01*
X120078Y443313D01*
X109922D01*
X107382Y440774D01*
Y435696D01*
X109922Y433157D01*
X120078D01*
X1063461Y88078D02*
Y77922D01*
X1060922Y75382D01*
X1055843D01*
X1053304Y77922D01*
Y88078D01*
X1055843Y90618D01*
X1060922D01*
X1058382Y85539D02*
X1063461Y90618D01*
X1060922D02*
X1063461Y88078D01*
X1068539Y75382D02*
X1078696D01*
Y77922D01*
X1068539Y88078D01*
Y90618D01*
X1182539Y429922D02*
Y440078D01*
X1185078Y442617D01*
X1190157D01*
X1192696Y440078D01*
Y429922D01*
X1190157Y427383D01*
X1185078D01*
X1187617Y432461D02*
X1182539Y427383D01*
X1185078D02*
X1182539Y429922D01*
X1167304Y442617D02*
X1172383Y440078D01*
X1177461Y435000D01*
Y429922D01*
X1174922Y427383D01*
X1169843D01*
X1167304Y429922D01*
Y432461D01*
X1169843Y435000D01*
X1177461D01*
X1185461Y35078D02*
Y24922D01*
X1182922Y22382D01*
X1177843D01*
X1175304Y24922D01*
Y35078D01*
X1177843Y37617D01*
X1182922D01*
X1180383Y32539D02*
X1185461Y37617D01*
X1182922D02*
X1185461Y35078D01*
X1200696Y22382D02*
X1190539D01*
Y30000D01*
X1195618Y27461D01*
X1198157D01*
X1200696Y30000D01*
Y35078D01*
X1198157Y37617D01*
X1193078D01*
X1190539Y35078D01*
X1141539Y494922D02*
Y505078D01*
X1144078Y507617D01*
X1149157D01*
X1151696Y505078D01*
Y494922D01*
X1149157Y492383D01*
X1144078D01*
X1146618Y497461D02*
X1141539Y492383D01*
X1144078D02*
X1141539Y494922D01*
X1128843Y492383D02*
Y507617D01*
X1136461Y500000D01*
X1126304D01*
X1652696Y966618D02*
Y951383D01*
X1645078D01*
X1642539Y953922D01*
Y964078D01*
X1645078Y966618D01*
X1652696D01*
X1627304D02*
X1637461D01*
Y959000D01*
X1632383Y961539D01*
X1629843D01*
X1627304Y959000D01*
Y953922D01*
X1629843Y951383D01*
X1634922D01*
X1637461Y953922D01*
X1211078Y644461D02*
X1213617Y641922D01*
Y636843D01*
X1211078Y634304D01*
X1200922D01*
X1198382Y636843D01*
Y641922D01*
X1200922Y644461D01*
Y649539D02*
X1198382Y652078D01*
Y657157D01*
X1200922Y659696D01*
X1211078D01*
X1213617Y657157D01*
Y652078D01*
X1211078Y649539D01*
X1208539D01*
X1206000Y652078D01*
Y659696D01*
X993922Y117157D02*
X991382Y119696D01*
Y124774D01*
X993922Y127313D01*
X1004078D01*
X1006618Y124774D01*
Y119696D01*
X1004078Y117157D01*
X991382Y101922D02*
Y112078D01*
X999000D01*
X996461Y107000D01*
Y104461D01*
X999000Y101922D01*
X1004078D01*
X1006618Y104461D01*
Y109539D01*
X1004078Y112078D01*
Y96843D02*
X1006618Y94304D01*
Y89226D01*
X1004078Y86686D01*
X993922D01*
X991382Y89226D01*
Y94304D01*
X993922Y96843D01*
X996461D01*
X999000Y94304D01*
Y86686D01*
X907922Y144157D02*
X905383Y146696D01*
Y151774D01*
X907922Y154313D01*
X918078D01*
X920618Y151774D01*
Y146696D01*
X918078Y144157D01*
X905383Y128922D02*
Y139078D01*
X913000D01*
X910461Y134000D01*
Y131461D01*
X913000Y128922D01*
X918078D01*
X920618Y131461D01*
Y136539D01*
X918078Y139078D01*
X907922Y123843D02*
X905383Y121304D01*
Y116226D01*
X907922Y113687D01*
X910461D01*
X913000Y116226D01*
X915539Y113687D01*
X918078D01*
X920618Y116226D01*
Y121304D01*
X918078Y123843D01*
X915539D01*
X913000Y121304D01*
X910461Y123843D01*
X907922D01*
X913000Y121304D02*
Y116226D01*
X1012078Y171843D02*
X1014618Y169304D01*
Y164226D01*
X1012078Y161686D01*
X1001922D01*
X999382Y164226D01*
Y169304D01*
X1001922Y171843D01*
X1014618Y187078D02*
Y176922D01*
X1007000D01*
X1009539Y182000D01*
Y184539D01*
X1007000Y187078D01*
X1001922D01*
X999382Y184539D01*
Y179461D01*
X1001922Y176922D01*
X1014618Y192157D02*
Y202313D01*
X1012078D01*
X1001922Y192157D01*
X999382D01*
X1282922Y475157D02*
X1280383Y477696D01*
Y482774D01*
X1282922Y485313D01*
X1293078D01*
X1295618Y482774D01*
Y477696D01*
X1293078Y475157D01*
X1280383Y459922D02*
Y470078D01*
X1288000D01*
X1285461Y465000D01*
Y462461D01*
X1288000Y459922D01*
X1293078D01*
X1295618Y462461D01*
Y467539D01*
X1293078Y470078D01*
X1280383Y444687D02*
X1282922Y449765D01*
X1288000Y454843D01*
X1293078D01*
X1295618Y452304D01*
Y447226D01*
X1293078Y444687D01*
X1290539D01*
X1288000Y447226D01*
Y454843D01*
X1047922Y441157D02*
X1045383Y443696D01*
Y448774D01*
X1047922Y451313D01*
X1058078D01*
X1060618Y448774D01*
Y443696D01*
X1058078Y441157D01*
X1045383Y425922D02*
Y436078D01*
X1053000D01*
X1050461Y431000D01*
Y428461D01*
X1053000Y425922D01*
X1058078D01*
X1060618Y428461D01*
Y433539D01*
X1058078Y436078D01*
X1045383Y410687D02*
Y420843D01*
X1053000D01*
X1050461Y415765D01*
Y413226D01*
X1053000Y410687D01*
X1058078D01*
X1060618Y413226D01*
Y418304D01*
X1058078Y420843D01*
X1155078Y77843D02*
X1157618Y75304D01*
Y70226D01*
X1155078Y67687D01*
X1144922D01*
X1142383Y70226D01*
Y75304D01*
X1144922Y77843D01*
X1157618Y93078D02*
Y82922D01*
X1150000D01*
X1152539Y88000D01*
Y90539D01*
X1150000Y93078D01*
X1144922D01*
X1142383Y90539D01*
Y85461D01*
X1144922Y82922D01*
X1142383Y105774D02*
X1157618D01*
X1150000Y98157D01*
Y108313D01*
M02*
