G04*
G04 #@! TF.GenerationSoftware,Altium Limited,Altium Designer,22.5.1 (42)*
G04*
G04 Layer_Color=1265191*
%FSLAX44Y44*%
%MOMM*%
G71*
G04*
G04 #@! TF.SameCoordinates,22EFE7C3-C857-4B98-BFDA-642FBBEDC0F8*
G04*
G04*
G04 #@! TF.FilePolarity,Negative*
G04*
G01*
G75*
%ADD25R,1.0065X1.4082*%
%ADD26R,0.9500X1.7000*%
%ADD27R,0.8121X0.7581*%
%ADD28R,0.8000X0.8000*%
%ADD30R,1.4621X1.2581*%
%ADD31R,1.0121X1.0587*%
%ADD37R,1.3061X1.5071*%
%ADD38R,1.7500X1.5000*%
%ADD41R,1.4082X1.0065*%
%ADD43R,0.6250X0.8500*%
%ADD44R,1.3500X0.9500*%
%ADD46R,0.7000X2.1000*%
%ADD47R,0.8000X1.1400*%
G04:AMPARAMS|DCode=48|XSize=2.4741mm|YSize=0.6234mm|CornerRadius=0.3117mm|HoleSize=0mm|Usage=FLASHONLY|Rotation=0.000|XOffset=0mm|YOffset=0mm|HoleType=Round|Shape=RoundedRectangle|*
%AMROUNDEDRECTD48*
21,1,2.4741,0.0000,0,0,0.0*
21,1,1.8507,0.6234,0,0,0.0*
1,1,0.6234,0.9253,0.0000*
1,1,0.6234,-0.9253,0.0000*
1,1,0.6234,-0.9253,0.0000*
1,1,0.6234,0.9253,0.0000*
%
%ADD48ROUNDEDRECTD48*%
%ADD49R,2.4741X0.6234*%
G04:AMPARAMS|DCode=51|XSize=1.55mm|YSize=0.6mm|CornerRadius=0.051mm|HoleSize=0mm|Usage=FLASHONLY|Rotation=90.000|XOffset=0mm|YOffset=0mm|HoleType=Round|Shape=RoundedRectangle|*
%AMROUNDEDRECTD51*
21,1,1.5500,0.4980,0,0,90.0*
21,1,1.4480,0.6000,0,0,90.0*
1,1,0.1020,0.2490,0.7240*
1,1,0.1020,0.2490,-0.7240*
1,1,0.1020,-0.2490,-0.7240*
1,1,0.1020,-0.2490,0.7240*
%
%ADD51ROUNDEDRECTD51*%
%ADD52R,0.9500X1.4500*%
%ADD54R,2.3000X4.5000*%
%ADD59R,1.3000X1.0500*%
%ADD60R,0.7500X0.9000*%
%ADD61R,1.9000X1.1000*%
%ADD62R,1.1350X1.0621*%
%ADD63R,0.9000X0.8000*%
%ADD64R,0.8000X0.9000*%
%ADD65R,1.4549X1.5562*%
%ADD66R,0.9000X0.7500*%
%ADD67R,0.3125X1.9552*%
G04:AMPARAMS|DCode=68|XSize=1.9552mm|YSize=0.3125mm|CornerRadius=0.1562mm|HoleSize=0mm|Usage=FLASHONLY|Rotation=90.000|XOffset=0mm|YOffset=0mm|HoleType=Round|Shape=RoundedRectangle|*
%AMROUNDEDRECTD68*
21,1,1.9552,0.0000,0,0,90.0*
21,1,1.6428,0.3125,0,0,90.0*
1,1,0.3125,0.0000,0.8214*
1,1,0.3125,0.0000,-0.8214*
1,1,0.3125,0.0000,-0.8214*
1,1,0.3125,0.0000,0.8214*
%
%ADD68ROUNDEDRECTD68*%
G04:AMPARAMS|DCode=69|XSize=0.3125mm|YSize=1.9552mm|CornerRadius=0.1562mm|HoleSize=0mm|Usage=FLASHONLY|Rotation=90.000|XOffset=0mm|YOffset=0mm|HoleType=Round|Shape=RoundedRectangle|*
%AMROUNDEDRECTD69*
21,1,0.3125,1.6428,0,0,90.0*
21,1,0.0000,1.9552,0,0,90.0*
1,1,0.3125,0.8214,0.0000*
1,1,0.3125,0.8214,0.0000*
1,1,0.3125,-0.8214,0.0000*
1,1,0.3125,-0.8214,0.0000*
%
%ADD69ROUNDEDRECTD69*%
%ADD70R,1.2500X0.6000*%
%ADD71R,1.4562X1.3046*%
%ADD72R,0.9500X1.3500*%
%ADD73R,1.3046X1.4562*%
%ADD74R,0.5321X1.2052*%
G04:AMPARAMS|DCode=75|XSize=1.2052mm|YSize=0.5321mm|CornerRadius=0.2661mm|HoleSize=0mm|Usage=FLASHONLY|Rotation=270.000|XOffset=0mm|YOffset=0mm|HoleType=Round|Shape=RoundedRectangle|*
%AMROUNDEDRECTD75*
21,1,1.2052,0.0000,0,0,270.0*
21,1,0.6731,0.5321,0,0,270.0*
1,1,0.5321,0.0000,-0.3366*
1,1,0.5321,0.0000,0.3366*
1,1,0.5321,0.0000,0.3366*
1,1,0.5321,0.0000,-0.3366*
%
%ADD75ROUNDEDRECTD75*%
%ADD80R,0.9350X0.9621*%
%ADD81R,3.6000X1.1500*%
G04:AMPARAMS|DCode=82|XSize=1.1mm|YSize=0.6mm|CornerRadius=0.051mm|HoleSize=0mm|Usage=FLASHONLY|Rotation=0.000|XOffset=0mm|YOffset=0mm|HoleType=Round|Shape=RoundedRectangle|*
%AMROUNDEDRECTD82*
21,1,1.1000,0.4980,0,0,0.0*
21,1,0.9980,0.6000,0,0,0.0*
1,1,0.1020,0.4990,-0.2490*
1,1,0.1020,-0.4990,-0.2490*
1,1,0.1020,-0.4990,0.2490*
1,1,0.1020,0.4990,0.2490*
%
%ADD82ROUNDEDRECTD82*%
%ADD83R,1.7000X0.9500*%
%ADD84R,1.2621X0.8581*%
G04:AMPARAMS|DCode=85|XSize=1.1mm|YSize=0.6mm|CornerRadius=0.051mm|HoleSize=0mm|Usage=FLASHONLY|Rotation=90.000|XOffset=0mm|YOffset=0mm|HoleType=Round|Shape=RoundedRectangle|*
%AMROUNDEDRECTD85*
21,1,1.1000,0.4980,0,0,90.0*
21,1,0.9980,0.6000,0,0,90.0*
1,1,0.1020,0.2490,0.4990*
1,1,0.1020,0.2490,-0.4990*
1,1,0.1020,-0.2490,-0.4990*
1,1,0.1020,-0.2490,0.4990*
%
%ADD85ROUNDEDRECTD85*%
%ADD86R,1.2621X0.8081*%
%ADD87R,1.4500X0.9500*%
%ADD88R,2.1600X2.2600*%
%ADD89R,3.2000X1.6000*%
%ADD91R,0.7581X0.8121*%
%ADD92R,0.6000X1.2500*%
%ADD93R,4.0386X1.0414*%
%ADD94R,8.3058X10.7442*%
%ADD95R,1.7200X3.2000*%
%ADD96R,1.7800X3.1500*%
%ADD100R,0.6032X1.6032*%
%ADD101R,2.5032X2.1032*%
%ADD102R,2.0032X2.1032*%
%ADD103R,1.3032X1.1532*%
%ADD104R,1.1532X1.3032*%
%ADD105R,3.4532X3.4532*%
G04:AMPARAMS|DCode=106|XSize=1.0432mm|YSize=0.5232mm|CornerRadius=0.1416mm|HoleSize=0mm|Usage=FLASHONLY|Rotation=180.000|XOffset=0mm|YOffset=0mm|HoleType=Round|Shape=RoundedRectangle|*
%AMROUNDEDRECTD106*
21,1,1.0432,0.2400,0,0,180.0*
21,1,0.7600,0.5232,0,0,180.0*
1,1,0.2832,-0.3800,0.1200*
1,1,0.2832,0.3800,0.1200*
1,1,0.2832,0.3800,-0.1200*
1,1,0.2832,-0.3800,-0.1200*
%
%ADD106ROUNDEDRECTD106*%
G04:AMPARAMS|DCode=107|XSize=0.5232mm|YSize=1.0432mm|CornerRadius=0.1416mm|HoleSize=0mm|Usage=FLASHONLY|Rotation=180.000|XOffset=0mm|YOffset=0mm|HoleType=Round|Shape=RoundedRectangle|*
%AMROUNDEDRECTD107*
21,1,0.5232,0.7600,0,0,180.0*
21,1,0.2400,1.0432,0,0,180.0*
1,1,0.2832,-0.1200,0.3800*
1,1,0.2832,0.1200,0.3800*
1,1,0.2832,0.1200,-0.3800*
1,1,0.2832,-0.1200,-0.3800*
%
%ADD107ROUNDEDRECTD107*%
%ADD108R,1.5532X1.2032*%
%ADD109R,1.6532X1.2532*%
%ADD110R,1.0000X1.0500*%
%ADD111R,1.0500X2.2000*%
%ADD112R,1.7032X1.7532*%
%ADD113R,1.7032X1.6032*%
%ADD114R,0.6032X0.6832*%
%ADD115R,1.4032X1.6532*%
G04:AMPARAMS|DCode=116|XSize=0.8032mm|YSize=2.1032mm|CornerRadius=0.1526mm|HoleSize=0mm|Usage=FLASHONLY|Rotation=180.000|XOffset=0mm|YOffset=0mm|HoleType=Round|Shape=RoundedRectangle|*
%AMROUNDEDRECTD116*
21,1,0.8032,1.7980,0,0,180.0*
21,1,0.4980,2.1032,0,0,180.0*
1,1,0.3052,-0.2490,0.8990*
1,1,0.3052,0.2490,0.8990*
1,1,0.3052,0.2490,-0.8990*
1,1,0.3052,-0.2490,-0.8990*
%
%ADD116ROUNDEDRECTD116*%
%ADD117R,0.9032X1.8032*%
%ADD118R,1.8032X1.7032*%
%ADD119R,1.4032X2.0032*%
%ADD120R,1.4032X2.4032*%
%ADD121R,0.5500X0.5500*%
%ADD122R,1.3532X2.0032*%
%ADD123R,1.1532X1.9032*%
%ADD124R,3.0532X1.6032*%
%ADD125R,1.4232X1.1132*%
%ADD126R,1.2532X1.6532*%
%ADD127O,2.7032X1.0032*%
%ADD128O,1.0032X2.7032*%
%ADD129R,1.3032X1.3032*%
%ADD130R,2.2032X3.2032*%
%ADD131R,1.0000X1.5000*%
%ADD132R,1.6032X1.2032*%
%ADD133R,0.6832X0.6032*%
%ADD134C,2.6032*%
G04:AMPARAMS|DCode=135|XSize=2.6032mm|YSize=2.6032mm|CornerRadius=0.7016mm|HoleSize=0mm|Usage=FLASHONLY|Rotation=180.000|XOffset=0mm|YOffset=0mm|HoleType=Round|Shape=RoundedRectangle|*
%AMROUNDEDRECTD135*
21,1,2.6032,1.2000,0,0,180.0*
21,1,1.2000,2.6032,0,0,180.0*
1,1,1.4032,-0.6000,0.6000*
1,1,1.4032,0.6000,0.6000*
1,1,1.4032,0.6000,-0.6000*
1,1,1.4032,-0.6000,-0.6000*
%
%ADD135ROUNDEDRECTD135*%
%ADD136C,1.5500*%
%ADD137R,1.5500X1.5500*%
%ADD138C,0.7500*%
%ADD139C,1.7032*%
G04:AMPARAMS|DCode=140|XSize=1.7032mm|YSize=1.7032mm|CornerRadius=0.4766mm|HoleSize=0mm|Usage=FLASHONLY|Rotation=180.000|XOffset=0mm|YOffset=0mm|HoleType=Round|Shape=RoundedRectangle|*
%AMROUNDEDRECTD140*
21,1,1.7032,0.7500,0,0,180.0*
21,1,0.7500,1.7032,0,0,180.0*
1,1,0.9532,-0.3750,0.3750*
1,1,0.9532,0.3750,0.3750*
1,1,0.9532,0.3750,-0.3750*
1,1,0.9532,-0.3750,-0.3750*
%
%ADD140ROUNDEDRECTD140*%
%ADD141R,1.3000X1.3000*%
%ADD142C,1.3000*%
%ADD143C,1.0000*%
%ADD144C,1.2500*%
%ADD145C,0.7032*%
%ADD146O,2.7432X1.7272*%
%ADD147R,1.7032X1.7032*%
%ADD148R,2.0032X2.0032*%
%ADD149C,2.0032*%
%ADD150C,0.9532*%
%ADD151C,0.8382*%
%ADD152C,1.4732*%
G36*
X1112000Y327000D02*
X1090000D01*
Y350414D01*
X1098586Y359000D01*
X1112000D01*
Y327000D01*
D02*
G37*
D25*
X1853000Y311000D02*
D03*
X1872017D02*
D03*
X1845491Y431000D02*
D03*
X1864509D02*
D03*
X1845491Y389076D02*
D03*
X1864509D02*
D03*
X1845491Y350000D02*
D03*
X1864509D02*
D03*
X1560509Y196000D02*
D03*
X1541491D02*
D03*
D26*
X551000Y159000D02*
D03*
X523000D02*
D03*
X632000Y369000D02*
D03*
X604000D02*
D03*
X676000Y370000D02*
D03*
X704000D02*
D03*
X185000Y564000D02*
D03*
X157000D02*
D03*
X185000Y539000D02*
D03*
X157000D02*
D03*
X185000Y513000D02*
D03*
X157000D02*
D03*
X189000Y465000D02*
D03*
X217000D02*
D03*
X189000Y435000D02*
D03*
X217000D02*
D03*
X189000Y405000D02*
D03*
X217000D02*
D03*
D27*
X320970Y769230D02*
D03*
Y756690D02*
D03*
X644000Y775270D02*
D03*
Y762730D02*
D03*
X1921561Y666000D02*
D03*
Y653460D02*
D03*
X586000Y84270D02*
D03*
Y71730D02*
D03*
X38000Y712730D02*
D03*
Y725270D02*
D03*
X41000Y534730D02*
D03*
Y547270D02*
D03*
D28*
X321000Y735500D02*
D03*
Y720500D02*
D03*
X644000Y742500D02*
D03*
Y727500D02*
D03*
D30*
X455000Y821770D02*
D03*
Y802230D02*
D03*
X484000Y821770D02*
D03*
Y802230D02*
D03*
X426000Y821770D02*
D03*
Y802230D02*
D03*
X791000Y820770D02*
D03*
Y801230D02*
D03*
X756000Y820770D02*
D03*
Y801230D02*
D03*
X722000Y820770D02*
D03*
Y801230D02*
D03*
D31*
X512000Y802233D02*
D03*
Y819767D02*
D03*
X821000Y802233D02*
D03*
Y819767D02*
D03*
D37*
X1687761Y439965D02*
D03*
X1668239D02*
D03*
X1687761Y398465D02*
D03*
X1668239D02*
D03*
X1687761Y359000D02*
D03*
X1668239D02*
D03*
D38*
X1940133Y431264D02*
D03*
X1902633D02*
D03*
X1941750Y311000D02*
D03*
X1904250D02*
D03*
X1941133Y389417D02*
D03*
X1903633D02*
D03*
X1941133Y349994D02*
D03*
X1903633D02*
D03*
D41*
X1561000Y125491D02*
D03*
Y144509D02*
D03*
D43*
X1409625Y65000D02*
D03*
X1396375D02*
D03*
D44*
X1446000Y124500D02*
D03*
Y109500D02*
D03*
X1893561Y629500D02*
D03*
Y614500D02*
D03*
D46*
X767000Y18900D02*
D03*
X897000D02*
D03*
X767000Y138900D02*
D03*
X897000D02*
D03*
D47*
X783700Y153700D02*
D03*
X796400D02*
D03*
X809100D02*
D03*
X821800D02*
D03*
X834500D02*
D03*
X847200D02*
D03*
X856700Y153700D02*
D03*
D48*
X1269161Y979050D02*
D03*
Y966350D02*
D03*
Y953650D02*
D03*
Y940950D02*
D03*
X1220839D02*
D03*
Y953650D02*
D03*
Y966350D02*
D03*
D49*
Y979050D02*
D03*
D51*
X1835950Y805000D02*
D03*
X1848650D02*
D03*
X1861350D02*
D03*
X1874050D02*
D03*
Y859000D02*
D03*
X1861350D02*
D03*
X1848650D02*
D03*
X1835950D02*
D03*
D52*
X1663250Y911000D02*
D03*
X1682750D02*
D03*
D54*
X109000Y988000D02*
D03*
Y824000D02*
D03*
D59*
X1203500Y544250D02*
D03*
X1180500D02*
D03*
Y561750D02*
D03*
X1203500D02*
D03*
D60*
X1046000Y626000D02*
D03*
X1034000D02*
D03*
X1046000Y592000D02*
D03*
X1034000D02*
D03*
X1084000Y550000D02*
D03*
X1096000D02*
D03*
D61*
X1078000Y592000D02*
D03*
Y626000D02*
D03*
D62*
X1036154Y549000D02*
D03*
X1019846D02*
D03*
X996154Y766000D02*
D03*
X979846D02*
D03*
X980000Y739000D02*
D03*
X996308D02*
D03*
X475154Y205000D02*
D03*
X458846D02*
D03*
X100846Y647000D02*
D03*
X117154D02*
D03*
X518154Y78000D02*
D03*
X501846D02*
D03*
X108000Y456000D02*
D03*
X124308D02*
D03*
D63*
X1083000Y863500D02*
D03*
Y878500D02*
D03*
X1061000Y863500D02*
D03*
Y878500D02*
D03*
X1292000Y605500D02*
D03*
Y590500D02*
D03*
X1270000Y605500D02*
D03*
Y590500D02*
D03*
D64*
X1328500Y819000D02*
D03*
X1343500D02*
D03*
X1298500Y713000D02*
D03*
X1313500D02*
D03*
X1328500Y843000D02*
D03*
X1343500D02*
D03*
D65*
X1246743Y630000D02*
D03*
X1265257D02*
D03*
D66*
X1315000Y605000D02*
D03*
Y593000D02*
D03*
X1083000Y680000D02*
D03*
Y692000D02*
D03*
X1247000Y605000D02*
D03*
Y593000D02*
D03*
D67*
X1130000Y693000D02*
D03*
D68*
X1135000D02*
D03*
X1140000D02*
D03*
X1145000D02*
D03*
X1150000D02*
D03*
X1155000D02*
D03*
X1160000D02*
D03*
X1165000D02*
D03*
X1170000D02*
D03*
X1175000D02*
D03*
X1180000D02*
D03*
X1185000D02*
D03*
X1190000D02*
D03*
X1195000D02*
D03*
X1200000D02*
D03*
X1205000D02*
D03*
X1210000D02*
D03*
X1215000D02*
D03*
X1220000D02*
D03*
X1225000D02*
D03*
X1230000D02*
D03*
X1235000D02*
D03*
X1240000D02*
D03*
X1245000D02*
D03*
X1250000D02*
D03*
Y846510D02*
D03*
X1245000D02*
D03*
X1240000D02*
D03*
X1235000D02*
D03*
X1230000D02*
D03*
X1225000D02*
D03*
X1220000D02*
D03*
X1215000D02*
D03*
X1210000D02*
D03*
X1205000D02*
D03*
X1200000D02*
D03*
X1195000D02*
D03*
X1190000D02*
D03*
X1185000D02*
D03*
X1180000D02*
D03*
X1175000D02*
D03*
X1170000D02*
D03*
X1165000D02*
D03*
X1160000D02*
D03*
X1155000D02*
D03*
X1150000D02*
D03*
X1145000D02*
D03*
X1140000D02*
D03*
X1135000D02*
D03*
X1130000D02*
D03*
D69*
X1266755Y709755D02*
D03*
Y714755D02*
D03*
Y719755D02*
D03*
Y724755D02*
D03*
Y729755D02*
D03*
Y734755D02*
D03*
Y739755D02*
D03*
Y744755D02*
D03*
Y749755D02*
D03*
Y754755D02*
D03*
Y759755D02*
D03*
Y764755D02*
D03*
Y769755D02*
D03*
Y774755D02*
D03*
Y779755D02*
D03*
Y784755D02*
D03*
Y789755D02*
D03*
Y794755D02*
D03*
Y799755D02*
D03*
Y804755D02*
D03*
Y809755D02*
D03*
Y814755D02*
D03*
Y819755D02*
D03*
Y824755D02*
D03*
Y829755D02*
D03*
X1113245D02*
D03*
Y824755D02*
D03*
Y819755D02*
D03*
Y814755D02*
D03*
Y809755D02*
D03*
Y804755D02*
D03*
Y799755D02*
D03*
Y794755D02*
D03*
Y789755D02*
D03*
Y784755D02*
D03*
Y779755D02*
D03*
Y774755D02*
D03*
Y769755D02*
D03*
Y764755D02*
D03*
Y759755D02*
D03*
Y754755D02*
D03*
Y749755D02*
D03*
Y744755D02*
D03*
Y739755D02*
D03*
Y734755D02*
D03*
Y729755D02*
D03*
Y724755D02*
D03*
Y719755D02*
D03*
Y714755D02*
D03*
Y709755D02*
D03*
D70*
X1921561Y701000D02*
D03*
Y683000D02*
D03*
X586000Y123000D02*
D03*
Y105000D02*
D03*
X38000Y677000D02*
D03*
Y695000D02*
D03*
X41000Y494000D02*
D03*
Y512000D02*
D03*
D71*
X1921561Y629058D02*
D03*
Y612942D02*
D03*
D72*
X1870061Y583000D02*
D03*
X1855061D02*
D03*
X1859561Y661000D02*
D03*
X1844561D02*
D03*
D73*
X1859619Y692000D02*
D03*
X1843503D02*
D03*
X302942Y163000D02*
D03*
X319058D02*
D03*
D74*
X1869379Y629301D02*
D03*
D75*
X1859879D02*
D03*
X1850379D02*
D03*
Y608291D02*
D03*
X1869379D02*
D03*
D80*
X475308Y176000D02*
D03*
X461000D02*
D03*
X74154Y647000D02*
D03*
X59846D02*
D03*
X82000Y457000D02*
D03*
X67692D02*
D03*
D81*
X461000Y121000D02*
D03*
Y150500D02*
D03*
X58000Y593500D02*
D03*
Y623000D02*
D03*
X64000Y403250D02*
D03*
Y432750D02*
D03*
D82*
X507500Y130500D02*
D03*
Y121000D02*
D03*
Y111500D02*
D03*
X534500D02*
D03*
Y121000D02*
D03*
Y130500D02*
D03*
D83*
X412000Y94000D02*
D03*
Y66000D02*
D03*
X441000Y94000D02*
D03*
Y66000D02*
D03*
X468000Y94000D02*
D03*
Y66000D02*
D03*
X100501Y620812D02*
D03*
Y592812D02*
D03*
X102000Y432000D02*
D03*
Y404000D02*
D03*
D84*
X215000Y351770D02*
D03*
Y336230D02*
D03*
D85*
X134001Y593312D02*
D03*
X143501D02*
D03*
X153001D02*
D03*
Y620312D02*
D03*
X143501D02*
D03*
X134001D02*
D03*
X128500Y404500D02*
D03*
X138000D02*
D03*
X147500D02*
D03*
Y431500D02*
D03*
X138000D02*
D03*
X128500D02*
D03*
D86*
X248000Y335980D02*
D03*
Y352020D02*
D03*
D87*
X243000Y294250D02*
D03*
Y313750D02*
D03*
D88*
X253500Y82000D02*
D03*
X204500D02*
D03*
D89*
X353000Y81000D02*
D03*
X303000D02*
D03*
D91*
X334460Y219000D02*
D03*
X347000D02*
D03*
D92*
X297730Y218000D02*
D03*
X315730D02*
D03*
D93*
X171374Y262964D02*
D03*
Y279982D02*
D03*
Y297000D02*
D03*
Y314018D02*
D03*
Y331036D02*
D03*
D94*
X66853Y297000D02*
D03*
D95*
X262050Y161000D02*
D03*
X197950D02*
D03*
D96*
X104850D02*
D03*
X157150D02*
D03*
D100*
X1077500Y978500D02*
D03*
X1071000D02*
D03*
X1064500D02*
D03*
X1058000D02*
D03*
X1051500D02*
D03*
D101*
X1102000Y1007000D02*
D03*
X1027000D02*
D03*
D102*
X1076000D02*
D03*
X1053000D02*
D03*
D103*
X369998Y771257D02*
D03*
Y756757D02*
D03*
X347000Y771000D02*
D03*
Y756500D02*
D03*
X691000Y767250D02*
D03*
Y752750D02*
D03*
X667000Y767250D02*
D03*
Y752750D02*
D03*
X1155000Y559250D02*
D03*
Y544750D02*
D03*
X1230000Y560250D02*
D03*
Y545750D02*
D03*
D104*
X344250Y869000D02*
D03*
X329750D02*
D03*
X664250Y873000D02*
D03*
X649750D02*
D03*
X1269250Y1004000D02*
D03*
X1254750D02*
D03*
D105*
X334000Y821000D02*
D03*
X654000D02*
D03*
D106*
X309650Y808000D02*
D03*
Y814500D02*
D03*
Y821000D02*
D03*
Y827500D02*
D03*
Y834000D02*
D03*
X358350D02*
D03*
Y827500D02*
D03*
Y821000D02*
D03*
Y814500D02*
D03*
Y808000D02*
D03*
X629650D02*
D03*
Y814500D02*
D03*
Y821000D02*
D03*
Y827500D02*
D03*
Y834000D02*
D03*
X678350D02*
D03*
Y827500D02*
D03*
Y821000D02*
D03*
Y814500D02*
D03*
Y808000D02*
D03*
D107*
X347000Y796650D02*
D03*
X340500D02*
D03*
X334000D02*
D03*
X327500D02*
D03*
X321000D02*
D03*
Y845350D02*
D03*
X327500D02*
D03*
X334000D02*
D03*
X340500D02*
D03*
X347000D02*
D03*
X667000Y796650D02*
D03*
X660500D02*
D03*
X654000D02*
D03*
X647500D02*
D03*
X641000D02*
D03*
Y845350D02*
D03*
X647500D02*
D03*
X654000D02*
D03*
X660500D02*
D03*
X667000D02*
D03*
D108*
X1718000Y440000D02*
D03*
Y422000D02*
D03*
X1718000Y398417D02*
D03*
Y380418D02*
D03*
X1718000Y359000D02*
D03*
Y341000D02*
D03*
X972000Y156000D02*
D03*
Y174000D02*
D03*
D109*
X952000Y204750D02*
D03*
Y223250D02*
D03*
D110*
X1560238Y67000D02*
D03*
X1445750Y65250D02*
D03*
D111*
X1545488Y51750D02*
D03*
X1574988D02*
D03*
X1460500Y50000D02*
D03*
X1431000D02*
D03*
D112*
X1543000Y169000D02*
D03*
X1561000D02*
D03*
X1543000Y101000D02*
D03*
X1561000D02*
D03*
D113*
X1376000Y63500D02*
D03*
Y44500D02*
D03*
D114*
X783000Y201400D02*
D03*
Y214600D02*
D03*
X809000Y201400D02*
D03*
Y214600D02*
D03*
X1652097Y723907D02*
D03*
Y710707D02*
D03*
X1667968Y723907D02*
D03*
Y710707D02*
D03*
X1693000Y730600D02*
D03*
Y717400D02*
D03*
X834436Y214600D02*
D03*
Y201400D02*
D03*
X796027Y214500D02*
D03*
Y201300D02*
D03*
D115*
X1183000Y953000D02*
D03*
X1163000D02*
D03*
X1841000Y739000D02*
D03*
X1861000D02*
D03*
X1829000Y768000D02*
D03*
X1849000D02*
D03*
X1841000Y920000D02*
D03*
X1861000D02*
D03*
X1829000Y890000D02*
D03*
X1849000D02*
D03*
X1706000Y911000D02*
D03*
X1726000D02*
D03*
X1618000D02*
D03*
X1638000D02*
D03*
D116*
X1718450Y877500D02*
D03*
X1705750D02*
D03*
X1693050D02*
D03*
X1680350D02*
D03*
X1667650D02*
D03*
X1654950D02*
D03*
X1642250D02*
D03*
X1629550D02*
D03*
X1718450Y782500D02*
D03*
X1705750D02*
D03*
X1693050D02*
D03*
X1680350D02*
D03*
X1667650D02*
D03*
X1654950D02*
D03*
X1642250D02*
D03*
X1629550D02*
D03*
D117*
X1400000Y893000D02*
D03*
X1411000D02*
D03*
X1422000D02*
D03*
X1433000D02*
D03*
X1444000D02*
D03*
X1455000D02*
D03*
X1466000D02*
D03*
X1477000D02*
D03*
X1488000D02*
D03*
D118*
X1354000Y903500D02*
D03*
D119*
X1500000Y906000D02*
D03*
D120*
X1345000Y999000D02*
D03*
X1500000D02*
D03*
D121*
X1083750Y526750D02*
D03*
X1110250D02*
D03*
X1083750Y519250D02*
D03*
X1110250D02*
D03*
D122*
X634000Y397000D02*
D03*
X604000D02*
D03*
X676000Y398000D02*
D03*
X706000D02*
D03*
D123*
X632000Y343000D02*
D03*
X604000D02*
D03*
X676000D02*
D03*
X704000D02*
D03*
X419000Y197000D02*
D03*
X391000D02*
D03*
X419000Y174000D02*
D03*
X391000D02*
D03*
X419000Y151000D02*
D03*
X391000D02*
D03*
X60000Y723000D02*
D03*
X88000D02*
D03*
X60000Y700000D02*
D03*
X88000D02*
D03*
X60000Y677000D02*
D03*
X88000D02*
D03*
X68000Y533000D02*
D03*
X96000D02*
D03*
X68000Y510000D02*
D03*
X96000D02*
D03*
X68000Y487000D02*
D03*
X96000D02*
D03*
D124*
X624500Y284000D02*
D03*
X567500D02*
D03*
X676500Y283000D02*
D03*
X733500D02*
D03*
D125*
X674000Y155350D02*
D03*
Y122650D02*
D03*
D126*
X190250Y226000D02*
D03*
X171750D02*
D03*
D127*
X1025500Y373000D02*
D03*
Y360000D02*
D03*
Y347000D02*
D03*
Y334000D02*
D03*
Y321000D02*
D03*
Y308000D02*
D03*
Y295000D02*
D03*
Y277000D02*
D03*
Y264000D02*
D03*
Y251000D02*
D03*
Y238000D02*
D03*
Y225000D02*
D03*
Y212000D02*
D03*
Y199000D02*
D03*
Y186000D02*
D03*
Y173000D02*
D03*
Y160000D02*
D03*
Y147000D02*
D03*
Y134000D02*
D03*
Y121000D02*
D03*
X1340500D02*
D03*
Y134000D02*
D03*
Y147000D02*
D03*
Y160000D02*
D03*
Y173000D02*
D03*
Y186000D02*
D03*
Y199000D02*
D03*
Y212000D02*
D03*
Y225000D02*
D03*
Y238000D02*
D03*
Y251000D02*
D03*
Y264000D02*
D03*
Y277000D02*
D03*
Y295000D02*
D03*
Y308000D02*
D03*
Y321000D02*
D03*
Y334000D02*
D03*
Y347000D02*
D03*
Y360000D02*
D03*
Y373000D02*
D03*
D128*
X1061500Y104500D02*
D03*
X1074500D02*
D03*
X1087500D02*
D03*
X1100500D02*
D03*
X1113500D02*
D03*
X1126500D02*
D03*
X1139500D02*
D03*
X1152500D02*
D03*
X1165500D02*
D03*
X1178500D02*
D03*
X1191500D02*
D03*
X1204500D02*
D03*
X1217500D02*
D03*
X1230500D02*
D03*
X1243500D02*
D03*
X1256500D02*
D03*
X1269500D02*
D03*
X1282500D02*
D03*
X1295500D02*
D03*
X1308500D02*
D03*
Y389500D02*
D03*
X1295500D02*
D03*
X1282500D02*
D03*
X1269500D02*
D03*
X1256500D02*
D03*
X1243500D02*
D03*
X1230500D02*
D03*
X1217500D02*
D03*
X1204500D02*
D03*
X1191500D02*
D03*
X1178500D02*
D03*
X1165500D02*
D03*
X1152500D02*
D03*
X1139500D02*
D03*
X1126500D02*
D03*
X1113500D02*
D03*
X1100500D02*
D03*
X1087500D02*
D03*
X1074500D02*
D03*
X1061500D02*
D03*
D129*
X1073000Y357000D02*
D03*
X1207000Y263000D02*
D03*
Y247000D02*
D03*
Y231000D02*
D03*
X1191000Y263000D02*
D03*
Y247000D02*
D03*
Y231000D02*
D03*
X1175000Y263000D02*
D03*
Y247000D02*
D03*
Y231000D02*
D03*
X1159000Y263000D02*
D03*
Y247000D02*
D03*
Y231000D02*
D03*
X1073000Y337000D02*
D03*
Y317000D02*
D03*
Y297000D02*
D03*
Y277000D02*
D03*
Y257000D02*
D03*
Y237000D02*
D03*
Y217000D02*
D03*
Y197000D02*
D03*
Y177000D02*
D03*
Y157000D02*
D03*
Y137000D02*
D03*
X1053000Y357000D02*
D03*
Y337000D02*
D03*
Y317000D02*
D03*
Y297000D02*
D03*
Y277000D02*
D03*
Y257000D02*
D03*
Y237000D02*
D03*
Y217000D02*
D03*
Y197000D02*
D03*
Y177000D02*
D03*
Y157000D02*
D03*
Y137000D02*
D03*
D130*
X1265000Y343000D02*
D03*
Y295000D02*
D03*
Y247000D02*
D03*
Y199000D02*
D03*
Y151000D02*
D03*
X1233000Y343000D02*
D03*
Y295000D02*
D03*
Y247000D02*
D03*
Y199000D02*
D03*
Y151000D02*
D03*
X1199000Y343000D02*
D03*
Y295000D02*
D03*
Y199000D02*
D03*
Y151000D02*
D03*
X1167000Y343000D02*
D03*
Y295000D02*
D03*
Y199000D02*
D03*
Y151000D02*
D03*
X1133000Y343000D02*
D03*
Y295000D02*
D03*
Y247000D02*
D03*
Y199000D02*
D03*
Y151000D02*
D03*
X1101000Y295000D02*
D03*
Y247000D02*
D03*
Y199000D02*
D03*
Y151000D02*
D03*
D131*
Y343000D02*
D03*
D132*
X1767000Y440500D02*
D03*
Y421500D02*
D03*
X1789000Y431000D02*
D03*
X1767000Y399000D02*
D03*
Y380000D02*
D03*
X1789000Y389500D02*
D03*
X1768000Y359500D02*
D03*
Y340500D02*
D03*
X1790000Y350000D02*
D03*
D133*
X843449Y187757D02*
D03*
X856649D02*
D03*
D134*
X270200Y924000D02*
D03*
X321000D02*
D03*
X371800D02*
D03*
X687400Y922000D02*
D03*
X636600D02*
D03*
X585800D02*
D03*
D135*
X422600Y924000D02*
D03*
X738200Y922000D02*
D03*
D136*
X986500Y1004000D02*
D03*
X961100D02*
D03*
X935700D02*
D03*
X910300D02*
D03*
X884900D02*
D03*
D137*
X859500D02*
D03*
D138*
X782000Y31400D02*
D03*
X867000D02*
D03*
D139*
X1892800Y981000D02*
D03*
X1867400D02*
D03*
X1842000D02*
D03*
X1635900Y993000D02*
D03*
X1661300D02*
D03*
X1686700D02*
D03*
X1404800Y621000D02*
D03*
X1379400D02*
D03*
X820400Y569790D02*
D03*
X795000D02*
D03*
X769600D02*
D03*
X744200D02*
D03*
X718800D02*
D03*
X693400D02*
D03*
X668000D02*
D03*
X642600D02*
D03*
X617200D02*
D03*
X591800D02*
D03*
X566400D02*
D03*
X541000D02*
D03*
X515600D02*
D03*
Y531000D02*
D03*
X541000D02*
D03*
X566400D02*
D03*
X591800D02*
D03*
X617200D02*
D03*
X642600D02*
D03*
X668000D02*
D03*
X693400D02*
D03*
X718800D02*
D03*
X744200D02*
D03*
X769600D02*
D03*
X795000D02*
D03*
X820400D02*
D03*
X845800D02*
D03*
X871200D02*
D03*
X896600D02*
D03*
X922000D02*
D03*
X947400D02*
D03*
X972800D02*
D03*
X1582600Y545000D02*
D03*
X1608000Y519600D02*
D03*
Y545000D02*
D03*
X1633400Y519600D02*
D03*
Y545000D02*
D03*
X1658800Y519600D02*
D03*
Y545000D02*
D03*
X1684200Y519600D02*
D03*
Y545000D02*
D03*
X1709600Y519600D02*
D03*
Y545000D02*
D03*
X1735000Y519600D02*
D03*
Y545000D02*
D03*
X1760400Y519600D02*
D03*
Y545000D02*
D03*
X1785800Y519600D02*
D03*
Y545000D02*
D03*
X1811200Y519600D02*
D03*
Y545000D02*
D03*
X1941133Y349994D02*
D03*
X1903633D02*
D03*
X1941133Y389417D02*
D03*
X1903633D02*
D03*
X1941750Y311000D02*
D03*
X1904250D02*
D03*
X1940133Y431264D02*
D03*
X1902633D02*
D03*
D140*
X1816600Y981000D02*
D03*
X1712100Y993000D02*
D03*
D141*
X570050Y199000D02*
D03*
D142*
X673950D02*
D03*
D143*
X109000Y941000D02*
D03*
D144*
Y866500D02*
D03*
D145*
X1392000Y1003000D02*
D03*
X1472000D02*
D03*
D146*
X1888200Y196000D02*
D03*
Y170600D02*
D03*
Y145200D02*
D03*
Y119800D02*
D03*
Y94400D02*
D03*
Y69000D02*
D03*
X1685000Y196000D02*
D03*
Y170600D02*
D03*
Y145200D02*
D03*
Y119800D02*
D03*
Y94400D02*
D03*
Y69000D02*
D03*
D147*
X1354000Y621000D02*
D03*
X490200Y569790D02*
D03*
Y531000D02*
D03*
X1582600Y519600D02*
D03*
D148*
X155400Y72000D02*
D03*
D149*
X104600D02*
D03*
D150*
X1272000Y878000D02*
D03*
X1542000Y814000D02*
D03*
X1521000D02*
D03*
X277529Y829987D02*
D03*
X601000Y834000D02*
D03*
X1382000Y577544D02*
D03*
X1537000Y664000D02*
D03*
X1646000Y673000D02*
D03*
X1594000Y733000D02*
D03*
Y762000D02*
D03*
X1652000Y735000D02*
D03*
X1668000Y734000D02*
D03*
X1317000Y774000D02*
D03*
X1205133Y730867D02*
D03*
X681000Y672000D02*
D03*
X781000Y732000D02*
D03*
X669000Y608000D02*
D03*
X729000Y748000D02*
D03*
X1469310Y441999D02*
D03*
X630937Y727810D02*
D03*
X549061Y703971D02*
D03*
X1250000Y812000D02*
D03*
X342000Y595000D02*
D03*
X1412000Y454000D02*
D03*
X1251000Y802000D02*
D03*
X1439988Y320376D02*
D03*
X1468000Y321000D02*
D03*
X1329000Y858000D02*
D03*
X168000Y594000D02*
D03*
X143640Y633242D02*
D03*
X138000Y443000D02*
D03*
X1668000Y327000D02*
D03*
X1576000Y318000D02*
D03*
X1537000Y319000D02*
D03*
X990000Y321000D02*
D03*
X1230890Y409980D02*
D03*
X1403973Y378031D02*
D03*
X1575000Y378000D02*
D03*
X1615313Y378031D02*
D03*
X1230000Y828000D02*
D03*
X1225420Y818424D02*
D03*
X1374000Y498000D02*
D03*
X1273000Y454000D02*
D03*
X1181000Y633000D02*
D03*
X1722000Y646000D02*
D03*
X667000Y787000D02*
D03*
X308508Y720602D02*
D03*
X385000Y771000D02*
D03*
X971020Y193288D02*
D03*
X783000Y170000D02*
D03*
X992486Y146962D02*
D03*
X809000Y179966D02*
D03*
X995000Y134000D02*
D03*
X916369Y55033D02*
D03*
X725880Y146154D02*
D03*
X847000Y146000D02*
D03*
X737000Y214000D02*
D03*
X867000Y182000D02*
D03*
Y154000D02*
D03*
X796000Y190000D02*
D03*
X956000Y159000D02*
D03*
X1433000Y914000D02*
D03*
X1270000Y473000D02*
D03*
X1037000Y462000D02*
D03*
X989000Y295000D02*
D03*
X1260000Y42000D02*
D03*
X936030Y106431D02*
D03*
X1043000Y74000D02*
D03*
X1130427Y43132D02*
D03*
X33000Y623000D02*
D03*
X46843Y647025D02*
D03*
X60000Y742000D02*
D03*
X1827667Y738830D02*
D03*
X1944000Y573000D02*
D03*
X1764224Y587708D02*
D03*
X1085387Y959532D02*
D03*
X1089000Y1029000D02*
D03*
X1333245Y51372D02*
D03*
X1668000Y803000D02*
D03*
X1655000Y804000D02*
D03*
X1630000Y765000D02*
D03*
X1821000Y805000D02*
D03*
X1890328Y859042D02*
D03*
X1162650Y967265D02*
D03*
X1044414Y862961D02*
D03*
X1287000Y714000D02*
D03*
X1178000Y664000D02*
D03*
X1220330Y675364D02*
D03*
X1070073Y678733D02*
D03*
X980000Y725000D02*
D03*
X690913Y779987D02*
D03*
X1406000Y498000D02*
D03*
X1282000Y423000D02*
D03*
X1269000D02*
D03*
X1256000D02*
D03*
X1244000D02*
D03*
X1153000Y426000D02*
D03*
X1140000Y416000D02*
D03*
X1096373Y52221D02*
D03*
X1127000Y59000D02*
D03*
X1652000Y264000D02*
D03*
X951000Y929000D02*
D03*
X960000Y937000D02*
D03*
X968000Y929000D02*
D03*
X1041000Y789000D02*
D03*
X1026000Y781000D02*
D03*
X1027000Y797000D02*
D03*
X1189000Y795000D02*
D03*
X1196000Y787000D02*
D03*
X1316000Y806045D02*
D03*
X1167000Y502000D02*
D03*
X1167274Y525064D02*
D03*
X1214000Y810000D02*
D03*
X1381870Y558750D02*
D03*
X272000Y807000D02*
D03*
X253000Y896000D02*
D03*
X893000Y921000D02*
D03*
X926431Y920166D02*
D03*
X1205000Y920000D02*
D03*
X562000Y897000D02*
D03*
X905998Y906591D02*
D03*
X930000Y907000D02*
D03*
X1210000D02*
D03*
X1222000D02*
D03*
X1667000Y645000D02*
D03*
X1729000Y668000D02*
D03*
X1393000Y684000D02*
D03*
Y670000D02*
D03*
X846000Y549000D02*
D03*
X871000Y547000D02*
D03*
X1302000Y813000D02*
D03*
X1247000Y780000D02*
D03*
X1333000Y775000D02*
D03*
X650000Y616000D02*
D03*
X1301000Y767000D02*
D03*
X1214000Y872000D02*
D03*
X1227000Y656000D02*
D03*
X1157000Y660000D02*
D03*
X135000Y824000D02*
D03*
X905051Y856396D02*
D03*
X923369Y855887D02*
D03*
X1152000Y820000D02*
D03*
X931000Y870000D02*
D03*
X1141000Y636000D02*
D03*
X606000Y639000D02*
D03*
X932000Y640000D02*
D03*
X948000Y663000D02*
D03*
X897000Y648000D02*
D03*
X891000Y679000D02*
D03*
X948000Y649000D02*
D03*
X502000Y664000D02*
D03*
X534710Y656307D02*
D03*
X931000Y656000D02*
D03*
X1228000Y741000D02*
D03*
X1241000Y749000D02*
D03*
X929000Y844000D02*
D03*
X934000Y834000D02*
D03*
X901000Y844000D02*
D03*
X876000Y835000D02*
D03*
X619779Y787191D02*
D03*
X657000Y779000D02*
D03*
X603000Y797000D02*
D03*
X888000Y853000D02*
D03*
X1239000Y730000D02*
D03*
X295786Y834113D02*
D03*
X1032000Y718000D02*
D03*
Y704000D02*
D03*
X1210984Y587980D02*
D03*
X1180706Y588065D02*
D03*
X1511186Y608989D02*
D03*
X1511000Y664000D02*
D03*
X1537465Y610544D02*
D03*
X1298859Y966060D02*
D03*
X1287000Y941000D02*
D03*
X1305062Y940167D02*
D03*
X1197000Y979000D02*
D03*
X1200000Y966000D02*
D03*
X1248000Y895000D02*
D03*
X1133000Y765000D02*
D03*
X1056000Y773000D02*
D03*
X515463Y678979D02*
D03*
X490000Y690000D02*
D03*
X900972Y689198D02*
D03*
X694000Y725000D02*
D03*
X914000D02*
D03*
X706000Y755000D02*
D03*
X719000Y773000D02*
D03*
X745000D02*
D03*
X770000Y780290D02*
D03*
X629519Y696833D02*
D03*
X1045000Y697000D02*
D03*
X922000Y704000D02*
D03*
X837000Y711000D02*
D03*
X1044000D02*
D03*
X808000Y718000D02*
D03*
X1044000Y732000D02*
D03*
X757000Y739000D02*
D03*
X1032000D02*
D03*
X1044000Y748000D02*
D03*
X1032000Y756000D02*
D03*
X642000Y704000D02*
D03*
X1043961Y764902D02*
D03*
X552000Y111000D02*
D03*
X494000Y176000D02*
D03*
X387430Y109188D02*
D03*
D151*
X1191000Y263000D02*
D03*
X1265000Y151000D02*
D03*
X1233000D02*
D03*
X1199000D02*
D03*
X1167000D02*
D03*
X1133000D02*
D03*
X1101000D02*
D03*
X1265000Y199000D02*
D03*
X1233000D02*
D03*
X1199000D02*
D03*
X1167000D02*
D03*
X1133000D02*
D03*
X1101000D02*
D03*
X1265000Y247000D02*
D03*
X1233000D02*
D03*
X1133000D02*
D03*
X1101000D02*
D03*
X1265000Y295000D02*
D03*
X1233000D02*
D03*
X1199000D02*
D03*
X1167000D02*
D03*
X1133000D02*
D03*
X1101000D02*
D03*
X1265000Y343000D02*
D03*
X1233000D02*
D03*
X1199000D02*
D03*
X1167000D02*
D03*
X1133000D02*
D03*
X1101000D02*
D03*
X1403000Y538000D02*
D03*
X1364000D02*
D03*
X666000Y827000D02*
D03*
X656000Y826000D02*
D03*
X652000Y819000D02*
D03*
X660884Y819555D02*
D03*
X642000Y816000D02*
D03*
Y825000D02*
D03*
X660000Y833000D02*
D03*
X651000D02*
D03*
X642000D02*
D03*
X321000Y834000D02*
D03*
X334000D02*
D03*
X345000D02*
D03*
Y811000D02*
D03*
X334000D02*
D03*
X321000Y812000D02*
D03*
X345000Y821000D02*
D03*
X321000D02*
D03*
X334000D02*
D03*
X1246000Y645000D02*
D03*
X686000Y435000D02*
D03*
X675667D02*
D03*
X665333D02*
D03*
X655000D02*
D03*
X644667D02*
D03*
X634333D02*
D03*
X624000D02*
D03*
X1269000Y990000D02*
D03*
X221000Y314000D02*
D03*
D152*
X135435Y456000D02*
D03*
X189000Y380000D02*
D03*
M02*
