G04*
G04 #@! TF.GenerationSoftware,Altium Limited,Altium Designer,22.5.1 (42)*
G04*
G04 Layer_Physical_Order=2*
G04 Layer_Color=16711680*
%FSLAX44Y44*%
%MOMM*%
G71*
G04*
G04 #@! TF.SameCoordinates,22EFE7C3-C857-4B98-BFDA-642FBBEDC0F8*
G04*
G04*
G04 #@! TF.FilePolarity,Positive*
G04*
G01*
G75*
%ADD16C,0.2540*%
%ADD36R,1.3500X1.0000*%
%ADD37R,1.3061X1.5071*%
%ADD44R,1.3500X0.9500*%
%ADD66R,0.9000X0.7500*%
%ADD83R,1.7000X0.9500*%
%ADD98R,1.4000X1.0000*%
%ADD136C,1.5500*%
%ADD137R,1.5500X1.5500*%
%ADD138C,0.7500*%
%ADD141R,1.3000X1.3000*%
%ADD142C,1.3000*%
%ADD143C,1.0000*%
%ADD144C,1.2500*%
%ADD153C,0.3048*%
%ADD159C,0.5080*%
%ADD160C,0.6350*%
%ADD161C,1.2700*%
%ADD166C,2.4000*%
G04:AMPARAMS|DCode=167|XSize=2.4mm|YSize=2.4mm|CornerRadius=0.6mm|HoleSize=0mm|Usage=FLASHONLY|Rotation=180.000|XOffset=0mm|YOffset=0mm|HoleType=Round|Shape=RoundedRectangle|*
%AMROUNDEDRECTD167*
21,1,2.4000,1.2000,0,0,180.0*
21,1,1.2000,2.4000,0,0,180.0*
1,1,1.2000,-0.6000,0.6000*
1,1,1.2000,0.6000,0.6000*
1,1,1.2000,0.6000,-0.6000*
1,1,1.2000,-0.6000,-0.6000*
%
%ADD167ROUNDEDRECTD167*%
%ADD168C,1.5000*%
G04:AMPARAMS|DCode=169|XSize=1.5mm|YSize=1.5mm|CornerRadius=0.375mm|HoleSize=0mm|Usage=FLASHONLY|Rotation=180.000|XOffset=0mm|YOffset=0mm|HoleType=Round|Shape=RoundedRectangle|*
%AMROUNDEDRECTD169*
21,1,1.5000,0.7500,0,0,180.0*
21,1,0.7500,1.5000,0,0,180.0*
1,1,0.7500,-0.3750,0.3750*
1,1,0.7500,0.3750,0.3750*
1,1,0.7500,0.3750,-0.3750*
1,1,0.7500,-0.3750,-0.3750*
%
%ADD169ROUNDEDRECTD169*%
%ADD170C,0.5000*%
%ADD171O,2.5400X1.5240*%
%ADD172R,1.5000X1.5000*%
%ADD173R,1.8000X1.8000*%
%ADD174C,1.8000*%
%ADD175C,0.6350*%
%ADD176C,1.2700*%
%ADD177R,1.4500X1.3500*%
%ADD178R,1.0000X1.4000*%
%ADD179R,0.7800X0.7800*%
%ADD180R,1.0621X1.1350*%
%ADD181R,1.5071X1.3061*%
%ADD182R,1.0000X1.3500*%
G36*
X1975980Y31000D02*
X872274D01*
Y32449D01*
X871471Y34388D01*
X869987Y35871D01*
X868049Y36674D01*
X865951D01*
X864013Y35871D01*
X862529Y34388D01*
X861726Y32449D01*
Y31000D01*
X856500D01*
Y48400D01*
X856016Y49566D01*
X854850Y50050D01*
X836350D01*
X835184Y49566D01*
X834700Y48400D01*
Y31000D01*
X831100D01*
Y48400D01*
X830616Y49566D01*
X829450Y50050D01*
X810950D01*
X809784Y49566D01*
X809300Y48400D01*
Y31000D01*
X805700D01*
Y48400D01*
X805216Y49566D01*
X804050Y50050D01*
X785550D01*
X784384Y49566D01*
X783900Y48400D01*
Y37243D01*
X783049Y36674D01*
X780951D01*
X779013Y35871D01*
X777529Y34388D01*
X776726Y32449D01*
Y31000D01*
X33980D01*
Y616710D01*
X34251D01*
X36563Y617668D01*
X38332Y619437D01*
X39282Y621730D01*
X33000D01*
Y624270D01*
X39282D01*
X38332Y626563D01*
X36563Y628332D01*
X34251Y629290D01*
X33980D01*
Y1021000D01*
X1084856D01*
Y964862D01*
X1084801Y964806D01*
X1084338D01*
X1082399Y964003D01*
X1080916Y962519D01*
X1080113Y960581D01*
Y958483D01*
X1080916Y956544D01*
X1082399Y955061D01*
X1084338Y954258D01*
X1086436D01*
X1088374Y955061D01*
X1089858Y956544D01*
X1090661Y958483D01*
Y958946D01*
X1091930Y960215D01*
X1092828Y961559D01*
X1093144Y963145D01*
Y1021000D01*
X1134312D01*
X1134798Y1019827D01*
X1126986Y1012014D01*
X1126368Y1011090D01*
X1126151Y1010000D01*
X1126151Y1010000D01*
Y952180D01*
X1121820Y947849D01*
X981180D01*
X981014Y948014D01*
X980090Y948632D01*
X979000Y948849D01*
X979000Y948849D01*
X953000D01*
X951910Y948632D01*
X950986Y948014D01*
X950986Y948014D01*
X948986Y946014D01*
X948368Y945090D01*
X948151Y944000D01*
X948151Y944000D01*
Y933529D01*
X948012Y933471D01*
X946529Y931988D01*
X945726Y930049D01*
Y927951D01*
X946529Y926012D01*
X948012Y924529D01*
X949003Y924119D01*
X948750Y922849D01*
X931029D01*
X930902Y923154D01*
X929419Y924637D01*
X927480Y925440D01*
X925382D01*
X923444Y924637D01*
X921960Y923154D01*
X921157Y921215D01*
Y919117D01*
X921960Y917179D01*
X923444Y915695D01*
X925382Y914892D01*
X927480D01*
X929419Y915695D01*
X930875Y917151D01*
X1200471D01*
X1200529Y917012D01*
X1202012Y915529D01*
X1203951Y914726D01*
X1206049D01*
X1207988Y915529D01*
X1209471Y917012D01*
X1210274Y918951D01*
Y921049D01*
X1209471Y922988D01*
X1207988Y924471D01*
X1206049Y925274D01*
X1203951D01*
X1202012Y924471D01*
X1200529Y922988D01*
X1200471Y922849D01*
X970250D01*
X969997Y924119D01*
X970987Y924529D01*
X972471Y926012D01*
X972529Y926151D01*
X1131000D01*
X1131000Y926151D01*
X1132090Y926368D01*
X1133014Y926986D01*
X1147014Y940986D01*
X1147014Y940986D01*
X1147632Y941910D01*
X1147849Y943000D01*
X1147849Y943000D01*
Y992820D01*
X1156180Y1001151D01*
X1309820D01*
X1318151Y992820D01*
Y883000D01*
X1318151Y883000D01*
X1318368Y881910D01*
X1318986Y880986D01*
X1325986Y873986D01*
X1325986Y873986D01*
X1326910Y873368D01*
X1328000Y873151D01*
X1328000Y873151D01*
X1498820D01*
X1548151Y823820D01*
Y816250D01*
X1546881Y815997D01*
X1546471Y816988D01*
X1544987Y818471D01*
X1543049Y819274D01*
X1540951D01*
X1539785Y818791D01*
X1523215D01*
X1522049Y819274D01*
X1519951D01*
X1518013Y818471D01*
X1516529Y816988D01*
X1515726Y815049D01*
Y812951D01*
X1516529Y811012D01*
X1518013Y809529D01*
X1519951Y808726D01*
X1522049D01*
X1523215Y809209D01*
X1539785D01*
X1540951Y808726D01*
X1543049D01*
X1544987Y809529D01*
X1546471Y811012D01*
X1546881Y812003D01*
X1548151Y811750D01*
Y280000D01*
X1548151Y280000D01*
X1548368Y278910D01*
X1548986Y277986D01*
X1575986Y250986D01*
X1575986Y250986D01*
X1576910Y250368D01*
X1578000Y250151D01*
X1578000Y250151D01*
X1811820D01*
X1819151Y242820D01*
Y154000D01*
X1819151Y154000D01*
X1819368Y152910D01*
X1819986Y151986D01*
X1828986Y142986D01*
X1828986Y142986D01*
X1829910Y142368D01*
X1831000Y142151D01*
X1831000Y142151D01*
X1874485D01*
X1875133Y140589D01*
X1876598Y138678D01*
X1878509Y137213D01*
X1880733Y136291D01*
X1883120Y135977D01*
X1893280D01*
X1895667Y136291D01*
X1897892Y137213D01*
X1899802Y138678D01*
X1901267Y140589D01*
X1902189Y142813D01*
X1902503Y145200D01*
X1902189Y147587D01*
X1901267Y149811D01*
X1899802Y151722D01*
X1897892Y153187D01*
X1895667Y154109D01*
X1893280Y154423D01*
X1883120D01*
X1880733Y154109D01*
X1878509Y153187D01*
X1876598Y151722D01*
X1875133Y149811D01*
X1874320Y147849D01*
X1832180D01*
X1824849Y155180D01*
Y244000D01*
X1824849Y244000D01*
X1824632Y245090D01*
X1824014Y246014D01*
X1824014Y246014D01*
X1815014Y255014D01*
X1814090Y255632D01*
X1813000Y255849D01*
X1813000Y255849D01*
X1579180D01*
X1553849Y281180D01*
Y825000D01*
X1553849Y825000D01*
X1553632Y826090D01*
X1553014Y827014D01*
X1553014Y827014D01*
X1502014Y878014D01*
X1501090Y878632D01*
X1500000Y878849D01*
X1500000Y878849D01*
X1329180D01*
X1323849Y884180D01*
Y994000D01*
X1323632Y995090D01*
X1323014Y996014D01*
X1323014Y996014D01*
X1313014Y1006014D01*
X1312090Y1006632D01*
X1311000Y1006849D01*
X1311000Y1006849D01*
X1155000D01*
X1153910Y1006632D01*
X1152986Y1006014D01*
X1152986Y1006014D01*
X1142986Y996014D01*
X1142368Y995090D01*
X1142151Y994000D01*
X1142151Y994000D01*
Y944180D01*
X1129820Y931849D01*
X972529D01*
X972471Y931988D01*
X971577Y932881D01*
X972103Y934151D01*
X1126000D01*
X1126000Y934151D01*
X1127090Y934368D01*
X1128014Y934986D01*
X1138014Y944986D01*
X1138014Y944986D01*
X1138632Y945910D01*
X1138849Y947000D01*
Y999820D01*
X1148180Y1009151D01*
X1319820D01*
X1327151Y1001820D01*
Y890000D01*
X1327151Y890000D01*
X1327368Y888910D01*
X1327986Y887986D01*
X1332986Y882986D01*
X1333910Y882368D01*
X1335000Y882151D01*
X1335000Y882151D01*
X1506820D01*
X1556151Y832820D01*
Y285000D01*
X1556151Y285000D01*
X1556368Y283910D01*
X1556986Y282986D01*
X1566986Y272986D01*
X1566986Y272986D01*
X1567910Y272368D01*
X1569000Y272151D01*
X1647820D01*
X1649151Y270820D01*
Y268529D01*
X1649012Y268471D01*
X1647529Y266987D01*
X1646726Y265049D01*
Y262951D01*
X1647529Y261012D01*
X1649012Y259529D01*
X1650951Y258726D01*
X1653049D01*
X1654987Y259529D01*
X1656471Y261012D01*
X1657274Y262951D01*
Y265049D01*
X1656471Y266987D01*
X1654987Y268471D01*
X1654849Y268529D01*
Y272000D01*
X1654632Y273090D01*
X1654014Y274014D01*
X1654014Y274014D01*
X1651014Y277014D01*
X1650090Y277632D01*
X1649000Y277849D01*
X1649000Y277849D01*
X1570180D01*
X1561849Y286180D01*
Y834000D01*
X1561849Y834000D01*
X1561632Y835090D01*
X1561014Y836014D01*
X1561014Y836014D01*
X1511147Y885881D01*
X1511674Y887151D01*
X1528820D01*
X1564151Y851820D01*
Y296000D01*
X1564151Y296000D01*
X1564368Y294910D01*
X1564986Y293986D01*
X1576986Y281986D01*
X1576986Y281986D01*
X1577910Y281368D01*
X1579000Y281151D01*
X1900820D01*
X1915151Y266820D01*
Y128180D01*
X1909820Y122849D01*
X1901915D01*
X1901267Y124411D01*
X1899802Y126322D01*
X1897892Y127787D01*
X1895667Y128709D01*
X1893280Y129023D01*
X1883120D01*
X1880733Y128709D01*
X1878509Y127787D01*
X1876598Y126322D01*
X1875133Y124411D01*
X1874211Y122187D01*
X1873897Y119800D01*
X1874211Y117413D01*
X1875133Y115189D01*
X1876598Y113278D01*
X1878509Y111813D01*
X1880733Y110891D01*
X1883120Y110577D01*
X1893280D01*
X1895667Y110891D01*
X1897892Y111813D01*
X1899802Y113278D01*
X1901267Y115189D01*
X1902080Y117151D01*
X1911000D01*
X1911000Y117151D01*
X1912090Y117368D01*
X1913014Y117986D01*
X1920014Y124986D01*
X1920014Y124986D01*
X1920632Y125910D01*
X1920849Y127000D01*
X1920849Y127000D01*
Y268000D01*
X1920849Y268000D01*
X1920632Y269090D01*
X1920014Y270014D01*
X1920014Y270014D01*
X1904014Y286014D01*
X1903090Y286632D01*
X1902000Y286849D01*
X1902000Y286849D01*
X1580180D01*
X1569849Y297180D01*
Y315750D01*
X1571119Y316003D01*
X1571529Y315012D01*
X1573013Y313529D01*
X1574951Y312726D01*
X1577049D01*
X1578987Y313529D01*
X1580351Y314892D01*
X1659000D01*
X1660189Y315129D01*
X1661198Y315802D01*
X1667121Y321726D01*
X1669049D01*
X1670988Y322529D01*
X1672471Y324012D01*
X1673274Y325951D01*
Y328049D01*
X1672471Y329987D01*
X1670988Y331471D01*
X1669049Y332274D01*
X1666951D01*
X1665013Y331471D01*
X1663529Y329987D01*
X1662726Y328049D01*
Y326121D01*
X1657713Y321108D01*
X1580351D01*
X1578987Y322471D01*
X1577049Y323274D01*
X1574951D01*
X1573013Y322471D01*
X1571529Y320988D01*
X1571119Y319997D01*
X1569849Y320250D01*
Y373897D01*
X1571119Y374423D01*
X1572012Y373529D01*
X1573951Y372726D01*
X1576049D01*
X1577988Y373529D01*
X1579366Y374908D01*
X1610977D01*
X1612325Y373560D01*
X1614263Y372757D01*
X1616362D01*
X1618300Y373560D01*
X1619784Y375044D01*
X1620587Y376982D01*
Y379080D01*
X1619784Y381019D01*
X1618300Y382502D01*
X1616362Y383305D01*
X1614263D01*
X1612325Y382502D01*
X1610946Y381123D01*
X1579335D01*
X1577988Y382471D01*
X1576049Y383274D01*
X1573951D01*
X1572012Y382471D01*
X1571119Y381577D01*
X1569849Y382103D01*
Y853000D01*
X1569849Y853000D01*
X1569632Y854090D01*
X1569014Y855014D01*
X1569014Y855014D01*
X1532014Y892014D01*
X1531090Y892632D01*
X1530000Y892849D01*
X1530000Y892849D01*
X1343180D01*
X1340849Y895180D01*
Y1015000D01*
X1340849Y1015000D01*
X1340632Y1016090D01*
X1340014Y1017014D01*
X1340014Y1017014D01*
X1337202Y1019827D01*
X1337688Y1021000D01*
X1706209D01*
Y1001662D01*
X1704548Y1000552D01*
X1703382Y998808D01*
X1702973Y996750D01*
Y989250D01*
X1703382Y987192D01*
X1704548Y985448D01*
X1706292Y984282D01*
X1708350Y983873D01*
X1715850D01*
X1717908Y984282D01*
X1719652Y985448D01*
X1720818Y987192D01*
X1721227Y989250D01*
Y996750D01*
X1720818Y998808D01*
X1719652Y1000552D01*
X1717908Y1001718D01*
X1715850Y1002127D01*
X1715791D01*
Y1021000D01*
X1975980D01*
Y31000D01*
D02*
G37*
G36*
X1335151Y1013820D02*
Y894000D01*
X1335151Y894000D01*
X1335368Y892910D01*
X1335986Y891986D01*
X1338853Y889119D01*
X1338327Y887849D01*
X1336180D01*
X1332849Y891180D01*
Y1003000D01*
X1332849Y1003000D01*
X1332632Y1004090D01*
X1332014Y1005014D01*
X1332014Y1005014D01*
X1323014Y1014014D01*
X1322090Y1014632D01*
X1321000Y1014849D01*
X1321000Y1014849D01*
X1147000D01*
X1145910Y1014632D01*
X1144986Y1014014D01*
X1144986Y1014014D01*
X1133986Y1003014D01*
X1133368Y1002090D01*
X1133151Y1001000D01*
X1133151Y1001000D01*
Y948180D01*
X1124820Y939849D01*
X964529D01*
X964471Y939987D01*
X962988Y941471D01*
X961997Y941881D01*
X962250Y943151D01*
X977820D01*
X977986Y942986D01*
X977986Y942986D01*
X978910Y942368D01*
X980000Y942151D01*
X980000Y942151D01*
X1123000D01*
X1123000Y942151D01*
X1124090Y942368D01*
X1125014Y942986D01*
X1131014Y948986D01*
X1131632Y949910D01*
X1131849Y951000D01*
X1131849Y951000D01*
Y1008820D01*
X1141180Y1018151D01*
X1330820D01*
X1335151Y1013820D01*
D02*
G37*
%LPC*%
G36*
X962455Y1014290D02*
X962370D01*
Y1005270D01*
X971390D01*
Y1005355D01*
X970689Y1007972D01*
X969334Y1010318D01*
X967418Y1012234D01*
X965072Y1013589D01*
X962455Y1014290D01*
D02*
G37*
G36*
X959830D02*
X959745D01*
X957128Y1013589D01*
X954782Y1012234D01*
X952866Y1010318D01*
X951511Y1007972D01*
X950810Y1005355D01*
Y1005270D01*
X959830D01*
Y1014290D01*
D02*
G37*
G36*
X1472859Y1009524D02*
X1471141D01*
X1469482Y1009079D01*
X1467994Y1008221D01*
X1466779Y1007006D01*
X1465921Y1005518D01*
X1465476Y1003859D01*
Y1002141D01*
X1465921Y1000482D01*
X1466779Y998994D01*
X1467994Y997779D01*
X1469482Y996921D01*
X1471141Y996476D01*
X1472859D01*
X1474518Y996921D01*
X1476006Y997779D01*
X1477220Y998994D01*
X1478079Y1000482D01*
X1478524Y1002141D01*
Y1003859D01*
X1478079Y1005518D01*
X1477220Y1007006D01*
X1476006Y1008221D01*
X1474518Y1009079D01*
X1472859Y1009524D01*
D02*
G37*
G36*
X1392859D02*
X1391141D01*
X1389482Y1009079D01*
X1387994Y1008221D01*
X1386779Y1007006D01*
X1385921Y1005518D01*
X1385476Y1003859D01*
Y1002141D01*
X1385921Y1000482D01*
X1386779Y998994D01*
X1387994Y997779D01*
X1389482Y996921D01*
X1391141Y996476D01*
X1392859D01*
X1394518Y996921D01*
X1396006Y997779D01*
X1397220Y998994D01*
X1398079Y1000482D01*
X1398524Y1002141D01*
Y1003859D01*
X1398079Y1005518D01*
X1397220Y1007006D01*
X1396006Y1008221D01*
X1394518Y1009079D01*
X1392859Y1009524D01*
D02*
G37*
G36*
X987721Y1013274D02*
X985279D01*
X982920Y1012642D01*
X980806Y1011421D01*
X979079Y1009694D01*
X977858Y1007580D01*
X977226Y1005221D01*
Y1002779D01*
X977858Y1000420D01*
X979079Y998306D01*
X980806Y996579D01*
X982920Y995358D01*
X985279Y994726D01*
X987721D01*
X990080Y995358D01*
X992194Y996579D01*
X993921Y998306D01*
X995142Y1000420D01*
X995774Y1002779D01*
Y1005221D01*
X995142Y1007580D01*
X993921Y1009694D01*
X992194Y1011421D01*
X990080Y1012642D01*
X987721Y1013274D01*
D02*
G37*
G36*
X936921D02*
X934479D01*
X932120Y1012642D01*
X930006Y1011421D01*
X928279Y1009694D01*
X927058Y1007580D01*
X926426Y1005221D01*
Y1002779D01*
X927058Y1000420D01*
X928279Y998306D01*
X930006Y996579D01*
X932120Y995358D01*
X934479Y994726D01*
X936921D01*
X939280Y995358D01*
X941394Y996579D01*
X943121Y998306D01*
X944342Y1000420D01*
X944974Y1002779D01*
Y1005221D01*
X944342Y1007580D01*
X943121Y1009694D01*
X941394Y1011421D01*
X939280Y1012642D01*
X936921Y1013274D01*
D02*
G37*
G36*
X911521D02*
X909079D01*
X906720Y1012642D01*
X904606Y1011421D01*
X902879Y1009694D01*
X901658Y1007580D01*
X901026Y1005221D01*
Y1002779D01*
X901658Y1000420D01*
X902879Y998306D01*
X904606Y996579D01*
X906720Y995358D01*
X909079Y994726D01*
X911521D01*
X913880Y995358D01*
X915994Y996579D01*
X917721Y998306D01*
X918942Y1000420D01*
X919574Y1002779D01*
Y1005221D01*
X918942Y1007580D01*
X917721Y1009694D01*
X915994Y1011421D01*
X913880Y1012642D01*
X911521Y1013274D01*
D02*
G37*
G36*
X886121D02*
X883679D01*
X881320Y1012642D01*
X879206Y1011421D01*
X877479Y1009694D01*
X876258Y1007580D01*
X875626Y1005221D01*
Y1002779D01*
X876258Y1000420D01*
X877479Y998306D01*
X879206Y996579D01*
X881320Y995358D01*
X883679Y994726D01*
X886121D01*
X888480Y995358D01*
X890594Y996579D01*
X892321Y998306D01*
X893542Y1000420D01*
X894174Y1002779D01*
Y1005221D01*
X893542Y1007580D01*
X892321Y1009694D01*
X890594Y1011421D01*
X888480Y1012642D01*
X886121Y1013274D01*
D02*
G37*
G36*
X971390Y1002730D02*
X962370D01*
Y993710D01*
X962455D01*
X965072Y994411D01*
X967418Y995766D01*
X969334Y997682D01*
X970689Y1000028D01*
X971390Y1002645D01*
Y1002730D01*
D02*
G37*
G36*
X959830D02*
X950810D01*
Y1002645D01*
X951511Y1000028D01*
X952866Y997682D01*
X954782Y995766D01*
X957128Y994411D01*
X959745Y993710D01*
X959830D01*
Y1002730D01*
D02*
G37*
G36*
X1270270Y995660D02*
Y991270D01*
X1274660D01*
X1273845Y993237D01*
X1272237Y994845D01*
X1270270Y995660D01*
D02*
G37*
G36*
X1267730D02*
X1265763Y994845D01*
X1264155Y993237D01*
X1263340Y991270D01*
X1267730D01*
Y995660D01*
D02*
G37*
G36*
X1274660Y988730D02*
X1270270D01*
Y984340D01*
X1272237Y985155D01*
X1273845Y986763D01*
X1274660Y988730D01*
D02*
G37*
G36*
X1267730D02*
X1263340D01*
X1264155Y986763D01*
X1265763Y985155D01*
X1267730Y984340D01*
Y988730D01*
D02*
G37*
G36*
X1198049Y984274D02*
X1195951D01*
X1194013Y983471D01*
X1192529Y981988D01*
X1192471Y981849D01*
X1192000D01*
X1190910Y981632D01*
X1189986Y981014D01*
X1189986Y981014D01*
X1184986Y976014D01*
X1184368Y975090D01*
X1184151Y974000D01*
X1184151Y974000D01*
Y942000D01*
X1184151Y942000D01*
X1184368Y940910D01*
X1184986Y939986D01*
X1188986Y935986D01*
X1188986Y935986D01*
X1189910Y935368D01*
X1191000Y935151D01*
X1191000Y935151D01*
X1209820D01*
X1219151Y925820D01*
Y911529D01*
X1219013Y911471D01*
X1217529Y909987D01*
X1216726Y908049D01*
Y905951D01*
X1217529Y904013D01*
X1219013Y902529D01*
X1220951Y901726D01*
X1223049D01*
X1224987Y902529D01*
X1226471Y904013D01*
X1227274Y905951D01*
Y908049D01*
X1226471Y909987D01*
X1224987Y911471D01*
X1224849Y911529D01*
Y927000D01*
X1224849Y927000D01*
X1224632Y928090D01*
X1224014Y929014D01*
X1224014Y929014D01*
X1213014Y940014D01*
X1212090Y940632D01*
X1211000Y940849D01*
X1211000Y940849D01*
X1192180D01*
X1189849Y943180D01*
Y972820D01*
X1192785Y975756D01*
X1194013Y974529D01*
X1195951Y973726D01*
X1198049D01*
X1199987Y974529D01*
X1201471Y976012D01*
X1202274Y977951D01*
Y980049D01*
X1201471Y981988D01*
X1199987Y983471D01*
X1198049Y984274D01*
D02*
G37*
G36*
X1893988Y990024D02*
X1891612D01*
X1889317Y989409D01*
X1887259Y988221D01*
X1885579Y986541D01*
X1884391Y984483D01*
X1883776Y982188D01*
Y979812D01*
X1884391Y977517D01*
X1885579Y975459D01*
X1887259Y973779D01*
X1889317Y972591D01*
X1891612Y971976D01*
X1893988D01*
X1896283Y972591D01*
X1898341Y973779D01*
X1900021Y975459D01*
X1901209Y977517D01*
X1901824Y979812D01*
Y982188D01*
X1901209Y984483D01*
X1900021Y986541D01*
X1898341Y988221D01*
X1896283Y989409D01*
X1893988Y990024D01*
D02*
G37*
G36*
X1868588D02*
X1866212D01*
X1863917Y989409D01*
X1861859Y988221D01*
X1860179Y986541D01*
X1858991Y984483D01*
X1858376Y982188D01*
Y979812D01*
X1858991Y977517D01*
X1860179Y975459D01*
X1861859Y973779D01*
X1863917Y972591D01*
X1866212Y971976D01*
X1868588D01*
X1870883Y972591D01*
X1872941Y973779D01*
X1874621Y975459D01*
X1875809Y977517D01*
X1876424Y979812D01*
Y982188D01*
X1875809Y984483D01*
X1874621Y986541D01*
X1872941Y988221D01*
X1870883Y989409D01*
X1868588Y990024D01*
D02*
G37*
G36*
X1843188D02*
X1840812D01*
X1838517Y989409D01*
X1836459Y988221D01*
X1834779Y986541D01*
X1833591Y984483D01*
X1832976Y982188D01*
Y979812D01*
X1833591Y977517D01*
X1834779Y975459D01*
X1836459Y973779D01*
X1838517Y972591D01*
X1840812Y971976D01*
X1843188D01*
X1845483Y972591D01*
X1847541Y973779D01*
X1849221Y975459D01*
X1850409Y977517D01*
X1851024Y979812D01*
Y982188D01*
X1850409Y984483D01*
X1849221Y986541D01*
X1847541Y988221D01*
X1845483Y989409D01*
X1843188Y990024D01*
D02*
G37*
G36*
X1820350Y990127D02*
X1812850D01*
X1810792Y989718D01*
X1809048Y988552D01*
X1807882Y986808D01*
X1807473Y984750D01*
Y977250D01*
X1807882Y975192D01*
X1809048Y973448D01*
X1810792Y972282D01*
X1812850Y971873D01*
X1820350D01*
X1822408Y972282D01*
X1824152Y973448D01*
X1825318Y975192D01*
X1825727Y977250D01*
Y984750D01*
X1825318Y986808D01*
X1824152Y988552D01*
X1822408Y989718D01*
X1820350Y990127D01*
D02*
G37*
G36*
X1299908Y971334D02*
X1297810D01*
X1295871Y970531D01*
X1294388Y969047D01*
X1294305Y968849D01*
X1204529D01*
X1204471Y968988D01*
X1202988Y970471D01*
X1201049Y971274D01*
X1198951D01*
X1197012Y970471D01*
X1195529Y968988D01*
X1194726Y967049D01*
Y964951D01*
X1195529Y963012D01*
X1197012Y961529D01*
X1198951Y960726D01*
X1201049D01*
X1202988Y961529D01*
X1204471Y963012D01*
X1204529Y963151D01*
X1245151D01*
Y899529D01*
X1245013Y899471D01*
X1243529Y897988D01*
X1242726Y896049D01*
Y893951D01*
X1243529Y892012D01*
X1245013Y890529D01*
X1246951Y889726D01*
X1249049D01*
X1250987Y890529D01*
X1252471Y892012D01*
X1253274Y893951D01*
Y896049D01*
X1252471Y897988D01*
X1250987Y899471D01*
X1250849Y899529D01*
Y963151D01*
X1294355D01*
X1294388Y963072D01*
X1295871Y961589D01*
X1297810Y960786D01*
X1299908D01*
X1301846Y961589D01*
X1303330Y963072D01*
X1304133Y965011D01*
Y967109D01*
X1303330Y969047D01*
X1301846Y970531D01*
X1299908Y971334D01*
D02*
G37*
G36*
X1163920Y973547D02*
Y968535D01*
X1168932D01*
X1167983Y970828D01*
X1166213Y972598D01*
X1163920Y973547D01*
D02*
G37*
G36*
X1161380D02*
X1159087Y972598D01*
X1157318Y970828D01*
X1156368Y968535D01*
X1161380D01*
Y973547D01*
D02*
G37*
G36*
X1168932Y965995D02*
X1163920D01*
Y960983D01*
X1166213Y961933D01*
X1167983Y963702D01*
X1168932Y965995D01*
D02*
G37*
G36*
X1161380D02*
X1156368D01*
X1157318Y963702D01*
X1159087Y961933D01*
X1161380Y960983D01*
Y965995D01*
D02*
G37*
G36*
X1687888Y1002024D02*
X1685512D01*
X1683217Y1001409D01*
X1681159Y1000221D01*
X1679479Y998541D01*
X1678291Y996483D01*
X1677676Y994188D01*
Y991812D01*
X1678291Y989517D01*
X1679479Y987459D01*
X1680294Y986645D01*
X1680151Y985928D01*
X1680151Y985928D01*
Y966424D01*
X1677576D01*
Y955576D01*
X1688424D01*
Y966424D01*
X1685849D01*
Y983976D01*
X1687888D01*
X1690183Y984591D01*
X1692241Y985779D01*
X1693921Y987459D01*
X1695109Y989517D01*
X1695724Y991812D01*
Y994188D01*
X1695109Y996483D01*
X1693921Y998541D01*
X1692241Y1000221D01*
X1690183Y1001409D01*
X1687888Y1002024D01*
D02*
G37*
G36*
X1662488D02*
X1660112D01*
X1657817Y1001409D01*
X1655759Y1000221D01*
X1654079Y998541D01*
X1652891Y996483D01*
X1652276Y994188D01*
Y991812D01*
X1652891Y989517D01*
X1654079Y987459D01*
X1655759Y985779D01*
X1657817Y984591D01*
X1660112Y983976D01*
X1661151D01*
Y966424D01*
X1658576D01*
Y955576D01*
X1669424D01*
Y966424D01*
X1666849D01*
Y985787D01*
X1668521Y987459D01*
X1669709Y989517D01*
X1670324Y991812D01*
Y994188D01*
X1669709Y996483D01*
X1668521Y998541D01*
X1666841Y1000221D01*
X1664783Y1001409D01*
X1662488Y1002024D01*
D02*
G37*
G36*
X1288049Y946274D02*
X1285951D01*
X1284012Y945471D01*
X1282529Y943988D01*
X1281726Y942049D01*
Y939951D01*
X1282529Y938012D01*
X1284012Y936529D01*
X1285951Y935726D01*
X1288049D01*
X1289987Y936529D01*
X1290777Y937318D01*
X1300533D01*
X1300591Y937180D01*
X1302075Y935696D01*
X1304013Y934893D01*
X1306111D01*
X1308050Y935696D01*
X1309533Y937180D01*
X1310336Y939118D01*
Y941216D01*
X1309533Y943155D01*
X1308050Y944638D01*
X1306111Y945441D01*
X1304013D01*
X1302075Y944638D01*
X1300591Y943155D01*
X1300533Y943016D01*
X1291873D01*
X1291471Y943988D01*
X1289987Y945471D01*
X1288049Y946274D01*
D02*
G37*
G36*
X109859Y947524D02*
X108141D01*
X106482Y947079D01*
X104994Y946220D01*
X103779Y945006D01*
X102921Y943518D01*
X102476Y941859D01*
Y940141D01*
X102921Y938482D01*
X103779Y936994D01*
X104994Y935779D01*
X106482Y934921D01*
X108141Y934476D01*
X109859D01*
X111518Y934921D01*
X113006Y935779D01*
X114221Y936994D01*
X115079Y938482D01*
X115524Y940141D01*
Y941859D01*
X115079Y943518D01*
X114221Y945006D01*
X113006Y946220D01*
X111518Y947079D01*
X109859Y947524D01*
D02*
G37*
G36*
X1637088Y1002024D02*
X1634712D01*
X1632417Y1001409D01*
X1630359Y1000221D01*
X1628679Y998541D01*
X1627491Y996483D01*
X1626876Y994188D01*
Y991812D01*
X1627491Y989517D01*
X1628679Y987459D01*
X1630359Y985779D01*
X1632417Y984591D01*
X1632792Y984490D01*
Y944100D01*
X1633029Y942911D01*
X1633703Y941902D01*
X1639702Y935902D01*
X1640711Y935229D01*
X1641900Y934992D01*
X1668076D01*
Y932676D01*
X1678924D01*
Y943524D01*
X1668076D01*
Y941208D01*
X1643187D01*
X1639008Y945387D01*
Y984490D01*
X1639383Y984591D01*
X1641441Y985779D01*
X1643121Y987459D01*
X1644309Y989517D01*
X1644924Y991812D01*
Y994188D01*
X1644309Y996483D01*
X1643121Y998541D01*
X1641441Y1000221D01*
X1639383Y1001409D01*
X1637088Y1002024D01*
D02*
G37*
G36*
X894049Y926274D02*
X891951D01*
X890013Y925471D01*
X888529Y923988D01*
X888471Y923849D01*
X769000D01*
X769000Y923849D01*
X767910Y923632D01*
X766986Y923014D01*
X766986Y923014D01*
X750820Y906849D01*
X261000D01*
X261000Y906849D01*
X259910Y906632D01*
X258986Y906014D01*
X258986Y906014D01*
X254188Y901217D01*
X254049Y901274D01*
X251951D01*
X250012Y900471D01*
X248529Y898988D01*
X247726Y897049D01*
Y894951D01*
X248529Y893012D01*
X250012Y891529D01*
X251951Y890726D01*
X254049D01*
X255987Y891529D01*
X257471Y893012D01*
X258274Y894951D01*
Y897049D01*
X258217Y897188D01*
X262180Y901151D01*
X557033D01*
X557485Y899881D01*
X556726Y898049D01*
Y895951D01*
X557529Y894013D01*
X559012Y892529D01*
X560951Y891726D01*
X563049D01*
X564987Y892529D01*
X566471Y894013D01*
X566529Y894151D01*
X758000D01*
X758000Y894151D01*
X759090Y894368D01*
X760014Y894986D01*
X768771Y903742D01*
X901470D01*
X901527Y903603D01*
X903011Y902120D01*
X904949Y901317D01*
X907048D01*
X908986Y902120D01*
X910470Y903603D01*
X911272Y905542D01*
Y907640D01*
X910470Y909578D01*
X908986Y911062D01*
X907048Y911865D01*
X904949D01*
X903011Y911062D01*
X901527Y909578D01*
X901470Y909439D01*
X767591D01*
X767591Y909439D01*
X766500Y909223D01*
X765576Y908605D01*
X765576Y908605D01*
X756820Y899849D01*
X567851D01*
X567828Y899881D01*
X568487Y901151D01*
X752000D01*
X752000Y901151D01*
X753090Y901368D01*
X754014Y901986D01*
X770180Y918151D01*
X888471D01*
X888529Y918012D01*
X890013Y916529D01*
X891951Y915726D01*
X894049D01*
X895987Y916529D01*
X897471Y918012D01*
X898274Y919951D01*
Y922049D01*
X897471Y923988D01*
X895987Y925471D01*
X894049Y926274D01*
D02*
G37*
G36*
X1434270Y920282D02*
Y915270D01*
X1439282D01*
X1438332Y917563D01*
X1436563Y919332D01*
X1434270Y920282D01*
D02*
G37*
G36*
X1431730D02*
X1429437Y919332D01*
X1427668Y917563D01*
X1426718Y915270D01*
X1431730D01*
Y920282D01*
D02*
G37*
G36*
X373581Y937524D02*
X370019D01*
X366580Y936602D01*
X363496Y934822D01*
X360978Y932304D01*
X359198Y929220D01*
X358276Y925780D01*
Y922219D01*
X359198Y918780D01*
X360978Y915696D01*
X363496Y913178D01*
X366580Y911398D01*
X370019Y910476D01*
X373581D01*
X377020Y911398D01*
X380104Y913178D01*
X382622Y915696D01*
X384402Y918780D01*
X385324Y922219D01*
Y925780D01*
X384402Y929220D01*
X382622Y932304D01*
X380104Y934822D01*
X377020Y936602D01*
X373581Y937524D01*
D02*
G37*
G36*
X322780D02*
X319219D01*
X315780Y936602D01*
X312696Y934822D01*
X310178Y932304D01*
X308398Y929220D01*
X307476Y925780D01*
Y922219D01*
X308398Y918780D01*
X310178Y915696D01*
X312696Y913178D01*
X315780Y911398D01*
X319219Y910476D01*
X322780D01*
X326220Y911398D01*
X329304Y913178D01*
X331822Y915696D01*
X333602Y918780D01*
X334524Y922219D01*
Y925780D01*
X333602Y929220D01*
X331822Y932304D01*
X329304Y934822D01*
X326220Y936602D01*
X322780Y937524D01*
D02*
G37*
G36*
X271980D02*
X268419D01*
X264980Y936602D01*
X261896Y934822D01*
X259378Y932304D01*
X257598Y929220D01*
X256676Y925780D01*
Y922219D01*
X257598Y918780D01*
X259378Y915696D01*
X261896Y913178D01*
X264980Y911398D01*
X268419Y910476D01*
X271980D01*
X275420Y911398D01*
X278504Y913178D01*
X281022Y915696D01*
X282802Y918780D01*
X283724Y922219D01*
Y925780D01*
X282802Y929220D01*
X281022Y932304D01*
X278504Y934822D01*
X275420Y936602D01*
X271980Y937524D01*
D02*
G37*
G36*
X428600Y937589D02*
X416600D01*
X414636Y937330D01*
X412805Y936572D01*
X411234Y935366D01*
X410028Y933794D01*
X409270Y931964D01*
X409011Y930000D01*
Y918000D01*
X409270Y916036D01*
X410028Y914205D01*
X411234Y912634D01*
X412805Y911428D01*
X414636Y910670D01*
X416600Y910411D01*
X428600D01*
X430564Y910670D01*
X432394Y911428D01*
X433966Y912634D01*
X435172Y914205D01*
X435930Y916036D01*
X436189Y918000D01*
Y930000D01*
X435930Y931964D01*
X435172Y933794D01*
X433966Y935366D01*
X432394Y936572D01*
X430564Y937330D01*
X428600Y937589D01*
D02*
G37*
G36*
X1211049Y912274D02*
X1208951D01*
X1207012Y911471D01*
X1205529Y909987D01*
X1205471Y909849D01*
X934529D01*
X934471Y909987D01*
X932988Y911471D01*
X931049Y912274D01*
X928951D01*
X927012Y911471D01*
X925529Y909987D01*
X924726Y908049D01*
Y905951D01*
X925529Y904013D01*
X927012Y902529D01*
X928951Y901726D01*
X931049D01*
X932988Y902529D01*
X934471Y904013D01*
X934529Y904151D01*
X1205471D01*
X1205529Y904013D01*
X1207012Y902529D01*
X1208951Y901726D01*
X1211049D01*
X1212988Y902529D01*
X1214471Y904013D01*
X1215274Y905951D01*
Y908049D01*
X1214471Y909987D01*
X1212988Y911471D01*
X1211049Y912274D01*
D02*
G37*
G36*
X689181Y935524D02*
X685620D01*
X682180Y934602D01*
X679096Y932822D01*
X676578Y930304D01*
X674798Y927220D01*
X673876Y923780D01*
Y920219D01*
X674798Y916780D01*
X676578Y913696D01*
X679096Y911178D01*
X682180Y909397D01*
X685620Y908476D01*
X689181D01*
X692620Y909397D01*
X695704Y911178D01*
X698222Y913696D01*
X700002Y916780D01*
X700924Y920219D01*
Y923780D01*
X700002Y927220D01*
X698222Y930304D01*
X695704Y932822D01*
X692620Y934602D01*
X689181Y935524D01*
D02*
G37*
G36*
X638381D02*
X634819D01*
X631380Y934602D01*
X628296Y932822D01*
X625778Y930304D01*
X623998Y927220D01*
X623076Y923780D01*
Y920219D01*
X623998Y916780D01*
X625778Y913696D01*
X628296Y911178D01*
X631380Y909397D01*
X634819Y908476D01*
X638381D01*
X641820Y909397D01*
X644904Y911178D01*
X647422Y913696D01*
X649202Y916780D01*
X650124Y920219D01*
Y923780D01*
X649202Y927220D01*
X647422Y930304D01*
X644904Y932822D01*
X641820Y934602D01*
X638381Y935524D01*
D02*
G37*
G36*
X587580D02*
X584020D01*
X580580Y934602D01*
X577496Y932822D01*
X574978Y930304D01*
X573198Y927220D01*
X572276Y923780D01*
Y920219D01*
X573198Y916780D01*
X574978Y913696D01*
X577496Y911178D01*
X580580Y909397D01*
X584020Y908476D01*
X587580D01*
X591020Y909397D01*
X594104Y911178D01*
X596622Y913696D01*
X598402Y916780D01*
X599324Y920219D01*
Y923780D01*
X598402Y927220D01*
X596622Y930304D01*
X594104Y932822D01*
X591020Y934602D01*
X587580Y935524D01*
D02*
G37*
G36*
X744200Y935589D02*
X732200D01*
X730236Y935330D01*
X728406Y934572D01*
X726834Y933366D01*
X725628Y931794D01*
X724870Y929964D01*
X724611Y928000D01*
Y916000D01*
X724870Y914035D01*
X725628Y912205D01*
X726834Y910633D01*
X728406Y909427D01*
X730236Y908669D01*
X732200Y908411D01*
X744200D01*
X746164Y908669D01*
X747995Y909427D01*
X749566Y910633D01*
X750772Y912205D01*
X751530Y914035D01*
X751789Y916000D01*
Y928000D01*
X751530Y929964D01*
X750772Y931794D01*
X749566Y933366D01*
X747995Y934572D01*
X746164Y935330D01*
X744200Y935589D01*
D02*
G37*
G36*
X1439282Y912730D02*
X1434270D01*
Y907718D01*
X1436563Y908668D01*
X1438332Y910437D01*
X1439282Y912730D01*
D02*
G37*
G36*
X1431730D02*
X1426718D01*
X1427668Y910437D01*
X1429437Y908668D01*
X1431730Y907718D01*
Y912730D01*
D02*
G37*
G36*
X1273049Y883274D02*
X1270951D01*
X1269013Y882471D01*
X1267529Y880987D01*
X1266726Y879049D01*
Y876951D01*
X1266783Y876812D01*
X1264820Y874849D01*
X1218529D01*
X1218471Y874987D01*
X1216988Y876471D01*
X1215049Y877274D01*
X1212951D01*
X1211012Y876471D01*
X1209529Y874987D01*
X1208726Y873049D01*
Y870951D01*
X1209529Y869013D01*
X1211012Y867529D01*
X1212951Y866726D01*
X1215049D01*
X1216988Y867529D01*
X1218471Y869013D01*
X1218529Y869151D01*
X1237401D01*
X1237771Y868432D01*
X1237852Y867881D01*
X1227986Y858014D01*
X1227368Y857090D01*
X1227151Y856000D01*
X1227151Y856000D01*
Y832529D01*
X1227012Y832471D01*
X1225529Y830987D01*
X1224726Y829049D01*
Y826951D01*
X1225529Y825013D01*
X1225573Y824968D01*
X1225047Y823698D01*
X1224371D01*
X1222433Y822895D01*
X1220949Y821412D01*
X1220146Y819473D01*
Y817375D01*
X1220949Y815437D01*
X1222267Y814119D01*
X1222123Y813336D01*
X1221878Y812849D01*
X1218529D01*
X1218471Y812988D01*
X1216988Y814471D01*
X1215049Y815274D01*
X1212951D01*
X1211012Y814471D01*
X1209529Y812988D01*
X1208726Y811049D01*
Y808951D01*
X1209529Y807012D01*
X1211012Y805529D01*
X1212951Y804726D01*
X1215049D01*
X1216988Y805529D01*
X1218471Y807012D01*
X1218529Y807151D01*
X1237000D01*
X1237000Y807151D01*
X1238090Y807368D01*
X1239014Y807986D01*
X1243456Y812427D01*
X1244726Y811901D01*
Y810951D01*
X1245529Y809013D01*
X1247012Y807529D01*
X1247256Y807428D01*
X1247496Y805954D01*
X1246529Y804987D01*
X1245726Y803049D01*
Y800951D01*
X1246485Y799119D01*
X1246033Y797849D01*
X1193529D01*
X1193471Y797988D01*
X1191988Y799471D01*
X1190049Y800274D01*
X1187951D01*
X1186012Y799471D01*
X1184529Y797988D01*
X1183726Y796049D01*
Y793951D01*
X1184529Y792012D01*
X1186012Y790529D01*
X1187951Y789726D01*
X1190049D01*
X1191017Y788752D01*
X1190726Y788049D01*
Y785951D01*
X1191529Y784013D01*
X1193012Y782529D01*
X1194951Y781726D01*
X1197049D01*
X1198988Y782529D01*
X1200471Y784013D01*
X1200529Y784151D01*
X1242033D01*
X1242485Y782881D01*
X1241726Y781049D01*
Y778951D01*
X1242529Y777012D01*
X1244013Y775529D01*
X1245951Y774726D01*
X1248049D01*
X1249987Y775529D01*
X1251471Y777012D01*
X1251529Y777151D01*
X1285000D01*
X1285000Y777151D01*
X1286090Y777368D01*
X1287014Y777986D01*
X1292180Y783151D01*
X1333820D01*
X1336223Y780748D01*
X1335504Y779671D01*
X1334049Y780274D01*
X1331951D01*
X1330013Y779471D01*
X1328529Y777988D01*
X1327726Y776049D01*
Y773951D01*
X1328529Y772012D01*
X1330013Y770529D01*
X1330151Y770471D01*
Y631180D01*
X1303276Y604305D01*
X1299758D01*
X1299399Y605575D01*
X1300014Y605986D01*
X1324014Y629986D01*
X1324632Y630910D01*
X1324849Y632000D01*
X1324849Y632000D01*
Y768308D01*
X1324849Y768308D01*
X1324632Y769399D01*
X1324014Y770323D01*
X1322014Y772323D01*
X1322274Y772951D01*
Y775049D01*
X1321471Y776988D01*
X1319987Y778471D01*
X1318049Y779274D01*
X1315951D01*
X1314012Y778471D01*
X1312529Y776988D01*
X1311726Y775049D01*
Y772951D01*
X1312529Y771012D01*
X1312970Y770572D01*
X1312160Y769585D01*
X1312090Y769632D01*
X1311000Y769849D01*
X1311000Y769849D01*
X1305529D01*
X1305471Y769987D01*
X1303987Y771471D01*
X1302049Y772274D01*
X1299951D01*
X1298013Y771471D01*
X1296529Y769987D01*
X1295726Y768049D01*
Y765951D01*
X1296529Y764013D01*
X1298013Y762529D01*
X1299951Y761726D01*
X1302049D01*
X1303987Y762529D01*
X1305471Y764013D01*
X1305529Y764151D01*
X1309820D01*
X1312151Y761820D01*
Y642180D01*
X1289062Y619091D01*
X654368D01*
X652988Y620471D01*
X651049Y621274D01*
X648951D01*
X647012Y620471D01*
X645529Y618988D01*
X644726Y617049D01*
Y614951D01*
X645529Y613013D01*
X646423Y612119D01*
X645897Y610849D01*
X571000D01*
X571000Y610849D01*
X569910Y610632D01*
X568986Y610014D01*
X563986Y605014D01*
X563368Y604090D01*
X563151Y603000D01*
X563151Y603000D01*
Y578262D01*
X562917Y578199D01*
X560859Y577011D01*
X559179Y575331D01*
X557991Y573273D01*
X557376Y570978D01*
Y568602D01*
X557991Y566307D01*
X559179Y564249D01*
X560859Y562569D01*
X562917Y561381D01*
X563895Y561119D01*
X563728Y559849D01*
X546000D01*
X546000Y559849D01*
X544910Y559632D01*
X543986Y559014D01*
X538986Y554014D01*
X538368Y553090D01*
X538151Y552000D01*
X538151Y552000D01*
Y539579D01*
X537517Y539409D01*
X535459Y538221D01*
X533779Y536541D01*
X532591Y534483D01*
X531976Y532188D01*
Y529812D01*
X532591Y527517D01*
X533779Y525459D01*
X535459Y523779D01*
X537517Y522591D01*
X539812Y521976D01*
X542188D01*
X544483Y522591D01*
X546541Y523779D01*
X548221Y525459D01*
X549409Y527517D01*
X550024Y529812D01*
Y532188D01*
X549409Y534483D01*
X548221Y536541D01*
X546541Y538221D01*
X544483Y539409D01*
X543849Y539579D01*
Y550820D01*
X547180Y554151D01*
X825000D01*
X825000Y554151D01*
X826090Y554368D01*
X827014Y554986D01*
X845180Y573151D01*
X1308000D01*
X1308000Y573151D01*
X1309090Y573368D01*
X1310014Y573986D01*
X1340180Y604151D01*
X1417000D01*
X1417000Y604151D01*
X1418090Y604368D01*
X1419014Y604986D01*
X1429014Y614986D01*
X1429014Y614986D01*
X1429632Y615910D01*
X1429849Y617000D01*
Y665000D01*
X1429849Y665000D01*
X1429632Y666090D01*
X1429014Y667014D01*
X1429014Y667014D01*
X1424014Y672014D01*
X1423090Y672632D01*
X1422000Y672849D01*
X1422000Y672849D01*
X1397529D01*
X1397471Y672988D01*
X1395988Y674471D01*
X1394049Y675274D01*
X1391951D01*
X1390013Y674471D01*
X1388529Y672988D01*
X1387726Y671049D01*
Y668951D01*
X1388529Y667012D01*
X1390013Y665529D01*
X1391951Y664726D01*
X1394049D01*
X1395988Y665529D01*
X1397471Y667012D01*
X1397529Y667151D01*
X1420820D01*
X1424151Y663820D01*
Y618180D01*
X1415820Y609849D01*
X1339000D01*
X1337910Y609632D01*
X1336986Y609014D01*
X1336986Y609014D01*
X1306820Y578849D01*
X844000D01*
X844000Y578849D01*
X842910Y578632D01*
X841986Y578014D01*
X841986Y578014D01*
X830067Y566096D01*
X828929Y566754D01*
X829424Y568602D01*
Y570978D01*
X828809Y573273D01*
X827621Y575331D01*
X825941Y577011D01*
X823883Y578199D01*
X821588Y578814D01*
X819212D01*
X816917Y578199D01*
X814859Y577011D01*
X813179Y575331D01*
X811991Y573273D01*
X811376Y570978D01*
Y568602D01*
X811991Y566307D01*
X813179Y564249D01*
X814859Y562569D01*
X816917Y561381D01*
X817896Y561119D01*
X817728Y559849D01*
X797672D01*
X797505Y561119D01*
X798483Y561381D01*
X800541Y562569D01*
X802221Y564249D01*
X803409Y566307D01*
X804024Y568602D01*
Y570978D01*
X803409Y573273D01*
X802221Y575331D01*
X800541Y577011D01*
X798483Y578199D01*
X796188Y578814D01*
X793812D01*
X791517Y578199D01*
X789459Y577011D01*
X787779Y575331D01*
X786591Y573273D01*
X785976Y570978D01*
Y568602D01*
X786591Y566307D01*
X787779Y564249D01*
X789459Y562569D01*
X791517Y561381D01*
X792495Y561119D01*
X792328Y559849D01*
X772272D01*
X772104Y561119D01*
X773083Y561381D01*
X775141Y562569D01*
X776821Y564249D01*
X778009Y566307D01*
X778624Y568602D01*
Y570978D01*
X778009Y573273D01*
X776821Y575331D01*
X775141Y577011D01*
X773083Y578199D01*
X770788Y578814D01*
X768412D01*
X766117Y578199D01*
X764059Y577011D01*
X762379Y575331D01*
X761191Y573273D01*
X760576Y570978D01*
Y568602D01*
X761191Y566307D01*
X762379Y564249D01*
X764059Y562569D01*
X766117Y561381D01*
X767095Y561119D01*
X766928Y559849D01*
X746872D01*
X746704Y561119D01*
X747683Y561381D01*
X749741Y562569D01*
X751421Y564249D01*
X752609Y566307D01*
X753224Y568602D01*
Y570978D01*
X752609Y573273D01*
X751421Y575331D01*
X749741Y577011D01*
X747683Y578199D01*
X745388Y578814D01*
X743012D01*
X740717Y578199D01*
X738659Y577011D01*
X736979Y575331D01*
X735791Y573273D01*
X735176Y570978D01*
Y568602D01*
X735791Y566307D01*
X736979Y564249D01*
X738659Y562569D01*
X740717Y561381D01*
X741695Y561119D01*
X741528Y559849D01*
X721472D01*
X721304Y561119D01*
X722283Y561381D01*
X724341Y562569D01*
X726021Y564249D01*
X727209Y566307D01*
X727824Y568602D01*
Y570978D01*
X727209Y573273D01*
X726021Y575331D01*
X724341Y577011D01*
X722283Y578199D01*
X719988Y578814D01*
X717612D01*
X715317Y578199D01*
X713259Y577011D01*
X711579Y575331D01*
X710391Y573273D01*
X709776Y570978D01*
Y568602D01*
X710391Y566307D01*
X711579Y564249D01*
X713259Y562569D01*
X715317Y561381D01*
X716295Y561119D01*
X716128Y559849D01*
X696072D01*
X695904Y561119D01*
X696883Y561381D01*
X698941Y562569D01*
X700621Y564249D01*
X701809Y566307D01*
X702424Y568602D01*
Y570978D01*
X701809Y573273D01*
X700621Y575331D01*
X698941Y577011D01*
X696883Y578199D01*
X694588Y578814D01*
X692212D01*
X689917Y578199D01*
X687859Y577011D01*
X686179Y575331D01*
X684991Y573273D01*
X684376Y570978D01*
Y568602D01*
X684991Y566307D01*
X686179Y564249D01*
X687859Y562569D01*
X689917Y561381D01*
X690895Y561119D01*
X690728Y559849D01*
X670672D01*
X670505Y561119D01*
X671483Y561381D01*
X673541Y562569D01*
X675221Y564249D01*
X676409Y566307D01*
X677024Y568602D01*
Y570978D01*
X676409Y573273D01*
X675221Y575331D01*
X673541Y577011D01*
X671483Y578199D01*
X669188Y578814D01*
X666812D01*
X664517Y578199D01*
X662459Y577011D01*
X660779Y575331D01*
X659591Y573273D01*
X658976Y570978D01*
Y568602D01*
X659591Y566307D01*
X660779Y564249D01*
X662459Y562569D01*
X664517Y561381D01*
X665496Y561119D01*
X665328Y559849D01*
X645272D01*
X645105Y561119D01*
X646083Y561381D01*
X648141Y562569D01*
X649821Y564249D01*
X651009Y566307D01*
X651624Y568602D01*
Y570978D01*
X651009Y573273D01*
X649821Y575331D01*
X648141Y577011D01*
X646083Y578199D01*
X643788Y578814D01*
X641412D01*
X639117Y578199D01*
X637059Y577011D01*
X635379Y575331D01*
X634191Y573273D01*
X633576Y570978D01*
Y568602D01*
X634191Y566307D01*
X635379Y564249D01*
X637059Y562569D01*
X639117Y561381D01*
X640096Y561119D01*
X639928Y559849D01*
X619872D01*
X619705Y561119D01*
X620683Y561381D01*
X622741Y562569D01*
X624421Y564249D01*
X625609Y566307D01*
X626224Y568602D01*
Y570978D01*
X625609Y573273D01*
X624421Y575331D01*
X622741Y577011D01*
X620683Y578199D01*
X620049Y578369D01*
Y587020D01*
X625180Y592151D01*
X1175674D01*
X1176164Y590881D01*
X1175432Y589114D01*
Y587016D01*
X1176235Y585077D01*
X1177718Y583594D01*
X1179657Y582791D01*
X1181755D01*
X1183693Y583594D01*
X1185177Y585077D01*
X1185234Y585216D01*
X1206420D01*
X1206513Y584993D01*
X1207997Y583509D01*
X1209935Y582706D01*
X1212033D01*
X1213971Y583509D01*
X1215455Y584993D01*
X1216258Y586931D01*
Y589029D01*
X1215455Y590968D01*
X1214541Y591881D01*
X1215068Y593151D01*
X1316000D01*
X1316000Y593151D01*
X1317090Y593368D01*
X1318014Y593986D01*
X1342014Y617986D01*
X1342632Y618910D01*
X1342849Y620000D01*
X1342849Y620000D01*
Y781000D01*
X1342632Y782090D01*
X1342014Y783014D01*
X1342014Y783014D01*
X1337014Y788014D01*
X1336090Y788632D01*
X1335000Y788849D01*
X1335000Y788849D01*
X1291000D01*
X1291000Y788849D01*
X1289910Y788632D01*
X1288986Y788014D01*
X1283820Y782849D01*
X1252851D01*
X1252829Y782881D01*
X1253487Y784151D01*
X1261000D01*
X1261000Y784151D01*
X1262090Y784368D01*
X1263014Y784986D01*
X1273014Y794986D01*
X1273014Y794986D01*
X1273632Y795910D01*
X1273849Y797000D01*
Y811820D01*
X1280180Y818151D01*
X1297897D01*
X1298423Y816881D01*
X1297529Y815987D01*
X1296726Y814049D01*
Y811951D01*
X1297529Y810013D01*
X1299012Y808529D01*
X1300951Y807726D01*
X1303049D01*
X1304987Y808529D01*
X1306471Y810013D01*
X1306529Y810151D01*
X1310988D01*
X1311466Y808881D01*
X1310726Y807094D01*
Y804996D01*
X1311529Y803057D01*
X1313013Y801574D01*
X1314951Y800771D01*
X1317049D01*
X1317188Y800828D01*
X1323030Y794986D01*
X1323031Y794986D01*
X1323955Y794368D01*
X1325045Y794151D01*
X1437820D01*
X1441151Y790820D01*
Y606180D01*
X1429820Y594849D01*
X1427599D01*
X1427229Y595568D01*
X1427148Y596119D01*
X1439014Y607986D01*
X1439014Y607986D01*
X1439632Y608910D01*
X1439849Y610000D01*
Y676000D01*
X1439849Y676000D01*
X1439632Y677090D01*
X1439014Y678014D01*
X1439014Y678014D01*
X1431014Y686014D01*
X1430090Y686632D01*
X1429000Y686849D01*
X1429000Y686849D01*
X1397529D01*
X1397471Y686988D01*
X1395988Y688471D01*
X1394049Y689274D01*
X1391951D01*
X1390013Y688471D01*
X1388529Y686988D01*
X1387726Y685049D01*
Y682951D01*
X1388529Y681012D01*
X1390013Y679529D01*
X1391951Y678726D01*
X1394049D01*
X1395988Y679529D01*
X1397471Y681012D01*
X1397529Y681151D01*
X1427820D01*
X1434151Y674820D01*
Y611180D01*
X1423820Y600849D01*
X1342000D01*
X1342000Y600849D01*
X1340910Y600632D01*
X1339986Y600014D01*
X1339986Y600014D01*
X1311820Y571849D01*
X848000D01*
X846910Y571632D01*
X845986Y571014D01*
X845986Y571014D01*
X825820Y550849D01*
X569000D01*
X569000Y550849D01*
X567910Y550632D01*
X566986Y550014D01*
X566986Y550014D01*
X564386Y547414D01*
X563768Y546490D01*
X563551Y545400D01*
X563551Y545400D01*
Y539579D01*
X562917Y539409D01*
X560859Y538221D01*
X559179Y536541D01*
X557991Y534483D01*
X557376Y532188D01*
Y529812D01*
X557991Y527517D01*
X559179Y525459D01*
X560859Y523779D01*
X562917Y522591D01*
X565212Y521976D01*
X567588D01*
X569883Y522591D01*
X571941Y523779D01*
X573621Y525459D01*
X574809Y527517D01*
X575424Y529812D01*
Y532188D01*
X574809Y534483D01*
X573621Y536541D01*
X571941Y538221D01*
X569883Y539409D01*
X569249Y539579D01*
Y544220D01*
X570180Y545151D01*
X827000D01*
X827000Y545151D01*
X828090Y545368D01*
X829014Y545986D01*
X849180Y566151D01*
X1313000D01*
X1313000Y566151D01*
X1314090Y566368D01*
X1315014Y566986D01*
X1343180Y595151D01*
X1344401D01*
X1344771Y594432D01*
X1344852Y593881D01*
X1313820Y562849D01*
X849000D01*
X849000Y562849D01*
X847910Y562632D01*
X846986Y562014D01*
X846986Y562014D01*
X843986Y559014D01*
X843368Y558090D01*
X843151Y557000D01*
X843151Y557000D01*
Y553529D01*
X843012Y553471D01*
X841529Y551987D01*
X840726Y550049D01*
Y547951D01*
X841529Y546012D01*
X843012Y544529D01*
X844951Y543726D01*
X847049D01*
X848988Y544529D01*
X850471Y546012D01*
X851274Y547951D01*
Y550049D01*
X850471Y551987D01*
X848988Y553471D01*
X848849Y553529D01*
Y555820D01*
X850180Y557151D01*
X1315000D01*
X1315000Y557151D01*
X1316090Y557368D01*
X1317014Y557986D01*
X1348180Y589151D01*
X1355650D01*
X1356035Y587881D01*
X1355486Y587514D01*
X1355486Y587514D01*
X1317820Y549849D01*
X875529D01*
X875471Y549987D01*
X873988Y551471D01*
X872049Y552274D01*
X869951D01*
X868012Y551471D01*
X866529Y549987D01*
X865726Y548049D01*
Y545951D01*
X866529Y544012D01*
X868012Y542529D01*
X869951Y541726D01*
X872049D01*
X873988Y542529D01*
X875471Y544012D01*
X875529Y544151D01*
X1319000D01*
X1319000Y544151D01*
X1320090Y544368D01*
X1321014Y544986D01*
X1358680Y582651D01*
X1377853D01*
X1378379Y581381D01*
X1377529Y580532D01*
X1376726Y578593D01*
Y576495D01*
X1377529Y574557D01*
X1379012Y573073D01*
X1379022Y573069D01*
Y563279D01*
X1378883Y563221D01*
X1377399Y561738D01*
X1376596Y559799D01*
Y557701D01*
X1377399Y555763D01*
X1378883Y554279D01*
X1380821Y553476D01*
X1382919D01*
X1384858Y554279D01*
X1386341Y555763D01*
X1387144Y557701D01*
Y559799D01*
X1386341Y561738D01*
X1384858Y563221D01*
X1384719Y563279D01*
Y572962D01*
X1384987Y573073D01*
X1386471Y574557D01*
X1387274Y576495D01*
Y578593D01*
X1386471Y580532D01*
X1385621Y581381D01*
X1386147Y582651D01*
X1440500D01*
X1440500Y582651D01*
X1441590Y582868D01*
X1442514Y583486D01*
X1454881Y595853D01*
X1455432Y595771D01*
X1456151Y595401D01*
Y542180D01*
X1439820Y525849D01*
X1172548D01*
Y526113D01*
X1171745Y528051D01*
X1170262Y529535D01*
X1168323Y530338D01*
X1166225D01*
X1164287Y529535D01*
X1162803Y528051D01*
X1162000Y526113D01*
Y524015D01*
X1162803Y522076D01*
X1164287Y520593D01*
X1165431Y520119D01*
X1165179Y518849D01*
X1161000D01*
X1161000Y518849D01*
X1159910Y518632D01*
X1158986Y518014D01*
X1158986Y518014D01*
X1147986Y507014D01*
X1147368Y506090D01*
X1147151Y505000D01*
X1147151Y505000D01*
Y487524D01*
X1142976D01*
Y470476D01*
X1156024D01*
Y487524D01*
X1152849D01*
Y503820D01*
X1162180Y513151D01*
X1444000D01*
X1444000Y513151D01*
X1445090Y513368D01*
X1446014Y513986D01*
X1468881Y536852D01*
X1469432Y536771D01*
X1470151Y536401D01*
Y533180D01*
X1434986Y498014D01*
X1434368Y497090D01*
X1434151Y496000D01*
X1434151Y496000D01*
Y357180D01*
X1425820Y348849D01*
X1301180D01*
X1289852Y360177D01*
X1290338Y361350D01*
X1320000D01*
X1321166Y361834D01*
X1321650Y363000D01*
Y374923D01*
X1399622D01*
X1400986Y373560D01*
X1402924Y372757D01*
X1405022D01*
X1406961Y373560D01*
X1408444Y375044D01*
X1409247Y376982D01*
Y379080D01*
X1408444Y381019D01*
X1406961Y382502D01*
X1405022Y383305D01*
X1402924D01*
X1400986Y382502D01*
X1399622Y381139D01*
X1321650D01*
Y441000D01*
X1321166Y442166D01*
X1320000Y442650D01*
X1173599D01*
Y448476D01*
X1177274D01*
Y465524D01*
X1164226D01*
Y448476D01*
X1167901D01*
Y442650D01*
X1147493D01*
X1147011Y442450D01*
X1146504Y442320D01*
X1145535Y441594D01*
X1145472Y441488D01*
X1145358Y441440D01*
X1145158Y440958D01*
X1145147Y440940D01*
X1143720Y440604D01*
X1142849Y441137D01*
Y448476D01*
X1146524D01*
Y465524D01*
X1133476D01*
Y448476D01*
X1137151D01*
Y441137D01*
X1136281Y440604D01*
X1134853Y440940D01*
X1134842Y440958D01*
X1134642Y441440D01*
X1134528Y441488D01*
X1134465Y441594D01*
X1133496Y442320D01*
X1132990Y442450D01*
X1132507Y442650D01*
X1129493D01*
X1129011Y442450D01*
X1128504Y442320D01*
X1127535Y441594D01*
X1127472Y441488D01*
X1127358Y441440D01*
X1127158Y440958D01*
X1126891Y440508D01*
X1125672Y440274D01*
X1115476D01*
Y436791D01*
X1101704D01*
X1100791Y437704D01*
Y451185D01*
X1105059D01*
Y467294D01*
X1086941D01*
Y465286D01*
X1061774D01*
Y476151D01*
X1086941D01*
Y470707D01*
X1105059D01*
Y476151D01*
X1123976D01*
Y470476D01*
X1137024D01*
Y487524D01*
X1123976D01*
Y481849D01*
X1105059D01*
Y486815D01*
X1086941D01*
Y481849D01*
X1061774D01*
Y486524D01*
X1044226D01*
Y469976D01*
Y466666D01*
X1039517D01*
X1038049Y467274D01*
X1035951D01*
X1034013Y466471D01*
X1032529Y464987D01*
X1031726Y463049D01*
Y460951D01*
X1032529Y459012D01*
X1034013Y457529D01*
X1035951Y456726D01*
X1038049D01*
X1038913Y457084D01*
X1044226D01*
Y453476D01*
X1061774D01*
Y455704D01*
X1086941D01*
Y451185D01*
X1091209D01*
Y442650D01*
X689742D01*
X689452Y442530D01*
X689139Y442536D01*
X688892Y442298D01*
X688575Y442166D01*
X688455Y441877D01*
X688230Y441660D01*
X687909Y440925D01*
X687904Y440684D01*
X687785Y440475D01*
X687055Y439808D01*
X686502Y439699D01*
X685065D01*
X683338Y438984D01*
X682016Y437662D01*
X681521Y436465D01*
X680146D01*
X679650Y437662D01*
X678328Y438984D01*
X676601Y439699D01*
X674732D01*
X673005Y438984D01*
X671683Y437662D01*
X671187Y436465D01*
X669813D01*
X669317Y437662D01*
X667995Y438984D01*
X666268Y439699D01*
X664399D01*
X662672Y438984D01*
X661350Y437662D01*
X660854Y436465D01*
X659479D01*
X658984Y437662D01*
X657662Y438984D01*
X655935Y439699D01*
X654065D01*
X652338Y438984D01*
X651016Y437662D01*
X650521Y436465D01*
X649146D01*
X648650Y437662D01*
X647328Y438984D01*
X645601Y439699D01*
X643732D01*
X642005Y438984D01*
X640683Y437662D01*
X640187Y436465D01*
X638813D01*
X638317Y437662D01*
X636995Y438984D01*
X635268Y439699D01*
X633399D01*
X631672Y438984D01*
X630350Y437662D01*
X629854Y436465D01*
X628479D01*
X627984Y437662D01*
X626662Y438984D01*
X624935Y439699D01*
X623065D01*
X621338Y438984D01*
X620016Y437662D01*
X619301Y435935D01*
Y434065D01*
X619571Y433414D01*
X619577Y433301D01*
X618850Y431845D01*
X618369Y431646D01*
X618137Y431414D01*
X617834Y431288D01*
X617708Y430985D01*
X617476Y430753D01*
Y430425D01*
X617350Y430122D01*
Y363000D01*
X617249Y362849D01*
X388180D01*
X344849Y406180D01*
Y590471D01*
X344987Y590529D01*
X346471Y592012D01*
X347274Y593951D01*
Y596049D01*
X346471Y597988D01*
X344987Y599471D01*
X343049Y600274D01*
X340951D01*
X339012Y599471D01*
X337529Y597988D01*
X336726Y596049D01*
Y593951D01*
X337529Y592012D01*
X339012Y590529D01*
X339151Y590471D01*
Y405000D01*
X339151Y405000D01*
X339368Y403910D01*
X339986Y402986D01*
X383853Y359119D01*
X383326Y357849D01*
X356180D01*
X331849Y382180D01*
Y677820D01*
X355151Y701122D01*
X544532D01*
X544590Y700984D01*
X546073Y699500D01*
X548012Y698697D01*
X550110D01*
X552048Y699500D01*
X553532Y700984D01*
X554335Y702922D01*
Y705020D01*
X553532Y706958D01*
X552048Y708442D01*
X550110Y709245D01*
X548012D01*
X546073Y708442D01*
X544590Y706958D01*
X544532Y706820D01*
X353971D01*
X353971Y706820D01*
X352881Y706603D01*
X351957Y705985D01*
X351956Y705985D01*
X326986Y681014D01*
X326368Y680090D01*
X326151Y679000D01*
X326151Y679000D01*
Y381000D01*
X326151Y381000D01*
X326368Y379910D01*
X326986Y378986D01*
X352986Y352986D01*
X352986Y352986D01*
X353910Y352368D01*
X355000Y352151D01*
X355000Y352151D01*
X1277820D01*
X1293986Y335986D01*
X1293986Y335986D01*
X1294910Y335368D01*
X1296000Y335151D01*
X1431000D01*
X1431000Y335151D01*
X1432090Y335368D01*
X1433014Y335986D01*
X1443268Y346239D01*
X1444441Y345753D01*
Y325041D01*
X1443268Y324555D01*
X1442975Y324847D01*
X1441037Y325650D01*
X1438939D01*
X1437000Y324847D01*
X1436261Y324108D01*
X994351D01*
X992988Y325471D01*
X991049Y326274D01*
X988951D01*
X987012Y325471D01*
X985529Y323988D01*
X984726Y322049D01*
Y319951D01*
X985529Y318013D01*
X987012Y316529D01*
X988951Y315726D01*
X991049D01*
X992988Y316529D01*
X994351Y317892D01*
X1435308D01*
X1435517Y317388D01*
X1437000Y315905D01*
X1438939Y315102D01*
X1441037D01*
X1442975Y315905D01*
X1443268Y316197D01*
X1444441Y315711D01*
Y132470D01*
X1418820Y106849D01*
X1012000D01*
X1010910Y106632D01*
X1009986Y106014D01*
X1009986Y106014D01*
X980986Y77014D01*
X980368Y76090D01*
X980151Y75000D01*
X980151Y75000D01*
Y70815D01*
X973941D01*
Y54707D01*
X992059D01*
Y70815D01*
X985849D01*
Y73820D01*
X1013180Y101151D01*
X1420000D01*
X1420000Y101151D01*
X1421090Y101368D01*
X1422014Y101986D01*
X1449304Y129276D01*
X1449304Y129276D01*
X1449922Y130200D01*
X1450139Y131290D01*
X1450139Y131290D01*
Y471110D01*
X1485014Y505986D01*
X1485014Y505986D01*
X1485632Y506910D01*
X1485849Y508000D01*
Y836000D01*
X1485849Y836000D01*
X1485632Y837090D01*
X1485014Y838014D01*
X1485014Y838014D01*
X1477148Y845881D01*
X1477229Y846432D01*
X1477599Y847151D01*
X1483820D01*
X1490151Y840820D01*
Y507180D01*
X1455986Y473014D01*
X1455368Y472090D01*
X1455151Y471000D01*
X1455151Y471000D01*
Y106180D01*
X1419820Y70849D01*
X1258054D01*
Y78059D01*
X1241946D01*
Y59941D01*
X1258054D01*
Y65151D01*
X1421000D01*
X1421000Y65151D01*
X1422090Y65368D01*
X1423014Y65986D01*
X1460014Y102986D01*
X1460632Y103910D01*
X1460849Y105000D01*
X1460849Y105000D01*
Y469820D01*
X1495014Y503986D01*
X1495014Y503986D01*
X1495632Y504910D01*
X1495849Y506000D01*
X1495849Y506000D01*
Y842000D01*
X1495849Y842000D01*
X1495632Y843090D01*
X1495014Y844014D01*
X1495014Y844014D01*
X1487014Y852014D01*
X1486090Y852632D01*
X1485000Y852849D01*
X1485000Y852849D01*
X1334404D01*
X1333918Y854022D01*
X1334332Y854437D01*
X1335282Y856730D01*
X1322718D01*
X1323668Y854437D01*
X1324082Y854022D01*
X1323596Y852849D01*
X1243000D01*
X1241910Y852632D01*
X1240986Y852014D01*
X1240986Y852014D01*
X1238986Y850014D01*
X1238368Y849090D01*
X1238151Y848000D01*
X1238151Y848000D01*
Y824180D01*
X1235244Y821273D01*
X1231146D01*
X1231023Y821456D01*
X1231029Y821713D01*
X1231561Y822938D01*
X1232988Y823529D01*
X1234471Y825013D01*
X1235274Y826951D01*
Y829049D01*
X1234471Y830987D01*
X1232988Y832471D01*
X1232849Y832529D01*
Y854820D01*
X1241180Y863151D01*
X1323596D01*
X1324082Y861978D01*
X1323668Y861563D01*
X1322718Y859270D01*
X1335282D01*
X1334332Y861563D01*
X1333918Y861978D01*
X1334404Y863151D01*
X1480820D01*
X1498151Y845820D01*
Y504180D01*
X1467296Y473324D01*
X1466678Y472400D01*
X1466461Y471310D01*
X1466461Y471310D01*
Y446527D01*
X1466322Y446470D01*
X1464839Y444986D01*
X1464036Y443048D01*
Y440950D01*
X1464839Y439011D01*
X1466322Y437528D01*
X1468261Y436725D01*
X1470359D01*
X1472298Y437528D01*
X1473781Y439011D01*
X1474584Y440950D01*
Y443048D01*
X1473781Y444986D01*
X1472298Y446470D01*
X1472159Y446527D01*
Y470130D01*
X1503014Y500986D01*
X1503014Y500986D01*
X1503632Y501910D01*
X1503849Y503000D01*
X1503849Y503000D01*
Y847000D01*
X1503632Y848090D01*
X1503014Y849014D01*
X1503014Y849015D01*
X1484014Y868014D01*
X1483090Y868632D01*
X1482000Y868849D01*
X1482000Y868849D01*
X1268599D01*
X1268229Y869568D01*
X1268148Y870119D01*
X1270812Y872783D01*
X1270951Y872726D01*
X1273049D01*
X1274987Y873529D01*
X1276471Y875013D01*
X1277274Y876951D01*
Y879049D01*
X1276471Y880987D01*
X1274987Y882471D01*
X1273049Y883274D01*
D02*
G37*
G36*
X1891598Y865324D02*
Y860312D01*
X1896610D01*
X1895661Y862605D01*
X1893891Y864375D01*
X1891598Y865324D01*
D02*
G37*
G36*
X1889058D02*
X1886765Y864375D01*
X1884996Y862605D01*
X1884046Y860312D01*
X1889058D01*
Y865324D01*
D02*
G37*
G36*
X110023Y874274D02*
X107977D01*
X105999Y873744D01*
X104227Y872721D01*
X102779Y871273D01*
X101756Y869501D01*
X101226Y867523D01*
Y865477D01*
X101756Y863499D01*
X102779Y861727D01*
X104227Y860279D01*
X105999Y859256D01*
X107977Y858726D01*
X110023D01*
X112001Y859256D01*
X113773Y860279D01*
X115221Y861727D01*
X116244Y863499D01*
X116774Y865477D01*
Y867523D01*
X116244Y869501D01*
X115221Y871273D01*
X113773Y872721D01*
X112001Y873744D01*
X110023Y874274D01*
D02*
G37*
G36*
X889049Y858274D02*
X886951D01*
X885013Y857471D01*
X883529Y855987D01*
X883471Y855849D01*
X608000D01*
X608000Y855849D01*
X606910Y855632D01*
X605986Y855014D01*
X605986Y855014D01*
X598986Y848014D01*
X598368Y847090D01*
X598151Y846000D01*
X598151Y846000D01*
Y838529D01*
X598013Y838471D01*
X596529Y836988D01*
X596471Y836849D01*
X594180D01*
X587014Y844014D01*
X586090Y844632D01*
X585000Y844849D01*
X585000Y844849D01*
X298000D01*
X296910Y844632D01*
X295986Y844014D01*
X295986Y844014D01*
X293772Y841801D01*
X293155Y840877D01*
X292938Y839786D01*
X292938Y839786D01*
Y838642D01*
X292799Y838585D01*
X291315Y837101D01*
X290512Y835163D01*
Y833064D01*
X291315Y831126D01*
X292799Y829642D01*
X294737Y828839D01*
X296835D01*
X298774Y829642D01*
X300257Y831126D01*
X301060Y833064D01*
Y835163D01*
X300257Y837101D01*
X299477Y837881D01*
X300003Y839151D01*
X317847D01*
X318182Y838355D01*
X318236Y837881D01*
X317016Y836662D01*
X316301Y834935D01*
Y833065D01*
X317016Y831338D01*
X318338Y830016D01*
X320065Y829301D01*
X321935D01*
X323662Y830016D01*
X324984Y831338D01*
X325699Y833065D01*
Y834935D01*
X324984Y836662D01*
X323764Y837881D01*
X323818Y838355D01*
X324154Y839151D01*
X330846D01*
X331182Y838355D01*
X331236Y837881D01*
X330016Y836662D01*
X329301Y834935D01*
Y833065D01*
X330016Y831338D01*
X331338Y830016D01*
X333065Y829301D01*
X334935D01*
X336662Y830016D01*
X337984Y831338D01*
X338699Y833065D01*
Y834935D01*
X337984Y836662D01*
X336764Y837881D01*
X336818Y838355D01*
X337154Y839151D01*
X341847D01*
X342182Y838355D01*
X342236Y837881D01*
X341016Y836662D01*
X340301Y834935D01*
Y833065D01*
X341016Y831338D01*
X342338Y830016D01*
X344065Y829301D01*
X345935D01*
X347662Y830016D01*
X348984Y831338D01*
X349699Y833065D01*
Y834935D01*
X348984Y836662D01*
X347764Y837881D01*
X347818Y838355D01*
X348153Y839151D01*
X583820D01*
X590986Y831986D01*
X590986Y831986D01*
X591910Y831368D01*
X593000Y831151D01*
X593000Y831151D01*
X596471D01*
X596529Y831012D01*
X598013Y829529D01*
X599951Y828726D01*
X602049D01*
X603988Y829529D01*
X605471Y831012D01*
X606274Y832951D01*
Y835049D01*
X605471Y836988D01*
X603988Y838471D01*
X603849Y838529D01*
Y844820D01*
X609180Y850151D01*
X883471D01*
X883529Y850013D01*
X885013Y848529D01*
X886951Y847726D01*
X889049D01*
X890987Y848529D01*
X892471Y850013D01*
X893274Y851951D01*
Y854049D01*
X892471Y855987D01*
X890987Y857471D01*
X889049Y858274D01*
D02*
G37*
G36*
X1896610Y857772D02*
X1891598D01*
Y852760D01*
X1893891Y853710D01*
X1895661Y855479D01*
X1896610Y857772D01*
D02*
G37*
G36*
X1889058D02*
X1884046D01*
X1884996Y855479D01*
X1886765Y853710D01*
X1889058Y852760D01*
Y857772D01*
D02*
G37*
G36*
X898000Y888849D02*
X898000Y888849D01*
X139000D01*
X137910Y888632D01*
X136986Y888014D01*
X136986Y888014D01*
X132986Y884014D01*
X132368Y883090D01*
X132151Y882000D01*
X132151Y882000D01*
Y828529D01*
X132013Y828471D01*
X130529Y826988D01*
X129726Y825049D01*
Y822951D01*
X130529Y821012D01*
X132013Y819529D01*
X133951Y818726D01*
X136049D01*
X137987Y819529D01*
X139471Y821012D01*
X140274Y822951D01*
Y825049D01*
X139471Y826988D01*
X137987Y828471D01*
X137849Y828529D01*
Y880820D01*
X140180Y883151D01*
X896820D01*
X902202Y877769D01*
Y860925D01*
X902063Y860867D01*
X900580Y859383D01*
X899777Y857445D01*
Y855347D01*
X900580Y853409D01*
X902063Y851925D01*
X904002Y851122D01*
X906100D01*
X908038Y851925D01*
X909522Y853409D01*
X910325Y855347D01*
Y857445D01*
X909522Y859383D01*
X908038Y860867D01*
X907900Y860925D01*
Y879000D01*
X907683Y880090D01*
X907065Y881014D01*
X906912Y881117D01*
X900014Y888014D01*
X899090Y888632D01*
X898000Y888849D01*
D02*
G37*
G36*
X321935Y825699D02*
X320065D01*
X318338Y824984D01*
X317016Y823662D01*
X316301Y821935D01*
Y820065D01*
X317016Y818338D01*
X318097Y817258D01*
X318240Y816500D01*
X318097Y815742D01*
X317016Y814662D01*
X316301Y812935D01*
Y811065D01*
X317016Y809338D01*
X318338Y808016D01*
X320065Y807301D01*
X321935D01*
X323662Y808016D01*
X324984Y809338D01*
X325699Y811065D01*
Y812935D01*
X324984Y814662D01*
X323904Y815742D01*
X323760Y816500D01*
X323904Y817258D01*
X324984Y818338D01*
X325699Y820065D01*
Y821935D01*
X324984Y823662D01*
X323662Y824984D01*
X321935Y825699D01*
D02*
G37*
G36*
X345935D02*
X344065D01*
X342338Y824984D01*
X341016Y823662D01*
X340301Y821935D01*
Y820065D01*
X341016Y818338D01*
X342338Y817016D01*
X343133Y816687D01*
Y815313D01*
X342338Y814984D01*
X341016Y813662D01*
X340301Y811935D01*
Y810065D01*
X341016Y808338D01*
X342338Y807016D01*
X344065Y806301D01*
X345935D01*
X347662Y807016D01*
X348984Y808338D01*
X349699Y810065D01*
Y811935D01*
X348984Y813662D01*
X347662Y814984D01*
X346867Y815313D01*
Y816687D01*
X347662Y817016D01*
X348984Y818338D01*
X349699Y820065D01*
Y821935D01*
X348984Y823662D01*
X347662Y824984D01*
X345935Y825699D01*
D02*
G37*
G36*
X334935D02*
X333065D01*
X331338Y824984D01*
X330016Y823662D01*
X329301Y821935D01*
Y820065D01*
X330016Y818338D01*
X331338Y817016D01*
X332133Y816687D01*
Y815313D01*
X331338Y814984D01*
X330016Y813662D01*
X329301Y811935D01*
Y810065D01*
X330016Y808338D01*
X331338Y807016D01*
X333065Y806301D01*
X334935D01*
X336662Y807016D01*
X337984Y808338D01*
X338699Y810065D01*
Y811935D01*
X337984Y813662D01*
X336662Y814984D01*
X335867Y815313D01*
Y816687D01*
X336662Y817016D01*
X337984Y818338D01*
X338699Y820065D01*
Y821935D01*
X337984Y823662D01*
X336662Y824984D01*
X334935Y825699D01*
D02*
G37*
G36*
X1822270Y811282D02*
Y806270D01*
X1827282D01*
X1826332Y808563D01*
X1824563Y810332D01*
X1822270Y811282D01*
D02*
G37*
G36*
X1819730D02*
X1817437Y810332D01*
X1815668Y808563D01*
X1814718Y806270D01*
X1819730D01*
Y811282D01*
D02*
G37*
G36*
X1827282Y803730D02*
X1822270D01*
Y798718D01*
X1824563Y799668D01*
X1826332Y801437D01*
X1827282Y803730D01*
D02*
G37*
G36*
X1819730D02*
X1814718D01*
X1815668Y801437D01*
X1817437Y799668D01*
X1819730Y798718D01*
Y803730D01*
D02*
G37*
G36*
X868774Y1013274D02*
X850226D01*
Y994726D01*
X856151D01*
Y947000D01*
X856151Y947000D01*
X856368Y945910D01*
X856986Y944986D01*
X867986Y933986D01*
X867986Y933986D01*
X868910Y933368D01*
X870000Y933151D01*
X870000Y933151D01*
X906820D01*
X913151Y926820D01*
Y840000D01*
X913151Y840000D01*
X913368Y838910D01*
X913986Y837986D01*
X945986Y805986D01*
X945986Y805986D01*
X946910Y805368D01*
X948000Y805151D01*
X948000Y805151D01*
X1082820D01*
X1086151Y801820D01*
Y770000D01*
X1086151Y770000D01*
X1086368Y768910D01*
X1086986Y767986D01*
X1091986Y762986D01*
X1091986Y762986D01*
X1092910Y762368D01*
X1094000Y762151D01*
X1128471D01*
X1128529Y762012D01*
X1130013Y760529D01*
X1131951Y759726D01*
X1134049D01*
X1135987Y760529D01*
X1137471Y762012D01*
X1138274Y763951D01*
Y766049D01*
X1137515Y767881D01*
X1137967Y769151D01*
X1139820D01*
X1141151Y767820D01*
Y744000D01*
X1141151Y744000D01*
X1141368Y742910D01*
X1141986Y741986D01*
X1148575Y735396D01*
X1148575Y735396D01*
X1148990Y735119D01*
X1148605Y733849D01*
X1105000D01*
X1103910Y733632D01*
X1102986Y733014D01*
X1102986Y733014D01*
X1061820Y691849D01*
X1049103D01*
X1048577Y693119D01*
X1049471Y694013D01*
X1050274Y695951D01*
Y698049D01*
X1049471Y699987D01*
X1047988Y701471D01*
X1046049Y702274D01*
X1043951D01*
X1042012Y701471D01*
X1040529Y699987D01*
X1040471Y699849D01*
X1036967D01*
X1036515Y701119D01*
X1037274Y702951D01*
Y705049D01*
X1036515Y706881D01*
X1036967Y708151D01*
X1039471D01*
X1039529Y708012D01*
X1041012Y706529D01*
X1042951Y705726D01*
X1045049D01*
X1046988Y706529D01*
X1048471Y708012D01*
X1049274Y709951D01*
Y712049D01*
X1048471Y713988D01*
X1046988Y715471D01*
X1045049Y716274D01*
X1042951D01*
X1041012Y715471D01*
X1039529Y713988D01*
X1039471Y713849D01*
X1036967D01*
X1036515Y715119D01*
X1037274Y716951D01*
Y719049D01*
X1036471Y720987D01*
X1034987Y722471D01*
X1033049Y723274D01*
X1030951D01*
X1029013Y722471D01*
X1027529Y720987D01*
X1027471Y720849D01*
X986404D01*
X985615Y722119D01*
X986282Y723730D01*
X973718D01*
X974385Y722119D01*
X973596Y720849D01*
X918967D01*
X918515Y722119D01*
X919274Y723951D01*
Y726049D01*
X918515Y727881D01*
X918967Y729151D01*
X973596D01*
X974385Y727881D01*
X973718Y726270D01*
X986282D01*
X985615Y727881D01*
X986404Y729151D01*
X1039471D01*
X1039529Y729013D01*
X1041012Y727529D01*
X1042951Y726726D01*
X1045049D01*
X1046988Y727529D01*
X1048471Y729013D01*
X1049274Y730951D01*
Y733049D01*
X1048471Y734987D01*
X1046988Y736471D01*
X1045049Y737274D01*
X1042951D01*
X1041012Y736471D01*
X1039529Y734987D01*
X1039471Y734849D01*
X1036967D01*
X1036515Y736119D01*
X1037274Y737951D01*
Y740049D01*
X1036471Y741988D01*
X1034987Y743471D01*
X1033997Y743881D01*
X1034250Y745151D01*
X1039471D01*
X1039529Y745013D01*
X1041012Y743529D01*
X1042951Y742726D01*
X1045049D01*
X1046988Y743529D01*
X1048471Y745013D01*
X1049274Y746951D01*
Y749049D01*
X1048471Y750987D01*
X1046988Y752471D01*
X1045049Y753274D01*
X1042951D01*
X1041012Y752471D01*
X1039529Y750987D01*
X1039471Y750849D01*
X1036103D01*
X1035577Y752119D01*
X1036471Y753012D01*
X1037274Y754951D01*
Y757049D01*
X1036471Y758988D01*
X1034987Y760471D01*
X1034235Y760783D01*
X1034488Y762053D01*
X1039432D01*
X1039490Y761914D01*
X1040973Y760431D01*
X1042912Y759628D01*
X1045010D01*
X1046948Y760431D01*
X1048432Y761914D01*
X1049235Y763852D01*
Y765951D01*
X1048432Y767889D01*
X1047440Y768881D01*
X1047966Y770151D01*
X1051471D01*
X1051529Y770013D01*
X1053012Y768529D01*
X1054951Y767726D01*
X1057049D01*
X1058988Y768529D01*
X1060471Y770013D01*
X1061274Y771951D01*
Y774049D01*
X1060471Y775987D01*
X1058988Y777471D01*
X1057049Y778274D01*
X1054951D01*
X1053012Y777471D01*
X1051529Y775987D01*
X1051471Y775849D01*
X1030103D01*
X1029577Y777119D01*
X1030471Y778012D01*
X1031274Y779951D01*
Y782049D01*
X1030471Y783988D01*
X1029577Y784881D01*
X1030103Y786151D01*
X1036471D01*
X1036529Y786012D01*
X1038012Y784529D01*
X1039951Y783726D01*
X1042049D01*
X1043988Y784529D01*
X1045471Y786012D01*
X1046274Y787951D01*
Y790049D01*
X1045471Y791988D01*
X1043988Y793471D01*
X1042049Y794274D01*
X1039951D01*
X1038012Y793471D01*
X1036529Y791988D01*
X1036471Y791849D01*
X1031103D01*
X1030577Y793119D01*
X1031471Y794013D01*
X1032274Y795951D01*
Y798049D01*
X1031471Y799987D01*
X1029987Y801471D01*
X1028049Y802274D01*
X1025951D01*
X1024013Y801471D01*
X1022529Y799987D01*
X1022471Y799849D01*
X895599D01*
X895229Y800568D01*
X895147Y801119D01*
X903014Y808986D01*
X903014Y808986D01*
X903632Y809910D01*
X903849Y811000D01*
X903849Y811000D01*
Y839471D01*
X903988Y839529D01*
X905471Y841012D01*
X906274Y842951D01*
Y845049D01*
X905471Y846988D01*
X903988Y848471D01*
X902049Y849274D01*
X899951D01*
X898012Y848471D01*
X896529Y846988D01*
X895726Y845049D01*
Y842951D01*
X896529Y841012D01*
X898012Y839529D01*
X898151Y839471D01*
Y812180D01*
X891820Y805849D01*
X657000D01*
X657000Y805849D01*
X655910Y805632D01*
X654986Y805014D01*
X654986Y805014D01*
X640011Y790040D01*
X624307D01*
X624250Y790179D01*
X622766Y791662D01*
X620828Y792465D01*
X618730D01*
X616791Y791662D01*
X615308Y790179D01*
X615250Y790040D01*
X281989D01*
X274849Y797180D01*
Y802471D01*
X274988Y802529D01*
X276471Y804013D01*
X277274Y805951D01*
Y806901D01*
X278544Y807427D01*
X290986Y794986D01*
X290986Y794986D01*
X291910Y794368D01*
X293000Y794151D01*
X293000Y794151D01*
X598471D01*
X598529Y794013D01*
X600013Y792529D01*
X601951Y791726D01*
X604049D01*
X605988Y792529D01*
X607471Y794013D01*
X607529Y794151D01*
X641000D01*
X641000Y794151D01*
X642090Y794368D01*
X643014Y794986D01*
X657180Y809151D01*
X839000D01*
X839000Y809151D01*
X840090Y809368D01*
X841014Y809986D01*
X863180Y832151D01*
X871471D01*
X871529Y832012D01*
X873012Y830529D01*
X874951Y829726D01*
X877049D01*
X878988Y830529D01*
X880471Y832012D01*
X881274Y833951D01*
Y836049D01*
X880471Y837988D01*
X878988Y839471D01*
X877049Y840274D01*
X874951D01*
X873012Y839471D01*
X871529Y837988D01*
X871471Y837849D01*
X862000D01*
X860910Y837632D01*
X859986Y837014D01*
X859986Y837014D01*
X837820Y814849D01*
X664619D01*
X664093Y816119D01*
X664868Y816893D01*
X665583Y818620D01*
Y820490D01*
X665359Y821031D01*
X666208Y822301D01*
X666935D01*
X668662Y823016D01*
X669984Y824338D01*
X670699Y826065D01*
Y827935D01*
X669984Y829662D01*
X668662Y830984D01*
X666935Y831699D01*
X665872D01*
X664978Y831978D01*
X664699Y832872D01*
Y833935D01*
X663984Y835662D01*
X662662Y836984D01*
X660935Y837699D01*
X659065D01*
X657338Y836984D01*
X656258Y835903D01*
X655500Y835760D01*
X654742Y835903D01*
X653662Y836984D01*
X651935Y837699D01*
X650065D01*
X648338Y836984D01*
X647258Y835903D01*
X646500Y835760D01*
X645742Y835903D01*
X644662Y836984D01*
X642935Y837699D01*
X641065D01*
X639338Y836984D01*
X638016Y835662D01*
X637301Y833935D01*
Y832065D01*
X638016Y830338D01*
X638525Y829830D01*
X639322Y829000D01*
X638525Y828170D01*
X638016Y827662D01*
X637301Y825935D01*
Y824065D01*
X638016Y822338D01*
X639096Y821258D01*
X639240Y820500D01*
X639096Y819742D01*
X638016Y818662D01*
X637301Y816935D01*
Y815065D01*
X638016Y813338D01*
X639338Y812016D01*
X641065Y811301D01*
X642935D01*
X644662Y812016D01*
X645984Y813338D01*
X646699Y815065D01*
Y816200D01*
X647969Y816453D01*
X648016Y816338D01*
X649338Y815016D01*
X651065Y814301D01*
X652476D01*
X653050Y813079D01*
X639820Y799849D01*
X607529D01*
X607471Y799987D01*
X605988Y801471D01*
X604049Y802274D01*
X601951D01*
X600013Y801471D01*
X598529Y799987D01*
X598471Y799849D01*
X294180D01*
X280378Y813651D01*
Y825459D01*
X280516Y825516D01*
X282000Y827000D01*
X282803Y828938D01*
Y831037D01*
X282000Y832975D01*
X280516Y834459D01*
X278578Y835262D01*
X276480D01*
X274541Y834459D01*
X273058Y832975D01*
X272255Y831037D01*
Y828938D01*
X273058Y827000D01*
X274541Y825516D01*
X274680Y825459D01*
Y812973D01*
X273613Y812078D01*
X273566Y812060D01*
X273049Y812274D01*
X270951D01*
X269013Y811471D01*
X267529Y809987D01*
X266726Y808049D01*
Y805951D01*
X267529Y804013D01*
X269013Y802529D01*
X269151Y802471D01*
Y796000D01*
X269151Y796000D01*
X269368Y794910D01*
X269986Y793986D01*
X278794Y785177D01*
X278794Y785177D01*
X279719Y784559D01*
X280809Y784342D01*
X280809Y784342D01*
X615250D01*
X615308Y784204D01*
X616791Y782720D01*
X618730Y781917D01*
X620828D01*
X622766Y782720D01*
X624250Y784204D01*
X624307Y784342D01*
X641191D01*
X641191Y784342D01*
X642281Y784559D01*
X643206Y785177D01*
X657383Y799354D01*
X657538Y799363D01*
X657979Y798440D01*
X657974Y798003D01*
X654986Y795014D01*
X654368Y794090D01*
X654151Y793000D01*
X654151Y793000D01*
Y783529D01*
X654013Y783471D01*
X652529Y781988D01*
X651726Y780049D01*
Y777951D01*
X652529Y776012D01*
X654013Y774529D01*
X655951Y773726D01*
X658049D01*
X659987Y774529D01*
X661471Y776012D01*
X662274Y777951D01*
Y780049D01*
X661577Y781731D01*
X662654Y782451D01*
X663437Y781668D01*
X665730Y780718D01*
Y787000D01*
X667000D01*
Y788270D01*
X673282D01*
X672332Y790563D01*
X670563Y792332D01*
X669238Y792881D01*
X669491Y794151D01*
X1022471D01*
X1022529Y794013D01*
X1023423Y793119D01*
X1022897Y791849D01*
X884509D01*
X884343Y792014D01*
X883419Y792632D01*
X882329Y792849D01*
X882329Y792849D01*
X726000D01*
X726000Y792849D01*
X724910Y792632D01*
X723986Y792014D01*
X723986Y792014D01*
X716986Y785014D01*
X716368Y784090D01*
X716151Y783000D01*
X716151Y783000D01*
Y777529D01*
X716012Y777471D01*
X714529Y775987D01*
X713726Y774049D01*
Y771951D01*
X714529Y770013D01*
X715521Y769020D01*
X714995Y767750D01*
X652902D01*
X651811Y767533D01*
X650887Y766916D01*
X650887Y766916D01*
X639986Y756014D01*
X639368Y755090D01*
X639151Y754000D01*
X639151Y754000D01*
Y708529D01*
X639012Y708471D01*
X637529Y706988D01*
X636726Y705049D01*
Y702951D01*
X637485Y701119D01*
X637033Y699849D01*
X633962D01*
X632507Y701304D01*
X630568Y702107D01*
X628470D01*
X626532Y701304D01*
X625048Y699821D01*
X624245Y697882D01*
Y695784D01*
X625048Y693846D01*
X625273Y693621D01*
X624787Y692448D01*
X494695D01*
X494471Y692988D01*
X492988Y694471D01*
X491049Y695274D01*
X488951D01*
X487012Y694471D01*
X485529Y692988D01*
X484726Y691049D01*
Y688951D01*
X485529Y687012D01*
X487012Y685529D01*
X488951Y684726D01*
X491049D01*
X492988Y685529D01*
X494209Y686750D01*
X896278D01*
X896501Y686210D01*
X897985Y684727D01*
X899923Y683924D01*
X902021D01*
X903960Y684727D01*
X905443Y686210D01*
X906246Y688149D01*
Y690247D01*
X905443Y692185D01*
X904747Y692881D01*
X905274Y694151D01*
X1040471D01*
X1040529Y694013D01*
X1041423Y693119D01*
X1040897Y691849D01*
X927000D01*
X927000Y691849D01*
X925910Y691632D01*
X924986Y691014D01*
X924986Y691014D01*
X906820Y672849D01*
X893250D01*
X892997Y674119D01*
X893988Y674529D01*
X895471Y676012D01*
X896274Y677951D01*
Y680049D01*
X895471Y681988D01*
X893988Y683471D01*
X892049Y684274D01*
X889951D01*
X888012Y683471D01*
X886529Y681988D01*
X886471Y681849D01*
X519983D01*
X519934Y681966D01*
X518450Y683450D01*
X516512Y684253D01*
X514414D01*
X512475Y683450D01*
X510992Y681966D01*
X510189Y680028D01*
Y677930D01*
X510992Y675991D01*
X512475Y674508D01*
X514414Y673705D01*
X516512D01*
X518450Y674508D01*
X519934Y675991D01*
X520000Y676151D01*
X676033D01*
X676485Y674881D01*
X675726Y673049D01*
Y670951D01*
X676529Y669013D01*
X677923Y667619D01*
X677880Y667197D01*
X677543Y666349D01*
X506736D01*
X506471Y666988D01*
X504987Y668471D01*
X503049Y669274D01*
X500951D01*
X499012Y668471D01*
X497529Y666988D01*
X496726Y665049D01*
Y662951D01*
X497529Y661012D01*
X499012Y659529D01*
X500951Y658726D01*
X503049D01*
X504987Y659529D01*
X506110Y660651D01*
X529936D01*
X530422Y659478D01*
X530238Y659295D01*
X529436Y657356D01*
Y655258D01*
X530238Y653320D01*
X531722Y651836D01*
X533661Y651033D01*
X535759D01*
X537697Y651836D01*
X539012Y653151D01*
X892897D01*
X893423Y651881D01*
X892529Y650987D01*
X891726Y649049D01*
Y646951D01*
X892529Y645013D01*
X893923Y643619D01*
X893880Y643197D01*
X893543Y642349D01*
X610110D01*
X608988Y643471D01*
X607049Y644274D01*
X604951D01*
X603013Y643471D01*
X601529Y641988D01*
X600726Y640049D01*
Y637951D01*
X601529Y636012D01*
X603013Y634529D01*
X604003Y634119D01*
X603750Y632849D01*
X548000D01*
X548000Y632849D01*
X546910Y632632D01*
X545986Y632014D01*
X545986Y632014D01*
X538986Y625014D01*
X538368Y624090D01*
X538151Y623000D01*
X538151Y623000D01*
Y578369D01*
X537517Y578199D01*
X535459Y577011D01*
X533779Y575331D01*
X532591Y573273D01*
X531976Y570978D01*
Y568602D01*
X532591Y566307D01*
X533779Y564249D01*
X535459Y562569D01*
X537517Y561381D01*
X539812Y560766D01*
X542188D01*
X544483Y561381D01*
X546541Y562569D01*
X548221Y564249D01*
X549409Y566307D01*
X550024Y568602D01*
Y570978D01*
X549409Y573273D01*
X548221Y575331D01*
X546541Y577011D01*
X544483Y578199D01*
X543849Y578369D01*
Y621820D01*
X549180Y627151D01*
X943000D01*
X943000Y627151D01*
X944090Y627368D01*
X945014Y627986D01*
X950180Y633151D01*
X1136471D01*
X1136529Y633013D01*
X1138012Y631529D01*
X1139951Y630726D01*
X1142049D01*
X1143988Y631529D01*
X1145471Y633013D01*
X1146274Y634951D01*
Y637049D01*
X1145471Y638988D01*
X1143988Y640471D01*
X1142049Y641274D01*
X1139951D01*
X1138012Y640471D01*
X1136529Y638988D01*
X1136471Y638849D01*
X949000D01*
X949000Y638849D01*
X947910Y638632D01*
X946986Y638014D01*
X946986Y638014D01*
X941820Y632849D01*
X608250D01*
X607997Y634119D01*
X608988Y634529D01*
X610471Y636012D01*
X610736Y636651D01*
X927890D01*
X929013Y635529D01*
X930951Y634726D01*
X933049D01*
X934987Y635529D01*
X936471Y637012D01*
X937274Y638951D01*
Y641049D01*
X936471Y642988D01*
X935077Y644381D01*
X935119Y644803D01*
X935457Y645651D01*
X943890D01*
X945013Y644529D01*
X946951Y643726D01*
X949049D01*
X950987Y644529D01*
X952471Y646012D01*
X953274Y647951D01*
Y650049D01*
X952471Y651988D01*
X950987Y653471D01*
X949049Y654274D01*
X946951D01*
X945013Y653471D01*
X943529Y651988D01*
X943264Y651349D01*
X935603D01*
X935077Y652619D01*
X935471Y653012D01*
X936274Y654951D01*
Y657049D01*
X935471Y658988D01*
X935077Y659381D01*
X935603Y660651D01*
X943264D01*
X943529Y660013D01*
X945013Y658529D01*
X946951Y657726D01*
X949049D01*
X950987Y658529D01*
X952471Y660013D01*
X953274Y661951D01*
Y664049D01*
X952471Y665987D01*
X950987Y667471D01*
X949049Y668274D01*
X946951D01*
X945013Y667471D01*
X943890Y666349D01*
X909850D01*
X909465Y667619D01*
X910014Y667986D01*
X928180Y686151D01*
X1063000D01*
X1063000Y686151D01*
X1064090Y686368D01*
X1065014Y686986D01*
X1106180Y728151D01*
X1200549D01*
X1200662Y727879D01*
X1202146Y726396D01*
X1204084Y725593D01*
X1206182D01*
X1208121Y726396D01*
X1209604Y727879D01*
X1210407Y729818D01*
Y731916D01*
X1209837Y733292D01*
X1210556Y734562D01*
X1216409D01*
X1222986Y727986D01*
X1222986Y727986D01*
X1223910Y727368D01*
X1225000Y727151D01*
X1234471D01*
X1234529Y727012D01*
X1236012Y725529D01*
X1237951Y724726D01*
X1240049D01*
X1241988Y725529D01*
X1243471Y727012D01*
X1244274Y728951D01*
Y731049D01*
X1243471Y732988D01*
X1241988Y734471D01*
X1240049Y735274D01*
X1237951D01*
X1236012Y734471D01*
X1234529Y732988D01*
X1234471Y732849D01*
X1226180D01*
X1220147Y738881D01*
X1220674Y740151D01*
X1222726D01*
Y739951D01*
X1223529Y738012D01*
X1225013Y736529D01*
X1226951Y735726D01*
X1229049D01*
X1230987Y736529D01*
X1232471Y738012D01*
X1233274Y739951D01*
Y742049D01*
X1232471Y743988D01*
X1231577Y744881D01*
X1232103Y746151D01*
X1236471D01*
X1236529Y746012D01*
X1238012Y744529D01*
X1239951Y743726D01*
X1242049D01*
X1243988Y744529D01*
X1245471Y746012D01*
X1246274Y747951D01*
Y750049D01*
X1245471Y751988D01*
X1243988Y753471D01*
X1242049Y754274D01*
X1239951D01*
X1238012Y753471D01*
X1236529Y751988D01*
X1236471Y751849D01*
X1169180D01*
X1166849Y754180D01*
Y844000D01*
X1166849Y844000D01*
X1166632Y845090D01*
X1166014Y846014D01*
X1166014Y846014D01*
X1140014Y872014D01*
X1139090Y872632D01*
X1138000Y872849D01*
X1138000Y872849D01*
X935529D01*
X935471Y872988D01*
X933988Y874471D01*
X932049Y875274D01*
X929951D01*
X928012Y874471D01*
X926529Y872988D01*
X925726Y871049D01*
Y868951D01*
X926529Y867012D01*
X928012Y865529D01*
X929951Y864726D01*
X932049D01*
X933988Y865529D01*
X935471Y867012D01*
X935529Y867151D01*
X1038049D01*
X1038815Y865881D01*
X1038132Y864231D01*
X1050696D01*
X1050013Y865881D01*
X1050779Y867151D01*
X1136820D01*
X1161151Y842820D01*
Y753000D01*
X1161151Y753000D01*
X1161368Y751910D01*
X1161986Y750986D01*
X1165853Y747119D01*
X1165771Y746568D01*
X1165401Y745849D01*
X1159180D01*
X1155849Y749180D01*
Y779000D01*
X1155849Y779000D01*
X1155632Y780090D01*
X1155014Y781014D01*
X1155014Y781014D01*
X1151014Y785014D01*
X1150090Y785632D01*
X1149000Y785849D01*
X1149000Y785849D01*
X1131180D01*
X1125849Y791180D01*
Y840000D01*
X1125632Y841090D01*
X1125014Y842014D01*
X1125014Y842014D01*
X1121014Y846014D01*
X1120090Y846632D01*
X1119000Y846849D01*
X1119000Y846849D01*
X933529D01*
X933471Y846988D01*
X931988Y848471D01*
X930049Y849274D01*
X927951D01*
X926012Y848471D01*
X924529Y846988D01*
X923726Y845049D01*
Y842951D01*
X924529Y841012D01*
X926012Y839529D01*
X927951Y838726D01*
X929471D01*
X929997Y837456D01*
X929529Y836988D01*
X928726Y835049D01*
Y833099D01*
X928344Y832796D01*
X927553Y832476D01*
X918849Y841180D01*
Y851153D01*
X920119Y851679D01*
X920382Y851416D01*
X922320Y850613D01*
X924418D01*
X926357Y851416D01*
X927840Y852899D01*
X927898Y853038D01*
X1132933D01*
X1149151Y836820D01*
Y824529D01*
X1149013Y824471D01*
X1147529Y822988D01*
X1146726Y821049D01*
Y818951D01*
X1147529Y817012D01*
X1149013Y815529D01*
X1150951Y814726D01*
X1153049D01*
X1154987Y815529D01*
X1156471Y817012D01*
X1157274Y818951D01*
Y821049D01*
X1156471Y822988D01*
X1154987Y824471D01*
X1154849Y824529D01*
Y838000D01*
X1154849Y838000D01*
X1154632Y839090D01*
X1154014Y840014D01*
X1136127Y857901D01*
X1135203Y858519D01*
X1134113Y858736D01*
X1134113Y858736D01*
X1050743D01*
X1049998Y860006D01*
X1050696Y861691D01*
X1038132D01*
X1038830Y860006D01*
X1038085Y858736D01*
X927898D01*
X927840Y858875D01*
X926357Y860358D01*
X924418Y861161D01*
X922320D01*
X920382Y860358D01*
X920119Y860095D01*
X918849Y860621D01*
Y928000D01*
X918849Y928000D01*
X918632Y929090D01*
X918014Y930014D01*
X918014Y930014D01*
X910014Y938014D01*
X909090Y938632D01*
X908000Y938849D01*
X908000Y938849D01*
X871180D01*
X861849Y948180D01*
Y994726D01*
X868774D01*
Y1013274D01*
D02*
G37*
G36*
X692183Y786270D02*
Y781257D01*
X697195D01*
X696245Y783550D01*
X694476Y785320D01*
X692183Y786270D01*
D02*
G37*
G36*
X689643D02*
X687350Y785320D01*
X685581Y783550D01*
X684631Y781257D01*
X689643D01*
Y786270D01*
D02*
G37*
G36*
X673282Y785730D02*
X668270D01*
Y780718D01*
X670563Y781668D01*
X672332Y783437D01*
X673282Y785730D01*
D02*
G37*
G36*
X697195Y778717D02*
X692183D01*
Y773705D01*
X694476Y774655D01*
X696245Y776424D01*
X697195Y778717D01*
D02*
G37*
G36*
X689643D02*
X684631D01*
X685581Y776424D01*
X687350Y774655D01*
X689643Y773705D01*
Y778717D01*
D02*
G37*
G36*
X386270Y777282D02*
Y772270D01*
X391282D01*
X390332Y774563D01*
X388563Y776332D01*
X386270Y777282D01*
D02*
G37*
G36*
X383730D02*
X381437Y776332D01*
X379668Y774563D01*
X378718Y772270D01*
X383730D01*
Y777282D01*
D02*
G37*
G36*
X1631270Y771282D02*
Y766270D01*
X1636282D01*
X1635332Y768563D01*
X1633563Y770332D01*
X1631270Y771282D01*
D02*
G37*
G36*
X1628730D02*
X1626437Y770332D01*
X1624668Y768563D01*
X1623718Y766270D01*
X1628730D01*
Y771282D01*
D02*
G37*
G36*
X391282Y769730D02*
X386270D01*
Y764718D01*
X388563Y765668D01*
X390332Y767437D01*
X391282Y769730D01*
D02*
G37*
G36*
X383730D02*
X378718D01*
X379668Y767437D01*
X381437Y765668D01*
X383730Y764718D01*
Y769730D01*
D02*
G37*
G36*
X1636282Y763730D02*
X1631270D01*
Y758718D01*
X1633563Y759668D01*
X1635332Y761437D01*
X1636282Y763730D01*
D02*
G37*
G36*
X1628730D02*
X1623718D01*
X1624668Y761437D01*
X1626437Y759668D01*
X1628730Y758718D01*
Y763730D01*
D02*
G37*
G36*
X61270Y748282D02*
Y743270D01*
X66282D01*
X65332Y745563D01*
X63563Y747332D01*
X61270Y748282D01*
D02*
G37*
G36*
X58730D02*
X56437Y747332D01*
X54668Y745563D01*
X53718Y743270D01*
X58730D01*
Y748282D01*
D02*
G37*
G36*
X1828937Y745113D02*
Y740100D01*
X1833949D01*
X1833000Y742393D01*
X1831230Y744163D01*
X1828937Y745113D01*
D02*
G37*
G36*
X1826397D02*
X1824104Y744163D01*
X1822335Y742393D01*
X1821385Y740100D01*
X1826397D01*
Y745113D01*
D02*
G37*
G36*
X66282Y740730D02*
X61270D01*
Y735718D01*
X63563Y736668D01*
X65332Y738437D01*
X66282Y740730D01*
D02*
G37*
G36*
X58730D02*
X53718D01*
X54668Y738437D01*
X56437Y736668D01*
X58730Y735718D01*
Y740730D01*
D02*
G37*
G36*
X1833949Y737561D02*
X1828937D01*
Y732548D01*
X1831230Y733498D01*
X1833000Y735267D01*
X1833949Y737561D01*
D02*
G37*
G36*
X1826397D02*
X1821385D01*
X1822335Y735267D01*
X1824104Y733498D01*
X1826397Y732548D01*
Y737561D01*
D02*
G37*
G36*
X1656049Y809274D02*
X1653951D01*
X1652012Y808471D01*
X1650529Y806988D01*
X1649726Y805049D01*
Y802951D01*
X1650029Y802219D01*
X1649803Y801993D01*
X1649129Y800985D01*
X1648892Y799795D01*
Y739351D01*
X1647529Y737988D01*
X1646726Y736049D01*
Y733951D01*
X1647529Y732012D01*
X1649012Y730529D01*
X1650951Y729726D01*
X1653049D01*
X1654987Y730529D01*
X1656471Y732012D01*
X1657274Y733951D01*
Y736049D01*
X1656471Y737988D01*
X1655108Y739351D01*
Y798508D01*
X1655326Y798726D01*
X1656049D01*
X1657988Y799529D01*
X1659471Y801012D01*
X1660274Y802951D01*
Y805049D01*
X1659471Y806988D01*
X1657988Y808471D01*
X1656049Y809274D01*
D02*
G37*
G36*
X632207Y734092D02*
Y729080D01*
X637220D01*
X636270Y731373D01*
X634500Y733142D01*
X632207Y734092D01*
D02*
G37*
G36*
X629667D02*
X627374Y733142D01*
X625605Y731373D01*
X624655Y729080D01*
X629667D01*
Y734092D01*
D02*
G37*
G36*
X1669049Y808274D02*
X1666951D01*
X1665013Y807471D01*
X1663529Y805987D01*
X1662726Y804049D01*
Y801951D01*
X1663529Y800013D01*
X1664892Y798649D01*
Y738351D01*
X1663529Y736988D01*
X1662726Y735049D01*
Y732951D01*
X1663529Y731012D01*
X1665013Y729529D01*
X1666951Y728726D01*
X1669049D01*
X1670988Y729529D01*
X1672471Y731012D01*
X1673274Y732951D01*
Y735049D01*
X1672471Y736988D01*
X1671108Y738351D01*
Y798649D01*
X1672471Y800013D01*
X1673274Y801951D01*
Y804049D01*
X1672471Y805987D01*
X1670988Y807471D01*
X1669049Y808274D01*
D02*
G37*
G36*
X1595049Y767274D02*
X1592951D01*
X1591013Y766471D01*
X1589529Y764987D01*
X1588726Y763049D01*
Y760951D01*
X1589209Y759785D01*
Y735215D01*
X1588726Y734049D01*
Y731951D01*
X1589529Y730013D01*
X1591013Y728529D01*
X1592951Y727726D01*
X1595049D01*
X1596987Y728529D01*
X1598471Y730013D01*
X1599274Y731951D01*
Y734049D01*
X1598791Y735215D01*
Y759785D01*
X1599274Y760951D01*
Y763049D01*
X1598471Y764987D01*
X1596987Y766471D01*
X1595049Y767274D01*
D02*
G37*
G36*
X309778Y726884D02*
Y721872D01*
X314790D01*
X313840Y724165D01*
X312071Y725935D01*
X309778Y726884D01*
D02*
G37*
G36*
X307238D02*
X304945Y725935D01*
X303175Y724165D01*
X302225Y721872D01*
X307238D01*
Y726884D01*
D02*
G37*
G36*
X637220Y726540D02*
X632207D01*
Y721527D01*
X634500Y722477D01*
X636270Y724247D01*
X637220Y726540D01*
D02*
G37*
G36*
X629667D02*
X624655D01*
X625605Y724247D01*
X627374Y722477D01*
X629667Y721527D01*
Y726540D01*
D02*
G37*
G36*
X1288270Y720282D02*
Y715270D01*
X1293282D01*
X1292332Y717563D01*
X1290563Y719332D01*
X1288270Y720282D01*
D02*
G37*
G36*
X1285730D02*
X1283437Y719332D01*
X1281668Y717563D01*
X1280718Y715270D01*
X1285730D01*
Y720282D01*
D02*
G37*
G36*
X314790Y719332D02*
X309778D01*
Y714320D01*
X312071Y715270D01*
X313840Y717039D01*
X314790Y719332D01*
D02*
G37*
G36*
X307238D02*
X302225D01*
X303175Y717039D01*
X304945Y715270D01*
X307238Y714320D01*
Y719332D01*
D02*
G37*
G36*
X1293282Y712730D02*
X1288270D01*
Y707718D01*
X1290563Y708668D01*
X1292332Y710437D01*
X1293282Y712730D01*
D02*
G37*
G36*
X1285730D02*
X1280718D01*
X1281668Y710437D01*
X1283437Y708668D01*
X1285730Y707718D01*
Y712730D01*
D02*
G37*
G36*
X1071343Y685015D02*
Y680003D01*
X1076355D01*
X1075405Y682296D01*
X1073636Y684065D01*
X1071343Y685015D01*
D02*
G37*
G36*
X1068803D02*
X1066510Y684065D01*
X1064740Y682296D01*
X1063791Y680003D01*
X1068803D01*
Y685015D01*
D02*
G37*
G36*
X1221600Y681646D02*
Y676634D01*
X1226612D01*
X1225662Y678927D01*
X1223893Y680697D01*
X1221600Y681646D01*
D02*
G37*
G36*
X1219060D02*
X1216767Y680697D01*
X1214997Y678927D01*
X1214047Y676634D01*
X1219060D01*
Y681646D01*
D02*
G37*
G36*
X1076355Y677462D02*
X1071343D01*
Y672450D01*
X1073636Y673400D01*
X1075405Y675170D01*
X1076355Y677462D01*
D02*
G37*
G36*
X1068803D02*
X1063791D01*
X1064740Y675170D01*
X1066510Y673400D01*
X1068803Y672450D01*
Y677462D01*
D02*
G37*
G36*
X1226612Y674094D02*
X1221600D01*
Y669082D01*
X1223893Y670032D01*
X1225662Y671801D01*
X1226612Y674094D01*
D02*
G37*
G36*
X1219060D02*
X1214047D01*
X1214997Y671801D01*
X1216767Y670032D01*
X1219060Y669082D01*
Y674094D01*
D02*
G37*
G36*
X1179270Y670282D02*
Y665270D01*
X1184282D01*
X1183332Y667563D01*
X1181563Y669332D01*
X1179270Y670282D01*
D02*
G37*
G36*
X1176730D02*
X1174437Y669332D01*
X1172668Y667563D01*
X1171718Y665270D01*
X1176730D01*
Y670282D01*
D02*
G37*
G36*
X1647049Y678274D02*
X1644951D01*
X1643013Y677471D01*
X1641529Y675987D01*
X1640726Y674049D01*
Y671951D01*
X1641529Y670013D01*
X1643013Y668529D01*
X1644951Y667726D01*
X1647049D01*
X1648987Y668529D01*
X1650471Y670013D01*
X1650529Y670151D01*
X1722128D01*
X1723726Y668554D01*
Y666951D01*
X1724529Y665013D01*
X1726013Y663529D01*
X1727951Y662726D01*
X1730049D01*
X1731987Y663529D01*
X1733471Y665013D01*
X1734274Y666951D01*
Y669049D01*
X1733471Y670987D01*
X1731987Y672471D01*
X1730049Y673274D01*
X1727951D01*
X1727323Y673014D01*
X1725323Y675014D01*
X1724399Y675632D01*
X1723309Y675849D01*
X1723308Y675849D01*
X1650529D01*
X1650471Y675987D01*
X1648987Y677471D01*
X1647049Y678274D01*
D02*
G37*
G36*
X1184282Y662730D02*
X1171718D01*
X1172668Y660437D01*
X1174437Y658668D01*
X1174892Y658479D01*
Y657290D01*
X1173960D01*
Y652270D01*
X1181000D01*
X1188040D01*
Y657290D01*
X1181108D01*
Y658479D01*
X1181563Y658668D01*
X1183332Y660437D01*
X1184282Y662730D01*
D02*
G37*
G36*
X1723049Y651274D02*
X1720951D01*
X1719012Y650471D01*
X1717529Y648988D01*
X1717264Y648349D01*
X1671110D01*
X1669987Y649471D01*
X1668049Y650274D01*
X1665951D01*
X1664012Y649471D01*
X1662529Y647988D01*
X1661726Y646049D01*
Y643951D01*
X1662529Y642012D01*
X1664012Y640529D01*
X1665951Y639726D01*
X1668049D01*
X1669987Y640529D01*
X1671471Y642012D01*
X1671736Y642651D01*
X1717890D01*
X1719012Y641529D01*
X1720951Y640726D01*
X1723049D01*
X1724987Y641529D01*
X1726471Y643012D01*
X1727274Y644951D01*
Y647049D01*
X1726471Y648988D01*
X1724987Y650471D01*
X1723049Y651274D01*
D02*
G37*
G36*
X48113Y653307D02*
Y648295D01*
X53125D01*
X52176Y650588D01*
X50406Y652357D01*
X48113Y653307D01*
D02*
G37*
G36*
X45573D02*
X43280Y652357D01*
X41511Y650588D01*
X40561Y648295D01*
X45573D01*
Y653307D01*
D02*
G37*
G36*
X1247270Y650660D02*
Y646270D01*
X1251660D01*
X1250845Y648237D01*
X1249237Y649845D01*
X1247270Y650660D01*
D02*
G37*
G36*
X1244730D02*
X1242763Y649845D01*
X1241155Y648237D01*
X1240340Y646270D01*
X1244730D01*
Y650660D01*
D02*
G37*
G36*
X53125Y645755D02*
X48113D01*
Y640743D01*
X50406Y641693D01*
X52176Y643462D01*
X53125Y645755D01*
D02*
G37*
G36*
X45573D02*
X40561D01*
X41511Y643462D01*
X43280Y641693D01*
X45573Y640743D01*
Y645755D01*
D02*
G37*
G36*
X1251660Y643730D02*
X1247270D01*
Y639340D01*
X1249237Y640155D01*
X1250845Y641763D01*
X1251660Y643730D01*
D02*
G37*
G36*
X1244730D02*
X1240340D01*
X1241155Y641763D01*
X1242763Y640155D01*
X1244730Y639340D01*
Y643730D01*
D02*
G37*
G36*
X1158049Y665274D02*
X1155951D01*
X1154013Y664471D01*
X1152529Y662988D01*
X1151726Y661049D01*
Y658951D01*
X1152529Y657012D01*
X1154013Y655529D01*
X1154151Y655471D01*
Y627000D01*
X1154151Y627000D01*
X1154368Y625910D01*
X1154986Y624986D01*
X1158176Y621796D01*
X1158176Y621796D01*
X1159100Y621178D01*
X1160190Y620961D01*
X1221810D01*
X1221810Y620961D01*
X1222900Y621178D01*
X1223824Y621796D01*
X1229014Y626986D01*
X1229014Y626986D01*
X1229632Y627910D01*
X1229849Y629000D01*
Y651471D01*
X1229987Y651529D01*
X1231471Y653012D01*
X1232274Y654951D01*
Y657049D01*
X1231471Y658988D01*
X1229987Y660471D01*
X1228049Y661274D01*
X1225951D01*
X1224013Y660471D01*
X1222529Y658988D01*
X1221726Y657049D01*
Y654951D01*
X1222529Y653012D01*
X1224013Y651529D01*
X1224151Y651471D01*
Y630180D01*
X1220630Y626659D01*
X1182791D01*
X1182539Y627929D01*
X1183988Y628529D01*
X1185471Y630013D01*
X1186274Y631951D01*
Y633726D01*
X1187024D01*
X1187024Y644097D01*
X1188040Y644710D01*
X1188040Y644887D01*
X1188040Y644887D01*
Y649730D01*
X1181000D01*
X1173960D01*
Y644887D01*
X1173960Y644887D01*
Y644710D01*
X1174976Y644097D01*
X1174976Y643440D01*
Y633726D01*
X1175726D01*
Y631951D01*
X1176529Y630013D01*
X1178012Y628529D01*
X1179461Y627929D01*
X1179209Y626659D01*
X1161370D01*
X1159849Y628180D01*
Y655471D01*
X1159987Y655529D01*
X1161471Y657012D01*
X1162274Y658951D01*
Y661049D01*
X1161471Y662988D01*
X1159987Y664471D01*
X1158049Y665274D01*
D02*
G37*
G36*
X1405988Y630024D02*
X1403612D01*
X1401317Y629409D01*
X1399259Y628221D01*
X1397579Y626541D01*
X1396391Y624483D01*
X1395776Y622188D01*
Y619812D01*
X1396391Y617517D01*
X1397579Y615459D01*
X1399259Y613779D01*
X1401317Y612591D01*
X1403612Y611976D01*
X1405988D01*
X1408283Y612591D01*
X1410341Y613779D01*
X1412021Y615459D01*
X1413209Y617517D01*
X1413824Y619812D01*
Y622188D01*
X1413209Y624483D01*
X1412021Y626541D01*
X1410341Y628221D01*
X1408283Y629409D01*
X1405988Y630024D01*
D02*
G37*
G36*
X1380588D02*
X1378212D01*
X1375917Y629409D01*
X1373859Y628221D01*
X1372179Y626541D01*
X1370991Y624483D01*
X1370376Y622188D01*
Y619812D01*
X1370991Y617517D01*
X1372179Y615459D01*
X1373859Y613779D01*
X1375917Y612591D01*
X1378212Y611976D01*
X1380588D01*
X1382883Y612591D01*
X1384941Y613779D01*
X1386621Y615459D01*
X1387809Y617517D01*
X1388424Y619812D01*
Y622188D01*
X1387809Y624483D01*
X1386621Y626541D01*
X1384941Y628221D01*
X1382883Y629409D01*
X1380588Y630024D01*
D02*
G37*
G36*
X1363024D02*
X1344976D01*
Y611976D01*
X1363024D01*
Y630024D01*
D02*
G37*
G36*
X144689Y638517D02*
X142591D01*
X140652Y637714D01*
X139169Y636230D01*
X138366Y634292D01*
Y632193D01*
X139169Y630255D01*
X140532Y628892D01*
Y621267D01*
X136268D01*
Y606869D01*
X149937D01*
Y621267D01*
X146747D01*
Y628892D01*
X148111Y630255D01*
X148914Y632193D01*
Y634292D01*
X148111Y636230D01*
X146627Y637714D01*
X144689Y638517D01*
D02*
G37*
G36*
X1538049Y669274D02*
X1535951D01*
X1534012Y668471D01*
X1532529Y666988D01*
X1531726Y665049D01*
Y662951D01*
X1532529Y661012D01*
X1534012Y659529D01*
X1534384Y659375D01*
Y614921D01*
X1532994Y613531D01*
X1532191Y611593D01*
Y609495D01*
X1532994Y607556D01*
X1534477Y606073D01*
X1536416Y605270D01*
X1538514D01*
X1540452Y606073D01*
X1541936Y607556D01*
X1542739Y609495D01*
Y611593D01*
X1541936Y613531D01*
X1540452Y615015D01*
X1540081Y615169D01*
Y659623D01*
X1541471Y661012D01*
X1542274Y662951D01*
Y665049D01*
X1541471Y666988D01*
X1539987Y668471D01*
X1538049Y669274D01*
D02*
G37*
G36*
X1512049D02*
X1509951D01*
X1508013Y668471D01*
X1506529Y666988D01*
X1505726Y665049D01*
Y662951D01*
X1506529Y661012D01*
X1508013Y659529D01*
X1508151Y659471D01*
Y613413D01*
X1506715Y611977D01*
X1505912Y610038D01*
Y607940D01*
X1506715Y606002D01*
X1508198Y604518D01*
X1510137Y603715D01*
X1512235D01*
X1514173Y604518D01*
X1515657Y606002D01*
X1516460Y607940D01*
Y610038D01*
X1515657Y611977D01*
X1514173Y613460D01*
X1513849Y613595D01*
Y659471D01*
X1513987Y659529D01*
X1515471Y661012D01*
X1516274Y662951D01*
Y665049D01*
X1515471Y666988D01*
X1513987Y668471D01*
X1512049Y669274D01*
D02*
G37*
G36*
X149937Y604959D02*
X136268D01*
Y590561D01*
X149937D01*
Y594652D01*
X161748D01*
X162726Y593674D01*
Y592951D01*
X163529Y591012D01*
X165012Y589529D01*
X166951Y588726D01*
X169049D01*
X170987Y589529D01*
X172471Y591012D01*
X173274Y592951D01*
Y595049D01*
X172471Y596987D01*
X170987Y598471D01*
X169049Y599274D01*
X166951D01*
X166219Y598971D01*
X165233Y599958D01*
X164224Y600631D01*
X163035Y600868D01*
X149937D01*
Y604959D01*
D02*
G37*
G36*
X1765273Y592982D02*
X1763175D01*
X1761236Y592179D01*
X1760909Y591851D01*
X1691708D01*
X1690122Y591536D01*
X1688778Y590638D01*
X1681270Y583130D01*
X1680372Y581786D01*
X1680056Y580200D01*
Y553028D01*
X1678659Y552221D01*
X1676979Y550541D01*
X1675791Y548483D01*
X1675176Y546188D01*
Y543812D01*
X1675791Y541517D01*
X1676979Y539459D01*
X1678659Y537779D01*
X1680717Y536591D01*
X1683012Y535976D01*
X1685388D01*
X1687683Y536591D01*
X1689741Y537779D01*
X1691421Y539459D01*
X1692609Y541517D01*
X1693224Y543812D01*
Y546188D01*
X1692609Y548483D01*
X1691421Y550541D01*
X1689741Y552221D01*
X1688344Y553028D01*
Y578484D01*
X1693424Y583564D01*
X1760909D01*
X1761236Y583237D01*
X1763175Y582434D01*
X1765273D01*
X1767211Y583237D01*
X1768695Y584720D01*
X1769498Y586659D01*
Y588757D01*
X1768695Y590695D01*
X1767211Y592179D01*
X1765273Y592982D01*
D02*
G37*
G36*
X516788Y578814D02*
X514412D01*
X512117Y578199D01*
X510059Y577011D01*
X508379Y575331D01*
X507191Y573273D01*
X506576Y570978D01*
Y568602D01*
X507191Y566307D01*
X508379Y564249D01*
X510059Y562569D01*
X512117Y561381D01*
X514412Y560766D01*
X516788D01*
X519083Y561381D01*
X521141Y562569D01*
X522821Y564249D01*
X524009Y566307D01*
X524624Y568602D01*
Y570978D01*
X524009Y573273D01*
X522821Y575331D01*
X521141Y577011D01*
X519083Y578199D01*
X516788Y578814D01*
D02*
G37*
G36*
X499224D02*
X481176D01*
Y560766D01*
X499224D01*
Y578814D01*
D02*
G37*
G36*
X1812388Y554024D02*
X1810012D01*
X1807717Y553409D01*
X1805659Y552221D01*
X1803979Y550541D01*
X1802791Y548483D01*
X1802176Y546188D01*
Y543812D01*
X1802791Y541517D01*
X1803979Y539459D01*
X1805659Y537779D01*
X1807717Y536591D01*
X1810012Y535976D01*
X1812388D01*
X1814683Y536591D01*
X1816741Y537779D01*
X1818421Y539459D01*
X1819609Y541517D01*
X1820224Y543812D01*
Y546188D01*
X1819609Y548483D01*
X1818421Y550541D01*
X1816741Y552221D01*
X1814683Y553409D01*
X1812388Y554024D01*
D02*
G37*
G36*
X1786988D02*
X1784612D01*
X1782317Y553409D01*
X1780259Y552221D01*
X1778579Y550541D01*
X1777391Y548483D01*
X1776776Y546188D01*
Y543812D01*
X1777391Y541517D01*
X1778579Y539459D01*
X1780259Y537779D01*
X1782317Y536591D01*
X1784612Y535976D01*
X1786988D01*
X1789283Y536591D01*
X1791341Y537779D01*
X1793021Y539459D01*
X1794209Y541517D01*
X1794824Y543812D01*
Y546188D01*
X1794209Y548483D01*
X1793021Y550541D01*
X1791341Y552221D01*
X1789283Y553409D01*
X1786988Y554024D01*
D02*
G37*
G36*
X1761588D02*
X1759212D01*
X1756917Y553409D01*
X1754859Y552221D01*
X1753179Y550541D01*
X1751991Y548483D01*
X1751376Y546188D01*
Y543812D01*
X1751991Y541517D01*
X1753179Y539459D01*
X1754859Y537779D01*
X1756917Y536591D01*
X1759212Y535976D01*
X1761588D01*
X1763883Y536591D01*
X1765941Y537779D01*
X1767621Y539459D01*
X1768809Y541517D01*
X1769424Y543812D01*
Y546188D01*
X1768809Y548483D01*
X1767621Y550541D01*
X1765941Y552221D01*
X1763883Y553409D01*
X1761588Y554024D01*
D02*
G37*
G36*
X1736188D02*
X1733812D01*
X1731517Y553409D01*
X1729459Y552221D01*
X1727779Y550541D01*
X1726591Y548483D01*
X1725976Y546188D01*
Y543812D01*
X1726591Y541517D01*
X1727779Y539459D01*
X1729459Y537779D01*
X1731517Y536591D01*
X1733812Y535976D01*
X1736188D01*
X1738483Y536591D01*
X1740541Y537779D01*
X1742221Y539459D01*
X1743409Y541517D01*
X1744024Y543812D01*
Y546188D01*
X1743409Y548483D01*
X1742221Y550541D01*
X1740541Y552221D01*
X1738483Y553409D01*
X1736188Y554024D01*
D02*
G37*
G36*
X1945049Y578274D02*
X1942951D01*
X1941013Y577471D01*
X1939529Y575988D01*
X1938726Y574049D01*
Y573586D01*
X1937284Y572144D01*
X1715000D01*
X1713414Y571828D01*
X1712070Y570930D01*
X1706670Y565530D01*
X1705772Y564186D01*
X1705456Y562600D01*
Y553028D01*
X1704059Y552221D01*
X1702379Y550541D01*
X1701191Y548483D01*
X1700576Y546188D01*
Y543812D01*
X1701191Y541517D01*
X1702379Y539459D01*
X1704059Y537779D01*
X1706117Y536591D01*
X1708412Y535976D01*
X1710788D01*
X1713083Y536591D01*
X1715141Y537779D01*
X1716821Y539459D01*
X1718009Y541517D01*
X1718624Y543812D01*
Y546188D01*
X1718009Y548483D01*
X1716821Y550541D01*
X1715141Y552221D01*
X1713744Y553028D01*
Y560884D01*
X1716716Y563856D01*
X1939000D01*
X1940586Y564172D01*
X1941930Y565070D01*
X1944586Y567726D01*
X1945049D01*
X1946987Y568529D01*
X1948471Y570013D01*
X1949274Y571951D01*
Y574049D01*
X1948471Y575988D01*
X1946987Y577471D01*
X1945049Y578274D01*
D02*
G37*
G36*
X1659988Y554024D02*
X1657612D01*
X1655317Y553409D01*
X1653259Y552221D01*
X1651579Y550541D01*
X1650391Y548483D01*
X1649776Y546188D01*
Y543812D01*
X1650391Y541517D01*
X1651579Y539459D01*
X1653259Y537779D01*
X1655317Y536591D01*
X1657612Y535976D01*
X1659988D01*
X1662283Y536591D01*
X1664341Y537779D01*
X1666021Y539459D01*
X1667209Y541517D01*
X1667824Y543812D01*
Y546188D01*
X1667209Y548483D01*
X1666021Y550541D01*
X1664341Y552221D01*
X1662283Y553409D01*
X1659988Y554024D01*
D02*
G37*
G36*
X1634588D02*
X1632212D01*
X1629917Y553409D01*
X1627859Y552221D01*
X1626179Y550541D01*
X1624991Y548483D01*
X1624376Y546188D01*
Y543812D01*
X1624991Y541517D01*
X1626179Y539459D01*
X1627859Y537779D01*
X1629917Y536591D01*
X1632212Y535976D01*
X1634588D01*
X1636883Y536591D01*
X1638941Y537779D01*
X1640621Y539459D01*
X1641809Y541517D01*
X1642424Y543812D01*
Y546188D01*
X1641809Y548483D01*
X1640621Y550541D01*
X1638941Y552221D01*
X1636883Y553409D01*
X1634588Y554024D01*
D02*
G37*
G36*
X1609188D02*
X1606812D01*
X1604517Y553409D01*
X1602459Y552221D01*
X1600779Y550541D01*
X1599591Y548483D01*
X1598976Y546188D01*
Y543812D01*
X1599591Y541517D01*
X1600779Y539459D01*
X1602459Y537779D01*
X1604517Y536591D01*
X1606812Y535976D01*
X1609188D01*
X1611483Y536591D01*
X1613541Y537779D01*
X1615221Y539459D01*
X1616409Y541517D01*
X1617024Y543812D01*
Y546188D01*
X1616409Y548483D01*
X1615221Y550541D01*
X1613541Y552221D01*
X1611483Y553409D01*
X1609188Y554024D01*
D02*
G37*
G36*
X1583788D02*
X1581412D01*
X1579117Y553409D01*
X1577059Y552221D01*
X1575379Y550541D01*
X1574191Y548483D01*
X1573576Y546188D01*
Y543812D01*
X1574191Y541517D01*
X1575379Y539459D01*
X1577059Y537779D01*
X1579117Y536591D01*
X1581412Y535976D01*
X1583788D01*
X1586083Y536591D01*
X1588141Y537779D01*
X1589821Y539459D01*
X1591009Y541517D01*
X1591624Y543812D01*
Y546188D01*
X1591009Y548483D01*
X1589821Y550541D01*
X1588141Y552221D01*
X1586083Y553409D01*
X1583788Y554024D01*
D02*
G37*
G36*
X1403000Y542791D02*
X1364000D01*
X1363537Y542699D01*
X1363065D01*
X1362629Y542518D01*
X1362166Y542426D01*
X1361774Y542164D01*
X1361338Y541984D01*
X1361004Y541650D01*
X1360612Y541388D01*
X1360350Y540995D01*
X1360016Y540662D01*
X1359836Y540226D01*
X1359574Y539833D01*
X1359482Y539371D01*
X1359301Y538935D01*
Y538463D01*
X1359209Y538000D01*
X1359301Y537537D01*
Y537065D01*
X1359482Y536629D01*
X1359574Y536166D01*
X1359836Y535774D01*
X1360016Y535338D01*
X1360350Y535005D01*
X1360612Y534612D01*
X1361004Y534350D01*
X1361338Y534016D01*
X1361774Y533836D01*
X1362166Y533574D01*
X1362629Y533482D01*
X1363065Y533301D01*
X1363537D01*
X1364000Y533209D01*
X1403000D01*
X1403463Y533301D01*
X1403935D01*
X1404371Y533482D01*
X1404833Y533574D01*
X1405226Y533836D01*
X1405662Y534016D01*
X1405995Y534350D01*
X1406388Y534612D01*
X1406650Y535005D01*
X1406984Y535338D01*
X1407164Y535774D01*
X1407426Y536166D01*
X1407518Y536629D01*
X1407699Y537065D01*
Y537537D01*
X1407791Y538000D01*
X1407699Y538463D01*
Y538935D01*
X1407518Y539371D01*
X1407426Y539833D01*
X1407164Y540226D01*
X1406984Y540662D01*
X1406650Y540995D01*
X1406388Y541388D01*
X1405995Y541650D01*
X1405662Y541984D01*
X1405226Y542164D01*
X1404833Y542426D01*
X1404371Y542518D01*
X1403935Y542699D01*
X1403463D01*
X1403000Y542791D01*
D02*
G37*
G36*
X948722Y541040D02*
X948670D01*
Y532270D01*
X957440D01*
Y532322D01*
X956756Y534875D01*
X955434Y537165D01*
X953565Y539034D01*
X951275Y540356D01*
X948722Y541040D01*
D02*
G37*
G36*
X946130D02*
X946078D01*
X943525Y540356D01*
X941235Y539034D01*
X939366Y537165D01*
X938044Y534875D01*
X937360Y532322D01*
Y532270D01*
X946130D01*
Y541040D01*
D02*
G37*
G36*
X973988Y540024D02*
X971612D01*
X969317Y539409D01*
X967259Y538221D01*
X965579Y536541D01*
X964391Y534483D01*
X963776Y532188D01*
Y529812D01*
X964391Y527517D01*
X965579Y525459D01*
X967259Y523779D01*
X969317Y522591D01*
X971612Y521976D01*
X973988D01*
X976283Y522591D01*
X978341Y523779D01*
X980021Y525459D01*
X981209Y527517D01*
X981824Y529812D01*
Y532188D01*
X981209Y534483D01*
X980021Y536541D01*
X978341Y538221D01*
X976283Y539409D01*
X973988Y540024D01*
D02*
G37*
G36*
X923188D02*
X920812D01*
X918517Y539409D01*
X916459Y538221D01*
X914779Y536541D01*
X913591Y534483D01*
X912976Y532188D01*
Y529812D01*
X913591Y527517D01*
X914779Y525459D01*
X916459Y523779D01*
X918517Y522591D01*
X920812Y521976D01*
X923188D01*
X925483Y522591D01*
X927541Y523779D01*
X929221Y525459D01*
X930409Y527517D01*
X931024Y529812D01*
Y532188D01*
X930409Y534483D01*
X929221Y536541D01*
X927541Y538221D01*
X925483Y539409D01*
X923188Y540024D01*
D02*
G37*
G36*
X897788D02*
X895412D01*
X893117Y539409D01*
X891059Y538221D01*
X889379Y536541D01*
X888191Y534483D01*
X887576Y532188D01*
Y529812D01*
X888191Y527517D01*
X889379Y525459D01*
X891059Y523779D01*
X893117Y522591D01*
X895412Y521976D01*
X897788D01*
X900083Y522591D01*
X902141Y523779D01*
X903821Y525459D01*
X905009Y527517D01*
X905624Y529812D01*
Y532188D01*
X905009Y534483D01*
X903821Y536541D01*
X902141Y538221D01*
X900083Y539409D01*
X897788Y540024D01*
D02*
G37*
G36*
X872388D02*
X870012D01*
X867717Y539409D01*
X865659Y538221D01*
X863979Y536541D01*
X862791Y534483D01*
X862176Y532188D01*
Y529812D01*
X862791Y527517D01*
X863979Y525459D01*
X865659Y523779D01*
X867717Y522591D01*
X870012Y521976D01*
X872388D01*
X874683Y522591D01*
X876741Y523779D01*
X878421Y525459D01*
X879609Y527517D01*
X880224Y529812D01*
Y532188D01*
X879609Y534483D01*
X878421Y536541D01*
X876741Y538221D01*
X874683Y539409D01*
X872388Y540024D01*
D02*
G37*
G36*
X846988D02*
X844612D01*
X842317Y539409D01*
X840259Y538221D01*
X838579Y536541D01*
X837391Y534483D01*
X836776Y532188D01*
Y529812D01*
X837391Y527517D01*
X838579Y525459D01*
X840259Y523779D01*
X842317Y522591D01*
X844612Y521976D01*
X846988D01*
X849283Y522591D01*
X851341Y523779D01*
X853021Y525459D01*
X854209Y527517D01*
X854824Y529812D01*
Y532188D01*
X854209Y534483D01*
X853021Y536541D01*
X851341Y538221D01*
X849283Y539409D01*
X846988Y540024D01*
D02*
G37*
G36*
X821588D02*
X819212D01*
X816917Y539409D01*
X814859Y538221D01*
X813179Y536541D01*
X811991Y534483D01*
X811376Y532188D01*
Y529812D01*
X811991Y527517D01*
X813179Y525459D01*
X814859Y523779D01*
X816917Y522591D01*
X819212Y521976D01*
X821588D01*
X823883Y522591D01*
X825941Y523779D01*
X827621Y525459D01*
X828809Y527517D01*
X829424Y529812D01*
Y532188D01*
X828809Y534483D01*
X827621Y536541D01*
X825941Y538221D01*
X823883Y539409D01*
X821588Y540024D01*
D02*
G37*
G36*
X796188D02*
X793812D01*
X791517Y539409D01*
X789459Y538221D01*
X787779Y536541D01*
X786591Y534483D01*
X785976Y532188D01*
Y529812D01*
X786591Y527517D01*
X787779Y525459D01*
X789459Y523779D01*
X791517Y522591D01*
X793812Y521976D01*
X796188D01*
X798483Y522591D01*
X800541Y523779D01*
X802221Y525459D01*
X803409Y527517D01*
X804024Y529812D01*
Y532188D01*
X803409Y534483D01*
X802221Y536541D01*
X800541Y538221D01*
X798483Y539409D01*
X796188Y540024D01*
D02*
G37*
G36*
X770788D02*
X768412D01*
X766117Y539409D01*
X764059Y538221D01*
X762379Y536541D01*
X761191Y534483D01*
X760576Y532188D01*
Y529812D01*
X761191Y527517D01*
X762379Y525459D01*
X764059Y523779D01*
X766117Y522591D01*
X768412Y521976D01*
X770788D01*
X773083Y522591D01*
X775141Y523779D01*
X776821Y525459D01*
X778009Y527517D01*
X778624Y529812D01*
Y532188D01*
X778009Y534483D01*
X776821Y536541D01*
X775141Y538221D01*
X773083Y539409D01*
X770788Y540024D01*
D02*
G37*
G36*
X745388D02*
X743012D01*
X740717Y539409D01*
X738659Y538221D01*
X736979Y536541D01*
X735791Y534483D01*
X735176Y532188D01*
Y529812D01*
X735791Y527517D01*
X736979Y525459D01*
X738659Y523779D01*
X740717Y522591D01*
X743012Y521976D01*
X745388D01*
X747683Y522591D01*
X749741Y523779D01*
X751421Y525459D01*
X752609Y527517D01*
X753224Y529812D01*
Y532188D01*
X752609Y534483D01*
X751421Y536541D01*
X749741Y538221D01*
X747683Y539409D01*
X745388Y540024D01*
D02*
G37*
G36*
X719988D02*
X717612D01*
X715317Y539409D01*
X713259Y538221D01*
X711579Y536541D01*
X710391Y534483D01*
X709776Y532188D01*
Y529812D01*
X710391Y527517D01*
X711579Y525459D01*
X713259Y523779D01*
X715317Y522591D01*
X717612Y521976D01*
X719988D01*
X722283Y522591D01*
X724341Y523779D01*
X726021Y525459D01*
X727209Y527517D01*
X727824Y529812D01*
Y532188D01*
X727209Y534483D01*
X726021Y536541D01*
X724341Y538221D01*
X722283Y539409D01*
X719988Y540024D01*
D02*
G37*
G36*
X694588D02*
X692212D01*
X689917Y539409D01*
X687859Y538221D01*
X686179Y536541D01*
X684991Y534483D01*
X684376Y532188D01*
Y529812D01*
X684991Y527517D01*
X686179Y525459D01*
X687859Y523779D01*
X689917Y522591D01*
X692212Y521976D01*
X694588D01*
X696883Y522591D01*
X698941Y523779D01*
X700621Y525459D01*
X701809Y527517D01*
X702424Y529812D01*
Y532188D01*
X701809Y534483D01*
X700621Y536541D01*
X698941Y538221D01*
X696883Y539409D01*
X694588Y540024D01*
D02*
G37*
G36*
X669188D02*
X666812D01*
X664517Y539409D01*
X662459Y538221D01*
X660779Y536541D01*
X659591Y534483D01*
X658976Y532188D01*
Y529812D01*
X659591Y527517D01*
X660779Y525459D01*
X662459Y523779D01*
X664517Y522591D01*
X666812Y521976D01*
X669188D01*
X671483Y522591D01*
X673541Y523779D01*
X675221Y525459D01*
X676409Y527517D01*
X677024Y529812D01*
Y532188D01*
X676409Y534483D01*
X675221Y536541D01*
X673541Y538221D01*
X671483Y539409D01*
X669188Y540024D01*
D02*
G37*
G36*
X643788D02*
X641412D01*
X639117Y539409D01*
X637059Y538221D01*
X635379Y536541D01*
X634191Y534483D01*
X633576Y532188D01*
Y529812D01*
X634191Y527517D01*
X635379Y525459D01*
X637059Y523779D01*
X639117Y522591D01*
X641412Y521976D01*
X643788D01*
X646083Y522591D01*
X648141Y523779D01*
X649821Y525459D01*
X651009Y527517D01*
X651624Y529812D01*
Y532188D01*
X651009Y534483D01*
X649821Y536541D01*
X648141Y538221D01*
X646083Y539409D01*
X643788Y540024D01*
D02*
G37*
G36*
X618388D02*
X616012D01*
X613717Y539409D01*
X611659Y538221D01*
X609979Y536541D01*
X608791Y534483D01*
X608176Y532188D01*
Y529812D01*
X608791Y527517D01*
X609979Y525459D01*
X611659Y523779D01*
X613717Y522591D01*
X616012Y521976D01*
X618388D01*
X620683Y522591D01*
X622741Y523779D01*
X624421Y525459D01*
X625609Y527517D01*
X626224Y529812D01*
Y532188D01*
X625609Y534483D01*
X624421Y536541D01*
X622741Y538221D01*
X620683Y539409D01*
X618388Y540024D01*
D02*
G37*
G36*
X592988D02*
X590612D01*
X588317Y539409D01*
X586259Y538221D01*
X584579Y536541D01*
X583391Y534483D01*
X582776Y532188D01*
Y529812D01*
X583391Y527517D01*
X584579Y525459D01*
X586259Y523779D01*
X588317Y522591D01*
X590612Y521976D01*
X592988D01*
X595283Y522591D01*
X597341Y523779D01*
X599021Y525459D01*
X600209Y527517D01*
X600824Y529812D01*
Y532188D01*
X600209Y534483D01*
X599021Y536541D01*
X597341Y538221D01*
X595283Y539409D01*
X592988Y540024D01*
D02*
G37*
G36*
X516788D02*
X514412D01*
X512117Y539409D01*
X510059Y538221D01*
X508379Y536541D01*
X507191Y534483D01*
X506576Y532188D01*
Y529812D01*
X507191Y527517D01*
X508379Y525459D01*
X510059Y523779D01*
X512117Y522591D01*
X514412Y521976D01*
X516788D01*
X519083Y522591D01*
X521141Y523779D01*
X522821Y525459D01*
X524009Y527517D01*
X524624Y529812D01*
Y532188D01*
X524009Y534483D01*
X522821Y536541D01*
X521141Y538221D01*
X519083Y539409D01*
X516788Y540024D01*
D02*
G37*
G36*
X499224D02*
X481176D01*
Y521976D01*
X499224D01*
Y540024D01*
D02*
G37*
G36*
X957440Y529730D02*
X948670D01*
Y520960D01*
X948722D01*
X951275Y521644D01*
X953565Y522966D01*
X955434Y524835D01*
X956756Y527125D01*
X957440Y529678D01*
Y529730D01*
D02*
G37*
G36*
X946130D02*
X937360D01*
Y529678D01*
X938044Y527125D01*
X939366Y524835D01*
X941235Y522966D01*
X943525Y521644D01*
X946078Y520960D01*
X946130D01*
Y529730D01*
D02*
G37*
G36*
X1107000Y532649D02*
X1087000D01*
X1085833Y532166D01*
X1085350Y531000D01*
Y515000D01*
X1085833Y513833D01*
X1087000Y513350D01*
X1107000D01*
X1108166Y513833D01*
X1108649Y515000D01*
Y531000D01*
X1108166Y532166D01*
X1107000Y532649D01*
D02*
G37*
G36*
X1812388Y528624D02*
X1810012D01*
X1807717Y528009D01*
X1805659Y526821D01*
X1803979Y525141D01*
X1802791Y523083D01*
X1802176Y520788D01*
Y518412D01*
X1802791Y516117D01*
X1803979Y514059D01*
X1805659Y512379D01*
X1807717Y511191D01*
X1810012Y510576D01*
X1812388D01*
X1814683Y511191D01*
X1816741Y512379D01*
X1818421Y514059D01*
X1819609Y516117D01*
X1820224Y518412D01*
Y520788D01*
X1819609Y523083D01*
X1818421Y525141D01*
X1816741Y526821D01*
X1814683Y528009D01*
X1812388Y528624D01*
D02*
G37*
G36*
X1736188D02*
X1733812D01*
X1731517Y528009D01*
X1729459Y526821D01*
X1727779Y525141D01*
X1726591Y523083D01*
X1725976Y520788D01*
Y518412D01*
X1726591Y516117D01*
X1727779Y514059D01*
X1729459Y512379D01*
X1731517Y511191D01*
X1733812Y510576D01*
X1736188D01*
X1738483Y511191D01*
X1740541Y512379D01*
X1742221Y514059D01*
X1743409Y516117D01*
X1744024Y518412D01*
Y520788D01*
X1743409Y523083D01*
X1742221Y525141D01*
X1740541Y526821D01*
X1738483Y528009D01*
X1736188Y528624D01*
D02*
G37*
G36*
X1710788D02*
X1708412D01*
X1706117Y528009D01*
X1704059Y526821D01*
X1702379Y525141D01*
X1701191Y523083D01*
X1700576Y520788D01*
Y518412D01*
X1701191Y516117D01*
X1702379Y514059D01*
X1704059Y512379D01*
X1706117Y511191D01*
X1708412Y510576D01*
X1710788D01*
X1713083Y511191D01*
X1715141Y512379D01*
X1716821Y514059D01*
X1718009Y516117D01*
X1718624Y518412D01*
Y520788D01*
X1718009Y523083D01*
X1716821Y525141D01*
X1715141Y526821D01*
X1713083Y528009D01*
X1710788Y528624D01*
D02*
G37*
G36*
X1685388D02*
X1683012D01*
X1680717Y528009D01*
X1678659Y526821D01*
X1676979Y525141D01*
X1675791Y523083D01*
X1675176Y520788D01*
Y518412D01*
X1675791Y516117D01*
X1676979Y514059D01*
X1678659Y512379D01*
X1680717Y511191D01*
X1683012Y510576D01*
X1685388D01*
X1687683Y511191D01*
X1689741Y512379D01*
X1691421Y514059D01*
X1692609Y516117D01*
X1693224Y518412D01*
Y520788D01*
X1692609Y523083D01*
X1691421Y525141D01*
X1689741Y526821D01*
X1687683Y528009D01*
X1685388Y528624D01*
D02*
G37*
G36*
X1609188D02*
X1606812D01*
X1604517Y528009D01*
X1602459Y526821D01*
X1600779Y525141D01*
X1599591Y523083D01*
X1598976Y520788D01*
Y518412D01*
X1599591Y516117D01*
X1600779Y514059D01*
X1602459Y512379D01*
X1604517Y511191D01*
X1606812Y510576D01*
X1609188D01*
X1611483Y511191D01*
X1613541Y512379D01*
X1615221Y514059D01*
X1616409Y516117D01*
X1617024Y518412D01*
Y520788D01*
X1616409Y523083D01*
X1615221Y525141D01*
X1613541Y526821D01*
X1611483Y528009D01*
X1609188Y528624D01*
D02*
G37*
G36*
X1591624D02*
X1573576D01*
Y510576D01*
X1591624D01*
Y528624D01*
D02*
G37*
G36*
X1186524Y510274D02*
X1173476D01*
Y504849D01*
X1171529D01*
X1171471Y504987D01*
X1169987Y506471D01*
X1168049Y507274D01*
X1165951D01*
X1164013Y506471D01*
X1162529Y504987D01*
X1161726Y503049D01*
Y500951D01*
X1162529Y499012D01*
X1164013Y497529D01*
X1165951Y496726D01*
X1168049D01*
X1169987Y497529D01*
X1171471Y499012D01*
X1171529Y499151D01*
X1173476D01*
Y493726D01*
X1177151D01*
Y487524D01*
X1173726D01*
Y470476D01*
X1186774D01*
Y487524D01*
X1182849D01*
Y493726D01*
X1186524D01*
Y510274D01*
D02*
G37*
G36*
X1205540Y511290D02*
X1199270D01*
Y503270D01*
X1205540D01*
Y511290D01*
D02*
G37*
G36*
X1196730D02*
X1190460D01*
Y503270D01*
X1196730D01*
Y511290D01*
D02*
G37*
G36*
X1407049Y503274D02*
X1404951D01*
X1403013Y502471D01*
X1402685Y502144D01*
X1377315D01*
X1376987Y502471D01*
X1375049Y503274D01*
X1372951D01*
X1371013Y502471D01*
X1369529Y500988D01*
X1368726Y499049D01*
Y496951D01*
X1369529Y495013D01*
X1371013Y493529D01*
X1372951Y492726D01*
X1375049D01*
X1376987Y493529D01*
X1377315Y493856D01*
X1402685D01*
X1403013Y493529D01*
X1404951Y492726D01*
X1407049D01*
X1408987Y493529D01*
X1410471Y495013D01*
X1411274Y496951D01*
Y499049D01*
X1410471Y500988D01*
X1408987Y502471D01*
X1407049Y503274D01*
D02*
G37*
G36*
X1205540Y500730D02*
X1199270D01*
Y492710D01*
X1205540D01*
Y500730D01*
D02*
G37*
G36*
X1196730D02*
X1190460D01*
Y492710D01*
X1196730D01*
Y500730D01*
D02*
G37*
G36*
X1777000Y533849D02*
X1777000Y533849D01*
X1753000D01*
X1751910Y533632D01*
X1750986Y533014D01*
X1750986Y533014D01*
X1746986Y529014D01*
X1746368Y528090D01*
X1746151Y527000D01*
X1746151Y527000D01*
Y487180D01*
X1740820Y481849D01*
X1667180D01*
X1661649Y487380D01*
Y511021D01*
X1662283Y511191D01*
X1664341Y512379D01*
X1666021Y514059D01*
X1667209Y516117D01*
X1667824Y518412D01*
Y520788D01*
X1667209Y523083D01*
X1666021Y525141D01*
X1664341Y526821D01*
X1662283Y528009D01*
X1659988Y528624D01*
X1657612D01*
X1655317Y528009D01*
X1653259Y526821D01*
X1651579Y525141D01*
X1650391Y523083D01*
X1649776Y520788D01*
Y518412D01*
X1650391Y516117D01*
X1651579Y514059D01*
X1653259Y512379D01*
X1655317Y511191D01*
X1655951Y511021D01*
Y486200D01*
X1655951Y486200D01*
X1656168Y485110D01*
X1656786Y484186D01*
X1663853Y477119D01*
X1663771Y476568D01*
X1663401Y475849D01*
X1643180D01*
X1636249Y482780D01*
Y511021D01*
X1636883Y511191D01*
X1638941Y512379D01*
X1640621Y514059D01*
X1641809Y516117D01*
X1642424Y518412D01*
Y520788D01*
X1641809Y523083D01*
X1640621Y525141D01*
X1638941Y526821D01*
X1636883Y528009D01*
X1634588Y528624D01*
X1632212D01*
X1629917Y528009D01*
X1627859Y526821D01*
X1626179Y525141D01*
X1624991Y523083D01*
X1624376Y520788D01*
Y518412D01*
X1624991Y516117D01*
X1626179Y514059D01*
X1627859Y512379D01*
X1629917Y511191D01*
X1630551Y511021D01*
Y481600D01*
X1630551Y481600D01*
X1630768Y480510D01*
X1631386Y479586D01*
X1639986Y470986D01*
X1639986Y470986D01*
X1640910Y470368D01*
X1642000Y470151D01*
X1752000D01*
X1752000Y470151D01*
X1753090Y470368D01*
X1754014Y470986D01*
X1763014Y479986D01*
X1763014Y479986D01*
X1763632Y480910D01*
X1763849Y482000D01*
X1763849Y482000D01*
Y511182D01*
X1763883Y511191D01*
X1765941Y512379D01*
X1767621Y514059D01*
X1768809Y516117D01*
X1769424Y518412D01*
Y520788D01*
X1768809Y523083D01*
X1767621Y525141D01*
X1765941Y526821D01*
X1765836Y526881D01*
X1766177Y528151D01*
X1775820D01*
X1778705Y525267D01*
X1778579Y525141D01*
X1777391Y523083D01*
X1776776Y520788D01*
Y518412D01*
X1777391Y516117D01*
X1778579Y514059D01*
X1780259Y512379D01*
X1782317Y511191D01*
X1784612Y510576D01*
X1786988D01*
X1789283Y511191D01*
X1791341Y512379D01*
X1793021Y514059D01*
X1794209Y516117D01*
X1794824Y518412D01*
Y520788D01*
X1794209Y523083D01*
X1793021Y525141D01*
X1791341Y526821D01*
X1789283Y528009D01*
X1786988Y528624D01*
X1784612D01*
X1783660Y528369D01*
X1779014Y533014D01*
X1778090Y533632D01*
X1777000Y533849D01*
D02*
G37*
G36*
X1232059Y484815D02*
X1213941D01*
Y468707D01*
X1232059D01*
Y470214D01*
X1248226D01*
Y459599D01*
X1232059D01*
Y465294D01*
X1213941D01*
Y459849D01*
X1196274D01*
Y465524D01*
X1183226D01*
Y448476D01*
X1196274D01*
Y454151D01*
X1213941D01*
Y449185D01*
X1232059D01*
Y453901D01*
X1248226D01*
Y448476D01*
X1265774D01*
Y464976D01*
Y468334D01*
X1267483D01*
X1268951Y467726D01*
X1271049D01*
X1272988Y468529D01*
X1274471Y470013D01*
X1275274Y471951D01*
Y474049D01*
X1274471Y475988D01*
X1272988Y477471D01*
X1271049Y478274D01*
X1268951D01*
X1268087Y477916D01*
X1265774D01*
Y481524D01*
X1248226D01*
Y479796D01*
X1232059D01*
Y484815D01*
D02*
G37*
G36*
X1413049Y459274D02*
X1410951D01*
X1409012Y458471D01*
X1407649Y457108D01*
X1277351D01*
X1275987Y458471D01*
X1274049Y459274D01*
X1271951D01*
X1270013Y458471D01*
X1268529Y456987D01*
X1267726Y455049D01*
Y452951D01*
X1268529Y451012D01*
X1270013Y449529D01*
X1271951Y448726D01*
X1274049D01*
X1275987Y449529D01*
X1277351Y450892D01*
X1407649D01*
X1409012Y449529D01*
X1410951Y448726D01*
X1413049D01*
X1414987Y449529D01*
X1416471Y451012D01*
X1417274Y452951D01*
Y455049D01*
X1416471Y456987D01*
X1414987Y458471D01*
X1413049Y459274D01*
D02*
G37*
G36*
X136472Y463874D02*
X134398D01*
X132396Y463337D01*
X130600Y462301D01*
X129134Y460835D01*
X128098Y459039D01*
X127561Y457037D01*
Y454963D01*
X128098Y452961D01*
X129134Y451165D01*
X130600Y449699D01*
X132396Y448663D01*
X133983Y448237D01*
X134398Y447202D01*
X134398Y446856D01*
X133529Y445988D01*
X132726Y444049D01*
Y441951D01*
X133529Y440013D01*
X134892Y438649D01*
Y437353D01*
X131165D01*
Y422955D01*
X144835D01*
Y437353D01*
X141108D01*
Y438649D01*
X142471Y440013D01*
X143274Y441951D01*
Y444049D01*
X142471Y445988D01*
X140988Y447471D01*
X139801Y447962D01*
X139709Y449375D01*
X140270Y449699D01*
X141736Y451165D01*
X142772Y452961D01*
X143309Y454963D01*
Y457037D01*
X142772Y459039D01*
X141736Y460835D01*
X140270Y462301D01*
X138474Y463337D01*
X136472Y463874D01*
D02*
G37*
G36*
X1941321Y440288D02*
X1938945D01*
X1936650Y439673D01*
X1934592Y438485D01*
X1932912Y436805D01*
X1931724Y434747D01*
X1931109Y432452D01*
Y430076D01*
X1931724Y427781D01*
X1932912Y425723D01*
X1934592Y424043D01*
X1936650Y422855D01*
X1938945Y422240D01*
X1941321D01*
X1943616Y422855D01*
X1945674Y424043D01*
X1947354Y425723D01*
X1948542Y427781D01*
X1949157Y430076D01*
Y432452D01*
X1948542Y434747D01*
X1947354Y436805D01*
X1945674Y438485D01*
X1943616Y439673D01*
X1941321Y440288D01*
D02*
G37*
G36*
X1903821D02*
X1901445D01*
X1899150Y439673D01*
X1897092Y438485D01*
X1895412Y436805D01*
X1894224Y434747D01*
X1893609Y432452D01*
Y430076D01*
X1894224Y427781D01*
X1895412Y425723D01*
X1897092Y424043D01*
X1899150Y422855D01*
X1901445Y422240D01*
X1903821D01*
X1906116Y422855D01*
X1908174Y424043D01*
X1909854Y425723D01*
X1911042Y427781D01*
X1911657Y430076D01*
Y432452D01*
X1911042Y434747D01*
X1909854Y436805D01*
X1908174Y438485D01*
X1906116Y439673D01*
X1903821Y440288D01*
D02*
G37*
G36*
X1942321Y398441D02*
X1939945D01*
X1937650Y397826D01*
X1935592Y396638D01*
X1933912Y394958D01*
X1932724Y392901D01*
X1932109Y390606D01*
Y388229D01*
X1932724Y385934D01*
X1933912Y383877D01*
X1935592Y382197D01*
X1937650Y381008D01*
X1939945Y380393D01*
X1942321D01*
X1944617Y381008D01*
X1946674Y382197D01*
X1948354Y383877D01*
X1949542Y385934D01*
X1950157Y388229D01*
Y390606D01*
X1949542Y392901D01*
X1948354Y394958D01*
X1946674Y396638D01*
X1944617Y397826D01*
X1942321Y398441D01*
D02*
G37*
G36*
X1904821D02*
X1902445D01*
X1900150Y397826D01*
X1898092Y396638D01*
X1896412Y394958D01*
X1895224Y392901D01*
X1894609Y390606D01*
Y388229D01*
X1895224Y385934D01*
X1896412Y383877D01*
X1898092Y382197D01*
X1900150Y381008D01*
X1902445Y380393D01*
X1904821D01*
X1907117Y381008D01*
X1909174Y382197D01*
X1910854Y383877D01*
X1912042Y385934D01*
X1912657Y388229D01*
Y390606D01*
X1912042Y392901D01*
X1910854Y394958D01*
X1909174Y396638D01*
X1907117Y397826D01*
X1904821Y398441D01*
D02*
G37*
G36*
X1942321Y359018D02*
X1939945D01*
X1937650Y358403D01*
X1935592Y357215D01*
X1933912Y355535D01*
X1932724Y353477D01*
X1932109Y351182D01*
Y348806D01*
X1932724Y346511D01*
X1933912Y344453D01*
X1935592Y342773D01*
X1937650Y341585D01*
X1939945Y340970D01*
X1942321D01*
X1944617Y341585D01*
X1946674Y342773D01*
X1948354Y344453D01*
X1949542Y346511D01*
X1950157Y348806D01*
Y351182D01*
X1949542Y353477D01*
X1948354Y355535D01*
X1946674Y357215D01*
X1944617Y358403D01*
X1942321Y359018D01*
D02*
G37*
G36*
X1904821D02*
X1902445D01*
X1900150Y358403D01*
X1898092Y357215D01*
X1896412Y355535D01*
X1895224Y353477D01*
X1894609Y351182D01*
Y348806D01*
X1895224Y346511D01*
X1896412Y344453D01*
X1898092Y342773D01*
X1900150Y341585D01*
X1902445Y340970D01*
X1904821D01*
X1907117Y341585D01*
X1909174Y342773D01*
X1910854Y344453D01*
X1912042Y346511D01*
X1912657Y348806D01*
Y351182D01*
X1912042Y353477D01*
X1910854Y355535D01*
X1909174Y357215D01*
X1907117Y358403D01*
X1904821Y359018D01*
D02*
G37*
G36*
X1265935Y347699D02*
X1264065D01*
X1262338Y346984D01*
X1261016Y345662D01*
X1260301Y343935D01*
Y342065D01*
X1261016Y340338D01*
X1262338Y339016D01*
X1264065Y338301D01*
X1265935D01*
X1267662Y339016D01*
X1268984Y340338D01*
X1269699Y342065D01*
Y343935D01*
X1268984Y345662D01*
X1267662Y346984D01*
X1265935Y347699D01*
D02*
G37*
G36*
X1233935D02*
X1232065D01*
X1230338Y346984D01*
X1229016Y345662D01*
X1228301Y343935D01*
Y342065D01*
X1229016Y340338D01*
X1230338Y339016D01*
X1232065Y338301D01*
X1233935D01*
X1235662Y339016D01*
X1236984Y340338D01*
X1237699Y342065D01*
Y343935D01*
X1236984Y345662D01*
X1235662Y346984D01*
X1233935Y347699D01*
D02*
G37*
G36*
X1199935D02*
X1198065D01*
X1196338Y346984D01*
X1195016Y345662D01*
X1194301Y343935D01*
Y342065D01*
X1195016Y340338D01*
X1196338Y339016D01*
X1198065Y338301D01*
X1199935D01*
X1201662Y339016D01*
X1202984Y340338D01*
X1203699Y342065D01*
Y343935D01*
X1202984Y345662D01*
X1201662Y346984D01*
X1199935Y347699D01*
D02*
G37*
G36*
X1167935D02*
X1166065D01*
X1164338Y346984D01*
X1163016Y345662D01*
X1162301Y343935D01*
Y342065D01*
X1163016Y340338D01*
X1164338Y339016D01*
X1166065Y338301D01*
X1167935D01*
X1169662Y339016D01*
X1170984Y340338D01*
X1171699Y342065D01*
Y343935D01*
X1170984Y345662D01*
X1169662Y346984D01*
X1167935Y347699D01*
D02*
G37*
G36*
X1133935D02*
X1132065D01*
X1130338Y346984D01*
X1129016Y345662D01*
X1128301Y343935D01*
Y342065D01*
X1129016Y340338D01*
X1130338Y339016D01*
X1132065Y338301D01*
X1133935D01*
X1135662Y339016D01*
X1136984Y340338D01*
X1137699Y342065D01*
Y343935D01*
X1136984Y345662D01*
X1135662Y346984D01*
X1133935Y347699D01*
D02*
G37*
G36*
X1101935D02*
X1100065D01*
X1098338Y346984D01*
X1097016Y345662D01*
X1096301Y343935D01*
Y342065D01*
X1097016Y340338D01*
X1098338Y339016D01*
X1100065Y338301D01*
X1101935D01*
X1103662Y339016D01*
X1104984Y340338D01*
X1105699Y342065D01*
Y343935D01*
X1104984Y345662D01*
X1103662Y346984D01*
X1101935Y347699D01*
D02*
G37*
G36*
X1469049Y326274D02*
X1466951D01*
X1465013Y325471D01*
X1463529Y323988D01*
X1462726Y322049D01*
Y319951D01*
X1463529Y318013D01*
X1465013Y316529D01*
X1466951Y315726D01*
X1469049D01*
X1470988Y316529D01*
X1472351Y317892D01*
X1531750D01*
X1532529Y316012D01*
X1534012Y314529D01*
X1535951Y313726D01*
X1538049D01*
X1539987Y314529D01*
X1541471Y316012D01*
X1542274Y317951D01*
Y320049D01*
X1541471Y321987D01*
X1539987Y323471D01*
X1538049Y324274D01*
X1535951D01*
X1534980Y323872D01*
X1533795Y324108D01*
X1472351D01*
X1470988Y325471D01*
X1469049Y326274D01*
D02*
G37*
G36*
X1942938Y320024D02*
X1940562D01*
X1938267Y319409D01*
X1936209Y318221D01*
X1934529Y316541D01*
X1933341Y314483D01*
X1932726Y312188D01*
Y309812D01*
X1933341Y307517D01*
X1934529Y305459D01*
X1936209Y303779D01*
X1938267Y302591D01*
X1940562Y301976D01*
X1942938D01*
X1945233Y302591D01*
X1947291Y303779D01*
X1948971Y305459D01*
X1950159Y307517D01*
X1950774Y309812D01*
Y312188D01*
X1950159Y314483D01*
X1948971Y316541D01*
X1947291Y318221D01*
X1945233Y319409D01*
X1942938Y320024D01*
D02*
G37*
G36*
X1905438D02*
X1903062D01*
X1900767Y319409D01*
X1898709Y318221D01*
X1897029Y316541D01*
X1895841Y314483D01*
X1895226Y312188D01*
Y309812D01*
X1895841Y307517D01*
X1897029Y305459D01*
X1898709Y303779D01*
X1900767Y302591D01*
X1903062Y301976D01*
X1905438D01*
X1907733Y302591D01*
X1909791Y303779D01*
X1911471Y305459D01*
X1912659Y307517D01*
X1913274Y309812D01*
Y312188D01*
X1912659Y314483D01*
X1911471Y316541D01*
X1909791Y318221D01*
X1907733Y319409D01*
X1905438Y320024D01*
D02*
G37*
G36*
X1265935Y299699D02*
X1264065D01*
X1262338Y298984D01*
X1261016Y297662D01*
X1260301Y295935D01*
Y294065D01*
X1261016Y292338D01*
X1262338Y291016D01*
X1264065Y290301D01*
X1265935D01*
X1267662Y291016D01*
X1268984Y292338D01*
X1269699Y294065D01*
Y295935D01*
X1268984Y297662D01*
X1267662Y298984D01*
X1265935Y299699D01*
D02*
G37*
G36*
X1233935D02*
X1232065D01*
X1230338Y298984D01*
X1229016Y297662D01*
X1228301Y295935D01*
Y294065D01*
X1229016Y292338D01*
X1230338Y291016D01*
X1232065Y290301D01*
X1233935D01*
X1235662Y291016D01*
X1236984Y292338D01*
X1237699Y294065D01*
Y295935D01*
X1236984Y297662D01*
X1235662Y298984D01*
X1233935Y299699D01*
D02*
G37*
G36*
X1199935D02*
X1198065D01*
X1196338Y298984D01*
X1195016Y297662D01*
X1194301Y295935D01*
Y294065D01*
X1195016Y292338D01*
X1196338Y291016D01*
X1198065Y290301D01*
X1199935D01*
X1201662Y291016D01*
X1202984Y292338D01*
X1203699Y294065D01*
Y295935D01*
X1202984Y297662D01*
X1201662Y298984D01*
X1199935Y299699D01*
D02*
G37*
G36*
X1167935D02*
X1166065D01*
X1164338Y298984D01*
X1163016Y297662D01*
X1162301Y295935D01*
Y294065D01*
X1163016Y292338D01*
X1164338Y291016D01*
X1166065Y290301D01*
X1167935D01*
X1169662Y291016D01*
X1170984Y292338D01*
X1171699Y294065D01*
Y295935D01*
X1170984Y297662D01*
X1169662Y298984D01*
X1167935Y299699D01*
D02*
G37*
G36*
X1133935D02*
X1132065D01*
X1130338Y298984D01*
X1129016Y297662D01*
X1128301Y295935D01*
Y294065D01*
X1129016Y292338D01*
X1130338Y291016D01*
X1132065Y290301D01*
X1133935D01*
X1135662Y291016D01*
X1136984Y292338D01*
X1137699Y294065D01*
Y295935D01*
X1136984Y297662D01*
X1135662Y298984D01*
X1133935Y299699D01*
D02*
G37*
G36*
X1101935D02*
X1100065D01*
X1098338Y298984D01*
X1097016Y297662D01*
X1096301Y295935D01*
Y294065D01*
X1097016Y292338D01*
X1098338Y291016D01*
X1100065Y290301D01*
X1101935D01*
X1103662Y291016D01*
X1104984Y292338D01*
X1105699Y294065D01*
Y295935D01*
X1104984Y297662D01*
X1103662Y298984D01*
X1101935Y299699D01*
D02*
G37*
G36*
X990049Y300274D02*
X987951D01*
X986012Y299471D01*
X984529Y297987D01*
X983726Y296049D01*
Y293951D01*
X984529Y292013D01*
X986012Y290529D01*
X987951Y289726D01*
X990049D01*
X991988Y290529D01*
X993471Y292013D01*
X994274Y293951D01*
Y296049D01*
X993471Y297987D01*
X991988Y299471D01*
X990049Y300274D01*
D02*
G37*
G36*
X1191935Y267699D02*
X1190065D01*
X1188338Y266984D01*
X1187016Y265662D01*
X1186301Y263935D01*
Y262065D01*
X1187016Y260338D01*
X1188338Y259016D01*
X1190065Y258301D01*
X1191935D01*
X1193662Y259016D01*
X1194984Y260338D01*
X1195699Y262065D01*
Y263935D01*
X1194984Y265662D01*
X1193662Y266984D01*
X1191935Y267699D01*
D02*
G37*
G36*
X1265935Y251699D02*
X1264065D01*
X1262338Y250984D01*
X1261016Y249662D01*
X1260301Y247935D01*
Y246065D01*
X1261016Y244338D01*
X1262338Y243016D01*
X1264065Y242301D01*
X1265935D01*
X1267662Y243016D01*
X1268984Y244338D01*
X1269699Y246065D01*
Y247935D01*
X1268984Y249662D01*
X1267662Y250984D01*
X1265935Y251699D01*
D02*
G37*
G36*
X1233935D02*
X1232065D01*
X1230338Y250984D01*
X1229016Y249662D01*
X1228301Y247935D01*
Y246065D01*
X1229016Y244338D01*
X1230338Y243016D01*
X1232065Y242301D01*
X1233935D01*
X1235662Y243016D01*
X1236984Y244338D01*
X1237699Y246065D01*
Y247935D01*
X1236984Y249662D01*
X1235662Y250984D01*
X1233935Y251699D01*
D02*
G37*
G36*
X1133935D02*
X1132065D01*
X1130338Y250984D01*
X1129016Y249662D01*
X1128301Y247935D01*
Y246065D01*
X1129016Y244338D01*
X1130338Y243016D01*
X1132065Y242301D01*
X1133935D01*
X1135662Y243016D01*
X1136984Y244338D01*
X1137699Y246065D01*
Y247935D01*
X1136984Y249662D01*
X1135662Y250984D01*
X1133935Y251699D01*
D02*
G37*
G36*
X1101935D02*
X1100065D01*
X1098338Y250984D01*
X1097016Y249662D01*
X1096301Y247935D01*
Y246065D01*
X1097016Y244338D01*
X1098338Y243016D01*
X1100065Y242301D01*
X1101935D01*
X1103662Y243016D01*
X1104984Y244338D01*
X1105699Y246065D01*
Y247935D01*
X1104984Y249662D01*
X1103662Y250984D01*
X1101935Y251699D01*
D02*
G37*
G36*
X738049Y219274D02*
X735951D01*
X734013Y218471D01*
X732529Y216987D01*
X731726Y215049D01*
Y212951D01*
X732529Y211012D01*
X734013Y209529D01*
X735951Y208726D01*
X738049D01*
X739987Y209529D01*
X741471Y211012D01*
X742274Y212951D01*
Y215049D01*
X741471Y216987D01*
X739987Y218471D01*
X738049Y219274D01*
D02*
G37*
G36*
X1009000Y203849D02*
X1009000Y203849D01*
X786000D01*
X786000Y203849D01*
X784910Y203632D01*
X783986Y203014D01*
X783986Y203014D01*
X780986Y200014D01*
X780368Y199090D01*
X780151Y198000D01*
X780151Y198000D01*
Y184000D01*
X780151Y184000D01*
X780368Y182910D01*
X780986Y181986D01*
X785019Y177952D01*
X785019Y177952D01*
X785944Y177334D01*
X787034Y177118D01*
X804471D01*
X804529Y176979D01*
X806012Y175495D01*
X807951Y174692D01*
X810049D01*
X811988Y175495D01*
X813471Y176979D01*
X814274Y178917D01*
Y181015D01*
X813471Y182954D01*
X811988Y184437D01*
X810049Y185240D01*
X807951D01*
X806012Y184437D01*
X804529Y182954D01*
X804471Y182815D01*
X788214D01*
X785849Y185180D01*
Y196820D01*
X787180Y198151D01*
X966628D01*
X967154Y196881D01*
X966549Y196276D01*
X965746Y194338D01*
Y192239D01*
X966549Y190301D01*
X966600Y190250D01*
X966814Y189177D01*
X967852Y187622D01*
X969976Y185498D01*
Y179726D01*
X990024D01*
Y192274D01*
X976751D01*
X976294Y192731D01*
Y194338D01*
X975491Y196276D01*
X974886Y196881D01*
X975412Y198151D01*
X1007820D01*
X1009151Y196820D01*
Y136562D01*
X999647D01*
X999471Y136987D01*
X997988Y138471D01*
X996049Y139274D01*
X993951D01*
X992785Y138791D01*
X987024D01*
Y140274D01*
X966976D01*
Y127726D01*
X987024D01*
Y129209D01*
X992785D01*
X993951Y128726D01*
X996049D01*
X997988Y129529D01*
X999323Y130865D01*
X1010414D01*
X1010414Y130865D01*
X1011505Y131081D01*
X1012429Y131699D01*
X1014014Y133285D01*
X1014014Y133285D01*
X1014632Y134209D01*
X1014849Y135299D01*
X1014849Y135299D01*
Y198000D01*
X1014849Y198000D01*
X1014632Y199090D01*
X1014014Y200014D01*
X1014014Y200014D01*
X1011014Y203014D01*
X1010090Y203632D01*
X1009000Y203849D01*
D02*
G37*
G36*
X1265935Y203699D02*
X1264065D01*
X1262338Y202984D01*
X1261016Y201662D01*
X1260301Y199935D01*
Y198065D01*
X1261016Y196338D01*
X1262338Y195016D01*
X1264065Y194301D01*
X1265935D01*
X1267662Y195016D01*
X1268984Y196338D01*
X1269699Y198065D01*
Y199935D01*
X1268984Y201662D01*
X1267662Y202984D01*
X1265935Y203699D01*
D02*
G37*
G36*
X1233935D02*
X1232065D01*
X1230338Y202984D01*
X1229016Y201662D01*
X1228301Y199935D01*
Y198065D01*
X1229016Y196338D01*
X1230338Y195016D01*
X1232065Y194301D01*
X1233935D01*
X1235662Y195016D01*
X1236984Y196338D01*
X1237699Y198065D01*
Y199935D01*
X1236984Y201662D01*
X1235662Y202984D01*
X1233935Y203699D01*
D02*
G37*
G36*
X1199935D02*
X1198065D01*
X1196338Y202984D01*
X1195016Y201662D01*
X1194301Y199935D01*
Y198065D01*
X1195016Y196338D01*
X1196338Y195016D01*
X1198065Y194301D01*
X1199935D01*
X1201662Y195016D01*
X1202984Y196338D01*
X1203699Y198065D01*
Y199935D01*
X1202984Y201662D01*
X1201662Y202984D01*
X1199935Y203699D01*
D02*
G37*
G36*
X1167935D02*
X1166065D01*
X1164338Y202984D01*
X1163016Y201662D01*
X1162301Y199935D01*
Y198065D01*
X1163016Y196338D01*
X1164338Y195016D01*
X1166065Y194301D01*
X1167935D01*
X1169662Y195016D01*
X1170984Y196338D01*
X1171699Y198065D01*
Y199935D01*
X1170984Y201662D01*
X1169662Y202984D01*
X1167935Y203699D01*
D02*
G37*
G36*
X1133935D02*
X1132065D01*
X1130338Y202984D01*
X1129016Y201662D01*
X1128301Y199935D01*
Y198065D01*
X1129016Y196338D01*
X1130338Y195016D01*
X1132065Y194301D01*
X1133935D01*
X1135662Y195016D01*
X1136984Y196338D01*
X1137699Y198065D01*
Y199935D01*
X1136984Y201662D01*
X1135662Y202984D01*
X1133935Y203699D01*
D02*
G37*
G36*
X1101935D02*
X1100065D01*
X1098338Y202984D01*
X1097016Y201662D01*
X1096301Y199935D01*
Y198065D01*
X1097016Y196338D01*
X1098338Y195016D01*
X1100065Y194301D01*
X1101935D01*
X1103662Y195016D01*
X1104984Y196338D01*
X1105699Y198065D01*
Y199935D01*
X1104984Y201662D01*
X1103662Y202984D01*
X1101935Y203699D01*
D02*
G37*
G36*
X675006Y207024D02*
X672894D01*
X670853Y206477D01*
X669023Y205421D01*
X667529Y203927D01*
X666473Y202097D01*
X665926Y200056D01*
Y197944D01*
X666473Y195903D01*
X667529Y194073D01*
X669023Y192579D01*
X670853Y191523D01*
X672894Y190976D01*
X675006D01*
X677047Y191523D01*
X678877Y192579D01*
X680371Y194073D01*
X681427Y195903D01*
X681974Y197944D01*
Y200056D01*
X681427Y202097D01*
X680371Y203927D01*
X678877Y205421D01*
X677047Y206477D01*
X675006Y207024D01*
D02*
G37*
G36*
X578074D02*
X562026D01*
Y190976D01*
X578074D01*
Y207024D01*
D02*
G37*
G36*
X1893280Y205223D02*
X1883120D01*
X1880733Y204909D01*
X1878509Y203987D01*
X1876598Y202522D01*
X1875133Y200611D01*
X1874211Y198387D01*
X1873897Y196000D01*
X1874211Y193613D01*
X1875133Y191388D01*
X1876598Y189478D01*
X1878509Y188013D01*
X1880733Y187091D01*
X1883120Y186777D01*
X1893280D01*
X1895667Y187091D01*
X1897892Y188013D01*
X1899802Y189478D01*
X1901267Y191388D01*
X1902189Y193613D01*
X1902503Y196000D01*
X1902189Y198387D01*
X1901267Y200611D01*
X1899802Y202522D01*
X1897892Y203987D01*
X1895667Y204909D01*
X1893280Y205223D01*
D02*
G37*
G36*
X1690080D02*
X1679920D01*
X1677533Y204909D01*
X1675309Y203987D01*
X1673398Y202522D01*
X1671933Y200611D01*
X1671011Y198387D01*
X1670697Y196000D01*
X1671011Y193613D01*
X1671933Y191388D01*
X1673398Y189478D01*
X1675309Y188013D01*
X1677533Y187091D01*
X1679920Y186777D01*
X1690080D01*
X1692467Y187091D01*
X1694691Y188013D01*
X1696602Y189478D01*
X1698067Y191388D01*
X1698989Y193613D01*
X1699303Y196000D01*
X1698989Y198387D01*
X1698067Y200611D01*
X1696602Y202522D01*
X1694691Y203987D01*
X1692467Y204909D01*
X1690080Y205223D01*
D02*
G37*
G36*
X1893280Y179823D02*
X1883120D01*
X1880733Y179509D01*
X1878509Y178587D01*
X1876598Y177122D01*
X1875133Y175211D01*
X1874211Y172987D01*
X1873897Y170600D01*
X1874211Y168213D01*
X1875133Y165989D01*
X1876598Y164078D01*
X1878509Y162613D01*
X1880733Y161691D01*
X1883120Y161377D01*
X1893280D01*
X1895667Y161691D01*
X1897892Y162613D01*
X1899802Y164078D01*
X1901267Y165989D01*
X1902189Y168213D01*
X1902503Y170600D01*
X1902189Y172987D01*
X1901267Y175211D01*
X1899802Y177122D01*
X1897892Y178587D01*
X1895667Y179509D01*
X1893280Y179823D01*
D02*
G37*
G36*
X1690080D02*
X1679920D01*
X1677533Y179509D01*
X1675309Y178587D01*
X1673398Y177122D01*
X1671933Y175211D01*
X1671011Y172987D01*
X1670697Y170600D01*
X1671011Y168213D01*
X1671933Y165989D01*
X1673398Y164078D01*
X1675309Y162613D01*
X1677533Y161691D01*
X1679920Y161377D01*
X1690080D01*
X1692467Y161691D01*
X1694691Y162613D01*
X1696602Y164078D01*
X1698067Y165989D01*
X1698989Y168213D01*
X1699303Y170600D01*
X1698989Y172987D01*
X1698067Y175211D01*
X1696602Y177122D01*
X1694691Y178587D01*
X1692467Y179509D01*
X1690080Y179823D01*
D02*
G37*
G36*
X1265935Y155699D02*
X1264065D01*
X1262338Y154984D01*
X1261016Y153662D01*
X1260301Y151935D01*
Y150065D01*
X1261016Y148338D01*
X1262338Y147016D01*
X1264065Y146301D01*
X1265935D01*
X1267662Y147016D01*
X1268984Y148338D01*
X1269699Y150065D01*
Y151935D01*
X1268984Y153662D01*
X1267662Y154984D01*
X1265935Y155699D01*
D02*
G37*
G36*
X1233935D02*
X1232065D01*
X1230338Y154984D01*
X1229016Y153662D01*
X1228301Y151935D01*
Y150065D01*
X1229016Y148338D01*
X1230338Y147016D01*
X1232065Y146301D01*
X1233935D01*
X1235662Y147016D01*
X1236984Y148338D01*
X1237699Y150065D01*
Y151935D01*
X1236984Y153662D01*
X1235662Y154984D01*
X1233935Y155699D01*
D02*
G37*
G36*
X1199935D02*
X1198065D01*
X1196338Y154984D01*
X1195016Y153662D01*
X1194301Y151935D01*
Y150065D01*
X1195016Y148338D01*
X1196338Y147016D01*
X1198065Y146301D01*
X1199935D01*
X1201662Y147016D01*
X1202984Y148338D01*
X1203699Y150065D01*
Y151935D01*
X1202984Y153662D01*
X1201662Y154984D01*
X1199935Y155699D01*
D02*
G37*
G36*
X1167935D02*
X1166065D01*
X1164338Y154984D01*
X1163016Y153662D01*
X1162301Y151935D01*
Y150065D01*
X1163016Y148338D01*
X1164338Y147016D01*
X1166065Y146301D01*
X1167935D01*
X1169662Y147016D01*
X1170984Y148338D01*
X1171699Y150065D01*
Y151935D01*
X1170984Y153662D01*
X1169662Y154984D01*
X1167935Y155699D01*
D02*
G37*
G36*
X1133935D02*
X1132065D01*
X1130338Y154984D01*
X1129016Y153662D01*
X1128301Y151935D01*
Y150065D01*
X1129016Y148338D01*
X1130338Y147016D01*
X1132065Y146301D01*
X1133935D01*
X1135662Y147016D01*
X1136984Y148338D01*
X1137699Y150065D01*
Y151935D01*
X1136984Y153662D01*
X1135662Y154984D01*
X1133935Y155699D01*
D02*
G37*
G36*
X1101935D02*
X1100065D01*
X1098338Y154984D01*
X1097016Y153662D01*
X1096301Y151935D01*
Y150065D01*
X1097016Y148338D01*
X1098338Y147016D01*
X1100065Y146301D01*
X1101935D01*
X1103662Y147016D01*
X1104984Y148338D01*
X1105699Y150065D01*
Y151935D01*
X1104984Y153662D01*
X1103662Y154984D01*
X1101935Y155699D01*
D02*
G37*
G36*
X1023000Y210849D02*
X1023000Y210849D01*
X778000D01*
X776910Y210632D01*
X775986Y210014D01*
X775986Y210014D01*
X770986Y205014D01*
X770368Y204090D01*
X770151Y203000D01*
X770151Y203000D01*
Y171488D01*
X770151Y171488D01*
X770368Y170398D01*
X770986Y169473D01*
X772474Y167986D01*
X772474Y167986D01*
X773398Y167368D01*
X774488Y167151D01*
X778471D01*
X778529Y167013D01*
X780013Y165529D01*
X781951Y164726D01*
X784049D01*
X785987Y165529D01*
X787471Y167013D01*
X788274Y168951D01*
Y171049D01*
X787471Y172987D01*
X785987Y174471D01*
X784049Y175274D01*
X781951D01*
X780013Y174471D01*
X778529Y172987D01*
X778471Y172849D01*
X775849D01*
Y201820D01*
X779180Y205151D01*
X1021820D01*
X1025151Y201820D01*
Y131180D01*
X1017820Y123849D01*
X960180D01*
X956849Y127180D01*
Y144151D01*
X987942D01*
X988015Y143974D01*
X989499Y142491D01*
X991437Y141688D01*
X993536D01*
X995474Y142491D01*
X996958Y143974D01*
X997760Y145913D01*
Y148011D01*
X996958Y149949D01*
X995474Y151433D01*
X993536Y152236D01*
X991437D01*
X991294Y152176D01*
X990024Y153025D01*
Y164274D01*
X969976D01*
Y161849D01*
X960529D01*
X960471Y161987D01*
X958988Y163471D01*
X958849Y163529D01*
Y185000D01*
X958849Y185000D01*
X958632Y186090D01*
X958014Y187014D01*
X958014Y187014D01*
X952014Y193014D01*
X951090Y193632D01*
X950000Y193849D01*
X950000Y193849D01*
X874171D01*
X874171Y193849D01*
X873081Y193632D01*
X872157Y193014D01*
X872157Y193014D01*
X871991Y192849D01*
X800529D01*
X800471Y192987D01*
X798988Y194471D01*
X797049Y195274D01*
X794951D01*
X793012Y194471D01*
X791529Y192987D01*
X790726Y191049D01*
Y188951D01*
X791529Y187013D01*
X793012Y185529D01*
X794951Y184726D01*
X797049D01*
X798988Y185529D01*
X800471Y187013D01*
X800529Y187151D01*
X862897D01*
X863423Y185881D01*
X862529Y184988D01*
X861726Y183049D01*
Y180951D01*
X862529Y179013D01*
X864013Y177529D01*
X864151Y177471D01*
Y158529D01*
X864013Y158471D01*
X862529Y156987D01*
X861726Y155049D01*
Y152951D01*
X862529Y151012D01*
X864013Y149529D01*
X865951Y148726D01*
X868049D01*
X869987Y149529D01*
X871471Y151012D01*
X872274Y152951D01*
Y155049D01*
X871471Y156987D01*
X869987Y158471D01*
X869849Y158529D01*
Y177471D01*
X869987Y177529D01*
X871471Y179013D01*
X872274Y180951D01*
Y183049D01*
X871471Y184988D01*
X870577Y185881D01*
X871103Y187151D01*
X873171D01*
X873171Y187151D01*
X874261Y187368D01*
X875185Y187986D01*
X875351Y188151D01*
X948820D01*
X953151Y183820D01*
Y163529D01*
X953012Y163471D01*
X951529Y161987D01*
X950726Y160049D01*
Y157951D01*
X951529Y156012D01*
X953012Y154529D01*
X954951Y153726D01*
X957049D01*
X958988Y154529D01*
X960471Y156012D01*
X960529Y156151D01*
X969976D01*
Y151726D01*
X987275D01*
X987917Y150456D01*
X987470Y149849D01*
X946024D01*
Y153274D01*
X925976D01*
Y140726D01*
X946024D01*
Y144151D01*
X951151D01*
Y126000D01*
X951151Y126000D01*
X951368Y124910D01*
X951986Y123986D01*
X956986Y118986D01*
X956986Y118986D01*
X957910Y118368D01*
X959000Y118151D01*
X1019000D01*
X1019000Y118151D01*
X1020090Y118368D01*
X1021014Y118986D01*
X1030014Y127986D01*
X1030014Y127986D01*
X1030632Y128910D01*
X1030849Y130000D01*
Y203000D01*
X1030849Y203000D01*
X1030632Y204090D01*
X1030014Y205014D01*
X1025014Y210014D01*
X1024090Y210632D01*
X1023000Y210849D01*
D02*
G37*
G36*
X726929Y151428D02*
X724831D01*
X722893Y150625D01*
X721409Y149142D01*
X720606Y147203D01*
Y145105D01*
X721409Y143167D01*
X722893Y141683D01*
X724831Y140880D01*
X726929D01*
X727723Y141209D01*
X844785D01*
X845951Y140726D01*
X848049D01*
X849987Y141529D01*
X851471Y143013D01*
X852274Y144951D01*
Y147049D01*
X851471Y148988D01*
X849987Y150471D01*
X848049Y151274D01*
X845951D01*
X844785Y150791D01*
X728467D01*
X726929Y151428D01*
D02*
G37*
G36*
X1690080Y154423D02*
X1679920D01*
X1677533Y154109D01*
X1675309Y153187D01*
X1673398Y151722D01*
X1671933Y149811D01*
X1671011Y147587D01*
X1670697Y145200D01*
X1671011Y142813D01*
X1671933Y140589D01*
X1673398Y138678D01*
X1675309Y137213D01*
X1677533Y136291D01*
X1679920Y135977D01*
X1690080D01*
X1692467Y136291D01*
X1694691Y137213D01*
X1696602Y138678D01*
X1698067Y140589D01*
X1698989Y142813D01*
X1699303Y145200D01*
X1698989Y147587D01*
X1698067Y149811D01*
X1696602Y151722D01*
X1694691Y153187D01*
X1692467Y154109D01*
X1690080Y154423D01*
D02*
G37*
G36*
Y130048D02*
X1686270D01*
Y121070D01*
X1700161D01*
X1699978Y122452D01*
X1698955Y124924D01*
X1697326Y127046D01*
X1695204Y128675D01*
X1692732Y129698D01*
X1690080Y130048D01*
D02*
G37*
G36*
X1683730D02*
X1679920D01*
X1677268Y129698D01*
X1674796Y128675D01*
X1672674Y127046D01*
X1671045Y124924D01*
X1670022Y122452D01*
X1669839Y121070D01*
X1683730D01*
Y130048D01*
D02*
G37*
G36*
X851600Y138500D02*
X839600D01*
X838434Y138016D01*
X837950Y136850D01*
Y111350D01*
X838434Y110184D01*
X839600Y109700D01*
X851600D01*
X852766Y110184D01*
X853250Y111350D01*
Y136850D01*
X852766Y138016D01*
X851600Y138500D01*
D02*
G37*
G36*
X1700161Y118530D02*
X1686270D01*
Y109552D01*
X1690080D01*
X1692732Y109902D01*
X1695204Y110925D01*
X1697326Y112554D01*
X1698955Y114676D01*
X1699978Y117148D01*
X1700161Y118530D01*
D02*
G37*
G36*
X1683730D02*
X1669839D01*
X1670022Y117148D01*
X1671045Y114676D01*
X1672674Y112554D01*
X1674796Y110925D01*
X1677268Y109902D01*
X1679920Y109552D01*
X1683730D01*
Y118530D01*
D02*
G37*
G36*
X495049Y181274D02*
X492951D01*
X491012Y180471D01*
X489529Y178988D01*
X488726Y177049D01*
Y174951D01*
X489529Y173013D01*
X489856Y172685D01*
Y114000D01*
X490172Y112414D01*
X491070Y111070D01*
X494070Y108070D01*
X495414Y107172D01*
X497000Y106856D01*
X548685D01*
X549012Y106529D01*
X550951Y105726D01*
X553049D01*
X554987Y106529D01*
X556471Y108013D01*
X557274Y109951D01*
Y112049D01*
X556471Y113988D01*
X554987Y115471D01*
X553049Y116274D01*
X550951D01*
X549012Y115471D01*
X548685Y115144D01*
X498716D01*
X498144Y115716D01*
Y172685D01*
X498471Y173013D01*
X499274Y174951D01*
Y177049D01*
X498471Y178988D01*
X496987Y180471D01*
X495049Y181274D01*
D02*
G37*
G36*
X144835Y421045D02*
X131165D01*
Y406647D01*
X133209D01*
Y386000D01*
X133574Y384166D01*
X134612Y382612D01*
X140612Y376612D01*
X142167Y375574D01*
X144000Y375209D01*
X181058D01*
Y327000D01*
X181058Y327000D01*
X181193Y325972D01*
X181329Y324944D01*
X182122Y323029D01*
X183384Y321384D01*
X189379Y315389D01*
X189392Y315376D01*
X189395Y315374D01*
X189398Y315371D01*
X196384Y308384D01*
X196384Y308384D01*
X198029Y307122D01*
X199944Y306329D01*
X202000Y306058D01*
X202000Y306058D01*
X348710D01*
X352058Y302710D01*
Y136618D01*
X352058Y136618D01*
X352329Y134563D01*
X353122Y132647D01*
X354384Y131002D01*
X381814Y103572D01*
X383459Y102310D01*
X385375Y101517D01*
X387430Y101246D01*
X389486Y101517D01*
X391401Y102310D01*
X393046Y103572D01*
X394308Y105217D01*
X395101Y107132D01*
X395372Y109188D01*
X395101Y111243D01*
X394308Y113159D01*
X393046Y114804D01*
X367942Y139908D01*
Y306000D01*
X367671Y308055D01*
X366878Y309971D01*
X365616Y311616D01*
X357616Y319616D01*
X355971Y320878D01*
X354055Y321671D01*
X353028Y321807D01*
X352000Y321942D01*
X352000Y321942D01*
X205290D01*
X200634Y326597D01*
X200621Y326610D01*
X200618Y326613D01*
X200616Y326616D01*
X196942Y330290D01*
Y379000D01*
X196874Y379516D01*
Y381037D01*
X196337Y383039D01*
X195301Y384835D01*
X193835Y386301D01*
X192039Y387337D01*
X190037Y387874D01*
X187963D01*
X185961Y387337D01*
X184165Y386301D01*
X182699Y384835D01*
X182674Y384791D01*
X145984D01*
X142791Y387985D01*
Y406647D01*
X144835D01*
Y421045D01*
D02*
G37*
G36*
X946024Y125274D02*
X925976D01*
Y112726D01*
X931224D01*
Y108609D01*
X930756Y107480D01*
Y105381D01*
X931559Y103443D01*
X933042Y101959D01*
X934981Y101157D01*
X937079D01*
X937206Y101209D01*
X966976D01*
Y99726D01*
X987024D01*
Y112274D01*
X966976D01*
Y110791D01*
X940806D01*
Y112726D01*
X946024D01*
Y125274D01*
D02*
G37*
G36*
X1690080Y104648D02*
X1686270D01*
Y95670D01*
X1700161D01*
X1699978Y97052D01*
X1698955Y99524D01*
X1697326Y101646D01*
X1695204Y103275D01*
X1692732Y104298D01*
X1690080Y104648D01*
D02*
G37*
G36*
X1683730D02*
X1679920D01*
X1677268Y104298D01*
X1674796Y103275D01*
X1672674Y101646D01*
X1671045Y99524D01*
X1670022Y97052D01*
X1669839Y95670D01*
X1683730D01*
Y104648D01*
D02*
G37*
G36*
X1893280Y103623D02*
X1883120D01*
X1880733Y103309D01*
X1878509Y102387D01*
X1876598Y100922D01*
X1875133Y99011D01*
X1874211Y96787D01*
X1873897Y94400D01*
X1874211Y92013D01*
X1875133Y89789D01*
X1876598Y87878D01*
X1878509Y86413D01*
X1880733Y85491D01*
X1883120Y85177D01*
X1893280D01*
X1895667Y85491D01*
X1897892Y86413D01*
X1899802Y87878D01*
X1901267Y89789D01*
X1902189Y92013D01*
X1902503Y94400D01*
X1902189Y96787D01*
X1901267Y99011D01*
X1899802Y100922D01*
X1897892Y102387D01*
X1895667Y103309D01*
X1893280Y103623D01*
D02*
G37*
G36*
X1700161Y93130D02*
X1686270D01*
Y84152D01*
X1690080D01*
X1692732Y84501D01*
X1695204Y85525D01*
X1697326Y87154D01*
X1698955Y89276D01*
X1699978Y91748D01*
X1700161Y93130D01*
D02*
G37*
G36*
X1683730D02*
X1669839D01*
X1670022Y91748D01*
X1671045Y89276D01*
X1672674Y87154D01*
X1674796Y85525D01*
X1677268Y84501D01*
X1679920Y84152D01*
X1683730D01*
Y93130D01*
D02*
G37*
G36*
X1238533Y78059D02*
X1222424D01*
Y71349D01*
X1208524D01*
Y75024D01*
X1191476D01*
Y61976D01*
X1208524D01*
Y65651D01*
X1222424D01*
Y59941D01*
X1225948D01*
Y50274D01*
X1224476D01*
Y33726D01*
X1237524D01*
Y50274D01*
X1235530D01*
Y59941D01*
X1238533D01*
Y78059D01*
D02*
G37*
G36*
X851600Y104600D02*
X839600D01*
X838434Y104116D01*
X837950Y102950D01*
Y70850D01*
X838434Y69684D01*
X839600Y69200D01*
X851600D01*
X852766Y69684D01*
X853250Y70850D01*
Y102950D01*
X852766Y104116D01*
X851600Y104600D01*
D02*
G37*
G36*
X826200D02*
X814200D01*
X813034Y104116D01*
X812550Y102950D01*
Y70850D01*
X813034Y69684D01*
X814200Y69200D01*
X826200D01*
X827366Y69684D01*
X827850Y70850D01*
Y102950D01*
X827366Y104116D01*
X826200Y104600D01*
D02*
G37*
G36*
X800800D02*
X788800D01*
X787634Y104116D01*
X787150Y102950D01*
Y70850D01*
X787634Y69684D01*
X788800Y69200D01*
X800800D01*
X801966Y69684D01*
X802450Y70850D01*
Y102950D01*
X801966Y104116D01*
X800800Y104600D01*
D02*
G37*
G36*
X1044049Y79274D02*
X1041951D01*
X1040013Y78471D01*
X1038529Y76988D01*
X1037726Y75049D01*
Y72951D01*
X1038209Y71785D01*
Y68024D01*
X1034476D01*
Y66041D01*
X1026274D01*
Y67524D01*
X1009726D01*
Y54476D01*
X1026274D01*
Y56459D01*
X1034476D01*
Y54976D01*
X1051524D01*
Y68024D01*
X1047791D01*
Y71785D01*
X1048274Y72951D01*
Y75049D01*
X1047471Y76988D01*
X1045987Y78471D01*
X1044049Y79274D01*
D02*
G37*
G36*
X1186524Y65524D02*
X1169476D01*
Y61849D01*
X1158274D01*
Y64774D01*
X1141726D01*
Y61849D01*
X1131529D01*
X1131471Y61988D01*
X1129987Y63471D01*
X1128049Y64274D01*
X1125951D01*
X1124013Y63471D01*
X1122529Y61988D01*
X1121726Y60049D01*
Y57951D01*
X1122529Y56013D01*
X1124013Y54529D01*
X1125951Y53726D01*
X1128049D01*
X1129987Y54529D01*
X1131471Y56013D01*
X1131529Y56151D01*
X1141726D01*
Y52226D01*
X1158274D01*
Y56151D01*
X1169476D01*
Y52476D01*
X1185335D01*
X1186116Y52476D01*
X1186502Y51206D01*
X1186287Y51063D01*
X1184016Y48791D01*
X1158274D01*
Y49774D01*
X1141726D01*
Y47923D01*
X1132642D01*
X1131476Y48406D01*
X1129378D01*
X1127439Y47603D01*
X1125956Y46120D01*
X1125153Y44181D01*
Y42083D01*
X1125956Y40145D01*
X1127439Y38661D01*
X1129378Y37858D01*
X1131476D01*
X1132642Y38341D01*
X1141726D01*
Y37226D01*
X1158274D01*
Y39209D01*
X1186000D01*
X1187833Y39574D01*
X1189388Y40612D01*
X1191659Y42884D01*
X1198175D01*
X1198638Y42976D01*
X1208524D01*
Y56024D01*
X1191476D01*
Y52466D01*
X1189675D01*
X1187841Y52101D01*
X1187561Y51914D01*
X1186524Y52748D01*
X1186524Y53615D01*
Y65524D01*
D02*
G37*
G36*
X165924Y82524D02*
X144876D01*
Y61476D01*
X165924D01*
Y82524D01*
D02*
G37*
G36*
X105985D02*
X103215D01*
X100538Y81807D01*
X98138Y80421D01*
X96179Y78462D01*
X94793Y76062D01*
X94076Y73386D01*
Y70615D01*
X94793Y67938D01*
X96179Y65538D01*
X98138Y63579D01*
X100538Y62193D01*
X103215Y61476D01*
X105985D01*
X108662Y62193D01*
X111062Y63579D01*
X113021Y65538D01*
X114407Y67938D01*
X115124Y70615D01*
Y73386D01*
X114407Y76062D01*
X113021Y78462D01*
X111062Y80421D01*
X108662Y81807D01*
X105985Y82524D01*
D02*
G37*
G36*
X1893280Y78223D02*
X1883120D01*
X1880733Y77909D01*
X1878509Y76987D01*
X1876598Y75522D01*
X1875133Y73611D01*
X1874211Y71387D01*
X1873897Y69000D01*
X1874211Y66613D01*
X1875133Y64388D01*
X1876598Y62478D01*
X1878509Y61013D01*
X1880733Y60091D01*
X1883120Y59777D01*
X1893280D01*
X1895667Y60091D01*
X1897892Y61013D01*
X1899802Y62478D01*
X1901267Y64388D01*
X1902189Y66613D01*
X1902503Y69000D01*
X1902189Y71387D01*
X1901267Y73611D01*
X1899802Y75522D01*
X1897892Y76987D01*
X1895667Y77909D01*
X1893280Y78223D01*
D02*
G37*
G36*
X1690080D02*
X1679920D01*
X1677533Y77909D01*
X1675309Y76987D01*
X1673398Y75522D01*
X1671933Y73611D01*
X1671011Y71387D01*
X1670697Y69000D01*
X1671011Y66613D01*
X1671933Y64388D01*
X1673398Y62478D01*
X1675309Y61013D01*
X1677533Y60091D01*
X1679920Y59777D01*
X1690080D01*
X1692467Y60091D01*
X1694691Y61013D01*
X1696602Y62478D01*
X1698067Y64388D01*
X1698989Y66613D01*
X1699303Y69000D01*
X1698989Y71387D01*
X1698067Y73611D01*
X1696602Y75522D01*
X1694691Y76987D01*
X1692467Y77909D01*
X1690080Y78223D01*
D02*
G37*
G36*
X1334515Y57655D02*
Y52642D01*
X1339527D01*
X1338578Y54935D01*
X1336808Y56705D01*
X1334515Y57655D01*
D02*
G37*
G36*
X1331975D02*
X1329682Y56705D01*
X1327913Y54935D01*
X1326963Y52642D01*
X1331975D01*
Y57655D01*
D02*
G37*
G36*
X917418Y60307D02*
X915320D01*
X913381Y59504D01*
X911898Y58020D01*
X911095Y56082D01*
Y53984D01*
X911898Y52045D01*
X913381Y50562D01*
X915320Y49759D01*
X917418D01*
X919356Y50562D01*
X920840Y52045D01*
X921643Y53984D01*
Y56082D01*
X920840Y58020D01*
X919356Y59504D01*
X917418Y60307D01*
D02*
G37*
G36*
X1073524Y58524D02*
X1056476D01*
Y45476D01*
X1073524D01*
Y49372D01*
X1091844D01*
X1091902Y49233D01*
X1093385Y47750D01*
X1095324Y46947D01*
X1097422D01*
X1099360Y47750D01*
X1100844Y49233D01*
X1101647Y51172D01*
Y53270D01*
X1100844Y55208D01*
X1099360Y56692D01*
X1097422Y57495D01*
X1095324D01*
X1093385Y56692D01*
X1091902Y55208D01*
X1091844Y55070D01*
X1073524D01*
Y58524D01*
D02*
G37*
G36*
X1339527Y50103D02*
X1334515D01*
Y45090D01*
X1336808Y46040D01*
X1338578Y47810D01*
X1339527Y50103D01*
D02*
G37*
G36*
X1331975D02*
X1326963D01*
X1327913Y47810D01*
X1329682Y46040D01*
X1331975Y45090D01*
Y50103D01*
D02*
G37*
G36*
X1255524Y50274D02*
X1242476D01*
Y33726D01*
X1255524D01*
Y37209D01*
X1257785D01*
X1258951Y36726D01*
X1261049D01*
X1262988Y37529D01*
X1264471Y39012D01*
X1265274Y40951D01*
Y43049D01*
X1264471Y44988D01*
X1262988Y46471D01*
X1261049Y47274D01*
X1258951D01*
X1257785Y46791D01*
X1255524D01*
Y50274D01*
D02*
G37*
G36*
X992059Y51293D02*
X973941D01*
Y35185D01*
X992059D01*
Y40151D01*
X1009726D01*
Y36476D01*
X1026274D01*
Y39651D01*
X1034476D01*
Y35976D01*
X1051524D01*
Y49024D01*
X1034476D01*
Y45349D01*
X1026274D01*
Y49524D01*
X1009726D01*
Y45849D01*
X992059D01*
Y51293D01*
D02*
G37*
%LPD*%
G36*
X1475151Y821820D02*
Y812673D01*
X1473881Y812147D01*
X1452148Y833881D01*
X1452673Y835151D01*
X1461820D01*
X1475151Y821820D01*
D02*
G37*
G36*
X1449852Y807119D02*
X1449326Y805849D01*
X1334180D01*
X1325014Y815014D01*
X1324090Y815632D01*
X1323000Y815849D01*
X1323000Y815849D01*
X1306529D01*
X1306471Y815987D01*
X1305577Y816881D01*
X1306103Y818151D01*
X1438820D01*
X1449852Y807119D01*
D02*
G37*
G36*
X1315951Y768726D02*
X1317554D01*
X1319151Y767129D01*
Y633180D01*
X1296820Y610849D01*
X673529D01*
X673471Y610988D01*
X672335Y612123D01*
X672827Y613393D01*
X1290242D01*
X1290242Y613393D01*
X1291332Y613610D01*
X1292256Y614228D01*
X1317014Y638986D01*
X1317014Y638986D01*
X1317632Y639910D01*
X1317849Y641000D01*
X1317849Y641000D01*
Y763000D01*
X1317632Y764090D01*
X1317014Y765014D01*
X1317014Y765014D01*
X1313777Y768252D01*
X1314496Y769329D01*
X1315951Y768726D01*
D02*
G37*
G36*
X1337151Y768513D02*
Y621180D01*
X1314820Y598849D01*
X1307674D01*
X1307148Y600119D01*
X1335014Y627986D01*
X1335014Y627986D01*
X1335632Y628910D01*
X1335849Y630000D01*
X1335849Y630000D01*
Y769149D01*
X1335881Y769172D01*
X1337151Y768513D01*
D02*
G37*
G36*
X1449986Y798986D02*
X1449986Y798986D01*
X1450151Y798820D01*
Y599180D01*
X1439320Y588349D01*
X1432850D01*
X1432465Y589619D01*
X1433014Y589986D01*
X1446014Y602986D01*
X1446632Y603910D01*
X1446849Y605000D01*
X1446849Y605000D01*
Y792000D01*
X1446632Y793090D01*
X1446014Y794014D01*
X1446014Y794014D01*
X1441147Y798881D01*
X1441229Y799432D01*
X1441599Y800151D01*
X1448820D01*
X1449986Y798986D01*
D02*
G37*
G36*
X622469Y597337D02*
X621986Y597014D01*
X621986Y597014D01*
X615186Y590214D01*
X614568Y589290D01*
X614351Y588200D01*
X614351Y588200D01*
Y578369D01*
X613717Y578199D01*
X611659Y577011D01*
X609979Y575331D01*
X608791Y573273D01*
X608176Y570978D01*
Y568602D01*
X608791Y566307D01*
X609979Y564249D01*
X611659Y562569D01*
X613717Y561381D01*
X614696Y561119D01*
X614528Y559849D01*
X594472D01*
X594305Y561119D01*
X595283Y561381D01*
X597341Y562569D01*
X599021Y564249D01*
X600209Y566307D01*
X600824Y568602D01*
Y570978D01*
X600209Y573273D01*
X599021Y575331D01*
X597341Y577011D01*
X595283Y578199D01*
X594849Y578315D01*
Y592820D01*
X600636Y598607D01*
X622084D01*
X622469Y597337D01*
D02*
G37*
G36*
X598057Y603881D02*
X597442Y603470D01*
X597442Y603470D01*
X589986Y596014D01*
X589368Y595090D01*
X589151Y594000D01*
X589151Y594000D01*
Y578423D01*
X588317Y578199D01*
X586259Y577011D01*
X584579Y575331D01*
X583391Y573273D01*
X582776Y570978D01*
Y568602D01*
X583391Y566307D01*
X584579Y564249D01*
X586259Y562569D01*
X588317Y561381D01*
X589296Y561119D01*
X589128Y559849D01*
X569072D01*
X568904Y561119D01*
X569883Y561381D01*
X571941Y562569D01*
X573621Y564249D01*
X574809Y566307D01*
X575424Y568602D01*
Y570978D01*
X574809Y573273D01*
X573621Y575331D01*
X571941Y577011D01*
X569883Y578199D01*
X568849Y578476D01*
Y601820D01*
X572180Y605151D01*
X597697D01*
X598057Y603881D01*
D02*
G37*
G36*
X1443617Y823354D02*
X1464151Y802820D01*
Y540180D01*
X1442820Y518849D01*
X1170980D01*
X1170379Y520119D01*
X1170406Y520151D01*
X1441000D01*
X1441000Y520151D01*
X1442090Y520368D01*
X1443014Y520986D01*
X1461014Y538986D01*
X1461014Y538986D01*
X1461632Y539910D01*
X1461849Y541000D01*
Y802000D01*
X1461849Y802000D01*
X1461632Y803090D01*
X1461014Y804014D01*
X1461014Y804014D01*
X1443026Y822003D01*
X1443021Y822442D01*
X1443462Y823363D01*
X1443617Y823354D01*
D02*
G37*
G36*
X1480151Y521326D02*
Y509180D01*
X1447022Y476051D01*
X1445849Y476537D01*
Y488820D01*
X1478881Y521853D01*
X1480151Y521326D01*
D02*
G37*
G36*
X1167901Y434930D02*
X1161820Y428849D01*
X1157529D01*
X1157471Y428988D01*
X1155987Y430471D01*
X1154049Y431274D01*
X1151951D01*
X1150013Y430471D01*
X1148529Y428988D01*
X1147726Y427049D01*
X1146524Y427213D01*
Y440274D01*
X1147493Y441000D01*
X1167901D01*
Y434930D01*
D02*
G37*
G36*
X1320000Y381139D02*
X1235256D01*
X1233108Y383287D01*
Y393665D01*
X1233761Y394643D01*
X1233998Y395833D01*
Y405629D01*
X1235361Y406992D01*
X1236164Y408931D01*
Y411029D01*
X1235361Y412967D01*
X1233877Y414451D01*
X1231939Y415254D01*
X1229841D01*
X1227903Y414451D01*
X1226419Y412967D01*
X1225616Y411029D01*
Y408931D01*
X1226419Y406992D01*
X1227782Y405629D01*
Y397110D01*
X1227129Y396132D01*
X1226892Y394943D01*
Y382000D01*
X1227129Y380811D01*
X1227803Y379803D01*
X1231771Y375834D01*
X1232780Y375160D01*
X1233969Y374923D01*
X1320000D01*
Y363000D01*
X619000D01*
Y430122D01*
X620270Y430648D01*
X620763Y430155D01*
X622730Y429340D01*
Y435000D01*
X625270D01*
Y429340D01*
X627237Y430155D01*
X628337Y431255D01*
X629167Y431621D01*
X629996Y431255D01*
X631096Y430155D01*
X633063Y429340D01*
Y435000D01*
X635603D01*
Y429340D01*
X637571Y430155D01*
X638670Y431255D01*
X639500Y431621D01*
X640330Y431255D01*
X641429Y430155D01*
X643397Y429340D01*
Y435000D01*
X645937D01*
Y429340D01*
X647904Y430155D01*
X649004Y431255D01*
X649833Y431621D01*
X650663Y431255D01*
X651763Y430155D01*
X653730Y429340D01*
Y435000D01*
X656270D01*
Y429340D01*
X658237Y430155D01*
X659337Y431255D01*
X660167Y431621D01*
X660996Y431255D01*
X662096Y430155D01*
X664063Y429340D01*
Y435000D01*
X666603D01*
Y429340D01*
X668571Y430155D01*
X669670Y431255D01*
X670500Y431621D01*
X671330Y431255D01*
X672429Y430155D01*
X674397Y429340D01*
Y435000D01*
X676937D01*
Y429340D01*
X678904Y430155D01*
X680004Y431255D01*
X680833Y431621D01*
X681663Y431255D01*
X682763Y430155D01*
X684730Y429340D01*
Y435000D01*
X686000D01*
Y436270D01*
X691660D01*
X690845Y438237D01*
X689352Y439730D01*
X689421Y440265D01*
X689742Y441000D01*
X1091209D01*
Y435720D01*
X1091574Y433886D01*
X1092612Y432332D01*
X1096332Y428612D01*
X1097886Y427574D01*
X1099720Y427209D01*
X1115476D01*
Y423726D01*
X1128524D01*
Y440274D01*
X1129493Y441000D01*
X1132507D01*
X1133476Y440274D01*
Y423726D01*
X1137151D01*
Y420529D01*
X1137012Y420471D01*
X1135529Y418988D01*
X1134726Y417049D01*
Y414951D01*
X1135529Y413013D01*
X1137012Y411529D01*
X1138951Y410726D01*
X1141049D01*
X1142988Y411529D01*
X1144471Y413013D01*
X1145274Y414951D01*
Y417049D01*
X1144471Y418988D01*
X1142988Y420471D01*
X1142849Y420529D01*
Y423726D01*
X1146524D01*
Y424787D01*
X1147726Y424951D01*
X1148529Y423013D01*
X1150013Y421529D01*
X1151951Y420726D01*
X1154049D01*
X1155987Y421529D01*
X1157471Y423013D01*
X1157529Y423151D01*
X1163000D01*
X1163000Y423151D01*
X1164090Y423368D01*
X1165014Y423986D01*
X1172764Y431735D01*
X1172764Y431735D01*
X1173382Y432660D01*
X1173599Y433750D01*
Y441000D01*
X1320000D01*
Y381139D01*
D02*
G37*
G36*
X1297986Y343986D02*
X1297986Y343986D01*
X1298910Y343368D01*
X1300000Y343151D01*
X1300000Y343151D01*
X1427000D01*
X1427000Y343151D01*
X1428090Y343368D01*
X1429014Y343986D01*
X1438881Y353853D01*
X1439432Y353771D01*
X1440151Y353401D01*
Y351180D01*
X1429820Y340849D01*
X1297180D01*
X1282148Y355881D01*
X1282674Y357151D01*
X1284820D01*
X1297986Y343986D01*
D02*
G37*
%LPC*%
G36*
X691660Y433730D02*
X687270D01*
Y429340D01*
X689237Y430155D01*
X690845Y431763D01*
X691660Y433730D01*
D02*
G37*
G36*
X1254730Y429282D02*
X1252437Y428332D01*
X1250668Y426563D01*
X1250635Y426484D01*
X1249365D01*
X1249332Y426563D01*
X1247563Y428332D01*
X1245270Y429282D01*
Y423000D01*
Y416718D01*
X1247563Y417668D01*
X1249332Y419437D01*
X1249365Y419516D01*
X1250635D01*
X1250668Y419437D01*
X1252437Y417668D01*
X1254730Y416718D01*
Y423000D01*
Y429282D01*
D02*
G37*
G36*
X1267730D02*
X1265437Y428332D01*
X1263668Y426563D01*
X1263187Y425404D01*
X1261813D01*
X1261332Y426563D01*
X1259563Y428332D01*
X1257270Y429282D01*
Y423000D01*
Y416718D01*
X1259563Y417668D01*
X1261332Y419437D01*
X1261813Y420596D01*
X1263187D01*
X1263668Y419437D01*
X1265437Y417668D01*
X1267730Y416718D01*
Y423000D01*
Y429282D01*
D02*
G37*
G36*
X1280730D02*
X1278437Y428332D01*
X1276668Y426563D01*
X1276187Y425404D01*
X1274813D01*
X1274332Y426563D01*
X1272563Y428332D01*
X1270270Y429282D01*
Y423000D01*
Y416718D01*
X1272563Y417668D01*
X1274332Y419437D01*
X1274813Y420596D01*
X1276187D01*
X1276668Y419437D01*
X1278437Y417668D01*
X1280730Y416718D01*
Y423000D01*
Y429282D01*
D02*
G37*
G36*
X1283270D02*
Y424270D01*
X1288282D01*
X1287332Y426563D01*
X1285563Y428332D01*
X1283270Y429282D01*
D02*
G37*
G36*
X1242730D02*
X1240437Y428332D01*
X1238668Y426563D01*
X1237718Y424270D01*
X1242730D01*
Y429282D01*
D02*
G37*
G36*
X1288282Y421730D02*
X1283270D01*
Y416718D01*
X1285563Y417668D01*
X1287332Y419437D01*
X1288282Y421730D01*
D02*
G37*
G36*
X1242730D02*
X1237718D01*
X1238668Y419437D01*
X1240437Y417668D01*
X1242730Y416718D01*
Y421730D01*
D02*
G37*
%LPD*%
G36*
X881314Y786986D02*
X881314Y786986D01*
X882239Y786368D01*
X883329Y786151D01*
X883329Y786151D01*
X1021897D01*
X1022423Y784881D01*
X1021529Y783988D01*
X1021324Y783494D01*
X774255D01*
X772988Y784761D01*
X771049Y785564D01*
X768951D01*
X767012Y784761D01*
X765529Y783278D01*
X764726Y781339D01*
Y779241D01*
X765529Y777302D01*
X765809Y777022D01*
X765323Y775849D01*
X749529D01*
X749471Y775987D01*
X747988Y777471D01*
X746049Y778274D01*
X743951D01*
X742012Y777471D01*
X740529Y775987D01*
X739726Y774049D01*
Y771951D01*
X740529Y770013D01*
X741521Y769020D01*
X740995Y767750D01*
X723005D01*
X722479Y769020D01*
X723471Y770013D01*
X724274Y771951D01*
Y774049D01*
X723471Y775987D01*
X721988Y777471D01*
X721849Y777529D01*
Y781820D01*
X727180Y787151D01*
X881149D01*
X881314Y786986D01*
D02*
G37*
G36*
X1022008Y777073D02*
X1021462Y775849D01*
X775222D01*
X774618Y777094D01*
X775076Y777796D01*
X1021441D01*
X1022008Y777073D01*
D02*
G37*
G36*
X1107151Y824820D02*
Y783000D01*
X1107151Y783000D01*
X1107368Y781910D01*
X1107986Y780986D01*
X1118986Y769986D01*
X1118986Y769986D01*
X1119910Y769368D01*
X1121000Y769151D01*
X1126513D01*
X1127171Y767881D01*
X1127149Y767849D01*
X1095180D01*
X1091849Y771180D01*
Y803000D01*
X1091632Y804090D01*
X1091014Y805014D01*
X1091014Y805014D01*
X1086014Y810014D01*
X1085090Y810632D01*
X1084000Y810849D01*
X1084000Y810849D01*
X949180D01*
X932476Y827553D01*
X932796Y828344D01*
X933099Y828726D01*
X935049D01*
X936988Y829529D01*
X938471Y831012D01*
X938529Y831151D01*
X1100820D01*
X1107151Y824820D01*
D02*
G37*
G36*
X1040482Y768881D02*
X1039490Y767889D01*
X1039432Y767750D01*
X749005D01*
X748479Y769020D01*
X749471Y770013D01*
X749529Y770151D01*
X1039956D01*
X1040482Y768881D01*
D02*
G37*
G36*
X1029765Y760783D02*
X1029013Y760471D01*
X1027529Y758988D01*
X1027264Y758349D01*
X710110D01*
X708988Y759471D01*
X707049Y760274D01*
X704951D01*
X703012Y759471D01*
X701529Y757988D01*
X700726Y756049D01*
Y753951D01*
X701529Y752012D01*
X703012Y750529D01*
X704951Y749726D01*
X707049D01*
X708988Y750529D01*
X710471Y752012D01*
X710736Y752651D01*
X724397D01*
X724923Y751381D01*
X724529Y750987D01*
X723726Y749049D01*
Y746951D01*
X724529Y745013D01*
X726012Y743529D01*
X727951Y742726D01*
X730049D01*
X731988Y743529D01*
X733471Y745013D01*
X733529Y745151D01*
X754750D01*
X755003Y743881D01*
X754013Y743471D01*
X752529Y741988D01*
X751726Y740049D01*
Y737951D01*
X752529Y736012D01*
X754013Y734529D01*
X755951Y733726D01*
X758049D01*
X759987Y734529D01*
X761471Y736012D01*
X761529Y736151D01*
X776033D01*
X776485Y734881D01*
X775726Y733049D01*
Y730951D01*
X776529Y729013D01*
X776809Y728732D01*
X776323Y727559D01*
X698649D01*
X698471Y727988D01*
X696988Y729471D01*
X695049Y730274D01*
X692951D01*
X691012Y729471D01*
X689529Y727988D01*
X688726Y726049D01*
Y723951D01*
X689529Y722012D01*
X691012Y720529D01*
X692951Y719726D01*
X695049D01*
X696988Y720529D01*
X698320Y721861D01*
X802743D01*
X803365Y720591D01*
X802726Y719049D01*
Y716951D01*
X803529Y715013D01*
X805013Y713529D01*
X806951Y712726D01*
X809049D01*
X810987Y713529D01*
X812471Y715013D01*
X812529Y715151D01*
X832033D01*
X832485Y713881D01*
X831726Y712049D01*
Y709951D01*
X832529Y708012D01*
X834013Y706529D01*
X835951Y705726D01*
X838049D01*
X839987Y706529D01*
X841471Y708012D01*
X841529Y708151D01*
X917033D01*
X917485Y706881D01*
X916726Y705049D01*
Y702951D01*
X917485Y701119D01*
X917033Y699849D01*
X646967D01*
X646515Y701119D01*
X647274Y702951D01*
Y705049D01*
X646471Y706988D01*
X644987Y708471D01*
X644849Y708529D01*
Y752820D01*
X654082Y762053D01*
X1029512D01*
X1029765Y760783D01*
D02*
G37*
G36*
X1027696Y752119D02*
X1027061Y750849D01*
X734204D01*
X733825Y751381D01*
X734481Y752651D01*
X1027296D01*
X1027696Y752119D01*
D02*
G37*
G36*
X1030003Y743881D02*
X1029013Y743471D01*
X1027529Y741988D01*
X1027471Y741849D01*
X761529D01*
X761471Y741988D01*
X759987Y743471D01*
X758997Y743881D01*
X759250Y745151D01*
X1029750D01*
X1030003Y743881D01*
D02*
G37*
G36*
X1120151Y838820D02*
Y790000D01*
X1120151Y790000D01*
X1120368Y788910D01*
X1120986Y787986D01*
X1127986Y780986D01*
X1127986Y780986D01*
X1128910Y780368D01*
X1130000Y780151D01*
X1130000Y780151D01*
X1147820D01*
X1150151Y777820D01*
Y748000D01*
X1150151Y748000D01*
X1150368Y746910D01*
X1150986Y745986D01*
X1155442Y741529D01*
X1154916Y740259D01*
X1151769D01*
X1146849Y745180D01*
Y769000D01*
X1146632Y770090D01*
X1146014Y771014D01*
X1146014Y771014D01*
X1143014Y774014D01*
X1142090Y774632D01*
X1141000Y774849D01*
X1141000Y774849D01*
X1122180D01*
X1112849Y784180D01*
Y826000D01*
X1112849Y826000D01*
X1112632Y827090D01*
X1112014Y828014D01*
X1112014Y828014D01*
X1104014Y836014D01*
X1103090Y836632D01*
X1102000Y836849D01*
X1102000Y836849D01*
X938529D01*
X938471Y836988D01*
X936988Y838471D01*
X935049Y839274D01*
X934262D01*
X933615Y840544D01*
X934055Y841151D01*
X1117820D01*
X1120151Y838820D01*
D02*
G37*
G36*
X1026171Y736119D02*
X1025513Y734849D01*
X786851D01*
X786829Y734881D01*
X787487Y736151D01*
X1026149D01*
X1026171Y736119D01*
D02*
G37*
G36*
X908479Y727881D02*
X908252Y727559D01*
X786855D01*
X786176Y728829D01*
X786392Y729151D01*
X907821D01*
X908479Y727881D01*
D02*
G37*
G36*
X1026171Y715119D02*
X1025513Y713849D01*
X842851D01*
X842829Y713881D01*
X843487Y715151D01*
X1026149D01*
X1026171Y715119D01*
D02*
G37*
G36*
X896308Y692881D02*
X896002Y692448D01*
X635285D01*
X634606Y693718D01*
X634895Y694151D01*
X895651D01*
X896308Y692881D01*
D02*
G37*
G36*
X886529Y676012D02*
X888012Y674529D01*
X889003Y674119D01*
X888750Y672849D01*
X797351D01*
X796186Y674014D01*
X795261Y674632D01*
X794171Y674849D01*
X794171Y674849D01*
X686852D01*
X686829Y674881D01*
X687487Y676151D01*
X886471D01*
X886529Y676012D01*
D02*
G37*
G36*
X794157Y667986D02*
X794157Y667986D01*
X794706Y667619D01*
X794321Y666349D01*
X684457D01*
X684119Y667197D01*
X684077Y667619D01*
X685471Y669013D01*
X685529Y669151D01*
X792991D01*
X794157Y667986D01*
D02*
G37*
G36*
X926175Y659381D02*
X925796Y658849D01*
X540028D01*
X539684Y659381D01*
X540376Y660651D01*
X925519D01*
X926175Y659381D01*
D02*
G37*
G36*
X1753179Y514059D02*
X1754859Y512379D01*
X1756917Y511191D01*
X1758151Y510860D01*
Y483180D01*
X1750820Y475849D01*
X1744599D01*
X1744229Y476568D01*
X1744147Y477119D01*
X1751014Y483986D01*
X1751014Y483986D01*
X1751632Y484910D01*
X1751849Y486000D01*
X1751849Y486000D01*
Y513823D01*
X1753119Y514164D01*
X1753179Y514059D01*
D02*
G37*
D16*
X1266000Y872000D02*
X1272000Y878000D01*
X1214000Y872000D02*
X1266000D01*
X1240000Y866000D02*
X1482000D01*
X1501000Y847000D01*
X1230000Y856000D02*
X1240000Y866000D01*
X1230000Y828000D02*
Y856000D01*
X1243000Y850000D02*
X1485000D01*
X1493000Y842000D01*
X1241000Y848000D02*
X1243000Y850000D01*
X1241000Y823000D02*
Y848000D01*
X277529Y812471D02*
Y829987D01*
Y812471D02*
X293000Y797000D01*
X601000Y846000D02*
X608000Y853000D01*
X601000Y834000D02*
Y846000D01*
X608000Y853000D02*
X888000D01*
X593000Y834000D02*
X601000D01*
X585000Y842000D02*
X593000Y834000D01*
X1381870Y558750D02*
Y577414D01*
X1382000Y577544D01*
X1537232Y610776D02*
X1537465Y610544D01*
X1537000Y664000D02*
X1537232Y663768D01*
Y610776D02*
Y663768D01*
X1723309Y673000D02*
X1728309Y668000D01*
X1729000D01*
X1646000Y673000D02*
X1723309D01*
X1322000Y632000D02*
Y768308D01*
X1317000Y773308D02*
X1322000Y768308D01*
X1317000Y773308D02*
Y774000D01*
X1205000Y731000D02*
X1205133Y730867D01*
X1144000Y744000D02*
X1150589Y737411D01*
X1217589D02*
X1225000Y730000D01*
X1105000Y731000D02*
X1205000D01*
X1150589Y737411D02*
X1217589D01*
X681000Y672000D02*
X794171D01*
X796171Y670000D01*
X908000D01*
X781000Y732000D02*
X1044000D01*
X757000Y739000D02*
X1032000D01*
X571000Y608000D02*
X1298000D01*
X566000Y603000D02*
X571000Y608000D01*
X592000Y594000D02*
X599456Y601456D01*
X1304456D02*
X1333000Y630000D01*
X599456Y601456D02*
X1304456D01*
X1298000Y608000D02*
X1322000Y632000D01*
X1313000Y569000D02*
X1342000Y598000D01*
X827000Y548000D02*
X848000Y569000D01*
X1313000D01*
X844000Y576000D02*
X1308000D01*
X825000Y557000D02*
X844000Y576000D01*
X1308000D02*
X1339000Y607000D01*
X729000Y748000D02*
X1044000D01*
X1469310Y441999D02*
Y471310D01*
X1501000Y503000D01*
X1458000Y105000D02*
Y471000D01*
X1493000Y506000D01*
X1421000Y68000D02*
X1458000Y105000D01*
X353971Y703971D02*
X549061D01*
X329000Y679000D02*
X353971Y703971D01*
X329000Y381000D02*
Y679000D01*
Y381000D02*
X355000Y355000D01*
X387000Y360000D02*
X1286000D01*
X342000Y405000D02*
X387000Y360000D01*
X342000Y405000D02*
Y595000D01*
X1279000Y355000D02*
X1296000Y338000D01*
X355000Y355000D02*
X1279000D01*
X1296000Y338000D02*
X1431000D01*
X1443000Y350000D01*
Y490000D01*
X1483000Y508000D02*
Y836000D01*
X1447290Y131290D02*
Y472290D01*
X1483000Y508000D01*
X1443000Y490000D02*
X1478000Y525000D01*
X1463000Y838000D02*
X1478000Y823000D01*
Y525000D02*
Y823000D01*
X1261000Y838000D02*
X1463000D01*
X1269643Y832643D02*
X1449357D01*
X1473000Y809000D01*
X1261000Y824000D02*
X1269643Y832643D01*
X1255873Y832873D02*
X1261000Y838000D01*
X1255873Y817873D02*
Y832873D01*
X1250000Y812000D02*
X1255873Y817873D01*
X1248000Y821000D02*
Y838000D01*
X1237000Y810000D02*
X1248000Y821000D01*
Y838000D02*
X1254000Y844000D01*
X1214000Y810000D02*
X1237000D01*
X1286000Y360000D02*
X1300000Y346000D01*
X1427000D01*
X1437000Y356000D01*
X1420000Y104000D02*
X1447290Y131290D01*
X1437000Y356000D02*
Y496000D01*
X1444000Y516000D02*
X1467000Y539000D01*
X1150000Y505000D02*
X1161000Y516000D01*
X1444000D01*
X1437000Y496000D02*
X1473000Y532000D01*
Y809000D01*
X1444000Y827000D02*
X1467000Y804000D01*
Y539000D02*
Y804000D01*
X1276000Y827000D02*
X1444000D01*
X1493000Y506000D02*
Y842000D01*
X1254000Y844000D02*
X1475000D01*
X1483000Y836000D01*
X1266000Y817000D02*
X1276000Y827000D01*
X1266000Y801000D02*
Y817000D01*
X1261000Y805000D02*
Y824000D01*
X1251560Y802560D02*
X1258560D01*
X1251000Y802000D02*
X1251560Y802560D01*
X1258560D02*
X1261000Y805000D01*
X1279000Y821000D02*
X1440000D01*
X1459000Y541000D02*
Y802000D01*
X1440000Y821000D02*
X1459000Y802000D01*
X1501000Y503000D02*
Y847000D01*
X1551000Y280000D02*
Y825000D01*
X1500000Y876000D02*
X1551000Y825000D01*
Y280000D02*
X1578000Y253000D01*
X1569000Y275000D02*
X1649000D01*
X1559000Y285000D02*
Y834000D01*
X1579000Y284000D02*
X1902000D01*
X1530000Y890000D02*
X1567000Y853000D01*
Y296000D02*
X1579000Y284000D01*
X1578000Y253000D02*
X1813000D01*
X1559000Y285000D02*
X1569000Y275000D01*
X1567000Y296000D02*
Y853000D01*
X1508000Y885000D02*
X1559000Y834000D01*
X1225420Y818424D02*
X1236424D01*
X1241000Y823000D01*
X1667500Y645500D02*
X1721500D01*
X1722000Y646000D01*
X1667000Y645000D02*
X1667500Y645500D01*
X298000Y842000D02*
X585000D01*
X295786Y834113D02*
Y839786D01*
X298000Y842000D01*
X783000Y198000D02*
X786000Y201000D01*
X1009000D01*
X1012000Y198000D01*
X954000Y126000D02*
Y147000D01*
X959000Y121000D02*
X1019000D01*
X954000Y126000D02*
X959000Y121000D01*
X954000Y147000D02*
X992448D01*
X936000D02*
X954000D01*
X1019000Y121000D02*
X1028000Y130000D01*
Y203000D01*
X778000Y208000D02*
X1023000D01*
X1028000Y203000D01*
X773000Y171488D02*
X774488Y170000D01*
X773000Y171488D02*
Y203000D01*
X774488Y170000D02*
X783000D01*
X773000Y203000D02*
X778000Y208000D01*
X992448Y147000D02*
X992486Y146962D01*
X995287Y133713D02*
X1010414D01*
X995000Y134000D02*
X995287Y133713D01*
X1012000Y135299D02*
Y198000D01*
X1010414Y133713D02*
X1012000Y135299D01*
X783000Y184000D02*
Y198000D01*
X787034Y179966D02*
X809000D01*
X783000Y184000D02*
X787034Y179966D01*
X979000Y159000D02*
X980000Y158000D01*
X956000Y159000D02*
X979000D01*
X867000Y154000D02*
Y182000D01*
X873171Y190000D02*
X874171Y191000D01*
X950000D01*
X796000Y190000D02*
X873171D01*
X956000Y159000D02*
Y185000D01*
X950000Y191000D02*
X956000Y185000D01*
X1777000Y531000D02*
X1787000Y521000D01*
Y520000D02*
Y521000D01*
X1753000Y531000D02*
X1777000D01*
X1749000Y527000D02*
X1753000Y531000D01*
X1749000Y486000D02*
Y527000D01*
X1742000Y479000D02*
X1749000Y486000D01*
X1666000Y479000D02*
X1742000D01*
X1658800Y486200D02*
Y519600D01*
Y486200D02*
X1666000Y479000D01*
X1761000Y482000D02*
Y518000D01*
X1752000Y473000D02*
X1761000Y482000D01*
X1642000Y473000D02*
X1752000D01*
X1633400Y481600D02*
X1642000Y473000D01*
X1633400Y481600D02*
Y519600D01*
X1155000Y1004000D02*
X1311000D01*
X1147000Y1012000D02*
X1321000D01*
X1311000Y1004000D02*
X1321000Y994000D01*
X1145000D02*
X1155000Y1004000D01*
X1321000Y1012000D02*
X1330000Y1003000D01*
X1136000Y1001000D02*
X1147000Y1012000D01*
X1140000Y1021000D02*
X1332000D01*
X1129000Y1010000D02*
X1140000Y1021000D01*
X1332000D02*
X1338000Y1015000D01*
X1661300Y989628D02*
Y993000D01*
Y989628D02*
X1664000Y986928D01*
Y961000D02*
Y986928D01*
X1683000Y961000D02*
Y985928D01*
X1687000Y989928D01*
Y992000D01*
X1223000Y457239D02*
X1223489Y456750D01*
X1257000D01*
X1222761Y457000D02*
X1223000Y457239D01*
X1189750Y457000D02*
X1222761D01*
X1180000Y479250D02*
X1180250Y479000D01*
X1180000Y479250D02*
Y502000D01*
X1153000Y426000D02*
X1163000D01*
X1170750Y433750D02*
Y457000D01*
X1163000Y426000D02*
X1170750Y433750D01*
X1140000Y416000D02*
Y432000D01*
Y457000D01*
X1053000Y478250D02*
X1053750Y479000D01*
X1130500D01*
X1018000Y43000D02*
X1018500Y42500D01*
X1043000D01*
X983000Y43239D02*
X983239Y43000D01*
X1018000D01*
X1066000Y51000D02*
X1067221Y52221D01*
X1096373D01*
X1127000Y59000D02*
X1150000D01*
X1150000Y58500D02*
X1150500Y59000D01*
X1229978Y68500D02*
X1230478Y69000D01*
X1200000Y68500D02*
X1229978D01*
X1150500Y59000D02*
X1178000D01*
X1888000Y120000D02*
X1911000D01*
X1918000Y127000D02*
Y268000D01*
X1911000Y120000D02*
X1918000Y127000D01*
X1902000Y284000D02*
X1918000Y268000D01*
X1813000Y253000D02*
X1822000Y244000D01*
Y154000D02*
Y244000D01*
X1649000Y275000D02*
X1652000Y272000D01*
Y264000D02*
Y272000D01*
X1342000Y890000D02*
X1530000D01*
X1335000Y885000D02*
X1508000D01*
X1330000Y890000D02*
X1335000Y885000D01*
X1338000Y894000D02*
X1342000Y890000D01*
X1338000Y894000D02*
Y1015000D01*
X1129000Y951000D02*
Y1010000D01*
X1136000Y947000D02*
Y1001000D01*
X1145000Y943000D02*
Y994000D01*
X1123000Y945000D02*
X1129000Y951000D01*
X980000Y945000D02*
X1123000D01*
X979000Y946000D02*
X980000Y945000D01*
X953000Y946000D02*
X979000D01*
X951000Y929000D02*
Y944000D01*
X953000Y946000D01*
X1330000Y890000D02*
Y1003000D01*
X1126000Y937000D02*
X1136000Y947000D01*
X960000Y937000D02*
X1126000D01*
X1822000Y154000D02*
X1831000Y145000D01*
X1888000D01*
X1328000Y876000D02*
X1500000D01*
X1321000Y883000D02*
X1328000Y876000D01*
X1321000Y883000D02*
Y994000D01*
X968000Y929000D02*
X1131000D01*
X1145000Y943000D01*
X926598Y920000D02*
X1205000D01*
X883329Y789000D02*
X1041000D01*
X882329Y790000D02*
X883329Y789000D01*
X726000Y790000D02*
X882329D01*
X770355Y780645D02*
X1025645D01*
X1026000Y781000D01*
X719000Y783000D02*
X726000Y790000D01*
X661000Y797000D02*
X1027000D01*
X1164000Y753000D02*
Y844000D01*
Y753000D02*
X1168000Y749000D01*
X1138000Y870000D02*
X1164000Y844000D01*
X1189000Y795000D02*
X1260000D01*
X1196000Y787000D02*
X1261000D01*
X1260000Y795000D02*
X1266000Y801000D01*
X1271000Y797000D02*
Y813000D01*
X1279000Y821000D01*
X1261000Y787000D02*
X1271000Y797000D01*
X1452000Y801000D02*
X1453000Y800000D01*
X1302000Y813000D02*
X1323000D01*
X1333000Y803000D02*
X1450000D01*
X1452000Y801000D01*
X1323000Y813000D02*
X1333000Y803000D01*
X1316000Y806045D02*
X1325045Y797000D01*
X1439000D01*
X1444000Y792000D01*
X1167000Y502000D02*
X1180000D01*
X1167274Y525064D02*
X1169338Y523000D01*
X1441000D01*
X1459000Y541000D01*
X1453000Y598000D02*
Y800000D01*
X1440500Y585500D02*
X1453000Y598000D01*
X1150000Y480000D02*
Y505000D01*
X1012000Y104000D02*
X1420000D01*
X983000Y75000D02*
X1012000Y104000D01*
X983000Y62761D02*
Y75000D01*
X1252000Y68000D02*
X1421000D01*
X1357500Y585500D02*
X1440500D01*
X1444000Y605000D02*
Y792000D01*
X1431000Y592000D02*
X1444000Y605000D01*
X1437000Y610000D02*
Y676000D01*
X1347000Y592000D02*
X1431000D01*
X1342000Y598000D02*
X1425000D01*
X1437000Y610000D01*
X1427000Y617000D02*
Y665000D01*
X1339000Y607000D02*
X1417000D01*
X1427000Y617000D01*
X916000Y840000D02*
Y928000D01*
X859000Y947000D02*
Y1003000D01*
X870000Y936000D02*
X908000D01*
X859000Y947000D02*
X870000Y936000D01*
X908000D02*
X916000Y928000D01*
X272000Y796000D02*
Y807000D01*
Y796000D02*
X280809Y787191D01*
X253000Y896000D02*
X261000Y904000D01*
X752000D01*
X769000Y921000D02*
X893000D01*
X752000Y904000D02*
X769000Y921000D01*
X926431Y920166D02*
X926598Y920000D01*
X562000Y897000D02*
X758000D01*
X767591Y906591D02*
X905998D01*
X758000Y897000D02*
X767591Y906591D01*
X930000Y907000D02*
X1210000D01*
X1211000Y938000D02*
X1222000Y927000D01*
X1187000Y942000D02*
X1191000Y938000D01*
X1211000D01*
X1222000Y907000D02*
Y927000D01*
X1187000Y942000D02*
Y974000D01*
X1422000Y670000D02*
X1427000Y665000D01*
X1393000Y670000D02*
X1422000D01*
X1429000Y684000D02*
X1437000Y676000D01*
X1393000Y684000D02*
X1429000D01*
X1316000Y596000D02*
X1340000Y620000D01*
X1185000Y596000D02*
X1316000D01*
X1340000Y620000D02*
Y781000D01*
X1333000Y630000D02*
Y775000D01*
X1315000Y560000D02*
X1347000Y592000D01*
X849000Y560000D02*
X1315000D01*
X871000Y547000D02*
X1319000D01*
X1357500Y585500D01*
X546000Y557000D02*
X825000D01*
X541000Y531000D02*
Y552000D01*
X546000Y557000D01*
X569000Y548000D02*
X827000D01*
X846000Y549000D02*
Y557000D01*
X849000Y560000D01*
X566400Y545400D02*
X569000Y548000D01*
X566400Y531000D02*
Y545400D01*
X624000Y595000D02*
X1184000D01*
X617200Y588200D02*
X624000Y595000D01*
X1247000Y780000D02*
X1285000D01*
X1291000Y786000D02*
X1335000D01*
X1285000Y780000D02*
X1291000Y786000D01*
X1335000D02*
X1340000Y781000D01*
X1184000Y595000D02*
X1185000Y596000D01*
X617200Y569790D02*
Y588200D01*
X592000Y569000D02*
Y594000D01*
X566000Y569000D02*
Y603000D01*
X650000Y616000D02*
X650242Y616242D01*
X1290242D01*
X943000Y630000D02*
X949000Y636000D01*
X548000Y630000D02*
X943000D01*
X1290242Y616242D02*
X1315000Y641000D01*
X541000Y623000D02*
X548000Y630000D01*
X1221810Y623810D02*
X1227000Y629000D01*
Y656000D01*
X1160190Y623810D02*
X1221810D01*
X1157000Y627000D02*
Y660000D01*
Y627000D02*
X1160190Y623810D01*
X541000Y572000D02*
Y623000D01*
X540000Y571000D02*
X541000Y572000D01*
X1315000Y641000D02*
Y763000D01*
X1311000Y767000D02*
X1315000Y763000D01*
X1301000Y767000D02*
X1311000D01*
X905051Y856396D02*
Y879000D01*
X139000Y886000D02*
X898000D01*
X905000Y879000D01*
X135000Y824000D02*
Y882000D01*
X139000Y886000D01*
X923369Y855887D02*
X1134113D01*
X1152000Y820000D02*
Y838000D01*
X1134113Y855887D02*
X1152000Y838000D01*
X1168000Y749000D02*
X1241000D01*
X1144000Y744000D02*
Y769000D01*
X1153000Y748000D02*
X1158000Y743000D01*
X1149000Y783000D02*
X1153000Y779000D01*
Y748000D02*
Y779000D01*
X1141000Y772000D02*
X1144000Y769000D01*
X1158000Y743000D02*
X1224658D01*
X1063000Y689000D02*
X1105000Y731000D01*
X931000Y870000D02*
X1138000D01*
X927000Y689000D02*
X1063000D01*
X949000Y636000D02*
X1141000D01*
X931500Y639500D02*
X932000Y640000D01*
X606000Y639000D02*
X606500Y639500D01*
X931500D01*
X947500Y663500D02*
X948000Y663000D01*
X502000Y664000D02*
X502500Y663500D01*
X947500D01*
X897500Y648500D02*
X947500D01*
X948000Y649000D01*
X897000Y648000D02*
X897500Y648500D01*
X535017Y656000D02*
X931000D01*
X490000Y690000D02*
X490401Y689599D01*
X900571D02*
X900972Y689198D01*
X908000Y670000D02*
X927000Y689000D01*
X490401Y689599D02*
X900571D01*
X515484Y679000D02*
X891000D01*
X515463Y678979D02*
X515484Y679000D01*
X534710Y656307D02*
X535017Y656000D01*
X1226658Y741000D02*
X1228000D01*
X1224658Y743000D02*
X1226658Y741000D01*
X1225000Y730000D02*
X1239000D01*
X1130000Y783000D02*
X1149000D01*
X1123000Y790000D02*
Y840000D01*
Y790000D02*
X1130000Y783000D01*
X1119000Y844000D02*
X1123000Y840000D01*
X929000Y844000D02*
X1119000D01*
X934000Y834000D02*
X1102000D01*
X657000Y803000D02*
X893000D01*
X901000Y811000D02*
Y844000D01*
X893000Y803000D02*
X901000Y811000D01*
X916000Y840000D02*
X948000Y808000D01*
X1084000D01*
X619779Y787191D02*
X641191D01*
X657000Y803000D01*
X839000Y812000D02*
X862000Y835000D01*
X641000Y797000D02*
X656000Y812000D01*
X839000D01*
X862000Y835000D02*
X876000D01*
X280809Y787191D02*
X619779D01*
X657000Y779000D02*
Y793000D01*
X661000Y797000D01*
X603000D02*
X641000D01*
X293000D02*
X603000D01*
X1121000Y772000D02*
X1141000D01*
X1110000Y783000D02*
X1121000Y772000D01*
X1110000Y783000D02*
Y826000D01*
X1102000Y834000D02*
X1110000Y826000D01*
X1084000Y808000D02*
X1089000Y803000D01*
X808000Y718000D02*
X1032000D01*
X922000Y704000D02*
X1032000D01*
X837000Y711000D02*
X1044000D01*
X1210899Y588065D02*
X1210984Y587980D01*
X1180706Y588065D02*
X1210899D01*
X1511000Y609175D02*
X1511186Y608989D01*
X1511000Y609175D02*
Y664000D01*
X1200000Y966000D02*
X1248000D01*
Y895000D02*
Y966000D01*
X1298799D01*
X1287000Y941000D02*
X1287833Y940167D01*
X1305062D01*
X1192000Y979000D02*
X1197000D01*
X1187000Y974000D02*
X1192000Y979000D01*
X1089000Y770000D02*
Y803000D01*
Y770000D02*
X1094000Y765000D01*
X1133000D01*
X770000Y780290D02*
X770355Y780645D01*
X745000Y773000D02*
X1056000D01*
X694000Y725000D02*
X694290Y724710D01*
X913710D01*
X914000Y725000D01*
X706000Y755000D02*
X706500Y755500D01*
X1031500D01*
X1032000Y756000D01*
X719000Y773000D02*
Y783000D01*
X652902Y764902D02*
X1043961D01*
X642000Y754000D02*
X652902Y764902D01*
X629519Y696833D02*
X629686Y697000D01*
X1045000D01*
X642000Y704000D02*
Y754000D01*
D36*
X1018000Y61000D02*
D03*
Y43000D02*
D03*
D37*
X1250000Y69000D02*
D03*
X1230478D02*
D03*
D44*
X1150000Y58500D02*
D03*
Y43500D02*
D03*
D66*
X1181000Y639000D02*
D03*
Y651000D02*
D03*
D83*
X980000Y158000D02*
D03*
Y186000D02*
D03*
X936000Y147000D02*
D03*
Y119000D02*
D03*
X977000Y134000D02*
D03*
Y106000D02*
D03*
D98*
X1065000Y52000D02*
D03*
X1043000Y61500D02*
D03*
Y42500D02*
D03*
X1178000Y59000D02*
D03*
X1200000Y49500D02*
D03*
Y68500D02*
D03*
D136*
X986500Y1004000D02*
D03*
X961100D02*
D03*
X935700D02*
D03*
X910300D02*
D03*
X884900D02*
D03*
D137*
X859500D02*
D03*
D138*
X782000Y31400D02*
D03*
X867000D02*
D03*
X1272000Y878000D02*
D03*
X1542000Y814000D02*
D03*
X1521000D02*
D03*
X277529Y829987D02*
D03*
X601000Y834000D02*
D03*
X1382000Y577544D02*
D03*
X1537000Y664000D02*
D03*
X1646000Y673000D02*
D03*
X1594000Y733000D02*
D03*
Y762000D02*
D03*
X1652000Y735000D02*
D03*
X1668000Y734000D02*
D03*
X1317000Y774000D02*
D03*
X1205133Y730867D02*
D03*
X681000Y672000D02*
D03*
X781000Y732000D02*
D03*
X669000Y608000D02*
D03*
X729000Y748000D02*
D03*
X1469310Y441999D02*
D03*
X630937Y727810D02*
D03*
X549061Y703971D02*
D03*
X1250000Y812000D02*
D03*
X342000Y595000D02*
D03*
X1412000Y454000D02*
D03*
X1251000Y802000D02*
D03*
X1439988Y320376D02*
D03*
X1468000Y321000D02*
D03*
X1329000Y858000D02*
D03*
X168000Y594000D02*
D03*
X143640Y633242D02*
D03*
X138000Y443000D02*
D03*
X1668000Y327000D02*
D03*
X1576000Y318000D02*
D03*
X1537000Y319000D02*
D03*
X990000Y321000D02*
D03*
X1230890Y409980D02*
D03*
X1403973Y378031D02*
D03*
X1575000Y378000D02*
D03*
X1615313Y378031D02*
D03*
X1230000Y828000D02*
D03*
X1225420Y818424D02*
D03*
X1374000Y498000D02*
D03*
X1273000Y454000D02*
D03*
X1181000Y633000D02*
D03*
X1722000Y646000D02*
D03*
X667000Y787000D02*
D03*
X308508Y720602D02*
D03*
X385000Y771000D02*
D03*
X971020Y193288D02*
D03*
X783000Y170000D02*
D03*
X992486Y146962D02*
D03*
X809000Y179966D02*
D03*
X995000Y134000D02*
D03*
X916369Y55033D02*
D03*
X725880Y146154D02*
D03*
X847000Y146000D02*
D03*
X737000Y214000D02*
D03*
X867000Y182000D02*
D03*
Y154000D02*
D03*
X796000Y190000D02*
D03*
X956000Y159000D02*
D03*
X1433000Y914000D02*
D03*
X1270000Y473000D02*
D03*
X1037000Y462000D02*
D03*
X989000Y295000D02*
D03*
X1260000Y42000D02*
D03*
X936030Y106431D02*
D03*
X1043000Y74000D02*
D03*
X1130427Y43132D02*
D03*
X33000Y623000D02*
D03*
X46843Y647025D02*
D03*
X60000Y742000D02*
D03*
X1827667Y738830D02*
D03*
X1944000Y573000D02*
D03*
X1764224Y587708D02*
D03*
X1085387Y959532D02*
D03*
X1089000Y1029000D02*
D03*
X1333245Y51372D02*
D03*
X1668000Y803000D02*
D03*
X1655000Y804000D02*
D03*
X1630000Y765000D02*
D03*
X1821000Y805000D02*
D03*
X1890328Y859042D02*
D03*
X1162650Y967265D02*
D03*
X1044414Y862961D02*
D03*
X1287000Y714000D02*
D03*
X1178000Y664000D02*
D03*
X1220330Y675364D02*
D03*
X1070073Y678733D02*
D03*
X980000Y725000D02*
D03*
X690913Y779987D02*
D03*
X1406000Y498000D02*
D03*
X1282000Y423000D02*
D03*
X1269000D02*
D03*
X1256000D02*
D03*
X1244000D02*
D03*
X1153000Y426000D02*
D03*
X1140000Y416000D02*
D03*
X1096373Y52221D02*
D03*
X1127000Y59000D02*
D03*
X1652000Y264000D02*
D03*
X951000Y929000D02*
D03*
X960000Y937000D02*
D03*
X968000Y929000D02*
D03*
X1041000Y789000D02*
D03*
X1026000Y781000D02*
D03*
X1027000Y797000D02*
D03*
X1189000Y795000D02*
D03*
X1196000Y787000D02*
D03*
X1316000Y806045D02*
D03*
X1167000Y502000D02*
D03*
X1167274Y525064D02*
D03*
X1214000Y810000D02*
D03*
X1381870Y558750D02*
D03*
X272000Y807000D02*
D03*
X253000Y896000D02*
D03*
X893000Y921000D02*
D03*
X926431Y920166D02*
D03*
X1205000Y920000D02*
D03*
X562000Y897000D02*
D03*
X905998Y906591D02*
D03*
X930000Y907000D02*
D03*
X1210000D02*
D03*
X1222000D02*
D03*
X1667000Y645000D02*
D03*
X1729000Y668000D02*
D03*
X1393000Y684000D02*
D03*
Y670000D02*
D03*
X846000Y549000D02*
D03*
X871000Y547000D02*
D03*
X1302000Y813000D02*
D03*
X1247000Y780000D02*
D03*
X1333000Y775000D02*
D03*
X650000Y616000D02*
D03*
X1301000Y767000D02*
D03*
X1214000Y872000D02*
D03*
X1227000Y656000D02*
D03*
X1157000Y660000D02*
D03*
X135000Y824000D02*
D03*
X905051Y856396D02*
D03*
X923369Y855887D02*
D03*
X1152000Y820000D02*
D03*
X931000Y870000D02*
D03*
X1141000Y636000D02*
D03*
X606000Y639000D02*
D03*
X932000Y640000D02*
D03*
X948000Y663000D02*
D03*
X897000Y648000D02*
D03*
X891000Y679000D02*
D03*
X948000Y649000D02*
D03*
X502000Y664000D02*
D03*
X534710Y656307D02*
D03*
X931000Y656000D02*
D03*
X1228000Y741000D02*
D03*
X1241000Y749000D02*
D03*
X929000Y844000D02*
D03*
X934000Y834000D02*
D03*
X901000Y844000D02*
D03*
X876000Y835000D02*
D03*
X619779Y787191D02*
D03*
X657000Y779000D02*
D03*
X603000Y797000D02*
D03*
X888000Y853000D02*
D03*
X1239000Y730000D02*
D03*
X295786Y834113D02*
D03*
X1032000Y718000D02*
D03*
Y704000D02*
D03*
X1210984Y587980D02*
D03*
X1180706Y588065D02*
D03*
X1511186Y608989D02*
D03*
X1511000Y664000D02*
D03*
X1537465Y610544D02*
D03*
X1298859Y966060D02*
D03*
X1287000Y941000D02*
D03*
X1305062Y940167D02*
D03*
X1197000Y979000D02*
D03*
X1200000Y966000D02*
D03*
X1248000Y895000D02*
D03*
X1133000Y765000D02*
D03*
X1056000Y773000D02*
D03*
X515463Y678979D02*
D03*
X490000Y690000D02*
D03*
X900972Y689198D02*
D03*
X694000Y725000D02*
D03*
X914000D02*
D03*
X706000Y755000D02*
D03*
X719000Y773000D02*
D03*
X745000D02*
D03*
X770000Y780290D02*
D03*
X629519Y696833D02*
D03*
X1045000Y697000D02*
D03*
X922000Y704000D02*
D03*
X837000Y711000D02*
D03*
X1044000D02*
D03*
X808000Y718000D02*
D03*
X1044000Y732000D02*
D03*
X757000Y739000D02*
D03*
X1032000D02*
D03*
X1044000Y748000D02*
D03*
X1032000Y756000D02*
D03*
X642000Y704000D02*
D03*
X1043961Y764902D02*
D03*
X552000Y111000D02*
D03*
X494000Y176000D02*
D03*
X387430Y109188D02*
D03*
D141*
X570050Y199000D02*
D03*
D142*
X673950D02*
D03*
D143*
X109000Y941000D02*
D03*
D144*
Y866500D02*
D03*
D153*
X1652000Y735000D02*
Y799795D01*
X1668000Y734000D02*
Y803000D01*
X1273000Y454000D02*
X1412000D01*
X990000Y321000D02*
X1439364D01*
X1439988Y320376D01*
X1535795Y319000D02*
X1537000D01*
X1533795Y321000D02*
X1535795Y319000D01*
X1468000Y321000D02*
X1533795D01*
X163035Y597760D02*
X166795Y594000D01*
X168000D01*
X143103Y597760D02*
X163035D01*
X143103Y614068D02*
X143640Y614605D01*
Y633242D01*
X138000Y430154D02*
Y443000D01*
X1576000Y318000D02*
X1659000D01*
X1668000Y327000D01*
X1230000Y382000D02*
Y394943D01*
X1230890Y395833D02*
Y409980D01*
X1230000Y394943D02*
X1230890Y395833D01*
X1230000Y382000D02*
X1233969Y378031D01*
X1403973D01*
X1575016Y378016D02*
X1615297D01*
X1575000Y378000D02*
X1575016Y378016D01*
X1615297D02*
X1615313Y378031D01*
X1652000Y799795D02*
X1655000Y802795D01*
Y804000D01*
X1634000Y992000D02*
X1635900Y990100D01*
Y944100D02*
Y990100D01*
X1641900Y938100D02*
X1673500D01*
X1635900Y944100D02*
X1641900Y938100D01*
X1178024Y653226D02*
Y653976D01*
X1178000Y654000D02*
X1178024Y653976D01*
X1178000Y654000D02*
Y664000D01*
X1180250Y651000D02*
X1181000D01*
X1178024Y653226D02*
X1180250Y651000D01*
D159*
X1684000Y545000D02*
X1684200Y545200D01*
X1374000Y498000D02*
X1406000D01*
X1939000Y568000D02*
X1944000Y573000D01*
X1715000Y568000D02*
X1939000D01*
X1709600Y562600D02*
X1715000Y568000D01*
X1709600Y545000D02*
Y562600D01*
X1684200Y545200D02*
Y580200D01*
X1691708Y587708D02*
X1764224D01*
X1684200Y580200D02*
X1691708Y587708D01*
X1085387Y959532D02*
X1089000Y963145D01*
Y1029000D01*
X497000Y111000D02*
X552000D01*
X494000Y114000D02*
X497000Y111000D01*
X494000Y114000D02*
Y176000D01*
D160*
X1521000Y814000D02*
X1542000D01*
X1594000Y733000D02*
Y762000D01*
X1181000Y633000D02*
Y639000D01*
X1364000Y538000D02*
X1403000D01*
X971240Y191010D02*
X976250Y186000D01*
X971240Y191010D02*
Y193069D01*
X976250Y186000D02*
X980000D01*
X971020Y193288D02*
X971240Y193069D01*
X977000Y134000D02*
X977000Y134000D01*
X995000D01*
X725880Y146154D02*
X726034Y146000D01*
X847000D01*
X1257000Y473250D02*
X1257125Y473125D01*
X1269875D01*
X1270000Y473000D01*
X1255245Y475005D02*
X1257000Y473250D01*
X1223000Y476761D02*
X1224755Y475005D01*
X1255245D01*
X1096000Y435720D02*
Y459239D01*
X1099720Y432000D02*
X1122000D01*
X1096000Y435720D02*
X1099720Y432000D01*
X1094745Y460495D02*
X1096000Y459239D01*
X1054255Y460495D02*
X1094745D01*
X1053000Y461750D02*
X1054255Y460495D01*
X1037000Y462000D02*
X1037125Y461875D01*
X1052875D02*
X1053000Y461750D01*
X1037125Y461875D02*
X1052875D01*
X1249000Y42000D02*
X1260000D01*
X1230739Y42261D02*
Y68739D01*
Y42261D02*
X1231000Y42000D01*
X1230478Y69000D02*
X1230739Y68739D01*
X936015Y106446D02*
Y118985D01*
Y106446D02*
X936030Y106431D01*
X936000Y119000D02*
X936015Y118985D01*
X936030Y106431D02*
X936460Y106000D01*
X977000D01*
X1043000Y61500D02*
Y74000D01*
X1042750Y61250D02*
X1043000Y61500D01*
X1018000Y61000D02*
X1018250Y61250D01*
X1042750D01*
X1130427Y43132D02*
X1149632D01*
X1150000Y43500D01*
X1189675Y47675D02*
X1198175D01*
X1186000Y44000D02*
X1189675Y47675D01*
X1198175D02*
X1200000Y49500D01*
X1150000Y43500D02*
X1150500Y44000D01*
X1186000D01*
X1711000Y995000D02*
Y1024000D01*
Y995000D02*
X1712000Y994000D01*
X1706000Y1029000D02*
X1711000Y1024000D01*
X1089000Y1029000D02*
X1706000D01*
X188000Y380000D02*
X189000Y379000D01*
X144000Y380000D02*
X188000D01*
X138000Y386000D02*
X144000Y380000D01*
X138000Y386000D02*
Y413846D01*
D161*
X360000Y136618D02*
X387430Y109188D01*
X360000Y136618D02*
Y306000D01*
X352000Y314000D02*
X360000Y306000D01*
X221000Y314000D02*
X352000D01*
X189000Y327000D02*
Y379000D01*
X195000Y321000D02*
X195013Y320987D01*
X202000Y314000D01*
X189000Y327000D02*
X195000Y321000D01*
X202000Y314000D02*
X221000D01*
D166*
X270200Y924000D02*
D03*
X321000D02*
D03*
X371800D02*
D03*
X687400Y922000D02*
D03*
X636600D02*
D03*
X585800D02*
D03*
D167*
X422600Y924000D02*
D03*
X738200Y922000D02*
D03*
D168*
X1892800Y981000D02*
D03*
X1867400D02*
D03*
X1842000D02*
D03*
X1635900Y993000D02*
D03*
X1661300D02*
D03*
X1686700D02*
D03*
X1404800Y621000D02*
D03*
X1379400D02*
D03*
X820400Y569790D02*
D03*
X795000D02*
D03*
X769600D02*
D03*
X744200D02*
D03*
X718800D02*
D03*
X693400D02*
D03*
X668000D02*
D03*
X642600D02*
D03*
X617200D02*
D03*
X591800D02*
D03*
X566400D02*
D03*
X541000D02*
D03*
X515600D02*
D03*
Y531000D02*
D03*
X541000D02*
D03*
X566400D02*
D03*
X591800D02*
D03*
X617200D02*
D03*
X642600D02*
D03*
X668000D02*
D03*
X693400D02*
D03*
X718800D02*
D03*
X744200D02*
D03*
X769600D02*
D03*
X795000D02*
D03*
X820400D02*
D03*
X845800D02*
D03*
X871200D02*
D03*
X896600D02*
D03*
X922000D02*
D03*
X947400D02*
D03*
X972800D02*
D03*
X1582600Y545000D02*
D03*
X1608000Y519600D02*
D03*
Y545000D02*
D03*
X1633400Y519600D02*
D03*
Y545000D02*
D03*
X1658800Y519600D02*
D03*
Y545000D02*
D03*
X1684200Y519600D02*
D03*
Y545000D02*
D03*
X1709600Y519600D02*
D03*
Y545000D02*
D03*
X1735000Y519600D02*
D03*
Y545000D02*
D03*
X1760400Y519600D02*
D03*
Y545000D02*
D03*
X1785800Y519600D02*
D03*
Y545000D02*
D03*
X1811200Y519600D02*
D03*
Y545000D02*
D03*
X1941133Y349994D02*
D03*
X1903633D02*
D03*
X1941133Y389417D02*
D03*
X1903633D02*
D03*
X1941750Y311000D02*
D03*
X1904250D02*
D03*
X1940133Y431264D02*
D03*
X1902633D02*
D03*
D169*
X1816600Y981000D02*
D03*
X1712100Y993000D02*
D03*
D170*
X1392000Y1003000D02*
D03*
X1472000D02*
D03*
D171*
X1888200Y196000D02*
D03*
Y170600D02*
D03*
Y145200D02*
D03*
Y119800D02*
D03*
Y94400D02*
D03*
Y69000D02*
D03*
X1685000Y196000D02*
D03*
Y170600D02*
D03*
Y145200D02*
D03*
Y119800D02*
D03*
Y94400D02*
D03*
Y69000D02*
D03*
D172*
X1354000Y621000D02*
D03*
X490200Y569790D02*
D03*
Y531000D02*
D03*
X1582600Y519600D02*
D03*
D173*
X155400Y72000D02*
D03*
D174*
X104600D02*
D03*
D175*
X1191000Y263000D02*
D03*
X1265000Y151000D02*
D03*
X1233000D02*
D03*
X1199000D02*
D03*
X1167000D02*
D03*
X1133000D02*
D03*
X1101000D02*
D03*
X1265000Y199000D02*
D03*
X1233000D02*
D03*
X1199000D02*
D03*
X1167000D02*
D03*
X1133000D02*
D03*
X1101000D02*
D03*
X1265000Y247000D02*
D03*
X1233000D02*
D03*
X1133000D02*
D03*
X1101000D02*
D03*
X1265000Y295000D02*
D03*
X1233000D02*
D03*
X1199000D02*
D03*
X1167000D02*
D03*
X1133000D02*
D03*
X1101000D02*
D03*
X1265000Y343000D02*
D03*
X1233000D02*
D03*
X1199000D02*
D03*
X1167000D02*
D03*
X1133000D02*
D03*
X1101000D02*
D03*
X1403000Y538000D02*
D03*
X1364000D02*
D03*
X666000Y827000D02*
D03*
X656000Y826000D02*
D03*
X652000Y819000D02*
D03*
X660884Y819555D02*
D03*
X642000Y816000D02*
D03*
Y825000D02*
D03*
X660000Y833000D02*
D03*
X651000D02*
D03*
X642000D02*
D03*
X321000Y834000D02*
D03*
X334000D02*
D03*
X345000D02*
D03*
Y811000D02*
D03*
X334000D02*
D03*
X321000Y812000D02*
D03*
X345000Y821000D02*
D03*
X321000D02*
D03*
X334000D02*
D03*
X1246000Y645000D02*
D03*
X686000Y435000D02*
D03*
X675667D02*
D03*
X665333D02*
D03*
X655000D02*
D03*
X644667D02*
D03*
X634333D02*
D03*
X624000D02*
D03*
X1269000Y990000D02*
D03*
X221000Y314000D02*
D03*
D176*
X135435Y456000D02*
D03*
X189000Y380000D02*
D03*
D177*
X1257000Y473250D02*
D03*
Y456750D02*
D03*
X1053000Y461750D02*
D03*
Y478250D02*
D03*
D178*
X1180250Y479000D02*
D03*
X1170750Y457000D02*
D03*
X1189750D02*
D03*
X1140000D02*
D03*
X1149500Y479000D02*
D03*
X1130500D02*
D03*
D179*
X1664000Y961000D02*
D03*
X1683000D02*
D03*
X1673500Y938100D02*
D03*
D180*
X143103Y614068D02*
D03*
Y597760D02*
D03*
X138000Y430154D02*
D03*
Y413846D02*
D03*
D181*
X1096000Y459239D02*
D03*
Y478761D02*
D03*
X983000Y62761D02*
D03*
Y43239D02*
D03*
X1223000Y476761D02*
D03*
Y457239D02*
D03*
D182*
X1249000Y42000D02*
D03*
X1231000D02*
D03*
X1180000Y502000D02*
D03*
X1198000D02*
D03*
X1140000Y432000D02*
D03*
X1122000D02*
D03*
M02*
